<svg viewBox="-5.477960964140946 -55.178403760945045 60.93553156969135 115.1764404664855" width="200" xmlns="http://www.w3.org/2000/svg" xmlns:xlink="http://www.w3.org/1999/xlink">
<defs>
<pattern height="1" id="angle_limit_00_pattern0001" patternTransform="rotate(63.512 0 0) scale(2)" patternUnits="userSpaceOnUse" width="1">
<line stroke="rgb(255 255 255)" stroke-width="1.01" x1="0" x2="0" y1="-0.1" y2="1.1"/>
<line stroke="rgb(211 211 211)" stroke-width="1.01" x1="1" x2="1" y1="-0.1" y2="1.1"/>
</pattern>
</defs>
<rect height="100%" style="fill: url(#angle_limit_00_pattern0001)" width="100%" x="-5.477960964140946" y="-55.178403760945045"/>
<g>
<path d="M6.4,49.6 L0,50 L0,0 z" style="fill: rgb(211 211 211)"/>
<path d="M18.8,46.325 L6.4,49.6 L0,0 z" style="fill: rgb(211 211 211)"/>
<path d="M24.575,43.525 L18.8,46.325 L0,0 z" style="fill: rgb(211 211 211)"/>
<path d="M39.15,31.1 L24.575,43.525 L0,0 z" style="fill: rgb(211 211 211)"/>
<path d="M42.825,25.825 L39.15,31.1 L0,0 z" style="fill: rgb(211 211 211)"/>
<path d="M45.775,20.125 L42.825,25.825 L0,0 z" style="fill: rgb(211 211 211)"/>
<path d="M47.975,14.075 L45.775,20.125 L0,0 z" style="fill: rgb(211 211 211)"/>
<path d="M49.375,7.825 L47.975,14.075 L0,0 z" style="fill: rgb(211 211 211)"/>
<path d="M49.975,1.425 L49.375,7.825 L0,0 z" style="fill: rgb(211 211 211)"/>
<path d="M49.75,-5 L49.975,1.425 L0,0 z" style="fill: rgb(211 211 211)"/>
<path d="M48.7,-11.325 L49.75,-5 L0,0 z" style="fill: rgb(211 211 211)"/>
<path d="M36.825,-33.8 L48.7,-11.325 L0,0 z" style="fill: rgb(211 211 211)"/>
<path d="M32.2,-38.25 L36.825,-33.8 L0,0 z" style="fill: rgb(211 211 211)"/>
<path d="M27.025,-42.075 L32.2,-38.25 L0,0 z" style="fill: rgb(211 211 211)"/>
<path d="M21.425,-45.175 L27.025,-42.075 L0,0 z" style="fill: rgb(211 211 211)"/>
<line style="stroke-width: 1; stroke: rgb(139 0 0); fill: none" x1="0" x2="0" y1="0" y2="50"/>
<line style="stroke-width: 1; stroke: rgb(169 169 169); fill: none" x1="0" x2="6.4" y1="0" y2="49.6"/>
<line style="stroke-width: 1; stroke: rgb(139 0 0); fill: none" x1="6.4" x2="0" y1="49.6" y2="50"/>
<line style="stroke-width: 1; stroke: rgb(169 169 169); fill: none" x1="0" x2="18.8" y1="0" y2="46.325"/>
<line style="stroke-width: 1; stroke: rgb(139 0 0); fill: none" x1="18.8" x2="6.4" y1="46.325" y2="49.6"/>
<line style="stroke-width: 1; stroke: rgb(169 169 169); fill: none" x1="0" x2="24.575" y1="0" y2="43.525"/>
<line style="stroke-width: 1; stroke: rgb(139 0 0); fill: none" x1="24.575" x2="18.8" y1="43.525" y2="46.325"/>
<line style="stroke-width: 1; stroke: rgb(169 169 169); fill: none" x1="0" x2="39.15" y1="0" y2="31.1"/>
<line style="stroke-width: 1; stroke: rgb(139 0 0); fill: none" x1="39.15" x2="24.575" y1="31.1" y2="43.525"/>
<line style="stroke-width: 1; stroke: rgb(169 169 169); fill: none" x1="0" x2="42.825" y1="0" y2="25.825"/>
<line style="stroke-width: 1; stroke: rgb(139 0 0); fill: none" x1="42.825" x2="39.15" y1="25.825" y2="31.1"/>
<line style="stroke-width: 1; stroke: rgb(169 169 169); fill: none" x1="0" x2="45.775" y1="0" y2="20.125"/>
<line style="stroke-width: 1; stroke: rgb(139 0 0); fill: none" x1="45.775" x2="42.825" y1="20.125" y2="25.825"/>
<line style="stroke-width: 1; stroke: rgb(169 169 169); fill: none" x1="0" x2="47.975" y1="0" y2="14.075"/>
<line style="stroke-width: 1; stroke: rgb(139 0 0); fill: none" x1="47.975" x2="45.775" y1="14.075" y2="20.125"/>
<line style="stroke-width: 1; stroke: rgb(169 169 169); fill: none" x1="0" x2="49.375" y1="0" y2="7.825"/>
<line style="stroke-width: 1; stroke: rgb(139 0 0); fill: none" x1="49.375" x2="47.975" y1="7.825" y2="14.075"/>
<line style="stroke-width: 1; stroke: rgb(169 169 169); fill: none" x1="0" x2="49.975" y1="0" y2="1.425"/>
<line style="stroke-width: 1; stroke: rgb(139 0 0); fill: none" x1="49.975" x2="49.375" y1="1.425" y2="7.825"/>
<line style="stroke-width: 1; stroke: rgb(169 169 169); fill: none" x1="0" x2="49.75" y1="0" y2="-5"/>
<line style="stroke-width: 1; stroke: rgb(139 0 0); fill: none" x1="49.75" x2="49.975" y1="-5" y2="1.425"/>
<line style="stroke-width: 1; stroke: rgb(169 169 169); fill: none" x1="0" x2="48.7" y1="0" y2="-11.325"/>
<line style="stroke-width: 1; stroke: rgb(139 0 0); fill: none" x1="48.7" x2="49.75" y1="-11.325" y2="-5"/>
<line style="stroke-width: 1; stroke: rgb(169 169 169); fill: none" x1="0" x2="36.825" y1="0" y2="-33.8"/>
<line style="stroke-width: 1; stroke: rgb(139 0 0); fill: none" x1="36.825" x2="48.7" y1="-33.8" y2="-11.325"/>
<line style="stroke-width: 1; stroke: rgb(169 169 169); fill: none" x1="0" x2="32.2" y1="0" y2="-38.25"/>
<line style="stroke-width: 1; stroke: rgb(139 0 0); fill: none" x1="32.2" x2="36.825" y1="-38.25" y2="-33.8"/>
<line style="stroke-width: 1; stroke: rgb(169 169 169); fill: none" x1="0" x2="27.025" y1="0" y2="-42.075"/>
<line style="stroke-width: 1; stroke: rgb(139 0 0); fill: none" x1="27.025" x2="32.2" y1="-42.075" y2="-38.25"/>
<line style="stroke-width: 1; stroke: rgb(139 0 0); fill: none" x1="0" x2="21.425" y1="0" y2="-45.175"/>
<line style="stroke-width: 1; stroke: rgb(139 0 0); fill: none" x1="21.425" x2="27.025" y1="-45.175" y2="-42.075"/>
<circle cx="0" cy="0" r="0.4" style="stroke-width: 0.5; stroke: rgb(0 0 0); fill: rgb(105 105 105)"/>
<circle cx="0" cy="50" r="0.4" style="stroke-width: 0.5; stroke: rgb(0 0 0); fill: rgb(105 105 105)"/>
<circle cx="6.4" cy="49.6" r="0.4" style="stroke-width: 0.5; stroke: rgb(0 0 0); fill: rgb(105 105 105)"/>
<circle cx="18.8" cy="46.325" r="0.4" style="stroke-width: 0.5; stroke: rgb(0 0 0); fill: rgb(105 105 105)"/>
<circle cx="24.575" cy="43.525" r="0.4" style="stroke-width: 0.5; stroke: rgb(0 0 0); fill: rgb(105 105 105)"/>
<circle cx="39.15" cy="31.1" r="0.4" style="stroke-width: 0.5; stroke: rgb(0 0 0); fill: rgb(105 105 105)"/>
<circle cx="42.825" cy="25.825" r="0.4" style="stroke-width: 0.5; stroke: rgb(0 0 0); fill: rgb(105 105 105)"/>
<circle cx="45.775" cy="20.125" r="0.4" style="stroke-width: 0.5; stroke: rgb(0 0 0); fill: rgb(105 105 105)"/>
<circle cx="47.975" cy="14.075" r="0.4" style="stroke-width: 0.5; stroke: rgb(0 0 0); fill: rgb(105 105 105)"/>
<circle cx="49.375" cy="7.825" r="0.4" style="stroke-width: 0.5; stroke: rgb(0 0 0); fill: rgb(105 105 105)"/>
<circle cx="49.975" cy="1.425" r="0.4" style="stroke-width: 0.5; stroke: rgb(0 0 0); fill: rgb(105 105 105)"/>
<circle cx="49.75" cy="-5" r="0.4" style="stroke-width: 0.5; stroke: rgb(0 0 0); fill: rgb(105 105 105)"/>
<circle cx="48.7" cy="-11.325" r="0.4" style="stroke-width: 0.5; stroke: rgb(0 0 0); fill: rgb(105 105 105)"/>
<circle cx="36.825" cy="-33.8" r="0.4" style="stroke-width: 0.5; stroke: rgb(0 0 0); fill: rgb(105 105 105)"/>
<circle cx="32.2" cy="-38.25" r="0.4" style="stroke-width: 0.5; stroke: rgb(0 0 0); fill: rgb(105 105 105)"/>
<circle cx="27.025" cy="-42.075" r="0.4" style="stroke-width: 0.5; stroke: rgb(0 0 0); fill: rgb(105 105 105)"/>
<circle cx="21.425" cy="-45.175" r="0.4" style="stroke-width: 0.5; stroke: rgb(0 0 0); fill: rgb(105 105 105)"/>
</g>
</svg>