<svg viewBox="-5.477960964140946 -55.178403760945045 60.93553156969135 115.1764404664855" width="200" xmlns="http://www.w3.org/2000/svg" xmlns:xlink="http://www.w3.org/1999/xlink">
<defs>
<pattern height="1" id="angle_limit_34_pattern0001" patternTransform="rotate(63.512 0 0) scale(2)" patternUnits="userSpaceOnUse" width="1">
<line stroke="rgb(255 255 255)" stroke-width="1.01" x1="0" x2="0" y1="-0.1" y2="1.1"/>
<line stroke="rgb(211 211 211)" stroke-width="1.01" x1="1" x2="1" y1="-0.1" y2="1.1"/>
</pattern>
</defs>
<rect height="100%" style="fill: url(#angle_limit_34_pattern0001)" width="100%" x="-5.477960964140946" y="-55.178403760945045"/>
<g>
<path d="M6.4083095,49.587635 L0,50 L0,42 z" style="fill: rgb(211 211 211)"/>
<path d="M0,42 L0,34 L8.632162,38 z" style="fill: rgb(211 211 211)"/>
<path d="M36.50096,18.927649 L42.81745,25.819874 L31.766668,26.333393 z" style="fill: rgb(211 211 211)"/>
<path d="M45.77356,20.119179 L42.81745,25.819874 L36.50096,18.927649 z" style="fill: rgb(211 211 211)"/>
<path d="M12.188697,15.797959 L19.547699,23.334345 L7.074103,21.696728 z" style="fill: rgb(211 211 211)"/>
<path d="M27.152424,18.852264 L36.50096,18.927649 L31.766668,26.333393 z" style="fill: rgb(211 211 211)"/>
<path d="M39.15509,31.094679 L31.766668,26.333393 L42.81745,25.819874 z" style="fill: rgb(211 211 211)"/>
<path d="M47.974648,14.086628 L39.266624,8.537331 L49.38442,7.8217235 z" style="fill: rgb(211 211 211)"/>
<path d="M31.96696,1.4948393 L40.962402,-1.4629759 L39.266624,8.537331 z" style="fill: rgb(211 211 211)"/>
<path d="M40.570396,-26.733282 L35.252068,-27.310165 L36.837055,-33.808746 z" style="fill: rgb(211 211 211)"/>
<path d="M18.794353,4.106031 L9.798046,0.21813466 L18.304506,-3.0255177 z" style="fill: rgb(211 211 211)"/>
<path d="M17.073761,-27.043001 L15.194653,-22.953768 L12.636671,-26.656416 z" style="fill: rgb(211 211 211)"/>
<path d="M44.96726,-18.400301 L48.700596,-11.324839 L41.83836,-12.791334 z" style="fill: rgb(211 211 211)"/>
<path d="M17.991192,-37.951508 L21.418087,-45.180367 L22.9742,-38.98983 z" style="fill: rgb(211 211 211)"/>
<path d="M3.426894,-7.228859 L14.115621,-10.035994 L9.798046,0.21813466 z" style="fill: rgb(211 211 211)"/>
<path d="M18.43363,38.17816 L18.803862,46.329414 L14.469112,42.442265 z" style="fill: rgb(211 211 211)"/>
<path d="M31.766668,26.333393 L39.15509,31.094679 L31.870867,37.31599 z" style="fill: rgb(211 211 211)"/>
<path d="M0,34 L6.8221474,29.5 L8.632162,38 z" style="fill: rgb(211 211 211)"/>
<path d="M6.8221474,29.5 L7.074103,21.696728 L14.88579,30.830177 z" style="fill: rgb(211 211 211)"/>
<path d="M40.962402,-1.4629759 L49.97961,1.4278026 L44.147892,4.1096067 z" style="fill: rgb(211 211 211)"/>
<path d="M44.147892,4.1096067 L39.266624,8.537331 L40.962402,-1.4629759 z" style="fill: rgb(211 211 211)"/>
<path d="M47.974648,14.086628 L45.77356,20.119179 L41.691296,15.211858 z" style="fill: rgb(211 211 211)"/>
<path d="M0,25 L0,16 L7.074103,21.696728 z" style="fill: rgb(211 211 211)"/>
<path d="M35.98413,-12.518321 L41.83836,-12.791334 L37.644833,-6.617602 z" style="fill: rgb(211 211 211)"/>
<path d="M18.43363,38.17816 L23.964344,30.977259 L24.586647,43.537304 z" style="fill: rgb(211 211 211)"/>
<path d="M27.152424,18.852264 L23.964344,30.977259 L19.547699,23.334345 z" style="fill: rgb(211 211 211)"/>
<path d="M39.266624,8.537331 L36.50096,18.927649 L32.123585,8.636856 z" style="fill: rgb(211 211 211)"/>
<path d="M18.794353,4.106031 L25.857544,5.2061653 L21.097622,12.542319 z" style="fill: rgb(211 211 211)"/>
<path d="M48.700596,-11.324839 L49.75041,-4.9896693 L43.742233,-7.2486105 z" style="fill: rgb(211 211 211)"/>
<path d="M40.962402,-1.4629759 L49.75041,-4.9896693 L49.97961,1.4278026 z" style="fill: rgb(211 211 211)"/>
<path d="M21.030972,-22.677036 L21.40923,-28.063253 L26.775385,-27.464252 z" style="fill: rgb(211 211 211)"/>
<path d="M42.768826,-22.566792 L44.96726,-18.400301 L38.90174,-17.863098 z" style="fill: rgb(211 211 211)"/>
<path d="M20.422644,-34.58551 L18.555006,-31.044176 L16.277746,-34.33708 z" style="fill: rgb(211 211 211)"/>
<path d="M22.9742,-38.98983 L27.032042,-42.062675 L27.478067,-37.257965 z" style="fill: rgb(211 211 211)"/>
<path d="M32.20011,-38.25118 L30.599146,-31.938913 L27.478067,-37.257965 z" style="fill: rgb(211 211 211)"/>
<path d="M8.632162,38 L14.469112,42.442265 L8.942282,43.648403 z" style="fill: rgb(211 211 211)"/>
<path d="M31.870867,37.31599 L24.586647,43.537304 L23.964344,30.977259 z" style="fill: rgb(211 211 211)"/>
<path d="M18.43363,38.17816 L24.586647,43.537304 L18.803862,46.329414 z" style="fill: rgb(211 211 211)"/>
<path d="M14.88579,30.830177 L8.632162,38 L6.8221474,29.5 z" style="fill: rgb(211 211 211)"/>
<path d="M8.632162,38 L8.942282,43.648403 L0,42 z" style="fill: rgb(211 211 211)"/>
<path d="M31.766668,26.333393 L31.870867,37.31599 L23.964344,30.977259 z" style="fill: rgb(211 211 211)"/>
<path d="M8.632162,38 L14.88579,30.830177 L18.43363,38.17816 z" style="fill: rgb(211 211 211)"/>
<path d="M6.4083095,49.587635 L0,42 L8.942282,43.648403 z" style="fill: rgb(211 211 211)"/>
<path d="M14.469112,42.442265 L8.632162,38 L18.43363,38.17816 z" style="fill: rgb(211 211 211)"/>
<path d="M12.606086,47.958527 L14.469112,42.442265 L18.803862,46.329414 z" style="fill: rgb(211 211 211)"/>
<path d="M6.8221474,29.5 L0,34 L0,25 z" style="fill: rgb(211 211 211)"/>
<path d="M14.88579,30.830177 L7.074103,21.696728 L19.547699,23.334345 z" style="fill: rgb(211 211 211)"/>
<path d="M12.188697,15.797959 L6.0297184,12 L12.301801,8.721697 z" style="fill: rgb(211 211 211)"/>
<path d="M30.599146,-31.938913 L36.837055,-33.808746 L35.252068,-27.310165 z" style="fill: rgb(211 211 211)"/>
<path d="M31.302212,-23.702394 L26.547459,-19.374487 L26.775385,-27.464252 z" style="fill: rgb(211 211 211)"/>
<path d="M36.50096,18.927649 L41.691296,15.211858 L45.77356,20.119179 z" style="fill: rgb(211 211 211)"/>
<path d="M25.857544,5.2061653 L31.96696,1.4948393 L32.123585,8.636856 z" style="fill: rgb(211 211 211)"/>
<path d="M49.38442,7.8217235 L44.147892,4.1096067 L49.97961,1.4278026 z" style="fill: rgb(211 211 211)"/>
<path d="M44.147892,4.1096067 L49.38442,7.8217235 L39.266624,8.537331 z" style="fill: rgb(211 211 211)"/>
<path d="M41.691296,15.211858 L36.50096,18.927649 L39.266624,8.537331 z" style="fill: rgb(211 211 211)"/>
<path d="M41.691296,15.211858 L39.266624,8.537331 L47.974648,14.086628 z" style="fill: rgb(211 211 211)"/>
<path d="M37.644833,-6.617602 L40.962402,-1.4629759 L31.96696,1.4948393 z" style="fill: rgb(211 211 211)"/>
<path d="M15.194653,-22.953768 L20.54233,-15.602256 L13.452498,-16.595337 z" style="fill: rgb(211 211 211)"/>
<path d="M7.074103,21.696728 L6.8221474,29.5 L0,25 z" style="fill: rgb(211 211 211)"/>
<path d="M12.188697,15.797959 L7.074103,21.696728 L6.0297184,12 z" style="fill: rgb(211 211 211)"/>
<path d="M23.964344,30.977259 L18.43363,38.17816 L14.88579,30.830177 z" style="fill: rgb(211 211 211)"/>
<path d="M31.766668,26.333393 L23.964344,30.977259 L27.152424,18.852264 z" style="fill: rgb(211 211 211)"/>
<path d="M27.152424,18.852264 L19.547699,23.334345 L21.097622,12.542319 z" style="fill: rgb(211 211 211)"/>
<path d="M14.88579,30.830177 L19.547699,23.334345 L23.964344,30.977259 z" style="fill: rgb(211 211 211)"/>
<path d="M24.134575,-32.72447 L26.775385,-27.464252 L21.40923,-28.063253 z" style="fill: rgb(211 211 211)"/>
<path d="M32.76663,-17.743416 L26.547459,-19.374487 L31.302212,-23.702394 z" style="fill: rgb(211 211 211)"/>
<path d="M40.962402,-1.4629759 L43.742233,-7.2486105 L49.75041,-4.9896693 z" style="fill: rgb(211 211 211)"/>
<path d="M43.742233,-7.2486105 L37.644833,-6.617602 L41.83836,-12.791334 z" style="fill: rgb(211 211 211)"/>
<path d="M20.422644,-34.58551 L22.9742,-38.98983 L24.134575,-32.72447 z" style="fill: rgb(211 211 211)"/>
<path d="M38.90174,-17.863098 L41.83836,-12.791334 L35.98413,-12.518321 z" style="fill: rgb(211 211 211)"/>
<path d="M38.90174,-17.863098 L32.76663,-17.743416 L37.875652,-22.64817 z" style="fill: rgb(211 211 211)"/>
<path d="M40.570396,-26.733282 L42.768826,-22.566792 L37.875652,-22.64817 z" style="fill: rgb(211 211 211)"/>
<path d="M41.83836,-12.791334 L38.90174,-17.863098 L44.96726,-18.400301 z" style="fill: rgb(211 211 211)"/>
<path d="M43.742233,-7.2486105 L41.83836,-12.791334 L48.700596,-11.324839 z" style="fill: rgb(211 211 211)"/>
<path d="M24.134575,-32.72447 L30.599146,-31.938913 L26.775385,-27.464252 z" style="fill: rgb(211 211 211)"/>
<path d="M36.837055,-33.808746 L30.599146,-31.938913 L32.20011,-38.25118 z" style="fill: rgb(211 211 211)"/>
<path d="M38.90174,-17.863098 L37.875652,-22.64817 L42.768826,-22.566792 z" style="fill: rgb(211 211 211)"/>
<path d="M12.606086,47.958527 L8.942282,43.648403 L14.469112,42.442265 z" style="fill: rgb(211 211 211)"/>
<path d="M8.942282,43.648403 L12.606086,47.958527 L6.4083095,49.587635 z" style="fill: rgb(211 211 211)"/>
<path d="M37.644833,-6.617602 L30.080938,-7.672868 L35.98413,-12.518321 z" style="fill: rgb(211 211 211)"/>
<path d="M6.0017414,5.4974856 L9.798046,0.21813466 L12.301801,8.721697 z" style="fill: rgb(211 211 211)"/>
<path d="M32.76663,-17.743416 L35.98413,-12.518321 L28.33838,-13.530979 z" style="fill: rgb(211 211 211)"/>
<path d="M40.962402,-1.4629759 L37.644833,-6.617602 L43.742233,-7.2486105 z" style="fill: rgb(211 211 211)"/>
<path d="M35.98413,-12.518321 L32.76663,-17.743416 L38.90174,-17.863098 z" style="fill: rgb(211 211 211)"/>
<path d="M26.547459,-19.374487 L28.33838,-13.530979 L20.54233,-15.602256 z" style="fill: rgb(211 211 211)"/>
<path d="M31.302212,-23.702394 L37.875652,-22.64817 L32.76663,-17.743416 z" style="fill: rgb(211 211 211)"/>
<path d="M40.570396,-26.733282 L37.875652,-22.64817 L35.252068,-27.310165 z" style="fill: rgb(211 211 211)"/>
<path d="M31.302212,-23.702394 L26.775385,-27.464252 L30.599146,-31.938913 z" style="fill: rgb(211 211 211)"/>
<path d="M21.030972,-22.677036 L26.775385,-27.464252 L26.547459,-19.374487 z" style="fill: rgb(211 211 211)"/>
<path d="M30.080938,-7.672868 L22.526503,-8.793852 L28.33838,-13.530979 z" style="fill: rgb(211 211 211)"/>
<path d="M21.030972,-22.677036 L26.547459,-19.374487 L20.54233,-15.602256 z" style="fill: rgb(211 211 211)"/>
<path d="M31.96696,1.4948393 L25.367695,-1.9253832 L30.080938,-7.672868 z" style="fill: rgb(211 211 211)"/>
<path d="M27.152424,18.852264 L21.097622,12.542319 L32.123585,8.636856 z" style="fill: rgb(211 211 211)"/>
<path d="M30.080938,-7.672868 L37.644833,-6.617602 L31.96696,1.4948393 z" style="fill: rgb(211 211 211)"/>
<path d="M22.526503,-8.793852 L30.080938,-7.672868 L25.367695,-1.9253832 z" style="fill: rgb(211 211 211)"/>
<path d="M28.33838,-13.530979 L26.547459,-19.374487 L32.76663,-17.743416 z" style="fill: rgb(211 211 211)"/>
<path d="M30.080938,-7.672868 L28.33838,-13.530979 L35.98413,-12.518321 z" style="fill: rgb(211 211 211)"/>
<path d="M31.302212,-23.702394 L35.252068,-27.310165 L37.875652,-22.64817 z" style="fill: rgb(211 211 211)"/>
<path d="M35.252068,-27.310165 L31.302212,-23.702394 L30.599146,-31.938913 z" style="fill: rgb(211 211 211)"/>
<path d="M12.636671,-26.656416 L14.564299,-30.72265 L17.073761,-27.043001 z" style="fill: rgb(211 211 211)"/>
<path d="M20.422644,-34.58551 L24.134575,-32.72447 L18.555006,-31.044176 z" style="fill: rgb(211 211 211)"/>
<path d="M21.030972,-22.677036 L20.54233,-15.602256 L15.194653,-22.953768 z" style="fill: rgb(211 211 211)"/>
<path d="M22.526503,-8.793852 L20.54233,-15.602256 L28.33838,-13.530979 z" style="fill: rgb(211 211 211)"/>
<path d="M14.115621,-10.035994 L6.853788,-14.457718 L13.452498,-16.595337 z" style="fill: rgb(211 211 211)"/>
<path d="M18.794353,4.106031 L25.367695,-1.9253832 L25.857544,5.2061653 z" style="fill: rgb(211 211 211)"/>
<path d="M22.526503,-8.793852 L25.367695,-1.9253832 L18.304506,-3.0255177 z" style="fill: rgb(211 211 211)"/>
<path d="M21.40923,-28.063253 L17.073761,-27.043001 L18.555006,-31.044176 z" style="fill: rgb(211 211 211)"/>
<path d="M20.422644,-34.58551 L16.277746,-34.33708 L17.991192,-37.951508 z" style="fill: rgb(211 211 211)"/>
<path d="M22.526503,-8.793852 L14.115621,-10.035994 L20.54233,-15.602256 z" style="fill: rgb(211 211 211)"/>
<path d="M18.794353,4.106031 L18.304506,-3.0255177 L25.367695,-1.9253832 z" style="fill: rgb(211 211 211)"/>
<path d="M14.115621,-10.035994 L3.426894,-7.228859 L6.853788,-14.457718 z" style="fill: rgb(211 211 211)"/>
<path d="M6.0017414,5.4974856 L12.301801,8.721697 L6.0297184,12 z" style="fill: rgb(211 211 211)"/>
<path d="M9.798046,0.21813466 L0,0 L3.426894,-7.228859 z" style="fill: rgb(211 211 211)"/>
<path d="M31.96696,1.4948393 L25.857544,5.2061653 L25.367695,-1.9253832 z" style="fill: rgb(211 211 211)"/>
<path d="M39.266624,8.537331 L32.123585,8.636856 L31.96696,1.4948393 z" style="fill: rgb(211 211 211)"/>
<path d="M14.115621,-10.035994 L18.304506,-3.0255177 L9.798046,0.21813466 z" style="fill: rgb(211 211 211)"/>
<path d="M18.304506,-3.0255177 L14.115621,-10.035994 L22.526503,-8.793852 z" style="fill: rgb(211 211 211)"/>
<path d="M17.073761,-27.043001 L21.40923,-28.063253 L21.030972,-22.677036 z" style="fill: rgb(211 211 211)"/>
<path d="M10.7090435,-22.590183 L12.636671,-26.656416 L15.194653,-22.953768 z" style="fill: rgb(211 211 211)"/>
<path d="M32.20011,-38.25118 L27.478067,-37.257965 L27.032042,-42.062675 z" style="fill: rgb(211 211 211)"/>
<path d="M14.564299,-30.72265 L16.277746,-34.33708 L18.555006,-31.044176 z" style="fill: rgb(211 211 211)"/>
<path d="M0,8 L0,0 L6.0017414,5.4974856 z" style="fill: rgb(211 211 211)"/>
<path d="M27.152424,18.852264 L32.123585,8.636856 L36.50096,18.927649 z" style="fill: rgb(211 211 211)"/>
<path d="M25.857544,5.2061653 L32.123585,8.636856 L21.097622,12.542319 z" style="fill: rgb(211 211 211)"/>
<path d="M12.188697,15.797959 L21.097622,12.542319 L19.547699,23.334345 z" style="fill: rgb(211 211 211)"/>
<path d="M18.794353,4.106031 L21.097622,12.542319 L12.301801,8.721697 z" style="fill: rgb(211 211 211)"/>
<path d="M15.194653,-22.953768 L17.073761,-27.043001 L21.030972,-22.677036 z" style="fill: rgb(211 211 211)"/>
<path d="M14.115621,-10.035994 L13.452498,-16.595337 L20.54233,-15.602256 z" style="fill: rgb(211 211 211)"/>
<path d="M22.9742,-38.98983 L20.422644,-34.58551 L17.991192,-37.951508 z" style="fill: rgb(211 211 211)"/>
<path d="M27.032042,-42.062675 L22.9742,-38.98983 L21.418087,-45.180367 z" style="fill: rgb(211 211 211)"/>
<path d="M21.40923,-28.063253 L18.555006,-31.044176 L24.134575,-32.72447 z" style="fill: rgb(211 211 211)"/>
<path d="M14.564299,-30.72265 L18.555006,-31.044176 L17.073761,-27.043001 z" style="fill: rgb(211 211 211)"/>
<path d="M0,16 L6.0297184,12 L7.074103,21.696728 z" style="fill: rgb(211 211 211)"/>
<path d="M6.0297184,12 L0,16 L0,8 z" style="fill: rgb(211 211 211)"/>
<path d="M6.0017414,5.4974856 L6.0297184,12 L0,8 z" style="fill: rgb(211 211 211)"/>
<path d="M9.798046,0.21813466 L6.0017414,5.4974856 L0,0 z" style="fill: rgb(211 211 211)"/>
<path d="M10.7090435,-22.590183 L13.452498,-16.595337 L6.853788,-14.457718 z" style="fill: rgb(211 211 211)"/>
<path d="M13.452498,-16.595337 L10.7090435,-22.590183 L15.194653,-22.953768 z" style="fill: rgb(211 211 211)"/>
<path d="M24.134575,-32.72447 L27.478067,-37.257965 L30.599146,-31.938913 z" style="fill: rgb(211 211 211)"/>
<path d="M27.478067,-37.257965 L24.134575,-32.72447 L22.9742,-38.98983 z" style="fill: rgb(211 211 211)"/>
<path d="M18.794353,4.106031 L12.301801,8.721697 L9.798046,0.21813466 z" style="fill: rgb(211 211 211)"/>
<path d="M12.188697,15.797959 L12.301801,8.721697 L21.097622,12.542319 z" style="fill: rgb(211 211 211)"/>
<line style="stroke-width: 1; stroke: rgb(139 0 0); fill: none" x1="0" x2="0" y1="42" y2="50"/>
<line style="stroke-width: 1; stroke: rgb(169 169 169); fill: none" x1="0" x2="8.632161880543864" y1="34" y2="38"/>
<line style="stroke-width: 1; stroke: rgb(139 0 0); fill: none" x1="6.408309576054638" x2="0" y1="49.58763523679514" y2="50"/>
<line style="stroke-width: 1; stroke: rgb(169 169 169); fill: none" x1="14.46911281676571" x2="8.942282157670068" y1="42.44226600439996" y2="43.64840216143932"/>
<line style="stroke-width: 1; stroke: rgb(139 0 0); fill: none" x1="18.80386247692999" x2="12.606086026492314" y1="46.32941566595357" y2="47.958525451374356"/>
<line style="stroke-width: 1; stroke: rgb(169 169 169); fill: none" x1="36.500959826541965" x2="31.76666918883961" y1="18.927648651652326" y2="26.333394008643523"/>
<line style="stroke-width: 1; stroke: rgb(139 0 0); fill: none" x1="24.586646232280188" x2="18.80386247692999" y1="43.53730385598886" y2="46.32941566595357"/>
<line style="stroke-width: 1; stroke: rgb(169 169 169); fill: none" x1="7.074102894325379" x2="19.547698408808728" y1="21.696727758114058" y2="23.33434541029276"/>
<line style="stroke-width: 1; stroke: rgb(139 0 0); fill: none" x1="39.15508854902776" x2="31.870867390653974" y1="31.094678655966117" y2="37.31599125597749"/>
<line style="stroke-width: 1; stroke: rgb(169 169 169); fill: none" x1="31.76666918883961" x2="42.817451512579446" y1="26.333394008643523" y2="25.819873081948096"/>
<line style="stroke-width: 1; stroke: rgb(139 0 0); fill: none" x1="42.817451512579446" x2="39.15508854902776" y1="25.819873081948096" y2="31.094678655966117"/>
<line style="stroke-width: 1; stroke: rgb(169 169 169); fill: none" x1="36.500959826541965" x2="42.817451512579446" y1="18.927648651652326" y2="25.819873081948096"/>
<line style="stroke-width: 1; stroke: rgb(139 0 0); fill: none" x1="45.773558145970306" x2="42.817451512579446" y1="20.11917927395339" y2="25.819873081948096"/>
<line style="stroke-width: 1; stroke: rgb(169 169 169); fill: none" x1="40.96240244290469" x2="39.26662622587027" y1="-1.4629759135553835" y2="8.537330453758853"/>
<line style="stroke-width: 1; stroke: rgb(139 0 0); fill: none" x1="47.97464868072487" x2="45.773558145970306" y1="14.08662784207149" y2="20.11917927395339"/>
<line style="stroke-width: 1; stroke: rgb(169 169 169); fill: none" x1="32.12358596004291" x2="36.500959826541965" y1="8.636855706800453" y2="18.927648651652326"/>
<line style="stroke-width: 1; stroke: rgb(139 0 0); fill: none" x1="49.38441702975689" x2="47.97464868072487" y1="7.821723252011546" y2="14.08662784207149"/>
<line style="stroke-width: 1; stroke: rgb(169 169 169); fill: none" x1="44.14789112427125" x2="49.97960964140946" y1="4.109606577784201" y2="1.4278025396848126"/>
<line style="stroke-width: 1; stroke: rgb(139 0 0); fill: none" x1="49.97960964140946" x2="49.38441702975689" y1="1.4278025396848126" y2="7.821723252011546"/>
<line style="stroke-width: 1; stroke: rgb(169 169 169); fill: none" x1="43.74223138095829" x2="49.75040905726798" y1="-7.248610264001197" y2="-4.9896691908891375"/>
<line style="stroke-width: 1; stroke: rgb(139 0 0); fill: none" x1="49.75040905726798" x2="49.97960964140946" y1="-4.9896691908891375" y2="1.4278025396848126"/>
<line style="stroke-width: 1; stroke: rgb(169 169 169); fill: none" x1="28.338380167737053" x2="35.98413105013221" y1="-13.530979528413813" y2="-12.518321303434302"/>
<line style="stroke-width: 1; stroke: rgb(139 0 0); fill: none" x1="48.70059584711668" x2="49.75040905726798" y1="-11.324838371288202" y2="-4.9896691908891375"/>
<line style="stroke-width: 1; stroke: rgb(169 169 169); fill: none" x1="21.409230096454706" x2="26.775384735402774" y1="-28.063254106866705" y2="-27.464252959022584"/>
<line style="stroke-width: 1; stroke: rgb(139 0 0); fill: none" x1="36.83705689382024" x2="40.57039547962563" y1="-33.80874501370098" y2="-26.733281565718464"/>
<line style="stroke-width: 1; stroke: rgb(169 169 169); fill: none" x1="20.542329014846892" x2="14.115620330642884" y1="-15.602255350711493" y2="-10.035993355306903"/>
<line style="stroke-width: 1; stroke: rgb(139 0 0); fill: none" x1="32.20011272044277" x2="36.83705689382024" y1="-38.25117959999116" y2="-33.80874501370098"/>
<line style="stroke-width: 1; stroke: rgb(169 169 169); fill: none" x1="35.25206883854532" x2="36.83705689382024" y1="-27.31016594291771" y2="-33.80874501370098"/>
<line style="stroke-width: 1; stroke: rgb(139 0 0); fill: none" x1="27.032040872779888" x2="32.20011272044277" y1="-42.06267664155906" y2="-38.25117959999116"/>
<line style="stroke-width: 1; stroke: rgb(139 0 0); fill: none" x1="0" x2="3.4268938527646498" y1="0" y2="-7.228858728864735"/>
<line style="stroke-width: 1; stroke: rgb(139 0 0); fill: none" x1="21.41808657977906" x2="27.032040872779888" y1="-45.18036705540459" y2="-42.06267664155906"/>
<line style="stroke-width: 1; stroke: rgb(169 169 169); fill: none" x1="6.822147377360171" x2="8.632161880543864" y1="29.5" y2="38"/>
<line style="stroke-width: 1; stroke: rgb(139 0 0); fill: none" x1="0" x2="0" y1="25" y2="16"/>
<line style="stroke-width: 1; stroke: rgb(169 169 169); fill: none" x1="24.586646232280188" x2="23.964343371154783" y1="43.53730385598886" y2="30.97725942563375"/>
<line style="stroke-width: 1; stroke: rgb(169 169 169); fill: none" x1="23.964343371154783" x2="31.870867390653974" y1="30.97725942563375" y2="37.31599125597749"/>
<line style="stroke-width: 1; stroke: rgb(169 169 169); fill: none" x1="14.885789468704441" x2="7.074102894325379" y1="30.830177078859514" y2="21.696727758114058"/>
<line style="stroke-width: 1; stroke: rgb(169 169 169); fill: none" x1="23.964343371154783" x2="19.547698408808728" y1="30.97725942563375" y2="23.33434541029276"/>
<line style="stroke-width: 1; stroke: rgb(169 169 169); fill: none" x1="6.029718595106463" x2="12.301800564127973" y1="12" y2="8.7216967165847"/>
<line style="stroke-width: 1; stroke: rgb(169 169 169); fill: none" x1="39.26662622587027" x2="49.38441702975689" y1="8.537330453758853" y2="7.821723252011546"/>
<line style="stroke-width: 1; stroke: rgb(169 169 169); fill: none" x1="27.15242293580942" x2="36.500959826541965" y1="18.852264170762773" y2="18.927648651652326"/>
<line style="stroke-width: 1; stroke: rgb(169 169 169); fill: none" x1="41.69129476695987" x2="45.773558145970306" y1="15.211857756940942" y2="20.11917927395339"/>
<line style="stroke-width: 1; stroke: rgb(169 169 169); fill: none" x1="45.773558145970306" x2="36.500959826541965" y1="20.11917927395339" y2="18.927648651652326"/>
<line style="stroke-width: 1; stroke: rgb(169 169 169); fill: none" x1="7.074102894325379" x2="0" y1="21.696727758114058" y2="16"/>
<line style="stroke-width: 1; stroke: rgb(169 169 169); fill: none" x1="12.301800564127973" x2="9.798046295661642" y1="8.7216967165847" y2="0.21813465705311438"/>
<line style="stroke-width: 1; stroke: rgb(169 169 169); fill: none" x1="21.09762204728402" x2="19.547698408808728" y1="12.542319687603722" y2="23.33434541029276"/>
<line style="stroke-width: 1; stroke: rgb(169 169 169); fill: none" x1="39.15508854902776" x2="31.76666918883961" y1="31.094678655966117" y2="26.333394008643523"/>
<line style="stroke-width: 1; stroke: rgb(169 169 169); fill: none" x1="23.964343371154783" x2="27.15242293580942" y1="30.97725942563375" y2="18.852264170762773"/>
<line style="stroke-width: 1; stroke: rgb(169 169 169); fill: none" x1="27.15242293580942" x2="31.76666918883961" y1="18.852264170762773" y2="26.333394008643523"/>
<line style="stroke-width: 1; stroke: rgb(169 169 169); fill: none" x1="38.90174009778547" x2="44.96725726131129" y1="-17.863098502667885" y2="-18.400301819270716"/>
<line style="stroke-width: 1; stroke: rgb(169 169 169); fill: none" x1="31.966961659691894" x2="32.12358596004291" y1="1.494839300787124" y2="8.636855706800453"/>
<line style="stroke-width: 1; stroke: rgb(169 169 169); fill: none" x1="25.85754321408981" x2="21.09762204728402" y1="5.206165131841451" y2="12.542319687603722"/>
<line style="stroke-width: 1; stroke: rgb(169 169 169); fill: none" x1="31.966961659691894" x2="40.96240244290469" y1="1.494839300787124" y2="-1.4629759135553835"/>
<line style="stroke-width: 1; stroke: rgb(169 169 169); fill: none" x1="49.75040905726798" x2="40.96240244290469" y1="-4.9896691908891375" y2="-1.4629759135553835"/>
<line style="stroke-width: 1; stroke: rgb(169 169 169); fill: none" x1="49.97960964140946" x2="40.96240244290469" y1="1.4278025396848126" y2="-1.4629759135553835"/>
<line style="stroke-width: 1; stroke: rgb(169 169 169); fill: none" x1="27.032040872779888" x2="27.47806769744056" y1="-42.06267664155906" y2="-37.25796623913969"/>
<line style="stroke-width: 1; stroke: rgb(139 0 0); fill: none" x1="10.70904328988953" x2="12.636671082069647" y1="-22.590183527702294" y2="-26.656416562688705"/>
<line style="stroke-width: 1; stroke: rgb(169 169 169); fill: none" x1="41.838359023120695" x2="48.70059584711668" y1="-12.791334448190069" y2="-11.324838371288202"/>
<line style="stroke-width: 1; stroke: rgb(139 0 0); fill: none" x1="42.76882637046846" x2="44.96725726131129" y1="-22.56679169249459" y2="-18.400301819270716"/>
<line style="stroke-width: 1; stroke: rgb(169 169 169); fill: none" x1="22.974199296125065" x2="21.41808657977906" y1="-38.989829802780186" y2="-45.18036705540459"/>
<line style="stroke-width: 1; stroke: rgb(139 0 0); fill: none" x1="14.564298874249761" x2="16.277745800632086" y1="-30.72264959767512" y2="-34.33707896210748"/>
<line style="stroke-width: 1; stroke: rgb(169 169 169); fill: none" x1="16.277745800632086" x2="18.555005405066886" y1="-34.33707896210748" y2="-31.04417646775687"/>
<line style="stroke-width: 1; stroke: rgb(169 169 169); fill: none" x1="27.47806769744056" x2="30.59914670225494" y1="-37.25796623913969" y2="-31.938913731947853"/>
<line style="stroke-width: 1; stroke: rgb(169 169 169); fill: none" x1="32.20011272044277" x2="30.59914670225494" y1="-38.25117959999116" y2="-31.938913731947853"/>
<line style="stroke-width: 1; stroke: rgb(169 169 169); fill: none" x1="0" x2="8.942282157670068" y1="42" y2="43.64840216143932"/>
<line style="stroke-width: 1; stroke: rgb(139 0 0); fill: none" x1="0" x2="0" y1="34" y2="25"/>
<line style="stroke-width: 1; stroke: rgb(169 169 169); fill: none" x1="14.885789468704441" x2="18.433629492242453" y1="30.830177078859514" y2="38.17816063076325"/>
<line style="stroke-width: 1; stroke: rgb(169 169 169); fill: none" x1="24.586646232280188" x2="18.433629492242453" y1="43.53730385598886" y2="38.17816063076325"/>
<line style="stroke-width: 1; stroke: rgb(169 169 169); fill: none" x1="18.80386247692999" x2="18.433629492242453" y1="46.32941566595357" y2="38.17816063076325"/>
<line style="stroke-width: 1; stroke: rgb(169 169 169); fill: none" x1="14.46911281676571" x2="18.80386247692999" y1="42.44226600439996" y2="46.32941566595357"/>
<line style="stroke-width: 1; stroke: rgb(139 0 0); fill: none" x1="12.606086026492314" x2="6.408309576054638" y1="47.958525451374356" y2="49.58763523679514"/>
<line style="stroke-width: 1; stroke: rgb(169 169 169); fill: none" x1="6.408309576054638" x2="0" y1="49.58763523679514" y2="42"/>
<line style="stroke-width: 1; stroke: rgb(139 0 0); fill: none" x1="0" x2="0" y1="42" y2="34"/>
<line style="stroke-width: 1; stroke: rgb(169 169 169); fill: none" x1="31.76666918883961" x2="31.870867390653974" y1="26.333394008643523" y2="37.31599125597749"/>
<line style="stroke-width: 1; stroke: rgb(139 0 0); fill: none" x1="31.870867390653974" x2="24.586646232280188" y1="37.31599125597749" y2="43.53730385598886"/>
<line style="stroke-width: 1; stroke: rgb(169 169 169); fill: none" x1="14.885789468704441" x2="8.632161880543864" y1="30.830177078859514" y2="38"/>
<line style="stroke-width: 1; stroke: rgb(169 169 169); fill: none" x1="18.433629492242453" x2="8.632161880543864" y1="38.17816063076325" y2="38"/>
<line style="stroke-width: 1; stroke: rgb(169 169 169); fill: none" x1="0" x2="8.632161880543864" y1="42" y2="38"/>
<line style="stroke-width: 1; stroke: rgb(169 169 169); fill: none" x1="8.632161880543864" x2="14.46911281676571" y1="38" y2="42.44226600439996"/>
<line style="stroke-width: 1; stroke: rgb(169 169 169); fill: none" x1="18.433629492242453" x2="14.46911281676571" y1="38.17816063076325" y2="42.44226600439996"/>
<line style="stroke-width: 1; stroke: rgb(169 169 169); fill: none" x1="12.606086026492314" x2="14.46911281676571" y1="47.958525451374356" y2="42.44226600439996"/>
<line style="stroke-width: 1; stroke: rgb(169 169 169); fill: none" x1="0" x2="6.822147377360171" y1="34" y2="29.5"/>
<line style="stroke-width: 1; stroke: rgb(169 169 169); fill: none" x1="0" x2="6.822147377360171" y1="25" y2="29.5"/>
<line style="stroke-width: 1; stroke: rgb(169 169 169); fill: none" x1="14.885789468704441" x2="6.822147377360171" y1="30.830177078859514" y2="29.5"/>
<line style="stroke-width: 1; stroke: rgb(169 169 169); fill: none" x1="6.029718595106463" x2="7.074102894325379" y1="12" y2="21.696727758114058"/>
<line style="stroke-width: 1; stroke: rgb(139 0 0); fill: none" x1="0" x2="0" y1="16" y2="8"/>
<line style="stroke-width: 1; stroke: rgb(169 169 169); fill: none" x1="26.775384735402774" x2="30.59914670225494" y1="-27.464252959022584" y2="-31.938913731947853"/>
<line style="stroke-width: 1; stroke: rgb(169 169 169); fill: none" x1="37.87565283590902" x2="42.76882637046846" y1="-22.64817057026254" y2="-22.56679169249459"/>
<line style="stroke-width: 1; stroke: rgb(169 169 169); fill: none" x1="14.564298874249761" x2="17.073760654302113" y1="-30.72264959767512" y2="-27.04300110190397"/>
<line style="stroke-width: 1; stroke: rgb(169 169 169); fill: none" x1="47.97464868072487" x2="39.26662622587027" y1="14.08662784207149" y2="8.537330453758853"/>
<line style="stroke-width: 1; stroke: rgb(169 169 169); fill: none" x1="36.500959826541965" x2="39.26662622587027" y1="18.927648651652326" y2="8.537330453758853"/>
<line style="stroke-width: 1; stroke: rgb(169 169 169); fill: none" x1="31.966961659691894" x2="39.26662622587027" y1="1.494839300787124" y2="8.537330453758853"/>
<line style="stroke-width: 1; stroke: rgb(169 169 169); fill: none" x1="40.96240244290469" x2="44.14789112427125" y1="-1.4629759135553835" y2="4.109606577784201"/>
<line style="stroke-width: 1; stroke: rgb(169 169 169); fill: none" x1="49.38441702975689" x2="44.14789112427125" y1="7.821723252011546" y2="4.109606577784201"/>
<line style="stroke-width: 1; stroke: rgb(169 169 169); fill: none" x1="39.26662622587027" x2="44.14789112427125" y1="8.537330453758853" y2="4.109606577784201"/>
<line style="stroke-width: 1; stroke: rgb(169 169 169); fill: none" x1="36.500959826541965" x2="41.69129476695987" y1="18.927648651652326" y2="15.211857756940942"/>
<line style="stroke-width: 1; stroke: rgb(169 169 169); fill: none" x1="39.26662622587027" x2="41.69129476695987" y1="8.537330453758853" y2="15.211857756940942"/>
<line style="stroke-width: 1; stroke: rgb(169 169 169); fill: none" x1="47.97464868072487" x2="41.69129476695987" y1="14.08662784207149" y2="15.211857756940942"/>
<line style="stroke-width: 1; stroke: rgb(169 169 169); fill: none" x1="43.74223138095829" x2="37.64483399158596" y1="-7.248610264001197" y2="-6.617601639877134"/>
<line style="stroke-width: 1; stroke: rgb(169 169 169); fill: none" x1="35.98413105013221" x2="30.080938351877215" y1="-12.518321303434302" y2="-7.672867780474366"/>
<line style="stroke-width: 1; stroke: rgb(169 169 169); fill: none" x1="32.766626845284435" x2="38.90174009778547" y1="-17.743415123084738" y2="-17.863098502667885"/>
<line style="stroke-width: 1; stroke: rgb(169 169 169); fill: none" x1="6.822147377360171" x2="7.074102894325379" y1="29.5" y2="21.696727758114058"/>
<line style="stroke-width: 1; stroke: rgb(169 169 169); fill: none" x1="0" x2="7.074102894325379" y1="25" y2="21.696727758114058"/>
<line style="stroke-width: 1; stroke: rgb(169 169 169); fill: none" x1="12.188696715229145" x2="7.074102894325379" y1="15.797959300996089" y2="21.696727758114058"/>
<line style="stroke-width: 1; stroke: rgb(169 169 169); fill: none" x1="18.433629492242453" x2="23.964343371154783" y1="38.17816063076325" y2="30.97725942563375"/>
<line style="stroke-width: 1; stroke: rgb(169 169 169); fill: none" x1="14.885789468704441" x2="23.964343371154783" y1="30.830177078859514" y2="30.97725942563375"/>
<line style="stroke-width: 1; stroke: rgb(169 169 169); fill: none" x1="31.76666918883961" x2="23.964343371154783" y1="26.333394008643523" y2="30.97725942563375"/>
<line style="stroke-width: 1; stroke: rgb(169 169 169); fill: none" x1="12.188696715229145" x2="19.547698408808728" y1="15.797959300996089" y2="23.33434541029276"/>
<line style="stroke-width: 1; stroke: rgb(169 169 169); fill: none" x1="27.15242293580942" x2="19.547698408808728" y1="18.852264170762773" y2="23.33434541029276"/>
<line style="stroke-width: 1; stroke: rgb(169 169 169); fill: none" x1="14.885789468704441" x2="19.547698408808728" y1="30.830177078859514" y2="23.33434541029276"/>
<line style="stroke-width: 1; stroke: rgb(169 169 169); fill: none" x1="20.542329014846892" x2="15.194652534911539" y1="-15.602255350711493" y2="-22.95376695779964"/>
<line style="stroke-width: 1; stroke: rgb(169 169 169); fill: none" x1="26.775384735402774" x2="26.547457717383203" y1="-27.464252959022584" y2="-19.374486955745326"/>
<line style="stroke-width: 1; stroke: rgb(169 169 169); fill: none" x1="26.547457717383203" x2="31.302211422716702" y1="-19.374486955745326" y2="-23.70239374383075"/>
<line style="stroke-width: 1; stroke: rgb(169 169 169); fill: none" x1="48.70059584711668" x2="43.74223138095829" y1="-11.324838371288202" y2="-7.248610264001197"/>
<line style="stroke-width: 1; stroke: rgb(169 169 169); fill: none" x1="40.96240244290469" x2="43.74223138095829" y1="-1.4629759135553835" y2="-7.248610264001197"/>
<line style="stroke-width: 1; stroke: rgb(169 169 169); fill: none" x1="37.64483399158596" x2="41.838359023120695" y1="-6.617601639877134" y2="-12.791334448190069"/>
<line style="stroke-width: 1; stroke: rgb(169 169 169); fill: none" x1="22.974199296125065" x2="24.13457427174029" y1="-38.989829802780186" y2="-32.72446823093989"/>
<line style="stroke-width: 1; stroke: rgb(139 0 0); fill: none" x1="17.99119272701441" x2="21.41808657977906" y1="-37.95150832653985" y2="-45.18036705540459"/>
<line style="stroke-width: 1; stroke: rgb(169 169 169); fill: none" x1="41.838359023120695" x2="35.98413105013221" y1="-12.791334448190069" y2="-12.518321303434302"/>
<line style="stroke-width: 1; stroke: rgb(139 0 0); fill: none" x1="44.96725726131129" x2="48.70059584711668" y1="-18.400301819270716" y2="-11.324838371288202"/>
<line style="stroke-width: 1; stroke: rgb(169 169 169); fill: none" x1="35.98413105013221" x2="38.90174009778547" y1="-12.518321303434302" y2="-17.863098502667885"/>
<line style="stroke-width: 1; stroke: rgb(169 169 169); fill: none" x1="32.766626845284435" x2="37.87565283590902" y1="-17.743415123084738" y2="-22.64817057026254"/>
<line style="stroke-width: 1; stroke: rgb(169 169 169); fill: none" x1="42.76882637046846" x2="38.90174009778547" y1="-22.56679169249459" y2="-17.863098502667885"/>
<line style="stroke-width: 1; stroke: rgb(169 169 169); fill: none" x1="38.90174009778547" x2="41.838359023120695" y1="-17.863098502667885" y2="-12.791334448190069"/>
<line style="stroke-width: 1; stroke: rgb(169 169 169); fill: none" x1="44.96725726131129" x2="41.838359023120695" y1="-18.400301819270716" y2="-12.791334448190069"/>
<line style="stroke-width: 1; stroke: rgb(169 169 169); fill: none" x1="43.74223138095829" x2="41.838359023120695" y1="-7.248610264001197" y2="-12.791334448190069"/>
<line style="stroke-width: 1; stroke: rgb(169 169 169); fill: none" x1="31.302211422716702" x2="30.59914670225494" y1="-23.70239374383075" y2="-31.938913731947853"/>
<line style="stroke-width: 1; stroke: rgb(169 169 169); fill: none" x1="24.13457427174029" x2="30.59914670225494" y1="-32.72446823093989" y2="-31.938913731947853"/>
<line style="stroke-width: 1; stroke: rgb(169 169 169); fill: none" x1="36.83705689382024" x2="30.59914670225494" y1="-33.80874501370098" y2="-31.938913731947853"/>
<line style="stroke-width: 1; stroke: rgb(169 169 169); fill: none" x1="37.87565283590902" x2="35.25206883854532" y1="-22.64817057026254" y2="-27.31016594291771"/>
<line style="stroke-width: 1; stroke: rgb(139 0 0); fill: none" x1="40.57039547962563" x2="42.76882637046846" y1="-26.733281565718464" y2="-22.56679169249459"/>
<line style="stroke-width: 1; stroke: rgb(169 169 169); fill: none" x1="8.632161880543864" x2="8.942282157670068" y1="38" y2="43.64840216143932"/>
<line style="stroke-width: 1; stroke: rgb(169 169 169); fill: none" x1="12.606086026492314" x2="8.942282157670068" y1="47.958525451374356" y2="43.64840216143932"/>
<line style="stroke-width: 1; stroke: rgb(169 169 169); fill: none" x1="6.408309576054638" x2="8.942282157670068" y1="49.58763523679514" y2="43.64840216143932"/>
<line style="stroke-width: 1; stroke: rgb(169 169 169); fill: none" x1="20.542329014846892" x2="26.547457717383203" y1="-15.602255350711493" y2="-19.374486955745326"/>
<line style="stroke-width: 1; stroke: rgb(169 169 169); fill: none" x1="30.080938351877215" x2="25.367695346564815" y1="-7.672867780474366" y2="-1.9253832438197067"/>
<line style="stroke-width: 1; stroke: rgb(169 169 169); fill: none" x1="9.798046295661642" x2="14.115620330642884" y1="0.21813465705311438" y2="-10.035993355306903"/>
<line style="stroke-width: 1; stroke: rgb(169 169 169); fill: none" x1="31.966961659691894" x2="37.64483399158596" y1="1.494839300787124" y2="-6.617601639877134"/>
<line style="stroke-width: 1; stroke: rgb(169 169 169); fill: none" x1="35.98413105013221" x2="37.64483399158596" y1="-12.518321303434302" y2="-6.617601639877134"/>
<line style="stroke-width: 1; stroke: rgb(169 169 169); fill: none" x1="40.96240244290469" x2="37.64483399158596" y1="-1.4629759135553835" y2="-6.617601639877134"/>
<line style="stroke-width: 1; stroke: rgb(169 169 169); fill: none" x1="31.302211422716702" x2="32.766626845284435" y1="-23.70239374383075" y2="-17.743415123084738"/>
<line style="stroke-width: 1; stroke: rgb(169 169 169); fill: none" x1="35.98413105013221" x2="32.766626845284435" y1="-12.518321303434302" y2="-17.743415123084738"/>
<line style="stroke-width: 1; stroke: rgb(169 169 169); fill: none" x1="28.338380167737053" x2="22.5265026765668" y1="-13.530979528413813" y2="-8.793851947843933"/>
<line style="stroke-width: 1; stroke: rgb(169 169 169); fill: none" x1="38.90174009778547" x2="37.87565283590902" y1="-17.863098502667885" y2="-22.64817057026254"/>
<line style="stroke-width: 1; stroke: rgb(169 169 169); fill: none" x1="31.302211422716702" x2="37.87565283590902" y1="-23.70239374383075" y2="-22.64817057026254"/>
<line style="stroke-width: 1; stroke: rgb(169 169 169); fill: none" x1="40.57039547962563" x2="37.87565283590902" y1="-26.733281565718464" y2="-22.64817057026254"/>
<line style="stroke-width: 1; stroke: rgb(169 169 169); fill: none" x1="24.13457427174029" x2="26.775384735402774" y1="-32.72446823093989" y2="-27.464252959022584"/>
<line style="stroke-width: 1; stroke: rgb(169 169 169); fill: none" x1="31.302211422716702" x2="26.775384735402774" y1="-23.70239374383075" y2="-27.464252959022584"/>
<line style="stroke-width: 1; stroke: rgb(169 169 169); fill: none" x1="21.030971043384838" x2="26.775384735402774" y1="-22.67703668895707" y2="-27.464252959022584"/>
<line style="stroke-width: 1; stroke: rgb(169 169 169); fill: none" x1="32.766626845284435" x2="26.547457717383203" y1="-17.743415123084738" y2="-19.374486955745326"/>
<line style="stroke-width: 1; stroke: rgb(169 169 169); fill: none" x1="28.338380167737053" x2="20.542329014846892" y1="-13.530979528413813" y2="-15.602255350711493"/>
<line style="stroke-width: 1; stroke: rgb(169 169 169); fill: none" x1="21.030971043384838" x2="26.547457717383203" y1="-22.67703668895707" y2="-19.374486955745326"/>
<line style="stroke-width: 1; stroke: rgb(169 169 169); fill: none" x1="18.30450644014955" x2="25.367695346564815" y1="-3.0255176174334064" y2="-1.9253832438197067"/>
<line style="stroke-width: 1; stroke: rgb(169 169 169); fill: none" x1="25.367695346564815" x2="25.85754321408981" y1="-1.9253832438197067" y2="5.206165131841451"/>
<line style="stroke-width: 1; stroke: rgb(169 169 169); fill: none" x1="21.09762204728402" x2="12.301800564127973" y1="12.542319687603722" y2="8.7216967165847"/>
<line style="stroke-width: 1; stroke: rgb(169 169 169); fill: none" x1="37.64483399158596" x2="30.080938351877215" y1="-6.617601639877134" y2="-7.672867780474366"/>
<line style="stroke-width: 1; stroke: rgb(169 169 169); fill: none" x1="31.966961659691894" x2="30.080938351877215" y1="1.494839300787124" y2="-7.672867780474366"/>
<line style="stroke-width: 1; stroke: rgb(169 169 169); fill: none" x1="22.5265026765668" x2="30.080938351877215" y1="-8.793851947843933" y2="-7.672867780474366"/>
<line style="stroke-width: 1; stroke: rgb(169 169 169); fill: none" x1="26.547457717383203" x2="28.338380167737053" y1="-19.374486955745326" y2="-13.530979528413813"/>
<line style="stroke-width: 1; stroke: rgb(169 169 169); fill: none" x1="32.766626845284435" x2="28.338380167737053" y1="-17.743415123084738" y2="-13.530979528413813"/>
<line style="stroke-width: 1; stroke: rgb(169 169 169); fill: none" x1="30.080938351877215" x2="28.338380167737053" y1="-7.672867780474366" y2="-13.530979528413813"/>
<line style="stroke-width: 1; stroke: rgb(169 169 169); fill: none" x1="40.57039547962563" x2="35.25206883854532" y1="-26.733281565718464" y2="-27.31016594291771"/>
<line style="stroke-width: 1; stroke: rgb(169 169 169); fill: none" x1="31.302211422716702" x2="35.25206883854532" y1="-23.70239374383075" y2="-27.31016594291771"/>
<line style="stroke-width: 1; stroke: rgb(169 169 169); fill: none" x1="30.59914670225494" x2="35.25206883854532" y1="-31.938913731947853" y2="-27.31016594291771"/>
<line style="stroke-width: 1; stroke: rgb(169 169 169); fill: none" x1="21.030971043384838" x2="21.409230096454706" y1="-22.67703668895707" y2="-28.063254106866705"/>
<line style="stroke-width: 1; stroke: rgb(169 169 169); fill: none" x1="17.073760654302113" x2="18.555005405066886" y1="-27.04300110190397" y2="-31.04417646775687"/>
<line style="stroke-width: 1; stroke: rgb(169 169 169); fill: none" x1="24.13457427174029" x2="21.409230096454706" y1="-32.72446823093989" y2="-28.063254106866705"/>
<line style="stroke-width: 1; stroke: rgb(169 169 169); fill: none" x1="20.542329014846892" x2="13.452498553243903" y1="-15.602255350711493" y2="-16.59533748318109"/>
<line style="stroke-width: 1; stroke: rgb(169 169 169); fill: none" x1="21.030971043384838" x2="20.542329014846892" y1="-22.67703668895707" y2="-15.602255350711493"/>
<line style="stroke-width: 1; stroke: rgb(169 169 169); fill: none" x1="22.5265026765668" x2="20.542329014846892" y1="-8.793851947843933" y2="-15.602255350711493"/>
<line style="stroke-width: 1; stroke: rgb(169 169 169); fill: none" x1="6.8537877055292995" x2="13.452498553243903" y1="-14.45771745772947" y2="-16.59533748318109"/>
<line style="stroke-width: 1; stroke: rgb(139 0 0); fill: none" x1="6.8537877055292995" x2="10.70904328988953" y1="-14.45771745772947" y2="-22.590183527702294"/>
<line style="stroke-width: 1; stroke: rgb(169 169 169); fill: none" x1="31.966961659691894" x2="25.367695346564815" y1="1.494839300787124" y2="-1.9253832438197067"/>
<line style="stroke-width: 1; stroke: rgb(169 169 169); fill: none" x1="18.794354307674542" x2="25.367695346564815" y1="4.106030758227751" y2="-1.9253832438197067"/>
<line style="stroke-width: 1; stroke: rgb(169 169 169); fill: none" x1="22.5265026765668" x2="25.367695346564815" y1="-8.793851947843933" y2="-1.9253832438197067"/>
<line style="stroke-width: 1; stroke: rgb(169 169 169); fill: none" x1="12.636671082069647" x2="15.194652534911539" y1="-26.656416562688705" y2="-22.95376695779964"/>
<line style="stroke-width: 1; stroke: rgb(139 0 0); fill: none" x1="12.636671082069647" x2="14.564298874249761" y1="-26.656416562688705" y2="-30.72264959767512"/>
<line style="stroke-width: 1; stroke: rgb(169 169 169); fill: none" x1="18.555005405066886" x2="24.13457427174029" y1="-31.04417646775687" y2="-32.72446823093989"/>
<line style="stroke-width: 1; stroke: rgb(139 0 0); fill: none" x1="16.277745800632086" x2="17.99119272701441" y1="-34.33707896210748" y2="-37.95150832653985"/>
<line style="stroke-width: 1; stroke: rgb(169 169 169); fill: none" x1="6.8537877055292995" x2="14.115620330642884" y1="-14.45771745772947" y2="-10.035993355306903"/>
<line style="stroke-width: 1; stroke: rgb(169 169 169); fill: none" x1="22.5265026765668" x2="14.115620330642884" y1="-8.793851947843933" y2="-10.035993355306903"/>
<line style="stroke-width: 1; stroke: rgb(169 169 169); fill: none" x1="18.30450644014955" x2="9.798046295661642" y1="-3.0255176174334064" y2="0.21813465705311438"/>
<line style="stroke-width: 1; stroke: rgb(169 169 169); fill: none" x1="14.115620330642884" x2="3.4268938527646498" y1="-10.035993355306903" y2="-7.228858728864735"/>
<line style="stroke-width: 1; stroke: rgb(139 0 0); fill: none" x1="3.4268938527646498" x2="6.8537877055292995" y1="-7.228858728864735" y2="-14.45771745772947"/>
<line style="stroke-width: 1; stroke: rgb(169 169 169); fill: none" x1="18.794354307674542" x2="9.798046295661642" y1="4.106030758227751" y2="0.21813465705311438"/>
<line style="stroke-width: 1; stroke: rgb(169 169 169); fill: none" x1="0" x2="9.798046295661642" y1="0" y2="0.21813465705311438"/>
<line style="stroke-width: 1; stroke: rgb(169 169 169); fill: none" x1="3.4268938527646498" x2="9.798046295661642" y1="-7.228858728864735" y2="0.21813465705311438"/>
<line style="stroke-width: 1; stroke: rgb(169 169 169); fill: none" x1="18.794354307674542" x2="25.85754321408981" y1="4.106030758227751" y2="5.206165131841451"/>
<line style="stroke-width: 1; stroke: rgb(169 169 169); fill: none" x1="31.966961659691894" x2="25.85754321408981" y1="1.494839300787124" y2="5.206165131841451"/>
<line style="stroke-width: 1; stroke: rgb(169 169 169); fill: none" x1="32.12358596004291" x2="21.09762204728402" y1="8.636855706800453" y2="12.542319687603722"/>
<line style="stroke-width: 1; stroke: rgb(169 169 169); fill: none" x1="18.794354307674542" x2="18.30450644014955" y1="4.106030758227751" y2="-3.0255176174334064"/>
<line style="stroke-width: 1; stroke: rgb(169 169 169); fill: none" x1="14.115620330642884" x2="18.30450644014955" y1="-10.035993355306903" y2="-3.0255176174334064"/>
<line style="stroke-width: 1; stroke: rgb(169 169 169); fill: none" x1="22.5265026765668" x2="18.30450644014955" y1="-8.793851947843933" y2="-3.0255176174334064"/>
<line style="stroke-width: 1; stroke: rgb(169 169 169); fill: none" x1="21.409230096454706" x2="17.073760654302113" y1="-28.063254106866705" y2="-27.04300110190397"/>
<line style="stroke-width: 1; stroke: rgb(169 169 169); fill: none" x1="21.030971043384838" x2="17.073760654302113" y1="-22.67703668895707" y2="-27.04300110190397"/>
<line style="stroke-width: 1; stroke: rgb(169 169 169); fill: none" x1="12.636671082069647" x2="17.073760654302113" y1="-26.656416562688705" y2="-27.04300110190397"/>
<line style="stroke-width: 1; stroke: rgb(169 169 169); fill: none" x1="17.99119272701441" x2="20.422644242109318" y1="-37.95150832653985" y2="-34.585510018506056"/>
<line style="stroke-width: 1; stroke: rgb(169 169 169); fill: none" x1="24.13457427174029" x2="20.422644242109318" y1="-32.72446823093989" y2="-34.585510018506056"/>
<line style="stroke-width: 1; stroke: rgb(169 169 169); fill: none" x1="16.277745800632086" x2="20.422644242109318" y1="-34.33707896210748" y2="-34.585510018506056"/>
<line style="stroke-width: 1; stroke: rgb(169 169 169); fill: none" x1="0" x2="6.001741292491869" y1="0" y2="5.497485523432453"/>
<line style="stroke-width: 1; stroke: rgb(139 0 0); fill: none" x1="0" x2="0" y1="8" y2="0"/>
<line style="stroke-width: 1; stroke: rgb(169 169 169); fill: none" x1="39.26662622587027" x2="32.12358596004291" y1="8.537330453758853" y2="8.636855706800453"/>
<line style="stroke-width: 1; stroke: rgb(169 169 169); fill: none" x1="27.15242293580942" x2="32.12358596004291" y1="18.852264170762773" y2="8.636855706800453"/>
<line style="stroke-width: 1; stroke: rgb(169 169 169); fill: none" x1="25.85754321408981" x2="32.12358596004291" y1="5.206165131841451" y2="8.636855706800453"/>
<line style="stroke-width: 1; stroke: rgb(169 169 169); fill: none" x1="27.15242293580942" x2="21.09762204728402" y1="18.852264170762773" y2="12.542319687603722"/>
<line style="stroke-width: 1; stroke: rgb(169 169 169); fill: none" x1="12.188696715229145" x2="21.09762204728402" y1="15.797959300996089" y2="12.542319687603722"/>
<line style="stroke-width: 1; stroke: rgb(169 169 169); fill: none" x1="18.794354307674542" x2="21.09762204728402" y1="4.106030758227751" y2="12.542319687603722"/>
<line style="stroke-width: 1; stroke: rgb(169 169 169); fill: none" x1="17.073760654302113" x2="15.194652534911539" y1="-27.04300110190397" y2="-22.95376695779964"/>
<line style="stroke-width: 1; stroke: rgb(169 169 169); fill: none" x1="21.030971043384838" x2="15.194652534911539" y1="-22.67703668895707" y2="-22.95376695779964"/>
<line style="stroke-width: 1; stroke: rgb(169 169 169); fill: none" x1="10.70904328988953" x2="15.194652534911539" y1="-22.590183527702294" y2="-22.95376695779964"/>
<line style="stroke-width: 1; stroke: rgb(169 169 169); fill: none" x1="20.422644242109318" x2="22.974199296125065" y1="-34.585510018506056" y2="-38.989829802780186"/>
<line style="stroke-width: 1; stroke: rgb(169 169 169); fill: none" x1="17.99119272701441" x2="22.974199296125065" y1="-37.95150832653985" y2="-38.989829802780186"/>
<line style="stroke-width: 1; stroke: rgb(169 169 169); fill: none" x1="27.032040872779888" x2="22.974199296125065" y1="-42.06267664155906" y2="-38.989829802780186"/>
<line style="stroke-width: 1; stroke: rgb(169 169 169); fill: none" x1="20.422644242109318" x2="18.555005405066886" y1="-34.585510018506056" y2="-31.04417646775687"/>
<line style="stroke-width: 1; stroke: rgb(169 169 169); fill: none" x1="21.409230096454706" x2="18.555005405066886" y1="-28.063254106866705" y2="-31.04417646775687"/>
<line style="stroke-width: 1; stroke: rgb(169 169 169); fill: none" x1="14.564298874249761" x2="18.555005405066886" y1="-30.72264959767512" y2="-31.04417646775687"/>
<line style="stroke-width: 1; stroke: rgb(169 169 169); fill: none" x1="12.188696715229145" x2="6.029718595106463" y1="15.797959300996089" y2="12"/>
<line style="stroke-width: 1; stroke: rgb(169 169 169); fill: none" x1="0" x2="6.029718595106463" y1="16" y2="12"/>
<line style="stroke-width: 1; stroke: rgb(169 169 169); fill: none" x1="0" x2="6.029718595106463" y1="8" y2="12"/>
<line style="stroke-width: 1; stroke: rgb(169 169 169); fill: none" x1="6.029718595106463" x2="6.001741292491869" y1="12" y2="5.497485523432453"/>
<line style="stroke-width: 1; stroke: rgb(169 169 169); fill: none" x1="0" x2="6.001741292491869" y1="8" y2="5.497485523432453"/>
<line style="stroke-width: 1; stroke: rgb(169 169 169); fill: none" x1="9.798046295661642" x2="6.001741292491869" y1="0.21813465705311438" y2="5.497485523432453"/>
<line style="stroke-width: 1; stroke: rgb(169 169 169); fill: none" x1="14.115620330642884" x2="13.452498553243903" y1="-10.035993355306903" y2="-16.59533748318109"/>
<line style="stroke-width: 1; stroke: rgb(169 169 169); fill: none" x1="10.70904328988953" x2="13.452498553243903" y1="-22.590183527702294" y2="-16.59533748318109"/>
<line style="stroke-width: 1; stroke: rgb(169 169 169); fill: none" x1="15.194652534911539" x2="13.452498553243903" y1="-22.95376695779964" y2="-16.59533748318109"/>
<line style="stroke-width: 1; stroke: rgb(169 169 169); fill: none" x1="32.20011272044277" x2="27.47806769744056" y1="-38.25117959999116" y2="-37.25796623913969"/>
<line style="stroke-width: 1; stroke: rgb(169 169 169); fill: none" x1="24.13457427174029" x2="27.47806769744056" y1="-32.72446823093989" y2="-37.25796623913969"/>
<line style="stroke-width: 1; stroke: rgb(169 169 169); fill: none" x1="22.974199296125065" x2="27.47806769744056" y1="-38.989829802780186" y2="-37.25796623913969"/>
<line style="stroke-width: 1; stroke: rgb(169 169 169); fill: none" x1="6.001741292491869" x2="12.301800564127973" y1="5.497485523432453" y2="8.7216967165847"/>
<line style="stroke-width: 1; stroke: rgb(169 169 169); fill: none" x1="18.794354307674542" x2="12.301800564127973" y1="4.106030758227751" y2="8.7216967165847"/>
<line style="stroke-width: 1; stroke: rgb(169 169 169); fill: none" x1="12.188696715229145" x2="12.301800564127973" y1="15.797959300996089" y2="8.7216967165847"/>
<circle cx="0" cy="0" r="0.4" style="stroke-width: 0.5; stroke: rgb(0 0 0); fill: rgb(105 105 105)"/>
<circle cx="0" cy="50" r="0.4" style="stroke-width: 0.5; stroke: rgb(0 0 0); fill: rgb(105 105 105)"/>
<circle cx="6.408309576054638" cy="49.58763523679514" r="0.4" style="stroke-width: 0.5; stroke: rgb(0 0 0); fill: rgb(105 105 105)"/>
<circle cx="18.80386247692999" cy="46.32941566595357" r="0.4" style="stroke-width: 0.5; stroke: rgb(0 0 0); fill: rgb(105 105 105)"/>
<circle cx="24.586646232280188" cy="43.53730385598886" r="0.4" style="stroke-width: 0.5; stroke: rgb(0 0 0); fill: rgb(105 105 105)"/>
<circle cx="39.15508854902776" cy="31.094678655966117" r="0.4" style="stroke-width: 0.5; stroke: rgb(0 0 0); fill: rgb(105 105 105)"/>
<circle cx="42.817451512579446" cy="25.819873081948096" r="0.4" style="stroke-width: 0.5; stroke: rgb(0 0 0); fill: rgb(105 105 105)"/>
<circle cx="45.773558145970306" cy="20.11917927395339" r="0.4" style="stroke-width: 0.5; stroke: rgb(0 0 0); fill: rgb(105 105 105)"/>
<circle cx="47.97464868072487" cy="14.08662784207149" r="0.4" style="stroke-width: 0.5; stroke: rgb(0 0 0); fill: rgb(105 105 105)"/>
<circle cx="49.38441702975689" cy="7.821723252011546" r="0.4" style="stroke-width: 0.5; stroke: rgb(0 0 0); fill: rgb(105 105 105)"/>
<circle cx="49.97960964140946" cy="1.4278025396848126" r="0.4" style="stroke-width: 0.5; stroke: rgb(0 0 0); fill: rgb(105 105 105)"/>
<circle cx="49.75040905726798" cy="-4.9896691908891375" r="0.4" style="stroke-width: 0.5; stroke: rgb(0 0 0); fill: rgb(105 105 105)"/>
<circle cx="48.70059584711668" cy="-11.324838371288202" r="0.4" style="stroke-width: 0.5; stroke: rgb(0 0 0); fill: rgb(105 105 105)"/>
<circle cx="36.83705689382024" cy="-33.80874501370098" r="0.4" style="stroke-width: 0.5; stroke: rgb(0 0 0); fill: rgb(105 105 105)"/>
<circle cx="32.20011272044277" cy="-38.25117959999116" r="0.4" style="stroke-width: 0.5; stroke: rgb(0 0 0); fill: rgb(105 105 105)"/>
<circle cx="27.032040872779888" cy="-42.06267664155906" r="0.4" style="stroke-width: 0.5; stroke: rgb(0 0 0); fill: rgb(105 105 105)"/>
<circle cx="21.41808657977906" cy="-45.18036705540459" r="0.4" style="stroke-width: 0.5; stroke: rgb(0 0 0); fill: rgb(105 105 105)"/>
<circle cx="0" cy="25" r="0.4" style="stroke-width: 0.5; stroke: rgb(0 0 0); fill: rgb(105 105 105)"/>
<circle cx="14.885789468704441" cy="30.830177078859514" r="0.4" style="stroke-width: 0.5; stroke: rgb(0 0 0); fill: rgb(105 105 105)"/>
<circle cx="27.15242293580942" cy="18.852264170762773" r="0.4" style="stroke-width: 0.5; stroke: rgb(0 0 0); fill: rgb(105 105 105)"/>
<circle cx="36.500959826541965" cy="18.927648651652326" r="0.4" style="stroke-width: 0.5; stroke: rgb(0 0 0); fill: rgb(105 105 105)"/>
<circle cx="12.188696715229145" cy="15.797959300996089" r="0.4" style="stroke-width: 0.5; stroke: rgb(0 0 0); fill: rgb(105 105 105)"/>
<circle cx="31.76666918883961" cy="26.333394008643523" r="0.4" style="stroke-width: 0.5; stroke: rgb(0 0 0); fill: rgb(105 105 105)"/>
<circle cx="31.966961659691894" cy="1.494839300787124" r="0.4" style="stroke-width: 0.5; stroke: rgb(0 0 0); fill: rgb(105 105 105)"/>
<circle cx="40.96240244290469" cy="-1.4629759135553835" r="0.4" style="stroke-width: 0.5; stroke: rgb(0 0 0); fill: rgb(105 105 105)"/>
<circle cx="10.70904328988953" cy="-22.590183527702294" r="0.4" style="stroke-width: 0.5; stroke: rgb(0 0 0); fill: rgb(105 105 105)"/>
<circle cx="42.76882637046846" cy="-22.56679169249459" r="0.4" style="stroke-width: 0.5; stroke: rgb(0 0 0); fill: rgb(105 105 105)"/>
<circle cx="14.564298874249761" cy="-30.72264959767512" r="0.4" style="stroke-width: 0.5; stroke: rgb(0 0 0); fill: rgb(105 105 105)"/>
<circle cx="24.13457427174029" cy="-32.72446823093989" r="0.4" style="stroke-width: 0.5; stroke: rgb(0 0 0); fill: rgb(105 105 105)"/>
<circle cx="0" cy="34" r="0.4" style="stroke-width: 0.5; stroke: rgb(0 0 0); fill: rgb(105 105 105)"/>
<circle cx="18.433629492242453" cy="38.17816063076325" r="0.4" style="stroke-width: 0.5; stroke: rgb(0 0 0); fill: rgb(105 105 105)"/>
<circle cx="12.606086026492314" cy="47.958525451374356" r="0.4" style="stroke-width: 0.5; stroke: rgb(0 0 0); fill: rgb(105 105 105)"/>
<circle cx="0" cy="42" r="0.4" style="stroke-width: 0.5; stroke: rgb(0 0 0); fill: rgb(105 105 105)"/>
<circle cx="31.870867390653974" cy="37.31599125597749" r="0.4" style="stroke-width: 0.5; stroke: rgb(0 0 0); fill: rgb(105 105 105)"/>
<circle cx="8.632161880543864" cy="38" r="0.4" style="stroke-width: 0.5; stroke: rgb(0 0 0); fill: rgb(105 105 105)"/>
<circle cx="14.46911281676571" cy="42.44226600439996" r="0.4" style="stroke-width: 0.5; stroke: rgb(0 0 0); fill: rgb(105 105 105)"/>
<circle cx="6.822147377360171" cy="29.5" r="0.4" style="stroke-width: 0.5; stroke: rgb(0 0 0); fill: rgb(105 105 105)"/>
<circle cx="0" cy="16" r="0.4" style="stroke-width: 0.5; stroke: rgb(0 0 0); fill: rgb(105 105 105)"/>
<circle cx="31.302211422716702" cy="-23.70239374383075" r="0.4" style="stroke-width: 0.5; stroke: rgb(0 0 0); fill: rgb(105 105 105)"/>
<circle cx="39.26662622587027" cy="8.537330453758853" r="0.4" style="stroke-width: 0.5; stroke: rgb(0 0 0); fill: rgb(105 105 105)"/>
<circle cx="44.14789112427125" cy="4.109606577784201" r="0.4" style="stroke-width: 0.5; stroke: rgb(0 0 0); fill: rgb(105 105 105)"/>
<circle cx="41.69129476695987" cy="15.211857756940942" r="0.4" style="stroke-width: 0.5; stroke: rgb(0 0 0); fill: rgb(105 105 105)"/>
<circle cx="35.98413105013221" cy="-12.518321303434302" r="0.4" style="stroke-width: 0.5; stroke: rgb(0 0 0); fill: rgb(105 105 105)"/>
<circle cx="7.074102894325379" cy="21.696727758114058" r="0.4" style="stroke-width: 0.5; stroke: rgb(0 0 0); fill: rgb(105 105 105)"/>
<circle cx="23.964343371154783" cy="30.97725942563375" r="0.4" style="stroke-width: 0.5; stroke: rgb(0 0 0); fill: rgb(105 105 105)"/>
<circle cx="19.547698408808728" cy="23.33434541029276" r="0.4" style="stroke-width: 0.5; stroke: rgb(0 0 0); fill: rgb(105 105 105)"/>
<circle cx="21.030971043384838" cy="-22.67703668895707" r="0.4" style="stroke-width: 0.5; stroke: rgb(0 0 0); fill: rgb(105 105 105)"/>
<circle cx="43.74223138095829" cy="-7.248610264001197" r="0.4" style="stroke-width: 0.5; stroke: rgb(0 0 0); fill: rgb(105 105 105)"/>
<circle cx="17.99119272701441" cy="-37.95150832653985" r="0.4" style="stroke-width: 0.5; stroke: rgb(0 0 0); fill: rgb(105 105 105)"/>
<circle cx="44.96725726131129" cy="-18.400301819270716" r="0.4" style="stroke-width: 0.5; stroke: rgb(0 0 0); fill: rgb(105 105 105)"/>
<circle cx="38.90174009778547" cy="-17.863098502667885" r="0.4" style="stroke-width: 0.5; stroke: rgb(0 0 0); fill: rgb(105 105 105)"/>
<circle cx="41.838359023120695" cy="-12.791334448190069" r="0.4" style="stroke-width: 0.5; stroke: rgb(0 0 0); fill: rgb(105 105 105)"/>
<circle cx="30.59914670225494" cy="-31.938913731947853" r="0.4" style="stroke-width: 0.5; stroke: rgb(0 0 0); fill: rgb(105 105 105)"/>
<circle cx="40.57039547962563" cy="-26.733281565718464" r="0.4" style="stroke-width: 0.5; stroke: rgb(0 0 0); fill: rgb(105 105 105)"/>
<circle cx="8.942282157670068" cy="43.64840216143932" r="0.4" style="stroke-width: 0.5; stroke: rgb(0 0 0); fill: rgb(105 105 105)"/>
<circle cx="22.5265026765668" cy="-8.793851947843933" r="0.4" style="stroke-width: 0.5; stroke: rgb(0 0 0); fill: rgb(105 105 105)"/>
<circle cx="37.64483399158596" cy="-6.617601639877134" r="0.4" style="stroke-width: 0.5; stroke: rgb(0 0 0); fill: rgb(105 105 105)"/>
<circle cx="32.766626845284435" cy="-17.743415123084738" r="0.4" style="stroke-width: 0.5; stroke: rgb(0 0 0); fill: rgb(105 105 105)"/>
<circle cx="37.87565283590902" cy="-22.64817057026254" r="0.4" style="stroke-width: 0.5; stroke: rgb(0 0 0); fill: rgb(105 105 105)"/>
<circle cx="26.775384735402774" cy="-27.464252959022584" r="0.4" style="stroke-width: 0.5; stroke: rgb(0 0 0); fill: rgb(105 105 105)"/>
<circle cx="26.547457717383203" cy="-19.374486955745326" r="0.4" style="stroke-width: 0.5; stroke: rgb(0 0 0); fill: rgb(105 105 105)"/>
<circle cx="18.794354307674542" cy="4.106030758227751" r="0.4" style="stroke-width: 0.5; stroke: rgb(0 0 0); fill: rgb(105 105 105)"/>
<circle cx="30.080938351877215" cy="-7.672867780474366" r="0.4" style="stroke-width: 0.5; stroke: rgb(0 0 0); fill: rgb(105 105 105)"/>
<circle cx="28.338380167737053" cy="-13.530979528413813" r="0.4" style="stroke-width: 0.5; stroke: rgb(0 0 0); fill: rgb(105 105 105)"/>
<circle cx="35.25206883854532" cy="-27.31016594291771" r="0.4" style="stroke-width: 0.5; stroke: rgb(0 0 0); fill: rgb(105 105 105)"/>
<circle cx="21.409230096454706" cy="-28.063254106866705" r="0.4" style="stroke-width: 0.5; stroke: rgb(0 0 0); fill: rgb(105 105 105)"/>
<circle cx="20.542329014846892" cy="-15.602255350711493" r="0.4" style="stroke-width: 0.5; stroke: rgb(0 0 0); fill: rgb(105 105 105)"/>
<circle cx="6.8537877055292995" cy="-14.45771745772947" r="0.4" style="stroke-width: 0.5; stroke: rgb(0 0 0); fill: rgb(105 105 105)"/>
<circle cx="25.367695346564815" cy="-1.9253832438197067" r="0.4" style="stroke-width: 0.5; stroke: rgb(0 0 0); fill: rgb(105 105 105)"/>
<circle cx="12.636671082069647" cy="-26.656416562688705" r="0.4" style="stroke-width: 0.5; stroke: rgb(0 0 0); fill: rgb(105 105 105)"/>
<circle cx="16.277745800632086" cy="-34.33707896210748" r="0.4" style="stroke-width: 0.5; stroke: rgb(0 0 0); fill: rgb(105 105 105)"/>
<circle cx="14.115620330642884" cy="-10.035993355306903" r="0.4" style="stroke-width: 0.5; stroke: rgb(0 0 0); fill: rgb(105 105 105)"/>
<circle cx="3.4268938527646498" cy="-7.228858728864735" r="0.4" style="stroke-width: 0.5; stroke: rgb(0 0 0); fill: rgb(105 105 105)"/>
<circle cx="9.798046295661642" cy="0.21813465705311438" r="0.4" style="stroke-width: 0.5; stroke: rgb(0 0 0); fill: rgb(105 105 105)"/>
<circle cx="25.85754321408981" cy="5.206165131841451" r="0.4" style="stroke-width: 0.5; stroke: rgb(0 0 0); fill: rgb(105 105 105)"/>
<circle cx="18.30450644014955" cy="-3.0255176174334064" r="0.4" style="stroke-width: 0.5; stroke: rgb(0 0 0); fill: rgb(105 105 105)"/>
<circle cx="17.073760654302113" cy="-27.04300110190397" r="0.4" style="stroke-width: 0.5; stroke: rgb(0 0 0); fill: rgb(105 105 105)"/>
<circle cx="20.422644242109318" cy="-34.585510018506056" r="0.4" style="stroke-width: 0.5; stroke: rgb(0 0 0); fill: rgb(105 105 105)"/>
<circle cx="0" cy="8" r="0.4" style="stroke-width: 0.5; stroke: rgb(0 0 0); fill: rgb(105 105 105)"/>
<circle cx="32.12358596004291" cy="8.636855706800453" r="0.4" style="stroke-width: 0.5; stroke: rgb(0 0 0); fill: rgb(105 105 105)"/>
<circle cx="21.09762204728402" cy="12.542319687603722" r="0.4" style="stroke-width: 0.5; stroke: rgb(0 0 0); fill: rgb(105 105 105)"/>
<circle cx="15.194652534911539" cy="-22.95376695779964" r="0.4" style="stroke-width: 0.5; stroke: rgb(0 0 0); fill: rgb(105 105 105)"/>
<circle cx="22.974199296125065" cy="-38.989829802780186" r="0.4" style="stroke-width: 0.5; stroke: rgb(0 0 0); fill: rgb(105 105 105)"/>
<circle cx="18.555005405066886" cy="-31.04417646775687" r="0.4" style="stroke-width: 0.5; stroke: rgb(0 0 0); fill: rgb(105 105 105)"/>
<circle cx="6.029718595106463" cy="12" r="0.4" style="stroke-width: 0.5; stroke: rgb(0 0 0); fill: rgb(105 105 105)"/>
<circle cx="6.001741292491869" cy="5.497485523432453" r="0.4" style="stroke-width: 0.5; stroke: rgb(0 0 0); fill: rgb(105 105 105)"/>
<circle cx="13.452498553243903" cy="-16.59533748318109" r="0.4" style="stroke-width: 0.5; stroke: rgb(0 0 0); fill: rgb(105 105 105)"/>
<circle cx="27.47806769744056" cy="-37.25796623913969" r="0.4" style="stroke-width: 0.5; stroke: rgb(0 0 0); fill: rgb(105 105 105)"/>
<circle cx="12.301800564127973" cy="8.7216967165847" r="0.4" style="stroke-width: 0.5; stroke: rgb(0 0 0); fill: rgb(105 105 105)"/>
</g>
</svg>