<svg viewBox="-5.477960964140946 -55.178403760945045 60.93553156969135 115.1764404664855" width="200" xmlns="http://www.w3.org/2000/svg" xmlns:xlink="http://www.w3.org/1999/xlink">
<defs>
<pattern height="1" id="angle_limit_30_pattern0001" patternTransform="rotate(63.512 0 0) scale(2)" patternUnits="userSpaceOnUse" width="1">
<line stroke="rgb(255 255 255)" stroke-width="1.01" x1="0" x2="0" y1="-0.1" y2="1.1"/>
<line stroke="rgb(211 211 211)" stroke-width="1.01" x1="1" x2="1" y1="-0.1" y2="1.1"/>
</pattern>
</defs>
<rect height="100%" style="fill: url(#angle_limit_30_pattern0001)" width="100%" x="-5.477960964140946" y="-55.178403760945045"/>
<g>
<path d="M6.4,49.6 L0,50 L0,42 z" style="fill: rgb(211 211 211)"/>
<path d="M0,42 L0,34 L8.625,38 z" style="fill: rgb(211 211 211)"/>
<path d="M42.825,25.825 L39.15,31.1 L36.5,18.925 z" style="fill: rgb(211 211 211)"/>
<path d="M45.775,20.125 L42.825,25.825 L36.5,18.925 z" style="fill: rgb(211 211 211)"/>
<path d="M14.875,30.825 L0,25 L27.15,18.85 z" style="fill: rgb(211 211 211)"/>
<path d="M27.15,18.85 L36.5,18.925 L24.7,30.625 z" style="fill: rgb(211 211 211)"/>
<path d="M18.425,38.175 L24.7,30.625 L24.575,43.525 z" style="fill: rgb(211 211 211)"/>
<path d="M47.975,14.075 L39.275,8.525 L49.375,7.825 z" style="fill: rgb(211 211 211)"/>
<path d="M31.975,1.5 L40.95,-1.475 L39.275,8.525 z" style="fill: rgb(211 211 211)"/>
<path d="M34.55,-20.9 L27.625,-19.55 L26.65,-26.525 z" style="fill: rgb(211 211 211)"/>
<path d="M36.5,18.925 L27.15,18.85 L39.275,8.525 z" style="fill: rgb(211 211 211)"/>
<path d="M10.7,-22.6 L14.575,-30.725 L21.275,-22.575 z" style="fill: rgb(211 211 211)"/>
<path d="M30.6,-31.95 L36.825,-33.8 L40.575,-26.725 z" style="fill: rgb(211 211 211)"/>
<path d="M21.425,-45.175 L27.025,-42.075 L18,-37.95 z" style="fill: rgb(211 211 211)"/>
<path d="M27.625,-19.55 L23.825,-12 L21.275,-22.575 z" style="fill: rgb(211 211 211)"/>
<path d="M18.425,38.175 L18.8,46.325 L12.6,47.95 z" style="fill: rgb(211 211 211)"/>
<path d="M14.875,30.825 L24.7,30.625 L18.425,38.175 z" style="fill: rgb(211 211 211)"/>
<path d="M0,25 L14.875,30.825 L0,34 z" style="fill: rgb(211 211 211)"/>
<path d="M27.15,18.85 L0,25 L16.075,-1.225 z" style="fill: rgb(211 211 211)"/>
<path d="M49.975,1.425 L49.375,7.825 L40.95,-1.475 z" style="fill: rgb(211 211 211)"/>
<path d="M49.375,7.825 L39.275,8.525 L40.95,-1.475 z" style="fill: rgb(211 211 211)"/>
<path d="M36.5,18.925 L47.975,14.075 L45.775,20.125 z" style="fill: rgb(211 211 211)"/>
<path d="M31.975,1.5 L27.15,18.85 L16.075,-1.225 z" style="fill: rgb(211 211 211)"/>
<path d="M40.95,-1.475 L32.25,-12.85 L48.7,-11.325 z" style="fill: rgb(211 211 211)"/>
<path d="M49.75,-5 L40.95,-1.475 L48.7,-11.325 z" style="fill: rgb(211 211 211)"/>
<path d="M40.95,-1.475 L49.75,-5 L49.975,1.425 z" style="fill: rgb(211 211 211)"/>
<path d="M24.125,-32.725 L21.275,-22.575 L14.575,-30.725 z" style="fill: rgb(211 211 211)"/>
<path d="M42.775,-22.575 L48.7,-11.325 L32.25,-12.85 z" style="fill: rgb(211 211 211)"/>
<path d="M24.125,-32.725 L14.575,-30.725 L18,-37.95 z" style="fill: rgb(211 211 211)"/>
<path d="M32.2,-38.25 L24.125,-32.725 L27.025,-42.075 z" style="fill: rgb(211 211 211)"/>
<path d="M24.125,-32.725 L32.2,-38.25 L30.6,-31.95 z" style="fill: rgb(211 211 211)"/>
<path d="M18.425,38.175 L12.6,47.95 L8.625,38 z" style="fill: rgb(211 211 211)"/>
<path d="M39.15,31.1 L24.7,30.625 L36.5,18.925 z" style="fill: rgb(211 211 211)"/>
<path d="M18.425,38.175 L24.575,43.525 L18.8,46.325 z" style="fill: rgb(211 211 211)"/>
<path d="M14.875,30.825 L8.625,38 L0,34 z" style="fill: rgb(211 211 211)"/>
<path d="M12.6,47.95 L6.4,49.6 L8.625,38 z" style="fill: rgb(211 211 211)"/>
<path d="M8.625,38 L14.875,30.825 L18.425,38.175 z" style="fill: rgb(211 211 211)"/>
<path d="M0,42 L8.625,38 L6.4,49.6 z" style="fill: rgb(211 211 211)"/>
<path d="M31.875,37.325 L24.575,43.525 L24.7,30.625 z" style="fill: rgb(211 211 211)"/>
<path d="M39.275,8.525 L47.975,14.075 L36.5,18.925 z" style="fill: rgb(211 211 211)"/>
<path d="M31.975,1.5 L39.275,8.525 L27.15,18.85 z" style="fill: rgb(211 211 211)"/>
<path d="M24.7,30.625 L14.875,30.825 L27.15,18.85 z" style="fill: rgb(211 211 211)"/>
<path d="M31.875,37.325 L24.7,30.625 L39.15,31.1 z" style="fill: rgb(211 211 211)"/>
<path d="M31.975,1.5 L32.25,-12.85 L40.95,-1.475 z" style="fill: rgb(211 211 211)"/>
<path d="M32.25,-12.85 L31.975,1.5 L23.825,-12 z" style="fill: rgb(211 211 211)"/>
<path d="M32.25,-12.85 L23.825,-12 L27.625,-19.55 z" style="fill: rgb(211 211 211)"/>
<path d="M40.575,-26.725 L42.775,-22.575 L34.55,-20.9 z" style="fill: rgb(211 211 211)"/>
<path d="M24.125,-32.725 L18,-37.95 L27.025,-42.075 z" style="fill: rgb(211 211 211)"/>
<path d="M21.275,-22.575 L24.125,-32.725 L26.65,-26.525 z" style="fill: rgb(211 211 211)"/>
<path d="M36.825,-33.8 L30.6,-31.95 L32.2,-38.25 z" style="fill: rgb(211 211 211)"/>
<path d="M6.85,-14.45 L10.7,-22.6 L15.975,-15.125 z" style="fill: rgb(211 211 211)"/>
<path d="M32.25,-12.85 L34.55,-20.9 L42.775,-22.575 z" style="fill: rgb(211 211 211)"/>
<path d="M21.275,-22.575 L26.65,-26.525 L27.625,-19.55 z" style="fill: rgb(211 211 211)"/>
<path d="M34.55,-20.9 L30.6,-31.95 L40.575,-26.725 z" style="fill: rgb(211 211 211)"/>
<path d="M30.6,-31.95 L26.65,-26.525 L24.125,-32.725 z" style="fill: rgb(211 211 211)"/>
<path d="M26.65,-26.525 L30.6,-31.95 L34.55,-20.9 z" style="fill: rgb(211 211 211)"/>
<path d="M0,0 L16.075,-1.225 L0,25 z" style="fill: rgb(211 211 211)"/>
<path d="M16.075,-1.225 L0,0 L6.85,-14.45 z" style="fill: rgb(211 211 211)"/>
<path d="M15.975,-15.125 L16.075,-1.225 L6.85,-14.45 z" style="fill: rgb(211 211 211)"/>
<path d="M21.275,-22.575 L15.975,-15.125 L10.7,-22.6 z" style="fill: rgb(211 211 211)"/>
<path d="M27.625,-19.55 L34.55,-20.9 L32.25,-12.85 z" style="fill: rgb(211 211 211)"/>
<path d="M15.975,-15.125 L21.275,-22.575 L23.825,-12 z" style="fill: rgb(211 211 211)"/>
<path d="M16.075,-1.225 L23.825,-12 L31.975,1.5 z" style="fill: rgb(211 211 211)"/>
<path d="M23.825,-12 L16.075,-1.225 L15.975,-15.125 z" style="fill: rgb(211 211 211)"/>
<line style="stroke-width: 1; stroke: rgb(139 0 0); fill: none" x1="0" x2="0" y1="42" y2="50"/>
<line style="stroke-width: 1; stroke: rgb(169 169 169); fill: none" x1="0" x2="8.625" y1="34" y2="38"/>
<line style="stroke-width: 1; stroke: rgb(139 0 0); fill: none" x1="6.4" x2="0" y1="49.6" y2="50"/>
<line style="stroke-width: 1; stroke: rgb(169 169 169); fill: none" x1="12.6" x2="8.625" y1="47.95" y2="38"/>
<line style="stroke-width: 1; stroke: rgb(139 0 0); fill: none" x1="18.8" x2="12.6" y1="46.325" y2="47.95"/>
<line style="stroke-width: 1; stroke: rgb(169 169 169); fill: none" x1="36.5" x2="24.7" y1="18.925" y2="30.625"/>
<line style="stroke-width: 1; stroke: rgb(139 0 0); fill: none" x1="24.575" x2="18.8" y1="43.525" y2="46.325"/>
<line style="stroke-width: 1; stroke: rgb(169 169 169); fill: none" x1="27.15" x2="0" y1="18.85" y2="25"/>
<line style="stroke-width: 1; stroke: rgb(139 0 0); fill: none" x1="39.15" x2="31.875" y1="31.1" y2="37.325"/>
<line style="stroke-width: 1; stroke: rgb(169 169 169); fill: none" x1="36.5" x2="39.15" y1="18.925" y2="31.1"/>
<line style="stroke-width: 1; stroke: rgb(139 0 0); fill: none" x1="42.825" x2="39.15" y1="25.825" y2="31.1"/>
<line style="stroke-width: 1; stroke: rgb(169 169 169); fill: none" x1="36.5" x2="42.825" y1="18.925" y2="25.825"/>
<line style="stroke-width: 1; stroke: rgb(139 0 0); fill: none" x1="45.775" x2="42.825" y1="20.125" y2="25.825"/>
<line style="stroke-width: 1; stroke: rgb(169 169 169); fill: none" x1="40.95" x2="39.275" y1="-1.475" y2="8.525"/>
<line style="stroke-width: 1; stroke: rgb(139 0 0); fill: none" x1="47.975" x2="45.775" y1="14.075" y2="20.125"/>
<line style="stroke-width: 1; stroke: rgb(169 169 169); fill: none" x1="39.275" x2="27.15" y1="8.525" y2="18.85"/>
<line style="stroke-width: 1; stroke: rgb(139 0 0); fill: none" x1="49.375" x2="47.975" y1="7.825" y2="14.075"/>
<line style="stroke-width: 1; stroke: rgb(169 169 169); fill: none" x1="40.95" x2="49.375" y1="-1.475" y2="7.825"/>
<line style="stroke-width: 1; stroke: rgb(139 0 0); fill: none" x1="49.975" x2="49.375" y1="1.425" y2="7.825"/>
<line style="stroke-width: 1; stroke: rgb(169 169 169); fill: none" x1="48.7" x2="40.95" y1="-11.325" y2="-1.475"/>
<line style="stroke-width: 1; stroke: rgb(139 0 0); fill: none" x1="49.75" x2="49.975" y1="-5" y2="1.425"/>
<line style="stroke-width: 1; stroke: rgb(169 169 169); fill: none" x1="24.125" x2="21.275" y1="-32.725" y2="-22.575"/>
<line style="stroke-width: 1; stroke: rgb(139 0 0); fill: none" x1="48.7" x2="49.75" y1="-11.325" y2="-5"/>
<line style="stroke-width: 1; stroke: rgb(169 169 169); fill: none" x1="21.275" x2="14.575" y1="-22.575" y2="-30.725"/>
<line style="stroke-width: 1; stroke: rgb(139 0 0); fill: none" x1="36.825" x2="40.575" y1="-33.8" y2="-26.725"/>
<line style="stroke-width: 1; stroke: rgb(169 169 169); fill: none" x1="31.975" x2="23.825" y1="1.5" y2="-12"/>
<line style="stroke-width: 1; stroke: rgb(139 0 0); fill: none" x1="32.2" x2="36.825" y1="-38.25" y2="-33.8"/>
<line style="stroke-width: 1; stroke: rgb(169 169 169); fill: none" x1="42.775" x2="34.55" y1="-22.575" y2="-20.9"/>
<line style="stroke-width: 1; stroke: rgb(139 0 0); fill: none" x1="27.025" x2="32.2" y1="-42.075" y2="-38.25"/>
<line style="stroke-width: 1; stroke: rgb(139 0 0); fill: none" x1="0" x2="6.85" y1="0" y2="-14.45"/>
<line style="stroke-width: 1; stroke: rgb(139 0 0); fill: none" x1="21.425" x2="27.025" y1="-45.175" y2="-42.075"/>
<line style="stroke-width: 1; stroke: rgb(169 169 169); fill: none" x1="14.875" x2="0" y1="30.825" y2="34"/>
<line style="stroke-width: 1; stroke: rgb(139 0 0); fill: none" x1="0" x2="0" y1="25" y2="0"/>
<line style="stroke-width: 1; stroke: rgb(169 169 169); fill: none" x1="18.425" x2="24.7" y1="38.175" y2="30.625"/>
<line style="stroke-width: 1; stroke: rgb(169 169 169); fill: none" x1="24.7" x2="39.15" y1="30.625" y2="31.1"/>
<line style="stroke-width: 1; stroke: rgb(169 169 169); fill: none" x1="0" x2="14.875" y1="25" y2="30.825"/>
<line style="stroke-width: 1; stroke: rgb(169 169 169); fill: none" x1="14.875" x2="27.15" y1="30.825" y2="18.85"/>
<line style="stroke-width: 1; stroke: rgb(169 169 169); fill: none" x1="0" x2="16.075" y1="25" y2="-1.225"/>
<line style="stroke-width: 1; stroke: rgb(169 169 169); fill: none" x1="39.275" x2="49.375" y1="8.525" y2="7.825"/>
<line style="stroke-width: 1; stroke: rgb(169 169 169); fill: none" x1="27.15" x2="36.5" y1="18.85" y2="18.925"/>
<line style="stroke-width: 1; stroke: rgb(169 169 169); fill: none" x1="47.975" x2="36.5" y1="14.075" y2="18.925"/>
<line style="stroke-width: 1; stroke: rgb(169 169 169); fill: none" x1="45.775" x2="36.5" y1="20.125" y2="18.925"/>
<line style="stroke-width: 1; stroke: rgb(169 169 169); fill: none" x1="27.15" x2="31.975" y1="18.85" y2="1.5"/>
<line style="stroke-width: 1; stroke: rgb(169 169 169); fill: none" x1="27.15" x2="16.075" y1="18.85" y2="-1.225"/>
<line style="stroke-width: 1; stroke: rgb(169 169 169); fill: none" x1="40.95" x2="32.25" y1="-1.475" y2="-12.85"/>
<line style="stroke-width: 1; stroke: rgb(169 169 169); fill: none" x1="31.975" x2="40.95" y1="1.5" y2="-1.475"/>
<line style="stroke-width: 1; stroke: rgb(169 169 169); fill: none" x1="49.75" x2="40.95" y1="-5" y2="-1.475"/>
<line style="stroke-width: 1; stroke: rgb(169 169 169); fill: none" x1="49.975" x2="40.95" y1="1.425" y2="-1.475"/>
<line style="stroke-width: 1; stroke: rgb(169 169 169); fill: none" x1="24.125" x2="27.025" y1="-32.725" y2="-42.075"/>
<line style="stroke-width: 1; stroke: rgb(139 0 0); fill: none" x1="10.7" x2="14.575" y1="-22.6" y2="-30.725"/>
<line style="stroke-width: 1; stroke: rgb(169 169 169); fill: none" x1="48.7" x2="32.25" y1="-11.325" y2="-12.85"/>
<line style="stroke-width: 1; stroke: rgb(139 0 0); fill: none" x1="42.775" x2="48.7" y1="-22.575" y2="-11.325"/>
<line style="stroke-width: 1; stroke: rgb(169 169 169); fill: none" x1="18" x2="27.025" y1="-37.95" y2="-42.075"/>
<line style="stroke-width: 1; stroke: rgb(139 0 0); fill: none" x1="14.575" x2="18" y1="-30.725" y2="-37.95"/>
<line style="stroke-width: 1; stroke: rgb(169 169 169); fill: none" x1="14.575" x2="24.125" y1="-30.725" y2="-32.725"/>
<line style="stroke-width: 1; stroke: rgb(169 169 169); fill: none" x1="32.2" x2="24.125" y1="-38.25" y2="-32.725"/>
<line style="stroke-width: 1; stroke: rgb(169 169 169); fill: none" x1="32.2" x2="30.6" y1="-38.25" y2="-31.95"/>
<line style="stroke-width: 1; stroke: rgb(169 169 169); fill: none" x1="8.625" x2="6.4" y1="38" y2="49.6"/>
<line style="stroke-width: 1; stroke: rgb(139 0 0); fill: none" x1="0" x2="0" y1="34" y2="25"/>
<line style="stroke-width: 1; stroke: rgb(169 169 169); fill: none" x1="14.875" x2="18.425" y1="30.825" y2="38.175"/>
<line style="stroke-width: 1; stroke: rgb(169 169 169); fill: none" x1="24.575" x2="18.425" y1="43.525" y2="38.175"/>
<line style="stroke-width: 1; stroke: rgb(169 169 169); fill: none" x1="18.8" x2="18.425" y1="46.325" y2="38.175"/>
<line style="stroke-width: 1; stroke: rgb(169 169 169); fill: none" x1="18.425" x2="12.6" y1="38.175" y2="47.95"/>
<line style="stroke-width: 1; stroke: rgb(139 0 0); fill: none" x1="12.6" x2="6.4" y1="47.95" y2="49.6"/>
<line style="stroke-width: 1; stroke: rgb(169 169 169); fill: none" x1="6.4" x2="0" y1="49.6" y2="42"/>
<line style="stroke-width: 1; stroke: rgb(139 0 0); fill: none" x1="0" x2="0" y1="42" y2="34"/>
<line style="stroke-width: 1; stroke: rgb(169 169 169); fill: none" x1="14.875" x2="8.625" y1="30.825" y2="38"/>
<line style="stroke-width: 1; stroke: rgb(169 169 169); fill: none" x1="18.425" x2="8.625" y1="38.175" y2="38"/>
<line style="stroke-width: 1; stroke: rgb(169 169 169); fill: none" x1="0" x2="8.625" y1="42" y2="38"/>
<line style="stroke-width: 1; stroke: rgb(169 169 169); fill: none" x1="24.575" x2="24.7" y1="43.525" y2="30.625"/>
<line style="stroke-width: 1; stroke: rgb(139 0 0); fill: none" x1="31.875" x2="24.575" y1="37.325" y2="43.525"/>
<line style="stroke-width: 1; stroke: rgb(169 169 169); fill: none" x1="47.975" x2="39.275" y1="14.075" y2="8.525"/>
<line style="stroke-width: 1; stroke: rgb(169 169 169); fill: none" x1="36.5" x2="39.275" y1="18.925" y2="8.525"/>
<line style="stroke-width: 1; stroke: rgb(169 169 169); fill: none" x1="31.975" x2="39.275" y1="1.5" y2="8.525"/>
<line style="stroke-width: 1; stroke: rgb(169 169 169); fill: none" x1="14.875" x2="24.7" y1="30.825" y2="30.625"/>
<line style="stroke-width: 1; stroke: rgb(169 169 169); fill: none" x1="27.15" x2="24.7" y1="18.85" y2="30.625"/>
<line style="stroke-width: 1; stroke: rgb(169 169 169); fill: none" x1="31.875" x2="24.7" y1="37.325" y2="30.625"/>
<line style="stroke-width: 1; stroke: rgb(169 169 169); fill: none" x1="27.625" x2="26.65" y1="-19.55" y2="-26.525"/>
<line style="stroke-width: 1; stroke: rgb(169 169 169); fill: none" x1="23.825" x2="27.625" y1="-12" y2="-19.55"/>
<line style="stroke-width: 1; stroke: rgb(169 169 169); fill: none" x1="10.7" x2="21.275" y1="-22.6" y2="-22.575"/>
<line style="stroke-width: 1; stroke: rgb(169 169 169); fill: none" x1="31.975" x2="32.25" y1="1.5" y2="-12.85"/>
<line style="stroke-width: 1; stroke: rgb(169 169 169); fill: none" x1="23.825" x2="21.275" y1="-12" y2="-22.575"/>
<line style="stroke-width: 1; stroke: rgb(169 169 169); fill: none" x1="42.775" x2="32.25" y1="-22.575" y2="-12.85"/>
<line style="stroke-width: 1; stroke: rgb(169 169 169); fill: none" x1="24.125" x2="18" y1="-32.725" y2="-37.95"/>
<line style="stroke-width: 1; stroke: rgb(139 0 0); fill: none" x1="18" x2="21.425" y1="-37.95" y2="-45.175"/>
<line style="stroke-width: 1; stroke: rgb(169 169 169); fill: none" x1="26.65" x2="24.125" y1="-26.525" y2="-32.725"/>
<line style="stroke-width: 1; stroke: rgb(169 169 169); fill: none" x1="24.125" x2="30.6" y1="-32.725" y2="-31.95"/>
<line style="stroke-width: 1; stroke: rgb(169 169 169); fill: none" x1="36.825" x2="30.6" y1="-33.8" y2="-31.95"/>
<line style="stroke-width: 1; stroke: rgb(169 169 169); fill: none" x1="10.7" x2="15.975" y1="-22.6" y2="-15.125"/>
<line style="stroke-width: 1; stroke: rgb(139 0 0); fill: none" x1="6.85" x2="10.7" y1="-14.45" y2="-22.6"/>
<line style="stroke-width: 1; stroke: rgb(169 169 169); fill: none" x1="30.6" x2="40.575" y1="-31.95" y2="-26.725"/>
<line style="stroke-width: 1; stroke: rgb(139 0 0); fill: none" x1="40.575" x2="42.775" y1="-26.725" y2="-22.575"/>
<line style="stroke-width: 1; stroke: rgb(169 169 169); fill: none" x1="32.25" x2="34.55" y1="-12.85" y2="-20.9"/>
<line style="stroke-width: 1; stroke: rgb(169 169 169); fill: none" x1="30.6" x2="34.55" y1="-31.95" y2="-20.9"/>
<line style="stroke-width: 1; stroke: rgb(169 169 169); fill: none" x1="40.575" x2="34.55" y1="-26.725" y2="-20.9"/>
<line style="stroke-width: 1; stroke: rgb(169 169 169); fill: none" x1="21.275" x2="26.65" y1="-22.575" y2="-26.525"/>
<line style="stroke-width: 1; stroke: rgb(169 169 169); fill: none" x1="30.6" x2="26.65" y1="-31.95" y2="-26.525"/>
<line style="stroke-width: 1; stroke: rgb(169 169 169); fill: none" x1="34.55" x2="26.65" y1="-20.9" y2="-26.525"/>
<line style="stroke-width: 1; stroke: rgb(169 169 169); fill: none" x1="31.975" x2="16.075" y1="1.5" y2="-1.225"/>
<line style="stroke-width: 1; stroke: rgb(169 169 169); fill: none" x1="0" x2="16.075" y1="0" y2="-1.225"/>
<line style="stroke-width: 1; stroke: rgb(169 169 169); fill: none" x1="6.85" x2="16.075" y1="-14.45" y2="-1.225"/>
<line style="stroke-width: 1; stroke: rgb(169 169 169); fill: none" x1="16.075" x2="15.975" y1="-1.225" y2="-15.125"/>
<line style="stroke-width: 1; stroke: rgb(169 169 169); fill: none" x1="6.85" x2="15.975" y1="-14.45" y2="-15.125"/>
<line style="stroke-width: 1; stroke: rgb(169 169 169); fill: none" x1="21.275" x2="15.975" y1="-22.575" y2="-15.125"/>
<line style="stroke-width: 1; stroke: rgb(169 169 169); fill: none" x1="34.55" x2="27.625" y1="-20.9" y2="-19.55"/>
<line style="stroke-width: 1; stroke: rgb(169 169 169); fill: none" x1="32.25" x2="27.625" y1="-12.85" y2="-19.55"/>
<line style="stroke-width: 1; stroke: rgb(169 169 169); fill: none" x1="21.275" x2="27.625" y1="-22.575" y2="-19.55"/>
<line style="stroke-width: 1; stroke: rgb(169 169 169); fill: none" x1="32.25" x2="23.825" y1="-12.85" y2="-12"/>
<line style="stroke-width: 1; stroke: rgb(169 169 169); fill: none" x1="16.075" x2="23.825" y1="-1.225" y2="-12"/>
<line style="stroke-width: 1; stroke: rgb(169 169 169); fill: none" x1="15.975" x2="23.825" y1="-15.125" y2="-12"/>
<circle cx="0" cy="0" r="0.4" style="stroke-width: 0.5; stroke: rgb(0 0 0); fill: rgb(105 105 105)"/>
<circle cx="0" cy="50" r="0.4" style="stroke-width: 0.5; stroke: rgb(0 0 0); fill: rgb(105 105 105)"/>
<circle cx="6.4" cy="49.6" r="0.4" style="stroke-width: 0.5; stroke: rgb(0 0 0); fill: rgb(105 105 105)"/>
<circle cx="18.8" cy="46.325" r="0.4" style="stroke-width: 0.5; stroke: rgb(0 0 0); fill: rgb(105 105 105)"/>
<circle cx="24.575" cy="43.525" r="0.4" style="stroke-width: 0.5; stroke: rgb(0 0 0); fill: rgb(105 105 105)"/>
<circle cx="39.15" cy="31.1" r="0.4" style="stroke-width: 0.5; stroke: rgb(0 0 0); fill: rgb(105 105 105)"/>
<circle cx="42.825" cy="25.825" r="0.4" style="stroke-width: 0.5; stroke: rgb(0 0 0); fill: rgb(105 105 105)"/>
<circle cx="45.775" cy="20.125" r="0.4" style="stroke-width: 0.5; stroke: rgb(0 0 0); fill: rgb(105 105 105)"/>
<circle cx="47.975" cy="14.075" r="0.4" style="stroke-width: 0.5; stroke: rgb(0 0 0); fill: rgb(105 105 105)"/>
<circle cx="49.375" cy="7.825" r="0.4" style="stroke-width: 0.5; stroke: rgb(0 0 0); fill: rgb(105 105 105)"/>
<circle cx="49.975" cy="1.425" r="0.4" style="stroke-width: 0.5; stroke: rgb(0 0 0); fill: rgb(105 105 105)"/>
<circle cx="49.75" cy="-5" r="0.4" style="stroke-width: 0.5; stroke: rgb(0 0 0); fill: rgb(105 105 105)"/>
<circle cx="48.7" cy="-11.325" r="0.4" style="stroke-width: 0.5; stroke: rgb(0 0 0); fill: rgb(105 105 105)"/>
<circle cx="36.825" cy="-33.8" r="0.4" style="stroke-width: 0.5; stroke: rgb(0 0 0); fill: rgb(105 105 105)"/>
<circle cx="32.2" cy="-38.25" r="0.4" style="stroke-width: 0.5; stroke: rgb(0 0 0); fill: rgb(105 105 105)"/>
<circle cx="27.025" cy="-42.075" r="0.4" style="stroke-width: 0.5; stroke: rgb(0 0 0); fill: rgb(105 105 105)"/>
<circle cx="21.425" cy="-45.175" r="0.4" style="stroke-width: 0.5; stroke: rgb(0 0 0); fill: rgb(105 105 105)"/>
<circle cx="0" cy="25" r="0.4" style="stroke-width: 0.5; stroke: rgb(0 0 0); fill: rgb(105 105 105)"/>
<circle cx="14.875" cy="30.825" r="0.4" style="stroke-width: 0.5; stroke: rgb(0 0 0); fill: rgb(105 105 105)"/>
<circle cx="27.15" cy="18.85" r="0.4" style="stroke-width: 0.5; stroke: rgb(0 0 0); fill: rgb(105 105 105)"/>
<circle cx="36.5" cy="18.925" r="0.4" style="stroke-width: 0.5; stroke: rgb(0 0 0); fill: rgb(105 105 105)"/>
<circle cx="31.975" cy="1.5" r="0.4" style="stroke-width: 0.5; stroke: rgb(0 0 0); fill: rgb(105 105 105)"/>
<circle cx="40.95" cy="-1.475" r="0.4" style="stroke-width: 0.5; stroke: rgb(0 0 0); fill: rgb(105 105 105)"/>
<circle cx="10.7" cy="-22.6" r="0.4" style="stroke-width: 0.5; stroke: rgb(0 0 0); fill: rgb(105 105 105)"/>
<circle cx="42.775" cy="-22.575" r="0.4" style="stroke-width: 0.5; stroke: rgb(0 0 0); fill: rgb(105 105 105)"/>
<circle cx="14.575" cy="-30.725" r="0.4" style="stroke-width: 0.5; stroke: rgb(0 0 0); fill: rgb(105 105 105)"/>
<circle cx="24.125" cy="-32.725" r="0.4" style="stroke-width: 0.5; stroke: rgb(0 0 0); fill: rgb(105 105 105)"/>
<circle cx="0" cy="34" r="0.4" style="stroke-width: 0.5; stroke: rgb(0 0 0); fill: rgb(105 105 105)"/>
<circle cx="18.425" cy="38.175" r="0.4" style="stroke-width: 0.5; stroke: rgb(0 0 0); fill: rgb(105 105 105)"/>
<circle cx="12.6" cy="47.95" r="0.4" style="stroke-width: 0.5; stroke: rgb(0 0 0); fill: rgb(105 105 105)"/>
<circle cx="0" cy="42" r="0.4" style="stroke-width: 0.5; stroke: rgb(0 0 0); fill: rgb(105 105 105)"/>
<circle cx="8.625" cy="38" r="0.4" style="stroke-width: 0.5; stroke: rgb(0 0 0); fill: rgb(105 105 105)"/>
<circle cx="31.875" cy="37.325" r="0.4" style="stroke-width: 0.5; stroke: rgb(0 0 0); fill: rgb(105 105 105)"/>
<circle cx="39.275" cy="8.525" r="0.4" style="stroke-width: 0.5; stroke: rgb(0 0 0); fill: rgb(105 105 105)"/>
<circle cx="24.7" cy="30.625" r="0.4" style="stroke-width: 0.5; stroke: rgb(0 0 0); fill: rgb(105 105 105)"/>
<circle cx="21.275" cy="-22.575" r="0.4" style="stroke-width: 0.5; stroke: rgb(0 0 0); fill: rgb(105 105 105)"/>
<circle cx="32.25" cy="-12.85" r="0.4" style="stroke-width: 0.5; stroke: rgb(0 0 0); fill: rgb(105 105 105)"/>
<circle cx="18" cy="-37.95" r="0.4" style="stroke-width: 0.5; stroke: rgb(0 0 0); fill: rgb(105 105 105)"/>
<circle cx="30.6" cy="-31.95" r="0.4" style="stroke-width: 0.5; stroke: rgb(0 0 0); fill: rgb(105 105 105)"/>
<circle cx="6.85" cy="-14.45" r="0.4" style="stroke-width: 0.5; stroke: rgb(0 0 0); fill: rgb(105 105 105)"/>
<circle cx="40.575" cy="-26.725" r="0.4" style="stroke-width: 0.5; stroke: rgb(0 0 0); fill: rgb(105 105 105)"/>
<circle cx="34.55" cy="-20.9" r="0.4" style="stroke-width: 0.5; stroke: rgb(0 0 0); fill: rgb(105 105 105)"/>
<circle cx="26.65" cy="-26.525" r="0.4" style="stroke-width: 0.5; stroke: rgb(0 0 0); fill: rgb(105 105 105)"/>
<circle cx="16.075" cy="-1.225" r="0.4" style="stroke-width: 0.5; stroke: rgb(0 0 0); fill: rgb(105 105 105)"/>
<circle cx="15.975" cy="-15.125" r="0.4" style="stroke-width: 0.5; stroke: rgb(0 0 0); fill: rgb(105 105 105)"/>
<circle cx="27.625" cy="-19.55" r="0.4" style="stroke-width: 0.5; stroke: rgb(0 0 0); fill: rgb(105 105 105)"/>
<circle cx="23.825" cy="-12" r="0.4" style="stroke-width: 0.5; stroke: rgb(0 0 0); fill: rgb(105 105 105)"/>
</g>
</svg>