<svg viewBox="-5.477960964140946 -55.178403760945045 60.93553156969135 115.1764404664855" width="200" xmlns="http://www.w3.org/2000/svg" xmlns:xlink="http://www.w3.org/1999/xlink">
<defs>
<pattern height="1" id="angle_limit_30_pattern0001" patternTransform="rotate(63.512 0 0) scale(2)" patternUnits="userSpaceOnUse" width="1">
<line stroke="rgb(255 255 255)" stroke-width="1.01" x1="0" x2="0" y1="-0.1" y2="1.1"/>
<line stroke="rgb(211 211 211)" stroke-width="1.01" x1="1" x2="1" y1="-0.1" y2="1.1"/>
</pattern>
</defs>
<rect height="100%" style="fill: url(#angle_limit_30_pattern0001)" width="100%" x="-5.477960964140946" y="-55.178403760945045"/>
<g>
<path d="M6.4083095,49.587635 L0,50 L0,42 z" style="fill: rgb(211 211 211)"/>
<path d="M0,42 L0,34 L8.632162,38 z" style="fill: rgb(211 211 211)"/>
<path d="M42.81745,25.819874 L39.15509,31.094679 L36.50096,18.927649 z" style="fill: rgb(211 211 211)"/>
<path d="M45.77356,20.119179 L42.81745,25.819874 L36.50096,18.927649 z" style="fill: rgb(211 211 211)"/>
<path d="M14.88579,30.830177 L0,25 L27.152424,18.852264 z" style="fill: rgb(211 211 211)"/>
<path d="M27.152424,18.852264 L36.50096,18.927649 L24.695236,30.624361 z" style="fill: rgb(211 211 211)"/>
<path d="M18.43363,38.17816 L24.695236,30.624361 L24.586647,43.537304 z" style="fill: rgb(211 211 211)"/>
<path d="M47.974648,14.086628 L39.266624,8.537331 L49.38442,7.8217235 z" style="fill: rgb(211 211 211)"/>
<path d="M31.96696,1.4948393 L40.962402,-1.4629759 L39.266624,8.537331 z" style="fill: rgb(211 211 211)"/>
<path d="M34.55414,-20.895588 L27.634491,-19.543037 L26.66139,-26.526157 z" style="fill: rgb(211 211 211)"/>
<path d="M36.50096,18.927649 L27.152424,18.852264 L39.266624,8.537331 z" style="fill: rgb(211 211 211)"/>
<path d="M10.7090435,-22.590183 L14.564299,-30.72265 L21.264898,-22.566143 z" style="fill: rgb(211 211 211)"/>
<path d="M30.599146,-31.938913 L36.837055,-33.808746 L40.570396,-26.733282 z" style="fill: rgb(211 211 211)"/>
<path d="M21.418087,-45.180367 L27.032042,-42.062675 L17.991192,-37.951508 z" style="fill: rgb(211 211 211)"/>
<path d="M27.634491,-19.543037 L23.82649,-11.995818 L21.264898,-22.566143 z" style="fill: rgb(211 211 211)"/>
<path d="M18.43363,38.17816 L18.803862,46.329414 L12.606086,47.958527 z" style="fill: rgb(211 211 211)"/>
<path d="M14.88579,30.830177 L24.695236,30.624361 L18.43363,38.17816 z" style="fill: rgb(211 211 211)"/>
<path d="M0,25 L14.88579,30.830177 L0,34 z" style="fill: rgb(211 211 211)"/>
<path d="M27.152424,18.852264 L0,25 L16.076063,-1.232427 z" style="fill: rgb(211 211 211)"/>
<path d="M49.97961,1.4278026 L49.38442,7.8217235 L40.962402,-1.4629759 z" style="fill: rgb(211 211 211)"/>
<path d="M49.38442,7.8217235 L39.266624,8.537331 L40.962402,-1.4629759 z" style="fill: rgb(211 211 211)"/>
<path d="M36.50096,18.927649 L47.974648,14.086628 L45.77356,20.119179 z" style="fill: rgb(211 211 211)"/>
<path d="M31.96696,1.4948393 L27.152424,18.852264 L16.076063,-1.232427 z" style="fill: rgb(211 211 211)"/>
<path d="M40.962402,-1.4629759 L32.23782,-12.838994 L48.700596,-11.324839 z" style="fill: rgb(211 211 211)"/>
<path d="M49.75041,-4.9896693 L40.962402,-1.4629759 L48.700596,-11.324839 z" style="fill: rgb(211 211 211)"/>
<path d="M40.962402,-1.4629759 L49.75041,-4.9896693 L49.97961,1.4278026 z" style="fill: rgb(211 211 211)"/>
<path d="M24.134575,-32.72447 L21.264898,-22.566143 L14.564299,-30.72265 z" style="fill: rgb(211 211 211)"/>
<path d="M42.768826,-22.566792 L48.700596,-11.324839 L32.23782,-12.838994 z" style="fill: rgb(211 211 211)"/>
<path d="M24.134575,-32.72447 L14.564299,-30.72265 L17.991192,-37.951508 z" style="fill: rgb(211 211 211)"/>
<path d="M32.20011,-38.25118 L24.134575,-32.72447 L27.032042,-42.062675 z" style="fill: rgb(211 211 211)"/>
<path d="M24.134575,-32.72447 L32.20011,-38.25118 L30.599146,-31.938913 z" style="fill: rgb(211 211 211)"/>
<path d="M18.43363,38.17816 L12.606086,47.958527 L8.632162,38 z" style="fill: rgb(211 211 211)"/>
<path d="M39.15509,31.094679 L24.695236,30.624361 L36.50096,18.927649 z" style="fill: rgb(211 211 211)"/>
<path d="M18.43363,38.17816 L24.586647,43.537304 L18.803862,46.329414 z" style="fill: rgb(211 211 211)"/>
<path d="M14.88579,30.830177 L8.632162,38 L0,34 z" style="fill: rgb(211 211 211)"/>
<path d="M12.606086,47.958527 L6.4083095,49.587635 L8.632162,38 z" style="fill: rgb(211 211 211)"/>
<path d="M8.632162,38 L14.88579,30.830177 L18.43363,38.17816 z" style="fill: rgb(211 211 211)"/>
<path d="M0,42 L8.632162,38 L6.4083095,49.587635 z" style="fill: rgb(211 211 211)"/>
<path d="M31.870867,37.31599 L24.586647,43.537304 L24.695236,30.624361 z" style="fill: rgb(211 211 211)"/>
<path d="M39.266624,8.537331 L47.974648,14.086628 L36.50096,18.927649 z" style="fill: rgb(211 211 211)"/>
<path d="M31.96696,1.4948393 L39.266624,8.537331 L27.152424,18.852264 z" style="fill: rgb(211 211 211)"/>
<path d="M24.695236,30.624361 L14.88579,30.830177 L27.152424,18.852264 z" style="fill: rgb(211 211 211)"/>
<path d="M31.870867,37.31599 L24.695236,30.624361 L39.15509,31.094679 z" style="fill: rgb(211 211 211)"/>
<path d="M31.96696,1.4948393 L32.23782,-12.838994 L40.962402,-1.4629759 z" style="fill: rgb(211 211 211)"/>
<path d="M32.23782,-12.838994 L31.96696,1.4948393 L23.82649,-11.995818 z" style="fill: rgb(211 211 211)"/>
<path d="M32.23782,-12.838994 L23.82649,-11.995818 L27.634491,-19.543037 z" style="fill: rgb(211 211 211)"/>
<path d="M40.570396,-26.733282 L42.768826,-22.566792 L34.55414,-20.895588 z" style="fill: rgb(211 211 211)"/>
<path d="M24.134575,-32.72447 L17.991192,-37.951508 L27.032042,-42.062675 z" style="fill: rgb(211 211 211)"/>
<path d="M21.264898,-22.566143 L24.134575,-32.72447 L26.66139,-26.526157 z" style="fill: rgb(211 211 211)"/>
<path d="M36.837055,-33.808746 L30.599146,-31.938913 L32.20011,-38.25118 z" style="fill: rgb(211 211 211)"/>
<path d="M6.853788,-14.457718 L10.7090435,-22.590183 L15.969975,-15.11616 z" style="fill: rgb(211 211 211)"/>
<path d="M32.23782,-12.838994 L34.55414,-20.895588 L42.768826,-22.566792 z" style="fill: rgb(211 211 211)"/>
<path d="M21.264898,-22.566143 L26.66139,-26.526157 L27.634491,-19.543037 z" style="fill: rgb(211 211 211)"/>
<path d="M34.55414,-20.895588 L30.599146,-31.938913 L40.570396,-26.733282 z" style="fill: rgb(211 211 211)"/>
<path d="M30.599146,-31.938913 L26.66139,-26.526157 L24.134575,-32.72447 z" style="fill: rgb(211 211 211)"/>
<path d="M26.66139,-26.526157 L30.599146,-31.938913 L34.55414,-20.895588 z" style="fill: rgb(211 211 211)"/>
<path d="M0,0 L16.076063,-1.232427 L0,25 z" style="fill: rgb(211 211 211)"/>
<path d="M16.076063,-1.232427 L0,0 L6.853788,-14.457718 z" style="fill: rgb(211 211 211)"/>
<path d="M15.969975,-15.11616 L16.076063,-1.232427 L6.853788,-14.457718 z" style="fill: rgb(211 211 211)"/>
<path d="M21.264898,-22.566143 L15.969975,-15.11616 L10.7090435,-22.590183 z" style="fill: rgb(211 211 211)"/>
<path d="M27.634491,-19.543037 L34.55414,-20.895588 L32.23782,-12.838994 z" style="fill: rgb(211 211 211)"/>
<path d="M15.969975,-15.11616 L21.264898,-22.566143 L23.82649,-11.995818 z" style="fill: rgb(211 211 211)"/>
<path d="M16.076063,-1.232427 L23.82649,-11.995818 L31.96696,1.4948393 z" style="fill: rgb(211 211 211)"/>
<path d="M23.82649,-11.995818 L16.076063,-1.232427 L15.969975,-15.11616 z" style="fill: rgb(211 211 211)"/>
<line style="stroke-width: 1; stroke: rgb(139 0 0); fill: none" x1="0" x2="0" y1="42" y2="50"/>
<line style="stroke-width: 1; stroke: rgb(169 169 169); fill: none" x1="0" x2="8.632161880543864" y1="34" y2="38"/>
<line style="stroke-width: 1; stroke: rgb(139 0 0); fill: none" x1="6.408309576054638" x2="0" y1="49.58763523679514" y2="50"/>
<line style="stroke-width: 1; stroke: rgb(169 169 169); fill: none" x1="12.606086026492314" x2="8.632161880543864" y1="47.958525451374356" y2="38"/>
<line style="stroke-width: 1; stroke: rgb(139 0 0); fill: none" x1="18.80386247692999" x2="12.606086026492314" y1="46.32941566595357" y2="47.958525451374356"/>
<line style="stroke-width: 1; stroke: rgb(169 169 169); fill: none" x1="36.500959826541965" x2="24.695235885147376" y1="18.927648651652326" y2="30.624361287562195"/>
<line style="stroke-width: 1; stroke: rgb(139 0 0); fill: none" x1="24.586646232280188" x2="18.80386247692999" y1="43.53730385598886" y2="46.32941566595357"/>
<line style="stroke-width: 1; stroke: rgb(169 169 169); fill: none" x1="27.15242293580942" x2="0" y1="18.852264170762773" y2="25"/>
<line style="stroke-width: 1; stroke: rgb(139 0 0); fill: none" x1="39.15508854902776" x2="31.870867390653974" y1="31.094678655966117" y2="37.31599125597749"/>
<line style="stroke-width: 1; stroke: rgb(169 169 169); fill: none" x1="36.500959826541965" x2="39.15508854902776" y1="18.927648651652326" y2="31.094678655966117"/>
<line style="stroke-width: 1; stroke: rgb(139 0 0); fill: none" x1="42.817451512579446" x2="39.15508854902776" y1="25.819873081948096" y2="31.094678655966117"/>
<line style="stroke-width: 1; stroke: rgb(169 169 169); fill: none" x1="36.500959826541965" x2="42.817451512579446" y1="18.927648651652326" y2="25.819873081948096"/>
<line style="stroke-width: 1; stroke: rgb(139 0 0); fill: none" x1="45.773558145970306" x2="42.817451512579446" y1="20.11917927395339" y2="25.819873081948096"/>
<line style="stroke-width: 1; stroke: rgb(169 169 169); fill: none" x1="40.96240244290469" x2="39.26662622587027" y1="-1.4629759135553835" y2="8.537330453758853"/>
<line style="stroke-width: 1; stroke: rgb(139 0 0); fill: none" x1="47.97464868072487" x2="45.773558145970306" y1="14.08662784207149" y2="20.11917927395339"/>
<line style="stroke-width: 1; stroke: rgb(169 169 169); fill: none" x1="39.26662622587027" x2="27.15242293580942" y1="8.537330453758853" y2="18.852264170762773"/>
<line style="stroke-width: 1; stroke: rgb(139 0 0); fill: none" x1="49.38441702975689" x2="47.97464868072487" y1="7.821723252011546" y2="14.08662784207149"/>
<line style="stroke-width: 1; stroke: rgb(169 169 169); fill: none" x1="40.96240244290469" x2="49.38441702975689" y1="-1.4629759135553835" y2="7.821723252011546"/>
<line style="stroke-width: 1; stroke: rgb(139 0 0); fill: none" x1="49.97960964140946" x2="49.38441702975689" y1="1.4278025396848126" y2="7.821723252011546"/>
<line style="stroke-width: 1; stroke: rgb(169 169 169); fill: none" x1="48.70059584711668" x2="40.96240244290469" y1="-11.324838371288202" y2="-1.4629759135553835"/>
<line style="stroke-width: 1; stroke: rgb(139 0 0); fill: none" x1="49.75040905726798" x2="49.97960964140946" y1="-4.9896691908891375" y2="1.4278025396848126"/>
<line style="stroke-width: 1; stroke: rgb(169 169 169); fill: none" x1="24.13457427174029" x2="21.264897381306376" y1="-32.72446823093989" y2="-22.566142181332772"/>
<line style="stroke-width: 1; stroke: rgb(139 0 0); fill: none" x1="48.70059584711668" x2="49.75040905726798" y1="-11.324838371288202" y2="-4.9896691908891375"/>
<line style="stroke-width: 1; stroke: rgb(169 169 169); fill: none" x1="21.264897381306376" x2="14.564298874249761" y1="-22.566142181332772" y2="-30.72264959767512"/>
<line style="stroke-width: 1; stroke: rgb(139 0 0); fill: none" x1="36.83705689382024" x2="40.57039547962563" y1="-33.80874501370098" y2="-26.733281565718464"/>
<line style="stroke-width: 1; stroke: rgb(169 169 169); fill: none" x1="31.966961659691894" x2="23.82649127418012" y1="1.494839300787124" y2="-11.995817940753525"/>
<line style="stroke-width: 1; stroke: rgb(139 0 0); fill: none" x1="32.20011272044277" x2="36.83705689382024" y1="-38.25117959999116" y2="-33.80874501370098"/>
<line style="stroke-width: 1; stroke: rgb(169 169 169); fill: none" x1="42.76882637046846" x2="34.554138299687565" y1="-22.56679169249459" y2="-20.895587368815168"/>
<line style="stroke-width: 1; stroke: rgb(139 0 0); fill: none" x1="27.032040872779888" x2="32.20011272044277" y1="-42.06267664155906" y2="-38.25117959999116"/>
<line style="stroke-width: 1; stroke: rgb(139 0 0); fill: none" x1="0" x2="6.8537877055292995" y1="0" y2="-14.45771745772947"/>
<line style="stroke-width: 1; stroke: rgb(139 0 0); fill: none" x1="21.41808657977906" x2="27.032040872779888" y1="-45.18036705540459" y2="-42.06267664155906"/>
<line style="stroke-width: 1; stroke: rgb(169 169 169); fill: none" x1="14.885789468704441" x2="0" y1="30.830177078859514" y2="34"/>
<line style="stroke-width: 1; stroke: rgb(139 0 0); fill: none" x1="0" x2="0" y1="25" y2="0"/>
<line style="stroke-width: 1; stroke: rgb(169 169 169); fill: none" x1="18.433629492242453" x2="24.695235885147376" y1="38.17816063076325" y2="30.624361287562195"/>
<line style="stroke-width: 1; stroke: rgb(169 169 169); fill: none" x1="24.695235885147376" x2="39.15508854902776" y1="30.624361287562195" y2="31.094678655966117"/>
<line style="stroke-width: 1; stroke: rgb(169 169 169); fill: none" x1="0" x2="14.885789468704441" y1="25" y2="30.830177078859514"/>
<line style="stroke-width: 1; stroke: rgb(169 169 169); fill: none" x1="14.885789468704441" x2="27.15242293580942" y1="30.830177078859514" y2="18.852264170762773"/>
<line style="stroke-width: 1; stroke: rgb(169 169 169); fill: none" x1="0" x2="16.07606243244121" y1="25" y2="-1.2324269719136773"/>
<line style="stroke-width: 1; stroke: rgb(169 169 169); fill: none" x1="39.26662622587027" x2="49.38441702975689" y1="8.537330453758853" y2="7.821723252011546"/>
<line style="stroke-width: 1; stroke: rgb(169 169 169); fill: none" x1="27.15242293580942" x2="36.500959826541965" y1="18.852264170762773" y2="18.927648651652326"/>
<line style="stroke-width: 1; stroke: rgb(169 169 169); fill: none" x1="47.97464868072487" x2="36.500959826541965" y1="14.08662784207149" y2="18.927648651652326"/>
<line style="stroke-width: 1; stroke: rgb(169 169 169); fill: none" x1="45.773558145970306" x2="36.500959826541965" y1="20.11917927395339" y2="18.927648651652326"/>
<line style="stroke-width: 1; stroke: rgb(169 169 169); fill: none" x1="27.15242293580942" x2="31.966961659691894" y1="18.852264170762773" y2="1.494839300787124"/>
<line style="stroke-width: 1; stroke: rgb(169 169 169); fill: none" x1="27.15242293580942" x2="16.07606243244121" y1="18.852264170762773" y2="-1.2324269719136773"/>
<line style="stroke-width: 1; stroke: rgb(169 169 169); fill: none" x1="40.96240244290469" x2="32.237819005646315" y1="-1.4629759135553835" y2="-12.838994483496524"/>
<line style="stroke-width: 1; stroke: rgb(169 169 169); fill: none" x1="31.966961659691894" x2="40.96240244290469" y1="1.494839300787124" y2="-1.4629759135553835"/>
<line style="stroke-width: 1; stroke: rgb(169 169 169); fill: none" x1="49.75040905726798" x2="40.96240244290469" y1="-4.9896691908891375" y2="-1.4629759135553835"/>
<line style="stroke-width: 1; stroke: rgb(169 169 169); fill: none" x1="49.97960964140946" x2="40.96240244290469" y1="1.4278025396848126" y2="-1.4629759135553835"/>
<line style="stroke-width: 1; stroke: rgb(169 169 169); fill: none" x1="24.13457427174029" x2="27.032040872779888" y1="-32.72446823093989" y2="-42.06267664155906"/>
<line style="stroke-width: 1; stroke: rgb(139 0 0); fill: none" x1="10.70904328988953" x2="14.564298874249761" y1="-22.590183527702294" y2="-30.72264959767512"/>
<line style="stroke-width: 1; stroke: rgb(169 169 169); fill: none" x1="48.70059584711668" x2="32.237819005646315" y1="-11.324838371288202" y2="-12.838994483496524"/>
<line style="stroke-width: 1; stroke: rgb(139 0 0); fill: none" x1="42.76882637046846" x2="48.70059584711668" y1="-22.56679169249459" y2="-11.324838371288202"/>
<line style="stroke-width: 1; stroke: rgb(169 169 169); fill: none" x1="17.99119272701441" x2="27.032040872779888" y1="-37.95150832653985" y2="-42.06267664155906"/>
<line style="stroke-width: 1; stroke: rgb(139 0 0); fill: none" x1="14.564298874249761" x2="17.99119272701441" y1="-30.72264959767512" y2="-37.95150832653985"/>
<line style="stroke-width: 1; stroke: rgb(169 169 169); fill: none" x1="14.564298874249761" x2="24.13457427174029" y1="-30.72264959767512" y2="-32.72446823093989"/>
<line style="stroke-width: 1; stroke: rgb(169 169 169); fill: none" x1="32.20011272044277" x2="24.13457427174029" y1="-38.25117959999116" y2="-32.72446823093989"/>
<line style="stroke-width: 1; stroke: rgb(169 169 169); fill: none" x1="32.20011272044277" x2="30.59914670225494" y1="-38.25117959999116" y2="-31.938913731947853"/>
<line style="stroke-width: 1; stroke: rgb(169 169 169); fill: none" x1="8.632161880543864" x2="6.408309576054638" y1="38" y2="49.58763523679514"/>
<line style="stroke-width: 1; stroke: rgb(139 0 0); fill: none" x1="0" x2="0" y1="34" y2="25"/>
<line style="stroke-width: 1; stroke: rgb(169 169 169); fill: none" x1="14.885789468704441" x2="18.433629492242453" y1="30.830177078859514" y2="38.17816063076325"/>
<line style="stroke-width: 1; stroke: rgb(169 169 169); fill: none" x1="24.586646232280188" x2="18.433629492242453" y1="43.53730385598886" y2="38.17816063076325"/>
<line style="stroke-width: 1; stroke: rgb(169 169 169); fill: none" x1="18.80386247692999" x2="18.433629492242453" y1="46.32941566595357" y2="38.17816063076325"/>
<line style="stroke-width: 1; stroke: rgb(169 169 169); fill: none" x1="18.433629492242453" x2="12.606086026492314" y1="38.17816063076325" y2="47.958525451374356"/>
<line style="stroke-width: 1; stroke: rgb(139 0 0); fill: none" x1="12.606086026492314" x2="6.408309576054638" y1="47.958525451374356" y2="49.58763523679514"/>
<line style="stroke-width: 1; stroke: rgb(169 169 169); fill: none" x1="6.408309576054638" x2="0" y1="49.58763523679514" y2="42"/>
<line style="stroke-width: 1; stroke: rgb(139 0 0); fill: none" x1="0" x2="0" y1="42" y2="34"/>
<line style="stroke-width: 1; stroke: rgb(169 169 169); fill: none" x1="14.885789468704441" x2="8.632161880543864" y1="30.830177078859514" y2="38"/>
<line style="stroke-width: 1; stroke: rgb(169 169 169); fill: none" x1="18.433629492242453" x2="8.632161880543864" y1="38.17816063076325" y2="38"/>
<line style="stroke-width: 1; stroke: rgb(169 169 169); fill: none" x1="0" x2="8.632161880543864" y1="42" y2="38"/>
<line style="stroke-width: 1; stroke: rgb(169 169 169); fill: none" x1="24.586646232280188" x2="24.695235885147376" y1="43.53730385598886" y2="30.624361287562195"/>
<line style="stroke-width: 1; stroke: rgb(139 0 0); fill: none" x1="31.870867390653974" x2="24.586646232280188" y1="37.31599125597749" y2="43.53730385598886"/>
<line style="stroke-width: 1; stroke: rgb(169 169 169); fill: none" x1="47.97464868072487" x2="39.26662622587027" y1="14.08662784207149" y2="8.537330453758853"/>
<line style="stroke-width: 1; stroke: rgb(169 169 169); fill: none" x1="36.500959826541965" x2="39.26662622587027" y1="18.927648651652326" y2="8.537330453758853"/>
<line style="stroke-width: 1; stroke: rgb(169 169 169); fill: none" x1="31.966961659691894" x2="39.26662622587027" y1="1.494839300787124" y2="8.537330453758853"/>
<line style="stroke-width: 1; stroke: rgb(169 169 169); fill: none" x1="14.885789468704441" x2="24.695235885147376" y1="30.830177078859514" y2="30.624361287562195"/>
<line style="stroke-width: 1; stroke: rgb(169 169 169); fill: none" x1="27.15242293580942" x2="24.695235885147376" y1="18.852264170762773" y2="30.624361287562195"/>
<line style="stroke-width: 1; stroke: rgb(169 169 169); fill: none" x1="31.870867390653974" x2="24.695235885147376" y1="37.31599125597749" y2="30.624361287562195"/>
<line style="stroke-width: 1; stroke: rgb(169 169 169); fill: none" x1="27.634491856587598" x2="26.66139031483061" y1="-19.543036796249144" y2="-26.526157397977634"/>
<line style="stroke-width: 1; stroke: rgb(169 169 169); fill: none" x1="23.82649127418012" x2="27.634491856587598" y1="-11.995817940753525" y2="-19.543036796249144"/>
<line style="stroke-width: 1; stroke: rgb(169 169 169); fill: none" x1="10.70904328988953" x2="21.264897381306376" y1="-22.590183527702294" y2="-22.566142181332772"/>
<line style="stroke-width: 1; stroke: rgb(169 169 169); fill: none" x1="31.966961659691894" x2="32.237819005646315" y1="1.494839300787124" y2="-12.838994483496524"/>
<line style="stroke-width: 1; stroke: rgb(169 169 169); fill: none" x1="23.82649127418012" x2="21.264897381306376" y1="-11.995817940753525" y2="-22.566142181332772"/>
<line style="stroke-width: 1; stroke: rgb(169 169 169); fill: none" x1="42.76882637046846" x2="32.237819005646315" y1="-22.56679169249459" y2="-12.838994483496524"/>
<line style="stroke-width: 1; stroke: rgb(169 169 169); fill: none" x1="24.13457427174029" x2="17.99119272701441" y1="-32.72446823093989" y2="-37.95150832653985"/>
<line style="stroke-width: 1; stroke: rgb(139 0 0); fill: none" x1="17.99119272701441" x2="21.41808657977906" y1="-37.95150832653985" y2="-45.18036705540459"/>
<line style="stroke-width: 1; stroke: rgb(169 169 169); fill: none" x1="26.66139031483061" x2="24.13457427174029" y1="-26.526157397977634" y2="-32.72446823093989"/>
<line style="stroke-width: 1; stroke: rgb(169 169 169); fill: none" x1="24.13457427174029" x2="30.59914670225494" y1="-32.72446823093989" y2="-31.938913731947853"/>
<line style="stroke-width: 1; stroke: rgb(169 169 169); fill: none" x1="36.83705689382024" x2="30.59914670225494" y1="-33.80874501370098" y2="-31.938913731947853"/>
<line style="stroke-width: 1; stroke: rgb(169 169 169); fill: none" x1="10.70904328988953" x2="15.969975350750033" y1="-22.590183527702294" y2="-15.116160619571634"/>
<line style="stroke-width: 1; stroke: rgb(139 0 0); fill: none" x1="6.8537877055292995" x2="10.70904328988953" y1="-14.45771745772947" y2="-22.590183527702294"/>
<line style="stroke-width: 1; stroke: rgb(169 169 169); fill: none" x1="30.59914670225494" x2="40.57039547962563" y1="-31.938913731947853" y2="-26.733281565718464"/>
<line style="stroke-width: 1; stroke: rgb(139 0 0); fill: none" x1="40.57039547962563" x2="42.76882637046846" y1="-26.733281565718464" y2="-22.56679169249459"/>
<line style="stroke-width: 1; stroke: rgb(169 169 169); fill: none" x1="32.237819005646315" x2="34.554138299687565" y1="-12.838994483496524" y2="-20.895587368815168"/>
<line style="stroke-width: 1; stroke: rgb(169 169 169); fill: none" x1="30.59914670225494" x2="34.554138299687565" y1="-31.938913731947853" y2="-20.895587368815168"/>
<line style="stroke-width: 1; stroke: rgb(169 169 169); fill: none" x1="40.57039547962563" x2="34.554138299687565" y1="-26.733281565718464" y2="-20.895587368815168"/>
<line style="stroke-width: 1; stroke: rgb(169 169 169); fill: none" x1="21.264897381306376" x2="26.66139031483061" y1="-22.566142181332772" y2="-26.526157397977634"/>
<line style="stroke-width: 1; stroke: rgb(169 169 169); fill: none" x1="30.59914670225494" x2="26.66139031483061" y1="-31.938913731947853" y2="-26.526157397977634"/>
<line style="stroke-width: 1; stroke: rgb(169 169 169); fill: none" x1="34.554138299687565" x2="26.66139031483061" y1="-20.895587368815168" y2="-26.526157397977634"/>
<line style="stroke-width: 1; stroke: rgb(169 169 169); fill: none" x1="31.966961659691894" x2="16.07606243244121" y1="1.494839300787124" y2="-1.2324269719136773"/>
<line style="stroke-width: 1; stroke: rgb(169 169 169); fill: none" x1="0" x2="16.07606243244121" y1="0" y2="-1.2324269719136773"/>
<line style="stroke-width: 1; stroke: rgb(169 169 169); fill: none" x1="6.8537877055292995" x2="16.07606243244121" y1="-14.45771745772947" y2="-1.2324269719136773"/>
<line style="stroke-width: 1; stroke: rgb(169 169 169); fill: none" x1="16.07606243244121" x2="15.969975350750033" y1="-1.2324269719136773" y2="-15.116160619571634"/>
<line style="stroke-width: 1; stroke: rgb(169 169 169); fill: none" x1="6.8537877055292995" x2="15.969975350750033" y1="-14.45771745772947" y2="-15.116160619571634"/>
<line style="stroke-width: 1; stroke: rgb(169 169 169); fill: none" x1="21.264897381306376" x2="15.969975350750033" y1="-22.566142181332772" y2="-15.116160619571634"/>
<line style="stroke-width: 1; stroke: rgb(169 169 169); fill: none" x1="34.554138299687565" x2="27.634491856587598" y1="-20.895587368815168" y2="-19.543036796249144"/>
<line style="stroke-width: 1; stroke: rgb(169 169 169); fill: none" x1="32.237819005646315" x2="27.634491856587598" y1="-12.838994483496524" y2="-19.543036796249144"/>
<line style="stroke-width: 1; stroke: rgb(169 169 169); fill: none" x1="21.264897381306376" x2="27.634491856587598" y1="-22.566142181332772" y2="-19.543036796249144"/>
<line style="stroke-width: 1; stroke: rgb(169 169 169); fill: none" x1="32.237819005646315" x2="23.82649127418012" y1="-12.838994483496524" y2="-11.995817940753525"/>
<line style="stroke-width: 1; stroke: rgb(169 169 169); fill: none" x1="16.07606243244121" x2="23.82649127418012" y1="-1.2324269719136773" y2="-11.995817940753525"/>
<line style="stroke-width: 1; stroke: rgb(169 169 169); fill: none" x1="15.969975350750033" x2="23.82649127418012" y1="-15.116160619571634" y2="-11.995817940753525"/>
<circle cx="0" cy="0" r="0.4" style="stroke-width: 0.5; stroke: rgb(0 0 0); fill: rgb(105 105 105)"/>
<circle cx="0" cy="50" r="0.4" style="stroke-width: 0.5; stroke: rgb(0 0 0); fill: rgb(105 105 105)"/>
<circle cx="6.408309576054638" cy="49.58763523679514" r="0.4" style="stroke-width: 0.5; stroke: rgb(0 0 0); fill: rgb(105 105 105)"/>
<circle cx="18.80386247692999" cy="46.32941566595357" r="0.4" style="stroke-width: 0.5; stroke: rgb(0 0 0); fill: rgb(105 105 105)"/>
<circle cx="24.586646232280188" cy="43.53730385598886" r="0.4" style="stroke-width: 0.5; stroke: rgb(0 0 0); fill: rgb(105 105 105)"/>
<circle cx="39.15508854902776" cy="31.094678655966117" r="0.4" style="stroke-width: 0.5; stroke: rgb(0 0 0); fill: rgb(105 105 105)"/>
<circle cx="42.817451512579446" cy="25.819873081948096" r="0.4" style="stroke-width: 0.5; stroke: rgb(0 0 0); fill: rgb(105 105 105)"/>
<circle cx="45.773558145970306" cy="20.11917927395339" r="0.4" style="stroke-width: 0.5; stroke: rgb(0 0 0); fill: rgb(105 105 105)"/>
<circle cx="47.97464868072487" cy="14.08662784207149" r="0.4" style="stroke-width: 0.5; stroke: rgb(0 0 0); fill: rgb(105 105 105)"/>
<circle cx="49.38441702975689" cy="7.821723252011546" r="0.4" style="stroke-width: 0.5; stroke: rgb(0 0 0); fill: rgb(105 105 105)"/>
<circle cx="49.97960964140946" cy="1.4278025396848126" r="0.4" style="stroke-width: 0.5; stroke: rgb(0 0 0); fill: rgb(105 105 105)"/>
<circle cx="49.75040905726798" cy="-4.9896691908891375" r="0.4" style="stroke-width: 0.5; stroke: rgb(0 0 0); fill: rgb(105 105 105)"/>
<circle cx="48.70059584711668" cy="-11.324838371288202" r="0.4" style="stroke-width: 0.5; stroke: rgb(0 0 0); fill: rgb(105 105 105)"/>
<circle cx="36.83705689382024" cy="-33.80874501370098" r="0.4" style="stroke-width: 0.5; stroke: rgb(0 0 0); fill: rgb(105 105 105)"/>
<circle cx="32.20011272044277" cy="-38.25117959999116" r="0.4" style="stroke-width: 0.5; stroke: rgb(0 0 0); fill: rgb(105 105 105)"/>
<circle cx="27.032040872779888" cy="-42.06267664155906" r="0.4" style="stroke-width: 0.5; stroke: rgb(0 0 0); fill: rgb(105 105 105)"/>
<circle cx="21.41808657977906" cy="-45.18036705540459" r="0.4" style="stroke-width: 0.5; stroke: rgb(0 0 0); fill: rgb(105 105 105)"/>
<circle cx="0" cy="25" r="0.4" style="stroke-width: 0.5; stroke: rgb(0 0 0); fill: rgb(105 105 105)"/>
<circle cx="14.885789468704441" cy="30.830177078859514" r="0.4" style="stroke-width: 0.5; stroke: rgb(0 0 0); fill: rgb(105 105 105)"/>
<circle cx="27.15242293580942" cy="18.852264170762773" r="0.4" style="stroke-width: 0.5; stroke: rgb(0 0 0); fill: rgb(105 105 105)"/>
<circle cx="36.500959826541965" cy="18.927648651652326" r="0.4" style="stroke-width: 0.5; stroke: rgb(0 0 0); fill: rgb(105 105 105)"/>
<circle cx="31.966961659691894" cy="1.494839300787124" r="0.4" style="stroke-width: 0.5; stroke: rgb(0 0 0); fill: rgb(105 105 105)"/>
<circle cx="40.96240244290469" cy="-1.4629759135553835" r="0.4" style="stroke-width: 0.5; stroke: rgb(0 0 0); fill: rgb(105 105 105)"/>
<circle cx="10.70904328988953" cy="-22.590183527702294" r="0.4" style="stroke-width: 0.5; stroke: rgb(0 0 0); fill: rgb(105 105 105)"/>
<circle cx="42.76882637046846" cy="-22.56679169249459" r="0.4" style="stroke-width: 0.5; stroke: rgb(0 0 0); fill: rgb(105 105 105)"/>
<circle cx="14.564298874249761" cy="-30.72264959767512" r="0.4" style="stroke-width: 0.5; stroke: rgb(0 0 0); fill: rgb(105 105 105)"/>
<circle cx="24.13457427174029" cy="-32.72446823093989" r="0.4" style="stroke-width: 0.5; stroke: rgb(0 0 0); fill: rgb(105 105 105)"/>
<circle cx="0" cy="34" r="0.4" style="stroke-width: 0.5; stroke: rgb(0 0 0); fill: rgb(105 105 105)"/>
<circle cx="18.433629492242453" cy="38.17816063076325" r="0.4" style="stroke-width: 0.5; stroke: rgb(0 0 0); fill: rgb(105 105 105)"/>
<circle cx="12.606086026492314" cy="47.958525451374356" r="0.4" style="stroke-width: 0.5; stroke: rgb(0 0 0); fill: rgb(105 105 105)"/>
<circle cx="0" cy="42" r="0.4" style="stroke-width: 0.5; stroke: rgb(0 0 0); fill: rgb(105 105 105)"/>
<circle cx="8.632161880543864" cy="38" r="0.4" style="stroke-width: 0.5; stroke: rgb(0 0 0); fill: rgb(105 105 105)"/>
<circle cx="31.870867390653974" cy="37.31599125597749" r="0.4" style="stroke-width: 0.5; stroke: rgb(0 0 0); fill: rgb(105 105 105)"/>
<circle cx="39.26662622587027" cy="8.537330453758853" r="0.4" style="stroke-width: 0.5; stroke: rgb(0 0 0); fill: rgb(105 105 105)"/>
<circle cx="24.695235885147376" cy="30.624361287562195" r="0.4" style="stroke-width: 0.5; stroke: rgb(0 0 0); fill: rgb(105 105 105)"/>
<circle cx="21.264897381306376" cy="-22.566142181332772" r="0.4" style="stroke-width: 0.5; stroke: rgb(0 0 0); fill: rgb(105 105 105)"/>
<circle cx="32.237819005646315" cy="-12.838994483496524" r="0.4" style="stroke-width: 0.5; stroke: rgb(0 0 0); fill: rgb(105 105 105)"/>
<circle cx="17.99119272701441" cy="-37.95150832653985" r="0.4" style="stroke-width: 0.5; stroke: rgb(0 0 0); fill: rgb(105 105 105)"/>
<circle cx="30.59914670225494" cy="-31.938913731947853" r="0.4" style="stroke-width: 0.5; stroke: rgb(0 0 0); fill: rgb(105 105 105)"/>
<circle cx="6.8537877055292995" cy="-14.45771745772947" r="0.4" style="stroke-width: 0.5; stroke: rgb(0 0 0); fill: rgb(105 105 105)"/>
<circle cx="40.57039547962563" cy="-26.733281565718464" r="0.4" style="stroke-width: 0.5; stroke: rgb(0 0 0); fill: rgb(105 105 105)"/>
<circle cx="34.554138299687565" cy="-20.895587368815168" r="0.4" style="stroke-width: 0.5; stroke: rgb(0 0 0); fill: rgb(105 105 105)"/>
<circle cx="26.66139031483061" cy="-26.526157397977634" r="0.4" style="stroke-width: 0.5; stroke: rgb(0 0 0); fill: rgb(105 105 105)"/>
<circle cx="16.07606243244121" cy="-1.2324269719136773" r="0.4" style="stroke-width: 0.5; stroke: rgb(0 0 0); fill: rgb(105 105 105)"/>
<circle cx="15.969975350750033" cy="-15.116160619571634" r="0.4" style="stroke-width: 0.5; stroke: rgb(0 0 0); fill: rgb(105 105 105)"/>
<circle cx="27.634491856587598" cy="-19.543036796249144" r="0.4" style="stroke-width: 0.5; stroke: rgb(0 0 0); fill: rgb(105 105 105)"/>
<circle cx="23.82649127418012" cy="-11.995817940753525" r="0.4" style="stroke-width: 0.5; stroke: rgb(0 0 0); fill: rgb(105 105 105)"/>
</g>
</svg>