<svg viewBox="-5.477960964140946 -55.178403760945045 60.93553156969135 115.1764404664855" width="200" xmlns="http://www.w3.org/2000/svg" xmlns:xlink="http://www.w3.org/1999/xlink">
<defs>
<pattern height="1" id="angle_limit_20_pattern0001" patternTransform="rotate(63.512 0 0) scale(2)" patternUnits="userSpaceOnUse" width="1">
<line stroke="rgb(255 255 255)" stroke-width="1.01" x1="0" x2="0" y1="-0.1" y2="1.1"/>
<line stroke="rgb(211 211 211)" stroke-width="1.01" x1="1" x2="1" y1="-0.1" y2="1.1"/>
</pattern>
</defs>
<rect height="100%" style="fill: url(#angle_limit_20_pattern0001)" width="100%" x="-5.477960964140946" y="-55.178403760945045"/>
<g>
<path d="M6.4083095,49.587635 L0,50 L0,34 z" style="fill: rgb(211 211 211)"/>
<path d="M24.586647,43.537304 L18.803862,46.329414 L14.88579,30.830177 z" style="fill: rgb(211 211 211)"/>
<path d="M42.81745,25.819874 L39.15509,31.094679 L27.152424,18.852264 z" style="fill: rgb(211 211 211)"/>
<path d="M45.77356,20.119179 L42.81745,25.819874 L36.87337,13.453947 z" style="fill: rgb(211 211 211)"/>
<path d="M14.88579,30.830177 L0,25 L27.152424,18.852264 z" style="fill: rgb(211 211 211)"/>
<path d="M47.974648,14.086628 L45.77356,20.119179 L36.87337,13.453947 z" style="fill: rgb(211 211 211)"/>
<path d="M14.88579,30.830177 L27.152424,18.852264 L39.15509,31.094679 z" style="fill: rgb(211 211 211)"/>
<path d="M49.75041,-4.9896693 L49.97961,1.4278026 L35.437473,-1.2656525 z" style="fill: rgb(211 211 211)"/>
<path d="M48.700596,-11.324839 L49.75041,-4.9896693 L35.437473,-1.2656525 z" style="fill: rgb(211 211 211)"/>
<path d="M0,0 L35.437473,-1.2656525 L27.152424,18.852264 z" style="fill: rgb(211 211 211)"/>
<path d="M36.87337,13.453947 L27.152424,18.852264 L35.437473,-1.2656525 z" style="fill: rgb(211 211 211)"/>
<path d="M32.20011,-38.25118 L26.359167,-27.51329 L27.032042,-42.062675 z" style="fill: rgb(211 211 211)"/>
<path d="M36.837055,-33.808746 L26.359167,-27.51329 L32.20011,-38.25118 z" style="fill: rgb(211 211 211)"/>
<path d="M14.564299,-30.72265 L27.032042,-42.062675 L26.359167,-27.51329 z" style="fill: rgb(211 211 211)"/>
<path d="M0,0 L10.7090435,-22.590183 L35.437473,-1.2656525 z" style="fill: rgb(211 211 211)"/>
<path d="M18.803862,46.329414 L6.4083095,49.587635 L14.88579,30.830177 z" style="fill: rgb(211 211 211)"/>
<path d="M14.88579,30.830177 L39.15509,31.094679 L24.586647,43.537304 z" style="fill: rgb(211 211 211)"/>
<path d="M0,25 L14.88579,30.830177 L0,34 z" style="fill: rgb(211 211 211)"/>
<path d="M0,0 L27.152424,18.852264 L0,25 z" style="fill: rgb(211 211 211)"/>
<path d="M49.38442,7.8217235 L47.974648,14.086628 L36.87337,13.453947 z" style="fill: rgb(211 211 211)"/>
<path d="M49.97961,1.4278026 L49.38442,7.8217235 L35.437473,-1.2656525 z" style="fill: rgb(211 211 211)"/>
<path d="M27.152424,18.852264 L36.87337,13.453947 L42.81745,25.819874 z" style="fill: rgb(211 211 211)"/>
<path d="M36.837055,-33.808746 L48.700596,-11.324839 L26.359167,-27.51329 z" style="fill: rgb(211 211 211)"/>
<path d="M36.87337,13.453947 L35.437473,-1.2656525 L49.38442,7.8217235 z" style="fill: rgb(211 211 211)"/>
<path d="M10.7090435,-22.590183 L14.564299,-30.72265 L26.359167,-27.51329 z" style="fill: rgb(211 211 211)"/>
<path d="M27.032042,-42.062675 L14.564299,-30.72265 L21.418087,-45.180367 z" style="fill: rgb(211 211 211)"/>
<path d="M6.4083095,49.587635 L0,34 L14.88579,30.830177 z" style="fill: rgb(211 211 211)"/>
<path d="M35.437473,-1.2656525 L26.359167,-27.51329 L48.700596,-11.324839 z" style="fill: rgb(211 211 211)"/>
<path d="M26.359167,-27.51329 L35.437473,-1.2656525 L10.7090435,-22.590183 z" style="fill: rgb(211 211 211)"/>
<line style="stroke-width: 1; stroke: rgb(139 0 0); fill: none" x1="0" x2="0" y1="34" y2="50"/>
<line style="stroke-width: 1; stroke: rgb(169 169 169); fill: none" x1="6.408309576054638" x2="14.885789468704441" y1="49.58763523679514" y2="30.830177078859514"/>
<line style="stroke-width: 1; stroke: rgb(139 0 0); fill: none" x1="6.408309576054638" x2="0" y1="49.58763523679514" y2="50"/>
<line style="stroke-width: 1; stroke: rgb(169 169 169); fill: none" x1="18.80386247692999" x2="14.885789468704441" y1="46.32941566595357" y2="30.830177078859514"/>
<line style="stroke-width: 1; stroke: rgb(139 0 0); fill: none" x1="18.80386247692999" x2="6.408309576054638" y1="46.32941566595357" y2="49.58763523679514"/>
<line style="stroke-width: 1; stroke: rgb(169 169 169); fill: none" x1="39.15508854902776" x2="27.15242293580942" y1="31.094678655966117" y2="18.852264170762773"/>
<line style="stroke-width: 1; stroke: rgb(139 0 0); fill: none" x1="24.586646232280188" x2="18.80386247692999" y1="43.53730385598886" y2="46.32941566595357"/>
<line style="stroke-width: 1; stroke: rgb(169 169 169); fill: none" x1="27.15242293580942" x2="0" y1="18.852264170762773" y2="25"/>
<line style="stroke-width: 1; stroke: rgb(139 0 0); fill: none" x1="39.15508854902776" x2="24.586646232280188" y1="31.094678655966117" y2="43.53730385598886"/>
<line style="stroke-width: 1; stroke: rgb(169 169 169); fill: none" x1="42.817451512579446" x2="27.15242293580942" y1="25.819873081948096" y2="18.852264170762773"/>
<line style="stroke-width: 1; stroke: rgb(139 0 0); fill: none" x1="42.817451512579446" x2="39.15508854902776" y1="25.819873081948096" y2="31.094678655966117"/>
<line style="stroke-width: 1; stroke: rgb(169 169 169); fill: none" x1="36.87337080825756" x2="42.817451512579446" y1="13.453947038331671" y2="25.819873081948096"/>
<line style="stroke-width: 1; stroke: rgb(139 0 0); fill: none" x1="45.773558145970306" x2="42.817451512579446" y1="20.11917927395339" y2="25.819873081948096"/>
<line style="stroke-width: 1; stroke: rgb(169 169 169); fill: none" x1="47.97464868072487" x2="36.87337080825756" y1="14.08662784207149" y2="13.453947038331671"/>
<line style="stroke-width: 1; stroke: rgb(139 0 0); fill: none" x1="47.97464868072487" x2="45.773558145970306" y1="14.08662784207149" y2="20.11917927395339"/>
<line style="stroke-width: 1; stroke: rgb(169 169 169); fill: none" x1="49.97960964140946" x2="35.43747387424263" y1="1.4278025396848126" y2="-1.265652589286677"/>
<line style="stroke-width: 1; stroke: rgb(139 0 0); fill: none" x1="49.38441702975689" x2="47.97464868072487" y1="7.821723252011546" y2="14.08662784207149"/>
<line style="stroke-width: 1; stroke: rgb(169 169 169); fill: none" x1="49.75040905726798" x2="35.43747387424263" y1="-4.9896691908891375" y2="-1.265652589286677"/>
<line style="stroke-width: 1; stroke: rgb(139 0 0); fill: none" x1="49.97960964140946" x2="49.38441702975689" y1="1.4278025396848126" y2="7.821723252011546"/>
<line style="stroke-width: 1; stroke: rgb(169 169 169); fill: none" x1="35.43747387424263" x2="27.15242293580942" y1="-1.265652589286677" y2="18.852264170762773"/>
<line style="stroke-width: 1; stroke: rgb(139 0 0); fill: none" x1="49.75040905726798" x2="49.97960964140946" y1="-4.9896691908891375" y2="1.4278025396848126"/>
<line style="stroke-width: 1; stroke: rgb(169 169 169); fill: none" x1="48.70059584711668" x2="26.359167678784978" y1="-11.324838371288202" y2="-27.51328952831945"/>
<line style="stroke-width: 1; stroke: rgb(139 0 0); fill: none" x1="48.70059584711668" x2="49.75040905726798" y1="-11.324838371288202" y2="-4.9896691908891375"/>
<line style="stroke-width: 1; stroke: rgb(169 169 169); fill: none" x1="14.564298874249761" x2="26.359167678784978" y1="-30.72264959767512" y2="-27.51328952831945"/>
<line style="stroke-width: 1; stroke: rgb(139 0 0); fill: none" x1="36.83705689382024" x2="48.70059584711668" y1="-33.80874501370098" y2="-11.324838371288202"/>
<line style="stroke-width: 1; stroke: rgb(169 169 169); fill: none" x1="35.43747387424263" x2="10.70904328988953" y1="-1.265652589286677" y2="-22.590183527702294"/>
<line style="stroke-width: 1; stroke: rgb(139 0 0); fill: none" x1="32.20011272044277" x2="36.83705689382024" y1="-38.25117959999116" y2="-33.80874501370098"/>
<line style="stroke-width: 1; stroke: rgb(169 169 169); fill: none" x1="26.359167678784978" x2="32.20011272044277" y1="-27.51328952831945" y2="-38.25117959999116"/>
<line style="stroke-width: 1; stroke: rgb(139 0 0); fill: none" x1="27.032040872779888" x2="32.20011272044277" y1="-42.06267664155906" y2="-38.25117959999116"/>
<line style="stroke-width: 1; stroke: rgb(139 0 0); fill: none" x1="0" x2="10.70904328988953" y1="0" y2="-22.590183527702294"/>
<line style="stroke-width: 1; stroke: rgb(139 0 0); fill: none" x1="21.41808657977906" x2="27.032040872779888" y1="-45.18036705540459" y2="-42.06267664155906"/>
<line style="stroke-width: 1; stroke: rgb(169 169 169); fill: none" x1="14.885789468704441" x2="0" y1="30.830177078859514" y2="34"/>
<line style="stroke-width: 1; stroke: rgb(139 0 0); fill: none" x1="0" x2="0" y1="25" y2="0"/>
<line style="stroke-width: 1; stroke: rgb(169 169 169); fill: none" x1="39.15508854902776" x2="14.885789468704441" y1="31.094678655966117" y2="30.830177078859514"/>
<line style="stroke-width: 1; stroke: rgb(169 169 169); fill: none" x1="24.586646232280188" x2="14.885789468704441" y1="43.53730385598886" y2="30.830177078859514"/>
<line style="stroke-width: 1; stroke: rgb(169 169 169); fill: none" x1="0" x2="14.885789468704441" y1="25" y2="30.830177078859514"/>
<line style="stroke-width: 1; stroke: rgb(169 169 169); fill: none" x1="14.885789468704441" x2="27.15242293580942" y1="30.830177078859514" y2="18.852264170762773"/>
<line style="stroke-width: 1; stroke: rgb(169 169 169); fill: none" x1="0" x2="27.15242293580942" y1="0" y2="18.852264170762773"/>
<line style="stroke-width: 1; stroke: rgb(169 169 169); fill: none" x1="36.87337080825756" x2="45.773558145970306" y1="13.453947038331671" y2="20.11917927395339"/>
<line style="stroke-width: 1; stroke: rgb(169 169 169); fill: none" x1="35.43747387424263" x2="49.38441702975689" y1="-1.265652589286677" y2="7.821723252011546"/>
<line style="stroke-width: 1; stroke: rgb(169 169 169); fill: none" x1="49.38441702975689" x2="36.87337080825756" y1="7.821723252011546" y2="13.453947038331671"/>
<line style="stroke-width: 1; stroke: rgb(169 169 169); fill: none" x1="27.15242293580942" x2="36.87337080825756" y1="18.852264170762773" y2="13.453947038331671"/>
<line style="stroke-width: 1; stroke: rgb(169 169 169); fill: none" x1="0" x2="35.43747387424263" y1="0" y2="-1.265652589286677"/>
<line style="stroke-width: 1; stroke: rgb(169 169 169); fill: none" x1="48.70059584711668" x2="35.43747387424263" y1="-11.324838371288202" y2="-1.265652589286677"/>
<line style="stroke-width: 1; stroke: rgb(169 169 169); fill: none" x1="36.87337080825756" x2="35.43747387424263" y1="13.453947038331671" y2="-1.265652589286677"/>
<line style="stroke-width: 1; stroke: rgb(169 169 169); fill: none" x1="26.359167678784978" x2="27.032040872779888" y1="-27.51328952831945" y2="-42.06267664155906"/>
<line style="stroke-width: 1; stroke: rgb(139 0 0); fill: none" x1="10.70904328988953" x2="14.564298874249761" y1="-22.590183527702294" y2="-30.72264959767512"/>
<line style="stroke-width: 1; stroke: rgb(169 169 169); fill: none" x1="27.032040872779888" x2="14.564298874249761" y1="-42.06267664155906" y2="-30.72264959767512"/>
<line style="stroke-width: 1; stroke: rgb(139 0 0); fill: none" x1="14.564298874249761" x2="21.41808657977906" y1="-30.72264959767512" y2="-45.18036705540459"/>
<line style="stroke-width: 1; stroke: rgb(169 169 169); fill: none" x1="6.408309576054638" x2="0" y1="49.58763523679514" y2="34"/>
<line style="stroke-width: 1; stroke: rgb(139 0 0); fill: none" x1="0" x2="0" y1="34" y2="25"/>
<line style="stroke-width: 1; stroke: rgb(169 169 169); fill: none" x1="36.83705689382024" x2="26.359167678784978" y1="-33.80874501370098" y2="-27.51328952831945"/>
<line style="stroke-width: 1; stroke: rgb(169 169 169); fill: none" x1="35.43747387424263" x2="26.359167678784978" y1="-1.265652589286677" y2="-27.51328952831945"/>
<line style="stroke-width: 1; stroke: rgb(169 169 169); fill: none" x1="10.70904328988953" x2="26.359167678784978" y1="-22.590183527702294" y2="-27.51328952831945"/>
<circle cx="0" cy="0" r="0.4" style="stroke-width: 0.5; stroke: rgb(0 0 0); fill: rgb(105 105 105)"/>
<circle cx="0" cy="50" r="0.4" style="stroke-width: 0.5; stroke: rgb(0 0 0); fill: rgb(105 105 105)"/>
<circle cx="6.408309576054638" cy="49.58763523679514" r="0.4" style="stroke-width: 0.5; stroke: rgb(0 0 0); fill: rgb(105 105 105)"/>
<circle cx="18.80386247692999" cy="46.32941566595357" r="0.4" style="stroke-width: 0.5; stroke: rgb(0 0 0); fill: rgb(105 105 105)"/>
<circle cx="24.586646232280188" cy="43.53730385598886" r="0.4" style="stroke-width: 0.5; stroke: rgb(0 0 0); fill: rgb(105 105 105)"/>
<circle cx="39.15508854902776" cy="31.094678655966117" r="0.4" style="stroke-width: 0.5; stroke: rgb(0 0 0); fill: rgb(105 105 105)"/>
<circle cx="42.817451512579446" cy="25.819873081948096" r="0.4" style="stroke-width: 0.5; stroke: rgb(0 0 0); fill: rgb(105 105 105)"/>
<circle cx="45.773558145970306" cy="20.11917927395339" r="0.4" style="stroke-width: 0.5; stroke: rgb(0 0 0); fill: rgb(105 105 105)"/>
<circle cx="47.97464868072487" cy="14.08662784207149" r="0.4" style="stroke-width: 0.5; stroke: rgb(0 0 0); fill: rgb(105 105 105)"/>
<circle cx="49.38441702975689" cy="7.821723252011546" r="0.4" style="stroke-width: 0.5; stroke: rgb(0 0 0); fill: rgb(105 105 105)"/>
<circle cx="49.97960964140946" cy="1.4278025396848126" r="0.4" style="stroke-width: 0.5; stroke: rgb(0 0 0); fill: rgb(105 105 105)"/>
<circle cx="49.75040905726798" cy="-4.9896691908891375" r="0.4" style="stroke-width: 0.5; stroke: rgb(0 0 0); fill: rgb(105 105 105)"/>
<circle cx="48.70059584711668" cy="-11.324838371288202" r="0.4" style="stroke-width: 0.5; stroke: rgb(0 0 0); fill: rgb(105 105 105)"/>
<circle cx="36.83705689382024" cy="-33.80874501370098" r="0.4" style="stroke-width: 0.5; stroke: rgb(0 0 0); fill: rgb(105 105 105)"/>
<circle cx="32.20011272044277" cy="-38.25117959999116" r="0.4" style="stroke-width: 0.5; stroke: rgb(0 0 0); fill: rgb(105 105 105)"/>
<circle cx="27.032040872779888" cy="-42.06267664155906" r="0.4" style="stroke-width: 0.5; stroke: rgb(0 0 0); fill: rgb(105 105 105)"/>
<circle cx="21.41808657977906" cy="-45.18036705540459" r="0.4" style="stroke-width: 0.5; stroke: rgb(0 0 0); fill: rgb(105 105 105)"/>
<circle cx="0" cy="25" r="0.4" style="stroke-width: 0.5; stroke: rgb(0 0 0); fill: rgb(105 105 105)"/>
<circle cx="14.885789468704441" cy="30.830177078859514" r="0.4" style="stroke-width: 0.5; stroke: rgb(0 0 0); fill: rgb(105 105 105)"/>
<circle cx="27.15242293580942" cy="18.852264170762773" r="0.4" style="stroke-width: 0.5; stroke: rgb(0 0 0); fill: rgb(105 105 105)"/>
<circle cx="36.87337080825756" cy="13.453947038331671" r="0.4" style="stroke-width: 0.5; stroke: rgb(0 0 0); fill: rgb(105 105 105)"/>
<circle cx="35.43747387424263" cy="-1.265652589286677" r="0.4" style="stroke-width: 0.5; stroke: rgb(0 0 0); fill: rgb(105 105 105)"/>
<circle cx="10.70904328988953" cy="-22.590183527702294" r="0.4" style="stroke-width: 0.5; stroke: rgb(0 0 0); fill: rgb(105 105 105)"/>
<circle cx="14.564298874249761" cy="-30.72264959767512" r="0.4" style="stroke-width: 0.5; stroke: rgb(0 0 0); fill: rgb(105 105 105)"/>
<circle cx="0" cy="34" r="0.4" style="stroke-width: 0.5; stroke: rgb(0 0 0); fill: rgb(105 105 105)"/>
<circle cx="26.359167678784978" cy="-27.51328952831945" r="0.4" style="stroke-width: 0.5; stroke: rgb(0 0 0); fill: rgb(105 105 105)"/>
</g>
</svg>