<svg viewBox="-5.477960964140946 -55.178403760945045 60.93553156969135 115.1764404664855" width="200" xmlns="http://www.w3.org/2000/svg" xmlns:xlink="http://www.w3.org/1999/xlink">
<defs>
<pattern height="1" id="angle_limit_34_pattern0001" patternTransform="rotate(63.512 0 0) scale(2)" patternUnits="userSpaceOnUse" width="1">
<line stroke="rgb(255 255 255)" stroke-width="1.01" x1="0" x2="0" y1="-0.1" y2="1.1"/>
<line stroke="rgb(211 211 211)" stroke-width="1.01" x1="1" x2="1" y1="-0.1" y2="1.1"/>
</pattern>
</defs>
<rect height="100%" style="fill: url(#angle_limit_34_pattern0001)" width="100%" x="-5.477960964140946" y="-55.178403760945045"/>
<g>
<path d="M6.4,49.6 L0,50 L0,42 z" style="fill: rgb(211 211 211)"/>
<path d="M0,42 L0,34 L8.625,38 z" style="fill: rgb(211 211 211)"/>
<path d="M36.5,18.925 L42.825,25.825 L31.775,26.325 z" style="fill: rgb(211 211 211)"/>
<path d="M45.775,20.125 L42.825,25.825 L36.5,18.925 z" style="fill: rgb(211 211 211)"/>
<path d="M12.2,15.8 L19.55,23.325 L7.075,21.7 z" style="fill: rgb(211 211 211)"/>
<path d="M27.15,18.85 L36.5,18.925 L31.775,26.325 z" style="fill: rgb(211 211 211)"/>
<path d="M39.15,31.1 L31.775,26.325 L42.825,25.825 z" style="fill: rgb(211 211 211)"/>
<path d="M47.975,14.075 L39.275,8.525 L49.375,7.825 z" style="fill: rgb(211 211 211)"/>
<path d="M31.975,1.5 L40.95,-1.475 L39.275,8.525 z" style="fill: rgb(211 211 211)"/>
<path d="M40.575,-26.725 L35.25,-27.3 L36.825,-33.8 z" style="fill: rgb(211 211 211)"/>
<path d="M18.8,4.1 L9.8,0.225 L18.3,-3.025 z" style="fill: rgb(211 211 211)"/>
<path d="M17.175,-27.275 L15.15,-23.25 L12.85,-27.1 z" style="fill: rgb(211 211 211)"/>
<path d="M44.975,-18.4 L48.7,-11.325 L41.85,-12.8 z" style="fill: rgb(211 211 211)"/>
<path d="M18,-37.95 L21.425,-45.175 L22.975,-38.95 z" style="fill: rgb(211 211 211)"/>
<path d="M3.425,-7.225 L14.125,-10.025 L9.8,0.225 z" style="fill: rgb(211 211 211)"/>
<path d="M18.425,38.175 L18.8,46.325 L14.475,42.45 z" style="fill: rgb(211 211 211)"/>
<path d="M31.775,26.325 L39.15,31.1 L31.875,37.325 z" style="fill: rgb(211 211 211)"/>
<path d="M0,34 L6.825,29.5 L8.625,38 z" style="fill: rgb(211 211 211)"/>
<path d="M6.825,29.5 L7.075,21.7 L14.875,30.825 z" style="fill: rgb(211 211 211)"/>
<path d="M40.95,-1.475 L49.975,1.425 L44.15,4.1 z" style="fill: rgb(211 211 211)"/>
<path d="M44.15,4.1 L39.275,8.525 L40.95,-1.475 z" style="fill: rgb(211 211 211)"/>
<path d="M47.975,14.075 L45.775,20.125 L41.7,15.2 z" style="fill: rgb(211 211 211)"/>
<path d="M0,25 L0,16 L7.075,21.7 z" style="fill: rgb(211 211 211)"/>
<path d="M35.975,-12.525 L41.85,-12.8 L37.65,-6.625 z" style="fill: rgb(211 211 211)"/>
<path d="M18.425,38.175 L23.975,30.975 L24.575,43.525 z" style="fill: rgb(211 211 211)"/>
<path d="M27.15,18.85 L23.975,30.975 L19.55,23.325 z" style="fill: rgb(211 211 211)"/>
<path d="M39.275,8.525 L36.5,18.925 L32.125,8.625 z" style="fill: rgb(211 211 211)"/>
<path d="M18.8,4.1 L25.85,5.2 L21.1,12.55 z" style="fill: rgb(211 211 211)"/>
<path d="M48.7,-11.325 L49.75,-5 L43.75,-7.25 z" style="fill: rgb(211 211 211)"/>
<path d="M40.95,-1.475 L49.75,-5 L49.975,1.425 z" style="fill: rgb(211 211 211)"/>
<path d="M21.025,-22.675 L21.4,-28.075 L26.775,-27.475 z" style="fill: rgb(211 211 211)"/>
<path d="M42.775,-22.575 L44.975,-18.4 L38.9,-17.875 z" style="fill: rgb(211 211 211)"/>
<path d="M17.175,-27.275 L14.575,-30.725 L18.65,-31.05 z" style="fill: rgb(211 211 211)"/>
<path d="M22.975,-38.95 L27.025,-42.075 L27.5,-37.275 z" style="fill: rgb(211 211 211)"/>
<path d="M32.2,-38.25 L30.6,-31.95 L27.5,-37.275 z" style="fill: rgb(211 211 211)"/>
<path d="M8.625,38 L14.475,42.45 L8.95,43.65 z" style="fill: rgb(211 211 211)"/>
<path d="M31.875,37.325 L24.575,43.525 L23.975,30.975 z" style="fill: rgb(211 211 211)"/>
<path d="M18.425,38.175 L24.575,43.525 L18.8,46.325 z" style="fill: rgb(211 211 211)"/>
<path d="M14.875,30.825 L8.625,38 L6.825,29.5 z" style="fill: rgb(211 211 211)"/>
<path d="M8.625,38 L8.95,43.65 L0,42 z" style="fill: rgb(211 211 211)"/>
<path d="M31.775,26.325 L31.875,37.325 L23.975,30.975 z" style="fill: rgb(211 211 211)"/>
<path d="M8.625,38 L14.875,30.825 L18.425,38.175 z" style="fill: rgb(211 211 211)"/>
<path d="M6.4,49.6 L0,42 L8.95,43.65 z" style="fill: rgb(211 211 211)"/>
<path d="M14.475,42.45 L8.625,38 L18.425,38.175 z" style="fill: rgb(211 211 211)"/>
<path d="M12.6,47.95 L14.475,42.45 L18.8,46.325 z" style="fill: rgb(211 211 211)"/>
<path d="M6.825,29.5 L0,34 L0,25 z" style="fill: rgb(211 211 211)"/>
<path d="M14.875,30.825 L7.075,21.7 L19.55,23.325 z" style="fill: rgb(211 211 211)"/>
<path d="M12.2,15.8 L6.025,12 L12.3,8.725 z" style="fill: rgb(211 211 211)"/>
<path d="M30.6,-31.95 L36.825,-33.8 L35.25,-27.3 z" style="fill: rgb(211 211 211)"/>
<path d="M31.3,-23.7 L26.55,-19.375 L26.775,-27.475 z" style="fill: rgb(211 211 211)"/>
<path d="M36.5,18.925 L41.7,15.2 L45.775,20.125 z" style="fill: rgb(211 211 211)"/>
<path d="M25.85,5.2 L31.975,1.5 L32.125,8.625 z" style="fill: rgb(211 211 211)"/>
<path d="M49.375,7.825 L44.15,4.1 L49.975,1.425 z" style="fill: rgb(211 211 211)"/>
<path d="M44.15,4.1 L49.375,7.825 L39.275,8.525 z" style="fill: rgb(211 211 211)"/>
<path d="M41.7,15.2 L36.5,18.925 L39.275,8.525 z" style="fill: rgb(211 211 211)"/>
<path d="M41.7,15.2 L39.275,8.525 L47.975,14.075 z" style="fill: rgb(211 211 211)"/>
<path d="M37.65,-6.625 L40.95,-1.475 L31.975,1.5 z" style="fill: rgb(211 211 211)"/>
<path d="M15.15,-23.25 L20.55,-15.6 L13.85,-16.7 z" style="fill: rgb(211 211 211)"/>
<path d="M7.075,21.7 L6.825,29.5 L0,25 z" style="fill: rgb(211 211 211)"/>
<path d="M12.2,15.8 L7.075,21.7 L6.025,12 z" style="fill: rgb(211 211 211)"/>
<path d="M23.975,30.975 L18.425,38.175 L14.875,30.825 z" style="fill: rgb(211 211 211)"/>
<path d="M31.775,26.325 L23.975,30.975 L27.15,18.85 z" style="fill: rgb(211 211 211)"/>
<path d="M27.15,18.85 L19.55,23.325 L21.1,12.55 z" style="fill: rgb(211 211 211)"/>
<path d="M14.875,30.825 L19.55,23.325 L23.975,30.975 z" style="fill: rgb(211 211 211)"/>
<path d="M24.125,-32.725 L26.775,-27.475 L21.4,-28.075 z" style="fill: rgb(211 211 211)"/>
<path d="M32.775,-17.75 L26.55,-19.375 L31.3,-23.7 z" style="fill: rgb(211 211 211)"/>
<path d="M40.95,-1.475 L43.75,-7.25 L49.75,-5 z" style="fill: rgb(211 211 211)"/>
<path d="M43.75,-7.25 L37.65,-6.625 L41.85,-12.8 z" style="fill: rgb(211 211 211)"/>
<path d="M20.225,-34.675 L22.975,-38.95 L24.125,-32.725 z" style="fill: rgb(211 211 211)"/>
<path d="M38.9,-17.875 L41.85,-12.8 L35.975,-12.525 z" style="fill: rgb(211 211 211)"/>
<path d="M38.9,-17.875 L32.775,-17.75 L37.875,-22.65 z" style="fill: rgb(211 211 211)"/>
<path d="M40.575,-26.725 L42.775,-22.575 L37.875,-22.65 z" style="fill: rgb(211 211 211)"/>
<path d="M41.85,-12.8 L38.9,-17.875 L44.975,-18.4 z" style="fill: rgb(211 211 211)"/>
<path d="M43.75,-7.25 L41.85,-12.8 L48.7,-11.325 z" style="fill: rgb(211 211 211)"/>
<path d="M24.125,-32.725 L30.6,-31.95 L26.775,-27.475 z" style="fill: rgb(211 211 211)"/>
<path d="M36.825,-33.8 L30.6,-31.95 L32.2,-38.25 z" style="fill: rgb(211 211 211)"/>
<path d="M38.9,-17.875 L37.875,-22.65 L42.775,-22.575 z" style="fill: rgb(211 211 211)"/>
<path d="M12.6,47.95 L8.95,43.65 L14.475,42.45 z" style="fill: rgb(211 211 211)"/>
<path d="M8.95,43.65 L12.6,47.95 L6.4,49.6 z" style="fill: rgb(211 211 211)"/>
<path d="M37.65,-6.625 L30.075,-7.675 L35.975,-12.525 z" style="fill: rgb(211 211 211)"/>
<path d="M6,5.5 L9.8,0.225 L12.3,8.725 z" style="fill: rgb(211 211 211)"/>
<path d="M32.775,-17.75 L35.975,-12.525 L28.35,-13.525 z" style="fill: rgb(211 211 211)"/>
<path d="M40.95,-1.475 L37.65,-6.625 L43.75,-7.25 z" style="fill: rgb(211 211 211)"/>
<path d="M35.975,-12.525 L32.775,-17.75 L38.9,-17.875 z" style="fill: rgb(211 211 211)"/>
<path d="M26.55,-19.375 L28.35,-13.525 L20.55,-15.6 z" style="fill: rgb(211 211 211)"/>
<path d="M31.3,-23.7 L37.875,-22.65 L32.775,-17.75 z" style="fill: rgb(211 211 211)"/>
<path d="M40.575,-26.725 L37.875,-22.65 L35.25,-27.3 z" style="fill: rgb(211 211 211)"/>
<path d="M31.3,-23.7 L26.775,-27.475 L30.6,-31.95 z" style="fill: rgb(211 211 211)"/>
<path d="M21.025,-22.675 L26.775,-27.475 L26.55,-19.375 z" style="fill: rgb(211 211 211)"/>
<path d="M30.075,-7.675 L22.525,-8.8 L28.35,-13.525 z" style="fill: rgb(211 211 211)"/>
<path d="M21.025,-22.675 L26.55,-19.375 L20.55,-15.6 z" style="fill: rgb(211 211 211)"/>
<path d="M31.975,1.5 L25.375,-1.925 L30.075,-7.675 z" style="fill: rgb(211 211 211)"/>
<path d="M27.15,18.85 L21.1,12.55 L32.125,8.625 z" style="fill: rgb(211 211 211)"/>
<path d="M30.075,-7.675 L37.65,-6.625 L31.975,1.5 z" style="fill: rgb(211 211 211)"/>
<path d="M22.525,-8.8 L30.075,-7.675 L25.375,-1.925 z" style="fill: rgb(211 211 211)"/>
<path d="M28.35,-13.525 L26.55,-19.375 L32.775,-17.75 z" style="fill: rgb(211 211 211)"/>
<path d="M30.075,-7.675 L28.35,-13.525 L35.975,-12.525 z" style="fill: rgb(211 211 211)"/>
<path d="M31.3,-23.7 L35.25,-27.3 L37.875,-22.65 z" style="fill: rgb(211 211 211)"/>
<path d="M35.25,-27.3 L31.3,-23.7 L30.6,-31.95 z" style="fill: rgb(211 211 211)"/>
<path d="M12.85,-27.1 L14.575,-30.725 L17.175,-27.275 z" style="fill: rgb(211 211 211)"/>
<path d="M18,-37.95 L20.225,-34.675 L16.275,-34.325 z" style="fill: rgb(211 211 211)"/>
<path d="M21.025,-22.675 L20.55,-15.6 L15.15,-23.25 z" style="fill: rgb(211 211 211)"/>
<path d="M22.525,-8.8 L20.55,-15.6 L28.35,-13.525 z" style="fill: rgb(211 211 211)"/>
<path d="M14.125,-10.025 L6.85,-14.45 L13.85,-16.7 z" style="fill: rgb(211 211 211)"/>
<path d="M18.8,4.1 L25.375,-1.925 L25.85,5.2 z" style="fill: rgb(211 211 211)"/>
<path d="M22.525,-8.8 L25.375,-1.925 L18.3,-3.025 z" style="fill: rgb(211 211 211)"/>
<path d="M16.275,-34.325 L18.65,-31.05 L14.575,-30.725 z" style="fill: rgb(211 211 211)"/>
<path d="M18.65,-31.05 L16.275,-34.325 L20.225,-34.675 z" style="fill: rgb(211 211 211)"/>
<path d="M22.525,-8.8 L14.125,-10.025 L20.55,-15.6 z" style="fill: rgb(211 211 211)"/>
<path d="M18.8,4.1 L18.3,-3.025 L25.375,-1.925 z" style="fill: rgb(211 211 211)"/>
<path d="M14.125,-10.025 L3.425,-7.225 L6.85,-14.45 z" style="fill: rgb(211 211 211)"/>
<path d="M6,5.5 L12.3,8.725 L6.025,12 z" style="fill: rgb(211 211 211)"/>
<path d="M9.8,0.225 L0,0 L3.425,-7.225 z" style="fill: rgb(211 211 211)"/>
<path d="M31.975,1.5 L25.85,5.2 L25.375,-1.925 z" style="fill: rgb(211 211 211)"/>
<path d="M39.275,8.525 L32.125,8.625 L31.975,1.5 z" style="fill: rgb(211 211 211)"/>
<path d="M14.125,-10.025 L18.3,-3.025 L9.8,0.225 z" style="fill: rgb(211 211 211)"/>
<path d="M18.3,-3.025 L14.125,-10.025 L22.525,-8.8 z" style="fill: rgb(211 211 211)"/>
<path d="M17.175,-27.275 L21.4,-28.075 L21.025,-22.675 z" style="fill: rgb(211 211 211)"/>
<path d="M10.7,-22.6 L12.85,-27.1 L15.15,-23.25 z" style="fill: rgb(211 211 211)"/>
<path d="M21.4,-28.075 L18.65,-31.05 L24.125,-32.725 z" style="fill: rgb(211 211 211)"/>
<path d="M18.65,-31.05 L21.4,-28.075 L17.175,-27.275 z" style="fill: rgb(211 211 211)"/>
<path d="M32.2,-38.25 L27.5,-37.275 L27.025,-42.075 z" style="fill: rgb(211 211 211)"/>
<path d="M20.225,-34.675 L24.125,-32.725 L18.65,-31.05 z" style="fill: rgb(211 211 211)"/>
<path d="M0,8 L0,0 L6,5.5 z" style="fill: rgb(211 211 211)"/>
<path d="M27.15,18.85 L32.125,8.625 L36.5,18.925 z" style="fill: rgb(211 211 211)"/>
<path d="M25.85,5.2 L32.125,8.625 L21.1,12.55 z" style="fill: rgb(211 211 211)"/>
<path d="M12.2,15.8 L21.1,12.55 L19.55,23.325 z" style="fill: rgb(211 211 211)"/>
<path d="M18.8,4.1 L21.1,12.55 L12.3,8.725 z" style="fill: rgb(211 211 211)"/>
<path d="M15.15,-23.25 L17.175,-27.275 L21.025,-22.675 z" style="fill: rgb(211 211 211)"/>
<path d="M14.125,-10.025 L13.85,-16.7 L20.55,-15.6 z" style="fill: rgb(211 211 211)"/>
<path d="M22.975,-38.95 L20.225,-34.675 L18,-37.95 z" style="fill: rgb(211 211 211)"/>
<path d="M27.025,-42.075 L22.975,-38.95 L21.425,-45.175 z" style="fill: rgb(211 211 211)"/>
<path d="M0,16 L6.025,12 L7.075,21.7 z" style="fill: rgb(211 211 211)"/>
<path d="M6.025,12 L0,16 L0,8 z" style="fill: rgb(211 211 211)"/>
<path d="M6,5.5 L6.025,12 L0,8 z" style="fill: rgb(211 211 211)"/>
<path d="M9.8,0.225 L6,5.5 L0,0 z" style="fill: rgb(211 211 211)"/>
<path d="M10.7,-22.6 L13.85,-16.7 L6.85,-14.45 z" style="fill: rgb(211 211 211)"/>
<path d="M13.85,-16.7 L10.7,-22.6 L15.15,-23.25 z" style="fill: rgb(211 211 211)"/>
<path d="M24.125,-32.725 L27.5,-37.275 L30.6,-31.95 z" style="fill: rgb(211 211 211)"/>
<path d="M27.5,-37.275 L24.125,-32.725 L22.975,-38.95 z" style="fill: rgb(211 211 211)"/>
<path d="M18.8,4.1 L12.3,8.725 L9.8,0.225 z" style="fill: rgb(211 211 211)"/>
<path d="M12.2,15.8 L12.3,8.725 L21.1,12.55 z" style="fill: rgb(211 211 211)"/>
<line style="stroke-width: 1; stroke: rgb(139 0 0); fill: none" x1="0" x2="0" y1="42" y2="50"/>
<line style="stroke-width: 1; stroke: rgb(169 169 169); fill: none" x1="0" x2="8.625" y1="34" y2="38"/>
<line style="stroke-width: 1; stroke: rgb(139 0 0); fill: none" x1="6.4" x2="0" y1="49.6" y2="50"/>
<line style="stroke-width: 1; stroke: rgb(169 169 169); fill: none" x1="14.475" x2="8.95" y1="42.45" y2="43.65"/>
<line style="stroke-width: 1; stroke: rgb(139 0 0); fill: none" x1="18.8" x2="12.6" y1="46.325" y2="47.95"/>
<line style="stroke-width: 1; stroke: rgb(169 169 169); fill: none" x1="36.5" x2="31.775" y1="18.925" y2="26.325"/>
<line style="stroke-width: 1; stroke: rgb(139 0 0); fill: none" x1="24.575" x2="18.8" y1="43.525" y2="46.325"/>
<line style="stroke-width: 1; stroke: rgb(169 169 169); fill: none" x1="7.075" x2="19.55" y1="21.7" y2="23.325"/>
<line style="stroke-width: 1; stroke: rgb(139 0 0); fill: none" x1="39.15" x2="31.875" y1="31.1" y2="37.325"/>
<line style="stroke-width: 1; stroke: rgb(169 169 169); fill: none" x1="31.775" x2="42.825" y1="26.325" y2="25.825"/>
<line style="stroke-width: 1; stroke: rgb(139 0 0); fill: none" x1="42.825" x2="39.15" y1="25.825" y2="31.1"/>
<line style="stroke-width: 1; stroke: rgb(169 169 169); fill: none" x1="36.5" x2="42.825" y1="18.925" y2="25.825"/>
<line style="stroke-width: 1; stroke: rgb(139 0 0); fill: none" x1="45.775" x2="42.825" y1="20.125" y2="25.825"/>
<line style="stroke-width: 1; stroke: rgb(169 169 169); fill: none" x1="40.95" x2="39.275" y1="-1.475" y2="8.525"/>
<line style="stroke-width: 1; stroke: rgb(139 0 0); fill: none" x1="47.975" x2="45.775" y1="14.075" y2="20.125"/>
<line style="stroke-width: 1; stroke: rgb(169 169 169); fill: none" x1="32.125" x2="36.5" y1="8.625" y2="18.925"/>
<line style="stroke-width: 1; stroke: rgb(139 0 0); fill: none" x1="49.375" x2="47.975" y1="7.825" y2="14.075"/>
<line style="stroke-width: 1; stroke: rgb(169 169 169); fill: none" x1="44.15" x2="49.975" y1="4.1" y2="1.425"/>
<line style="stroke-width: 1; stroke: rgb(139 0 0); fill: none" x1="49.975" x2="49.375" y1="1.425" y2="7.825"/>
<line style="stroke-width: 1; stroke: rgb(169 169 169); fill: none" x1="43.75" x2="49.75" y1="-7.25" y2="-5"/>
<line style="stroke-width: 1; stroke: rgb(139 0 0); fill: none" x1="49.75" x2="49.975" y1="-5" y2="1.425"/>
<line style="stroke-width: 1; stroke: rgb(169 169 169); fill: none" x1="28.35" x2="35.975" y1="-13.525" y2="-12.525"/>
<line style="stroke-width: 1; stroke: rgb(139 0 0); fill: none" x1="48.7" x2="49.75" y1="-11.325" y2="-5"/>
<line style="stroke-width: 1; stroke: rgb(169 169 169); fill: none" x1="21.4" x2="26.775" y1="-28.075" y2="-27.475"/>
<line style="stroke-width: 1; stroke: rgb(139 0 0); fill: none" x1="36.825" x2="40.575" y1="-33.8" y2="-26.725"/>
<line style="stroke-width: 1; stroke: rgb(169 169 169); fill: none" x1="20.55" x2="14.125" y1="-15.6" y2="-10.025"/>
<line style="stroke-width: 1; stroke: rgb(139 0 0); fill: none" x1="32.2" x2="36.825" y1="-38.25" y2="-33.8"/>
<line style="stroke-width: 1; stroke: rgb(169 169 169); fill: none" x1="35.25" x2="36.825" y1="-27.3" y2="-33.8"/>
<line style="stroke-width: 1; stroke: rgb(139 0 0); fill: none" x1="27.025" x2="32.2" y1="-42.075" y2="-38.25"/>
<line style="stroke-width: 1; stroke: rgb(139 0 0); fill: none" x1="0" x2="3.425" y1="0" y2="-7.225"/>
<line style="stroke-width: 1; stroke: rgb(139 0 0); fill: none" x1="21.425" x2="27.025" y1="-45.175" y2="-42.075"/>
<line style="stroke-width: 1; stroke: rgb(169 169 169); fill: none" x1="6.825" x2="8.625" y1="29.5" y2="38"/>
<line style="stroke-width: 1; stroke: rgb(139 0 0); fill: none" x1="0" x2="0" y1="25" y2="16"/>
<line style="stroke-width: 1; stroke: rgb(169 169 169); fill: none" x1="24.575" x2="23.975" y1="43.525" y2="30.975"/>
<line style="stroke-width: 1; stroke: rgb(169 169 169); fill: none" x1="23.975" x2="31.875" y1="30.975" y2="37.325"/>
<line style="stroke-width: 1; stroke: rgb(169 169 169); fill: none" x1="14.875" x2="7.075" y1="30.825" y2="21.7"/>
<line style="stroke-width: 1; stroke: rgb(169 169 169); fill: none" x1="23.975" x2="19.55" y1="30.975" y2="23.325"/>
<line style="stroke-width: 1; stroke: rgb(169 169 169); fill: none" x1="6.025" x2="12.3" y1="12" y2="8.725"/>
<line style="stroke-width: 1; stroke: rgb(169 169 169); fill: none" x1="39.275" x2="49.375" y1="8.525" y2="7.825"/>
<line style="stroke-width: 1; stroke: rgb(169 169 169); fill: none" x1="27.15" x2="36.5" y1="18.85" y2="18.925"/>
<line style="stroke-width: 1; stroke: rgb(169 169 169); fill: none" x1="41.7" x2="45.775" y1="15.2" y2="20.125"/>
<line style="stroke-width: 1; stroke: rgb(169 169 169); fill: none" x1="45.775" x2="36.5" y1="20.125" y2="18.925"/>
<line style="stroke-width: 1; stroke: rgb(169 169 169); fill: none" x1="7.075" x2="0" y1="21.7" y2="16"/>
<line style="stroke-width: 1; stroke: rgb(169 169 169); fill: none" x1="12.3" x2="9.8" y1="8.725" y2="0.225"/>
<line style="stroke-width: 1; stroke: rgb(169 169 169); fill: none" x1="21.1" x2="19.55" y1="12.55" y2="23.325"/>
<line style="stroke-width: 1; stroke: rgb(169 169 169); fill: none" x1="39.15" x2="31.775" y1="31.1" y2="26.325"/>
<line style="stroke-width: 1; stroke: rgb(169 169 169); fill: none" x1="23.975" x2="27.15" y1="30.975" y2="18.85"/>
<line style="stroke-width: 1; stroke: rgb(169 169 169); fill: none" x1="27.15" x2="31.775" y1="18.85" y2="26.325"/>
<line style="stroke-width: 1; stroke: rgb(169 169 169); fill: none" x1="38.9" x2="44.975" y1="-17.875" y2="-18.4"/>
<line style="stroke-width: 1; stroke: rgb(169 169 169); fill: none" x1="31.975" x2="32.125" y1="1.5" y2="8.625"/>
<line style="stroke-width: 1; stroke: rgb(169 169 169); fill: none" x1="25.85" x2="21.1" y1="5.2" y2="12.55"/>
<line style="stroke-width: 1; stroke: rgb(169 169 169); fill: none" x1="31.975" x2="40.95" y1="1.5" y2="-1.475"/>
<line style="stroke-width: 1; stroke: rgb(169 169 169); fill: none" x1="49.75" x2="40.95" y1="-5" y2="-1.475"/>
<line style="stroke-width: 1; stroke: rgb(169 169 169); fill: none" x1="49.975" x2="40.95" y1="1.425" y2="-1.475"/>
<line style="stroke-width: 1; stroke: rgb(169 169 169); fill: none" x1="27.025" x2="27.5" y1="-42.075" y2="-37.275"/>
<line style="stroke-width: 1; stroke: rgb(139 0 0); fill: none" x1="10.7" x2="12.85" y1="-22.6" y2="-27.1"/>
<line style="stroke-width: 1; stroke: rgb(169 169 169); fill: none" x1="41.85" x2="48.7" y1="-12.8" y2="-11.325"/>
<line style="stroke-width: 1; stroke: rgb(139 0 0); fill: none" x1="42.775" x2="44.975" y1="-22.575" y2="-18.4"/>
<line style="stroke-width: 1; stroke: rgb(169 169 169); fill: none" x1="22.975" x2="21.425" y1="-38.95" y2="-45.175"/>
<line style="stroke-width: 1; stroke: rgb(139 0 0); fill: none" x1="14.575" x2="16.275" y1="-30.725" y2="-34.325"/>
<line style="stroke-width: 1; stroke: rgb(169 169 169); fill: none" x1="24.125" x2="18.65" y1="-32.725" y2="-31.05"/>
<line style="stroke-width: 1; stroke: rgb(169 169 169); fill: none" x1="27.5" x2="30.6" y1="-37.275" y2="-31.95"/>
<line style="stroke-width: 1; stroke: rgb(169 169 169); fill: none" x1="32.2" x2="30.6" y1="-38.25" y2="-31.95"/>
<line style="stroke-width: 1; stroke: rgb(169 169 169); fill: none" x1="0" x2="8.95" y1="42" y2="43.65"/>
<line style="stroke-width: 1; stroke: rgb(139 0 0); fill: none" x1="0" x2="0" y1="34" y2="25"/>
<line style="stroke-width: 1; stroke: rgb(169 169 169); fill: none" x1="14.875" x2="18.425" y1="30.825" y2="38.175"/>
<line style="stroke-width: 1; stroke: rgb(169 169 169); fill: none" x1="24.575" x2="18.425" y1="43.525" y2="38.175"/>
<line style="stroke-width: 1; stroke: rgb(169 169 169); fill: none" x1="18.8" x2="18.425" y1="46.325" y2="38.175"/>
<line style="stroke-width: 1; stroke: rgb(169 169 169); fill: none" x1="14.475" x2="18.8" y1="42.45" y2="46.325"/>
<line style="stroke-width: 1; stroke: rgb(139 0 0); fill: none" x1="12.6" x2="6.4" y1="47.95" y2="49.6"/>
<line style="stroke-width: 1; stroke: rgb(169 169 169); fill: none" x1="6.4" x2="0" y1="49.6" y2="42"/>
<line style="stroke-width: 1; stroke: rgb(139 0 0); fill: none" x1="0" x2="0" y1="42" y2="34"/>
<line style="stroke-width: 1; stroke: rgb(169 169 169); fill: none" x1="31.775" x2="31.875" y1="26.325" y2="37.325"/>
<line style="stroke-width: 1; stroke: rgb(139 0 0); fill: none" x1="31.875" x2="24.575" y1="37.325" y2="43.525"/>
<line style="stroke-width: 1; stroke: rgb(169 169 169); fill: none" x1="14.875" x2="8.625" y1="30.825" y2="38"/>
<line style="stroke-width: 1; stroke: rgb(169 169 169); fill: none" x1="18.425" x2="8.625" y1="38.175" y2="38"/>
<line style="stroke-width: 1; stroke: rgb(169 169 169); fill: none" x1="0" x2="8.625" y1="42" y2="38"/>
<line style="stroke-width: 1; stroke: rgb(169 169 169); fill: none" x1="8.625" x2="14.475" y1="38" y2="42.45"/>
<line style="stroke-width: 1; stroke: rgb(169 169 169); fill: none" x1="18.425" x2="14.475" y1="38.175" y2="42.45"/>
<line style="stroke-width: 1; stroke: rgb(169 169 169); fill: none" x1="12.6" x2="14.475" y1="47.95" y2="42.45"/>
<line style="stroke-width: 1; stroke: rgb(169 169 169); fill: none" x1="0" x2="6.825" y1="34" y2="29.5"/>
<line style="stroke-width: 1; stroke: rgb(169 169 169); fill: none" x1="0" x2="6.825" y1="25" y2="29.5"/>
<line style="stroke-width: 1; stroke: rgb(169 169 169); fill: none" x1="14.875" x2="6.825" y1="30.825" y2="29.5"/>
<line style="stroke-width: 1; stroke: rgb(169 169 169); fill: none" x1="6.025" x2="7.075" y1="12" y2="21.7"/>
<line style="stroke-width: 1; stroke: rgb(139 0 0); fill: none" x1="0" x2="0" y1="16" y2="8"/>
<line style="stroke-width: 1; stroke: rgb(169 169 169); fill: none" x1="26.775" x2="30.6" y1="-27.475" y2="-31.95"/>
<line style="stroke-width: 1; stroke: rgb(169 169 169); fill: none" x1="37.875" x2="42.775" y1="-22.65" y2="-22.575"/>
<line style="stroke-width: 1; stroke: rgb(169 169 169); fill: none" x1="14.575" x2="17.175" y1="-30.725" y2="-27.275"/>
<line style="stroke-width: 1; stroke: rgb(169 169 169); fill: none" x1="47.975" x2="39.275" y1="14.075" y2="8.525"/>
<line style="stroke-width: 1; stroke: rgb(169 169 169); fill: none" x1="36.5" x2="39.275" y1="18.925" y2="8.525"/>
<line style="stroke-width: 1; stroke: rgb(169 169 169); fill: none" x1="31.975" x2="39.275" y1="1.5" y2="8.525"/>
<line style="stroke-width: 1; stroke: rgb(169 169 169); fill: none" x1="40.95" x2="44.15" y1="-1.475" y2="4.1"/>
<line style="stroke-width: 1; stroke: rgb(169 169 169); fill: none" x1="49.375" x2="44.15" y1="7.825" y2="4.1"/>
<line style="stroke-width: 1; stroke: rgb(169 169 169); fill: none" x1="39.275" x2="44.15" y1="8.525" y2="4.1"/>
<line style="stroke-width: 1; stroke: rgb(169 169 169); fill: none" x1="36.5" x2="41.7" y1="18.925" y2="15.2"/>
<line style="stroke-width: 1; stroke: rgb(169 169 169); fill: none" x1="39.275" x2="41.7" y1="8.525" y2="15.2"/>
<line style="stroke-width: 1; stroke: rgb(169 169 169); fill: none" x1="47.975" x2="41.7" y1="14.075" y2="15.2"/>
<line style="stroke-width: 1; stroke: rgb(169 169 169); fill: none" x1="43.75" x2="37.65" y1="-7.25" y2="-6.625"/>
<line style="stroke-width: 1; stroke: rgb(169 169 169); fill: none" x1="35.975" x2="30.075" y1="-12.525" y2="-7.675"/>
<line style="stroke-width: 1; stroke: rgb(169 169 169); fill: none" x1="32.775" x2="38.9" y1="-17.75" y2="-17.875"/>
<line style="stroke-width: 1; stroke: rgb(169 169 169); fill: none" x1="6.825" x2="7.075" y1="29.5" y2="21.7"/>
<line style="stroke-width: 1; stroke: rgb(169 169 169); fill: none" x1="0" x2="7.075" y1="25" y2="21.7"/>
<line style="stroke-width: 1; stroke: rgb(169 169 169); fill: none" x1="12.2" x2="7.075" y1="15.8" y2="21.7"/>
<line style="stroke-width: 1; stroke: rgb(169 169 169); fill: none" x1="18.425" x2="23.975" y1="38.175" y2="30.975"/>
<line style="stroke-width: 1; stroke: rgb(169 169 169); fill: none" x1="14.875" x2="23.975" y1="30.825" y2="30.975"/>
<line style="stroke-width: 1; stroke: rgb(169 169 169); fill: none" x1="31.775" x2="23.975" y1="26.325" y2="30.975"/>
<line style="stroke-width: 1; stroke: rgb(169 169 169); fill: none" x1="12.2" x2="19.55" y1="15.8" y2="23.325"/>
<line style="stroke-width: 1; stroke: rgb(169 169 169); fill: none" x1="27.15" x2="19.55" y1="18.85" y2="23.325"/>
<line style="stroke-width: 1; stroke: rgb(169 169 169); fill: none" x1="14.875" x2="19.55" y1="30.825" y2="23.325"/>
<line style="stroke-width: 1; stroke: rgb(169 169 169); fill: none" x1="20.55" x2="15.15" y1="-15.6" y2="-23.25"/>
<line style="stroke-width: 1; stroke: rgb(169 169 169); fill: none" x1="26.775" x2="26.55" y1="-27.475" y2="-19.375"/>
<line style="stroke-width: 1; stroke: rgb(169 169 169); fill: none" x1="26.55" x2="31.3" y1="-19.375" y2="-23.7"/>
<line style="stroke-width: 1; stroke: rgb(169 169 169); fill: none" x1="48.7" x2="43.75" y1="-11.325" y2="-7.25"/>
<line style="stroke-width: 1; stroke: rgb(169 169 169); fill: none" x1="40.95" x2="43.75" y1="-1.475" y2="-7.25"/>
<line style="stroke-width: 1; stroke: rgb(169 169 169); fill: none" x1="37.65" x2="41.85" y1="-6.625" y2="-12.8"/>
<line style="stroke-width: 1; stroke: rgb(169 169 169); fill: none" x1="22.975" x2="24.125" y1="-38.95" y2="-32.725"/>
<line style="stroke-width: 1; stroke: rgb(139 0 0); fill: none" x1="18" x2="21.425" y1="-37.95" y2="-45.175"/>
<line style="stroke-width: 1; stroke: rgb(169 169 169); fill: none" x1="41.85" x2="35.975" y1="-12.8" y2="-12.525"/>
<line style="stroke-width: 1; stroke: rgb(139 0 0); fill: none" x1="44.975" x2="48.7" y1="-18.4" y2="-11.325"/>
<line style="stroke-width: 1; stroke: rgb(169 169 169); fill: none" x1="35.975" x2="38.9" y1="-12.525" y2="-17.875"/>
<line style="stroke-width: 1; stroke: rgb(169 169 169); fill: none" x1="32.775" x2="37.875" y1="-17.75" y2="-22.65"/>
<line style="stroke-width: 1; stroke: rgb(169 169 169); fill: none" x1="42.775" x2="38.9" y1="-22.575" y2="-17.875"/>
<line style="stroke-width: 1; stroke: rgb(169 169 169); fill: none" x1="38.9" x2="41.85" y1="-17.875" y2="-12.8"/>
<line style="stroke-width: 1; stroke: rgb(169 169 169); fill: none" x1="44.975" x2="41.85" y1="-18.4" y2="-12.8"/>
<line style="stroke-width: 1; stroke: rgb(169 169 169); fill: none" x1="43.75" x2="41.85" y1="-7.25" y2="-12.8"/>
<line style="stroke-width: 1; stroke: rgb(169 169 169); fill: none" x1="31.3" x2="30.6" y1="-23.7" y2="-31.95"/>
<line style="stroke-width: 1; stroke: rgb(169 169 169); fill: none" x1="24.125" x2="30.6" y1="-32.725" y2="-31.95"/>
<line style="stroke-width: 1; stroke: rgb(169 169 169); fill: none" x1="36.825" x2="30.6" y1="-33.8" y2="-31.95"/>
<line style="stroke-width: 1; stroke: rgb(169 169 169); fill: none" x1="37.875" x2="35.25" y1="-22.65" y2="-27.3"/>
<line style="stroke-width: 1; stroke: rgb(139 0 0); fill: none" x1="40.575" x2="42.775" y1="-26.725" y2="-22.575"/>
<line style="stroke-width: 1; stroke: rgb(169 169 169); fill: none" x1="8.625" x2="8.95" y1="38" y2="43.65"/>
<line style="stroke-width: 1; stroke: rgb(169 169 169); fill: none" x1="12.6" x2="8.95" y1="47.95" y2="43.65"/>
<line style="stroke-width: 1; stroke: rgb(169 169 169); fill: none" x1="6.4" x2="8.95" y1="49.6" y2="43.65"/>
<line style="stroke-width: 1; stroke: rgb(169 169 169); fill: none" x1="20.55" x2="26.55" y1="-15.6" y2="-19.375"/>
<line style="stroke-width: 1; stroke: rgb(169 169 169); fill: none" x1="30.075" x2="25.375" y1="-7.675" y2="-1.925"/>
<line style="stroke-width: 1; stroke: rgb(169 169 169); fill: none" x1="9.8" x2="14.125" y1="0.225" y2="-10.025"/>
<line style="stroke-width: 1; stroke: rgb(169 169 169); fill: none" x1="31.975" x2="37.65" y1="1.5" y2="-6.625"/>
<line style="stroke-width: 1; stroke: rgb(169 169 169); fill: none" x1="35.975" x2="37.65" y1="-12.525" y2="-6.625"/>
<line style="stroke-width: 1; stroke: rgb(169 169 169); fill: none" x1="40.95" x2="37.65" y1="-1.475" y2="-6.625"/>
<line style="stroke-width: 1; stroke: rgb(169 169 169); fill: none" x1="31.3" x2="32.775" y1="-23.7" y2="-17.75"/>
<line style="stroke-width: 1; stroke: rgb(169 169 169); fill: none" x1="35.975" x2="32.775" y1="-12.525" y2="-17.75"/>
<line style="stroke-width: 1; stroke: rgb(169 169 169); fill: none" x1="28.35" x2="22.525" y1="-13.525" y2="-8.8"/>
<line style="stroke-width: 1; stroke: rgb(169 169 169); fill: none" x1="38.9" x2="37.875" y1="-17.875" y2="-22.65"/>
<line style="stroke-width: 1; stroke: rgb(169 169 169); fill: none" x1="31.3" x2="37.875" y1="-23.7" y2="-22.65"/>
<line style="stroke-width: 1; stroke: rgb(169 169 169); fill: none" x1="40.575" x2="37.875" y1="-26.725" y2="-22.65"/>
<line style="stroke-width: 1; stroke: rgb(169 169 169); fill: none" x1="24.125" x2="26.775" y1="-32.725" y2="-27.475"/>
<line style="stroke-width: 1; stroke: rgb(169 169 169); fill: none" x1="31.3" x2="26.775" y1="-23.7" y2="-27.475"/>
<line style="stroke-width: 1; stroke: rgb(169 169 169); fill: none" x1="21.025" x2="26.775" y1="-22.675" y2="-27.475"/>
<line style="stroke-width: 1; stroke: rgb(169 169 169); fill: none" x1="32.775" x2="26.55" y1="-17.75" y2="-19.375"/>
<line style="stroke-width: 1; stroke: rgb(169 169 169); fill: none" x1="28.35" x2="20.55" y1="-13.525" y2="-15.6"/>
<line style="stroke-width: 1; stroke: rgb(169 169 169); fill: none" x1="21.025" x2="26.55" y1="-22.675" y2="-19.375"/>
<line style="stroke-width: 1; stroke: rgb(169 169 169); fill: none" x1="18.3" x2="25.375" y1="-3.025" y2="-1.925"/>
<line style="stroke-width: 1; stroke: rgb(169 169 169); fill: none" x1="25.375" x2="25.85" y1="-1.925" y2="5.2"/>
<line style="stroke-width: 1; stroke: rgb(169 169 169); fill: none" x1="21.1" x2="12.3" y1="12.55" y2="8.725"/>
<line style="stroke-width: 1; stroke: rgb(169 169 169); fill: none" x1="37.65" x2="30.075" y1="-6.625" y2="-7.675"/>
<line style="stroke-width: 1; stroke: rgb(169 169 169); fill: none" x1="31.975" x2="30.075" y1="1.5" y2="-7.675"/>
<line style="stroke-width: 1; stroke: rgb(169 169 169); fill: none" x1="22.525" x2="30.075" y1="-8.8" y2="-7.675"/>
<line style="stroke-width: 1; stroke: rgb(169 169 169); fill: none" x1="26.55" x2="28.35" y1="-19.375" y2="-13.525"/>
<line style="stroke-width: 1; stroke: rgb(169 169 169); fill: none" x1="32.775" x2="28.35" y1="-17.75" y2="-13.525"/>
<line style="stroke-width: 1; stroke: rgb(169 169 169); fill: none" x1="30.075" x2="28.35" y1="-7.675" y2="-13.525"/>
<line style="stroke-width: 1; stroke: rgb(169 169 169); fill: none" x1="40.575" x2="35.25" y1="-26.725" y2="-27.3"/>
<line style="stroke-width: 1; stroke: rgb(169 169 169); fill: none" x1="31.3" x2="35.25" y1="-23.7" y2="-27.3"/>
<line style="stroke-width: 1; stroke: rgb(169 169 169); fill: none" x1="30.6" x2="35.25" y1="-31.95" y2="-27.3"/>
<line style="stroke-width: 1; stroke: rgb(169 169 169); fill: none" x1="21.025" x2="21.4" y1="-22.675" y2="-28.075"/>
<line style="stroke-width: 1; stroke: rgb(169 169 169); fill: none" x1="18.65" x2="14.575" y1="-31.05" y2="-30.725"/>
<line style="stroke-width: 1; stroke: rgb(169 169 169); fill: none" x1="24.125" x2="21.4" y1="-32.725" y2="-28.075"/>
<line style="stroke-width: 1; stroke: rgb(169 169 169); fill: none" x1="20.55" x2="13.85" y1="-15.6" y2="-16.7"/>
<line style="stroke-width: 1; stroke: rgb(169 169 169); fill: none" x1="21.025" x2="20.55" y1="-22.675" y2="-15.6"/>
<line style="stroke-width: 1; stroke: rgb(169 169 169); fill: none" x1="22.525" x2="20.55" y1="-8.8" y2="-15.6"/>
<line style="stroke-width: 1; stroke: rgb(169 169 169); fill: none" x1="6.85" x2="13.85" y1="-14.45" y2="-16.7"/>
<line style="stroke-width: 1; stroke: rgb(139 0 0); fill: none" x1="6.85" x2="10.7" y1="-14.45" y2="-22.6"/>
<line style="stroke-width: 1; stroke: rgb(169 169 169); fill: none" x1="31.975" x2="25.375" y1="1.5" y2="-1.925"/>
<line style="stroke-width: 1; stroke: rgb(169 169 169); fill: none" x1="18.8" x2="25.375" y1="4.1" y2="-1.925"/>
<line style="stroke-width: 1; stroke: rgb(169 169 169); fill: none" x1="22.525" x2="25.375" y1="-8.8" y2="-1.925"/>
<line style="stroke-width: 1; stroke: rgb(169 169 169); fill: none" x1="12.85" x2="15.15" y1="-27.1" y2="-23.25"/>
<line style="stroke-width: 1; stroke: rgb(139 0 0); fill: none" x1="12.85" x2="14.575" y1="-27.1" y2="-30.725"/>
<line style="stroke-width: 1; stroke: rgb(169 169 169); fill: none" x1="16.275" x2="20.225" y1="-34.325" y2="-34.675"/>
<line style="stroke-width: 1; stroke: rgb(139 0 0); fill: none" x1="16.275" x2="18" y1="-34.325" y2="-37.95"/>
<line style="stroke-width: 1; stroke: rgb(169 169 169); fill: none" x1="6.85" x2="14.125" y1="-14.45" y2="-10.025"/>
<line style="stroke-width: 1; stroke: rgb(169 169 169); fill: none" x1="22.525" x2="14.125" y1="-8.8" y2="-10.025"/>
<line style="stroke-width: 1; stroke: rgb(169 169 169); fill: none" x1="18.3" x2="9.8" y1="-3.025" y2="0.225"/>
<line style="stroke-width: 1; stroke: rgb(169 169 169); fill: none" x1="14.125" x2="3.425" y1="-10.025" y2="-7.225"/>
<line style="stroke-width: 1; stroke: rgb(139 0 0); fill: none" x1="3.425" x2="6.85" y1="-7.225" y2="-14.45"/>
<line style="stroke-width: 1; stroke: rgb(169 169 169); fill: none" x1="18.8" x2="9.8" y1="4.1" y2="0.225"/>
<line style="stroke-width: 1; stroke: rgb(169 169 169); fill: none" x1="0" x2="9.8" y1="0" y2="0.225"/>
<line style="stroke-width: 1; stroke: rgb(169 169 169); fill: none" x1="3.425" x2="9.8" y1="-7.225" y2="0.225"/>
<line style="stroke-width: 1; stroke: rgb(169 169 169); fill: none" x1="18.8" x2="25.85" y1="4.1" y2="5.2"/>
<line style="stroke-width: 1; stroke: rgb(169 169 169); fill: none" x1="31.975" x2="25.85" y1="1.5" y2="5.2"/>
<line style="stroke-width: 1; stroke: rgb(169 169 169); fill: none" x1="32.125" x2="21.1" y1="8.625" y2="12.55"/>
<line style="stroke-width: 1; stroke: rgb(169 169 169); fill: none" x1="18.8" x2="18.3" y1="4.1" y2="-3.025"/>
<line style="stroke-width: 1; stroke: rgb(169 169 169); fill: none" x1="14.125" x2="18.3" y1="-10.025" y2="-3.025"/>
<line style="stroke-width: 1; stroke: rgb(169 169 169); fill: none" x1="22.525" x2="18.3" y1="-8.8" y2="-3.025"/>
<line style="stroke-width: 1; stroke: rgb(169 169 169); fill: none" x1="21.4" x2="17.175" y1="-28.075" y2="-27.275"/>
<line style="stroke-width: 1; stroke: rgb(169 169 169); fill: none" x1="21.025" x2="17.175" y1="-22.675" y2="-27.275"/>
<line style="stroke-width: 1; stroke: rgb(169 169 169); fill: none" x1="12.85" x2="17.175" y1="-27.1" y2="-27.275"/>
<line style="stroke-width: 1; stroke: rgb(169 169 169); fill: none" x1="16.275" x2="18.65" y1="-34.325" y2="-31.05"/>
<line style="stroke-width: 1; stroke: rgb(169 169 169); fill: none" x1="21.4" x2="18.65" y1="-28.075" y2="-31.05"/>
<line style="stroke-width: 1; stroke: rgb(169 169 169); fill: none" x1="17.175" x2="18.65" y1="-27.275" y2="-31.05"/>
<line style="stroke-width: 1; stroke: rgb(169 169 169); fill: none" x1="18" x2="20.225" y1="-37.95" y2="-34.675"/>
<line style="stroke-width: 1; stroke: rgb(169 169 169); fill: none" x1="24.125" x2="20.225" y1="-32.725" y2="-34.675"/>
<line style="stroke-width: 1; stroke: rgb(169 169 169); fill: none" x1="18.65" x2="20.225" y1="-31.05" y2="-34.675"/>
<line style="stroke-width: 1; stroke: rgb(169 169 169); fill: none" x1="0" x2="6" y1="0" y2="5.5"/>
<line style="stroke-width: 1; stroke: rgb(139 0 0); fill: none" x1="0" x2="0" y1="8" y2="0"/>
<line style="stroke-width: 1; stroke: rgb(169 169 169); fill: none" x1="39.275" x2="32.125" y1="8.525" y2="8.625"/>
<line style="stroke-width: 1; stroke: rgb(169 169 169); fill: none" x1="27.15" x2="32.125" y1="18.85" y2="8.625"/>
<line style="stroke-width: 1; stroke: rgb(169 169 169); fill: none" x1="25.85" x2="32.125" y1="5.2" y2="8.625"/>
<line style="stroke-width: 1; stroke: rgb(169 169 169); fill: none" x1="27.15" x2="21.1" y1="18.85" y2="12.55"/>
<line style="stroke-width: 1; stroke: rgb(169 169 169); fill: none" x1="12.2" x2="21.1" y1="15.8" y2="12.55"/>
<line style="stroke-width: 1; stroke: rgb(169 169 169); fill: none" x1="18.8" x2="21.1" y1="4.1" y2="12.55"/>
<line style="stroke-width: 1; stroke: rgb(169 169 169); fill: none" x1="17.175" x2="15.15" y1="-27.275" y2="-23.25"/>
<line style="stroke-width: 1; stroke: rgb(169 169 169); fill: none" x1="21.025" x2="15.15" y1="-22.675" y2="-23.25"/>
<line style="stroke-width: 1; stroke: rgb(169 169 169); fill: none" x1="10.7" x2="15.15" y1="-22.6" y2="-23.25"/>
<line style="stroke-width: 1; stroke: rgb(169 169 169); fill: none" x1="20.225" x2="22.975" y1="-34.675" y2="-38.95"/>
<line style="stroke-width: 1; stroke: rgb(169 169 169); fill: none" x1="18" x2="22.975" y1="-37.95" y2="-38.95"/>
<line style="stroke-width: 1; stroke: rgb(169 169 169); fill: none" x1="27.025" x2="22.975" y1="-42.075" y2="-38.95"/>
<line style="stroke-width: 1; stroke: rgb(169 169 169); fill: none" x1="12.2" x2="6.025" y1="15.8" y2="12"/>
<line style="stroke-width: 1; stroke: rgb(169 169 169); fill: none" x1="0" x2="6.025" y1="16" y2="12"/>
<line style="stroke-width: 1; stroke: rgb(169 169 169); fill: none" x1="0" x2="6.025" y1="8" y2="12"/>
<line style="stroke-width: 1; stroke: rgb(169 169 169); fill: none" x1="6.025" x2="6" y1="12" y2="5.5"/>
<line style="stroke-width: 1; stroke: rgb(169 169 169); fill: none" x1="0" x2="6" y1="8" y2="5.5"/>
<line style="stroke-width: 1; stroke: rgb(169 169 169); fill: none" x1="9.8" x2="6" y1="0.225" y2="5.5"/>
<line style="stroke-width: 1; stroke: rgb(169 169 169); fill: none" x1="14.125" x2="13.85" y1="-10.025" y2="-16.7"/>
<line style="stroke-width: 1; stroke: rgb(169 169 169); fill: none" x1="10.7" x2="13.85" y1="-22.6" y2="-16.7"/>
<line style="stroke-width: 1; stroke: rgb(169 169 169); fill: none" x1="15.15" x2="13.85" y1="-23.25" y2="-16.7"/>
<line style="stroke-width: 1; stroke: rgb(169 169 169); fill: none" x1="32.2" x2="27.5" y1="-38.25" y2="-37.275"/>
<line style="stroke-width: 1; stroke: rgb(169 169 169); fill: none" x1="24.125" x2="27.5" y1="-32.725" y2="-37.275"/>
<line style="stroke-width: 1; stroke: rgb(169 169 169); fill: none" x1="22.975" x2="27.5" y1="-38.95" y2="-37.275"/>
<line style="stroke-width: 1; stroke: rgb(169 169 169); fill: none" x1="6" x2="12.3" y1="5.5" y2="8.725"/>
<line style="stroke-width: 1; stroke: rgb(169 169 169); fill: none" x1="18.8" x2="12.3" y1="4.1" y2="8.725"/>
<line style="stroke-width: 1; stroke: rgb(169 169 169); fill: none" x1="12.2" x2="12.3" y1="15.8" y2="8.725"/>
<circle cx="0" cy="0" r="0.4" style="stroke-width: 0.5; stroke: rgb(0 0 0); fill: rgb(105 105 105)"/>
<circle cx="0" cy="50" r="0.4" style="stroke-width: 0.5; stroke: rgb(0 0 0); fill: rgb(105 105 105)"/>
<circle cx="6.4" cy="49.6" r="0.4" style="stroke-width: 0.5; stroke: rgb(0 0 0); fill: rgb(105 105 105)"/>
<circle cx="18.8" cy="46.325" r="0.4" style="stroke-width: 0.5; stroke: rgb(0 0 0); fill: rgb(105 105 105)"/>
<circle cx="24.575" cy="43.525" r="0.4" style="stroke-width: 0.5; stroke: rgb(0 0 0); fill: rgb(105 105 105)"/>
<circle cx="39.15" cy="31.1" r="0.4" style="stroke-width: 0.5; stroke: rgb(0 0 0); fill: rgb(105 105 105)"/>
<circle cx="42.825" cy="25.825" r="0.4" style="stroke-width: 0.5; stroke: rgb(0 0 0); fill: rgb(105 105 105)"/>
<circle cx="45.775" cy="20.125" r="0.4" style="stroke-width: 0.5; stroke: rgb(0 0 0); fill: rgb(105 105 105)"/>
<circle cx="47.975" cy="14.075" r="0.4" style="stroke-width: 0.5; stroke: rgb(0 0 0); fill: rgb(105 105 105)"/>
<circle cx="49.375" cy="7.825" r="0.4" style="stroke-width: 0.5; stroke: rgb(0 0 0); fill: rgb(105 105 105)"/>
<circle cx="49.975" cy="1.425" r="0.4" style="stroke-width: 0.5; stroke: rgb(0 0 0); fill: rgb(105 105 105)"/>
<circle cx="49.75" cy="-5" r="0.4" style="stroke-width: 0.5; stroke: rgb(0 0 0); fill: rgb(105 105 105)"/>
<circle cx="48.7" cy="-11.325" r="0.4" style="stroke-width: 0.5; stroke: rgb(0 0 0); fill: rgb(105 105 105)"/>
<circle cx="36.825" cy="-33.8" r="0.4" style="stroke-width: 0.5; stroke: rgb(0 0 0); fill: rgb(105 105 105)"/>
<circle cx="32.2" cy="-38.25" r="0.4" style="stroke-width: 0.5; stroke: rgb(0 0 0); fill: rgb(105 105 105)"/>
<circle cx="27.025" cy="-42.075" r="0.4" style="stroke-width: 0.5; stroke: rgb(0 0 0); fill: rgb(105 105 105)"/>
<circle cx="21.425" cy="-45.175" r="0.4" style="stroke-width: 0.5; stroke: rgb(0 0 0); fill: rgb(105 105 105)"/>
<circle cx="0" cy="25" r="0.4" style="stroke-width: 0.5; stroke: rgb(0 0 0); fill: rgb(105 105 105)"/>
<circle cx="14.875" cy="30.825" r="0.4" style="stroke-width: 0.5; stroke: rgb(0 0 0); fill: rgb(105 105 105)"/>
<circle cx="27.15" cy="18.85" r="0.4" style="stroke-width: 0.5; stroke: rgb(0 0 0); fill: rgb(105 105 105)"/>
<circle cx="36.5" cy="18.925" r="0.4" style="stroke-width: 0.5; stroke: rgb(0 0 0); fill: rgb(105 105 105)"/>
<circle cx="12.2" cy="15.8" r="0.4" style="stroke-width: 0.5; stroke: rgb(0 0 0); fill: rgb(105 105 105)"/>
<circle cx="31.775" cy="26.325" r="0.4" style="stroke-width: 0.5; stroke: rgb(0 0 0); fill: rgb(105 105 105)"/>
<circle cx="31.975" cy="1.5" r="0.4" style="stroke-width: 0.5; stroke: rgb(0 0 0); fill: rgb(105 105 105)"/>
<circle cx="40.95" cy="-1.475" r="0.4" style="stroke-width: 0.5; stroke: rgb(0 0 0); fill: rgb(105 105 105)"/>
<circle cx="10.7" cy="-22.6" r="0.4" style="stroke-width: 0.5; stroke: rgb(0 0 0); fill: rgb(105 105 105)"/>
<circle cx="42.775" cy="-22.575" r="0.4" style="stroke-width: 0.5; stroke: rgb(0 0 0); fill: rgb(105 105 105)"/>
<circle cx="14.575" cy="-30.725" r="0.4" style="stroke-width: 0.5; stroke: rgb(0 0 0); fill: rgb(105 105 105)"/>
<circle cx="24.125" cy="-32.725" r="0.4" style="stroke-width: 0.5; stroke: rgb(0 0 0); fill: rgb(105 105 105)"/>
<circle cx="0" cy="34" r="0.4" style="stroke-width: 0.5; stroke: rgb(0 0 0); fill: rgb(105 105 105)"/>
<circle cx="18.425" cy="38.175" r="0.4" style="stroke-width: 0.5; stroke: rgb(0 0 0); fill: rgb(105 105 105)"/>
<circle cx="12.6" cy="47.95" r="0.4" style="stroke-width: 0.5; stroke: rgb(0 0 0); fill: rgb(105 105 105)"/>
<circle cx="0" cy="42" r="0.4" style="stroke-width: 0.5; stroke: rgb(0 0 0); fill: rgb(105 105 105)"/>
<circle cx="31.875" cy="37.325" r="0.4" style="stroke-width: 0.5; stroke: rgb(0 0 0); fill: rgb(105 105 105)"/>
<circle cx="8.625" cy="38" r="0.4" style="stroke-width: 0.5; stroke: rgb(0 0 0); fill: rgb(105 105 105)"/>
<circle cx="14.475" cy="42.45" r="0.4" style="stroke-width: 0.5; stroke: rgb(0 0 0); fill: rgb(105 105 105)"/>
<circle cx="6.825" cy="29.5" r="0.4" style="stroke-width: 0.5; stroke: rgb(0 0 0); fill: rgb(105 105 105)"/>
<circle cx="0" cy="16" r="0.4" style="stroke-width: 0.5; stroke: rgb(0 0 0); fill: rgb(105 105 105)"/>
<circle cx="31.3" cy="-23.7" r="0.4" style="stroke-width: 0.5; stroke: rgb(0 0 0); fill: rgb(105 105 105)"/>
<circle cx="39.275" cy="8.525" r="0.4" style="stroke-width: 0.5; stroke: rgb(0 0 0); fill: rgb(105 105 105)"/>
<circle cx="44.15" cy="4.1" r="0.4" style="stroke-width: 0.5; stroke: rgb(0 0 0); fill: rgb(105 105 105)"/>
<circle cx="41.7" cy="15.2" r="0.4" style="stroke-width: 0.5; stroke: rgb(0 0 0); fill: rgb(105 105 105)"/>
<circle cx="35.975" cy="-12.525" r="0.4" style="stroke-width: 0.5; stroke: rgb(0 0 0); fill: rgb(105 105 105)"/>
<circle cx="7.075" cy="21.7" r="0.4" style="stroke-width: 0.5; stroke: rgb(0 0 0); fill: rgb(105 105 105)"/>
<circle cx="23.975" cy="30.975" r="0.4" style="stroke-width: 0.5; stroke: rgb(0 0 0); fill: rgb(105 105 105)"/>
<circle cx="19.55" cy="23.325" r="0.4" style="stroke-width: 0.5; stroke: rgb(0 0 0); fill: rgb(105 105 105)"/>
<circle cx="21.025" cy="-22.675" r="0.4" style="stroke-width: 0.5; stroke: rgb(0 0 0); fill: rgb(105 105 105)"/>
<circle cx="43.75" cy="-7.25" r="0.4" style="stroke-width: 0.5; stroke: rgb(0 0 0); fill: rgb(105 105 105)"/>
<circle cx="18" cy="-37.95" r="0.4" style="stroke-width: 0.5; stroke: rgb(0 0 0); fill: rgb(105 105 105)"/>
<circle cx="44.975" cy="-18.4" r="0.4" style="stroke-width: 0.5; stroke: rgb(0 0 0); fill: rgb(105 105 105)"/>
<circle cx="38.9" cy="-17.875" r="0.4" style="stroke-width: 0.5; stroke: rgb(0 0 0); fill: rgb(105 105 105)"/>
<circle cx="41.85" cy="-12.8" r="0.4" style="stroke-width: 0.5; stroke: rgb(0 0 0); fill: rgb(105 105 105)"/>
<circle cx="30.6" cy="-31.95" r="0.4" style="stroke-width: 0.5; stroke: rgb(0 0 0); fill: rgb(105 105 105)"/>
<circle cx="40.575" cy="-26.725" r="0.4" style="stroke-width: 0.5; stroke: rgb(0 0 0); fill: rgb(105 105 105)"/>
<circle cx="8.95" cy="43.65" r="0.4" style="stroke-width: 0.5; stroke: rgb(0 0 0); fill: rgb(105 105 105)"/>
<circle cx="22.525" cy="-8.8" r="0.4" style="stroke-width: 0.5; stroke: rgb(0 0 0); fill: rgb(105 105 105)"/>
<circle cx="37.65" cy="-6.625" r="0.4" style="stroke-width: 0.5; stroke: rgb(0 0 0); fill: rgb(105 105 105)"/>
<circle cx="32.775" cy="-17.75" r="0.4" style="stroke-width: 0.5; stroke: rgb(0 0 0); fill: rgb(105 105 105)"/>
<circle cx="37.875" cy="-22.65" r="0.4" style="stroke-width: 0.5; stroke: rgb(0 0 0); fill: rgb(105 105 105)"/>
<circle cx="26.775" cy="-27.475" r="0.4" style="stroke-width: 0.5; stroke: rgb(0 0 0); fill: rgb(105 105 105)"/>
<circle cx="26.55" cy="-19.375" r="0.4" style="stroke-width: 0.5; stroke: rgb(0 0 0); fill: rgb(105 105 105)"/>
<circle cx="18.8" cy="4.1" r="0.4" style="stroke-width: 0.5; stroke: rgb(0 0 0); fill: rgb(105 105 105)"/>
<circle cx="30.075" cy="-7.675" r="0.4" style="stroke-width: 0.5; stroke: rgb(0 0 0); fill: rgb(105 105 105)"/>
<circle cx="28.35" cy="-13.525" r="0.4" style="stroke-width: 0.5; stroke: rgb(0 0 0); fill: rgb(105 105 105)"/>
<circle cx="35.25" cy="-27.3" r="0.4" style="stroke-width: 0.5; stroke: rgb(0 0 0); fill: rgb(105 105 105)"/>
<circle cx="21.4" cy="-28.075" r="0.4" style="stroke-width: 0.5; stroke: rgb(0 0 0); fill: rgb(105 105 105)"/>
<circle cx="20.55" cy="-15.6" r="0.4" style="stroke-width: 0.5; stroke: rgb(0 0 0); fill: rgb(105 105 105)"/>
<circle cx="6.85" cy="-14.45" r="0.4" style="stroke-width: 0.5; stroke: rgb(0 0 0); fill: rgb(105 105 105)"/>
<circle cx="25.375" cy="-1.925" r="0.4" style="stroke-width: 0.5; stroke: rgb(0 0 0); fill: rgb(105 105 105)"/>
<circle cx="12.85" cy="-27.1" r="0.4" style="stroke-width: 0.5; stroke: rgb(0 0 0); fill: rgb(105 105 105)"/>
<circle cx="16.275" cy="-34.325" r="0.4" style="stroke-width: 0.5; stroke: rgb(0 0 0); fill: rgb(105 105 105)"/>
<circle cx="14.125" cy="-10.025" r="0.4" style="stroke-width: 0.5; stroke: rgb(0 0 0); fill: rgb(105 105 105)"/>
<circle cx="3.425" cy="-7.225" r="0.4" style="stroke-width: 0.5; stroke: rgb(0 0 0); fill: rgb(105 105 105)"/>
<circle cx="9.8" cy="0.225" r="0.4" style="stroke-width: 0.5; stroke: rgb(0 0 0); fill: rgb(105 105 105)"/>
<circle cx="25.85" cy="5.2" r="0.4" style="stroke-width: 0.5; stroke: rgb(0 0 0); fill: rgb(105 105 105)"/>
<circle cx="18.3" cy="-3.025" r="0.4" style="stroke-width: 0.5; stroke: rgb(0 0 0); fill: rgb(105 105 105)"/>
<circle cx="17.175" cy="-27.275" r="0.4" style="stroke-width: 0.5; stroke: rgb(0 0 0); fill: rgb(105 105 105)"/>
<circle cx="18.65" cy="-31.05" r="0.4" style="stroke-width: 0.5; stroke: rgb(0 0 0); fill: rgb(105 105 105)"/>
<circle cx="20.225" cy="-34.675" r="0.4" style="stroke-width: 0.5; stroke: rgb(0 0 0); fill: rgb(105 105 105)"/>
<circle cx="0" cy="8" r="0.4" style="stroke-width: 0.5; stroke: rgb(0 0 0); fill: rgb(105 105 105)"/>
<circle cx="32.125" cy="8.625" r="0.4" style="stroke-width: 0.5; stroke: rgb(0 0 0); fill: rgb(105 105 105)"/>
<circle cx="21.1" cy="12.55" r="0.4" style="stroke-width: 0.5; stroke: rgb(0 0 0); fill: rgb(105 105 105)"/>
<circle cx="15.15" cy="-23.25" r="0.4" style="stroke-width: 0.5; stroke: rgb(0 0 0); fill: rgb(105 105 105)"/>
<circle cx="22.975" cy="-38.95" r="0.4" style="stroke-width: 0.5; stroke: rgb(0 0 0); fill: rgb(105 105 105)"/>
<circle cx="6.025" cy="12" r="0.4" style="stroke-width: 0.5; stroke: rgb(0 0 0); fill: rgb(105 105 105)"/>
<circle cx="6" cy="5.5" r="0.4" style="stroke-width: 0.5; stroke: rgb(0 0 0); fill: rgb(105 105 105)"/>
<circle cx="13.85" cy="-16.7" r="0.4" style="stroke-width: 0.5; stroke: rgb(0 0 0); fill: rgb(105 105 105)"/>
<circle cx="27.5" cy="-37.275" r="0.4" style="stroke-width: 0.5; stroke: rgb(0 0 0); fill: rgb(105 105 105)"/>
<circle cx="12.3" cy="8.725" r="0.4" style="stroke-width: 0.5; stroke: rgb(0 0 0); fill: rgb(105 105 105)"/>
</g>
</svg>