<svg viewBox="-101.32 -79.56 211.64 139.12" width="700" xmlns="http://www.w3.org/2000/svg" xmlns:xlink="http://www.w3.org/1999/xlink">
<defs>
<pattern height="1" id="basic_voronoi_pattern0001" patternTransform="rotate(63.512 0 0) scale(2)" patternUnits="userSpaceOnUse" width="1">
<line stroke="rgb(255 255 255)" stroke-width="1.01" x1="0" x2="0" y1="-0.1" y2="1.1"/>
<line stroke="rgb(211 211 211)" stroke-width="1.01" x1="1" x2="1" y1="-0.1" y2="1.1"/>
</pattern>
</defs>
<rect height="100%" style="fill: url(#basic_voronoi_pattern0001)" width="100%" x="-101.32" y="-79.56"/>
<g>
<path d="M-2,-24 L5,-12 L-30,-25 z" style="fill: rgb(211 211 211)"/>
<path d="M-2,-24 L33,-30 L5,-12 z" style="fill: rgb(211 211 211)"/>
<path d="M12,10 L30,2 L15,39 z" style="fill: rgb(211 211 211)"/>
<path d="M15,39 L-35,32 L12,10 z" style="fill: rgb(211 211 211)"/>
<path d="M-14,-52 L-5,-42 L-30,-25 z" style="fill: rgb(211 211 211)"/>
<path d="M30,2 L5,-12 L33,-30 z" style="fill: rgb(211 211 211)"/>
<path d="M-2,-24 L-30,-25 L-5,-42 z" style="fill: rgb(211 211 211)"/>
<path d="M-35,32 L15,39 L-67,52 z" style="fill: rgb(211 211 211)"/>
<path d="M-35,32 L-35,5 L12,10 z" style="fill: rgb(211 211 211)"/>
<path d="M15,39 L30,2 L50,50 z" style="fill: rgb(211 211 211)"/>
<path d="M76,10 L30,2 L33,-30 z" style="fill: rgb(211 211 211)"/>
<path d="M-5,-42 L33,-30 L-2,-24 z" style="fill: rgb(211 211 211)"/>
<path d="M5,-12 L12,10 L-35,5 z" style="fill: rgb(211 211 211)"/>
<path d="M12,10 L5,-12 L30,2 z" style="fill: rgb(211 211 211)"/>
<path d="M-35,5 L-35,32 L-67,52 z" style="fill: rgb(211 211 211)"/>
<path d="M-35,5 L-30,-25 L5,-12 z" style="fill: rgb(211 211 211)"/>
<path d="M33,-30 L-5,-42 L45,-47 z" style="fill: rgb(211 211 211)"/>
<path d="M-30,-25 L-35,5 L-55,-25 z" style="fill: rgb(211 211 211)"/>
<path d="M-55,-25 L-14,-52 L-30,-25 z" style="fill: rgb(211 211 211)"/>
<path d="M-67,52 L-55,-25 L-35,5 z" style="fill: rgb(211 211 211)"/>
<path d="M50,50 L-67,52 L15,39 z" style="fill: rgb(211 211 211)"/>
<path d="M76,10 L50,50 L30,2 z" style="fill: rgb(211 211 211)"/>
<path d="M45,-47 L76,10 L33,-30 z" style="fill: rgb(211 211 211)"/>
<path d="M-14,-52 L45,-47 L-5,-42 z" style="fill: rgb(211 211 211)"/>
<line style="stroke-width: 1; stroke: rgb(0 0 0); fill: none" x1="-35" x2="12" y1="5" y2="10"/>
<line style="stroke-width: 1; stroke: rgb(0 0 0); fill: none" x1="-2" x2="33" y1="-24" y2="-30"/>
<line style="stroke-width: 1; stroke: rgb(0 0 0); fill: none" x1="30" x2="15" y1="2" y2="39"/>
<line style="stroke-width: 1; stroke: rgb(0 0 0); fill: none" x1="5" x2="33" y1="-12" y2="-30"/>
<line style="stroke-width: 1; stroke: rgb(0 0 0); fill: none" x1="30" x2="5" y1="2" y2="-12"/>
<line style="stroke-width: 1; stroke: rgb(0 0 0); fill: none" x1="12" x2="-35" y1="10" y2="32"/>
<line style="stroke-width: 1; stroke: rgb(0 0 0); fill: none" x1="15" x2="-35" y1="39" y2="32"/>
<line style="stroke-width: 1; stroke: rgb(0 0 0); fill: none" x1="-5" x2="-30" y1="-42" y2="-25"/>
<line style="stroke-width: 1; stroke: rgb(0 0 0); fill: none" x1="5" x2="-35" y1="-12" y2="5"/>
<line style="stroke-width: 1; stroke: rgb(0 0 0); fill: none" x1="-5" x2="-2" y1="-42" y2="-24"/>
<line style="stroke-width: 1; stroke: rgb(0 0 0); fill: none" x1="5" x2="-2" y1="-12" y2="-24"/>
<line style="stroke-width: 1; stroke: rgb(0 0 0); fill: none" x1="-35" x2="-67" y1="32" y2="52"/>
<line style="stroke-width: 1; stroke: rgb(0 0 0); fill: none" x1="-30" x2="5" y1="-25" y2="-12"/>
<line style="stroke-width: 1; stroke: rgb(0 0 0); fill: none" x1="15" x2="-67" y1="39" y2="52"/>
<line style="stroke-width: 1; stroke: rgb(0 0 0); fill: none" x1="-35" x2="-30" y1="5" y2="-25"/>
<line style="stroke-width: 1; stroke: rgb(0 0 0); fill: none" x1="-14" x2="-5" y1="-52" y2="-42"/>
<line style="stroke-width: 1; stroke: rgb(0 0 0); fill: none" x1="30" x2="76" y1="2" y2="10"/>
<line style="stroke-width: 1; stroke: rgb(0 0 0); fill: none" x1="30" x2="50" y1="2" y2="50"/>
<line style="stroke-width: 1; stroke: rgb(0 0 0); fill: none" x1="30" x2="33" y1="2" y2="-30"/>
<line style="stroke-width: 1; stroke: rgb(0 0 0); fill: none" x1="-5" x2="33" y1="-42" y2="-30"/>
<line style="stroke-width: 1; stroke: rgb(0 0 0); fill: none" x1="15" x2="12" y1="39" y2="10"/>
<line style="stroke-width: 1; stroke: rgb(0 0 0); fill: none" x1="5" x2="12" y1="-12" y2="10"/>
<line style="stroke-width: 1; stroke: rgb(0 0 0); fill: none" x1="30" x2="12" y1="2" y2="10"/>
<line style="stroke-width: 1; stroke: rgb(0 0 0); fill: none" x1="-35" x2="-35" y1="32" y2="5"/>
<line style="stroke-width: 1; stroke: rgb(0 0 0); fill: none" x1="-67" x2="-35" y1="52" y2="5"/>
<line style="stroke-width: 1; stroke: rgb(0 0 0); fill: none" x1="-30" x2="-2" y1="-25" y2="-24"/>
<line style="stroke-width: 1; stroke: rgb(0 0 0); fill: none" x1="-5" x2="45" y1="-42" y2="-47"/>
<line style="stroke-width: 1; stroke: rgb(0 0 0); fill: none" x1="33" x2="76" y1="-30" y2="10"/>
<line style="stroke-width: 1; stroke: rgb(0 0 0); fill: none" x1="-35" x2="-55" y1="5" y2="-25"/>
<line style="stroke-width: 1; stroke: rgb(0 0 0); fill: none" x1="-30" x2="-14" y1="-25" y2="-52"/>
<line style="stroke-width: 1; stroke: rgb(0 0 0); fill: none" x1="-30" x2="-55" y1="-25" y2="-25"/>
<line style="stroke-width: 1; stroke: rgb(0 0 0); fill: none" x1="-55" x2="-14" y1="-25" y2="-52"/>
<line style="stroke-width: 1; stroke: rgb(0 0 0); fill: none" x1="-67" x2="-55" y1="52" y2="-25"/>
<line style="stroke-width: 1; stroke: rgb(0 0 0); fill: none" x1="15" x2="50" y1="39" y2="50"/>
<line style="stroke-width: 1; stroke: rgb(0 0 0); fill: none" x1="50" x2="-67" y1="50" y2="52"/>
<line style="stroke-width: 1; stroke: rgb(0 0 0); fill: none" x1="76" x2="50" y1="10" y2="50"/>
<line style="stroke-width: 1; stroke: rgb(0 0 0); fill: none" x1="33" x2="45" y1="-30" y2="-47"/>
<line style="stroke-width: 1; stroke: rgb(0 0 0); fill: none" x1="45" x2="76" y1="-47" y2="10"/>
<line style="stroke-width: 1; stroke: rgb(0 0 0); fill: none" x1="-14" x2="45" y1="-52" y2="-47"/>
<circle cx="15" cy="39" r="2" style="stroke-width: 0.5; stroke: rgb(0 0 0); fill: rgb(105 105 105)"/>
<circle cx="-5" cy="-42" r="2" style="stroke-width: 0.5; stroke: rgb(0 0 0); fill: rgb(105 105 105)"/>
<circle cx="30" cy="2" r="2" style="stroke-width: 0.5; stroke: rgb(0 0 0); fill: rgb(105 105 105)"/>
<circle cx="5" cy="-12" r="2" style="stroke-width: 0.5; stroke: rgb(0 0 0); fill: rgb(105 105 105)"/>
<circle cx="-35" cy="32" r="2" style="stroke-width: 0.5; stroke: rgb(0 0 0); fill: rgb(105 105 105)"/>
<circle cx="-2" cy="-24" r="2" style="stroke-width: 0.5; stroke: rgb(0 0 0); fill: rgb(105 105 105)"/>
<circle cx="-67" cy="52" r="2" style="stroke-width: 0.5; stroke: rgb(0 0 0); fill: rgb(105 105 105)"/>
<circle cx="-14" cy="-52" r="2" style="stroke-width: 0.5; stroke: rgb(0 0 0); fill: rgb(105 105 105)"/>
<circle cx="76" cy="10" r="2" style="stroke-width: 0.5; stroke: rgb(0 0 0); fill: rgb(105 105 105)"/>
<circle cx="12" cy="10" r="2" style="stroke-width: 0.5; stroke: rgb(0 0 0); fill: rgb(105 105 105)"/>
<circle cx="-35" cy="5" r="2" style="stroke-width: 0.5; stroke: rgb(0 0 0); fill: rgb(105 105 105)"/>
<circle cx="33" cy="-30" r="2" style="stroke-width: 0.5; stroke: rgb(0 0 0); fill: rgb(105 105 105)"/>
<circle cx="-30" cy="-25" r="2" style="stroke-width: 0.5; stroke: rgb(0 0 0); fill: rgb(105 105 105)"/>
<circle cx="-55" cy="-25" r="2" style="stroke-width: 0.5; stroke: rgb(0 0 0); fill: rgb(105 105 105)"/>
<circle cx="50" cy="50" r="2" style="stroke-width: 0.5; stroke: rgb(0 0 0); fill: rgb(105 105 105)"/>
<circle cx="45" cy="-47" r="2" style="stroke-width: 0.5; stroke: rgb(0 0 0); fill: rgb(105 105 105)"/>
<line style="stroke-width: 1; stroke: rgb(65 105 225); fill: none" x1="-12.675" x2="-11.275" y1="18.5" y2="5.3"/>
<line style="stroke-width: 1; stroke: rgb(65 105 225); fill: none" x1="15.625" x2="13.975" y1="-26.25" y2="-35.9"/>
<line style="stroke-width: 1; stroke: rgb(65 105 225); fill: none" x1="28.525" x2="38.05" y1="22.95" y2="26.8"/>
<line style="stroke-width: 1; stroke: rgb(65 105 225); fill: none" x1="22.975" x2="15.625" y1="-14.8" y2="-26.25"/>
<line style="stroke-width: 1; stroke: rgb(65 105 225); fill: none" x1="22.975" x2="16.725" y1="-14.8" y2="-3.625"/>
<line style="stroke-width: 1; stroke: rgb(65 105 225); fill: none" x1="-12.675" x2="-8.775" y1="18.5" y2="26.8"/>
<line style="stroke-width: 1; stroke: rgb(65 105 225); fill: none" x1="-8.775" x2="-18.25" y1="26.8" y2="94.4"/>
<line style="stroke-width: 1; stroke: rgb(65 105 225); fill: none" x1="-20.15" x2="-15.775" y1="-37.4" y2="-30.95"/>
<line style="stroke-width: 1; stroke: rgb(65 105 225); fill: none" x1="-16.65" x2="-11.275" y1="-7.35" y2="5.3"/>
<line style="stroke-width: 1; stroke: rgb(65 105 225); fill: none" x1="-15.775" x2="13.975" y1="-30.95" y2="-35.9"/>
<line style="stroke-width: 1; stroke: rgb(65 105 225); fill: none" x1="15.625" x2="-16.6" y1="-26.25" y2="-7.425"/>
<line style="stroke-width: 1; stroke: rgb(65 105 225); fill: none" x1="-65.7" x2="-18.25" y1="18.5" y2="94.4"/>
<line style="stroke-width: 1; stroke: rgb(65 105 225); fill: none" x1="-16.65" x2="-16.6" y1="-7.35" y2="-7.425"/>
<line style="stroke-width: 1; stroke: rgb(65 105 225); fill: none" x1="-18.25" x2="-6.5" y1="94.4" y2="168.55"/>
<line style="stroke-width: 1; stroke: rgb(65 105 225); fill: none" x1="-16.65" x2="-42.5" y1="-7.35" y2="-11.675"/>
<line style="stroke-width: 1; stroke: rgb(65 105 225); fill: none" x1="-20.15" x2="17.325" y1="-37.4" y2="-71.15"/>
<line style="stroke-width: 1; stroke: rgb(65 105 225); fill: none" x1="50.275" x2="56.075" y1="21.725" y2="-11.7"/>
<line style="stroke-width: 1; stroke: rgb(65 105 225); fill: none" x1="38.05" x2="50.275" y1="26.8" y2="21.725"/>
<line style="stroke-width: 1; stroke: rgb(65 105 225); fill: none" x1="56.075" x2="22.975" y1="-11.7" y2="-14.8"/>
<line style="stroke-width: 1; stroke: rgb(65 105 225); fill: none" x1="13.975" x2="19.2" y1="-35.9" y2="-52.475"/>
<line style="stroke-width: 1; stroke: rgb(65 105 225); fill: none" x1="28.525" x2="-8.775" y1="22.95" y2="26.8"/>
<line style="stroke-width: 1; stroke: rgb(65 105 225); fill: none" x1="-11.275" x2="16.725" y1="5.3" y2="-3.625"/>
<line style="stroke-width: 1; stroke: rgb(65 105 225); fill: none" x1="16.725" x2="28.525" y1="-3.625" y2="22.95"/>
<line style="stroke-width: 1; stroke: rgb(65 105 225); fill: none" x1="-12.675" x2="-65.7" y1="18.5" y2="18.5"/>
<line style="stroke-width: 1; stroke: rgb(65 105 225); fill: none" x1="-65.7" x2="-76.6" y1="18.5" y2="11.075"/>
<line style="stroke-width: 1; stroke: rgb(65 105 225); fill: none" x1="-16.6" x2="-15.775" y1="-7.425" y2="-30.95"/>
<line style="stroke-width: 1; stroke: rgb(65 105 225); fill: none" x1="19.2" x2="17.325" y1="-52.475" y2="-71.15"/>
<line style="stroke-width: 1; stroke: rgb(65 105 225); fill: none" x1="56.075" x2="64.35" y1="-11.7" y2="-20.6"/>
<line style="stroke-width: 1; stroke: rgb(65 105 225); fill: none" x1="-42.5" x2="-76.6" y1="-11.675" y2="11.075"/>
<line style="stroke-width: 1; stroke: rgb(65 105 225); fill: none" x1="-20.15" x2="-42.5" y1="-37.4" y2="-50.65"/>
<line style="stroke-width: 1; stroke: rgb(65 105 225); fill: none" x1="-42.5" x2="-42.5" y1="-50.65" y2="-11.675"/>
<line style="stroke-width: 1; stroke: rgb(65 105 225); stroke-dasharray: 4 2; fill: none" x1="-42.5" x2="-60.65" y1="-50.65" y2="-78.2"/>
<line style="stroke-width: 1; stroke: rgb(65 105 225); stroke-dasharray: 4 2; fill: none" x1="-76.6" x2="-101.3" y1="11.075" y2="7.225"/>
<line style="stroke-width: 1; stroke: rgb(65 105 225); fill: none" x1="-6.5" x2="38.05" y1="168.55" y2="26.8"/>
<line style="stroke-width: 1; stroke: rgb(65 105 225); stroke-dasharray: 4 2; fill: none" x1="NaN" x2="NaN" y1="NaN" y2="NaN"/>
<line style="stroke-width: 1; stroke: rgb(65 105 225); stroke-dasharray: 4 2; fill: none" x1="50.275" x2="108.95" y1="21.725" y2="59.875"/>
<line style="stroke-width: 1; stroke: rgb(65 105 225); fill: none" x1="64.35" x2="19.2" y1="-20.6" y2="-52.475"/>
<line style="stroke-width: 1; stroke: rgb(65 105 225); stroke-dasharray: 4 2; fill: none" x1="64.35" x2="111.8" y1="-20.6" y2="-46.4"/>
<line style="stroke-width: 1; stroke: rgb(65 105 225); stroke-dasharray: 4 2; fill: none" x1="17.325" x2="18" y1="-71.15" y2="-79.125"/>
</g>
</svg>