<svg viewBox="-101.32 -79.56 211.64 139.12" width="700" xmlns="http://www.w3.org/2000/svg" xmlns:xlink="http://www.w3.org/1999/xlink">
<defs>
<pattern height="1" id="basic_voronoi_pattern0001" patternTransform="rotate(63.512 0 0) scale(2)" patternUnits="userSpaceOnUse" width="1">
<line stroke="rgb(255 255 255)" stroke-width="1.01" x1="0" x2="0" y1="-0.1" y2="1.1"/>
<line stroke="rgb(211 211 211)" stroke-width="1.01" x1="1" x2="1" y1="-0.1" y2="1.1"/>
</pattern>
</defs>
<rect height="100%" style="fill: url(#basic_voronoi_pattern0001)" width="100%" x="-101.32" y="-79.56"/>
<g>
<path d="M-2,-24 L5,-12 L-30,-25 z" style="fill: rgb(211 211 211)"/>
<path d="M-2,-24 L33,-30 L5,-12 z" style="fill: rgb(211 211 211)"/>
<path d="M12,10 L30,2 L15,39 z" style="fill: rgb(211 211 211)"/>
<path d="M15,39 L-35,32 L12,10 z" style="fill: rgb(211 211 211)"/>
<path d="M-14,-52 L-5,-42 L-30,-25 z" style="fill: rgb(211 211 211)"/>
<path d="M30,2 L5,-12 L33,-30 z" style="fill: rgb(211 211 211)"/>
<path d="M-2,-24 L-30,-25 L-5,-42 z" style="fill: rgb(211 211 211)"/>
<path d="M-35,32 L15,39 L-67,52 z" style="fill: rgb(211 211 211)"/>
<path d="M-35,32 L-35,5 L12,10 z" style="fill: rgb(211 211 211)"/>
<path d="M15,39 L30,2 L50,50 z" style="fill: rgb(211 211 211)"/>
<path d="M76,10 L30,2 L33,-30 z" style="fill: rgb(211 211 211)"/>
<path d="M-5,-42 L33,-30 L-2,-24 z" style="fill: rgb(211 211 211)"/>
<path d="M5,-12 L12,10 L-35,5 z" style="fill: rgb(211 211 211)"/>
<path d="M12,10 L5,-12 L30,2 z" style="fill: rgb(211 211 211)"/>
<path d="M-35,5 L-35,32 L-67,52 z" style="fill: rgb(211 211 211)"/>
<path d="M-35,5 L-30,-25 L5,-12 z" style="fill: rgb(211 211 211)"/>
<path d="M33,-30 L-5,-42 L45,-47 z" style="fill: rgb(211 211 211)"/>
<path d="M-30,-25 L-35,5 L-55,-25 z" style="fill: rgb(211 211 211)"/>
<path d="M-55,-25 L-14,-52 L-30,-25 z" style="fill: rgb(211 211 211)"/>
<path d="M-67,52 L-55,-25 L-35,5 z" style="fill: rgb(211 211 211)"/>
<path d="M50,50 L-67,52 L15,39 z" style="fill: rgb(211 211 211)"/>
<path d="M76,10 L50,50 L30,2 z" style="fill: rgb(211 211 211)"/>
<path d="M45,-47 L76,10 L33,-30 z" style="fill: rgb(211 211 211)"/>
<path d="M-14,-52 L45,-47 L-5,-42 z" style="fill: rgb(211 211 211)"/>
<line style="stroke-width: 1; stroke: rgb(0 0 0); fill: none" x1="-35" x2="12" y1="5" y2="10"/>
<line style="stroke-width: 1; stroke: rgb(0 0 0); fill: none" x1="-2" x2="33" y1="-24" y2="-30"/>
<line style="stroke-width: 1; stroke: rgb(0 0 0); fill: none" x1="30" x2="15" y1="2" y2="39"/>
<line style="stroke-width: 1; stroke: rgb(0 0 0); fill: none" x1="5" x2="33" y1="-12" y2="-30"/>
<line style="stroke-width: 1; stroke: rgb(0 0 0); fill: none" x1="30" x2="5" y1="2" y2="-12"/>
<line style="stroke-width: 1; stroke: rgb(0 0 0); fill: none" x1="12" x2="-35" y1="10" y2="32"/>
<line style="stroke-width: 1; stroke: rgb(0 0 0); fill: none" x1="15" x2="-35" y1="39" y2="32"/>
<line style="stroke-width: 1; stroke: rgb(0 0 0); fill: none" x1="-5" x2="-30" y1="-42" y2="-25"/>
<line style="stroke-width: 1; stroke: rgb(0 0 0); fill: none" x1="5" x2="-35" y1="-12" y2="5"/>
<line style="stroke-width: 1; stroke: rgb(0 0 0); fill: none" x1="-5" x2="-2" y1="-42" y2="-24"/>
<line style="stroke-width: 1; stroke: rgb(0 0 0); fill: none" x1="5" x2="-2" y1="-12" y2="-24"/>
<line style="stroke-width: 1; stroke: rgb(0 0 0); fill: none" x1="-35" x2="-67" y1="32" y2="52"/>
<line style="stroke-width: 1; stroke: rgb(0 0 0); fill: none" x1="-30" x2="5" y1="-25" y2="-12"/>
<line style="stroke-width: 1; stroke: rgb(0 0 0); fill: none" x1="15" x2="-67" y1="39" y2="52"/>
<line style="stroke-width: 1; stroke: rgb(0 0 0); fill: none" x1="-35" x2="-30" y1="5" y2="-25"/>
<line style="stroke-width: 1; stroke: rgb(0 0 0); fill: none" x1="-14" x2="-5" y1="-52" y2="-42"/>
<line style="stroke-width: 1; stroke: rgb(0 0 0); fill: none" x1="30" x2="76" y1="2" y2="10"/>
<line style="stroke-width: 1; stroke: rgb(0 0 0); fill: none" x1="30" x2="50" y1="2" y2="50"/>
<line style="stroke-width: 1; stroke: rgb(0 0 0); fill: none" x1="30" x2="33" y1="2" y2="-30"/>
<line style="stroke-width: 1; stroke: rgb(0 0 0); fill: none" x1="-5" x2="33" y1="-42" y2="-30"/>
<line style="stroke-width: 1; stroke: rgb(0 0 0); fill: none" x1="15" x2="12" y1="39" y2="10"/>
<line style="stroke-width: 1; stroke: rgb(0 0 0); fill: none" x1="5" x2="12" y1="-12" y2="10"/>
<line style="stroke-width: 1; stroke: rgb(0 0 0); fill: none" x1="30" x2="12" y1="2" y2="10"/>
<line style="stroke-width: 1; stroke: rgb(0 0 0); fill: none" x1="-35" x2="-35" y1="32" y2="5"/>
<line style="stroke-width: 1; stroke: rgb(0 0 0); fill: none" x1="-67" x2="-35" y1="52" y2="5"/>
<line style="stroke-width: 1; stroke: rgb(0 0 0); fill: none" x1="-30" x2="-2" y1="-25" y2="-24"/>
<line style="stroke-width: 1; stroke: rgb(0 0 0); fill: none" x1="-5" x2="45" y1="-42" y2="-47"/>
<line style="stroke-width: 1; stroke: rgb(0 0 0); fill: none" x1="33" x2="76" y1="-30" y2="10"/>
<line style="stroke-width: 1; stroke: rgb(0 0 0); fill: none" x1="-35" x2="-55" y1="5" y2="-25"/>
<line style="stroke-width: 1; stroke: rgb(0 0 0); fill: none" x1="-30" x2="-14" y1="-25" y2="-52"/>
<line style="stroke-width: 1; stroke: rgb(0 0 0); fill: none" x1="-30" x2="-55" y1="-25" y2="-25"/>
<line style="stroke-width: 1; stroke: rgb(0 0 0); fill: none" x1="-55" x2="-14" y1="-25" y2="-52"/>
<line style="stroke-width: 1; stroke: rgb(0 0 0); fill: none" x1="-67" x2="-55" y1="52" y2="-25"/>
<line style="stroke-width: 1; stroke: rgb(0 0 0); fill: none" x1="15" x2="50" y1="39" y2="50"/>
<line style="stroke-width: 1; stroke: rgb(0 0 0); fill: none" x1="50" x2="-67" y1="50" y2="52"/>
<line style="stroke-width: 1; stroke: rgb(0 0 0); fill: none" x1="76" x2="50" y1="10" y2="50"/>
<line style="stroke-width: 1; stroke: rgb(0 0 0); fill: none" x1="33" x2="45" y1="-30" y2="-47"/>
<line style="stroke-width: 1; stroke: rgb(0 0 0); fill: none" x1="45" x2="76" y1="-47" y2="10"/>
<line style="stroke-width: 1; stroke: rgb(0 0 0); fill: none" x1="-14" x2="45" y1="-52" y2="-47"/>
<circle cx="15" cy="39" r="2" style="stroke-width: 0.5; stroke: rgb(0 0 0); fill: rgb(105 105 105)"/>
<circle cx="-5" cy="-42" r="2" style="stroke-width: 0.5; stroke: rgb(0 0 0); fill: rgb(105 105 105)"/>
<circle cx="30" cy="2" r="2" style="stroke-width: 0.5; stroke: rgb(0 0 0); fill: rgb(105 105 105)"/>
<circle cx="5" cy="-12" r="2" style="stroke-width: 0.5; stroke: rgb(0 0 0); fill: rgb(105 105 105)"/>
<circle cx="-35" cy="32" r="2" style="stroke-width: 0.5; stroke: rgb(0 0 0); fill: rgb(105 105 105)"/>
<circle cx="-2" cy="-24" r="2" style="stroke-width: 0.5; stroke: rgb(0 0 0); fill: rgb(105 105 105)"/>
<circle cx="-67" cy="52" r="2" style="stroke-width: 0.5; stroke: rgb(0 0 0); fill: rgb(105 105 105)"/>
<circle cx="-14" cy="-52" r="2" style="stroke-width: 0.5; stroke: rgb(0 0 0); fill: rgb(105 105 105)"/>
<circle cx="76" cy="10" r="2" style="stroke-width: 0.5; stroke: rgb(0 0 0); fill: rgb(105 105 105)"/>
<circle cx="12" cy="10" r="2" style="stroke-width: 0.5; stroke: rgb(0 0 0); fill: rgb(105 105 105)"/>
<circle cx="-35" cy="5" r="2" style="stroke-width: 0.5; stroke: rgb(0 0 0); fill: rgb(105 105 105)"/>
<circle cx="33" cy="-30" r="2" style="stroke-width: 0.5; stroke: rgb(0 0 0); fill: rgb(105 105 105)"/>
<circle cx="-30" cy="-25" r="2" style="stroke-width: 0.5; stroke: rgb(0 0 0); fill: rgb(105 105 105)"/>
<circle cx="-55" cy="-25" r="2" style="stroke-width: 0.5; stroke: rgb(0 0 0); fill: rgb(105 105 105)"/>
<circle cx="50" cy="50" r="2" style="stroke-width: 0.5; stroke: rgb(0 0 0); fill: rgb(105 105 105)"/>
<circle cx="45" cy="-47" r="2" style="stroke-width: 0.5; stroke: rgb(0 0 0); fill: rgb(105 105 105)"/>
<line style="stroke-width: 1; stroke: rgb(65 105 225); fill: none" x1="-12.670212765957444" x2="-11.264764764764763" y1="18.5" y2="5.288788788788789"/>
<line style="stroke-width: 1; stroke: rgb(65 105 225); fill: none" x1="15.629870129870131" x2="13.972222222222221" y1="-26.242424242424242" y2="-35.91203703703704"/>
<line style="stroke-width: 1; stroke: rgb(65 105 225); fill: none" x1="28.531135531135533" x2="38.060273972602744" y1="22.945054945054945" y2="26.80821917808219"/>
<line style="stroke-width: 1; stroke: rgb(65 105 225); fill: none" x1="22.986935866983373" x2="15.629870129870131" y1="-14.798099762470308" y2="-26.242424242424242"/>
<line style="stroke-width: 1; stroke: rgb(65 105 225); fill: none" x1="22.986935866983373" x2="16.72566371681416" y1="-14.798099762470308" y2="-3.6172566371681416"/>
<line style="stroke-width: 1; stroke: rgb(65 105 225); fill: none" x1="-12.670212765957444" x2="-8.782715185444363" y1="18.5" y2="26.80510846745976"/>
<line style="stroke-width: 1; stroke: rgb(65 105 225); fill: none" x1="-8.782715185444363" x2="-18.24673202614379" y1="26.80510846745976" y2="94.40522875816993"/>
<line style="stroke-width: 1; stroke: rgb(65 105 225); fill: none" x1="-20.1575682382134" x2="-15.76946107784431" y1="-37.40818858560794" y2="-30.95508982035928"/>
<line style="stroke-width: 1; stroke: rgb(65 105 225); fill: none" x1="-16.6390134529148" x2="-11.264764764764763" y1="-7.356502242152466" y2="5.288788788788789"/>
<line style="stroke-width: 1; stroke: rgb(65 105 225); fill: none" x1="-15.76946107784431" x2="13.972222222222221" y1="-30.95508982035928" y2="-35.91203703703704"/>
<line style="stroke-width: 1; stroke: rgb(65 105 225); fill: none" x1="15.629870129870131" x2="-16.609422492401215" y1="-26.242424242424242" y2="-7.436170212765958"/>
<line style="stroke-width: 1; stroke: rgb(65 105 225); fill: none" x1="-65.6875" x2="-18.24673202614379" y1="18.5" y2="94.40522875816993"/>
<line style="stroke-width: 1; stroke: rgb(65 105 225); fill: none" x1="-16.6390134529148" x2="-16.609422492401215" y1="-7.356502242152466" y2="-7.436170212765958"/>
<line style="stroke-width: 1; stroke: rgb(65 105 225); fill: none" x1="-18.24673202614379" x2="-6.490420044215185" y1="94.40522875816993" y2="168.56042741341196"/>
<line style="stroke-width: 1; stroke: rgb(65 105 225); fill: none" x1="-16.6390134529148" x2="-42.5" y1="-7.356502242152466" y2="-11.666666666666668"/>
<line style="stroke-width: 1; stroke: rgb(65 105 225); fill: none" x1="-20.1575682382134" x2="17.334862385321102" y1="-37.40818858560794" y2="-71.15137614678899"/>
<line style="stroke-width: 1; stroke: rgb(65 105 225); fill: none" x1="50.265625" x2="56.07754010695187" y1="21.72265625" y2="-11.695855614973262"/>
<line style="stroke-width: 1; stroke: rgb(65 105 225); fill: none" x1="38.060273972602744" x2="50.265625" y1="26.80821917808219" y2="21.72265625"/>
<line style="stroke-width: 1; stroke: rgb(65 105 225); fill: none" x1="56.07754010695187" x2="22.986935866983373" y1="-11.695855614973262" y2="-14.798099762470308"/>
<line style="stroke-width: 1; stroke: rgb(65 105 225); fill: none" x1="13.972222222222221" x2="19.20253164556962" y1="-35.91203703703704" y2="-52.4746835443038"/>
<line style="stroke-width: 1; stroke: rgb(65 105 225); fill: none" x1="28.531135531135533" x2="-8.782715185444363" y1="22.945054945054945" y2="26.80510846745976"/>
<line style="stroke-width: 1; stroke: rgb(65 105 225); fill: none" x1="-11.264764764764763" x2="16.72566371681416" y1="5.288788788788789" y2="-3.6172566371681416"/>
<line style="stroke-width: 1; stroke: rgb(65 105 225); fill: none" x1="16.72566371681416" x2="28.531135531135533" y1="-3.6172566371681416" y2="22.945054945054945"/>
<line style="stroke-width: 1; stroke: rgb(65 105 225); fill: none" x1="-12.670212765957444" x2="-65.6875" y1="18.5" y2="18.5"/>
<line style="stroke-width: 1; stroke: rgb(65 105 225); fill: none" x1="-65.6875" x2="-76.60263157894737" y1="18.5" y2="11.068421052631578"/>
<line style="stroke-width: 1; stroke: rgb(65 105 225); fill: none" x1="-16.609422492401215" x2="-15.76946107784431" y1="-7.436170212765958" y2="-30.95508982035928"/>
<line style="stroke-width: 1; stroke: rgb(65 105 225); fill: none" x1="19.20253164556962" x2="17.334862385321102" y1="-52.4746835443038" y2="-71.15137614678899"/>
<line style="stroke-width: 1; stroke: rgb(65 105 225); fill: none" x1="56.07754010695187" x2="64.35962014863749" y1="-11.695855614973262" y2="-20.5990916597853"/>
<line style="stroke-width: 1; stroke: rgb(65 105 225); fill: none" x1="-42.5" x2="-76.60263157894737" y1="-11.666666666666668" y2="11.068421052631578"/>
<line style="stroke-width: 1; stroke: rgb(65 105 225); fill: none" x1="-20.1575682382134" x2="-42.5" y1="-37.40818858560794" y2="-50.648148148148145"/>
<line style="stroke-width: 1; stroke: rgb(65 105 225); fill: none" x1="-42.5" x2="-42.5" y1="-50.648148148148145" y2="-11.666666666666668"/>
<line style="stroke-width: 1; stroke: rgb(65 105 225); stroke-dasharray: 4 2; fill: none" x1="-42.5" x2="-150.5" y1="-50.648148148148145" y2="-214.64814814814815"/>
<line style="stroke-width: 1; stroke: rgb(65 105 225); stroke-dasharray: 4 2; fill: none" x1="-76.60263157894737" x2="-384.60263157894735" y1="11.068421052631578" y2="-36.93157894736842"/>
<line style="stroke-width: 1; stroke: rgb(65 105 225); fill: none" x1="-6.490420044215185" x2="38.060273972602744" y1="168.56042741341196" y2="26.80821917808219"/>
<line style="stroke-width: 1; stroke: rgb(65 105 225); stroke-dasharray: 4 2; fill: none" x1="-6.490420044215185" x2="1.5095799557848153" y1="168.56042741341196" y2="636.560427413412"/>
<line style="stroke-width: 1; stroke: rgb(65 105 225); stroke-dasharray: 4 2; fill: none" x1="50.265625" x2="210.265625" y1="21.72265625" y2="125.72265625"/>
<line style="stroke-width: 1; stroke: rgb(65 105 225); fill: none" x1="64.35962014863749" x2="19.20253164556962" y1="-20.5990916597853" y2="-52.4746835443038"/>
<line style="stroke-width: 1; stroke: rgb(65 105 225); stroke-dasharray: 4 2; fill: none" x1="64.35962014863749" x2="292.3596201486375" y1="-20.5990916597853" y2="-144.5990916597853"/>
<line style="stroke-width: 1; stroke: rgb(65 105 225); stroke-dasharray: 4 2; fill: none" x1="17.334862385321102" x2="37.3348623853211" y1="-71.15137614678899" y2="-307.151376146789"/>
</g>
</svg>