<svg viewBox="-59.92 -81.61200000000001 279.84 148.824" width="935" xmlns="http://www.w3.org/2000/svg" xmlns:xlink="http://www.w3.org/1999/xlink">
<defs>
<pattern height="1" id="cdt_scenario_pattern0001" patternTransform="rotate(63.512 0 0) scale(2)" patternUnits="userSpaceOnUse" width="1">
<line stroke="rgb(255 255 255)" stroke-width="1.01" x1="0" x2="0" y1="-0.1" y2="1.1"/>
<line stroke="rgb(211 211 211)" stroke-width="1.01" x1="1" x2="1" y1="-0.1" y2="1.1"/>
</pattern>
</defs>
<rect height="100%" style="fill: url(#cdt_scenario_pattern0001)" width="100%" x="-59.92" y="-81.61200000000001"/>
<g>
<path d="M-35,-35 L-35,35 L-50,-50 z" style="fill: rgb(211 211 211)"/>
<path d="M-50,-50 L-41,-60 L-35,-35 z" style="fill: rgb(211 211 211)"/>
<path d="M-41,61 L-50,-50 L-35,35 z" style="fill: rgb(211 211 211)"/>
<path d="M0,0 L-35,-35 L35,-35 z" style="fill: rgb(211 211 211)"/>
<path d="M-10,15 L0,0 L35,35 z" style="fill: rgb(211 211 211)"/>
<path d="M70,60 L-41,61 L35,35 z" style="fill: rgb(211 211 211)"/>
<path d="M0,0 L35,-35 L35,35 z" style="fill: rgb(211 211 211)"/>
<path d="M40,20 L35,35 L35,-35 z" style="fill: rgb(211 211 211)"/>
<path d="M41,-60 L-20,-40 L41,-70 z" style="fill: rgb(211 211 211)"/>
<path d="M-41,-60 L41,-70 L-20,-40 z" style="fill: rgb(211 211 211)"/>
<path d="M-20,-40 L35,-35 L-35,-35 z" style="fill: rgb(211 211 211)"/>
<path d="M65,-20 L40,20 L41,-20 z" style="fill: rgb(211 211 211)"/>
<path d="M70,-40 L65,-20 L35,-35 z" style="fill: rgb(211 211 211)"/>
<path d="M41,-60 L70,-40 L35,-35 z" style="fill: rgb(211 211 211)"/>
<path d="M41,-70 L70,-40 L41,-60 z" style="fill: rgb(211 211 211)"/>
<path d="M-20,40 L35,35 L-41,61 z" style="fill: rgb(211 211 211)"/>
<path d="M40,20 L65,-20 L70,60 z" style="fill: rgb(211 211 211)"/>
<path d="M65,-20 L70,-40 L70,60 z" style="fill: rgb(211 211 211)"/>
<path d="M-35,-35 L-10,15 L-35,35 z" style="fill: rgb(211 211 211)"/>
<path d="M-10,15 L35,35 L-35,35 z" style="fill: rgb(211 211 211)"/>
<path d="M41,-20 L40,20 L35,-35 z" style="fill: rgb(211 211 211)"/>
<path d="M35,35 L40,20 L70,60 z" style="fill: rgb(211 211 211)"/>
<path d="M35,-35 L-20,-40 L41,-60 z" style="fill: rgb(211 211 211)"/>
<path d="M41,-20 L35,-35 L65,-20 z" style="fill: rgb(211 211 211)"/>
<path d="M-20,-40 L-35,-35 L-41,-60 z" style="fill: rgb(211 211 211)"/>
<path d="M-10,15 L-35,-35 L0,0 z" style="fill: rgb(211 211 211)"/>
<path d="M-20,40 L-35,35 L35,35 z" style="fill: rgb(211 211 211)"/>
<path d="M-35,35 L-20,40 L-41,61 z" style="fill: rgb(211 211 211)"/>
<line style="stroke-width: 1; stroke: rgb(0 0 0); fill: none" x1="-50" x2="-41" y1="-50" y2="-60"/>
<line style="stroke-width: 1; stroke: rgb(0 0 0); fill: none" x1="-35" x2="-41" y1="-35" y2="-60"/>
<line style="stroke-width: 1; stroke: rgb(0 0 0); fill: none" x1="-41" x2="-50" y1="61" y2="-50"/>
<line style="stroke-width: 1; stroke: rgb(0 0 0); fill: none" x1="-41" x2="-20" y1="-60" y2="-40"/>
<line style="stroke-width: 1; stroke: rgb(0 0 0); fill: none" x1="-10" x2="-35" y1="15" y2="35"/>
<line style="stroke-width: 1; stroke: rgb(0 0 0); fill: none" x1="-35" x2="0" y1="-35" y2="0"/>
<line style="stroke-width: 1; stroke: rgb(0 0 0); fill: none" x1="-35" x2="-50" y1="35" y2="-50"/>
<line style="stroke-width: 1; stroke: rgb(139 0 0); fill: none" x1="-35" x2="35" y1="-35" y2="-35"/>
<line style="stroke-width: 1; stroke: rgb(0 0 0); fill: none" x1="0" x2="-10" y1="0" y2="15"/>
<line style="stroke-width: 1; stroke: rgb(139 0 0); fill: none" x1="35" x2="35" y1="-35" y2="35"/>
<line style="stroke-width: 1; stroke: rgb(0 0 0); fill: none" x1="0" x2="35" y1="0" y2="35"/>
<line style="stroke-width: 1; stroke: rgb(0 0 0); fill: none" x1="-41" x2="35" y1="61" y2="35"/>
<line style="stroke-width: 1; stroke: rgb(0 0 0); fill: none" x1="35" x2="0" y1="-35" y2="0"/>
<line style="stroke-width: 1; stroke: rgb(0 0 0); fill: none" x1="-20" x2="41" y1="-40" y2="-60"/>
<line style="stroke-width: 1; stroke: rgb(0 0 0); fill: none" x1="35" x2="40" y1="-35" y2="20"/>
<line style="stroke-width: 1; stroke: rgb(0 0 0); fill: none" x1="-20" x2="41" y1="-40" y2="-70"/>
<line style="stroke-width: 1; stroke: rgb(0 0 0); fill: none" x1="-41" x2="41" y1="-60" y2="-70"/>
<line style="stroke-width: 1; stroke: rgb(0 0 0); fill: none" x1="41" x2="41" y1="-70" y2="-60"/>
<line style="stroke-width: 1; stroke: rgb(0 0 0); fill: none" x1="35" x2="70" y1="-35" y2="-40"/>
<line style="stroke-width: 1; stroke: rgb(0 0 0); fill: none" x1="41" x2="40" y1="-20" y2="20"/>
<line style="stroke-width: 1; stroke: rgb(0 0 0); fill: none" x1="41" x2="65" y1="-20" y2="-20"/>
<line style="stroke-width: 1; stroke: rgb(0 0 0); fill: none" x1="65" x2="40" y1="-20" y2="20"/>
<line style="stroke-width: 1; stroke: rgb(0 0 0); fill: none" x1="65" x2="35" y1="-20" y2="-35"/>
<line style="stroke-width: 1; stroke: rgb(0 0 0); fill: none" x1="41" x2="70" y1="-60" y2="-40"/>
<line style="stroke-width: 1; stroke: rgb(0 0 0); fill: none" x1="41" x2="70" y1="-70" y2="-40"/>
<line style="stroke-width: 1; stroke: rgb(0 0 0); fill: none" x1="70" x2="65" y1="-40" y2="-20"/>
<line style="stroke-width: 1; stroke: rgb(0 0 0); fill: none" x1="40" x2="70" y1="20" y2="60"/>
<line style="stroke-width: 1; stroke: rgb(0 0 0); fill: none" x1="70" x2="-41" y1="60" y2="61"/>
<line style="stroke-width: 1; stroke: rgb(0 0 0); fill: none" x1="65" x2="70" y1="-20" y2="60"/>
<line style="stroke-width: 1; stroke: rgb(0 0 0); fill: none" x1="70" x2="70" y1="-40" y2="60"/>
<line style="stroke-width: 1; stroke: rgb(0 0 0); fill: none" x1="-41" x2="-20" y1="61" y2="40"/>
<line style="stroke-width: 1; stroke: rgb(139 0 0); fill: none" x1="35" x2="-35" y1="35" y2="35"/>
<line style="stroke-width: 1; stroke: rgb(0 0 0); fill: none" x1="-10" x2="35" y1="15" y2="35"/>
<line style="stroke-width: 1; stroke: rgb(0 0 0); fill: none" x1="-20" x2="35" y1="40" y2="35"/>
<line style="stroke-width: 1; stroke: rgb(0 0 0); fill: none" x1="40" x2="35" y1="20" y2="35"/>
<line style="stroke-width: 1; stroke: rgb(0 0 0); fill: none" x1="70" x2="35" y1="60" y2="35"/>
<line style="stroke-width: 1; stroke: rgb(0 0 0); fill: none" x1="-20" x2="35" y1="-40" y2="-35"/>
<line style="stroke-width: 1; stroke: rgb(0 0 0); fill: none" x1="41" x2="35" y1="-60" y2="-35"/>
<line style="stroke-width: 1; stroke: rgb(0 0 0); fill: none" x1="41" x2="35" y1="-20" y2="-35"/>
<line style="stroke-width: 1; stroke: rgb(0 0 0); fill: none" x1="-50" x2="-35" y1="-50" y2="-35"/>
<line style="stroke-width: 1; stroke: rgb(0 0 0); fill: none" x1="-20" x2="-35" y1="-40" y2="-35"/>
<line style="stroke-width: 1; stroke: rgb(0 0 0); fill: none" x1="-10" x2="-35" y1="15" y2="-35"/>
<line style="stroke-width: 1; stroke: rgb(139 0 0); fill: none" x1="-35" x2="-35" y1="-35" y2="35"/>
<line style="stroke-width: 1; stroke: rgb(0 0 0); fill: none" x1="-20" x2="-35" y1="40" y2="35"/>
<line style="stroke-width: 1; stroke: rgb(0 0 0); fill: none" x1="-41" x2="-35" y1="61" y2="35"/>
<line style="stroke-width: 1; stroke: rgb(0 0 0); fill: none" x1="90" x2="99" y1="-50" y2="-60"/>
<line style="stroke-width: 1; stroke: rgb(0 0 0); fill: none" x1="105" x2="99" y1="-35" y2="-60"/>
<line style="stroke-width: 1; stroke: rgb(0 0 0); fill: none" x1="99" x2="90" y1="61" y2="-50"/>
<line style="stroke-width: 1; stroke: rgb(0 0 0); fill: none" x1="99" x2="120" y1="-60" y2="-40"/>
<line style="stroke-width: 1; stroke: rgb(0 0 0); fill: none" x1="130" x2="105" y1="15" y2="35"/>
<line style="stroke-width: 1; stroke: rgb(0 0 0); fill: none" x1="105" x2="140" y1="-35" y2="0"/>
<line style="stroke-width: 1; stroke: rgb(0 0 0); fill: none" x1="105" x2="90" y1="35" y2="-50"/>
<line style="stroke-width: 1; stroke: rgb(0 0 0); fill: none" x1="120" x2="140" y1="-40" y2="0"/>
<line style="stroke-width: 1; stroke: rgb(0 0 0); fill: none" x1="140" x2="130" y1="0" y2="15"/>
<line style="stroke-width: 1; stroke: rgb(0 0 0); fill: none" x1="140" x2="180" y1="0" y2="20"/>
<line style="stroke-width: 1; stroke: rgb(0 0 0); fill: none" x1="140" x2="175" y1="0" y2="35"/>
<line style="stroke-width: 1; stroke: rgb(0 0 0); fill: none" x1="99" x2="175" y1="61" y2="35"/>
<line style="stroke-width: 1; stroke: rgb(0 0 0); fill: none" x1="175" x2="140" y1="-35" y2="0"/>
<line style="stroke-width: 1; stroke: rgb(0 0 0); fill: none" x1="120" x2="181" y1="-40" y2="-60"/>
<line style="stroke-width: 1; stroke: rgb(0 0 0); fill: none" x1="140" x2="181" y1="0" y2="-20"/>
<line style="stroke-width: 1; stroke: rgb(0 0 0); fill: none" x1="120" x2="181" y1="-40" y2="-70"/>
<line style="stroke-width: 1; stroke: rgb(0 0 0); fill: none" x1="99" x2="181" y1="-60" y2="-70"/>
<line style="stroke-width: 1; stroke: rgb(0 0 0); fill: none" x1="181" x2="181" y1="-70" y2="-60"/>
<line style="stroke-width: 1; stroke: rgb(0 0 0); fill: none" x1="175" x2="210" y1="-35" y2="-40"/>
<line style="stroke-width: 1; stroke: rgb(0 0 0); fill: none" x1="181" x2="180" y1="-20" y2="20"/>
<line style="stroke-width: 1; stroke: rgb(0 0 0); fill: none" x1="181" x2="205" y1="-20" y2="-20"/>
<line style="stroke-width: 1; stroke: rgb(0 0 0); fill: none" x1="205" x2="180" y1="-20" y2="20"/>
<line style="stroke-width: 1; stroke: rgb(0 0 0); fill: none" x1="205" x2="175" y1="-20" y2="-35"/>
<line style="stroke-width: 1; stroke: rgb(0 0 0); fill: none" x1="181" x2="210" y1="-60" y2="-40"/>
<line style="stroke-width: 1; stroke: rgb(0 0 0); fill: none" x1="181" x2="210" y1="-70" y2="-40"/>
<line style="stroke-width: 1; stroke: rgb(0 0 0); fill: none" x1="210" x2="205" y1="-40" y2="-20"/>
<line style="stroke-width: 1; stroke: rgb(0 0 0); fill: none" x1="180" x2="210" y1="20" y2="60"/>
<line style="stroke-width: 1; stroke: rgb(0 0 0); fill: none" x1="210" x2="99" y1="60" y2="61"/>
<line style="stroke-width: 1; stroke: rgb(0 0 0); fill: none" x1="205" x2="210" y1="-20" y2="60"/>
<line style="stroke-width: 1; stroke: rgb(0 0 0); fill: none" x1="210" x2="210" y1="-40" y2="60"/>
<line style="stroke-width: 1; stroke: rgb(0 0 0); fill: none" x1="99" x2="120" y1="61" y2="40"/>
<line style="stroke-width: 1; stroke: rgb(0 0 0); fill: none" x1="130" x2="120" y1="15" y2="40"/>
<line style="stroke-width: 1; stroke: rgb(0 0 0); fill: none" x1="130" x2="175" y1="15" y2="35"/>
<line style="stroke-width: 1; stroke: rgb(0 0 0); fill: none" x1="120" x2="175" y1="40" y2="35"/>
<line style="stroke-width: 1; stroke: rgb(0 0 0); fill: none" x1="180" x2="175" y1="20" y2="35"/>
<line style="stroke-width: 1; stroke: rgb(0 0 0); fill: none" x1="210" x2="175" y1="60" y2="35"/>
<line style="stroke-width: 1; stroke: rgb(0 0 0); fill: none" x1="120" x2="175" y1="-40" y2="-35"/>
<line style="stroke-width: 1; stroke: rgb(0 0 0); fill: none" x1="181" x2="175" y1="-60" y2="-35"/>
<line style="stroke-width: 1; stroke: rgb(0 0 0); fill: none" x1="181" x2="175" y1="-20" y2="-35"/>
<line style="stroke-width: 1; stroke: rgb(0 0 0); fill: none" x1="90" x2="105" y1="-50" y2="-35"/>
<line style="stroke-width: 1; stroke: rgb(0 0 0); fill: none" x1="120" x2="105" y1="-40" y2="-35"/>
<line style="stroke-width: 1; stroke: rgb(0 0 0); fill: none" x1="130" x2="105" y1="15" y2="-35"/>
<line style="stroke-width: 1; stroke: rgb(0 0 0); fill: none" x1="105" x2="105" y1="-35" y2="35"/>
<line style="stroke-width: 1; stroke: rgb(0 0 0); fill: none" x1="120" x2="105" y1="40" y2="35"/>
<line style="stroke-width: 1; stroke: rgb(0 0 0); fill: none" x1="99" x2="105" y1="61" y2="35"/>
<circle cx="-50" cy="-50" r="2" style="stroke-width: 0.5; stroke: rgb(0 0 0); fill: rgb(105 105 105)"/>
<circle cx="-41" cy="-60" r="2" style="stroke-width: 0.5; stroke: rgb(0 0 0); fill: rgb(105 105 105)"/>
<circle cx="-41" cy="61" r="2" style="stroke-width: 0.5; stroke: rgb(0 0 0); fill: rgb(105 105 105)"/>
<circle cx="-20" cy="-40" r="2" style="stroke-width: 0.5; stroke: rgb(0 0 0); fill: rgb(105 105 105)"/>
<circle cx="-10" cy="15" r="2" style="stroke-width: 0.5; stroke: rgb(0 0 0); fill: rgb(105 105 105)"/>
<circle cx="0" cy="0" r="2" style="stroke-width: 0.5; stroke: rgb(0 0 0); fill: rgb(105 105 105)"/>
<circle cx="40" cy="20" r="2" style="stroke-width: 0.5; stroke: rgb(0 0 0); fill: rgb(105 105 105)"/>
<circle cx="41" cy="-60" r="2" style="stroke-width: 0.5; stroke: rgb(0 0 0); fill: rgb(105 105 105)"/>
<circle cx="41" cy="-70" r="2" style="stroke-width: 0.5; stroke: rgb(0 0 0); fill: rgb(105 105 105)"/>
<circle cx="41" cy="-20" r="2" style="stroke-width: 0.5; stroke: rgb(0 0 0); fill: rgb(105 105 105)"/>
<circle cx="65" cy="-20" r="2" style="stroke-width: 0.5; stroke: rgb(0 0 0); fill: rgb(105 105 105)"/>
<circle cx="70" cy="-40" r="2" style="stroke-width: 0.5; stroke: rgb(0 0 0); fill: rgb(105 105 105)"/>
<circle cx="70" cy="60" r="2" style="stroke-width: 0.5; stroke: rgb(0 0 0); fill: rgb(105 105 105)"/>
<circle cx="-20" cy="40" r="2" style="stroke-width: 0.5; stroke: rgb(0 0 0); fill: rgb(105 105 105)"/>
<circle cx="35" cy="35" r="2" style="stroke-width: 0.5; stroke: rgb(0 0 0); fill: rgb(105 105 105)"/>
<circle cx="35" cy="-35" r="2" style="stroke-width: 0.5; stroke: rgb(0 0 0); fill: rgb(105 105 105)"/>
<circle cx="-35" cy="-35" r="2" style="stroke-width: 0.5; stroke: rgb(0 0 0); fill: rgb(105 105 105)"/>
<circle cx="-35" cy="35" r="2" style="stroke-width: 0.5; stroke: rgb(0 0 0); fill: rgb(105 105 105)"/>
<circle cx="90" cy="-50" r="2" style="stroke-width: 0.5; stroke: rgb(0 0 0); fill: rgb(105 105 105)"/>
<circle cx="99" cy="-60" r="2" style="stroke-width: 0.5; stroke: rgb(0 0 0); fill: rgb(105 105 105)"/>
<circle cx="99" cy="61" r="2" style="stroke-width: 0.5; stroke: rgb(0 0 0); fill: rgb(105 105 105)"/>
<circle cx="120" cy="-40" r="2" style="stroke-width: 0.5; stroke: rgb(0 0 0); fill: rgb(105 105 105)"/>
<circle cx="130" cy="15" r="2" style="stroke-width: 0.5; stroke: rgb(0 0 0); fill: rgb(105 105 105)"/>
<circle cx="140" cy="0" r="2" style="stroke-width: 0.5; stroke: rgb(0 0 0); fill: rgb(105 105 105)"/>
<circle cx="180" cy="20" r="2" style="stroke-width: 0.5; stroke: rgb(0 0 0); fill: rgb(105 105 105)"/>
<circle cx="181" cy="-60" r="2" style="stroke-width: 0.5; stroke: rgb(0 0 0); fill: rgb(105 105 105)"/>
<circle cx="181" cy="-70" r="2" style="stroke-width: 0.5; stroke: rgb(0 0 0); fill: rgb(105 105 105)"/>
<circle cx="181" cy="-20" r="2" style="stroke-width: 0.5; stroke: rgb(0 0 0); fill: rgb(105 105 105)"/>
<circle cx="205" cy="-20" r="2" style="stroke-width: 0.5; stroke: rgb(0 0 0); fill: rgb(105 105 105)"/>
<circle cx="210" cy="-40" r="2" style="stroke-width: 0.5; stroke: rgb(0 0 0); fill: rgb(105 105 105)"/>
<circle cx="210" cy="60" r="2" style="stroke-width: 0.5; stroke: rgb(0 0 0); fill: rgb(105 105 105)"/>
<circle cx="120" cy="40" r="2" style="stroke-width: 0.5; stroke: rgb(0 0 0); fill: rgb(105 105 105)"/>
<circle cx="175" cy="35" r="2" style="stroke-width: 0.5; stroke: rgb(0 0 0); fill: rgb(105 105 105)"/>
<circle cx="175" cy="-35" r="2" style="stroke-width: 0.5; stroke: rgb(0 0 0); fill: rgb(105 105 105)"/>
<circle cx="105" cy="-35" r="2" style="stroke-width: 0.5; stroke: rgb(0 0 0); fill: rgb(105 105 105)"/>
<circle cx="105" cy="35" r="2" style="stroke-width: 0.5; stroke: rgb(0 0 0); fill: rgb(105 105 105)"/>
<text dy="0" font-size="13" style="fill: rgb(0 0 0)" text-anchor="middle" transform="translate (-30 -67) rotate (0) translate(30 67)" x="-30" y="-67">
CDT
</text>
<text dy="0" font-size="13" style="fill: rgb(0 0 0)" text-anchor="middle" transform="translate (120 -67) rotate (0) translate(-120 67)" x="120" y="-67">
No CDT
</text>
</g>
</svg>