<svg viewBox="-55.75 -41.16 122.5 82.32" width="400" xmlns="http://www.w3.org/2000/svg" xmlns:xlink="http://www.w3.org/1999/xlink">
<defs>
<pattern height="1" id="circular_iterator_pattern0001" patternTransform="rotate(63.512 0 0) scale(2)" patternUnits="userSpaceOnUse" width="1">
<line stroke="rgb(255 255 255)" stroke-width="1.01" x1="0" x2="0" y1="-0.1" y2="1.1"/>
<line stroke="rgb(211 211 211)" stroke-width="1.01" x1="1" x2="1" y1="-0.1" y2="1.1"/>
</pattern>
<marker fill="rgb(0 0 0)" id="circular_iterator_filled_arrow0002" markerHeight="3" markerWidth="5" orient="auto" refX="4" refY="0.5" stroke="none">
<path d="M1,0 L4,0 L0,2 z" transform="scale(-1 1) translate (-5 0)"/>
</marker>
<marker fill="rgb(0 0 0)" id="circular_iterator_filled_arrow0003" markerHeight="3" markerWidth="5" orient="auto" refX="4" refY="0.5" stroke="none">
<path d="M1,0 L4,0 L0,2 z" transform="scale(-1 1) translate (-5 0)"/>
</marker>
<marker fill="rgb(0 0 0)" id="circular_iterator_filled_arrow0004" markerHeight="3" markerWidth="5" orient="auto" refX="4" refY="0.5" stroke="none">
<path d="M1,0 L4,0 L0,2 z" transform="scale(-1 1) translate (-5 0)"/>
</marker>
<marker fill="rgb(0 0 0)" id="circular_iterator_filled_arrow0005" markerHeight="3" markerWidth="5" orient="auto" refX="4" refY="0.5" stroke="none">
<path d="M1,0 L4,0 L0,2 z" transform="scale(-1 1) translate (-5 0)"/>
</marker>
<marker fill="rgb(0 0 0)" id="circular_iterator_filled_arrow0006" markerHeight="3" markerWidth="5" orient="auto" refX="4" refY="0.5" stroke="none">
<path d="M1,0 L4,0 L0,2 z" transform="scale(-1 1) translate (-5 0)"/>
</marker>
<marker fill="rgb(0 0 0)" id="circular_iterator_filled_arrow0007" markerHeight="3" markerWidth="5" orient="auto" refX="4" refY="0.5" stroke="none">
<path d="M1,0 L4,0 L0,2 z" transform="scale(-1 1) translate (-5 0)"/>
</marker>
<marker fill="rgb(0 0 0)" id="circular_iterator_filled_arrow0008" markerHeight="3" markerWidth="5" orient="auto" refX="4" refY="0.5" stroke="none">
<path d="M1,0 L4,0 L0,2 z" transform="scale(-1 1) translate (-5 0)"/>
</marker>
<marker fill="rgb(0 0 0)" id="circular_iterator_filled_arrow0009" markerHeight="3" markerWidth="5" orient="auto" refX="4" refY="0.5" stroke="none">
<path d="M1,0 L4,0 L0,2 z" transform="scale(-1 1) translate (-5 0)"/>
</marker>
<marker fill="rgb(0 0 0)" id="circular_iterator_filled_arrow0010" markerHeight="3" markerWidth="5" orient="auto" refX="4" refY="0.5" stroke="none">
<path d="M1,0 L4,0 L0,2 z" transform="scale(-1 1) translate (-5 0)"/>
</marker>
<marker fill="rgb(0 0 0)" id="circular_iterator_filled_arrow0011" markerHeight="3" markerWidth="5" orient="auto" refX="4" refY="0.5" stroke="none">
<path d="M1,0 L4,0 L0,2 z" transform="scale(-1 1) translate (-5 0)"/>
</marker>
<marker fill="rgb(0 0 0)" id="circular_iterator_filled_arrow0012" markerHeight="3" markerWidth="5" orient="auto" refX="4" refY="0.5" stroke="none">
<path d="M1,0 L4,0 L0,2 z" transform="scale(-1 1) translate (-5 0)"/>
</marker>
<marker fill="rgb(0 0 0)" id="circular_iterator_filled_arrow0013" markerHeight="3" markerWidth="5" orient="auto" refX="4" refY="0.5" stroke="none">
<path d="M1,0 L4,0 L0,2 z" transform="scale(-1 1) translate (-5 0)"/>
</marker>
<marker fill="rgb(0 0 0)" id="circular_iterator_filled_arrow0014" markerHeight="3" markerWidth="5" orient="auto" refX="4" refY="0.5" stroke="none">
<path d="M1,0 L4,0 L0,2 z" transform="scale(-1 1) translate (-5 0)"/>
</marker>
<marker fill="rgb(0 0 0)" id="circular_iterator_filled_arrow0015" markerHeight="3" markerWidth="5" orient="auto" refX="4" refY="0.5" stroke="none">
<path d="M1,0 L4,0 L0,2 z" transform="scale(-1 1) translate (-5 0)"/>
</marker>
<marker fill="rgb(0 0 0)" id="circular_iterator_filled_arrow0016" markerHeight="3" markerWidth="5" orient="auto" refX="4" refY="0.5" stroke="none">
<path d="M1,0 L4,0 L0,2 z" transform="scale(-1 1) translate (-5 0)"/>
</marker>
<marker fill="rgb(0 0 0)" id="circular_iterator_filled_arrow0017" markerHeight="3" markerWidth="5" orient="auto" refX="4" refY="0.5" stroke="none">
<path d="M1,0 L4,0 L0,2 z" transform="scale(-1 1) translate (-5 0)"/>
</marker>
<marker fill="rgb(0 0 0)" id="circular_iterator_filled_arrow0018" markerHeight="3" markerWidth="5" orient="auto" refX="4" refY="0.5" stroke="none">
<path d="M1,0 L4,0 L0,2 z" transform="scale(-1 1) translate (-5 0)"/>
</marker>
<marker fill="rgb(0 0 0)" id="circular_iterator_filled_arrow0019" markerHeight="3" markerWidth="5" orient="auto" refX="4" refY="0.5" stroke="none">
<path d="M1,0 L4,0 L0,2 z" transform="scale(-1 1) translate (-5 0)"/>
</marker>
<marker fill="rgb(0 0 0)" id="circular_iterator_filled_arrow0020" markerHeight="3" markerWidth="5" orient="auto" refX="4" refY="0.5" stroke="none">
<path d="M1,0 L4,0 L0,2 z" transform="scale(-1 1) translate (-5 0)"/>
</marker>
<marker fill="rgb(0 0 0)" id="circular_iterator_filled_arrow0021" markerHeight="3" markerWidth="5" orient="auto" refX="4" refY="0.5" stroke="none">
<path d="M1,0 L4,0 L0,2 z" transform="scale(-1 1) translate (-5 0)"/>
</marker>
<marker fill="rgb(0 0 0)" id="circular_iterator_filled_arrow0022" markerHeight="3" markerWidth="5" orient="auto" refX="4" refY="0.5" stroke="none">
<path d="M1,0 L4,0 L0,2 z" transform="scale(-1 1) translate (-5 0)"/>
</marker>
<marker fill="rgb(0 0 0)" id="circular_iterator_filled_arrow0023" markerHeight="3" markerWidth="5" orient="auto" refX="4" refY="0.5" stroke="none">
<path d="M1,0 L4,0 L0,2 z" transform="scale(-1 1) translate (-5 0)"/>
</marker>
<marker fill="rgb(0 0 0)" id="circular_iterator_filled_arrow0024" markerHeight="3" markerWidth="5" orient="auto" refX="4" refY="0.5" stroke="none">
<path d="M1,0 L4,0 L0,2 z" transform="scale(-1 1) translate (-5 0)"/>
</marker>
<marker fill="rgb(0 0 0)" id="circular_iterator_filled_arrow0025" markerHeight="3" markerWidth="5" orient="auto" refX="4" refY="0.5" stroke="none">
<path d="M1,0 L4,0 L0,2 z" transform="scale(-1 1) translate (-5 0)"/>
</marker>
<marker fill="rgb(0 0 0)" id="circular_iterator_filled_arrow0026" markerHeight="3" markerWidth="5" orient="auto" refX="4" refY="0.5" stroke="none">
<path d="M1,0 L4,0 L0,2 z" transform="scale(-1 1) translate (-5 0)"/>
</marker>
<marker fill="rgb(0 0 0)" id="circular_iterator_filled_arrow0027" markerHeight="3" markerWidth="5" orient="auto" refX="4" refY="0.5" stroke="none">
<path d="M1,0 L4,0 L0,2 z" transform="scale(-1 1) translate (-5 0)"/>
</marker>
<marker fill="rgb(0 0 0)" id="circular_iterator_filled_arrow0028" markerHeight="3" markerWidth="5" orient="auto" refX="4" refY="0.5" stroke="none">
<path d="M1,0 L4,0 L0,2 z" transform="scale(-1 1) translate (-5 0)"/>
</marker>
<marker fill="rgb(0 0 0)" id="circular_iterator_filled_arrow0029" markerHeight="3" markerWidth="5" orient="auto" refX="4" refY="0.5" stroke="none">
<path d="M1,0 L4,0 L0,2 z" transform="scale(-1 1) translate (-5 0)"/>
</marker>
<marker fill="rgb(65 105 225)" id="circular_iterator_filled_arrow0030" markerHeight="3" markerWidth="5" orient="auto" refX="4.9" refY="1.5" stroke="none">
<path d="M0,0 L5,1.5 L0,3 z" transform="scale(-1 1) translate (-5 0)"/>
</marker>
<marker fill="rgb(65 105 225)" id="circular_iterator_filled_arrow0031" markerHeight="3" markerWidth="5" orient="auto" refX="4.9" refY="1.5" stroke="none">
<path d="M0,0 L5,1.5 L0,3 z" transform="scale(-1 1) translate (-5 0)"/>
</marker>
</defs>
<rect height="100%" style="fill: url(#circular_iterator_pattern0001)" width="100%" x="-55.75" y="-41.16"/>
<g>
<path d="M6,40 L0,0 L60,40 z" style="fill: rgb(211 211 211)"/>
<path d="M-55,5 L0,0 L-45,25 z" style="fill: rgb(211 211 211)"/>
<path d="M66,-5 L60,40 L0,0 z" style="fill: rgb(211 211 211)"/>
<path d="M6,40 L-45,25 L0,0 z" style="fill: rgb(211 211 211)"/>
<path d="M45,-40 L66,-5 L0,0 z" style="fill: rgb(211 211 211)"/>
<path d="M45,-40 L0,0 L-49,-30 z" style="fill: rgb(211 211 211)"/>
<path d="M-55,5 L-49,-30 L0,0 z" style="fill: rgb(211 211 211)"/>
<line style="stroke-width: 0.7; stroke: rgb(0 0 0); marker-start: url(#circular_iterator_filled_arrow0002); fill: none" x1="5.525" x2="63.05" y1="0.15" y2="-4.225"/>
<line style="stroke-width: 0.7; stroke: rgb(0 0 0); marker-start: url(#circular_iterator_filled_arrow0003); fill: none" x1="60.475" x2="2.95" y1="-5.15" y2="-0.775"/>
<line style="stroke-width: 0.7; stroke: rgb(0 0 0); marker-start: url(#circular_iterator_filled_arrow0004); fill: none" x1="4.275" x2="57.2" y1="3.525" y2="38.8"/>
<line style="stroke-width: 0.7; stroke: rgb(0 0 0); marker-start: url(#circular_iterator_filled_arrow0005); fill: none" x1="55.725" x2="2.8" y1="36.475" y2="1.2"/>
<line style="stroke-width: 0.7; stroke: rgb(0 0 0); marker-start: url(#circular_iterator_filled_arrow0006); fill: none" x1="5.75" x2="1" y1="34.475" y2="2.875"/>
<line style="stroke-width: 0.7; stroke: rgb(0 0 0); marker-start: url(#circular_iterator_filled_arrow0007); fill: none" x1="0.25" x2="5" y1="5.525" y2="37.125"/>
<line style="stroke-width: 0.7; stroke: rgb(0 0 0); marker-start: url(#circular_iterator_filled_arrow0008); fill: none" x1="-5.075" x2="-42.65" y1="2.175" y2="23.05"/>
<line style="stroke-width: 0.7; stroke: rgb(0 0 0); marker-start: url(#circular_iterator_filled_arrow0009); fill: none" x1="-39.925" x2="-2.35" y1="22.825" y2="1.95"/>
<line style="stroke-width: 0.7; stroke: rgb(0 0 0); marker-start: url(#circular_iterator_filled_arrow0010); fill: none" x1="-49.475" x2="-2.925" y1="5.05" y2="0.825"/>
<line style="stroke-width: 0.7; stroke: rgb(0 0 0); marker-start: url(#circular_iterator_filled_arrow0011); fill: none" x1="-5.525" x2="-52.075" y1="-0.05" y2="4.175"/>
<line style="stroke-width: 0.7; stroke: rgb(0 0 0); marker-start: url(#circular_iterator_filled_arrow0012); fill: none" x1="64.725" x2="59.85" y1="0.375" y2="36.95"/>
<line style="stroke-width: 0.7; stroke: rgb(0 0 0); marker-start: url(#circular_iterator_filled_arrow0013); fill: none" x1="61.275" x2="66.15" y1="34.625" y2="-1.95"/>
<line style="stroke-width: 0.7; stroke: rgb(0 0 0); marker-start: url(#circular_iterator_filled_arrow0014); fill: none" x1="54.5" x2="9" y1="39.45" y2="39.45"/>
<line style="stroke-width: 0.7; stroke: rgb(0 0 0); marker-start: url(#circular_iterator_filled_arrow0015); fill: none" x1="11.5" x2="57" y1="40.55" y2="40.55"/>
<line style="stroke-width: 0.7; stroke: rgb(0 0 0); marker-start: url(#circular_iterator_filled_arrow0016); fill: none" x1="0.875" x2="-41.975" y1="37.9" y2="25.3"/>
<line style="stroke-width: 0.7; stroke: rgb(0 0 0); marker-start: url(#circular_iterator_filled_arrow0017); fill: none" x1="-39.875" x2="2.975" y1="27.1" y2="39.7"/>
<line style="stroke-width: 0.7; stroke: rgb(0 0 0); marker-start: url(#circular_iterator_filled_arrow0018); fill: none" x1="-46.95" x2="-53.15" y1="19.825" y2="7.425"/>
<line style="stroke-width: 0.7; stroke: rgb(0 0 0); marker-start: url(#circular_iterator_filled_arrow0019); fill: none" x1="-53.05" x2="-46.85" y1="10.175" y2="22.575"/>
<line style="stroke-width: 0.7; stroke: rgb(0 0 0); marker-start: url(#circular_iterator_filled_arrow0020); fill: none" x1="4.475" x2="43.125" y1="-3.225" y2="-37.6"/>
<line style="stroke-width: 0.7; stroke: rgb(0 0 0); marker-start: url(#circular_iterator_filled_arrow0021); fill: none" x1="40.525" x2="1.875" y1="-36.775" y2="-2.4"/>
<line style="stroke-width: 0.7; stroke: rgb(0 0 0); marker-start: url(#circular_iterator_filled_arrow0022); fill: none" x1="47.35" x2="63.975" y1="-35" y2="-7.275"/>
<line style="stroke-width: 0.7; stroke: rgb(0 0 0); marker-start: url(#circular_iterator_filled_arrow0023); fill: none" x1="63.65" x2="47.025" y1="-10" y2="-37.725"/>
<line style="stroke-width: 0.7; stroke: rgb(0 0 0); marker-start: url(#circular_iterator_filled_arrow0024); fill: none" x1="-4.4" x2="-46.15" y1="-3.35" y2="-28.9"/>
<line style="stroke-width: 0.7; stroke: rgb(0 0 0); marker-start: url(#circular_iterator_filled_arrow0025); fill: none" x1="-44.6" x2="-2.85" y1="-26.65" y2="-1.1"/>
<line style="stroke-width: 0.7; stroke: rgb(0 0 0); marker-start: url(#circular_iterator_filled_arrow0026); fill: none" x1="-53.525" x2="-48.95" y1="-0.325" y2="-26.95"/>
<line style="stroke-width: 0.7; stroke: rgb(0 0 0); marker-start: url(#circular_iterator_filled_arrow0027); fill: none" x1="-50.475" x2="-55.05" y1="-24.675" y2="1.95"/>
<line style="stroke-width: 0.7; stroke: rgb(0 0 0); marker-start: url(#circular_iterator_filled_arrow0028); fill: none" x1="-43.475" x2="42.075" y1="-30.025" y2="-39.125"/>
<line style="stroke-width: 0.7; stroke: rgb(0 0 0); marker-start: url(#circular_iterator_filled_arrow0029); fill: none" x1="39.475" x2="-46.075" y1="-39.975" y2="-30.875"/>
<circle cx="0" cy="0" r="3.5" style="stroke-width: 0.5; stroke: rgb(0 0 0); fill: rgb(105 105 105)"/>
<circle cx="66" cy="-5" r="2" style="stroke-width: 0.5; stroke: rgb(0 0 0); fill: rgb(105 105 105)"/>
<circle cx="6" cy="40" r="2" style="stroke-width: 0.5; stroke: rgb(0 0 0); fill: rgb(105 105 105)"/>
<circle cx="-55" cy="5" r="2" style="stroke-width: 0.5; stroke: rgb(0 0 0); fill: rgb(105 105 105)"/>
<circle cx="60" cy="40" r="2" style="stroke-width: 0.5; stroke: rgb(0 0 0); fill: rgb(105 105 105)"/>
<circle cx="-45" cy="25" r="2" style="stroke-width: 0.5; stroke: rgb(0 0 0); fill: rgb(105 105 105)"/>
<circle cx="45" cy="-40" r="2" style="stroke-width: 0.5; stroke: rgb(0 0 0); fill: rgb(105 105 105)"/>
<circle cx="-49" cy="-30" r="2" style="stroke-width: 0.5; stroke: rgb(0 0 0); fill: rgb(105 105 105)"/>
<text dy="-2" font-size="8" style="fill: rgb(0 0 0)" text-anchor="middle" transform="translate (33 -2.5) rotate (-4.332313983188513) translate(-33 2.5)" x="33" y="-2.5">
e6
</text>
<text dy="-2" font-size="8" style="fill: rgb(0 0 0)" text-anchor="middle" transform="translate (30 20) rotate (33.690067525979785) translate(-30 -20)" x="30" y="20">
e5
</text>
<text dy="-2" font-size="8" style="fill: rgb(0 0 0)" text-anchor="middle" transform="translate (3 20) rotate (81.46923439005187) translate(-3 -20)" x="3" y="20">
e4
</text>
<text dy="7" font-size="8" style="fill: rgb(0 0 0)" text-anchor="middle" transform="translate (-22.5 12.5) rotate (-29.05460409907714) translate(22.5 -12.5)" x="-22.5" y="12.5">
e3
</text>
<text dy="7" font-size="8" style="fill: rgb(0 0 0)" text-anchor="middle" transform="translate (-27.5 2.5) rotate (-5.194428907734803) translate(27.5 -2.5)" x="-27.5" y="2.5">
e2
</text>
<text dy="7" font-size="8" style="fill: rgb(0 0 0)" text-anchor="middle" transform="translate (-24.5 -15) rotate (31.476839349583983) translate(24.5 15)" x="-24.5" y="-15">
e1
</text>
<text dy="-2" font-size="8" style="fill: rgb(0 0 0)" text-anchor="middle" transform="translate (22.5 -20) rotate (-41.633539336570195) translate(-22.5 20)" x="22.5" y="-20">
e0
</text>
<text dy="2.1" font-size="7" style="fill: rgb(0 0 0)" text-anchor="middle" transform="translate (0 0) rotate (0) translate(-0 -0)" x="0" y="0">
v
</text>
<path d="M0,-10 A10,10,0,0,1,6.427876,7.6604443" style="stroke-width: 1; stroke: rgb(65 105 225); marker-start: url(#circular_iterator_filled_arrow0030); fill: none"/>
<path d="M0,10 A10,10,0,0,1,-6.427876,-7.6604443" style="stroke-width: 1; stroke: rgb(65 105 225); marker-start: url(#circular_iterator_filled_arrow0031); fill: none"/>
</g>
</svg>