<svg viewBox="-84.45328377468651 -66.8208203515515 185.43940529623814 131.80453129260164" width="500" xmlns="http://www.w3.org/2000/svg" xmlns:xlink="http://www.w3.org/1999/xlink">
<defs>
<pattern height="1" id="circumcircle_pattern0001" patternTransform="rotate(63.512 0 0) scale(2)" patternUnits="userSpaceOnUse" width="1">
<line stroke="rgb(255 255 255)" stroke-width="1.01" x1="0" x2="0" y1="-0.1" y2="1.1"/>
<line stroke="rgb(211 211 211)" stroke-width="1.01" x1="1" x2="1" y1="-0.1" y2="1.1"/>
</pattern>
</defs>
<rect height="100%" style="fill: url(#circumcircle_pattern0001)" width="100%" x="-84.45328377468651" y="-66.8208203515515"/>
<g>
<path d="M-2,-24 L5,-12 L-30,-25 z" style="fill: rgb(211 211 211)"/>
<path d="M-2,-24 L33,-30 L5,-12 z" style="fill: rgb(211 211 211)"/>
<path d="M12,10 L30,2 L15,39 z" style="fill: rgb(211 211 211)"/>
<path d="M15,39 L-35,32 L12,10 z" style="fill: rgb(211 211 211)"/>
<path d="M-14,-52 L-5,-42 L-30,-25 z" style="fill: rgb(211 211 211)"/>
<path d="M30,2 L5,-12 L33,-30 z" style="fill: rgb(211 211 211)"/>
<path d="M-2,-24 L-30,-25 L-5,-42 z" style="fill: rgb(211 211 211)"/>
<path d="M-67,52 L-35,32 L15,39 z" style="fill: rgb(211 211 211)"/>
<path d="M-35,32 L-35,5 L12,10 z" style="fill: rgb(211 211 211)"/>
<path d="M15,39 L30,2 L50,50 z" style="fill: rgb(211 211 211)"/>
<path d="M76,10 L30,2 L33,-30 z" style="fill: rgb(211 211 211)"/>
<path d="M-5,-42 L33,-30 L-2,-24 z" style="fill: rgb(211 211 211)"/>
<path d="M5,-12 L12,10 L-35,5 z" style="fill: rgb(211 211 211)"/>
<path d="M12,10 L5,-12 L30,2 z" style="fill: rgb(211 211 211)"/>
<path d="M-35,5 L-35,32 L-67,52 z" style="fill: rgb(211 211 211)"/>
<path d="M-35,5 L-30,-25 L5,-12 z" style="fill: rgb(211 211 211)"/>
<path d="M33,-30 L-5,-42 L45,-47 z" style="fill: rgb(211 211 211)"/>
<path d="M-30,-25 L-35,5 L-55,-25 z" style="fill: rgb(211 211 211)"/>
<path d="M-55,-25 L-14,-52 L-30,-25 z" style="fill: rgb(211 211 211)"/>
<path d="M-67,52 L-55,-25 L-35,5 z" style="fill: rgb(211 211 211)"/>
<path d="M50,50 L-67,52 L15,39 z" style="fill: rgb(211 211 211)"/>
<path d="M76,10 L50,50 L30,2 z" style="fill: rgb(211 211 211)"/>
<path d="M45,-47 L76,10 L33,-30 z" style="fill: rgb(211 211 211)"/>
<path d="M-14,-52 L45,-47 L-5,-42 z" style="fill: rgb(211 211 211)"/>
<line style="stroke-width: 1; stroke: rgb(0 0 0); fill: none" x1="-35" x2="12" y1="5" y2="10"/>
<line style="stroke-width: 1; stroke: rgb(0 0 0); fill: none" x1="30" x2="15" y1="2" y2="39"/>
<line style="stroke-width: 1; stroke: rgb(0 0 0); fill: none" x1="33" x2="-2" y1="-30" y2="-24"/>
<line style="stroke-width: 1; stroke: rgb(0 0 0); fill: none" x1="5" x2="33" y1="-12" y2="-30"/>
<line style="stroke-width: 1; stroke: rgb(0 0 0); fill: none" x1="30" x2="5" y1="2" y2="-12"/>
<line style="stroke-width: 1; stroke: rgb(0 0 0); fill: none" x1="12" x2="-35" y1="10" y2="32"/>
<line style="stroke-width: 1; stroke: rgb(0 0 0); fill: none" x1="-5" x2="-30" y1="-42" y2="-25"/>
<line style="stroke-width: 1; stroke: rgb(0 0 0); fill: none" x1="-35" x2="15" y1="32" y2="39"/>
<line style="stroke-width: 1; stroke: rgb(0 0 0); fill: none" x1="5" x2="-35" y1="-12" y2="5"/>
<line style="stroke-width: 1; stroke: rgb(0 0 0); fill: none" x1="-5" x2="-2" y1="-42" y2="-24"/>
<line style="stroke-width: 1; stroke: rgb(0 0 0); fill: none" x1="5" x2="-2" y1="-12" y2="-24"/>
<line style="stroke-width: 1; stroke: rgb(0 0 0); fill: none" x1="-30" x2="5" y1="-25" y2="-12"/>
<line style="stroke-width: 1; stroke: rgb(0 0 0); fill: none" x1="-67" x2="-35" y1="52" y2="32"/>
<line style="stroke-width: 1; stroke: rgb(0 0 0); fill: none" x1="-67" x2="15" y1="52" y2="39"/>
<line style="stroke-width: 1; stroke: rgb(0 0 0); fill: none" x1="-14" x2="-5" y1="-52" y2="-42"/>
<line style="stroke-width: 1; stroke: rgb(0 0 0); fill: none" x1="-30" x2="-35" y1="-25" y2="5"/>
<line style="stroke-width: 1; stroke: rgb(0 0 0); fill: none" x1="30" x2="50" y1="2" y2="50"/>
<line style="stroke-width: 1; stroke: rgb(0 0 0); fill: none" x1="76" x2="30" y1="10" y2="2"/>
<line style="stroke-width: 1; stroke: rgb(0 0 0); fill: none" x1="33" x2="30" y1="-30" y2="2"/>
<line style="stroke-width: 1; stroke: rgb(0 0 0); fill: none" x1="33" x2="-5" y1="-30" y2="-42"/>
<line style="stroke-width: 1; stroke: rgb(0 0 0); fill: none" x1="15" x2="12" y1="39" y2="10"/>
<line style="stroke-width: 1; stroke: rgb(0 0 0); fill: none" x1="5" x2="12" y1="-12" y2="10"/>
<line style="stroke-width: 1; stroke: rgb(0 0 0); fill: none" x1="30" x2="12" y1="2" y2="10"/>
<line style="stroke-width: 1; stroke: rgb(0 0 0); fill: none" x1="-35" x2="-35" y1="32" y2="5"/>
<line style="stroke-width: 1; stroke: rgb(0 0 0); fill: none" x1="-67" x2="-35" y1="52" y2="5"/>
<line style="stroke-width: 1; stroke: rgb(0 0 0); fill: none" x1="-30" x2="-2" y1="-25" y2="-24"/>
<line style="stroke-width: 1; stroke: rgb(0 0 0); fill: none" x1="33" x2="76" y1="-30" y2="10"/>
<line style="stroke-width: 1; stroke: rgb(0 0 0); fill: none" x1="45" x2="-5" y1="-47" y2="-42"/>
<line style="stroke-width: 1; stroke: rgb(0 0 0); fill: none" x1="-30" x2="-14" y1="-25" y2="-52"/>
<line style="stroke-width: 1; stroke: rgb(0 0 0); fill: none" x1="-55" x2="-35" y1="-25" y2="5"/>
<line style="stroke-width: 1; stroke: rgb(0 0 0); fill: none" x1="-55" x2="-14" y1="-25" y2="-52"/>
<line style="stroke-width: 1; stroke: rgb(0 0 0); fill: none" x1="-55" x2="-30" y1="-25" y2="-25"/>
<line style="stroke-width: 1; stroke: rgb(0 0 0); fill: none" x1="-55" x2="-67" y1="-25" y2="52"/>
<line style="stroke-width: 1; stroke: rgb(0 0 0); fill: none" x1="50" x2="-67" y1="50" y2="52"/>
<line style="stroke-width: 1; stroke: rgb(0 0 0); fill: none" x1="50" x2="15" y1="50" y2="39"/>
<line style="stroke-width: 1; stroke: rgb(0 0 0); fill: none" x1="50" x2="76" y1="50" y2="10"/>
<line style="stroke-width: 1; stroke: rgb(0 0 0); fill: none" x1="45" x2="76" y1="-47" y2="10"/>
<line style="stroke-width: 1; stroke: rgb(0 0 0); fill: none" x1="45" x2="33" y1="-47" y2="-30"/>
<line style="stroke-width: 1; stroke: rgb(0 0 0); fill: none" x1="45" x2="-14" y1="-47" y2="-52"/>
<circle cx="15" cy="39" r="2" style="stroke-width: 0.5; stroke: rgb(0 0 0); fill: rgb(105 105 105)"/>
<circle cx="-5" cy="-42" r="2" style="stroke-width: 0.5; stroke: rgb(0 0 0); fill: rgb(105 105 105)"/>
<circle cx="30" cy="2" r="2" style="stroke-width: 0.5; stroke: rgb(0 0 0); fill: rgb(105 105 105)"/>
<circle cx="5" cy="-12" r="2" style="stroke-width: 0.5; stroke: rgb(0 0 0); fill: rgb(105 105 105)"/>
<circle cx="-35" cy="32" r="2" style="stroke-width: 0.5; stroke: rgb(0 0 0); fill: rgb(105 105 105)"/>
<circle cx="-2" cy="-24" r="2" style="stroke-width: 0.5; stroke: rgb(0 0 0); fill: rgb(105 105 105)"/>
<circle cx="-67" cy="52" r="2" style="stroke-width: 0.5; stroke: rgb(0 0 0); fill: rgb(105 105 105)"/>
<circle cx="-14" cy="-52" r="2" style="stroke-width: 0.5; stroke: rgb(0 0 0); fill: rgb(105 105 105)"/>
<circle cx="76" cy="10" r="2" style="stroke-width: 0.5; stroke: rgb(0 0 0); fill: rgb(105 105 105)"/>
<circle cx="12" cy="10" r="2" style="stroke-width: 0.5; stroke: rgb(0 0 0); fill: rgb(105 105 105)"/>
<circle cx="-35" cy="5" r="2" style="stroke-width: 0.5; stroke: rgb(0 0 0); fill: rgb(105 105 105)"/>
<circle cx="33" cy="-30" r="2" style="stroke-width: 0.5; stroke: rgb(0 0 0); fill: rgb(105 105 105)"/>
<circle cx="-30" cy="-25" r="2" style="stroke-width: 0.5; stroke: rgb(0 0 0); fill: rgb(105 105 105)"/>
<circle cx="-55" cy="-25" r="2" style="stroke-width: 0.5; stroke: rgb(0 0 0); fill: rgb(105 105 105)"/>
<circle cx="50" cy="50" r="2" style="stroke-width: 0.5; stroke: rgb(0 0 0); fill: rgb(105 105 105)"/>
<circle cx="45" cy="-47" r="2" style="stroke-width: 0.5; stroke: rgb(0 0 0); fill: rgb(105 105 105)"/>
<circle cx="22.986935866983373" cy="-14.798099762470308" r="18.20327509443587" style="stroke-width: 0.5; stroke: rgb(65 105 225); fill: none"/>
<circle cx="-15.76946107784431" cy="-30.95508982035928" r="15.426319482739059" style="stroke-width: 0.5; stroke: rgb(65 105 225); fill: none"/>
<circle cx="-12.670212765957444" cy="18.5" r="26.09347424007792" style="stroke-width: 0.5; stroke: rgb(65 105 225); fill: none"/>
<circle cx="38.060273972602744" cy="26.80821917808219" r="26.084780146690566" style="stroke-width: 0.5; stroke: rgb(65 105 225); fill: none"/>
<circle cx="56.07754010695187" cy="-11.695855614973262" r="29.455297639913233" style="stroke-width: 0.5; stroke: rgb(65 105 225); fill: none"/>
<circle cx="13.972222222222221" cy="-35.91203703703704" r="19.92507237346433" style="stroke-width: 0.5; stroke: rgb(65 105 225); fill: none"/>
<circle cx="-11.264764764764763" cy="5.288788788788789" r="23.736992030088444" style="stroke-width: 0.5; stroke: rgb(65 105 225); fill: none"/>
</g>
</svg>