<svg viewBox="-83.7 -64.8 176.4 129.6" width="500" xmlns="http://www.w3.org/2000/svg" xmlns:xlink="http://www.w3.org/1999/xlink">
<defs>
<pattern height="1" id="pattern0001" patternTransform="rotate(63.512 0 0) scale(2)" patternUnits="userSpaceOnUse" width="1">
<line stroke="rgb(255 255 255)" stroke-width="1.01" x1="0" x2="0" y1="-0.1" y2="1.1"/>
<line stroke="rgb(211 211 211)" stroke-width="1.01" x1="1" x2="1" y1="-0.1" y2="1.1"/>
</pattern>
</defs>
<rect height="100%" style="fill: url(#pattern0001)" width="100%" x="-83.7" y="-64.8"/>
<g>
<path d="M-2,-24 L5,-12 L-30,-25 z" style="fill: rgb(211 211 211)"/>
<path d="M5,-12 L-2,-24 L33,-30 z" style="fill: rgb(211 211 211)"/>
<path d="M12,10 L30,2 L15,42 z" style="fill: rgb(211 211 211)"/>
<path d="M15,42 L-35,32 L12,10 z" style="fill: rgb(211 211 211)"/>
<path d="M-5,-42 L-2,-24 L-30,-25 z" style="fill: rgb(211 211 211)"/>
<path d="M30,2 L5,-12 L33,-30 z" style="fill: rgb(211 211 211)"/>
<path d="M-35,32 L-40,5 L12,10 z" style="fill: rgb(211 211 211)"/>
<path d="M-67,52 L-35,32 L15,42 z" style="fill: rgb(211 211 211)"/>
<path d="M-2,-24 L-5,-42 L33,-30 z" style="fill: rgb(211 211 211)"/>
<path d="M1,-52 L-5,-42 L-55,-25 z" style="fill: rgb(211 211 211)"/>
<path d="M15,42 L30,2 L55,50 z" style="fill: rgb(211 211 211)"/>
<path d="M76,10 L30,2 L60,-37 z" style="fill: rgb(211 211 211)"/>
<path d="M5,-12 L12,10 L-40,5 z" style="fill: rgb(211 211 211)"/>
<path d="M12,10 L5,-12 L30,2 z" style="fill: rgb(211 211 211)"/>
<path d="M-67,52 L-40,5 L-35,32 z" style="fill: rgb(211 211 211)"/>
<path d="M1,-52 L33,-30 L-5,-42 z" style="fill: rgb(211 211 211)"/>
<path d="M-40,5 L-30,-25 L5,-12 z" style="fill: rgb(211 211 211)"/>
<path d="M-30,-25 L-40,5 L-55,-25 z" style="fill: rgb(211 211 211)"/>
<path d="M-30,-25 L-55,-25 L-5,-42 z" style="fill: rgb(211 211 211)"/>
<path d="M-67,52 L-55,-25 L-40,5 z" style="fill: rgb(211 211 211)"/>
<path d="M55,50 L-67,52 L15,42 z" style="fill: rgb(211 211 211)"/>
<path d="M76,10 L55,50 L30,2 z" style="fill: rgb(211 211 211)"/>
<path d="M33,-30 L60,-37 L30,2 z" style="fill: rgb(211 211 211)"/>
<path d="M60,-37 L33,-30 L1,-52 z" style="fill: rgb(211 211 211)"/>
<line style="stroke-width: 1; stroke: rgb(0 0 0)" x1="-40" x2="12" y1="5" y2="10"/>
<line style="stroke-width: 1; stroke: rgb(0 0 0)" x1="30" x2="15" y1="2" y2="42"/>
<line style="stroke-width: 1; stroke: rgb(0 0 0)" x1="-5" x2="33" y1="-42" y2="-30"/>
<line style="stroke-width: 1; stroke: rgb(0 0 0)" x1="33" x2="-2" y1="-30" y2="-24"/>
<line style="stroke-width: 1; stroke: rgb(0 0 0)" x1="30" x2="5" y1="2" y2="-12"/>
<line style="stroke-width: 1; stroke: rgb(0 0 0)" x1="12" x2="-35" y1="10" y2="32"/>
<line style="stroke-width: 1; stroke: rgb(0 0 0)" x1="-30" x2="5" y1="-25" y2="-12"/>
<line style="stroke-width: 1; stroke: rgb(0 0 0)" x1="-35" x2="15" y1="32" y2="42"/>
<line style="stroke-width: 1; stroke: rgb(0 0 0)" x1="5" x2="-40" y1="-12" y2="5"/>
<line style="stroke-width: 1; stroke: rgb(0 0 0)" x1="-5" x2="-2" y1="-42" y2="-24"/>
<line style="stroke-width: 1; stroke: rgb(0 0 0)" x1="5" x2="-2" y1="-12" y2="-24"/>
<line style="stroke-width: 1; stroke: rgb(0 0 0)" x1="-35" x2="-40" y1="32" y2="5"/>
<line style="stroke-width: 1; stroke: rgb(0 0 0)" x1="-67" x2="-35" y1="52" y2="32"/>
<line style="stroke-width: 1; stroke: rgb(0 0 0)" x1="-67" x2="15" y1="52" y2="42"/>
<line style="stroke-width: 1; stroke: rgb(0 0 0)" x1="5" x2="33" y1="-12" y2="-30"/>
<line style="stroke-width: 1; stroke: rgb(0 0 0)" x1="1" x2="-5" y1="-52" y2="-42"/>
<line style="stroke-width: 1; stroke: rgb(0 0 0)" x1="-2" x2="-30" y1="-24" y2="-25"/>
<line style="stroke-width: 1; stroke: rgb(0 0 0)" x1="30" x2="55" y1="2" y2="50"/>
<line style="stroke-width: 1; stroke: rgb(0 0 0)" x1="76" x2="30" y1="10" y2="2"/>
<line style="stroke-width: 1; stroke: rgb(0 0 0)" x1="33" x2="30" y1="-30" y2="2"/>
<line style="stroke-width: 1; stroke: rgb(0 0 0)" x1="15" x2="12" y1="42" y2="10"/>
<line style="stroke-width: 1; stroke: rgb(0 0 0)" x1="5" x2="12" y1="-12" y2="10"/>
<line style="stroke-width: 1; stroke: rgb(0 0 0)" x1="30" x2="12" y1="2" y2="10"/>
<line style="stroke-width: 1; stroke: rgb(0 0 0)" x1="-5" x2="-30" y1="-42" y2="-25"/>
<line style="stroke-width: 1; stroke: rgb(0 0 0)" x1="-40" x2="-67" y1="5" y2="52"/>
<line style="stroke-width: 1; stroke: rgb(0 0 0)" x1="30" x2="60" y1="2" y2="-37"/>
<line style="stroke-width: 1; stroke: rgb(0 0 0)" x1="33" x2="1" y1="-30" y2="-52"/>
<line style="stroke-width: 1; stroke: rgb(0 0 0)" x1="-5" x2="-55" y1="-42" y2="-25"/>
<line style="stroke-width: 1; stroke: rgb(0 0 0)" x1="-30" x2="-40" y1="-25" y2="5"/>
<line style="stroke-width: 1; stroke: rgb(0 0 0)" x1="-55" x2="-40" y1="-25" y2="5"/>
<line style="stroke-width: 1; stroke: rgb(0 0 0)" x1="-55" x2="1" y1="-25" y2="-52"/>
<line style="stroke-width: 1; stroke: rgb(0 0 0)" x1="-55" x2="-30" y1="-25" y2="-25"/>
<line style="stroke-width: 1; stroke: rgb(0 0 0)" x1="-55" x2="-67" y1="-25" y2="52"/>
<line style="stroke-width: 1; stroke: rgb(0 0 0)" x1="55" x2="-67" y1="50" y2="52"/>
<line style="stroke-width: 1; stroke: rgb(0 0 0)" x1="55" x2="15" y1="50" y2="42"/>
<line style="stroke-width: 1; stroke: rgb(0 0 0)" x1="55" x2="76" y1="50" y2="10"/>
<line style="stroke-width: 1; stroke: rgb(0 0 0)" x1="60" x2="76" y1="-37" y2="10"/>
<line style="stroke-width: 1; stroke: rgb(0 0 0)" x1="60" x2="33" y1="-37" y2="-30"/>
<line style="stroke-width: 1; stroke: rgb(0 0 0)" x1="60" x2="1" y1="-37" y2="-52"/>
<circle cx="15" cy="42" r="2" style="stroke-width: 0.5; stroke: rgb(0 0 0); fill: rgb(105 105 105)"/>
<circle cx="-5" cy="-42" r="2" style="stroke-width: 0.5; stroke: rgb(0 0 0); fill: rgb(105 105 105)"/>
<circle cx="30" cy="2" r="2" style="stroke-width: 0.5; stroke: rgb(0 0 0); fill: rgb(105 105 105)"/>
<circle cx="5" cy="-12" r="2" style="stroke-width: 0.5; stroke: rgb(0 0 0); fill: rgb(105 105 105)"/>
<circle cx="-35" cy="32" r="2" style="stroke-width: 0.5; stroke: rgb(0 0 0); fill: rgb(105 105 105)"/>
<circle cx="-2" cy="-24" r="2" style="stroke-width: 0.5; stroke: rgb(0 0 0); fill: rgb(105 105 105)"/>
<circle cx="-67" cy="52" r="2" style="stroke-width: 0.5; stroke: rgb(0 0 0); fill: rgb(105 105 105)"/>
<circle cx="1" cy="-52" r="2" style="stroke-width: 0.5; stroke: rgb(0 0 0); fill: rgb(105 105 105)"/>
<circle cx="76" cy="10" r="2" style="stroke-width: 0.5; stroke: rgb(0 0 0); fill: rgb(105 105 105)"/>
<circle cx="12" cy="10" r="2" style="stroke-width: 0.5; stroke: rgb(0 0 0); fill: rgb(105 105 105)"/>
<circle cx="-40" cy="5" r="2" style="stroke-width: 0.5; stroke: rgb(0 0 0); fill: rgb(105 105 105)"/>
<circle cx="33" cy="-30" r="2" style="stroke-width: 0.5; stroke: rgb(0 0 0); fill: rgb(105 105 105)"/>
<circle cx="-30" cy="-25" r="2" style="stroke-width: 0.5; stroke: rgb(0 0 0); fill: rgb(105 105 105)"/>
<circle cx="-55" cy="-25" r="2" style="stroke-width: 0.5; stroke: rgb(0 0 0); fill: rgb(105 105 105)"/>
<circle cx="55" cy="50" r="2" style="stroke-width: 0.5; stroke: rgb(0 0 0); fill: rgb(105 105 105)"/>
<circle cx="60" cy="-37" r="2" style="stroke-width: 0.5; stroke: rgb(0 0 0); fill: rgb(105 105 105)"/>
</g>
</svg>