<svg viewBox="-10.100000000000001 -23.7 61.2 44.4" width="300" xmlns="http://www.w3.org/2000/svg" xmlns:xlink="http://www.w3.org/1999/xlink">
<defs>
<pattern height="1" id="delaunay_directed_edge_details_pattern0001" patternTransform="rotate(63.512 0 0) scale(2)" patternUnits="userSpaceOnUse" width="1">
<line stroke="rgb(255 255 255)" stroke-width="1.01" x1="0" x2="0" y1="-0.1" y2="1.1"/>
<line stroke="rgb(211 211 211)" stroke-width="1.01" x1="1" x2="1" y1="-0.1" y2="1.1"/>
</pattern>
<marker fill="rgb(0 0 0)" id="delaunay_directed_edge_details_filled_arrow0002" markerHeight="3" markerWidth="5" orient="auto" refX="4" refY="0.5" stroke="none">
<path d="M1,0 L4,0 L0,2 z" transform="scale(-1 1) translate (-5 0)"/>
</marker>
<marker fill="rgb(0 0 0)" id="delaunay_directed_edge_details_filled_arrow0003" markerHeight="3" markerWidth="5" orient="auto" refX="4" refY="0.5" stroke="none">
<path d="M1,0 L4,0 L0,2 z" transform="scale(-1 1) translate (-5 0)"/>
</marker>
<marker fill="rgb(0 0 0)" id="delaunay_directed_edge_details_filled_arrow0004" markerHeight="3" markerWidth="5" orient="auto" refX="4" refY="0.5" stroke="none">
<path d="M1,0 L4,0 L0,2 z" transform="scale(-1 1) translate (-5 0)"/>
</marker>
<marker fill="rgb(0 0 0)" id="delaunay_directed_edge_details_filled_arrow0005" markerHeight="3" markerWidth="5" orient="auto" refX="4" refY="0.5" stroke="none">
<path d="M1,0 L4,0 L0,2 z" transform="scale(-1 1) translate (-5 0)"/>
</marker>
<marker fill="rgb(0 0 0)" id="delaunay_directed_edge_details_filled_arrow0006" markerHeight="3" markerWidth="5" orient="auto" refX="4" refY="0.5" stroke="none">
<path d="M1,0 L4,0 L0,2 z" transform="scale(-1 1) translate (-5 0)"/>
</marker>
<marker fill="rgb(0 0 0)" id="delaunay_directed_edge_details_filled_arrow0007" markerHeight="3" markerWidth="5" orient="auto" refX="4" refY="0.5" stroke="none">
<path d="M1,0 L4,0 L0,2 z" transform="scale(-1 1) translate (-5 0)"/>
</marker>
<marker fill="rgb(0 0 0)" id="delaunay_directed_edge_details_filled_arrow0008" markerHeight="3" markerWidth="5" orient="auto" refX="4" refY="0.5" stroke="none">
<path d="M1,0 L4,0 L0,2 z" transform="scale(-1 1) translate (-5 0)"/>
</marker>
<marker fill="rgb(0 0 0)" id="delaunay_directed_edge_details_filled_arrow0009" markerHeight="3" markerWidth="5" orient="auto" refX="4" refY="0.5" stroke="none">
<path d="M1,0 L4,0 L0,2 z" transform="scale(-1 1) translate (-5 0)"/>
</marker>
<marker fill="rgb(0 0 0)" id="delaunay_directed_edge_details_filled_arrow0010" markerHeight="3" markerWidth="5" orient="auto" refX="4" refY="0.5" stroke="none">
<path d="M1,0 L4,0 L0,2 z" transform="scale(-1 1) translate (-5 0)"/>
</marker>
<marker fill="rgb(0 0 0)" id="delaunay_directed_edge_details_filled_arrow0011" markerHeight="3" markerWidth="5" orient="auto" refX="4" refY="0.5" stroke="none">
<path d="M1,0 L4,0 L0,2 z" transform="scale(-1 1) translate (-5 0)"/>
</marker>
<marker fill="rgb(0 0 0)" id="delaunay_directed_edge_details_filled_arrow0012" markerHeight="3" markerWidth="5" orient="auto" refX="4" refY="0.5" stroke="none">
<path d="M1,0 L4,0 L0,2 z" transform="scale(-1 1) translate (-5 0)"/>
</marker>
<marker fill="rgb(0 0 0)" id="delaunay_directed_edge_details_filled_arrow0013" markerHeight="3" markerWidth="5" orient="auto" refX="4" refY="0.5" stroke="none">
<path d="M1,0 L4,0 L0,2 z" transform="scale(-1 1) translate (-5 0)"/>
</marker>
<marker fill="rgb(0 0 0)" id="delaunay_directed_edge_details_filled_arrow0014" markerHeight="3" markerWidth="5" orient="auto" refX="4" refY="0.5" stroke="none">
<path d="M1,0 L4,0 L0,2 z" transform="scale(-1 1) translate (-5 0)"/>
</marker>
<marker fill="rgb(0 0 0)" id="delaunay_directed_edge_details_filled_arrow0015" markerHeight="3" markerWidth="5" orient="auto" refX="4" refY="0.5" stroke="none">
<path d="M1,0 L4,0 L0,2 z" transform="scale(-1 1) translate (-5 0)"/>
</marker>
<marker fill="rgb(0 0 0)" id="delaunay_directed_edge_details_filled_arrow0016" markerHeight="3" markerWidth="5" orient="auto" refX="4" refY="0.5" stroke="none">
<path d="M1,0 L4,0 L0,2 z" transform="scale(-1 1) translate (-5 0)"/>
</marker>
<marker fill="rgb(0 0 0)" id="delaunay_directed_edge_details_filled_arrow0017" markerHeight="3" markerWidth="5" orient="auto" refX="4" refY="0.5" stroke="none">
<path d="M1,0 L4,0 L0,2 z" transform="scale(-1 1) translate (-5 0)"/>
</marker>
<marker fill="rgb(0 0 0)" id="delaunay_directed_edge_details_filled_arrow0018" markerHeight="3" markerWidth="5" orient="auto" refX="4" refY="0.5" stroke="none">
<path d="M1,0 L4,0 L0,2 z" transform="scale(-1 1) translate (-5 0)"/>
</marker>
<marker fill="rgb(0 0 0)" id="delaunay_directed_edge_details_filled_arrow0019" markerHeight="3" markerWidth="5" orient="auto" refX="4" refY="0.5" stroke="none">
<path d="M1,0 L4,0 L0,2 z" transform="scale(-1 1) translate (-5 0)"/>
</marker>
<marker fill="rgb(0 0 0)" id="delaunay_directed_edge_details_filled_arrow0020" markerHeight="3" markerWidth="5" orient="auto" refX="4" refY="0.5" stroke="none">
<path d="M1,0 L4,0 L0,2 z" transform="scale(-1 1) translate (-5 0)"/>
</marker>
<marker fill="rgb(0 0 0)" id="delaunay_directed_edge_details_filled_arrow0021" markerHeight="3" markerWidth="5" orient="auto" refX="4" refY="0.5" stroke="none">
<path d="M1,0 L4,0 L0,2 z" transform="scale(-1 1) translate (-5 0)"/>
</marker>
<marker fill="rgb(0 0 0)" id="delaunay_directed_edge_details_filled_arrow0022" markerHeight="3" markerWidth="5" orient="auto" refX="4" refY="0.5" stroke="none">
<path d="M1,0 L4,0 L0,2 z" transform="scale(-1 1) translate (-5 0)"/>
</marker>
<marker fill="rgb(0 0 0)" id="delaunay_directed_edge_details_filled_arrow0023" markerHeight="3" markerWidth="5" orient="auto" refX="4" refY="0.5" stroke="none">
<path d="M1,0 L4,0 L0,2 z" transform="scale(-1 1) translate (-5 0)"/>
</marker>
<marker fill="rgb(0 0 0)" id="delaunay_directed_edge_details_filled_arrow0024" markerHeight="3" markerWidth="5" orient="auto" refX="4" refY="0.5" stroke="none">
<path d="M1,0 L4,0 L0,2 z" transform="scale(-1 1) translate (-5 0)"/>
</marker>
<marker fill="rgb(0 0 0)" id="delaunay_directed_edge_details_filled_arrow0025" markerHeight="3" markerWidth="5" orient="auto" refX="4" refY="0.5" stroke="none">
<path d="M1,0 L4,0 L0,2 z" transform="scale(-1 1) translate (-5 0)"/>
</marker>
<marker fill="rgb(0 0 0)" id="delaunay_directed_edge_details_filled_arrow0026" markerHeight="3" markerWidth="5" orient="auto" refX="4" refY="0.5" stroke="none">
<path d="M1,0 L4,0 L0,2 z" transform="scale(-1 1) translate (-5 0)"/>
</marker>
<marker fill="rgb(0 0 0)" id="delaunay_directed_edge_details_filled_arrow0027" markerHeight="3" markerWidth="5" orient="auto" refX="4" refY="0.5" stroke="none">
<path d="M1,0 L4,0 L0,2 z" transform="scale(-1 1) translate (-5 0)"/>
</marker>
<marker fill="rgb(0 0 0)" id="delaunay_directed_edge_details_filled_arrow0028" markerHeight="3" markerWidth="5" orient="auto" refX="4" refY="0.5" stroke="none">
<path d="M1,0 L4,0 L0,2 z" transform="scale(-1 1) translate (-5 0)"/>
</marker>
<marker fill="rgb(0 0 0)" id="delaunay_directed_edge_details_filled_arrow0029" markerHeight="3" markerWidth="5" orient="auto" refX="4" refY="0.5" stroke="none">
<path d="M1,0 L4,0 L0,2 z" transform="scale(-1 1) translate (-5 0)"/>
</marker>
<marker fill="rgb(0 0 0)" id="delaunay_directed_edge_details_filled_arrow0030" markerHeight="3" markerWidth="5" orient="auto" refX="4" refY="0.5" stroke="none">
<path d="M1,0 L4,0 L0,2 z" transform="scale(-1 1) translate (-5 0)"/>
</marker>
<marker fill="rgb(0 0 0)" id="delaunay_directed_edge_details_filled_arrow0031" markerHeight="3" markerWidth="5" orient="auto" refX="4" refY="0.5" stroke="none">
<path d="M1,0 L4,0 L0,2 z" transform="scale(-1 1) translate (-5 0)"/>
</marker>
<marker fill="rgb(0 0 0)" id="delaunay_directed_edge_details_filled_arrow0032" markerHeight="3" markerWidth="5" orient="auto" refX="4" refY="0.5" stroke="none">
<path d="M1,0 L4,0 L0,2 z" transform="scale(-1 1) translate (-5 0)"/>
</marker>
<marker fill="rgb(0 0 0)" id="delaunay_directed_edge_details_filled_arrow0033" markerHeight="3" markerWidth="5" orient="auto" refX="4" refY="0.5" stroke="none">
<path d="M1,0 L4,0 L0,2 z" transform="scale(-1 1) translate (-5 0)"/>
</marker>
<marker fill="rgb(0 0 0)" id="delaunay_directed_edge_details_filled_arrow0034" markerHeight="3" markerWidth="5" orient="auto" refX="4" refY="0.5" stroke="none">
<path d="M1,0 L4,0 L0,2 z" transform="scale(-1 1) translate (-5 0)"/>
</marker>
<marker fill="rgb(0 0 0)" id="delaunay_directed_edge_details_filled_arrow0035" markerHeight="3" markerWidth="5" orient="auto" refX="4" refY="0.5" stroke="none">
<path d="M1,0 L4,0 L0,2 z" transform="scale(-1 1) translate (-5 0)"/>
</marker>
<marker fill="rgb(0 0 0)" id="delaunay_directed_edge_details_filled_arrow0036" markerHeight="3" markerWidth="5" orient="auto" refX="4" refY="0.5" stroke="none">
<path d="M1,0 L4,0 L0,2 z" transform="scale(-1 1) translate (-5 0)"/>
</marker>
<marker fill="rgb(0 0 0)" id="delaunay_directed_edge_details_filled_arrow0037" markerHeight="3" markerWidth="5" orient="auto" refX="4" refY="0.5" stroke="none">
<path d="M1,0 L4,0 L0,2 z" transform="scale(-1 1) translate (-5 0)"/>
</marker>
<marker fill="rgb(0 0 0)" id="delaunay_directed_edge_details_filled_arrow0038" markerHeight="3" markerWidth="5" orient="auto" refX="4" refY="0.5" stroke="none">
<path d="M1,0 L4,0 L0,2 z" transform="scale(-1 1) translate (-5 0)"/>
</marker>
<marker fill="rgb(0 0 0)" id="delaunay_directed_edge_details_filled_arrow0039" markerHeight="3" markerWidth="5" orient="auto" refX="4" refY="0.5" stroke="none">
<path d="M1,0 L4,0 L0,2 z" transform="scale(-1 1) translate (-5 0)"/>
</marker>
<marker fill="rgb(0 0 0)" id="delaunay_directed_edge_details_filled_arrow0040" markerHeight="3" markerWidth="5" orient="auto" refX="4" refY="0.5" stroke="none">
<path d="M1,0 L4,0 L0,2 z" transform="scale(-1 1) translate (-5 0)"/>
</marker>
<marker fill="rgb(0 0 0)" id="delaunay_directed_edge_details_filled_arrow0041" markerHeight="3" markerWidth="5" orient="auto" refX="4" refY="0.5" stroke="none">
<path d="M1,0 L4,0 L0,2 z" transform="scale(-1 1) translate (-5 0)"/>
</marker>
<marker fill="rgb(0 0 0)" id="delaunay_directed_edge_details_filled_arrow0042" markerHeight="3" markerWidth="5" orient="auto" refX="4" refY="0.5" stroke="none">
<path d="M1,0 L4,0 L0,2 z" transform="scale(-1 1) translate (-5 0)"/>
</marker>
<marker fill="rgb(0 0 0)" id="delaunay_directed_edge_details_filled_arrow0043" markerHeight="3" markerWidth="5" orient="auto" refX="4" refY="0.5" stroke="none">
<path d="M1,0 L4,0 L0,2 z" transform="scale(-1 1) translate (-5 0)"/>
</marker>
<marker fill="rgb(0 0 0)" id="delaunay_directed_edge_details_filled_arrow0044" markerHeight="3" markerWidth="5" orient="auto" refX="4" refY="0.5" stroke="none">
<path d="M1,0 L4,0 L0,2 z" transform="scale(-1 1) translate (-5 0)"/>
</marker>
<marker fill="rgb(0 0 0)" id="delaunay_directed_edge_details_filled_arrow0045" markerHeight="3" markerWidth="5" orient="auto" refX="4" refY="0.5" stroke="none">
<path d="M1,0 L4,0 L0,2 z" transform="scale(-1 1) translate (-5 0)"/>
</marker>
<marker fill="rgb(0 0 0)" id="delaunay_directed_edge_details_filled_arrow0046" markerHeight="3" markerWidth="5" orient="auto" refX="4" refY="0.5" stroke="none">
<path d="M1,0 L4,0 L0,2 z" transform="scale(-1 1) translate (-5 0)"/>
</marker>
<marker fill="rgb(0 0 0)" id="delaunay_directed_edge_details_filled_arrow0047" markerHeight="3" markerWidth="5" orient="auto" refX="4" refY="0.5" stroke="none">
<path d="M1,0 L4,0 L0,2 z" transform="scale(-1 1) translate (-5 0)"/>
</marker>
<marker fill="rgb(0 0 0)" id="delaunay_directed_edge_details_filled_arrow0048" markerHeight="3" markerWidth="5" orient="auto" refX="4" refY="0.5" stroke="none">
<path d="M1,0 L4,0 L0,2 z" transform="scale(-1 1) translate (-5 0)"/>
</marker>
<marker fill="rgb(0 0 0)" id="delaunay_directed_edge_details_filled_arrow0049" markerHeight="3" markerWidth="5" orient="auto" refX="4" refY="0.5" stroke="none">
<path d="M1,0 L4,0 L0,2 z" transform="scale(-1 1) translate (-5 0)"/>
</marker>
<marker fill="rgb(0 0 0)" id="delaunay_directed_edge_details_filled_arrow0050" markerHeight="3" markerWidth="5" orient="auto" refX="4" refY="0.5" stroke="none">
<path d="M1,0 L4,0 L0,2 z" transform="scale(-1 1) translate (-5 0)"/>
</marker>
<marker fill="rgb(0 0 0)" id="delaunay_directed_edge_details_filled_arrow0051" markerHeight="3" markerWidth="5" orient="auto" refX="4" refY="0.5" stroke="none">
<path d="M1,0 L4,0 L0,2 z" transform="scale(-1 1) translate (-5 0)"/>
</marker>
<marker fill="rgb(0 0 0)" id="delaunay_directed_edge_details_filled_arrow0052" markerHeight="3" markerWidth="5" orient="auto" refX="4" refY="0.5" stroke="none">
<path d="M1,0 L4,0 L0,2 z" transform="scale(-1 1) translate (-5 0)"/>
</marker>
<marker fill="rgb(0 0 0)" id="delaunay_directed_edge_details_filled_arrow0053" markerHeight="3" markerWidth="5" orient="auto" refX="4" refY="0.5" stroke="none">
<path d="M1,0 L4,0 L0,2 z" transform="scale(-1 1) translate (-5 0)"/>
</marker>
<marker fill="rgb(0 0 0)" id="delaunay_directed_edge_details_filled_arrow0054" markerHeight="3" markerWidth="5" orient="auto" refX="4" refY="0.5" stroke="none">
<path d="M1,0 L4,0 L0,2 z" transform="scale(-1 1) translate (-5 0)"/>
</marker>
<marker fill="rgb(0 0 0)" id="delaunay_directed_edge_details_filled_arrow0055" markerHeight="3" markerWidth="5" orient="auto" refX="4" refY="0.5" stroke="none">
<path d="M1,0 L4,0 L0,2 z" transform="scale(-1 1) translate (-5 0)"/>
</marker>
<marker fill="rgb(0 0 0)" id="delaunay_directed_edge_details_filled_arrow0056" markerHeight="3" markerWidth="5" orient="auto" refX="4" refY="0.5" stroke="none">
<path d="M1,0 L4,0 L0,2 z" transform="scale(-1 1) translate (-5 0)"/>
</marker>
<marker fill="rgb(0 0 0)" id="delaunay_directed_edge_details_filled_arrow0057" markerHeight="3" markerWidth="5" orient="auto" refX="4" refY="0.5" stroke="none">
<path d="M1,0 L4,0 L0,2 z" transform="scale(-1 1) translate (-5 0)"/>
</marker>
<marker fill="rgb(0 0 0)" id="delaunay_directed_edge_details_filled_arrow0058" markerHeight="3" markerWidth="5" orient="auto" refX="4" refY="0.5" stroke="none">
<path d="M1,0 L4,0 L0,2 z" transform="scale(-1 1) translate (-5 0)"/>
</marker>
<marker fill="rgb(0 0 0)" id="delaunay_directed_edge_details_filled_arrow0059" markerHeight="3" markerWidth="5" orient="auto" refX="4" refY="0.5" stroke="none">
<path d="M1,0 L4,0 L0,2 z" transform="scale(-1 1) translate (-5 0)"/>
</marker>
</defs>
<rect height="100%" style="fill: url(#delaunay_directed_edge_details_pattern0001)" width="100%" x="-10.100000000000001" y="-23.7"/>
<g>
<path d="M-41,61 L-50,-50 L-30,25 z" style="fill: rgb(211 211 211)"/>
<path d="M-41,-60 L-40,-40 L-50,-50 z" style="fill: rgb(211 211 211)"/>
<path d="M-40,-40 L-30,25 L-50,-50 z" style="fill: rgb(211 211 211)"/>
<path d="M-30,25 L-40,-40 L0,0 z" style="fill: rgb(211 211 211)"/>
<path d="M-41,61 L-30,25 L40,20 z" style="fill: rgb(211 211 211)"/>
<path d="M0,0 L-40,-40 L41,-20 z" style="fill: rgb(211 211 211)"/>
<path d="M0,0 L40,20 L-30,25 z" style="fill: rgb(211 211 211)"/>
<path d="M40,20 L0,0 L41,-20 z" style="fill: rgb(211 211 211)"/>
<path d="M-41,-60 L41,-70 L-40,-40 z" style="fill: rgb(211 211 211)"/>
<path d="M41,-80 L41,-70 L-41,-60 z" style="fill: rgb(211 211 211)"/>
<path d="M41,-70 L41,-20 L-40,-40 z" style="fill: rgb(211 211 211)"/>
<path d="M107,-20 L40,20 L41,-20 z" style="fill: rgb(211 211 211)"/>
<path d="M107,-20 L41,-20 L90,-40 z" style="fill: rgb(211 211 211)"/>
<path d="M41,-70 L90,-40 L41,-20 z" style="fill: rgb(211 211 211)"/>
<path d="M41,-80 L90,-40 L41,-70 z" style="fill: rgb(211 211 211)"/>
<path d="M90,60 L-41,61 L40,20 z" style="fill: rgb(211 211 211)"/>
<path d="M40,20 L107,-20 L90,60 z" style="fill: rgb(211 211 211)"/>
<line style="stroke-width: 0.7; stroke: rgb(0 0 0); marker-start: url(#delaunay_directed_edge_details_filled_arrow0002); fill: none" x1="-45.9" x2="-42.6" y1="-53.725" y2="-57.4"/>
<line style="stroke-width: 0.7; stroke: rgb(0 0 0); marker-start: url(#delaunay_directed_edge_details_filled_arrow0003); fill: none" x1="-45.1" x2="-48.4" y1="-56.275" y2="-52.6"/>
<line style="stroke-width: 0.7; stroke: rgb(0 0 0); marker-start: url(#delaunay_directed_edge_details_filled_arrow0004); fill: none" x1="-46.5" x2="-42.525" y1="-45.725" y2="-41.725"/>
<line style="stroke-width: 0.7; stroke: rgb(0 0 0); marker-start: url(#delaunay_directed_edge_details_filled_arrow0005); fill: none" x1="-43.5" x2="-47.475" y1="-44.275" y2="-48.275"/>
<line style="stroke-width: 0.7; stroke: rgb(0 0 0); marker-start: url(#delaunay_directed_edge_details_filled_arrow0006); fill: none" x1="-40.875" x2="-49.2" y1="55.475" y2="-47.05"/>
<line style="stroke-width: 0.7; stroke: rgb(0 0 0); marker-start: url(#delaunay_directed_edge_details_filled_arrow0007); fill: none" x1="-50.125" x2="-41.8" y1="-44.475" y2="58.05"/>
<line style="stroke-width: 0.7; stroke: rgb(0 0 0); marker-start: url(#delaunay_directed_edge_details_filled_arrow0008); fill: none" x1="-41.275" x2="-40.7" y1="-54.475" y2="-42.975"/>
<line style="stroke-width: 0.7; stroke: rgb(0 0 0); marker-start: url(#delaunay_directed_edge_details_filled_arrow0009); fill: none" x1="-39.725" x2="-40.3" y1="-45.525" y2="-57.025"/>
<line style="stroke-width: 0.7; stroke: rgb(0 0 0); marker-start: url(#delaunay_directed_edge_details_filled_arrow0010); fill: none" x1="-49.125" x2="-31.325" y1="-44.55" y2="22.25"/>
<line style="stroke-width: 0.7; stroke: rgb(0 0 0); marker-start: url(#delaunay_directed_edge_details_filled_arrow0011); fill: none" x1="-30.875" x2="-48.675" y1="19.55" y2="-47.25"/>
<line style="stroke-width: 0.7; stroke: rgb(0 0 0); marker-start: url(#delaunay_directed_edge_details_filled_arrow0012); fill: none" x1="-39.725" x2="-31" y1="-34.475" y2="22.125"/>
<line style="stroke-width: 0.7; stroke: rgb(0 0 0); marker-start: url(#delaunay_directed_edge_details_filled_arrow0013); fill: none" x1="-30.275" x2="-39" y1="19.475" y2="-37.125"/>
<line style="stroke-width: 0.7; stroke: rgb(0 0 0); marker-start: url(#delaunay_directed_edge_details_filled_arrow0014); fill: none" x1="-32.15" x2="-40.65" y1="30.1" y2="57.975"/>
<line style="stroke-width: 0.7; stroke: rgb(0 0 0); marker-start: url(#delaunay_directed_edge_details_filled_arrow0015); fill: none" x1="-38.85" x2="-30.35" y1="55.9" y2="28.025"/>
<line style="stroke-width: 0.7; stroke: rgb(0 0 0); marker-start: url(#delaunay_directed_edge_details_filled_arrow0016); fill: none" x1="-36.5" x2="-2.525" y1="-35.725" y2="-1.725"/>
<line style="stroke-width: 0.7; stroke: rgb(0 0 0); marker-start: url(#delaunay_directed_edge_details_filled_arrow0017); fill: none" x1="-3.5" x2="-37.475" y1="-4.275" y2="-38.275"/>
<line style="stroke-width: 0.7; stroke: rgb(0 0 0); marker-start: url(#delaunay_directed_edge_details_filled_arrow0018); fill: none" x1="-25.425" x2="-1.95" y1="21.9" y2="2.35"/>
<line style="stroke-width: 0.7; stroke: rgb(0 0 0); marker-start: url(#delaunay_directed_edge_details_filled_arrow0019); fill: none" x1="-4.575" x2="-28.05" y1="3.1" y2="22.65"/>
<line style="stroke-width: 0.7; stroke: rgb(0 0 0); marker-start: url(#delaunay_directed_edge_details_filled_arrow0020); fill: none" x1="-24.475" x2="37.05" y1="25.175" y2="20.775"/>
<line style="stroke-width: 0.7; stroke: rgb(0 0 0); marker-start: url(#delaunay_directed_edge_details_filled_arrow0021); fill: none" x1="34.475" x2="-27.05" y1="19.825" y2="24.225"/>
<line style="stroke-width: 0.7; stroke: rgb(0 0 0); marker-start: url(#delaunay_directed_edge_details_filled_arrow0022); fill: none" x1="-34.65" x2="38.375" y1="-41.375" y2="-68.425"/>
<line style="stroke-width: 0.7; stroke: rgb(0 0 0); marker-start: url(#delaunay_directed_edge_details_filled_arrow0023); fill: none" x1="35.65" x2="-37.375" y1="-68.625" y2="-41.575"/>
<line style="stroke-width: 0.7; stroke: rgb(0 0 0); marker-start: url(#delaunay_directed_edge_details_filled_arrow0024); fill: none" x1="4.675" x2="37.075" y1="2.95" y2="19.15"/>
<line style="stroke-width: 0.7; stroke: rgb(0 0 0); marker-start: url(#delaunay_directed_edge_details_filled_arrow0025); fill: none" x1="35.325" x2="2.925" y1="17.05" y2="0.85"/>
<line style="stroke-width: 0.7; stroke: rgb(0 0 0); marker-start: url(#delaunay_directed_edge_details_filled_arrow0026); fill: none" x1="34.85" x2="-38.575" y1="21.975" y2="59.15"/>
<line style="stroke-width: 0.7; stroke: rgb(0 0 0); marker-start: url(#delaunay_directed_edge_details_filled_arrow0027); fill: none" x1="-35.85" x2="37.575" y1="59.025" y2="21.85"/>
<line style="stroke-width: 0.7; stroke: rgb(0 0 0); marker-start: url(#delaunay_directed_edge_details_filled_arrow0028); fill: none" x1="35.8" x2="-36.95" y1="-21.85" y2="-39.825"/>
<line style="stroke-width: 0.7; stroke: rgb(0 0 0); marker-start: url(#delaunay_directed_edge_details_filled_arrow0029); fill: none" x1="-34.8" x2="37.95" y1="-38.15" y2="-20.175"/>
<line style="stroke-width: 0.7; stroke: rgb(0 0 0); marker-start: url(#delaunay_directed_edge_details_filled_arrow0030); fill: none" x1="-35.475" x2="38.1" y1="-60.1" y2="-69.075"/>
<line style="stroke-width: 0.7; stroke: rgb(0 0 0); marker-start: url(#delaunay_directed_edge_details_filled_arrow0031); fill: none" x1="35.475" x2="-38.1" y1="-69.9" y2="-60.925"/>
<line style="stroke-width: 0.7; stroke: rgb(0 0 0); marker-start: url(#delaunay_directed_edge_details_filled_arrow0032); fill: none" x1="5.2" x2="38.55" y1="-1.9" y2="-18.175"/>
<line style="stroke-width: 0.7; stroke: rgb(0 0 0); marker-start: url(#delaunay_directed_edge_details_filled_arrow0033); fill: none" x1="35.8" x2="2.45" y1="-18.1" y2="-1.825"/>
<line style="stroke-width: 0.7; stroke: rgb(0 0 0); marker-start: url(#delaunay_directed_edge_details_filled_arrow0034); fill: none" x1="-35.525" x2="38.225" y1="-60.75" y2="-78.75"/>
<line style="stroke-width: 0.7; stroke: rgb(0 0 0); marker-start: url(#delaunay_directed_edge_details_filled_arrow0035); fill: none" x1="35.525" x2="-38.225" y1="-79.25" y2="-61.25"/>
<line style="stroke-width: 0.7; stroke: rgb(0 0 0); marker-start: url(#delaunay_directed_edge_details_filled_arrow0036); fill: none" x1="40.45" x2="40.45" y1="-74.5" y2="-73"/>
<line style="stroke-width: 0.7; stroke: rgb(0 0 0); marker-start: url(#delaunay_directed_edge_details_filled_arrow0037); fill: none" x1="41.55" x2="41.55" y1="-75.5" y2="-77"/>
<line style="stroke-width: 0.7; stroke: rgb(0 0 0); marker-start: url(#delaunay_directed_edge_details_filled_arrow0038); fill: none" x1="40.45" x2="40.45" y1="-64.5" y2="-23"/>
<line style="stroke-width: 0.7; stroke: rgb(0 0 0); marker-start: url(#delaunay_directed_edge_details_filled_arrow0039); fill: none" x1="41.55" x2="41.55" y1="-25.5" y2="-67"/>
<line style="stroke-width: 0.7; stroke: rgb(0 0 0); marker-start: url(#delaunay_directed_edge_details_filled_arrow0040); fill: none" x1="40.3" x2="39.525" y1="-14.525" y2="16.975"/>
<line style="stroke-width: 0.7; stroke: rgb(0 0 0); marker-start: url(#delaunay_directed_edge_details_filled_arrow0041); fill: none" x1="40.7" x2="41.475" y1="14.525" y2="-16.975"/>
<line style="stroke-width: 0.7; stroke: rgb(0 0 0); marker-start: url(#delaunay_directed_edge_details_filled_arrow0042); fill: none" x1="46.5" x2="104" y1="-19.45" y2="-19.45"/>
<line style="stroke-width: 0.7; stroke: rgb(0 0 0); marker-start: url(#delaunay_directed_edge_details_filled_arrow0043); fill: none" x1="101.5" x2="44" y1="-20.55" y2="-20.55"/>
<line style="stroke-width: 0.7; stroke: rgb(0 0 0); marker-start: url(#delaunay_directed_edge_details_filled_arrow0044); fill: none" x1="102" x2="42.3" y1="-17.65" y2="17.975"/>
<line style="stroke-width: 0.7; stroke: rgb(0 0 0); marker-start: url(#delaunay_directed_edge_details_filled_arrow0045); fill: none" x1="45" x2="104.7" y1="17.65" y2="-17.975"/>
<line style="stroke-width: 0.7; stroke: rgb(0 0 0); marker-start: url(#delaunay_directed_edge_details_filled_arrow0046); fill: none" x1="46.3" x2="87.425" y1="-21.55" y2="-38.35"/>
<line style="stroke-width: 0.7; stroke: rgb(0 0 0); marker-start: url(#delaunay_directed_edge_details_filled_arrow0047); fill: none" x1="84.7" x2="43.575" y1="-38.45" y2="-21.65"/>
<line style="stroke-width: 0.7; stroke: rgb(0 0 0); marker-start: url(#delaunay_directed_edge_details_filled_arrow0048); fill: none" x1="45.4" x2="87.15" y1="-66.65" y2="-41.1"/>
<line style="stroke-width: 0.7; stroke: rgb(0 0 0); marker-start: url(#delaunay_directed_edge_details_filled_arrow0049); fill: none" x1="85.6" x2="43.85" y1="-43.35" y2="-68.9"/>
<line style="stroke-width: 0.7; stroke: rgb(0 0 0); marker-start: url(#delaunay_directed_edge_details_filled_arrow0050); fill: none" x1="44.9" x2="87.325" y1="-76.1" y2="-41.475"/>
<line style="stroke-width: 0.7; stroke: rgb(0 0 0); marker-start: url(#delaunay_directed_edge_details_filled_arrow0051); fill: none" x1="86.1" x2="43.675" y1="-43.9" y2="-78.525"/>
<line style="stroke-width: 0.7; stroke: rgb(0 0 0); marker-start: url(#delaunay_directed_edge_details_filled_arrow0052); fill: none" x1="93.125" x2="104.625" y1="-35.45" y2="-21.925"/>
<line style="stroke-width: 0.7; stroke: rgb(0 0 0); marker-start: url(#delaunay_directed_edge_details_filled_arrow0053); fill: none" x1="103.875" x2="92.375" y1="-24.55" y2="-38.075"/>
<line style="stroke-width: 0.7; stroke: rgb(0 0 0); marker-start: url(#delaunay_directed_edge_details_filled_arrow0054); fill: none" x1="43.95" x2="87.3" y1="23.875" y2="58.575"/>
<line style="stroke-width: 0.7; stroke: rgb(0 0 0); marker-start: url(#delaunay_directed_edge_details_filled_arrow0055); fill: none" x1="86.05" x2="42.7" y1="56.125" y2="21.425"/>
<line style="stroke-width: 0.7; stroke: rgb(0 0 0); marker-start: url(#delaunay_directed_edge_details_filled_arrow0056); fill: none" x1="84.5" x2="-38" y1="59.475" y2="60.425"/>
<line style="stroke-width: 0.7; stroke: rgb(0 0 0); marker-start: url(#delaunay_directed_edge_details_filled_arrow0057); fill: none" x1="-35.5" x2="87" y1="61.525" y2="60.575"/>
<line style="stroke-width: 0.7; stroke: rgb(0 0 0); marker-start: url(#delaunay_directed_edge_details_filled_arrow0058); fill: none" x1="105.3" x2="90.075" y1="-14.725" y2="56.95"/>
<line style="stroke-width: 0.7; stroke: rgb(0 0 0); marker-start: url(#delaunay_directed_edge_details_filled_arrow0059); fill: none" x1="91.7" x2="106.925" y1="54.725" y2="-16.95"/>
<circle cx="-50" cy="-50" r="2" style="stroke-width: 0.5; stroke: rgb(0 0 0); fill: rgb(105 105 105)"/>
<circle cx="-41" cy="-60" r="2" style="stroke-width: 0.5; stroke: rgb(0 0 0); fill: rgb(105 105 105)"/>
<circle cx="-41" cy="61" r="2" style="stroke-width: 0.5; stroke: rgb(0 0 0); fill: rgb(105 105 105)"/>
<circle cx="-40" cy="-40" r="2" style="stroke-width: 0.5; stroke: rgb(0 0 0); fill: rgb(105 105 105)"/>
<circle cx="-30" cy="25" r="2" style="stroke-width: 0.5; stroke: rgb(0 0 0); fill: rgb(105 105 105)"/>
<circle cx="0" cy="0" r="2" style="stroke-width: 0.5; stroke: rgb(0 0 0); fill: rgb(105 105 105)"/>
<circle cx="40" cy="20" r="2" style="stroke-width: 0.5; stroke: rgb(0 0 0); fill: rgb(105 105 105)"/>
<circle cx="41" cy="-70" r="2" style="stroke-width: 0.5; stroke: rgb(0 0 0); fill: rgb(105 105 105)"/>
<circle cx="41" cy="-80" r="2" style="stroke-width: 0.5; stroke: rgb(0 0 0); fill: rgb(105 105 105)"/>
<circle cx="41" cy="-20" r="2" style="stroke-width: 0.5; stroke: rgb(0 0 0); fill: rgb(105 105 105)"/>
<circle cx="107" cy="-20" r="2" style="stroke-width: 0.5; stroke: rgb(0 0 0); fill: rgb(105 105 105)"/>
<circle cx="90" cy="-40" r="2" style="stroke-width: 0.5; stroke: rgb(0 0 0); fill: rgb(105 105 105)"/>
<circle cx="90" cy="60" r="2" style="stroke-width: 0.5; stroke: rgb(0 0 0); fill: rgb(105 105 105)"/>
<text dy="-2.1" font-size="5" style="fill: rgb(0 0 0)" text-anchor="middle" transform="translate (20 10) rotate (26.56505117707799) translate(-20 -10)" x="20" y="10">
e
</text>
<text dy="5" font-size="5" style="fill: rgb(0 0 0)" text-anchor="middle" transform="translate (20 10) rotate (26.56505117707799) translate(-20 -10)" x="20" y="10">
e.rev()
</text>
<text dy="-2.1" font-size="5" style="fill: rgb(0 0 0)" text-anchor="middle" transform="translate (40.5 0) rotate (-88.56790381583535) translate(-40.5 -0)" x="40.5" y="0">
e.next()
</text>
<text dy="5.2" font-size="5" style="fill: rgb(0 0 0)" text-anchor="middle" transform="translate (20.5 -10) rotate (-26.003345844511443) translate(-20.5 10)" x="20.5" y="-10">
e.prev()
</text>
</g>
</svg>