<svg viewBox="-10.100000000000001 -25.5 61.2 66" width="300" xmlns="http://www.w3.org/2000/svg" xmlns:xlink="http://www.w3.org/1999/xlink">
<defs>
<pattern height="1" id="delaunay_directed_edge_face_and_vertex_pattern0001" patternTransform="rotate(63.512 0 0) scale(2)" patternUnits="userSpaceOnUse" width="1">
<line stroke="rgb(255 255 255)" stroke-width="1.01" x1="0" x2="0" y1="-0.1" y2="1.1"/>
<line stroke="rgb(211 211 211)" stroke-width="1.01" x1="1" x2="1" y1="-0.1" y2="1.1"/>
</pattern>
<pattern height="1" id="delaunay_directed_edge_face_and_vertex_pattern0002" patternTransform="rotate(127.024 0 0) scale(5)" patternUnits="userSpaceOnUse" width="1">
<line stroke="rgb(211 211 211)" stroke-width="1.01" x1="0" x2="0" y1="-0.1" y2="1.1"/>
<line stroke="rgb(169 169 169)" stroke-width="1.01" x1="1" x2="1" y1="-0.1" y2="1.1"/>
</pattern>
<marker fill="rgb(0 0 0)" id="delaunay_directed_edge_face_and_vertex_filled_arrow0003" markerHeight="3" markerWidth="5" orient="auto" refX="4" refY="0.5" stroke="none">
<path d="M1,0 L4,0 L0,2 z" transform="scale(-1 1) translate (-5 0)"/>
</marker>
<marker fill="rgb(0 0 0)" id="delaunay_directed_edge_face_and_vertex_filled_arrow0004" markerHeight="3" markerWidth="5" orient="auto" refX="4" refY="0.5" stroke="none">
<path d="M1,0 L4,0 L0,2 z" transform="scale(-1 1) translate (-5 0)"/>
</marker>
<marker fill="rgb(0 0 0)" id="delaunay_directed_edge_face_and_vertex_filled_arrow0005" markerHeight="3" markerWidth="5" orient="auto" refX="4" refY="0.5" stroke="none">
<path d="M1,0 L4,0 L0,2 z" transform="scale(-1 1) translate (-5 0)"/>
</marker>
<marker fill="rgb(0 0 0)" id="delaunay_directed_edge_face_and_vertex_filled_arrow0006" markerHeight="3" markerWidth="5" orient="auto" refX="4" refY="0.5" stroke="none">
<path d="M1,0 L4,0 L0,2 z" transform="scale(-1 1) translate (-5 0)"/>
</marker>
<marker fill="rgb(0 0 0)" id="delaunay_directed_edge_face_and_vertex_filled_arrow0007" markerHeight="3" markerWidth="5" orient="auto" refX="4" refY="0.5" stroke="none">
<path d="M1,0 L4,0 L0,2 z" transform="scale(-1 1) translate (-5 0)"/>
</marker>
<marker fill="rgb(0 0 0)" id="delaunay_directed_edge_face_and_vertex_filled_arrow0008" markerHeight="3" markerWidth="5" orient="auto" refX="4" refY="0.5" stroke="none">
<path d="M1,0 L4,0 L0,2 z" transform="scale(-1 1) translate (-5 0)"/>
</marker>
<marker fill="rgb(0 0 0)" id="delaunay_directed_edge_face_and_vertex_filled_arrow0009" markerHeight="3" markerWidth="5" orient="auto" refX="4" refY="0.5" stroke="none">
<path d="M1,0 L4,0 L0,2 z" transform="scale(-1 1) translate (-5 0)"/>
</marker>
<marker fill="rgb(0 0 0)" id="delaunay_directed_edge_face_and_vertex_filled_arrow0010" markerHeight="3" markerWidth="5" orient="auto" refX="4" refY="0.5" stroke="none">
<path d="M1,0 L4,0 L0,2 z" transform="scale(-1 1) translate (-5 0)"/>
</marker>
<marker fill="rgb(0 0 0)" id="delaunay_directed_edge_face_and_vertex_filled_arrow0011" markerHeight="3" markerWidth="5" orient="auto" refX="4" refY="0.5" stroke="none">
<path d="M1,0 L4,0 L0,2 z" transform="scale(-1 1) translate (-5 0)"/>
</marker>
<marker fill="rgb(0 0 0)" id="delaunay_directed_edge_face_and_vertex_filled_arrow0012" markerHeight="3" markerWidth="5" orient="auto" refX="4" refY="0.5" stroke="none">
<path d="M1,0 L4,0 L0,2 z" transform="scale(-1 1) translate (-5 0)"/>
</marker>
<marker fill="rgb(0 0 0)" id="delaunay_directed_edge_face_and_vertex_filled_arrow0013" markerHeight="3" markerWidth="5" orient="auto" refX="4" refY="0.5" stroke="none">
<path d="M1,0 L4,0 L0,2 z" transform="scale(-1 1) translate (-5 0)"/>
</marker>
<marker fill="rgb(0 0 0)" id="delaunay_directed_edge_face_and_vertex_filled_arrow0014" markerHeight="3" markerWidth="5" orient="auto" refX="4" refY="0.5" stroke="none">
<path d="M1,0 L4,0 L0,2 z" transform="scale(-1 1) translate (-5 0)"/>
</marker>
<marker fill="rgb(0 0 0)" id="delaunay_directed_edge_face_and_vertex_filled_arrow0015" markerHeight="3" markerWidth="5" orient="auto" refX="4" refY="0.5" stroke="none">
<path d="M1,0 L4,0 L0,2 z" transform="scale(-1 1) translate (-5 0)"/>
</marker>
<marker fill="rgb(0 0 0)" id="delaunay_directed_edge_face_and_vertex_filled_arrow0016" markerHeight="3" markerWidth="5" orient="auto" refX="4" refY="0.5" stroke="none">
<path d="M1,0 L4,0 L0,2 z" transform="scale(-1 1) translate (-5 0)"/>
</marker>
<marker fill="rgb(0 0 0)" id="delaunay_directed_edge_face_and_vertex_filled_arrow0017" markerHeight="3" markerWidth="5" orient="auto" refX="4" refY="0.5" stroke="none">
<path d="M1,0 L4,0 L0,2 z" transform="scale(-1 1) translate (-5 0)"/>
</marker>
<marker fill="rgb(0 0 0)" id="delaunay_directed_edge_face_and_vertex_filled_arrow0018" markerHeight="3" markerWidth="5" orient="auto" refX="4" refY="0.5" stroke="none">
<path d="M1,0 L4,0 L0,2 z" transform="scale(-1 1) translate (-5 0)"/>
</marker>
<marker fill="rgb(0 0 0)" id="delaunay_directed_edge_face_and_vertex_filled_arrow0019" markerHeight="3" markerWidth="5" orient="auto" refX="4" refY="0.5" stroke="none">
<path d="M1,0 L4,0 L0,2 z" transform="scale(-1 1) translate (-5 0)"/>
</marker>
<marker fill="rgb(0 0 0)" id="delaunay_directed_edge_face_and_vertex_filled_arrow0020" markerHeight="3" markerWidth="5" orient="auto" refX="4" refY="0.5" stroke="none">
<path d="M1,0 L4,0 L0,2 z" transform="scale(-1 1) translate (-5 0)"/>
</marker>
<marker fill="rgb(0 0 0)" id="delaunay_directed_edge_face_and_vertex_filled_arrow0021" markerHeight="3" markerWidth="5" orient="auto" refX="4" refY="0.5" stroke="none">
<path d="M1,0 L4,0 L0,2 z" transform="scale(-1 1) translate (-5 0)"/>
</marker>
<marker fill="rgb(0 0 0)" id="delaunay_directed_edge_face_and_vertex_filled_arrow0022" markerHeight="3" markerWidth="5" orient="auto" refX="4" refY="0.5" stroke="none">
<path d="M1,0 L4,0 L0,2 z" transform="scale(-1 1) translate (-5 0)"/>
</marker>
<marker fill="rgb(0 0 0)" id="delaunay_directed_edge_face_and_vertex_filled_arrow0023" markerHeight="3" markerWidth="5" orient="auto" refX="4" refY="0.5" stroke="none">
<path d="M1,0 L4,0 L0,2 z" transform="scale(-1 1) translate (-5 0)"/>
</marker>
<marker fill="rgb(0 0 0)" id="delaunay_directed_edge_face_and_vertex_filled_arrow0024" markerHeight="3" markerWidth="5" orient="auto" refX="4" refY="0.5" stroke="none">
<path d="M1,0 L4,0 L0,2 z" transform="scale(-1 1) translate (-5 0)"/>
</marker>
<marker fill="rgb(0 0 0)" id="delaunay_directed_edge_face_and_vertex_filled_arrow0025" markerHeight="3" markerWidth="5" orient="auto" refX="4" refY="0.5" stroke="none">
<path d="M1,0 L4,0 L0,2 z" transform="scale(-1 1) translate (-5 0)"/>
</marker>
<marker fill="rgb(0 0 0)" id="delaunay_directed_edge_face_and_vertex_filled_arrow0026" markerHeight="3" markerWidth="5" orient="auto" refX="4" refY="0.5" stroke="none">
<path d="M1,0 L4,0 L0,2 z" transform="scale(-1 1) translate (-5 0)"/>
</marker>
<marker fill="rgb(0 0 0)" id="delaunay_directed_edge_face_and_vertex_filled_arrow0027" markerHeight="3" markerWidth="5" orient="auto" refX="4" refY="0.5" stroke="none">
<path d="M1,0 L4,0 L0,2 z" transform="scale(-1 1) translate (-5 0)"/>
</marker>
<marker fill="rgb(0 0 0)" id="delaunay_directed_edge_face_and_vertex_filled_arrow0028" markerHeight="3" markerWidth="5" orient="auto" refX="4" refY="0.5" stroke="none">
<path d="M1,0 L4,0 L0,2 z" transform="scale(-1 1) translate (-5 0)"/>
</marker>
<marker fill="rgb(0 0 0)" id="delaunay_directed_edge_face_and_vertex_filled_arrow0029" markerHeight="3" markerWidth="5" orient="auto" refX="4" refY="0.5" stroke="none">
<path d="M1,0 L4,0 L0,2 z" transform="scale(-1 1) translate (-5 0)"/>
</marker>
<marker fill="rgb(0 0 0)" id="delaunay_directed_edge_face_and_vertex_filled_arrow0030" markerHeight="3" markerWidth="5" orient="auto" refX="4" refY="0.5" stroke="none">
<path d="M1,0 L4,0 L0,2 z" transform="scale(-1 1) translate (-5 0)"/>
</marker>
<marker fill="rgb(0 0 0)" id="delaunay_directed_edge_face_and_vertex_filled_arrow0031" markerHeight="3" markerWidth="5" orient="auto" refX="4" refY="0.5" stroke="none">
<path d="M1,0 L4,0 L0,2 z" transform="scale(-1 1) translate (-5 0)"/>
</marker>
<marker fill="rgb(0 0 0)" id="delaunay_directed_edge_face_and_vertex_filled_arrow0032" markerHeight="3" markerWidth="5" orient="auto" refX="4" refY="0.5" stroke="none">
<path d="M1,0 L4,0 L0,2 z" transform="scale(-1 1) translate (-5 0)"/>
</marker>
<marker fill="rgb(0 0 0)" id="delaunay_directed_edge_face_and_vertex_filled_arrow0033" markerHeight="3" markerWidth="5" orient="auto" refX="4" refY="0.5" stroke="none">
<path d="M1,0 L4,0 L0,2 z" transform="scale(-1 1) translate (-5 0)"/>
</marker>
<marker fill="rgb(0 0 0)" id="delaunay_directed_edge_face_and_vertex_filled_arrow0034" markerHeight="3" markerWidth="5" orient="auto" refX="4" refY="0.5" stroke="none">
<path d="M1,0 L4,0 L0,2 z" transform="scale(-1 1) translate (-5 0)"/>
</marker>
<marker fill="rgb(0 0 0)" id="delaunay_directed_edge_face_and_vertex_filled_arrow0035" markerHeight="3" markerWidth="5" orient="auto" refX="4" refY="0.5" stroke="none">
<path d="M1,0 L4,0 L0,2 z" transform="scale(-1 1) translate (-5 0)"/>
</marker>
<marker fill="rgb(0 0 0)" id="delaunay_directed_edge_face_and_vertex_filled_arrow0036" markerHeight="3" markerWidth="5" orient="auto" refX="4" refY="0.5" stroke="none">
<path d="M1,0 L4,0 L0,2 z" transform="scale(-1 1) translate (-5 0)"/>
</marker>
<marker fill="rgb(0 0 0)" id="delaunay_directed_edge_face_and_vertex_filled_arrow0037" markerHeight="3" markerWidth="5" orient="auto" refX="4" refY="0.5" stroke="none">
<path d="M1,0 L4,0 L0,2 z" transform="scale(-1 1) translate (-5 0)"/>
</marker>
<marker fill="rgb(0 0 0)" id="delaunay_directed_edge_face_and_vertex_filled_arrow0038" markerHeight="3" markerWidth="5" orient="auto" refX="4" refY="0.5" stroke="none">
<path d="M1,0 L4,0 L0,2 z" transform="scale(-1 1) translate (-5 0)"/>
</marker>
<marker fill="rgb(0 0 0)" id="delaunay_directed_edge_face_and_vertex_filled_arrow0039" markerHeight="3" markerWidth="5" orient="auto" refX="4" refY="0.5" stroke="none">
<path d="M1,0 L4,0 L0,2 z" transform="scale(-1 1) translate (-5 0)"/>
</marker>
<marker fill="rgb(0 0 0)" id="delaunay_directed_edge_face_and_vertex_filled_arrow0040" markerHeight="3" markerWidth="5" orient="auto" refX="4" refY="0.5" stroke="none">
<path d="M1,0 L4,0 L0,2 z" transform="scale(-1 1) translate (-5 0)"/>
</marker>
<marker fill="rgb(0 0 0)" id="delaunay_directed_edge_face_and_vertex_filled_arrow0041" markerHeight="3" markerWidth="5" orient="auto" refX="4" refY="0.5" stroke="none">
<path d="M1,0 L4,0 L0,2 z" transform="scale(-1 1) translate (-5 0)"/>
</marker>
<marker fill="rgb(0 0 0)" id="delaunay_directed_edge_face_and_vertex_filled_arrow0042" markerHeight="3" markerWidth="5" orient="auto" refX="4" refY="0.5" stroke="none">
<path d="M1,0 L4,0 L0,2 z" transform="scale(-1 1) translate (-5 0)"/>
</marker>
<marker fill="rgb(0 0 0)" id="delaunay_directed_edge_face_and_vertex_filled_arrow0043" markerHeight="3" markerWidth="5" orient="auto" refX="4" refY="0.5" stroke="none">
<path d="M1,0 L4,0 L0,2 z" transform="scale(-1 1) translate (-5 0)"/>
</marker>
<marker fill="rgb(0 0 0)" id="delaunay_directed_edge_face_and_vertex_filled_arrow0044" markerHeight="3" markerWidth="5" orient="auto" refX="4" refY="0.5" stroke="none">
<path d="M1,0 L4,0 L0,2 z" transform="scale(-1 1) translate (-5 0)"/>
</marker>
<marker fill="rgb(0 0 0)" id="delaunay_directed_edge_face_and_vertex_filled_arrow0045" markerHeight="3" markerWidth="5" orient="auto" refX="4" refY="0.5" stroke="none">
<path d="M1,0 L4,0 L0,2 z" transform="scale(-1 1) translate (-5 0)"/>
</marker>
<marker fill="rgb(0 0 0)" id="delaunay_directed_edge_face_and_vertex_filled_arrow0046" markerHeight="3" markerWidth="5" orient="auto" refX="4" refY="0.5" stroke="none">
<path d="M1,0 L4,0 L0,2 z" transform="scale(-1 1) translate (-5 0)"/>
</marker>
<marker fill="rgb(0 0 0)" id="delaunay_directed_edge_face_and_vertex_filled_arrow0047" markerHeight="3" markerWidth="5" orient="auto" refX="4" refY="0.5" stroke="none">
<path d="M1,0 L4,0 L0,2 z" transform="scale(-1 1) translate (-5 0)"/>
</marker>
<marker fill="rgb(0 0 0)" id="delaunay_directed_edge_face_and_vertex_filled_arrow0048" markerHeight="3" markerWidth="5" orient="auto" refX="4" refY="0.5" stroke="none">
<path d="M1,0 L4,0 L0,2 z" transform="scale(-1 1) translate (-5 0)"/>
</marker>
<marker fill="rgb(0 0 0)" id="delaunay_directed_edge_face_and_vertex_filled_arrow0049" markerHeight="3" markerWidth="5" orient="auto" refX="4" refY="0.5" stroke="none">
<path d="M1,0 L4,0 L0,2 z" transform="scale(-1 1) translate (-5 0)"/>
</marker>
<marker fill="rgb(0 0 0)" id="delaunay_directed_edge_face_and_vertex_filled_arrow0050" markerHeight="3" markerWidth="5" orient="auto" refX="4" refY="0.5" stroke="none">
<path d="M1,0 L4,0 L0,2 z" transform="scale(-1 1) translate (-5 0)"/>
</marker>
<marker fill="rgb(0 0 0)" id="delaunay_directed_edge_face_and_vertex_filled_arrow0051" markerHeight="3" markerWidth="5" orient="auto" refX="4" refY="0.5" stroke="none">
<path d="M1,0 L4,0 L0,2 z" transform="scale(-1 1) translate (-5 0)"/>
</marker>
<marker fill="rgb(0 0 0)" id="delaunay_directed_edge_face_and_vertex_filled_arrow0052" markerHeight="3" markerWidth="5" orient="auto" refX="4" refY="0.5" stroke="none">
<path d="M1,0 L4,0 L0,2 z" transform="scale(-1 1) translate (-5 0)"/>
</marker>
<marker fill="rgb(0 0 0)" id="delaunay_directed_edge_face_and_vertex_filled_arrow0053" markerHeight="3" markerWidth="5" orient="auto" refX="4" refY="0.5" stroke="none">
<path d="M1,0 L4,0 L0,2 z" transform="scale(-1 1) translate (-5 0)"/>
</marker>
<marker fill="rgb(0 0 0)" id="delaunay_directed_edge_face_and_vertex_filled_arrow0054" markerHeight="3" markerWidth="5" orient="auto" refX="4" refY="0.5" stroke="none">
<path d="M1,0 L4,0 L0,2 z" transform="scale(-1 1) translate (-5 0)"/>
</marker>
<marker fill="rgb(0 0 0)" id="delaunay_directed_edge_face_and_vertex_filled_arrow0055" markerHeight="3" markerWidth="5" orient="auto" refX="4" refY="0.5" stroke="none">
<path d="M1,0 L4,0 L0,2 z" transform="scale(-1 1) translate (-5 0)"/>
</marker>
<marker fill="rgb(0 0 0)" id="delaunay_directed_edge_face_and_vertex_filled_arrow0056" markerHeight="3" markerWidth="5" orient="auto" refX="4" refY="0.5" stroke="none">
<path d="M1,0 L4,0 L0,2 z" transform="scale(-1 1) translate (-5 0)"/>
</marker>
<marker fill="rgb(0 0 0)" id="delaunay_directed_edge_face_and_vertex_filled_arrow0057" markerHeight="3" markerWidth="5" orient="auto" refX="4" refY="0.5" stroke="none">
<path d="M1,0 L4,0 L0,2 z" transform="scale(-1 1) translate (-5 0)"/>
</marker>
<marker fill="rgb(0 0 0)" id="delaunay_directed_edge_face_and_vertex_filled_arrow0058" markerHeight="3" markerWidth="5" orient="auto" refX="4" refY="0.5" stroke="none">
<path d="M1,0 L4,0 L0,2 z" transform="scale(-1 1) translate (-5 0)"/>
</marker>
<marker fill="rgb(0 0 0)" id="delaunay_directed_edge_face_and_vertex_filled_arrow0059" markerHeight="3" markerWidth="5" orient="auto" refX="4" refY="0.5" stroke="none">
<path d="M1,0 L4,0 L0,2 z" transform="scale(-1 1) translate (-5 0)"/>
</marker>
<marker fill="rgb(0 0 0)" id="delaunay_directed_edge_face_and_vertex_filled_arrow0060" markerHeight="3" markerWidth="5" orient="auto" refX="4" refY="0.5" stroke="none">
<path d="M1,0 L4,0 L0,2 z" transform="scale(-1 1) translate (-5 0)"/>
</marker>
<marker fill="rgb(0 0 0)" id="delaunay_directed_edge_face_and_vertex_filled_arrow0061" markerHeight="3" markerWidth="5" orient="auto" refX="4.9" refY="1.5" stroke="none">
<path d="M0,0 L5,1.5 L0,3 z" transform="scale(-1 1) translate (-5 0)"/>
</marker>
<marker fill="rgb(0 0 0)" id="delaunay_directed_edge_face_and_vertex_filled_arrow0062" markerHeight="3" markerWidth="5" orient="auto" refX="4.9" refY="1.5" stroke="none">
<path d="M0,0 L5,1.5 L0,3 z" transform="scale(-1 1) translate (-5 0)"/>
</marker>
</defs>
<rect height="100%" style="fill: url(#delaunay_directed_edge_face_and_vertex_pattern0001)" width="100%" x="-10.100000000000001" y="-25.5"/>
<g>
<path d="M-41,61 L-50,-50 L-30,25 z" style="fill: rgb(211 211 211)"/>
<path d="M-41,-60 L-40,-40 L-50,-50 z" style="fill: rgb(211 211 211)"/>
<path d="M-40,-40 L-30,25 L-50,-50 z" style="fill: rgb(211 211 211)"/>
<path d="M-30,25 L-40,-40 L0,0 z" style="fill: rgb(211 211 211)"/>
<path d="M-41,61 L-30,25 L40,20 z" style="fill: rgb(211 211 211)"/>
<path d="M0,0 L-40,-40 L41,-20 z" style="fill: rgb(211 211 211)"/>
<path d="M0,0 L40,20 L-30,25 z" style="fill: rgb(211 211 211)"/>
<path d="M40,20 L0,0 L41,-20 z" style="fill: url(#delaunay_directed_edge_face_and_vertex_pattern0002)"/>
<path d="M-41,-60 L41,-70 L-40,-40 z" style="fill: rgb(211 211 211)"/>
<path d="M41,-80 L41,-70 L-41,-60 z" style="fill: rgb(211 211 211)"/>
<path d="M41,-70 L41,-20 L-40,-40 z" style="fill: rgb(211 211 211)"/>
<path d="M107,-20 L40,20 L41,-20 z" style="fill: rgb(211 211 211)"/>
<path d="M107,-20 L41,-20 L90,-40 z" style="fill: rgb(211 211 211)"/>
<path d="M41,-70 L90,-40 L41,-20 z" style="fill: rgb(211 211 211)"/>
<path d="M41,-80 L90,-40 L41,-70 z" style="fill: rgb(211 211 211)"/>
<path d="M90,60 L-41,61 L40,20 z" style="fill: rgb(211 211 211)"/>
<path d="M90,60 L40,20 L107,-20 z" style="fill: rgb(211 211 211)"/>
<line style="stroke-width: 0.7; stroke: rgb(0 0 0); marker-start: url(#delaunay_directed_edge_face_and_vertex_filled_arrow0003); fill: none" x1="-45.90444925417811" x2="-42.590649472968934" y1="-53.71349755465084" y2="-57.39549731154993"/>
<line style="stroke-width: 0.7; stroke: rgb(0 0 0); marker-start: url(#delaunay_directed_edge_face_and_vertex_filled_arrow0004); fill: none" x1="-45.09555074582189" x2="-48.409350527031066" y1="-56.28650244534916" y2="-52.60450268845007"/>
<line style="stroke-width: 0.7; stroke: rgb(0 0 0); marker-start: url(#delaunay_directed_edge_face_and_vertex_filled_arrow0005); fill: none" x1="-40.88631901126908" x2="-49.199384126757614" y1="55.472733348860295" y2="-47.05506974216496"/>
<line style="stroke-width: 0.7; stroke: rgb(0 0 0); marker-start: url(#delaunay_directed_edge_face_and_vertex_filled_arrow0006); fill: none" x1="-50.11368098873092" x2="-41.800615873242386" y1="-44.472733348860295" y2="58.05506974216496"/>
<line style="stroke-width: 0.7; stroke: rgb(0 0 0); marker-start: url(#delaunay_directed_edge_face_and_vertex_filled_arrow0007); fill: none" x1="-43.49310749906155" x2="-47.48269985897589" y1="-44.28506709399048" y2="-48.27465945390482"/>
<line style="stroke-width: 0.7; stroke: rgb(0 0 0); marker-start: url(#delaunay_directed_edge_face_and_vertex_filled_arrow0008); fill: none" x1="-46.50689250093845" x2="-42.51730014102411" y1="-45.71493290600952" y2="-41.72534054609518"/>
<line style="stroke-width: 0.7; stroke: rgb(0 0 0); marker-start: url(#delaunay_directed_edge_face_and_vertex_filled_arrow0009); fill: none" x1="-49.12394698809487" x2="-31.314079517857692" y1="-44.54141674787936" y2="22.245586265510045"/>
<line style="stroke-width: 0.7; stroke: rgb(0 0 0); marker-start: url(#delaunay_directed_edge_face_and_vertex_filled_arrow0010); fill: none" x1="-30.87605301190513" x2="-48.68592048214231" y1="19.54141674787936" y2="-47.24558626551005"/>
<line style="stroke-width: 0.7; stroke: rgb(0 0 0); marker-start: url(#delaunay_directed_edge_face_and_vertex_filled_arrow0011); fill: none" x1="-39.71535558341982" x2="-40.29088583939673" y1="-45.521102929316726" y2="-57.031708048855045"/>
<line style="stroke-width: 0.7; stroke: rgb(0 0 0); marker-start: url(#delaunay_directed_edge_face_and_vertex_filled_arrow0012); fill: none" x1="-41.28464441658018" x2="-40.70911416060327" y1="-54.478897070683274" y2="-42.968291951144955"/>
<line style="stroke-width: 0.7; stroke: rgb(0 0 0); marker-start: url(#delaunay_directed_edge_face_and_vertex_filled_arrow0013); fill: none" x1="-32.142758825583364" x2="-40.65890127299169" y1="30.096291260846915" y2="57.96730290691053"/>
<line style="stroke-width: 0.7; stroke: rgb(0 0 0); marker-start: url(#delaunay_directed_edge_face_and_vertex_filled_arrow0014); fill: none" x1="-38.85724117441664" x2="-30.341098727008312" y1="55.90370873915309" y2="28.032697093089467"/>
<line style="stroke-width: 0.7; stroke: rgb(0 0 0); marker-start: url(#delaunay_directed_edge_face_and_vertex_filled_arrow0015); fill: none" x1="-30.28282636271233" x2="-38.99034029655383" y1="19.4788036397394" y2="-37.120036930230356"/>
<line style="stroke-width: 0.7; stroke: rgb(0 0 0); marker-start: url(#delaunay_directed_edge_face_and_vertex_filled_arrow0016); fill: none" x1="-39.71717363728767" x2="-31.009659703446168" y1="-34.478803639739404" y2="22.120036930230356"/>
<line style="stroke-width: 0.7; stroke: rgb(0 0 0); marker-start: url(#delaunay_directed_edge_face_and_vertex_filled_arrow0017); fill: none" x1="-3.4931074990615443" x2="-37.48269985897589" y1="-4.285067093990477" y2="-38.27465945390482"/>
<line style="stroke-width: 0.7; stroke: rgb(0 0 0); marker-start: url(#delaunay_directed_edge_face_and_vertex_filled_arrow0018); fill: none" x1="-36.50689250093845" x2="-2.517300141024109" y1="-35.71493290600952" y2="-1.7253405460951758"/>
<line style="stroke-width: 0.7; stroke: rgb(0 0 0); marker-start: url(#delaunay_directed_edge_face_and_vertex_filled_arrow0019); fill: none" x1="-24.47407880293773" x2="37.047522248501025" y1="25.16671809697171" y2="20.77231802186894"/>
<line style="stroke-width: 0.7; stroke: rgb(0 0 0); marker-start: url(#delaunay_directed_edge_face_and_vertex_filled_arrow0020); fill: none" x1="34.474078802937726" x2="-27.047522248501025" y1="19.83328190302829" y2="24.22768197813106"/>
<line style="stroke-width: 0.7; stroke: rgb(0 0 0); marker-start: url(#delaunay_directed_edge_face_and_vertex_filled_arrow0021); fill: none" x1="-4.583720301597676" x2="-28.05383942501998" y1="3.090810281580109" y2="22.64924288443203"/>
<line style="stroke-width: 0.7; stroke: rgb(0 0 0); marker-start: url(#delaunay_directed_edge_face_and_vertex_filled_arrow0022); fill: none" x1="-25.416279698402327" x2="-1.9461605749800188" y1="21.909189718419892" y2="2.35075711556797"/>
<line style="stroke-width: 0.7; stroke: rgb(0 0 0); marker-start: url(#delaunay_directed_edge_face_and_vertex_filled_arrow0023); fill: none" x1="35.647885776758415" x2="-37.381249757090096" y1="-68.6149103489755" y2="-41.567082373476055"/>
<line style="stroke-width: 0.7; stroke: rgb(0 0 0); marker-start: url(#delaunay_directed_edge_face_and_vertex_filled_arrow0024); fill: none" x1="-34.647885776758415" x2="38.381249757090096" y1="-41.385089651024494" y2="-68.43291762652395"/>
<line style="stroke-width: 0.7; stroke: rgb(0 0 0); marker-start: url(#delaunay_directed_edge_face_and_vertex_filled_arrow0025); fill: none" x1="34.83992268341569" x2="-38.57626390141909" y1="21.98423841482623" y2="59.14551804418705"/>
<line style="stroke-width: 0.7; stroke: rgb(0 0 0); marker-start: url(#delaunay_directed_edge_face_and_vertex_filled_arrow0026); fill: none" x1="-35.83992268341569" x2="37.57626390141909" y1="59.01576158517376" y2="21.854481955812947"/>
<line style="stroke-width: 0.7; stroke: rgb(0 0 0); marker-start: url(#delaunay_directed_edge_face_and_vertex_filled_arrow0027); fill: none" x1="35.33109006298044" x2="2.933721186479724" y1="17.03944599779028" y2="0.840761559539921"/>
<line style="stroke-width: 0.7; stroke: rgb(0 0 0); marker-start: url(#delaunay_directed_edge_face_and_vertex_filled_arrow0028); fill: none" x1="4.668909937019562" x2="37.06627881352028" y1="2.9605540022097214" y2="19.15923844046008"/>
<line style="stroke-width: 0.7; stroke: rgb(0 0 0); marker-start: url(#delaunay_directed_edge_face_and_vertex_filled_arrow0029); fill: none" x1="-34.79460114175866" x2="37.95322958838372" y1="-38.13789830389967" y2="-20.175470963123768"/>
<line style="stroke-width: 0.7; stroke: rgb(0 0 0); marker-start: url(#delaunay_directed_edge_face_and_vertex_filled_arrow0030); fill: none" x1="35.79460114175866" x2="-36.95322958838372" y1="-21.862101696100332" y2="-39.82452903687623"/>
<line style="stroke-width: 0.7; stroke: rgb(0 0 0); marker-start: url(#delaunay_directed_edge_face_and_vertex_filled_arrow0031); fill: none" x1="5.188743684973439" x2="38.54921189700029" y1="-1.9080196465571957" y2="-18.181418774375175"/>
<line style="stroke-width: 0.7; stroke: rgb(0 0 0); marker-start: url(#delaunay_directed_edge_face_and_vertex_filled_arrow0032); fill: none" x1="35.81125631502656" x2="2.4507881029997067" y1="-18.091980353442807" y2="-1.8185812256248268"/>
<line style="stroke-width: 0.7; stroke: rgb(0 0 0); marker-start: url(#delaunay_directed_edge_face_and_vertex_filled_arrow0033); fill: none" x1="35.47265722329792" x2="-38.0898528175226" y1="-69.89008262721758" y2="-60.91904481736142"/>
<line style="stroke-width: 0.7; stroke: rgb(0 0 0); marker-start: url(#delaunay_directed_edge_face_and_vertex_filled_arrow0034); fill: none" x1="-35.47265722329792" x2="38.0898528175226" y1="-60.10991737278242" y2="-69.08095518263859"/>
<line style="stroke-width: 0.7; stroke: rgb(0 0 0); marker-start: url(#delaunay_directed_edge_face_and_vertex_filled_arrow0035); fill: none" x1="40.44" x2="40.44" y1="-74.5" y2="-73"/>
<line style="stroke-width: 0.7; stroke: rgb(0 0 0); marker-start: url(#delaunay_directed_edge_face_and_vertex_filled_arrow0036); fill: none" x1="41.56" x2="41.56" y1="-75.5" y2="-77"/>
<line style="stroke-width: 0.7; stroke: rgb(0 0 0); marker-start: url(#delaunay_directed_edge_face_and_vertex_filled_arrow0037); fill: none" x1="35.52394267578582" x2="-38.21813444455758" y1="-79.240792398668" y2="-61.25491993029158"/>
<line style="stroke-width: 0.7; stroke: rgb(0 0 0); marker-start: url(#delaunay_directed_edge_face_and_vertex_filled_arrow0038); fill: none" x1="-35.52394267578582" x2="38.21813444455758" y1="-60.75920760133199" y2="-78.74508006970844"/>
<line style="stroke-width: 0.7; stroke: rgb(0 0 0); marker-start: url(#delaunay_directed_edge_face_and_vertex_filled_arrow0039); fill: none" x1="40.30271786663033" x2="39.51515149149206" y1="-14.515713571805037" y2="16.986941433725917"/>
<line style="stroke-width: 0.7; stroke: rgb(0 0 0); marker-start: url(#delaunay_directed_edge_face_and_vertex_filled_arrow0040); fill: none" x1="40.69728213336967" x2="41.48484850850794" y1="14.515713571805037" y2="-16.986941433725917"/>
<line style="stroke-width: 0.7; stroke: rgb(0 0 0); marker-start: url(#delaunay_directed_edge_face_and_vertex_filled_arrow0041); fill: none" x1="41.56" x2="41.56" y1="-25.5" y2="-67"/>
<line style="stroke-width: 0.7; stroke: rgb(0 0 0); marker-start: url(#delaunay_directed_edge_face_and_vertex_filled_arrow0042); fill: none" x1="40.44" x2="40.44" y1="-64.5" y2="-23"/>
<line style="stroke-width: 0.7; stroke: rgb(0 0 0); marker-start: url(#delaunay_directed_edge_face_and_vertex_filled_arrow0043); fill: none" x1="101.9905195807074" x2="42.288803281876845" y1="-17.661473556120452" y2="17.981342144673903"/>
<line style="stroke-width: 0.7; stroke: rgb(0 0 0); marker-start: url(#delaunay_directed_edge_face_and_vertex_filled_arrow0044); fill: none" x1="45.009480419292615" x2="104.71119671812315" y1="17.661473556120452" y2="-17.981342144673903"/>
<line style="stroke-width: 0.7; stroke: rgb(0 0 0); marker-start: url(#delaunay_directed_edge_face_and_vertex_filled_arrow0045); fill: none" x1="101.5" x2="44" y1="-20.56" y2="-20.56"/>
<line style="stroke-width: 0.7; stroke: rgb(0 0 0); marker-start: url(#delaunay_directed_edge_face_and_vertex_filled_arrow0046); fill: none" x1="46.5" x2="104" y1="-19.44" y2="-19.44"/>
<line style="stroke-width: 0.7; stroke: rgb(0 0 0); marker-start: url(#delaunay_directed_edge_face_and_vertex_filled_arrow0047); fill: none" x1="84.6962156411175" x2="43.565920612526696" y1="-38.44004119462294" y2="-21.652165672749145"/>
<line style="stroke-width: 0.7; stroke: rgb(0 0 0); marker-start: url(#delaunay_directed_edge_face_and_vertex_filled_arrow0048); fill: none" x1="46.303784358882496" x2="87.43407938747332" y1="-21.559958805377054" y2="-38.34783432725085"/>
<line style="stroke-width: 0.7; stroke: rgb(0 0 0); marker-start: url(#delaunay_directed_edge_face_and_vertex_filled_arrow0049); fill: none" x1="85.60172398897811" x2="43.850960073626375" y1="-43.34944295829462" y2="-68.91113515136712"/>
<line style="stroke-width: 0.7; stroke: rgb(0 0 0); marker-start: url(#delaunay_directed_edge_face_and_vertex_filled_arrow0050); fill: none" x1="45.39827601102188" x2="87.14903992637362" y1="-66.65055704170537" y2="-41.08886484863288"/>
<line style="stroke-width: 0.7; stroke: rgb(0 0 0); marker-start: url(#delaunay_directed_edge_face_and_vertex_filled_arrow0051); fill: none" x1="93.13538029258017" x2="104.63036872176808" y1="-35.446650637069474" y2="-21.923134838024875"/>
<line style="stroke-width: 0.7; stroke: rgb(0 0 0); marker-start: url(#delaunay_directed_edge_face_and_vertex_filled_arrow0052); fill: none" x1="103.86461970741983" x2="92.36963127823192" y1="-24.55334936293053" y2="-38.07686516197513"/>
<line style="stroke-width: 0.7; stroke: rgb(0 0 0); marker-start: url(#delaunay_directed_edge_face_and_vertex_filled_arrow0053); fill: none" x1="86.09349423356701" x2="43.67811443477843" y1="-43.911880966597245" y2="-78.53668080234303"/>
<line style="stroke-width: 0.7; stroke: rgb(0 0 0); marker-start: url(#delaunay_directed_edge_face_and_vertex_filled_arrow0054); fill: none" x1="44.90650576643299" x2="87.32188556522158" y1="-76.08811903340276" y2="-41.46331919765697"/>
<line style="stroke-width: 0.7; stroke: rgb(0 0 0); marker-start: url(#delaunay_directed_edge_face_and_vertex_filled_arrow0055); fill: none" x1="84.49588555545317" x2="-38.00436208828952" y1="59.48199982497025" y2="60.4171162191973"/>
<line style="stroke-width: 0.7; stroke: rgb(0 0 0); marker-start: url(#delaunay_directed_edge_face_and_vertex_filled_arrow0056); fill: none" x1="-35.495885555453164" x2="87.00436208828951" y1="61.51800017502975" y2="60.5828837808027"/>
<line style="stroke-width: 0.7; stroke: rgb(0 0 0); marker-start: url(#delaunay_directed_edge_face_and_vertex_filled_arrow0057); fill: none" x1="86.05505077469381" x2="42.69243565495957" y1="56.126890705162566" y2="21.436798609375174"/>
<line style="stroke-width: 0.7; stroke: rgb(0 0 0); marker-start: url(#delaunay_directed_edge_face_and_vertex_filled_arrow0058); fill: none" x1="43.94494922530619" x2="87.30756434504043" y1="23.87310929483743" y2="58.56320139062482"/>
<line style="stroke-width: 0.7; stroke: rgb(0 0 0); marker-start: url(#delaunay_directed_edge_face_and_vertex_filled_arrow0059); fill: none" x1="91.69099211352426" x2="106.92419268905387" y1="54.73652722321101" y2="-16.9491225439872"/>
<line style="stroke-width: 0.7; stroke: rgb(0 0 0); marker-start: url(#delaunay_directed_edge_face_and_vertex_filled_arrow0060); fill: none" x1="105.30900788647574" x2="90.07580731094613" y1="-14.73652722321101" y2="56.9491225439872"/>
<circle cx="-50" cy="-50" r="2" style="stroke-width: 0.5; stroke: rgb(0 0 0); fill: rgb(105 105 105)"/>
<circle cx="-41" cy="-60" r="2" style="stroke-width: 0.5; stroke: rgb(0 0 0); fill: rgb(105 105 105)"/>
<circle cx="-41" cy="61" r="2" style="stroke-width: 0.5; stroke: rgb(0 0 0); fill: rgb(105 105 105)"/>
<circle cx="-40" cy="-40" r="2" style="stroke-width: 0.5; stroke: rgb(0 0 0); fill: rgb(105 105 105)"/>
<circle cx="-30" cy="25" r="2" style="stroke-width: 0.5; stroke: rgb(0 0 0); fill: rgb(105 105 105)"/>
<circle cx="0" cy="0" r="2" style="stroke-width: 0.5; stroke: rgb(0 0 0); fill: rgb(105 105 105)"/>
<circle cx="40" cy="20" r="2" style="stroke-width: 0.5; stroke: rgb(0 0 0); fill: rgb(105 105 105)"/>
<circle cx="41" cy="-70" r="2" style="stroke-width: 0.5; stroke: rgb(0 0 0); fill: rgb(105 105 105)"/>
<circle cx="41" cy="-80" r="2" style="stroke-width: 0.5; stroke: rgb(0 0 0); fill: rgb(105 105 105)"/>
<circle cx="41" cy="-20" r="2" style="stroke-width: 0.5; stroke: rgb(0 0 0); fill: rgb(105 105 105)"/>
<circle cx="107" cy="-20" r="2" style="stroke-width: 0.5; stroke: rgb(0 0 0); fill: rgb(105 105 105)"/>
<circle cx="90" cy="-40" r="2" style="stroke-width: 0.5; stroke: rgb(0 0 0); fill: rgb(105 105 105)"/>
<circle cx="90" cy="60" r="2" style="stroke-width: 0.5; stroke: rgb(0 0 0); fill: rgb(105 105 105)"/>
<text dy="-2.1" font-size="5" style="fill: rgb(0 0 0)" text-anchor="middle" transform="translate (20 10) rotate (26.56505117707799) translate(-20 -10)" x="20" y="10">
e
</text>
<text dy="0" font-size="5" style="fill: rgb(0 0 0)" text-anchor="middle" transform="translate (25.191358024691358 -0.3827160493827151) rotate (0) translate(-25.191358024691358 0.3827160493827151)" x="25.191358024691358" y="-0.3827160493827151">
e.face()
</text>
<text dy="0" font-size="5" style="fill: rgb(0 0 0)" transform="translate (-7 16) rotate (0) translate(7 -16)" x="-7" y="16">
e.from()
</text>
<path d="M1.8,6 L4,12" style="stroke-width: 0.7; stroke: rgb(0 0 0); marker-start: url(#delaunay_directed_edge_face_and_vertex_filled_arrow0061); stroke-dasharray: 1 0.5; fill: none"/>
<text dy="0" font-size="5" style="fill: rgb(0 0 0)" transform="translate (33 36) rotate (0) translate(-33 -36)" x="33" y="36">
e.to()
</text>
<path d="M40.5,26 L40.5,31" style="stroke-width: 0.7; stroke: rgb(0 0 0); marker-start: url(#delaunay_directed_edge_face_and_vertex_filled_arrow0062); stroke-dasharray: 1 0.5; fill: none"/>
</g>
</svg>