<svg viewBox="-10.480000000000002 -10.480000000000002 120.96000000000001 120.96000000000001" width="360" xmlns="http://www.w3.org/2000/svg" xmlns:xlink="http://www.w3.org/1999/xlink">
<defs>
<pattern height="1" id="exclude_outer_faces_refined_pattern0001" patternTransform="rotate(63.512 0 0) scale(2)" patternUnits="userSpaceOnUse" width="1">
<line stroke="rgb(255 255 255)" stroke-width="1.01" x1="0" x2="0" y1="-0.1" y2="1.1"/>
<line stroke="rgb(211 211 211)" stroke-width="1.01" x1="1" x2="1" y1="-0.1" y2="1.1"/>
</pattern>
</defs>
<rect height="100%" style="fill: url(#exclude_outer_faces_refined_pattern0001)" width="100%" x="-10.480000000000002" y="-10.480000000000002"/>
<g>
<path d="M10,75 L0,100 L0,0 z" style="fill: rgb(210 180 140)"/>
<path d="M15.475,59.975 L20.225,59.575 L18.225,64.425 z" style="fill: rgb(211 211 211)"/>
<path d="M12.725,67.475 L21.275,71.2 L15,75 z" style="fill: rgb(211 211 211)"/>
<path d="M0,100 L70,85 L80,90 z" style="fill: rgb(210 180 140)"/>
<path d="M20,75 L21.275,71.2 L40,75 z" style="fill: rgb(210 180 140)"/>
<path d="M0,100 L10,75 L15,75 z" style="fill: rgb(210 180 140)"/>
<path d="M35,55 L35,60 L30,55 z" style="fill: rgb(211 211 211)"/>
<path d="M30,60 L35,60 L37.5,67.5 z" style="fill: rgb(210 180 140)"/>
<path d="M10,75 L0,0 L12.725,67.475 z" style="fill: rgb(210 180 140)"/>
<path d="M55,55 L40,47.5 L60,45 z" style="fill: rgb(210 180 140)"/>
<path d="M85,90 L80,90 L85,85 z" style="fill: rgb(211 211 211)"/>
<path d="M20,75 L40,75 L0,100 z" style="fill: rgb(210 180 140)"/>
<path d="M0,100 L40,75 L70,85 z" style="fill: rgb(210 180 140)"/>
<path d="M47.275,67.475 L45,75 L38.725,71.2 z" style="fill: rgb(211 211 211)"/>
<path d="M30,20 L0,0 L100,0 z" style="fill: rgb(210 180 140)"/>
<path d="M30,20 L35.475,35.025 L24.525,35.025 z" style="fill: rgb(211 211 211)"/>
<path d="M25,60 L30,55 L30,60 z" style="fill: rgb(211 211 211)"/>
<path d="M20.85,55.55 L22.2,51.7 L25,55 z" style="fill: rgb(211 211 211)"/>
<path d="M44.525,59.975 L41.775,64.425 L39.775,59.575 z" style="fill: rgb(211 211 211)"/>
<path d="M35,55 L30,55 L33.725,51.2 z" style="fill: rgb(210 180 140)"/>
<path d="M30,40 L24.525,35.025 L35.475,35.025 z" style="fill: rgb(211 211 211)"/>
<path d="M39.15,55.55 L35,55 L37.8,51.7 z" style="fill: rgb(211 211 211)"/>
<path d="M70,45 L65,55 L60,45 z" style="fill: rgb(211 211 211)"/>
<path d="M80,80 L70,75 L85,80 z" style="fill: rgb(210 180 140)"/>
<path d="M80,90 L80,80 L85,85 z" style="fill: rgb(211 211 211)"/>
<path d="M40,47.5 L55,55 L41.8,52.45 z" style="fill: rgb(210 180 140)"/>
<path d="M60,75 L50,75 L55,65 z" style="fill: rgb(210 180 140)"/>
<path d="M65,65 L85,80 L70,75 z" style="fill: rgb(210 180 140)"/>
<path d="M70,85 L40,75 L45,75 z" style="fill: rgb(210 180 140)"/>
<path d="M50,75 L60,75 L70,85 z" style="fill: rgb(210 180 140)"/>
<path d="M85,90 L100,100 L80,90 z" style="fill: rgb(210 180 140)"/>
<path d="M100,100 L0,100 L80,90 z" style="fill: rgb(210 180 140)"/>
<path d="M55,65 L65,65 L60,75 z" style="fill: rgb(211 211 211)"/>
<path d="M80,40 L85,40 L65,55 z" style="fill: rgb(210 180 140)"/>
<path d="M65,65 L65,55 L85,80 z" style="fill: rgb(210 180 140)"/>
<path d="M100,100 L85,90 L85,85 z" style="fill: rgb(210 180 140)"/>
<path d="M70,85 L80,80 L80,90 z" style="fill: rgb(211 211 211)"/>
<path d="M80,80 L70,85 L70,75 z" style="fill: rgb(211 211 211)"/>
<path d="M60,75 L70,75 L70,85 z" style="fill: rgb(211 211 211)"/>
<path d="M70,75 L60,75 L65,65 z" style="fill: rgb(211 211 211)"/>
<path d="M55,55 L65,65 L55,65 z" style="fill: rgb(211 211 211)"/>
<path d="M70,45 L80,40 L65,55 z" style="fill: rgb(210 180 140)"/>
<path d="M65,55 L65,65 L55,55 z" style="fill: rgb(211 211 211)"/>
<path d="M70,35 L70,45 L60,45 z" style="fill: rgb(211 211 211)"/>
<path d="M80,40 L80,30 L85,35 z" style="fill: rgb(211 211 211)"/>
<path d="M85,80 L65,55 L85,40 z" style="fill: rgb(210 180 140)"/>
<path d="M80,30 L80,40 L70,35 z" style="fill: rgb(211 211 211)"/>
<path d="M100,100 L85,80 L85,40 z" style="fill: rgb(210 180 140)"/>
<path d="M85,40 L80,40 L85,35 z" style="fill: rgb(211 211 211)"/>
<path d="M85,40 L100,0 L100,100 z" style="fill: rgb(210 180 140)"/>
<path d="M30,20 L100,0 L80,30 z" style="fill: rgb(210 180 140)"/>
<path d="M100,0 L85,40 L85,35 z" style="fill: rgb(210 180 140)"/>
<path d="M55,55 L60,45 L65,55 z" style="fill: rgb(211 211 211)"/>
<path d="M85,30 L80,30 L100,0 z" style="fill: rgb(210 180 140)"/>
<path d="M70,35 L30,20 L80,30 z" style="fill: rgb(210 180 140)"/>
<path d="M70,45 L70,35 L80,40 z" style="fill: rgb(211 211 211)"/>
<path d="M60,45 L35.475,35.025 L70,35 z" style="fill: rgb(210 180 140)"/>
<path d="M30,20 L70,35 L35.475,35.025 z" style="fill: rgb(210 180 140)"/>
<path d="M0,0 L30,20 L24.525,35.025 z" style="fill: rgb(210 180 140)"/>
<path d="M18.2,52.45 L22.2,51.7 L20.85,55.55 z" style="fill: rgb(211 211 211)"/>
<path d="M55,65 L50,75 L47.275,67.475 z" style="fill: rgb(210 180 140)"/>
<path d="M41.8,52.45 L43.175,56.2 L39.15,55.55 z" style="fill: rgb(211 211 211)"/>
<path d="M20,47.5 L30,40 L27.5,47.5 z" style="fill: rgb(211 211 211)"/>
<path d="M33.725,51.2 L26.275,51.2 L32.5,47.5 z" style="fill: rgb(210 180 140)"/>
<path d="M27.5,47.5 L30,40 L32.5,47.5 z" style="fill: rgb(210 180 140)"/>
<path d="M30,40 L40,47.5 L32.5,47.5 z" style="fill: rgb(211 211 211)"/>
<path d="M0,0 L20,47.5 L18.2,52.45 z" style="fill: rgb(210 180 140)"/>
<path d="M18.2,52.45 L20.85,55.55 L16.825,56.2 z" style="fill: rgb(211 211 211)"/>
<path d="M30,40 L20,47.5 L24.525,35.025 z" style="fill: rgb(211 211 211)"/>
<path d="M20,47.5 L0,0 L24.525,35.025 z" style="fill: rgb(210 180 140)"/>
<path d="M60,45 L40,47.5 L35.475,35.025 z" style="fill: rgb(210 180 140)"/>
<path d="M40,47.5 L30,40 L35.475,35.025 z" style="fill: rgb(211 211 211)"/>
<path d="M33.725,51.2 L37.8,51.7 L35,55 z" style="fill: rgb(211 211 211)"/>
<path d="M55,65 L44.525,59.975 L55,55 z" style="fill: rgb(210 180 140)"/>
<path d="M25,55 L30,55 L25,60 z" style="fill: rgb(211 211 211)"/>
<path d="M30,55 L25,55 L26.275,51.2 z" style="fill: rgb(210 180 140)"/>
<path d="M30,55 L35,60 L30,60 z" style="fill: rgb(211 211 211)"/>
<path d="M38.725,71.2 L40,75 L21.275,71.2 z" style="fill: rgb(210 180 140)"/>
<path d="M85,80 L85,85 L80,80 z" style="fill: rgb(211 211 211)"/>
<path d="M85,80 L100,100 L85,85 z" style="fill: rgb(210 180 140)"/>
<path d="M85,30 L85,35 L80,30 z" style="fill: rgb(211 211 211)"/>
<path d="M85,30 L100,0 L85,35 z" style="fill: rgb(210 180 140)"/>
<path d="M55,55 L44.525,59.975 L43.175,56.2 z" style="fill: rgb(210 180 140)"/>
<path d="M39.775,59.575 L35,60 L39.15,55.55 z" style="fill: rgb(211 211 211)"/>
<path d="M25,55 L25,60 L20.85,55.55 z" style="fill: rgb(211 211 211)"/>
<path d="M15.475,59.975 L0,0 L16.825,56.2 z" style="fill: rgb(210 180 140)"/>
<path d="M39.775,59.575 L39.15,55.55 L43.175,56.2 z" style="fill: rgb(211 211 211)"/>
<path d="M41.8,52.45 L55,55 L43.175,56.2 z" style="fill: rgb(210 180 140)"/>
<path d="M39.775,59.575 L43.175,56.2 L44.525,59.975 z" style="fill: rgb(211 211 211)"/>
<path d="M37.5,67.5 L35,60 L41.775,64.425 z" style="fill: rgb(211 211 211)"/>
<path d="M0,0 L18.2,52.45 L16.825,56.2 z" style="fill: rgb(210 180 140)"/>
<path d="M20.225,59.575 L16.825,56.2 L20.85,55.55 z" style="fill: rgb(211 211 211)"/>
<path d="M10,75 L12.725,67.475 L15,75 z" style="fill: rgb(211 211 211)"/>
<path d="M20.225,59.575 L15.475,59.975 L16.825,56.2 z" style="fill: rgb(211 211 211)"/>
<path d="M35,55 L39.15,55.55 L35,60 z" style="fill: rgb(211 211 211)"/>
<path d="M41.8,52.45 L39.15,55.55 L37.8,51.7 z" style="fill: rgb(211 211 211)"/>
<path d="M39.775,59.575 L41.775,64.425 L35,60 z" style="fill: rgb(211 211 211)"/>
<path d="M44.525,59.975 L55,65 L47.275,67.475 z" style="fill: rgb(210 180 140)"/>
<path d="M40,75 L38.725,71.2 L45,75 z" style="fill: rgb(211 211 211)"/>
<path d="M30,60 L37.5,67.5 L22.5,67.5 z" style="fill: rgb(210 180 140)"/>
<path d="M26.275,51.2 L25,55 L22.2,51.7 z" style="fill: rgb(211 211 211)"/>
<path d="M20.225,59.575 L20.85,55.55 L25,60 z" style="fill: rgb(211 211 211)"/>
<path d="M20.225,59.575 L25,60 L18.225,64.425 z" style="fill: rgb(211 211 211)"/>
<path d="M25,60 L30,60 L22.5,67.5 z" style="fill: rgb(210 180 140)"/>
<path d="M27.5,47.5 L32.5,47.5 L26.275,51.2 z" style="fill: rgb(210 180 140)"/>
<path d="M33.725,51.2 L32.5,47.5 L37.8,51.7 z" style="fill: rgb(211 211 211)"/>
<path d="M41.775,64.425 L44.525,59.975 L47.275,67.475 z" style="fill: rgb(211 211 211)"/>
<path d="M37.5,67.5 L41.775,64.425 L38.725,71.2 z" style="fill: rgb(211 211 211)"/>
<path d="M20,47.5 L27.5,47.5 L22.2,51.7 z" style="fill: rgb(211 211 211)"/>
<path d="M30,55 L26.275,51.2 L33.725,51.2 z" style="fill: rgb(210 180 140)"/>
<path d="M0,0 L15.475,59.975 L12.725,67.475 z" style="fill: rgb(210 180 140)"/>
<path d="M12.725,67.475 L18.225,64.425 L21.275,71.2 z" style="fill: rgb(211 211 211)"/>
<path d="M18.225,64.425 L12.725,67.475 L15.475,59.975 z" style="fill: rgb(211 211 211)"/>
<path d="M22.5,67.5 L18.225,64.425 L25,60 z" style="fill: rgb(211 211 211)"/>
<path d="M40,47.5 L37.8,51.7 L32.5,47.5 z" style="fill: rgb(211 211 211)"/>
<path d="M37.8,51.7 L40,47.5 L41.8,52.45 z" style="fill: rgb(211 211 211)"/>
<path d="M22.5,67.5 L37.5,67.5 L21.275,71.2 z" style="fill: rgb(210 180 140)"/>
<path d="M47.275,67.475 L38.725,71.2 L41.775,64.425 z" style="fill: rgb(211 211 211)"/>
<path d="M22.2,51.7 L18.2,52.45 L20,47.5 z" style="fill: rgb(211 211 211)"/>
<path d="M26.275,51.2 L22.2,51.7 L27.5,47.5 z" style="fill: rgb(211 211 211)"/>
<path d="M22.5,67.5 L21.275,71.2 L18.225,64.425 z" style="fill: rgb(211 211 211)"/>
<path d="M38.725,71.2 L21.275,71.2 L37.5,67.5 z" style="fill: rgb(210 180 140)"/>
<path d="M20,75 L15,75 L21.275,71.2 z" style="fill: rgb(211 211 211)"/>
<path d="M20,75 L0,100 L15,75 z" style="fill: rgb(210 180 140)"/>
<path d="M47.275,67.475 L50,75 L45,75 z" style="fill: rgb(211 211 211)"/>
<path d="M50,75 L70,85 L45,75 z" style="fill: rgb(210 180 140)"/>
<line style="stroke-width: 1; stroke: rgb(169 169 169); fill: none" x1="0" x2="0" y1="0" y2="100"/>
<line style="stroke-width: 1; stroke: rgb(169 169 169); fill: none" x1="21.275" x2="15" y1="71.2" y2="75"/>
<line style="stroke-width: 1; stroke: rgb(169 169 169); fill: none" x1="100" x2="0" y1="100" y2="100"/>
<line style="stroke-width: 1; stroke: rgb(169 169 169); fill: none" x1="0" x2="100" y1="0" y2="0"/>
<line style="stroke-width: 1; stroke: rgb(169 169 169); fill: none" x1="100" x2="100" y1="0" y2="100"/>
<line style="stroke-width: 1; stroke: rgb(169 169 169); fill: none" x1="0" x2="10" y1="0" y2="75"/>
<line style="stroke-width: 1; stroke: rgb(169 169 169); fill: none" x1="20" x2="0" y1="75" y2="100"/>
<line style="stroke-width: 1; stroke: rgb(169 169 169); fill: none" x1="0" x2="10" y1="100" y2="75"/>
<line style="stroke-width: 1; stroke: rgb(169 169 169); fill: none" x1="21.275" x2="37.5" y1="71.2" y2="67.5"/>
<line style="stroke-width: 1; stroke: rgb(169 169 169); fill: none" x1="40" x2="0" y1="75" y2="100"/>
<line style="stroke-width: 1; stroke: rgb(139 0 0); fill: none" x1="10" x2="15" y1="75" y2="75"/>
<line style="stroke-width: 1; stroke: rgb(139 0 0); fill: none" x1="10" x2="12.725" y1="75" y2="67.475"/>
<line style="stroke-width: 1; stroke: rgb(169 169 169); fill: none" x1="30" x2="25" y1="55" y2="60"/>
<line style="stroke-width: 1; stroke: rgb(139 0 0); fill: none" x1="20" x2="21.275" y1="75" y2="71.2"/>
<line style="stroke-width: 1; stroke: rgb(139 0 0); fill: none" x1="25" x2="30" y1="60" y2="60"/>
<line style="stroke-width: 1; stroke: rgb(139 0 0); fill: none" x1="30" x2="35.475" y1="20" y2="35.025"/>
<line style="stroke-width: 1; stroke: rgb(169 169 169); fill: none" x1="80" x2="85" y1="80" y2="85"/>
<line style="stroke-width: 1; stroke: rgb(139 0 0); fill: none" x1="35" x2="37.5" y1="60" y2="67.5"/>
<line style="stroke-width: 1; stroke: rgb(169 169 169); fill: none" x1="40" x2="70" y1="75" y2="85"/>
<line style="stroke-width: 1; stroke: rgb(169 169 169); fill: none" x1="20" x2="40" y1="75" y2="75"/>
<line style="stroke-width: 1; stroke: rgb(139 0 0); fill: none" x1="80" x2="70" y1="90" y2="85"/>
<line style="stroke-width: 1; stroke: rgb(139 0 0); fill: none" x1="40" x2="45" y1="75" y2="75"/>
<line style="stroke-width: 1; stroke: rgb(169 169 169); fill: none" x1="39.775" x2="41.775" y1="59.575" y2="64.425"/>
<line style="stroke-width: 1; stroke: rgb(169 169 169); fill: none" x1="0" x2="30" y1="0" y2="20"/>
<line style="stroke-width: 1; stroke: rgb(169 169 169); fill: none" x1="100" x2="30" y1="0" y2="20"/>
<line style="stroke-width: 1; stroke: rgb(139 0 0); fill: none" x1="35" x2="30" y1="55" y2="55"/>
<line style="stroke-width: 1; stroke: rgb(169 169 169); fill: none" x1="20" x2="30" y1="47.5" y2="40"/>
<line style="stroke-width: 1; stroke: rgb(169 169 169); fill: none" x1="25" x2="25" y1="60" y2="55"/>
<line style="stroke-width: 1; stroke: rgb(169 169 169); fill: none" x1="25" x2="20.85" y1="60" y2="55.55"/>
<line style="stroke-width: 1; stroke: rgb(169 169 169); fill: none" x1="39.15" x2="35" y1="55.55" y2="60"/>
<line style="stroke-width: 1; stroke: rgb(169 169 169); fill: none" x1="35" x2="35" y1="60" y2="55"/>
<line style="stroke-width: 1; stroke: rgb(169 169 169); fill: none" x1="30" x2="40" y1="40" y2="47.5"/>
<line style="stroke-width: 1; stroke: rgb(139 0 0); fill: none" x1="25" x2="26.275" y1="55" y2="51.2"/>
<line style="stroke-width: 1; stroke: rgb(169 169 169); fill: none" x1="24.525" x2="35.475" y1="35.025" y2="35.025"/>
<line style="stroke-width: 1; stroke: rgb(139 0 0); fill: none" x1="35" x2="33.725" y1="55" y2="51.2"/>
<line style="stroke-width: 1; stroke: rgb(169 169 169); fill: none" x1="40" x2="60" y1="47.5" y2="45"/>
<line style="stroke-width: 1; stroke: rgb(169 169 169); fill: none" x1="65" x2="60" y1="55" y2="45"/>
<line style="stroke-width: 1; stroke: rgb(169 169 169); fill: none" x1="55" x2="44.525" y1="55" y2="59.975"/>
<line style="stroke-width: 1; stroke: rgb(169 169 169); fill: none" x1="85" x2="70" y1="80" y2="75"/>
<line style="stroke-width: 1; stroke: rgb(169 169 169); fill: none" x1="50" x2="55" y1="75" y2="65"/>
<line style="stroke-width: 1; stroke: rgb(139 0 0); fill: none" x1="55" x2="55" y1="55" y2="65"/>
<line style="stroke-width: 1; stroke: rgb(169 169 169); fill: none" x1="50" x2="60" y1="75" y2="75"/>
<line style="stroke-width: 1; stroke: rgb(139 0 0); fill: none" x1="55" x2="60" y1="65" y2="75"/>
<line style="stroke-width: 1; stroke: rgb(169 169 169); fill: none" x1="55" x2="65" y1="65" y2="65"/>
<line style="stroke-width: 1; stroke: rgb(169 169 169); fill: none" x1="0" x2="70" y1="100" y2="85"/>
<line style="stroke-width: 1; stroke: rgb(169 169 169); fill: none" x1="50" x2="70" y1="75" y2="85"/>
<line style="stroke-width: 1; stroke: rgb(139 0 0); fill: none" x1="60" x2="70" y1="75" y2="85"/>
<line style="stroke-width: 1; stroke: rgb(169 169 169); fill: none" x1="80" x2="80" y1="90" y2="80"/>
<line style="stroke-width: 1; stroke: rgb(169 169 169); fill: none" x1="100" x2="80" y1="100" y2="90"/>
<line style="stroke-width: 1; stroke: rgb(169 169 169); fill: none" x1="0" x2="80" y1="100" y2="90"/>
<line style="stroke-width: 1; stroke: rgb(139 0 0); fill: none" x1="80" x2="85" y1="90" y2="90"/>
<line style="stroke-width: 1; stroke: rgb(169 169 169); fill: none" x1="85" x2="100" y1="80" y2="100"/>
<line style="stroke-width: 1; stroke: rgb(169 169 169); fill: none" x1="100" x2="85" y1="100" y2="90"/>
<line style="stroke-width: 1; stroke: rgb(169 169 169); fill: none" x1="85" x2="65" y1="80" y2="55"/>
<line style="stroke-width: 1; stroke: rgb(169 169 169); fill: none" x1="85" x2="85" y1="80" y2="40"/>
<line style="stroke-width: 1; stroke: rgb(139 0 0); fill: none" x1="85" x2="85" y1="90" y2="85"/>
<line style="stroke-width: 1; stroke: rgb(139 0 0); fill: none" x1="85" x2="80" y1="80" y2="80"/>
<line style="stroke-width: 1; stroke: rgb(169 169 169); fill: none" x1="70" x2="80" y1="85" y2="80"/>
<line style="stroke-width: 1; stroke: rgb(169 169 169); fill: none" x1="70" x2="70" y1="85" y2="75"/>
<line style="stroke-width: 1; stroke: rgb(139 0 0); fill: none" x1="80" x2="70" y1="80" y2="75"/>
<line style="stroke-width: 1; stroke: rgb(169 169 169); fill: none" x1="60" x2="70" y1="75" y2="75"/>
<line style="stroke-width: 1; stroke: rgb(169 169 169); fill: none" x1="60" x2="65" y1="75" y2="65"/>
<line style="stroke-width: 1; stroke: rgb(139 0 0); fill: none" x1="70" x2="65" y1="75" y2="65"/>
<line style="stroke-width: 1; stroke: rgb(169 169 169); fill: none" x1="55" x2="65" y1="55" y2="65"/>
<line style="stroke-width: 1; stroke: rgb(169 169 169); fill: none" x1="85" x2="65" y1="80" y2="65"/>
<line style="stroke-width: 1; stroke: rgb(139 0 0); fill: none" x1="65" x2="65" y1="65" y2="55"/>
<line style="stroke-width: 1; stroke: rgb(169 169 169); fill: none" x1="55" x2="65" y1="55" y2="55"/>
<line style="stroke-width: 1; stroke: rgb(169 169 169); fill: none" x1="65" x2="80" y1="55" y2="40"/>
<line style="stroke-width: 1; stroke: rgb(169 169 169); fill: none" x1="70" x2="60" y1="45" y2="45"/>
<line style="stroke-width: 1; stroke: rgb(169 169 169); fill: none" x1="80" x2="80" y1="40" y2="30"/>
<line style="stroke-width: 1; stroke: rgb(139 0 0); fill: none" x1="65" x2="70" y1="55" y2="45"/>
<line style="stroke-width: 1; stroke: rgb(139 0 0); fill: none" x1="70" x2="80" y1="45" y2="40"/>
<line style="stroke-width: 1; stroke: rgb(169 169 169); fill: none" x1="80" x2="85" y1="30" y2="35"/>
<line style="stroke-width: 1; stroke: rgb(169 169 169); fill: none" x1="85" x2="65" y1="40" y2="55"/>
<line style="stroke-width: 1; stroke: rgb(139 0 0); fill: none" x1="80" x2="85" y1="40" y2="40"/>
<line style="stroke-width: 1; stroke: rgb(169 169 169); fill: none" x1="100" x2="85" y1="0" y2="40"/>
<line style="stroke-width: 1; stroke: rgb(169 169 169); fill: none" x1="100" x2="85" y1="100" y2="40"/>
<line style="stroke-width: 1; stroke: rgb(169 169 169); fill: none" x1="80" x2="100" y1="30" y2="0"/>
<line style="stroke-width: 1; stroke: rgb(169 169 169); fill: none" x1="100" x2="85" y1="0" y2="30"/>
<line style="stroke-width: 1; stroke: rgb(139 0 0); fill: none" x1="85" x2="85" y1="40" y2="35"/>
<line style="stroke-width: 1; stroke: rgb(169 169 169); fill: none" x1="80" x2="70" y1="40" y2="35"/>
<line style="stroke-width: 1; stroke: rgb(169 169 169); fill: none" x1="30" x2="80" y1="20" y2="30"/>
<line style="stroke-width: 1; stroke: rgb(139 0 0); fill: none" x1="85" x2="80" y1="30" y2="30"/>
<line style="stroke-width: 1; stroke: rgb(169 169 169); fill: none" x1="30" x2="70" y1="20" y2="35"/>
<line style="stroke-width: 1; stroke: rgb(139 0 0); fill: none" x1="80" x2="70" y1="30" y2="35"/>
<line style="stroke-width: 1; stroke: rgb(169 169 169); fill: none" x1="70" x2="70" y1="45" y2="35"/>
<line style="stroke-width: 1; stroke: rgb(139 0 0); fill: none" x1="55" x2="60" y1="55" y2="45"/>
<line style="stroke-width: 1; stroke: rgb(169 169 169); fill: none" x1="35.475" x2="70" y1="35.025" y2="35"/>
<line style="stroke-width: 1; stroke: rgb(139 0 0); fill: none" x1="70" x2="60" y1="35" y2="45"/>
<line style="stroke-width: 1; stroke: rgb(169 169 169); fill: none" x1="0" x2="20" y1="0" y2="47.5"/>
<line style="stroke-width: 1; stroke: rgb(139 0 0); fill: none" x1="30" x2="24.525" y1="20" y2="35.025"/>
<line style="stroke-width: 1; stroke: rgb(169 169 169); fill: none" x1="22.2" x2="20.85" y1="51.7" y2="55.55"/>
<line style="stroke-width: 1; stroke: rgb(169 169 169); fill: none" x1="55" x2="40" y1="55" y2="47.5"/>
<line style="stroke-width: 1; stroke: rgb(139 0 0); fill: none" x1="50" x2="47.275" y1="75" y2="67.475"/>
<line style="stroke-width: 1; stroke: rgb(169 169 169); fill: none" x1="37.8" x2="39.15" y1="51.7" y2="55.55"/>
<line style="stroke-width: 1; stroke: rgb(169 169 169); fill: none" x1="20" x2="27.5" y1="47.5" y2="47.5"/>
<line style="stroke-width: 1; stroke: rgb(139 0 0); fill: none" x1="30" x2="27.5" y1="40" y2="47.5"/>
<line style="stroke-width: 1; stroke: rgb(169 169 169); fill: none" x1="26.275" x2="32.5" y1="51.2" y2="47.5"/>
<line style="stroke-width: 1; stroke: rgb(169 169 169); fill: none" x1="27.5" x2="32.5" y1="47.5" y2="47.5"/>
<line style="stroke-width: 1; stroke: rgb(139 0 0); fill: none" x1="30" x2="32.5" y1="40" y2="47.5"/>
<line style="stroke-width: 1; stroke: rgb(169 169 169); fill: none" x1="40" x2="32.5" y1="47.5" y2="47.5"/>
<line style="stroke-width: 1; stroke: rgb(169 169 169); fill: none" x1="0" x2="15.475" y1="0" y2="59.975"/>
<line style="stroke-width: 1; stroke: rgb(139 0 0); fill: none" x1="20" x2="18.2" y1="47.5" y2="52.45"/>
<line style="stroke-width: 1; stroke: rgb(169 169 169); fill: none" x1="18.225" x2="20.225" y1="64.425" y2="59.575"/>
<line style="stroke-width: 1; stroke: rgb(169 169 169); fill: none" x1="30" x2="24.525" y1="40" y2="35.025"/>
<line style="stroke-width: 1; stroke: rgb(139 0 0); fill: none" x1="20" x2="24.525" y1="47.5" y2="35.025"/>
<line style="stroke-width: 1; stroke: rgb(169 169 169); fill: none" x1="0" x2="24.525" y1="0" y2="35.025"/>
<line style="stroke-width: 1; stroke: rgb(169 169 169); fill: none" x1="60" x2="35.475" y1="45" y2="35.025"/>
<line style="stroke-width: 1; stroke: rgb(139 0 0); fill: none" x1="40" x2="35.475" y1="47.5" y2="35.025"/>
<line style="stroke-width: 1; stroke: rgb(169 169 169); fill: none" x1="30" x2="35.475" y1="40" y2="35.025"/>
<line style="stroke-width: 1; stroke: rgb(169 169 169); fill: none" x1="41.775" x2="38.725" y1="64.425" y2="71.2"/>
<line style="stroke-width: 1; stroke: rgb(139 0 0); fill: none" x1="40" x2="41.8" y1="47.5" y2="52.45"/>
<line style="stroke-width: 1; stroke: rgb(169 169 169); fill: none" x1="55" x2="44.525" y1="65" y2="59.975"/>
<line style="stroke-width: 1; stroke: rgb(169 169 169); fill: none" x1="35" x2="30" y1="60" y2="55"/>
<line style="stroke-width: 1; stroke: rgb(139 0 0); fill: none" x1="25" x2="30" y1="55" y2="55"/>
<line style="stroke-width: 1; stroke: rgb(169 169 169); fill: none" x1="26.275" x2="33.725" y1="51.2" y2="51.2"/>
<line style="stroke-width: 1; stroke: rgb(169 169 169); fill: none" x1="30" x2="30" y1="55" y2="60"/>
<line style="stroke-width: 1; stroke: rgb(139 0 0); fill: none" x1="35" x2="30" y1="60" y2="60"/>
<line style="stroke-width: 1; stroke: rgb(169 169 169); fill: none" x1="37.5" x2="22.5" y1="67.5" y2="67.5"/>
<line style="stroke-width: 1; stroke: rgb(169 169 169); fill: none" x1="80" x2="85" y1="90" y2="85"/>
<line style="stroke-width: 1; stroke: rgb(139 0 0); fill: none" x1="85" x2="85" y1="80" y2="85"/>
<line style="stroke-width: 1; stroke: rgb(169 169 169); fill: none" x1="100" x2="85" y1="100" y2="85"/>
<line style="stroke-width: 1; stroke: rgb(169 169 169); fill: none" x1="80" x2="85" y1="40" y2="35"/>
<line style="stroke-width: 1; stroke: rgb(139 0 0); fill: none" x1="85" x2="85" y1="30" y2="35"/>
<line style="stroke-width: 1; stroke: rgb(169 169 169); fill: none" x1="100" x2="85" y1="0" y2="35"/>
<line style="stroke-width: 1; stroke: rgb(169 169 169); fill: none" x1="55" x2="41.8" y1="55" y2="52.45"/>
<line style="stroke-width: 1; stroke: rgb(139 0 0); fill: none" x1="44.525" x2="43.175" y1="59.975" y2="56.2"/>
<line style="stroke-width: 1; stroke: rgb(169 169 169); fill: none" x1="37.8" x2="35" y1="51.7" y2="55"/>
<line style="stroke-width: 1; stroke: rgb(169 169 169); fill: none" x1="22.2" x2="25" y1="51.7" y2="55"/>
<line style="stroke-width: 1; stroke: rgb(139 0 0); fill: none" x1="15.475" x2="16.825" y1="59.975" y2="56.2"/>
<line style="stroke-width: 1; stroke: rgb(169 169 169); fill: none" x1="0" x2="18.2" y1="0" y2="52.45"/>
<line style="stroke-width: 1; stroke: rgb(169 169 169); fill: none" x1="43.175" x2="39.15" y1="56.2" y2="55.55"/>
<line style="stroke-width: 1; stroke: rgb(139 0 0); fill: none" x1="41.8" x2="43.175" y1="52.45" y2="56.2"/>
<line style="stroke-width: 1; stroke: rgb(169 169 169); fill: none" x1="55" x2="43.175" y1="55" y2="56.2"/>
<line style="stroke-width: 1; stroke: rgb(169 169 169); fill: none" x1="43.175" x2="39.775" y1="56.2" y2="59.575"/>
<line style="stroke-width: 1; stroke: rgb(169 169 169); fill: none" x1="44.525" x2="39.775" y1="59.975" y2="59.575"/>
<line style="stroke-width: 1; stroke: rgb(169 169 169); fill: none" x1="35" x2="39.775" y1="60" y2="59.575"/>
<line style="stroke-width: 1; stroke: rgb(169 169 169); fill: none" x1="0" x2="16.825" y1="0" y2="56.2"/>
<line style="stroke-width: 1; stroke: rgb(139 0 0); fill: none" x1="18.2" x2="16.825" y1="52.45" y2="56.2"/>
<line style="stroke-width: 1; stroke: rgb(169 169 169); fill: none" x1="16.825" x2="20.85" y1="56.2" y2="55.55"/>
<line style="stroke-width: 1; stroke: rgb(169 169 169); fill: none" x1="25" x2="20.225" y1="60" y2="59.575"/>
<line style="stroke-width: 1; stroke: rgb(169 169 169); fill: none" x1="15.475" x2="20.225" y1="59.975" y2="59.575"/>
<line style="stroke-width: 1; stroke: rgb(169 169 169); fill: none" x1="16.825" x2="20.225" y1="56.2" y2="59.575"/>
<line style="stroke-width: 1; stroke: rgb(169 169 169); fill: none" x1="39.775" x2="39.15" y1="59.575" y2="55.55"/>
<line style="stroke-width: 1; stroke: rgb(169 169 169); fill: none" x1="35" x2="39.15" y1="55" y2="55.55"/>
<line style="stroke-width: 1; stroke: rgb(169 169 169); fill: none" x1="41.8" x2="39.15" y1="52.45" y2="55.55"/>
<line style="stroke-width: 1; stroke: rgb(169 169 169); fill: none" x1="45" x2="38.725" y1="75" y2="71.2"/>
<line style="stroke-width: 1; stroke: rgb(139 0 0); fill: none" x1="44.525" x2="47.275" y1="59.975" y2="67.475"/>
<line style="stroke-width: 1; stroke: rgb(169 169 169); fill: none" x1="55" x2="47.275" y1="65" y2="67.475"/>
<line style="stroke-width: 1; stroke: rgb(169 169 169); fill: none" x1="35" x2="41.775" y1="60" y2="64.425"/>
<line style="stroke-width: 1; stroke: rgb(139 0 0); fill: none" x1="40" x2="38.725" y1="75" y2="71.2"/>
<line style="stroke-width: 1; stroke: rgb(169 169 169); fill: none" x1="30" x2="37.5" y1="60" y2="67.5"/>
<line style="stroke-width: 1; stroke: rgb(169 169 169); fill: none" x1="18.2" x2="20.85" y1="52.45" y2="55.55"/>
<line style="stroke-width: 1; stroke: rgb(169 169 169); fill: none" x1="25" x2="20.85" y1="55" y2="55.55"/>
<line style="stroke-width: 1; stroke: rgb(169 169 169); fill: none" x1="20.225" x2="20.85" y1="59.575" y2="55.55"/>
<line style="stroke-width: 1; stroke: rgb(169 169 169); fill: none" x1="18.225" x2="25" y1="64.425" y2="60"/>
<line style="stroke-width: 1; stroke: rgb(139 0 0); fill: none" x1="25" x2="22.5" y1="60" y2="67.5"/>
<line style="stroke-width: 1; stroke: rgb(169 169 169); fill: none" x1="30" x2="22.5" y1="60" y2="67.5"/>
<line style="stroke-width: 1; stroke: rgb(169 169 169); fill: none" x1="30" x2="33.725" y1="55" y2="51.2"/>
<line style="stroke-width: 1; stroke: rgb(139 0 0); fill: none" x1="32.5" x2="33.725" y1="47.5" y2="51.2"/>
<line style="stroke-width: 1; stroke: rgb(169 169 169); fill: none" x1="32.5" x2="37.8" y1="47.5" y2="51.7"/>
<line style="stroke-width: 1; stroke: rgb(169 169 169); fill: none" x1="44.525" x2="41.775" y1="59.975" y2="64.425"/>
<line style="stroke-width: 1; stroke: rgb(169 169 169); fill: none" x1="47.275" x2="41.775" y1="67.475" y2="64.425"/>
<line style="stroke-width: 1; stroke: rgb(169 169 169); fill: none" x1="37.5" x2="41.775" y1="67.5" y2="64.425"/>
<line style="stroke-width: 1; stroke: rgb(169 169 169); fill: none" x1="22.2" x2="27.5" y1="51.7" y2="47.5"/>
<line style="stroke-width: 1; stroke: rgb(139 0 0); fill: none" x1="27.5" x2="26.275" y1="47.5" y2="51.2"/>
<line style="stroke-width: 1; stroke: rgb(169 169 169); fill: none" x1="30" x2="26.275" y1="55" y2="51.2"/>
<line style="stroke-width: 1; stroke: rgb(169 169 169); fill: none" x1="0" x2="12.725" y1="0" y2="67.475"/>
<line style="stroke-width: 1; stroke: rgb(139 0 0); fill: none" x1="15.475" x2="12.725" y1="59.975" y2="67.475"/>
<line style="stroke-width: 1; stroke: rgb(169 169 169); fill: none" x1="18.225" x2="21.275" y1="64.425" y2="71.2"/>
<line style="stroke-width: 1; stroke: rgb(169 169 169); fill: none" x1="12.725" x2="18.225" y1="67.475" y2="64.425"/>
<line style="stroke-width: 1; stroke: rgb(169 169 169); fill: none" x1="15.475" x2="18.225" y1="59.975" y2="64.425"/>
<line style="stroke-width: 1; stroke: rgb(169 169 169); fill: none" x1="22.5" x2="18.225" y1="67.5" y2="64.425"/>
<line style="stroke-width: 1; stroke: rgb(169 169 169); fill: none" x1="33.725" x2="37.8" y1="51.2" y2="51.7"/>
<line style="stroke-width: 1; stroke: rgb(169 169 169); fill: none" x1="40" x2="37.8" y1="47.5" y2="51.7"/>
<line style="stroke-width: 1; stroke: rgb(169 169 169); fill: none" x1="41.8" x2="37.8" y1="52.45" y2="51.7"/>
<line style="stroke-width: 1; stroke: rgb(169 169 169); fill: none" x1="40" x2="21.275" y1="75" y2="71.2"/>
<line style="stroke-width: 1; stroke: rgb(139 0 0); fill: none" x1="37.5" x2="38.725" y1="67.5" y2="71.2"/>
<line style="stroke-width: 1; stroke: rgb(169 169 169); fill: none" x1="47.275" x2="38.725" y1="67.475" y2="71.2"/>
<line style="stroke-width: 1; stroke: rgb(169 169 169); fill: none" x1="18.2" x2="22.2" y1="52.45" y2="51.7"/>
<line style="stroke-width: 1; stroke: rgb(169 169 169); fill: none" x1="20" x2="22.2" y1="47.5" y2="51.7"/>
<line style="stroke-width: 1; stroke: rgb(169 169 169); fill: none" x1="26.275" x2="22.2" y1="51.2" y2="51.7"/>
<line style="stroke-width: 1; stroke: rgb(169 169 169); fill: none" x1="12.725" x2="21.275" y1="67.475" y2="71.2"/>
<line style="stroke-width: 1; stroke: rgb(139 0 0); fill: none" x1="22.5" x2="21.275" y1="67.5" y2="71.2"/>
<line style="stroke-width: 1; stroke: rgb(169 169 169); fill: none" x1="38.725" x2="21.275" y1="71.2" y2="71.2"/>
<line style="stroke-width: 1; stroke: rgb(169 169 169); fill: none" x1="12.725" x2="15" y1="67.475" y2="75"/>
<line style="stroke-width: 1; stroke: rgb(139 0 0); fill: none" x1="20" x2="15" y1="75" y2="75"/>
<line style="stroke-width: 1; stroke: rgb(169 169 169); fill: none" x1="0" x2="15" y1="100" y2="75"/>
<line style="stroke-width: 1; stroke: rgb(169 169 169); fill: none" x1="47.275" x2="45" y1="67.475" y2="75"/>
<line style="stroke-width: 1; stroke: rgb(139 0 0); fill: none" x1="50" x2="45" y1="75" y2="75"/>
<line style="stroke-width: 1; stroke: rgb(169 169 169); fill: none" x1="70" x2="45" y1="85" y2="75"/>
<circle cx="0" cy="0" r="0.4" style="stroke-width: 0.5; stroke: rgb(0 0 0); fill: rgb(105 105 105)"/>
<circle cx="0" cy="100" r="0.4" style="stroke-width: 0.5; stroke: rgb(0 0 0); fill: rgb(105 105 105)"/>
<circle cx="100" cy="100" r="0.4" style="stroke-width: 0.5; stroke: rgb(0 0 0); fill: rgb(105 105 105)"/>
<circle cx="100" cy="0" r="0.4" style="stroke-width: 0.5; stroke: rgb(0 0 0); fill: rgb(105 105 105)"/>
<circle cx="10" cy="75" r="0.4" style="stroke-width: 0.5; stroke: rgb(0 0 0); fill: rgb(105 105 105)"/>
<circle cx="20" cy="75" r="0.4" style="stroke-width: 0.5; stroke: rgb(0 0 0); fill: rgb(105 105 105)"/>
<circle cx="25" cy="60" r="0.4" style="stroke-width: 0.5; stroke: rgb(0 0 0); fill: rgb(105 105 105)"/>
<circle cx="35" cy="60" r="0.4" style="stroke-width: 0.5; stroke: rgb(0 0 0); fill: rgb(105 105 105)"/>
<circle cx="40" cy="75" r="0.4" style="stroke-width: 0.5; stroke: rgb(0 0 0); fill: rgb(105 105 105)"/>
<circle cx="50" cy="75" r="0.4" style="stroke-width: 0.5; stroke: rgb(0 0 0); fill: rgb(105 105 105)"/>
<circle cx="30" cy="20" r="0.4" style="stroke-width: 0.5; stroke: rgb(0 0 0); fill: rgb(105 105 105)"/>
<circle cx="25" cy="55" r="0.4" style="stroke-width: 0.5; stroke: rgb(0 0 0); fill: rgb(105 105 105)"/>
<circle cx="35" cy="55" r="0.4" style="stroke-width: 0.5; stroke: rgb(0 0 0); fill: rgb(105 105 105)"/>
<circle cx="30" cy="40" r="0.4" style="stroke-width: 0.5; stroke: rgb(0 0 0); fill: rgb(105 105 105)"/>
<circle cx="55" cy="55" r="0.4" style="stroke-width: 0.5; stroke: rgb(0 0 0); fill: rgb(105 105 105)"/>
<circle cx="55" cy="65" r="0.4" style="stroke-width: 0.5; stroke: rgb(0 0 0); fill: rgb(105 105 105)"/>
<circle cx="60" cy="75" r="0.4" style="stroke-width: 0.5; stroke: rgb(0 0 0); fill: rgb(105 105 105)"/>
<circle cx="70" cy="85" r="0.4" style="stroke-width: 0.5; stroke: rgb(0 0 0); fill: rgb(105 105 105)"/>
<circle cx="80" cy="90" r="0.4" style="stroke-width: 0.5; stroke: rgb(0 0 0); fill: rgb(105 105 105)"/>
<circle cx="85" cy="90" r="0.4" style="stroke-width: 0.5; stroke: rgb(0 0 0); fill: rgb(105 105 105)"/>
<circle cx="85" cy="80" r="0.4" style="stroke-width: 0.5; stroke: rgb(0 0 0); fill: rgb(105 105 105)"/>
<circle cx="80" cy="80" r="0.4" style="stroke-width: 0.5; stroke: rgb(0 0 0); fill: rgb(105 105 105)"/>
<circle cx="70" cy="75" r="0.4" style="stroke-width: 0.5; stroke: rgb(0 0 0); fill: rgb(105 105 105)"/>
<circle cx="65" cy="65" r="0.4" style="stroke-width: 0.5; stroke: rgb(0 0 0); fill: rgb(105 105 105)"/>
<circle cx="65" cy="55" r="0.4" style="stroke-width: 0.5; stroke: rgb(0 0 0); fill: rgb(105 105 105)"/>
<circle cx="70" cy="45" r="0.4" style="stroke-width: 0.5; stroke: rgb(0 0 0); fill: rgb(105 105 105)"/>
<circle cx="80" cy="40" r="0.4" style="stroke-width: 0.5; stroke: rgb(0 0 0); fill: rgb(105 105 105)"/>
<circle cx="85" cy="40" r="0.4" style="stroke-width: 0.5; stroke: rgb(0 0 0); fill: rgb(105 105 105)"/>
<circle cx="85" cy="30" r="0.4" style="stroke-width: 0.5; stroke: rgb(0 0 0); fill: rgb(105 105 105)"/>
<circle cx="80" cy="30" r="0.4" style="stroke-width: 0.5; stroke: rgb(0 0 0); fill: rgb(105 105 105)"/>
<circle cx="70" cy="35" r="0.4" style="stroke-width: 0.5; stroke: rgb(0 0 0); fill: rgb(105 105 105)"/>
<circle cx="60" cy="45" r="0.4" style="stroke-width: 0.5; stroke: rgb(0 0 0); fill: rgb(105 105 105)"/>
<circle cx="20" cy="47.5" r="0.4" style="stroke-width: 0.5; stroke: rgb(0 0 0); fill: rgb(105 105 105)"/>
<circle cx="40" cy="47.5" r="0.4" style="stroke-width: 0.5; stroke: rgb(0 0 0); fill: rgb(105 105 105)"/>
<circle cx="27.5" cy="47.5" r="0.4" style="stroke-width: 0.5; stroke: rgb(0 0 0); fill: rgb(105 105 105)"/>
<circle cx="32.5" cy="47.5" r="0.4" style="stroke-width: 0.5; stroke: rgb(0 0 0); fill: rgb(105 105 105)"/>
<circle cx="15.475" cy="59.975" r="0.4" style="stroke-width: 0.5; stroke: rgb(0 0 0); fill: rgb(105 105 105)"/>
<circle cx="24.525" cy="35.025" r="0.4" style="stroke-width: 0.5; stroke: rgb(0 0 0); fill: rgb(105 105 105)"/>
<circle cx="35.475" cy="35.025" r="0.4" style="stroke-width: 0.5; stroke: rgb(0 0 0); fill: rgb(105 105 105)"/>
<circle cx="44.525" cy="59.975" r="0.4" style="stroke-width: 0.5; stroke: rgb(0 0 0); fill: rgb(105 105 105)"/>
<circle cx="30" cy="55" r="0.4" style="stroke-width: 0.5; stroke: rgb(0 0 0); fill: rgb(105 105 105)"/>
<circle cx="30" cy="60" r="0.4" style="stroke-width: 0.5; stroke: rgb(0 0 0); fill: rgb(105 105 105)"/>
<circle cx="85" cy="85" r="0.4" style="stroke-width: 0.5; stroke: rgb(0 0 0); fill: rgb(105 105 105)"/>
<circle cx="85" cy="35" r="0.4" style="stroke-width: 0.5; stroke: rgb(0 0 0); fill: rgb(105 105 105)"/>
<circle cx="41.8" cy="52.45" r="0.4" style="stroke-width: 0.5; stroke: rgb(0 0 0); fill: rgb(105 105 105)"/>
<circle cx="18.2" cy="52.45" r="0.4" style="stroke-width: 0.5; stroke: rgb(0 0 0); fill: rgb(105 105 105)"/>
<circle cx="43.175" cy="56.2" r="0.4" style="stroke-width: 0.5; stroke: rgb(0 0 0); fill: rgb(105 105 105)"/>
<circle cx="39.775" cy="59.575" r="0.4" style="stroke-width: 0.5; stroke: rgb(0 0 0); fill: rgb(105 105 105)"/>
<circle cx="16.825" cy="56.2" r="0.4" style="stroke-width: 0.5; stroke: rgb(0 0 0); fill: rgb(105 105 105)"/>
<circle cx="20.225" cy="59.575" r="0.4" style="stroke-width: 0.5; stroke: rgb(0 0 0); fill: rgb(105 105 105)"/>
<circle cx="39.15" cy="55.55" r="0.4" style="stroke-width: 0.5; stroke: rgb(0 0 0); fill: rgb(105 105 105)"/>
<circle cx="47.275" cy="67.475" r="0.4" style="stroke-width: 0.5; stroke: rgb(0 0 0); fill: rgb(105 105 105)"/>
<circle cx="37.5" cy="67.5" r="0.4" style="stroke-width: 0.5; stroke: rgb(0 0 0); fill: rgb(105 105 105)"/>
<circle cx="20.85" cy="55.55" r="0.4" style="stroke-width: 0.5; stroke: rgb(0 0 0); fill: rgb(105 105 105)"/>
<circle cx="22.5" cy="67.5" r="0.4" style="stroke-width: 0.5; stroke: rgb(0 0 0); fill: rgb(105 105 105)"/>
<circle cx="33.725" cy="51.2" r="0.4" style="stroke-width: 0.5; stroke: rgb(0 0 0); fill: rgb(105 105 105)"/>
<circle cx="41.775" cy="64.425" r="0.4" style="stroke-width: 0.5; stroke: rgb(0 0 0); fill: rgb(105 105 105)"/>
<circle cx="26.275" cy="51.2" r="0.4" style="stroke-width: 0.5; stroke: rgb(0 0 0); fill: rgb(105 105 105)"/>
<circle cx="12.725" cy="67.475" r="0.4" style="stroke-width: 0.5; stroke: rgb(0 0 0); fill: rgb(105 105 105)"/>
<circle cx="18.225" cy="64.425" r="0.4" style="stroke-width: 0.5; stroke: rgb(0 0 0); fill: rgb(105 105 105)"/>
<circle cx="37.8" cy="51.7" r="0.4" style="stroke-width: 0.5; stroke: rgb(0 0 0); fill: rgb(105 105 105)"/>
<circle cx="38.725" cy="71.2" r="0.4" style="stroke-width: 0.5; stroke: rgb(0 0 0); fill: rgb(105 105 105)"/>
<circle cx="22.2" cy="51.7" r="0.4" style="stroke-width: 0.5; stroke: rgb(0 0 0); fill: rgb(105 105 105)"/>
<circle cx="21.275" cy="71.2" r="0.4" style="stroke-width: 0.5; stroke: rgb(0 0 0); fill: rgb(105 105 105)"/>
<circle cx="15" cy="75" r="0.4" style="stroke-width: 0.5; stroke: rgb(0 0 0); fill: rgb(105 105 105)"/>
<circle cx="45" cy="75" r="0.4" style="stroke-width: 0.5; stroke: rgb(0 0 0); fill: rgb(105 105 105)"/>
</g>
</svg>