<svg viewBox="-79.1 -53.8 121.2 117.6" width="420" xmlns="http://www.w3.org/2000/svg" xmlns:xlink="http://www.w3.org/1999/xlink">
<defs>
<pattern height="1" id="ls_pattern0001" patternTransform="rotate(63.512 0 0) scale(2)" patternUnits="userSpaceOnUse" width="1">
<line stroke="rgb(255 255 255)" stroke-width="1.01" x1="0" x2="0" y1="-0.1" y2="1.1"/>
<line stroke="rgb(211 211 211)" stroke-width="1.01" x1="1" x2="1" y1="-0.1" y2="1.1"/>
</pattern>
<marker fill="rgb(0 0 0)" id="ls_filled_arrow0002" markerHeight="3" markerWidth="5" orient="auto" refX="1" refY="0.5" stroke="none">
<path d="M1,0 L4,0 L0,2 z"/>
</marker>
<marker fill="rgb(0 0 0)" id="ls_filled_arrow0003" markerHeight="3" markerWidth="5" orient="auto" refX="1" refY="0.5" stroke="none">
<path d="M1,0 L4,0 L0,2 z"/>
</marker>
<marker fill="rgb(0 0 0)" id="ls_filled_arrow0004" markerHeight="3" markerWidth="5" orient="auto" refX="1" refY="0.5" stroke="none">
<path d="M1,0 L4,0 L0,2 z"/>
</marker>
<marker fill="rgb(0 0 0)" id="ls_filled_arrow0005" markerHeight="3" markerWidth="5" orient="auto" refX="1" refY="0.5" stroke="none">
<path d="M1,0 L4,0 L0,2 z"/>
</marker>
<marker fill="rgb(0 0 0)" id="ls_filled_arrow0006" markerHeight="3" markerWidth="5" orient="auto" refX="1" refY="0.5" stroke="none">
<path d="M1,0 L4,0 L0,2 z"/>
</marker>
<marker fill="rgb(0 0 0)" id="ls_filled_arrow0007" markerHeight="3" markerWidth="5" orient="auto" refX="1" refY="0.5" stroke="none">
<path d="M1,0 L4,0 L0,2 z"/>
</marker>
<marker fill="rgb(0 0 0)" id="ls_filled_arrow0008" markerHeight="3" markerWidth="5" orient="auto" refX="1" refY="0.5" stroke="none">
<path d="M1,0 L4,0 L0,2 z"/>
</marker>
<marker fill="rgb(0 0 0)" id="ls_filled_arrow0009" markerHeight="3" markerWidth="5" orient="auto" refX="1" refY="0.5" stroke="none">
<path d="M1,0 L4,0 L0,2 z"/>
</marker>
<marker fill="rgb(0 0 0)" id="ls_filled_arrow0010" markerHeight="3" markerWidth="5" orient="auto" refX="1" refY="0.5" stroke="none">
<path d="M1,0 L4,0 L0,2 z"/>
</marker>
<marker fill="rgb(0 0 0)" id="ls_filled_arrow0011" markerHeight="3" markerWidth="5" orient="auto" refX="1" refY="0.5" stroke="none">
<path d="M1,0 L4,0 L0,2 z"/>
</marker>
<marker fill="rgb(0 0 0)" id="ls_filled_arrow0012" markerHeight="3" markerWidth="5" orient="auto" refX="1" refY="0.5" stroke="none">
<path d="M1,0 L4,0 L0,2 z"/>
</marker>
<marker fill="rgb(0 0 0)" id="ls_filled_arrow0013" markerHeight="3" markerWidth="5" orient="auto" refX="1" refY="0.5" stroke="none">
<path d="M1,0 L4,0 L0,2 z"/>
</marker>
<marker fill="rgb(0 0 0)" id="ls_filled_arrow0014" markerHeight="3" markerWidth="5" orient="auto" refX="1" refY="0.5" stroke="none">
<path d="M1,0 L4,0 L0,2 z"/>
</marker>
<marker fill="rgb(0 0 0)" id="ls_filled_arrow0015" markerHeight="3" markerWidth="5" orient="auto" refX="1" refY="0.5" stroke="none">
<path d="M1,0 L4,0 L0,2 z"/>
</marker>
<marker fill="rgb(0 0 0)" id="ls_filled_arrow0016" markerHeight="3" markerWidth="5" orient="auto" refX="1" refY="0.5" stroke="none">
<path d="M1,0 L4,0 L0,2 z"/>
</marker>
<marker fill="rgb(0 0 0)" id="ls_filled_arrow0017" markerHeight="3" markerWidth="5" orient="auto" refX="1" refY="0.5" stroke="none">
<path d="M1,0 L4,0 L0,2 z"/>
</marker>
<marker fill="rgb(0 0 0)" id="ls_filled_arrow0018" markerHeight="3" markerWidth="5" orient="auto" refX="1" refY="0.5" stroke="none">
<path d="M1,0 L4,0 L0,2 z"/>
</marker>
<marker fill="rgb(0 0 0)" id="ls_filled_arrow0019" markerHeight="3" markerWidth="5" orient="auto" refX="1" refY="0.5" stroke="none">
<path d="M1,0 L4,0 L0,2 z"/>
</marker>
<marker fill="rgb(0 0 0)" id="ls_filled_arrow0020" markerHeight="3" markerWidth="5" orient="auto" refX="1" refY="0.5" stroke="none">
<path d="M1,0 L4,0 L0,2 z"/>
</marker>
<marker fill="rgb(0 0 0)" id="ls_filled_arrow0021" markerHeight="3" markerWidth="5" orient="auto" refX="1" refY="0.5" stroke="none">
<path d="M1,0 L4,0 L0,2 z"/>
</marker>
<marker fill="rgb(0 0 0)" id="ls_filled_arrow0022" markerHeight="3" markerWidth="5" orient="auto" refX="1" refY="0.5" stroke="none">
<path d="M1,0 L4,0 L0,2 z"/>
</marker>
<marker fill="rgb(0 0 0)" id="ls_filled_arrow0023" markerHeight="3" markerWidth="5" orient="auto" refX="1" refY="0.5" stroke="none">
<path d="M1,0 L4,0 L0,2 z"/>
</marker>
<marker fill="rgb(0 0 0)" id="ls_filled_arrow0024" markerHeight="3" markerWidth="5" orient="auto" refX="1" refY="0.5" stroke="none">
<path d="M1,0 L4,0 L0,2 z"/>
</marker>
<marker fill="rgb(0 0 0)" id="ls_filled_arrow0025" markerHeight="3" markerWidth="5" orient="auto" refX="1" refY="0.5" stroke="none">
<path d="M1,0 L4,0 L0,2 z"/>
</marker>
<marker fill="rgb(0 0 0)" id="ls_filled_arrow0026" markerHeight="3" markerWidth="5" orient="auto" refX="1" refY="0.5" stroke="none">
<path d="M1,0 L4,0 L0,2 z"/>
</marker>
<marker fill="rgb(0 0 0)" id="ls_filled_arrow0027" markerHeight="3" markerWidth="5" orient="auto" refX="1" refY="0.5" stroke="none">
<path d="M1,0 L4,0 L0,2 z"/>
</marker>
<marker fill="rgb(65 105 225)" id="ls_filled_arrow0028" markerHeight="3" markerWidth="5" orient="auto" refX="0.1" refY="1.5" stroke="none">
<path d="M0,0 L5,1.5 L0,3 z"/>
</marker>
<marker fill="rgb(65 105 225)" id="ls_filled_arrow0029" markerHeight="3" markerWidth="5" orient="auto" refX="0.1" refY="1.5" stroke="none">
<path d="M0,0 L5,1.5 L0,3 z"/>
</marker>
<marker fill="rgb(65 105 225)" id="ls_filled_arrow0030" markerHeight="3" markerWidth="5" orient="auto" refX="0.1" refY="1.5" stroke="none">
<path d="M0,0 L5,1.5 L0,3 z"/>
</marker>
<marker fill="rgb(65 105 225)" id="ls_filled_arrow0031" markerHeight="3" markerWidth="5" orient="auto" refX="0.1" refY="1.5" stroke="none">
<path d="M0,0 L5,1.5 L0,3 z"/>
</marker>
<marker fill="rgb(65 105 225)" id="ls_filled_arrow0032" markerHeight="3" markerWidth="5" orient="auto" refX="0.1" refY="1.5" stroke="none">
<path d="M0,0 L5,1.5 L0,3 z"/>
</marker>
<marker fill="rgb(65 105 225)" id="ls_filled_arrow0033" markerHeight="3" markerWidth="5" orient="auto" refX="0.1" refY="1.5" stroke="none">
<path d="M0,0 L5,1.5 L0,3 z"/>
</marker>
<marker fill="rgb(65 105 225)" id="ls_filled_arrow0034" markerHeight="3" markerWidth="5" orient="auto" refX="0.1" refY="1.5" stroke="none">
<path d="M0,0 L5,1.5 L0,3 z"/>
</marker>
<marker fill="rgb(65 105 225)" id="ls_filled_arrow0035" markerHeight="3" markerWidth="5" orient="auto" refX="0.1" refY="1.5" stroke="none">
<path d="M0,0 L5,1.5 L0,3 z"/>
</marker>
<marker fill="rgb(65 105 225)" id="ls_filled_arrow0036" markerHeight="3" markerWidth="5" orient="auto" refX="0.1" refY="1.5" stroke="none">
<path d="M0,0 L5,1.5 L0,3 z"/>
</marker>
<marker fill="rgb(65 105 225)" id="ls_filled_arrow0037" markerHeight="3" markerWidth="5" orient="auto" refX="0.1" refY="1.5" stroke="none">
<path d="M0,0 L5,1.5 L0,3 z"/>
</marker>
<marker fill="rgb(65 105 225)" id="ls_filled_arrow0038" markerHeight="3" markerWidth="5" orient="auto" refX="0.1" refY="1.5" stroke="none">
<path d="M0,0 L5,1.5 L0,3 z"/>
</marker>
<marker fill="rgb(65 105 225)" id="ls_filled_arrow0039" markerHeight="3" markerWidth="5" orient="auto" refX="0.1" refY="1.5" stroke="none">
<path d="M0,0 L5,1.5 L0,3 z"/>
</marker>
<marker fill="rgb(65 105 225)" id="ls_filled_arrow0040" markerHeight="3" markerWidth="5" orient="auto" refX="0.1" refY="1.5" stroke="none">
<path d="M0,0 L5,1.5 L0,3 z"/>
</marker>
<marker fill="rgb(65 105 225)" id="ls_filled_arrow0041" markerHeight="3" markerWidth="5" orient="auto" refX="0.1" refY="1.5" stroke="none">
<path d="M0,0 L5,1.5 L0,3 z"/>
</marker>
</defs>
<rect height="100%" style="fill: url(#ls_pattern0001)" width="100%" x="-79.1" y="-53.8"/>
<g>
<path d="M-30,20 L-67,52 L-40,-24 z" style="fill: rgb(211 211 211)"/>
<path d="M-30,20 L-40,-24 L-5,0 z" style="fill: rgb(211 211 211)"/>
<path d="M-67,52 L-30,20 L15,42 z" style="fill: rgb(211 211 211)"/>
<path d="M-6,-42 L-5,0 L-40,-24 z" style="fill: rgb(211 211 211)"/>
<path d="M-5,0 L15,42 L-30,20 z" style="fill: rgb(211 211 211)"/>
<path d="M15,42 L-5,0 L30,2 z" style="fill: rgb(211 211 211)"/>
<path d="M-6,-42 L30,2 L-5,0 z" style="fill: rgb(211 211 211)"/>
<line style="stroke-width: 0.7; stroke: rgb(0 0 0); marker-end: url(#ls_filled_arrow0002); fill: none" x1="-41.53198406921112" x2="-65.68648112421312" y1="-21.360563542783552" y2="46.629872612036884"/>
<line style="stroke-width: 0.7; stroke: rgb(0 0 0); marker-end: url(#ls_filled_arrow0003); fill: none" x1="-65.46801593078887" x2="-41.313518875786876" y1="49.360563542783545" y2="-18.629872612036884"/>
<line style="stroke-width: 0.7; stroke: rgb(0 0 0); marker-end: url(#ls_filled_arrow0004); fill: none" x1="-30.118788911523687" x2="-38.23500953101746" y1="16.950493614615798" y2="-18.760877111156795"/>
<line style="stroke-width: 0.7; stroke: rgb(0 0 0); marker-end: url(#ls_filled_arrow0005); fill: none" x1="-39.88121108847631" x2="-31.764990468982543" y1="-20.950493614615798" y2="14.760877111156793"/>
<line style="stroke-width: 0.7; stroke: rgb(0 0 0); marker-end: url(#ls_filled_arrow0006); fill: none" x1="-64.36458540020188" x2="-33.79367236604511" y1="50.46110757777845" y2="24.021399007696914"/>
<line style="stroke-width: 0.7; stroke: rgb(0 0 0); marker-end: url(#ls_filled_arrow0007); fill: none" x1="-32.635414599798125" x2="-63.2063276339549" y1="21.538892422221554" y2="47.97860099230309"/>
<line style="stroke-width: 0.7; stroke: rgb(0 0 0); marker-end: url(#ls_filled_arrow0008); fill: none" x1="-8.913380872475843" x2="-35.401183583525814" y1="-41.09125807189726" y2="-27.068303695459036"/>
<line style="stroke-width: 0.7; stroke: rgb(0 0 0); marker-end: url(#ls_filled_arrow0009); fill: none" x1="-37.08661912752415" x2="-10.59881641647418" y1="-24.908741928102746" y2="-38.931696304540964"/>
<line style="stroke-width: 0.7; stroke: rgb(0 0 0); marker-end: url(#ls_filled_arrow0010); fill: none" x1="-7.157490676429078" x2="-35.147295435738265" y1="-2.15843322368833" y2="-21.351442201500348"/>
<line style="stroke-width: 0.7; stroke: rgb(0 0 0); marker-end: url(#ls_filled_arrow0011); fill: none" x1="-37.84250932357092" x2="-9.852704564261733" y1="-21.841566776311673" y2="-2.6485577984996542"/>
<line style="stroke-width: 0.7; stroke: rgb(0 0 0); marker-end: url(#ls_filled_arrow0012); fill: none" x1="-7.692435654959569" x2="-26.055050774693807" y1="1.436798609375176" y2="16.12689070516257"/>
<line style="stroke-width: 0.7; stroke: rgb(0 0 0); marker-end: url(#ls_filled_arrow0013); fill: none" x1="-27.307564345040433" x2="-8.944949225306189" y1="18.563201390624826" y2="3.8731092948374304"/>
<line style="stroke-width: 0.7; stroke: rgb(0 0 0); marker-end: url(#ls_filled_arrow0014); fill: none" x1="12.550804591165164" x2="-24.812928341021628" y1="40.17927436187042" y2="21.91256048391243"/>
<line style="stroke-width: 0.7; stroke: rgb(0 0 0); marker-end: url(#ls_filled_arrow0015); fill: none" x1="-27.550804591165164" x2="9.812928341021628" y1="21.82072563812958" y2="40.08743951608757"/>
<line style="stroke-width: 0.7; stroke: rgb(0 0 0); marker-end: url(#ls_filled_arrow0016); fill: none" x1="-4.51156699654215" x2="-5.3092433839986946" y1="-3.0124795768823303" y2="-36.51488785005718"/>
<line style="stroke-width: 0.7; stroke: rgb(0 0 0); marker-end: url(#ls_filled_arrow0017); fill: none" x1="-6.48843300345785" x2="-5.6907566160013054" y1="-38.987520423117665" y2="-5.485112149942827"/>
<line style="stroke-width: 0.7; stroke: rgb(0 0 0); marker-end: url(#ls_filled_arrow0018); fill: none" x1="14.215801149364358" x2="-2.129763417300686" y1="39.050655638508495" y2="4.724970048511903"/>
<line style="stroke-width: 0.7; stroke: rgb(0 0 0); marker-end: url(#ls_filled_arrow0019); fill: none" x1="-4.215801149364357" x2="12.129763417300687" y1="2.9493443614915056" y2="37.275029951488094"/>
<line style="stroke-width: 0.7; stroke: rgb(0 0 0); marker-end: url(#ls_filled_arrow0020); fill: none" x1="-63.954271917174246" x2="9.60823812364629" y1="52.19271856549518" y2="43.221680755639014"/>
<line style="stroke-width: 0.7; stroke: rgb(0 0 0); marker-end: url(#ls_filled_arrow0021); fill: none" x1="11.954271917174239" x2="-61.608238123646295" y1="41.80728143450482" y2="50.778319244360986"/>
<line style="stroke-width: 0.7; stroke: rgb(0 0 0); marker-end: url(#ls_filled_arrow0022); fill: none" x1="27.036833879429636" x2="0.5229902220334381" y1="1.2697626811070344" y2="-0.24531409931560563"/>
<line style="stroke-width: 0.7; stroke: rgb(0 0 0); marker-end: url(#ls_filled_arrow0023); fill: none" x1="-2.0368338794296377" x2="24.477009777966565" y1="0.7302373188929656" y2="2.2453140993156055"/>
<line style="stroke-width: 0.7; stroke: rgb(0 0 0); marker-end: url(#ls_filled_arrow0024); fill: none" x1="28.53370271678207" x2="-2.083776066031195" y1="-0.6764850601540302" y2="-38.0978480169258"/>
<line style="stroke-width: 0.7; stroke: rgb(0 0 0); marker-end: url(#ls_filled_arrow0025); fill: none" x1="-4.533702716782071" x2="26.083776066031195" y1="-39.323514939845964" y2="-1.9021519830741984"/>
<line style="stroke-width: 0.7; stroke: rgb(0 0 0); marker-end: url(#ls_filled_arrow0026); fill: none" x1="16.57771466420384" x2="28.593165410702508" y1="39.38764159458236" y2="7.3464396039192446"/>
<line style="stroke-width: 0.7; stroke: rgb(0 0 0); marker-end: url(#ls_filled_arrow0027); fill: none" x1="28.42228533579616" x2="16.40683458929749" y1="4.612358405417634" y2="36.653560396080756"/>
<circle cx="-67" cy="52" r="2" style="stroke-width: 0.5; stroke: rgb(0 0 0); fill: rgb(105 105 105)"/>
<circle cx="-40" cy="-24" r="2" style="stroke-width: 0.5; stroke: rgb(0 0 0); fill: rgb(105 105 105)"/>
<circle cx="-30" cy="20" r="2" style="stroke-width: 0.5; stroke: rgb(0 0 0); fill: rgb(105 105 105)"/>
<circle cx="-6" cy="-42" r="2" style="stroke-width: 0.5; stroke: rgb(0 0 0); fill: rgb(105 105 105)"/>
<circle cx="-5" cy="0" r="2" style="stroke-width: 0.5; stroke: rgb(0 0 0); fill: rgb(105 105 105)"/>
<circle cx="15" cy="42" r="2" style="stroke-width: 0.5; stroke: rgb(0 0 0); fill: rgb(105 105 105)"/>
<circle cx="30" cy="2" r="2" style="stroke-width: 0.5; stroke: rgb(0 0 0); fill: rgb(105 105 105)"/>
<path d="M-45.666668,11.5 A4.5,4.5,0,0,1,-42.774124,19.4472" style="stroke-width: 1; stroke: rgb(65 105 225); marker-end: url(#ls_filled_arrow0028); fill: none"/>
<path d="M-45.666668,20.5 A4.5,4.5,0,0,1,-48.55921,12.5528" style="stroke-width: 1; stroke: rgb(65 105 225); marker-end: url(#ls_filled_arrow0029); fill: none"/>
<path d="M-25,-5.8333335 A4.5,4.5,0,0,1,-22.107456,2.1138666" style="stroke-width: 1; stroke: rgb(65 105 225); marker-end: url(#ls_filled_arrow0030); fill: none"/>
<path d="M-25,3.1666667 A4.5,4.5,0,0,1,-27.892544,-4.7805333" style="stroke-width: 1; stroke: rgb(65 105 225); marker-end: url(#ls_filled_arrow0031); fill: none"/>
<path d="M-27.333334,33.5 A4.5,4.5,0,0,1,-24.440788,41.4472" style="stroke-width: 1; stroke: rgb(65 105 225); marker-end: url(#ls_filled_arrow0032); fill: none"/>
<path d="M-27.333334,42.5 A4.5,4.5,0,0,1,-30.225878,34.5528" style="stroke-width: 1; stroke: rgb(65 105 225); marker-end: url(#ls_filled_arrow0033); fill: none"/>
<path d="M-17,-26.5 A4.5,4.5,0,0,1,-14.107456,-18.5528" style="stroke-width: 1; stroke: rgb(65 105 225); marker-end: url(#ls_filled_arrow0034); fill: none"/>
<path d="M-17,-17.5 A4.5,4.5,0,0,1,-19.892544,-25.4472" style="stroke-width: 1; stroke: rgb(65 105 225); marker-end: url(#ls_filled_arrow0035); fill: none"/>
<path d="M-6.6666665,16.166666 A4.5,4.5,0,0,1,-3.7741225,24.113867" style="stroke-width: 1; stroke: rgb(65 105 225); marker-end: url(#ls_filled_arrow0036); fill: none"/>
<path d="M-6.6666665,25.166666 A4.5,4.5,0,0,1,-9.559211,17.219467" style="stroke-width: 1; stroke: rgb(65 105 225); marker-end: url(#ls_filled_arrow0037); fill: none"/>
<path d="M13.333333,10.166667 A4.5,4.5,0,0,1,16.225878,18.113867" style="stroke-width: 1; stroke: rgb(65 105 225); marker-end: url(#ls_filled_arrow0038); fill: none"/>
<path d="M13.333333,19.166666 A4.5,4.5,0,0,1,10.440789,11.219466" style="stroke-width: 1; stroke: rgb(65 105 225); marker-end: url(#ls_filled_arrow0039); fill: none"/>
<path d="M6.3333335,-17.833334 A4.5,4.5,0,0,1,9.225878,-9.886133" style="stroke-width: 1; stroke: rgb(65 105 225); marker-end: url(#ls_filled_arrow0040); fill: none"/>
<path d="M6.3333335,-8.833333 A4.5,4.5,0,0,1,3.440789,-16.780533" style="stroke-width: 1; stroke: rgb(65 105 225); marker-end: url(#ls_filled_arrow0041); fill: none"/>
</g>
</svg>