<svg viewBox="-79.1 -53.8 121.2 117.6" width="420" xmlns="http://www.w3.org/2000/svg" xmlns:xlink="http://www.w3.org/1999/xlink">
<defs>
<pattern height="1" id="lhs_pattern0001" patternTransform="rotate(63.512 0 0) scale(2)" patternUnits="userSpaceOnUse" width="1">
<line stroke="rgb(255 255 255)" stroke-width="1.01" x1="0" x2="0" y1="-0.1" y2="1.1"/>
<line stroke="rgb(211 211 211)" stroke-width="1.01" x1="1" x2="1" y1="-0.1" y2="1.1"/>
</pattern>
<marker fill="rgb(0 0 0)" id="lhs_filled_arrow0002" markerHeight="3" markerWidth="5" orient="auto" refX="1" refY="0.5" stroke="none">
<path d="M1,0 L4,0 L0,2 z"/>
</marker>
<marker fill="rgb(0 0 0)" id="lhs_filled_arrow0003" markerHeight="3" markerWidth="5" orient="auto" refX="1" refY="0.5" stroke="none">
<path d="M1,0 L4,0 L0,2 z"/>
</marker>
<marker fill="rgb(0 0 0)" id="lhs_filled_arrow0004" markerHeight="3" markerWidth="5" orient="auto" refX="1" refY="0.5" stroke="none">
<path d="M1,0 L4,0 L0,2 z"/>
</marker>
<marker fill="rgb(0 0 0)" id="lhs_filled_arrow0005" markerHeight="3" markerWidth="5" orient="auto" refX="1" refY="0.5" stroke="none">
<path d="M1,0 L4,0 L0,2 z"/>
</marker>
<marker fill="rgb(0 0 0)" id="lhs_filled_arrow0006" markerHeight="3" markerWidth="5" orient="auto" refX="1" refY="0.5" stroke="none">
<path d="M1,0 L4,0 L0,2 z"/>
</marker>
<marker fill="rgb(0 0 0)" id="lhs_filled_arrow0007" markerHeight="3" markerWidth="5" orient="auto" refX="1" refY="0.5" stroke="none">
<path d="M1,0 L4,0 L0,2 z"/>
</marker>
<marker fill="rgb(0 0 0)" id="lhs_filled_arrow0008" markerHeight="3" markerWidth="5" orient="auto" refX="1" refY="0.5" stroke="none">
<path d="M1,0 L4,0 L0,2 z"/>
</marker>
<marker fill="rgb(0 0 0)" id="lhs_filled_arrow0009" markerHeight="3" markerWidth="5" orient="auto" refX="1" refY="0.5" stroke="none">
<path d="M1,0 L4,0 L0,2 z"/>
</marker>
<marker fill="rgb(0 0 0)" id="lhs_filled_arrow0010" markerHeight="3" markerWidth="5" orient="auto" refX="1" refY="0.5" stroke="none">
<path d="M1,0 L4,0 L0,2 z"/>
</marker>
<marker fill="rgb(0 0 0)" id="lhs_filled_arrow0011" markerHeight="3" markerWidth="5" orient="auto" refX="1" refY="0.5" stroke="none">
<path d="M1,0 L4,0 L0,2 z"/>
</marker>
<marker fill="rgb(0 0 0)" id="lhs_filled_arrow0012" markerHeight="3" markerWidth="5" orient="auto" refX="1" refY="0.5" stroke="none">
<path d="M1,0 L4,0 L0,2 z"/>
</marker>
<marker fill="rgb(0 0 0)" id="lhs_filled_arrow0013" markerHeight="3" markerWidth="5" orient="auto" refX="1" refY="0.5" stroke="none">
<path d="M1,0 L4,0 L0,2 z"/>
</marker>
<marker fill="rgb(0 0 0)" id="lhs_filled_arrow0014" markerHeight="3" markerWidth="5" orient="auto" refX="1" refY="0.5" stroke="none">
<path d="M1,0 L4,0 L0,2 z"/>
</marker>
<marker fill="rgb(0 0 0)" id="lhs_filled_arrow0015" markerHeight="3" markerWidth="5" orient="auto" refX="1" refY="0.5" stroke="none">
<path d="M1,0 L4,0 L0,2 z"/>
</marker>
<marker fill="rgb(0 0 0)" id="lhs_filled_arrow0016" markerHeight="3" markerWidth="5" orient="auto" refX="1" refY="0.5" stroke="none">
<path d="M1,0 L4,0 L0,2 z"/>
</marker>
<marker fill="rgb(0 0 0)" id="lhs_filled_arrow0017" markerHeight="3" markerWidth="5" orient="auto" refX="1" refY="0.5" stroke="none">
<path d="M1,0 L4,0 L0,2 z"/>
</marker>
<marker fill="rgb(0 0 0)" id="lhs_filled_arrow0018" markerHeight="3" markerWidth="5" orient="auto" refX="1" refY="0.5" stroke="none">
<path d="M1,0 L4,0 L0,2 z"/>
</marker>
<marker fill="rgb(0 0 0)" id="lhs_filled_arrow0019" markerHeight="3" markerWidth="5" orient="auto" refX="1" refY="0.5" stroke="none">
<path d="M1,0 L4,0 L0,2 z"/>
</marker>
<marker fill="rgb(0 0 0)" id="lhs_filled_arrow0020" markerHeight="3" markerWidth="5" orient="auto" refX="1" refY="0.5" stroke="none">
<path d="M1,0 L4,0 L0,2 z"/>
</marker>
<marker fill="rgb(0 0 0)" id="lhs_filled_arrow0021" markerHeight="3" markerWidth="5" orient="auto" refX="1" refY="0.5" stroke="none">
<path d="M1,0 L4,0 L0,2 z"/>
</marker>
<marker fill="rgb(0 0 0)" id="lhs_filled_arrow0022" markerHeight="3" markerWidth="5" orient="auto" refX="1" refY="0.5" stroke="none">
<path d="M1,0 L4,0 L0,2 z"/>
</marker>
<marker fill="rgb(0 0 0)" id="lhs_filled_arrow0023" markerHeight="3" markerWidth="5" orient="auto" refX="1" refY="0.5" stroke="none">
<path d="M1,0 L4,0 L0,2 z"/>
</marker>
<marker fill="rgb(0 0 0)" id="lhs_filled_arrow0024" markerHeight="3" markerWidth="5" orient="auto" refX="1" refY="0.5" stroke="none">
<path d="M1,0 L4,0 L0,2 z"/>
</marker>
<marker fill="rgb(0 0 0)" id="lhs_filled_arrow0025" markerHeight="3" markerWidth="5" orient="auto" refX="1" refY="0.5" stroke="none">
<path d="M1,0 L4,0 L0,2 z"/>
</marker>
<marker fill="rgb(0 0 0)" id="lhs_filled_arrow0026" markerHeight="3" markerWidth="5" orient="auto" refX="1" refY="0.5" stroke="none">
<path d="M1,0 L4,0 L0,2 z"/>
</marker>
<marker fill="rgb(0 0 0)" id="lhs_filled_arrow0027" markerHeight="3" markerWidth="5" orient="auto" refX="1" refY="0.5" stroke="none">
<path d="M1,0 L4,0 L0,2 z"/>
</marker>
<marker fill="rgb(65 105 225)" id="lhs_filled_arrow0028" markerHeight="3" markerWidth="5" orient="auto" refX="0.1" refY="1.5" stroke="none">
<path d="M0,0 L5,1.5 L0,3 z"/>
</marker>
<marker fill="rgb(65 105 225)" id="lhs_filled_arrow0029" markerHeight="3" markerWidth="5" orient="auto" refX="0.1" refY="1.5" stroke="none">
<path d="M0,0 L5,1.5 L0,3 z"/>
</marker>
<marker fill="rgb(65 105 225)" id="lhs_filled_arrow0030" markerHeight="3" markerWidth="5" orient="auto" refX="0.1" refY="1.5" stroke="none">
<path d="M0,0 L5,1.5 L0,3 z"/>
</marker>
<marker fill="rgb(65 105 225)" id="lhs_filled_arrow0031" markerHeight="3" markerWidth="5" orient="auto" refX="0.1" refY="1.5" stroke="none">
<path d="M0,0 L5,1.5 L0,3 z"/>
</marker>
<marker fill="rgb(65 105 225)" id="lhs_filled_arrow0032" markerHeight="3" markerWidth="5" orient="auto" refX="0.1" refY="1.5" stroke="none">
<path d="M0,0 L5,1.5 L0,3 z"/>
</marker>
<marker fill="rgb(65 105 225)" id="lhs_filled_arrow0033" markerHeight="3" markerWidth="5" orient="auto" refX="0.1" refY="1.5" stroke="none">
<path d="M0,0 L5,1.5 L0,3 z"/>
</marker>
<marker fill="rgb(65 105 225)" id="lhs_filled_arrow0034" markerHeight="3" markerWidth="5" orient="auto" refX="0.1" refY="1.5" stroke="none">
<path d="M0,0 L5,1.5 L0,3 z"/>
</marker>
<marker fill="rgb(65 105 225)" id="lhs_filled_arrow0035" markerHeight="3" markerWidth="5" orient="auto" refX="0.1" refY="1.5" stroke="none">
<path d="M0,0 L5,1.5 L0,3 z"/>
</marker>
<marker fill="rgb(65 105 225)" id="lhs_filled_arrow0036" markerHeight="3" markerWidth="5" orient="auto" refX="0.1" refY="1.5" stroke="none">
<path d="M0,0 L5,1.5 L0,3 z"/>
</marker>
<marker fill="rgb(65 105 225)" id="lhs_filled_arrow0037" markerHeight="3" markerWidth="5" orient="auto" refX="0.1" refY="1.5" stroke="none">
<path d="M0,0 L5,1.5 L0,3 z"/>
</marker>
<marker fill="rgb(65 105 225)" id="lhs_filled_arrow0038" markerHeight="3" markerWidth="5" orient="auto" refX="0.1" refY="1.5" stroke="none">
<path d="M0,0 L5,1.5 L0,3 z"/>
</marker>
<marker fill="rgb(65 105 225)" id="lhs_filled_arrow0039" markerHeight="3" markerWidth="5" orient="auto" refX="0.1" refY="1.5" stroke="none">
<path d="M0,0 L5,1.5 L0,3 z"/>
</marker>
<marker fill="rgb(65 105 225)" id="lhs_filled_arrow0040" markerHeight="3" markerWidth="5" orient="auto" refX="0.1" refY="1.5" stroke="none">
<path d="M0,0 L5,1.5 L0,3 z"/>
</marker>
<marker fill="rgb(65 105 225)" id="lhs_filled_arrow0041" markerHeight="3" markerWidth="5" orient="auto" refX="0.1" refY="1.5" stroke="none">
<path d="M0,0 L5,1.5 L0,3 z"/>
</marker>
</defs>
<rect height="100%" style="fill: url(#lhs_pattern0001)" width="100%" x="-79.1" y="-53.8"/>
<g>
<path d="M-30,20 L-67,52 L-40,-24 z" style="fill: rgb(211 211 211)"/>
<path d="M-30,20 L-40,-24 L-5,0 z" style="fill: rgb(211 211 211)"/>
<path d="M-67,52 L-30,20 L15,42 z" style="fill: rgb(211 211 211)"/>
<path d="M-6,-42 L-5,0 L-40,-24 z" style="fill: rgb(211 211 211)"/>
<path d="M-5,0 L15,42 L-30,20 z" style="fill: rgb(211 211 211)"/>
<path d="M15,42 L-5,0 L30,2 z" style="fill: rgb(211 211 211)"/>
<path d="M-6,-42 L30,2 L-5,0 z" style="fill: rgb(211 211 211)"/>
<line style="stroke-width: 0.7; stroke: rgb(0 0 0); marker-end: url(#lhs_filled_arrow0002); fill: none" x1="-41.525" x2="-65.675" y1="-21.35" y2="46.625"/>
<line style="stroke-width: 0.7; stroke: rgb(0 0 0); marker-end: url(#lhs_filled_arrow0003); fill: none" x1="-65.475" x2="-41.325" y1="49.35" y2="-18.625"/>
<line style="stroke-width: 0.7; stroke: rgb(0 0 0); marker-end: url(#lhs_filled_arrow0004); fill: none" x1="-30.125" x2="-38.225" y1="16.95" y2="-18.75"/>
<line style="stroke-width: 0.7; stroke: rgb(0 0 0); marker-end: url(#lhs_filled_arrow0005); fill: none" x1="-39.875" x2="-31.775" y1="-20.95" y2="14.75"/>
<line style="stroke-width: 0.7; stroke: rgb(0 0 0); marker-end: url(#lhs_filled_arrow0006); fill: none" x1="-64.375" x2="-33.8" y1="50.45" y2="24.025"/>
<line style="stroke-width: 0.7; stroke: rgb(0 0 0); marker-end: url(#lhs_filled_arrow0007); fill: none" x1="-32.625" x2="-63.2" y1="21.55" y2="47.975"/>
<line style="stroke-width: 0.7; stroke: rgb(0 0 0); marker-end: url(#lhs_filled_arrow0008); fill: none" x1="-8.925" x2="-35.4" y1="-41.1" y2="-27.075"/>
<line style="stroke-width: 0.7; stroke: rgb(0 0 0); marker-end: url(#lhs_filled_arrow0009); fill: none" x1="-37.075" x2="-10.6" y1="-24.9" y2="-38.925"/>
<line style="stroke-width: 0.7; stroke: rgb(0 0 0); marker-end: url(#lhs_filled_arrow0010); fill: none" x1="-7.15" x2="-35.15" y1="-2.15" y2="-21.35"/>
<line style="stroke-width: 0.7; stroke: rgb(0 0 0); marker-end: url(#lhs_filled_arrow0011); fill: none" x1="-37.85" x2="-9.85" y1="-21.85" y2="-2.65"/>
<line style="stroke-width: 0.7; stroke: rgb(0 0 0); marker-end: url(#lhs_filled_arrow0012); fill: none" x1="-7.7" x2="-26.05" y1="1.425" y2="16.125"/>
<line style="stroke-width: 0.7; stroke: rgb(0 0 0); marker-end: url(#lhs_filled_arrow0013); fill: none" x1="-27.3" x2="-8.95" y1="18.575" y2="3.875"/>
<line style="stroke-width: 0.7; stroke: rgb(0 0 0); marker-end: url(#lhs_filled_arrow0014); fill: none" x1="12.55" x2="-24.825" y1="40.175" y2="21.925"/>
<line style="stroke-width: 0.7; stroke: rgb(0 0 0); marker-end: url(#lhs_filled_arrow0015); fill: none" x1="-27.55" x2="9.825" y1="21.825" y2="40.075"/>
<line style="stroke-width: 0.7; stroke: rgb(0 0 0); marker-end: url(#lhs_filled_arrow0016); fill: none" x1="-4.5" x2="-5.3" y1="-3" y2="-36.525"/>
<line style="stroke-width: 0.7; stroke: rgb(0 0 0); marker-end: url(#lhs_filled_arrow0017); fill: none" x1="-6.5" x2="-5.7" y1="-39" y2="-5.475"/>
<line style="stroke-width: 0.7; stroke: rgb(0 0 0); marker-end: url(#lhs_filled_arrow0018); fill: none" x1="14.225" x2="-2.125" y1="39.05" y2="4.725"/>
<line style="stroke-width: 0.7; stroke: rgb(0 0 0); marker-end: url(#lhs_filled_arrow0019); fill: none" x1="-4.225" x2="12.125" y1="2.95" y2="37.275"/>
<line style="stroke-width: 0.7; stroke: rgb(0 0 0); marker-end: url(#lhs_filled_arrow0020); fill: none" x1="-63.95" x2="9.6" y1="52.2" y2="43.225"/>
<line style="stroke-width: 0.7; stroke: rgb(0 0 0); marker-end: url(#lhs_filled_arrow0021); fill: none" x1="11.95" x2="-61.6" y1="41.8" y2="50.775"/>
<line style="stroke-width: 0.7; stroke: rgb(0 0 0); marker-end: url(#lhs_filled_arrow0022); fill: none" x1="27.025" x2="0.525" y1="1.275" y2="-0.25"/>
<line style="stroke-width: 0.7; stroke: rgb(0 0 0); marker-end: url(#lhs_filled_arrow0023); fill: none" x1="-2.025" x2="24.475" y1="0.725" y2="2.25"/>
<line style="stroke-width: 0.7; stroke: rgb(0 0 0); marker-end: url(#lhs_filled_arrow0024); fill: none" x1="28.525" x2="-2.075" y1="-0.675" y2="-38.1"/>
<line style="stroke-width: 0.7; stroke: rgb(0 0 0); marker-end: url(#lhs_filled_arrow0025); fill: none" x1="-4.525" x2="26.075" y1="-39.325" y2="-1.9"/>
<line style="stroke-width: 0.7; stroke: rgb(0 0 0); marker-end: url(#lhs_filled_arrow0026); fill: none" x1="16.575" x2="28.6" y1="39.4" y2="7.35"/>
<line style="stroke-width: 0.7; stroke: rgb(0 0 0); marker-end: url(#lhs_filled_arrow0027); fill: none" x1="28.425" x2="16.4" y1="4.6" y2="36.65"/>
<circle cx="-67" cy="52" r="2" style="stroke-width: 0.5; stroke: rgb(0 0 0); fill: rgb(105 105 105)"/>
<circle cx="-40" cy="-24" r="2" style="stroke-width: 0.5; stroke: rgb(0 0 0); fill: rgb(105 105 105)"/>
<circle cx="-30" cy="20" r="2" style="stroke-width: 0.5; stroke: rgb(0 0 0); fill: rgb(105 105 105)"/>
<circle cx="-6" cy="-42" r="2" style="stroke-width: 0.5; stroke: rgb(0 0 0); fill: rgb(105 105 105)"/>
<circle cx="-5" cy="0" r="2" style="stroke-width: 0.5; stroke: rgb(0 0 0); fill: rgb(105 105 105)"/>
<circle cx="15" cy="42" r="2" style="stroke-width: 0.5; stroke: rgb(0 0 0); fill: rgb(105 105 105)"/>
<circle cx="30" cy="2" r="2" style="stroke-width: 0.5; stroke: rgb(0 0 0); fill: rgb(105 105 105)"/>
<path d="M-45.675,11.5 A4.5,4.5,0,0,1,-42.774124,19.4472" style="stroke-width: 1; stroke: rgb(65 105 225); marker-end: url(#lhs_filled_arrow0028); fill: none"/>
<path d="M-45.675,20.5 A4.5,4.5,0,0,1,-48.55921,12.5528" style="stroke-width: 1; stroke: rgb(65 105 225); marker-end: url(#lhs_filled_arrow0029); fill: none"/>
<path d="M-25,-5.825 A4.5,4.5,0,0,1,-22.107456,2.1138666" style="stroke-width: 1; stroke: rgb(65 105 225); marker-end: url(#lhs_filled_arrow0030); fill: none"/>
<path d="M-25,3.175 A4.5,4.5,0,0,1,-27.892544,-4.7805333" style="stroke-width: 1; stroke: rgb(65 105 225); marker-end: url(#lhs_filled_arrow0031); fill: none"/>
<path d="M-27.325,33.5 A4.5,4.5,0,0,1,-24.440788,41.4472" style="stroke-width: 1; stroke: rgb(65 105 225); marker-end: url(#lhs_filled_arrow0032); fill: none"/>
<path d="M-27.325,42.5 A4.5,4.5,0,0,1,-30.225878,34.5528" style="stroke-width: 1; stroke: rgb(65 105 225); marker-end: url(#lhs_filled_arrow0033); fill: none"/>
<path d="M-17,-26.5 A4.5,4.5,0,0,1,-14.107456,-18.5528" style="stroke-width: 1; stroke: rgb(65 105 225); marker-end: url(#lhs_filled_arrow0034); fill: none"/>
<path d="M-17,-17.5 A4.5,4.5,0,0,1,-19.892544,-25.4472" style="stroke-width: 1; stroke: rgb(65 105 225); marker-end: url(#lhs_filled_arrow0035); fill: none"/>
<path d="M-6.675,16.175 A4.5,4.5,0,0,1,-3.7741225,24.113867" style="stroke-width: 1; stroke: rgb(65 105 225); marker-end: url(#lhs_filled_arrow0036); fill: none"/>
<path d="M-6.675,25.175 A4.5,4.5,0,0,1,-9.559211,17.219467" style="stroke-width: 1; stroke: rgb(65 105 225); marker-end: url(#lhs_filled_arrow0037); fill: none"/>
<path d="M13.325,10.175 A4.5,4.5,0,0,1,16.225878,18.113867" style="stroke-width: 1; stroke: rgb(65 105 225); marker-end: url(#lhs_filled_arrow0038); fill: none"/>
<path d="M13.325,19.175 A4.5,4.5,0,0,1,10.440789,11.219466" style="stroke-width: 1; stroke: rgb(65 105 225); marker-end: url(#lhs_filled_arrow0039); fill: none"/>
<path d="M6.325,-17.825 A4.5,4.5,0,0,1,9.225878,-9.886133" style="stroke-width: 1; stroke: rgb(65 105 225); marker-end: url(#lhs_filled_arrow0040); fill: none"/>
<path d="M6.325,-8.825 A4.5,4.5,0,0,1,3.440789,-16.780533" style="stroke-width: 1; stroke: rgb(65 105 225); marker-end: url(#lhs_filled_arrow0041); fill: none"/>
</g>
</svg>