<svg viewBox="-70.5 -55.5 126 126" width="800" xmlns="http://www.w3.org/2000/svg" xmlns:xlink="http://www.w3.org/1999/xlink">
<defs>
<pattern height="1" id="natural_neighbor_polygon_pattern0001" patternTransform="rotate(63.512 0 0) scale(2)" patternUnits="userSpaceOnUse" width="1">
<line stroke="rgb(255 255 255)" stroke-width="1.01" x1="0" x2="0" y1="-0.1" y2="1.1"/>
<line stroke="rgb(211 211 211)" stroke-width="1.01" x1="1" x2="1" y1="-0.1" y2="1.1"/>
</pattern>
<marker fill="rgb(65 105 225)" id="natural_neighbor_polygon_filled_arrow0002" markerHeight="3" markerWidth="5" orient="auto" refX="0.1" refY="1.5" stroke="none">
<path d="M0,0 L5,1.5 L0,3 z"/>
</marker>
<marker fill="rgb(65 105 225)" id="natural_neighbor_polygon_filled_arrow0003" markerHeight="3" markerWidth="5" orient="auto" refX="0.1" refY="1.5" stroke="none">
<path d="M0,0 L5,1.5 L0,3 z"/>
</marker>
</defs>
<rect height="100%" style="fill: url(#natural_neighbor_polygon_pattern0001)" width="100%" x="-70.5" y="-55.5"/>
<g>
<path d="M45,30 L7.5,40 L25,-32 z" style="fill: rgb(250 235 215)"/>
<path d="M-45,42 L-55,0 L7.5,40 z" style="fill: rgb(250 235 215)"/>
<path d="M7.5,40 L-55,0 L-2,-32 z" style="fill: rgb(250 235 215)"/>
<path d="M-32,-42 L-2,-32 L-55,0 z" style="fill: rgb(250 235 215)"/>
<path d="M-2,-32 L25,-32 L7.5,40 z" style="fill: rgb(250 235 215)"/>
<path d="M25,-32 L-2,-32 L-9,-70 z" style="fill: rgb(250 235 215)"/>
<path d="M7.5,40 L45,30 L20,65 z" style="fill: rgb(250 235 215)"/>
<path d="M-45,42 L7.5,40 L20,65 z" style="fill: rgb(250 235 215)"/>
<path d="M70,40 L45,30 L42,-50 z" style="fill: rgb(250 235 215)"/>
<path d="M70,40 L20,65 L45,30 z" style="fill: rgb(250 235 215)"/>
<path d="M-60,50 L-45,42 L20,65 z" style="fill: rgb(250 235 215)"/>
<path d="M-45,42 L-60,50 L-55,0 z" style="fill: rgb(250 235 215)"/>
<path d="M-70,-15.5 L-32,-42 L-55,0 z" style="fill: rgb(250 235 215)"/>
<path d="M-55,0 L-60,50 L-70,-15.5 z" style="fill: rgb(250 235 215)"/>
<path d="M-2,-32 L-32,-42 L-9,-70 z" style="fill: rgb(250 235 215)"/>
<path d="M-32,-42 L-70,-15.5 L-50,-60 z" style="fill: rgb(250 235 215)"/>
<path d="M-50,-60 L-9,-70 L-32,-42 z" style="fill: rgb(250 235 215)"/>
<path d="M42,-50 L25,-32 L-9,-70 z" style="fill: rgb(250 235 215)"/>
<path d="M25,-32 L42,-50 L45,30 z" style="fill: rgb(250 235 215)"/>
<line style="stroke-width: 1; stroke: rgb(211 211 211); fill: none" x1="45" x2="7.5" y1="30" y2="40"/>
<line style="stroke-width: 1; stroke: rgb(211 211 211); fill: none" x1="7.5" x2="-45" y1="40" y2="42"/>
<line style="stroke-width: 1; stroke: rgb(211 211 211); fill: none" x1="7.5" x2="-55" y1="40" y2="0"/>
<line style="stroke-width: 1; stroke: rgb(211 211 211); fill: none" x1="-45" x2="-55" y1="42" y2="0"/>
<line style="stroke-width: 1; stroke: rgb(211 211 211); fill: none" x1="-2" x2="-55" y1="-32" y2="0"/>
<line style="stroke-width: 1; stroke: rgb(211 211 211); fill: none" x1="-55" x2="-32" y1="0" y2="-42"/>
<line style="stroke-width: 1; stroke: rgb(211 211 211); fill: none" x1="7.5" x2="-2" y1="40" y2="-32"/>
<line style="stroke-width: 1; stroke: rgb(211 211 211); fill: none" x1="-32" x2="-2" y1="-42" y2="-32"/>
<line style="stroke-width: 1; stroke: rgb(211 211 211); fill: none" x1="7.5" x2="25" y1="40" y2="-32"/>
<line style="stroke-width: 1; stroke: rgb(211 211 211); fill: none" x1="-2" x2="25" y1="-32" y2="-32"/>
<line style="stroke-width: 1; stroke: rgb(211 211 211); fill: none" x1="25" x2="45" y1="-32" y2="30"/>
<line style="stroke-width: 1; stroke: rgb(211 211 211); fill: none" x1="-9" x2="-32" y1="-70" y2="-42"/>
<line style="stroke-width: 1; stroke: rgb(211 211 211); fill: none" x1="45" x2="70" y1="30" y2="40"/>
<line style="stroke-width: 1; stroke: rgb(211 211 211); fill: none" x1="45" x2="20" y1="30" y2="65"/>
<line style="stroke-width: 1; stroke: rgb(211 211 211); fill: none" x1="7.5" x2="20" y1="40" y2="65"/>
<line style="stroke-width: 1; stroke: rgb(211 211 211); fill: none" x1="45" x2="42" y1="30" y2="-50"/>
<line style="stroke-width: 1; stroke: rgb(211 211 211); fill: none" x1="70" x2="20" y1="40" y2="65"/>
<line style="stroke-width: 1; stroke: rgb(211 211 211); fill: none" x1="20" x2="-45" y1="65" y2="42"/>
<line style="stroke-width: 1; stroke: rgb(211 211 211); fill: none" x1="20" x2="-60" y1="65" y2="50"/>
<line style="stroke-width: 1; stroke: rgb(211 211 211); fill: none" x1="-60" x2="-45" y1="50" y2="42"/>
<line style="stroke-width: 1; stroke: rgb(211 211 211); fill: none" x1="-60" x2="-55" y1="50" y2="0"/>
<line style="stroke-width: 1; stroke: rgb(211 211 211); fill: none" x1="-55" x2="-70" y1="0" y2="-15.5"/>
<line style="stroke-width: 1; stroke: rgb(211 211 211); fill: none" x1="-70" x2="-32" y1="-15.5" y2="-42"/>
<line style="stroke-width: 1; stroke: rgb(211 211 211); fill: none" x1="-60" x2="-70" y1="50" y2="-15.5"/>
<line style="stroke-width: 1; stroke: rgb(211 211 211); fill: none" x1="-32" x2="-50" y1="-42" y2="-60"/>
<line style="stroke-width: 1; stroke: rgb(211 211 211); fill: none" x1="-2" x2="-9" y1="-32" y2="-70"/>
<line style="stroke-width: 1; stroke: rgb(211 211 211); fill: none" x1="-70" x2="-50" y1="-15.5" y2="-60"/>
<line style="stroke-width: 1; stroke: rgb(211 211 211); fill: none" x1="-50" x2="-9" y1="-60" y2="-70"/>
<line style="stroke-width: 1; stroke: rgb(211 211 211); fill: none" x1="-9" x2="25" y1="-70" y2="-32"/>
<line style="stroke-width: 1; stroke: rgb(211 211 211); fill: none" x1="-9" x2="42" y1="-70" y2="-50"/>
<line style="stroke-width: 1; stroke: rgb(211 211 211); fill: none" x1="42" x2="25" y1="-50" y2="-32"/>
<line style="stroke-width: 1; stroke: rgb(211 211 211); fill: none" x1="42" x2="70" y1="-50" y2="40"/>
<path d="M-22.475,-20.6 L11.5,-16.825 L11.5,2.85 L-15,6.35 L-25.6,-11.2 z" style="opacity: 0.75; fill: rgb(255 165 0)"/>
<circle cx="45" cy="30" r="2" style="stroke-width: 0.5; stroke: rgb(0 0 0); fill: rgb(220 20 60)"/>
<circle cx="7.5" cy="40" r="2" style="stroke-width: 0.5; stroke: rgb(0 0 0); fill: rgb(220 20 60)"/>
<circle cx="-45" cy="42" r="2" style="stroke-width: 0.5; stroke: rgb(0 0 0); fill: rgb(220 20 60)"/>
<circle cx="-55" cy="0" r="2" style="stroke-width: 0.5; stroke: rgb(0 0 0); fill: rgb(220 20 60)"/>
<circle cx="-32" cy="-42" r="2" style="stroke-width: 0.5; stroke: rgb(0 0 0); fill: rgb(220 20 60)"/>
<circle cx="-2" cy="-32" r="2" style="stroke-width: 0.5; stroke: rgb(0 0 0); fill: rgb(220 20 60)"/>
<circle cx="25" cy="-32" r="2" style="stroke-width: 0.5; stroke: rgb(0 0 0); fill: rgb(220 20 60)"/>
<circle cx="70" cy="40" r="2" style="stroke-width: 0.5; stroke: rgb(0 0 0); fill: rgb(105 105 105)"/>
<circle cx="20" cy="65" r="2" style="stroke-width: 0.5; stroke: rgb(0 0 0); fill: rgb(105 105 105)"/>
<circle cx="-60" cy="50" r="2" style="stroke-width: 0.5; stroke: rgb(0 0 0); fill: rgb(105 105 105)"/>
<circle cx="-70" cy="-15.5" r="2" style="stroke-width: 0.5; stroke: rgb(0 0 0); fill: rgb(105 105 105)"/>
<circle cx="-50" cy="-60" r="2" style="stroke-width: 0.5; stroke: rgb(0 0 0); fill: rgb(105 105 105)"/>
<circle cx="-9" cy="-70" r="2" style="stroke-width: 0.5; stroke: rgb(0 0 0); fill: rgb(105 105 105)"/>
<circle cx="42" cy="-50" r="2" style="stroke-width: 0.5; stroke: rgb(0 0 0); fill: rgb(105 105 105)"/>
<text dy="0.9" font-size="2.5" style="fill: rgb(0 0 0)" text-anchor="middle" transform="translate (7.5 40) rotate (0) translate(-7.5 -40)" x="7.5" y="40">
0
</text>
<text dy="0.9" font-size="2.5" style="fill: rgb(0 0 0)" text-anchor="middle" transform="translate (-45 42) rotate (0) translate(45 -42)" x="-45" y="42">
1
</text>
<text dy="0.9" font-size="2.5" style="fill: rgb(0 0 0)" text-anchor="middle" transform="translate (-55 0) rotate (0) translate(55 -0)" x="-55" y="0">
2
</text>
<text dy="0.9" font-size="2.5" style="fill: rgb(0 0 0)" text-anchor="middle" transform="translate (-32 -42) rotate (0) translate(32 42)" x="-32" y="-42">
3
</text>
<text dy="0.9" font-size="2.5" style="fill: rgb(0 0 0)" text-anchor="middle" transform="translate (-2 -32) rotate (0) translate(2 32)" x="-2" y="-32">
4
</text>
<text dy="0.9" font-size="2.5" style="fill: rgb(0 0 0)" text-anchor="middle" transform="translate (25 -32) rotate (0) translate(-25 32)" x="25" y="-32">
5
</text>
<text dy="0.9" font-size="2.5" style="fill: rgb(0 0 0)" text-anchor="middle" transform="translate (45 30) rotate (0) translate(-45 -30)" x="45" y="30">
6
</text>
<line style="stroke-width: 0.5; stroke: rgb(250 128 114); fill: none" x1="18.1" x2="28.9" y1="4.45" y2="44.925"/>
<line style="stroke-width: 0.5; stroke: rgb(250 128 114); fill: none" x1="-19.775" x2="-17.725" y1="13.8" y2="68.225"/>
<line style="stroke-width: 0.5; stroke: rgb(250 128 114); fill: none" x1="-15" x2="-19.775" y1="6.35" y2="13.8"/>
<line style="stroke-width: 0.5; stroke: rgb(250 128 114); fill: none" x1="-19.775" x2="-64.05" y1="13.8" y2="24.35"/>
<line style="stroke-width: 0.5; stroke: rgb(250 128 114); fill: none" x1="-25.6" x2="-15" y1="-11.2" y2="6.35"/>
<line style="stroke-width: 0.5; stroke: rgb(250 128 114); fill: none" x1="-25.6" x2="-46.9" y1="-11.2" y2="-22.85"/>
<line style="stroke-width: 0.5; stroke: rgb(250 128 114); fill: none" x1="11.5" x2="-15" y1="2.85" y2="6.35"/>
<line style="stroke-width: 0.5; stroke: rgb(250 128 114); fill: none" x1="-25.6" x2="-12.775" y1="-11.2" y2="-49.65"/>
<line style="stroke-width: 0.5; stroke: rgb(250 128 114); fill: none" x1="18.1" x2="11.5" y1="4.45" y2="2.85"/>
<line style="stroke-width: 0.5; stroke: rgb(250 128 114); fill: none" x1="11.5" x2="11.5" y1="2.85" y2="-54.125"/>
<line style="stroke-width: 0.5; stroke: rgb(250 128 114); fill: none" x1="18.1" x2="65.45" y1="4.45" y2="-10.825"/>
<line style="stroke-width: 0.5; stroke: rgb(250 128 114); fill: none" x1="-29" x2="-12.775" y1="-63" y2="-49.65"/>
<line style="stroke-width: 0.5; stroke: rgb(250 128 114); fill: none" x1="48.05" x2="75.975" y1="58.6" y2="-11.225"/>
<line style="stroke-width: 0.5; stroke: rgb(250 128 114); fill: none" x1="28.9" x2="48.05" y1="44.925" y2="58.6"/>
<line style="stroke-width: 0.5; stroke: rgb(250 128 114); fill: none" x1="-17.725" x2="28.9" y1="68.225" y2="44.925"/>
<line style="stroke-width: 0.5; stroke: rgb(250 128 114); fill: none" x1="75.975" x2="65.45" y1="-11.225" y2="-10.825"/>
<line style="stroke-width: 0.5; stroke: rgb(250 128 114); fill: none" x1="-17.725" x2="-26.85" y1="68.225" y2="94.075"/>
<line style="stroke-width: 0.5; stroke: rgb(250 128 114); fill: none" x1="-26.85" x2="-64.05" y1="94.075" y2="24.35"/>
<line style="stroke-width: 0.5; stroke: rgb(250 128 114); fill: none" x1="-64.05" x2="-92.7" y1="24.35" y2="21.475"/>
<line style="stroke-width: 0.5; stroke: rgb(250 128 114); fill: none" x1="-46.9" x2="-92.7" y1="-22.85" y2="21.475"/>
<line style="stroke-width: 0.5; stroke: rgb(250 128 114); fill: none" x1="-46.9" x2="-56.025" y1="-22.85" y2="-35.975"/>
<line style="stroke-width: 0.5; stroke: rgb(250 128 114); fill: none" x1="-29" x2="-56.025" y1="-63" y2="-35.975"/>
<line style="stroke-width: 0.5; stroke: rgb(250 128 114); fill: none" x1="11.5" x2="-12.775" y1="-54.125" y2="-49.65"/>
<line style="stroke-width: 0.5; stroke: rgb(250 128 114); fill: none" x1="11.5" x2="15.65" y1="-54.125" y2="-57.85"/>
<line style="stroke-width: 0.5; stroke: rgb(250 128 114); fill: none" x1="15.65" x2="65.45" y1="-57.85" y2="-10.825"/>
<circle cx="18.1" cy="4.45" r="1" style="fill: rgb(65 105 225)"/>
<circle cx="-19.775" cy="13.8" r="1" style="fill: rgb(65 105 225)"/>
<circle cx="-15" cy="6.35" r="1" style="fill: rgb(65 105 225)"/>
<circle cx="-25.6" cy="-11.2" r="1" style="fill: rgb(65 105 225)"/>
<circle cx="11.5" cy="2.85" r="1" style="fill: rgb(65 105 225)"/>
<circle cx="11.5" cy="-54.125" r="1" style="fill: rgb(65 105 225)"/>
<circle cx="28.9" cy="44.925" r="1" style="fill: rgb(65 105 225)"/>
<circle cx="-17.725" cy="68.225" r="1" style="fill: rgb(65 105 225)"/>
<circle cx="75.975" cy="-11.225" r="1" style="fill: rgb(65 105 225)"/>
<circle cx="48.05" cy="58.6" r="1" style="fill: rgb(65 105 225)"/>
<circle cx="-26.85" cy="94.075" r="1" style="fill: rgb(65 105 225)"/>
<circle cx="-64.05" cy="24.35" r="1" style="fill: rgb(65 105 225)"/>
<circle cx="-46.9" cy="-22.85" r="1" style="fill: rgb(65 105 225)"/>
<circle cx="-92.7" cy="21.475" r="1" style="fill: rgb(65 105 225)"/>
<circle cx="-12.775" cy="-49.65" r="1" style="fill: rgb(65 105 225)"/>
<circle cx="-56.025" cy="-35.975" r="1" style="fill: rgb(65 105 225)"/>
<circle cx="-29" cy="-63" r="1" style="fill: rgb(65 105 225)"/>
<circle cx="15.65" cy="-57.85" r="1" style="fill: rgb(65 105 225)"/>
<circle cx="65.45" cy="-10.825" r="1" style="fill: rgb(65 105 225)"/>
<line style="stroke-width: 1; stroke: rgb(255 69 0); fill: none" x1="11.5" x2="-22.475" y1="-16.825" y2="-20.6"/>
<line style="stroke-width: 1; stroke: rgb(255 69 0); fill: none" x1="27.825" x2="11.5" y1="1.325" y2="-16.825"/>
<line style="stroke-width: 1; stroke: rgb(255 69 0); fill: none" x1="20.175" x2="27.825" y1="12.25" y2="1.325"/>
<line style="stroke-width: 1; stroke: rgb(255 69 0); fill: none" x1="-19.425" x2="20.175" y1="23.25" y2="12.25"/>
<line style="stroke-width: 1; stroke: rgb(255 69 0); fill: none" x1="-28.175" x2="-19.425" y1="15.8" y2="23.25"/>
<line style="stroke-width: 1; stroke: rgb(255 69 0); fill: none" x1="-31.175" x2="-28.175" y1="-14.25" y2="15.8"/>
<line style="stroke-width: 1; stroke: rgb(255 69 0); fill: none" x1="-22.475" x2="-31.175" y1="-20.6" y2="-14.25"/>
<circle cx="11.5" cy="-16.825" r="1" style="fill: rgb(0 100 0)"/>
<circle cx="27.825" cy="1.325" r="1" style="fill: rgb(0 100 0)"/>
<circle cx="20.175" cy="12.25" r="1" style="fill: rgb(0 100 0)"/>
<circle cx="-19.425" cy="23.25" r="1" style="fill: rgb(0 100 0)"/>
<circle cx="-28.175" cy="15.8" r="1" style="fill: rgb(0 100 0)"/>
<circle cx="-31.175" cy="-14.25" r="1" style="fill: rgb(0 100 0)"/>
<circle cx="-22.475" cy="-20.6" r="1" style="fill: rgb(0 100 0)"/>
<text dy="3.5" font-size="3" style="fill: rgb(0 0 0)" text-anchor="middle" transform="translate (-17 -37) rotate (18.434948822922024) translate(17 37)" x="-17" y="-37">
last_edge
</text>
<line style="stroke-width: 1; stroke: rgb(65 105 225); marker-end: url(#natural_neighbor_polygon_filled_arrow0002); fill: none" x1="-29.825" x2="-8.65" y1="-41.275" y2="-34.225"/>
<text dy="3.5" font-size="3" style="fill: rgb(0 0 0)" text-anchor="middle" transform="translate (11.5 -32) rotate (0) translate(-11.5 32)" x="11.5" y="-32">
stop_edge
</text>
<line style="stroke-width: 1; stroke: rgb(65 105 225); marker-end: url(#natural_neighbor_polygon_filled_arrow0003); fill: none" x1="0.3" x2="18" y1="-32" y2="-32"/>
<text dy="3.3" font-size="2.5" style="fill: rgb(0 0 0)" transform="translate (-22.464285714285715 -20.607142857142854) rotate (0) translate(22.464285714285715 20.607142857142854)" x="-22.464285714285715" y="-20.607142857142854">
first
</text>
<text dy="3" font-size="2.5" style="fill: rgb(0 0 0)" transform="translate (5.999999999999998 -16.833333333333336) rotate (0) translate(-5.999999999999998 16.833333333333336)" x="5.999999999999998" y="-16.833333333333336">
last
</text>
<text dy="-1" font-size="2.5" style="fill: rgb(0 0 0)" transform="translate (8.000000000000002 2.8454861111111143) rotate (0) translate(-8.000000000000002 -2.8454861111111143)" x="8.000000000000002" y="2.8454861111111143">
c2
</text>
<text dy="-2" font-size="2.5" style="fill: rgb(0 0 0)" transform="translate (-15.009708737864077 6.343294902912625) rotate (0) translate(15.009708737864077 -6.343294902912625)" x="-15.009708737864077" y="6.343294902912625">
c1
</text>
<text dy="0.5" font-size="2.5" style="fill: rgb(0 0 0)" transform="translate (-24.100671140939596 -11.197986577181211) rotate (0) translate(24.100671140939596 11.197986577181211)" x="-24.100671140939596" y="-11.197986577181211">
c0
</text>
</g>
</svg>