<svg viewBox="-70.5 -55.5 126 126" width="800" xmlns="http://www.w3.org/2000/svg" xmlns:xlink="http://www.w3.org/1999/xlink">
<defs>
<pattern height="1" id="natural_neighbor_insertion_cell_pattern0001" patternTransform="rotate(63.512 0 0) scale(2)" patternUnits="userSpaceOnUse" width="1">
<line stroke="rgb(255 255 255)" stroke-width="1.01" x1="0" x2="0" y1="-0.1" y2="1.1"/>
<line stroke="rgb(211 211 211)" stroke-width="1.01" x1="1" x2="1" y1="-0.1" y2="1.1"/>
</pattern>
</defs>
<rect height="100%" style="fill: url(#natural_neighbor_insertion_cell_pattern0001)" width="100%" x="-70.5" y="-55.5"/>
<g>
<path d="M45,30 L7.5,40 L25,-32 z" style="fill: rgb(250 235 215)"/>
<path d="M-45,42 L-55,0 L7.5,40 z" style="fill: rgb(250 235 215)"/>
<path d="M7.5,40 L-55,0 L-2,-32 z" style="fill: rgb(250 235 215)"/>
<path d="M-32,-42 L-2,-32 L-55,0 z" style="fill: rgb(250 235 215)"/>
<path d="M-2,-32 L25,-32 L7.5,40 z" style="fill: rgb(250 235 215)"/>
<path d="M25,-32 L-2,-32 L-9,-70 z" style="fill: rgb(250 235 215)"/>
<path d="M7.5,40 L45,30 L20,65 z" style="fill: rgb(250 235 215)"/>
<path d="M-45,42 L7.5,40 L20,65 z" style="fill: rgb(250 235 215)"/>
<path d="M70,40 L45,30 L42,-50 z" style="fill: rgb(250 235 215)"/>
<path d="M70,40 L20,65 L45,30 z" style="fill: rgb(250 235 215)"/>
<path d="M-60,50 L-45,42 L20,65 z" style="fill: rgb(250 235 215)"/>
<path d="M-45,42 L-60,50 L-55,0 z" style="fill: rgb(250 235 215)"/>
<path d="M-70,-15.5 L-32,-42 L-55,0 z" style="fill: rgb(250 235 215)"/>
<path d="M-55,0 L-60,50 L-70,-15.5 z" style="fill: rgb(250 235 215)"/>
<path d="M-2,-32 L-32,-42 L-9,-70 z" style="fill: rgb(250 235 215)"/>
<path d="M-32,-42 L-70,-15.5 L-50,-60 z" style="fill: rgb(250 235 215)"/>
<path d="M-50,-60 L-9,-70 L-32,-42 z" style="fill: rgb(250 235 215)"/>
<path d="M42,-50 L25,-32 L-9,-70 z" style="fill: rgb(250 235 215)"/>
<path d="M25,-32 L42,-50 L45,30 z" style="fill: rgb(250 235 215)"/>
<line style="stroke-width: 1; stroke: rgb(211 211 211); fill: none" x1="45" x2="7.5" y1="30" y2="40"/>
<line style="stroke-width: 1; stroke: rgb(211 211 211); fill: none" x1="7.5" x2="-45" y1="40" y2="42"/>
<line style="stroke-width: 1; stroke: rgb(211 211 211); fill: none" x1="7.5" x2="-55" y1="40" y2="0"/>
<line style="stroke-width: 1; stroke: rgb(211 211 211); fill: none" x1="-45" x2="-55" y1="42" y2="0"/>
<line style="stroke-width: 1; stroke: rgb(211 211 211); fill: none" x1="-2" x2="-55" y1="-32" y2="0"/>
<line style="stroke-width: 1; stroke: rgb(211 211 211); fill: none" x1="-55" x2="-32" y1="0" y2="-42"/>
<line style="stroke-width: 1; stroke: rgb(211 211 211); fill: none" x1="7.5" x2="-2" y1="40" y2="-32"/>
<line style="stroke-width: 1; stroke: rgb(211 211 211); fill: none" x1="-32" x2="-2" y1="-42" y2="-32"/>
<line style="stroke-width: 1; stroke: rgb(211 211 211); fill: none" x1="7.5" x2="25" y1="40" y2="-32"/>
<line style="stroke-width: 1; stroke: rgb(211 211 211); fill: none" x1="-2" x2="25" y1="-32" y2="-32"/>
<line style="stroke-width: 1; stroke: rgb(211 211 211); fill: none" x1="25" x2="45" y1="-32" y2="30"/>
<line style="stroke-width: 1; stroke: rgb(211 211 211); fill: none" x1="-9" x2="-32" y1="-70" y2="-42"/>
<line style="stroke-width: 1; stroke: rgb(211 211 211); fill: none" x1="45" x2="70" y1="30" y2="40"/>
<line style="stroke-width: 1; stroke: rgb(211 211 211); fill: none" x1="45" x2="20" y1="30" y2="65"/>
<line style="stroke-width: 1; stroke: rgb(211 211 211); fill: none" x1="7.5" x2="20" y1="40" y2="65"/>
<line style="stroke-width: 1; stroke: rgb(211 211 211); fill: none" x1="45" x2="42" y1="30" y2="-50"/>
<line style="stroke-width: 1; stroke: rgb(211 211 211); fill: none" x1="70" x2="20" y1="40" y2="65"/>
<line style="stroke-width: 1; stroke: rgb(211 211 211); fill: none" x1="20" x2="-45" y1="65" y2="42"/>
<line style="stroke-width: 1; stroke: rgb(211 211 211); fill: none" x1="20" x2="-60" y1="65" y2="50"/>
<line style="stroke-width: 1; stroke: rgb(211 211 211); fill: none" x1="-60" x2="-45" y1="50" y2="42"/>
<line style="stroke-width: 1; stroke: rgb(211 211 211); fill: none" x1="-60" x2="-55" y1="50" y2="0"/>
<line style="stroke-width: 1; stroke: rgb(211 211 211); fill: none" x1="-55" x2="-70" y1="0" y2="-15.5"/>
<line style="stroke-width: 1; stroke: rgb(211 211 211); fill: none" x1="-70" x2="-32" y1="-15.5" y2="-42"/>
<line style="stroke-width: 1; stroke: rgb(211 211 211); fill: none" x1="-60" x2="-70" y1="50" y2="-15.5"/>
<line style="stroke-width: 1; stroke: rgb(211 211 211); fill: none" x1="-32" x2="-50" y1="-42" y2="-60"/>
<line style="stroke-width: 1; stroke: rgb(211 211 211); fill: none" x1="-2" x2="-9" y1="-32" y2="-70"/>
<line style="stroke-width: 1; stroke: rgb(211 211 211); fill: none" x1="-70" x2="-50" y1="-15.5" y2="-60"/>
<line style="stroke-width: 1; stroke: rgb(211 211 211); fill: none" x1="-50" x2="-9" y1="-60" y2="-70"/>
<line style="stroke-width: 1; stroke: rgb(211 211 211); fill: none" x1="-9" x2="25" y1="-70" y2="-32"/>
<line style="stroke-width: 1; stroke: rgb(211 211 211); fill: none" x1="-9" x2="42" y1="-70" y2="-50"/>
<line style="stroke-width: 1; stroke: rgb(211 211 211); fill: none" x1="42" x2="25" y1="-50" y2="-32"/>
<line style="stroke-width: 1; stroke: rgb(211 211 211); fill: none" x1="42" x2="70" y1="-50" y2="40"/>
<circle cx="45" cy="30" r="2" style="stroke-width: 0.5; stroke: rgb(0 0 0); fill: rgb(220 20 60)"/>
<circle cx="7.5" cy="40" r="2" style="stroke-width: 0.5; stroke: rgb(0 0 0); fill: rgb(220 20 60)"/>
<circle cx="-45" cy="42" r="2" style="stroke-width: 0.5; stroke: rgb(0 0 0); fill: rgb(220 20 60)"/>
<circle cx="-55" cy="0" r="2" style="stroke-width: 0.5; stroke: rgb(0 0 0); fill: rgb(220 20 60)"/>
<circle cx="-32" cy="-42" r="2" style="stroke-width: 0.5; stroke: rgb(0 0 0); fill: rgb(220 20 60)"/>
<circle cx="-2" cy="-32" r="2" style="stroke-width: 0.5; stroke: rgb(0 0 0); fill: rgb(220 20 60)"/>
<circle cx="25" cy="-32" r="2" style="stroke-width: 0.5; stroke: rgb(0 0 0); fill: rgb(220 20 60)"/>
<circle cx="70" cy="40" r="2" style="stroke-width: 0.5; stroke: rgb(0 0 0); fill: rgb(105 105 105)"/>
<circle cx="20" cy="65" r="2" style="stroke-width: 0.5; stroke: rgb(0 0 0); fill: rgb(105 105 105)"/>
<circle cx="-60" cy="50" r="2" style="stroke-width: 0.5; stroke: rgb(0 0 0); fill: rgb(105 105 105)"/>
<circle cx="-70" cy="-15.5" r="2" style="stroke-width: 0.5; stroke: rgb(0 0 0); fill: rgb(105 105 105)"/>
<circle cx="-50" cy="-60" r="2" style="stroke-width: 0.5; stroke: rgb(0 0 0); fill: rgb(105 105 105)"/>
<circle cx="-9" cy="-70" r="2" style="stroke-width: 0.5; stroke: rgb(0 0 0); fill: rgb(105 105 105)"/>
<circle cx="42" cy="-50" r="2" style="stroke-width: 0.5; stroke: rgb(0 0 0); fill: rgb(105 105 105)"/>
<text dy="0.9" font-size="2.5" style="fill: rgb(0 0 0)" text-anchor="middle" transform="translate (7.5 40) rotate (0) translate(-7.5 -40)" x="7.5" y="40">
0
</text>
<text dy="0.9" font-size="2.5" style="fill: rgb(0 0 0)" text-anchor="middle" transform="translate (-45 42) rotate (0) translate(45 -42)" x="-45" y="42">
1
</text>
<text dy="0.9" font-size="2.5" style="fill: rgb(0 0 0)" text-anchor="middle" transform="translate (-55 0) rotate (0) translate(55 -0)" x="-55" y="0">
2
</text>
<text dy="0.9" font-size="2.5" style="fill: rgb(0 0 0)" text-anchor="middle" transform="translate (-32 -42) rotate (0) translate(32 42)" x="-32" y="-42">
3
</text>
<text dy="0.9" font-size="2.5" style="fill: rgb(0 0 0)" text-anchor="middle" transform="translate (-2 -32) rotate (0) translate(2 32)" x="-2" y="-32">
4
</text>
<text dy="0.9" font-size="2.5" style="fill: rgb(0 0 0)" text-anchor="middle" transform="translate (25 -32) rotate (0) translate(-25 32)" x="25" y="-32">
5
</text>
<text dy="0.9" font-size="2.5" style="fill: rgb(0 0 0)" text-anchor="middle" transform="translate (45 30) rotate (0) translate(-45 -30)" x="45" y="30">
6
</text>
<line style="stroke-width: 0.5; stroke: rgb(250 128 114); fill: none" x1="18.10346534653465" x2="28.897058823529413" y1="4.450495049504948" y2="44.9264705882353"/>
<line style="stroke-width: 0.5; stroke: rgb(250 128 114); fill: none" x1="-19.785955056179773" x2="-17.712616822429908" y1="13.8061797752809" y2="68.23130841121495"/>
<line style="stroke-width: 0.5; stroke: rgb(250 128 114); fill: none" x1="-15.009708737864077" x2="-19.785955056179773" y1="6.343294902912625" y2="13.8061797752809"/>
<line style="stroke-width: 0.5; stroke: rgb(250 128 114); fill: none" x1="-19.785955056179773" x2="-64.04929577464789" y1="13.8061797752809" y2="24.345070422535212"/>
<line style="stroke-width: 0.5; stroke: rgb(250 128 114); fill: none" x1="-25.600671140939596" x2="-15.009708737864077" y1="-11.197986577181211" y2="6.343294902912625"/>
<line style="stroke-width: 0.5; stroke: rgb(250 128 114); fill: none" x1="-25.600671140939596" x2="-46.89001520527116" y1="-11.197986577181211" y2="-22.856436898124684"/>
<line style="stroke-width: 0.5; stroke: rgb(250 128 114); fill: none" x1="11.500000000000002" x2="-15.009708737864077" y1="2.8454861111111143" y2="6.343294902912625"/>
<line style="stroke-width: 0.5; stroke: rgb(250 128 114); fill: none" x1="-25.600671140939596" x2="-12.780373831775702" y1="-11.197986577181211" y2="-49.6588785046729"/>
<line style="stroke-width: 0.5; stroke: rgb(250 128 114); fill: none" x1="18.10346534653465" x2="11.500000000000002" y1="4.450495049504948" y2="2.8454861111111143"/>
<line style="stroke-width: 0.5; stroke: rgb(250 128 114); fill: none" x1="11.500000000000002" x2="11.5" y1="2.8454861111111143" y2="-54.131578947368425"/>
<line style="stroke-width: 0.5; stroke: rgb(250 128 114); fill: none" x1="18.10346534653465" x2="65.45190947666195" y1="4.450495049504948" y2="-10.823196605374822"/>
<line style="stroke-width: 0.5; stroke: rgb(250 128 114); fill: none" x1="-29.009803921568626" x2="-12.780373831775702" y1="-62.990196078431374" y2="-49.6588785046729"/>
<line style="stroke-width: 0.5; stroke: rgb(250 128 114); fill: none" x1="48.05555555555556" x2="75.98730964467005" y1="58.611111111111114" y2="-11.218274111675129"/>
<line style="stroke-width: 0.5; stroke: rgb(250 128 114); fill: none" x1="28.897058823529413" x2="48.05555555555556" y1="44.9264705882353" y2="58.611111111111114"/>
<line style="stroke-width: 0.5; stroke: rgb(250 128 114); fill: none" x1="-17.712616822429908" x2="28.897058823529413" y1="68.23130841121495" y2="44.9264705882353"/>
<line style="stroke-width: 0.5; stroke: rgb(250 128 114); fill: none" x1="75.98730964467005" x2="65.45190947666195" y1="-11.218274111675129" y2="-10.823196605374822"/>
<line style="stroke-width: 0.5; stroke: rgb(250 128 114); fill: none" x1="-17.712616822429908" x2="-26.85838150289017" y1="68.23130841121495" y2="94.07803468208093"/>
<line style="stroke-width: 0.5; stroke: rgb(250 128 114); fill: none" x1="-26.85838150289017" x2="-64.04929577464789" y1="94.07803468208093" y2="24.345070422535212"/>
<line style="stroke-width: 0.5; stroke: rgb(250 128 114); fill: none" x1="-64.04929577464789" x2="-92.70392749244712" y1="24.345070422535212" y2="21.479607250755286"/>
<line style="stroke-width: 0.5; stroke: rgb(250 128 114); fill: none" x1="-46.89001520527116" x2="-92.70392749244712" y1="-22.856436898124684" y2="21.479607250755286"/>
<line style="stroke-width: 0.5; stroke: rgb(250 128 114); fill: none" x1="-46.89001520527116" x2="-56.03294573643411" y1="-22.856436898124684" y2="-35.96705426356589"/>
<line style="stroke-width: 0.5; stroke: rgb(250 128 114); fill: none" x1="-29.009803921568626" x2="-56.03294573643411" y1="-62.990196078431374" y2="-35.96705426356589"/>
<line style="stroke-width: 0.5; stroke: rgb(250 128 114); fill: none" x1="11.5" x2="-12.780373831775702" y1="-54.131578947368425" y2="-49.6588785046729"/>
<line style="stroke-width: 0.5; stroke: rgb(250 128 114); fill: none" x1="11.5" x2="15.65739268680445" y1="-54.131578947368425" y2="-57.851351351351354"/>
<line style="stroke-width: 0.5; stroke: rgb(250 128 114); fill: none" x1="15.65739268680445" x2="65.45190947666195" y1="-57.851351351351354" y2="-10.823196605374822"/>
<circle cx="18.10346534653465" cy="4.450495049504948" r="1" style="fill: rgb(65 105 225)"/>
<circle cx="-19.785955056179773" cy="13.8061797752809" r="1" style="fill: rgb(65 105 225)"/>
<circle cx="-15.009708737864077" cy="6.343294902912625" r="1" style="fill: rgb(65 105 225)"/>
<circle cx="-25.600671140939596" cy="-11.197986577181211" r="1" style="fill: rgb(65 105 225)"/>
<circle cx="11.500000000000002" cy="2.8454861111111143" r="1" style="fill: rgb(65 105 225)"/>
<circle cx="11.5" cy="-54.131578947368425" r="1" style="fill: rgb(65 105 225)"/>
<circle cx="28.897058823529413" cy="44.9264705882353" r="1" style="fill: rgb(65 105 225)"/>
<circle cx="-17.712616822429908" cy="68.23130841121495" r="1" style="fill: rgb(65 105 225)"/>
<circle cx="75.98730964467005" cy="-11.218274111675129" r="1" style="fill: rgb(65 105 225)"/>
<circle cx="48.05555555555556" cy="58.611111111111114" r="1" style="fill: rgb(65 105 225)"/>
<circle cx="-26.85838150289017" cy="94.07803468208093" r="1" style="fill: rgb(65 105 225)"/>
<circle cx="-64.04929577464789" cy="24.345070422535212" r="1" style="fill: rgb(65 105 225)"/>
<circle cx="-46.89001520527116" cy="-22.856436898124684" r="1" style="fill: rgb(65 105 225)"/>
<circle cx="-92.70392749244712" cy="21.479607250755286" r="1" style="fill: rgb(65 105 225)"/>
<circle cx="-12.780373831775702" cy="-49.6588785046729" r="1" style="fill: rgb(65 105 225)"/>
<circle cx="-56.03294573643411" cy="-35.96705426356589" r="1" style="fill: rgb(65 105 225)"/>
<circle cx="-29.009803921568626" cy="-62.990196078431374" r="1" style="fill: rgb(65 105 225)"/>
<circle cx="15.65739268680445" cy="-57.851351351351354" r="1" style="fill: rgb(65 105 225)"/>
<circle cx="65.45190947666195" cy="-10.823196605374822" r="1" style="fill: rgb(65 105 225)"/>
<circle cx="-5" cy="-5" r="1" style="fill: rgb(255 0 0)"/>
<line style="stroke-width: 1; stroke: rgb(255 69 0); fill: none" x1="11.499999999999998" x2="-22.464285714285715" y1="-16.833333333333336" y2="-20.607142857142854"/>
<line style="stroke-width: 1; stroke: rgb(255 69 0); fill: none" x1="27.83125" x2="11.499999999999998" y1="1.3125" y2="-16.833333333333336"/>
<line style="stroke-width: 1; stroke: rgb(255 69 0); fill: none" x1="20.18103448275862" x2="27.83125" y1="12.241379310344826" y2="1.3125"/>
<line style="stroke-width: 1; stroke: rgb(255 69 0); fill: none" x1="-19.426439790575916" x2="20.18103448275862" y1="23.2434554973822" y2="12.241379310344826"/>
<line style="stroke-width: 1; stroke: rgb(255 69 0); fill: none" x1="-28.169767441860465" x2="-19.426439790575916" y1="15.80232558139535" y2="23.2434554973822"/>
<line style="stroke-width: 1; stroke: rgb(255 69 0); fill: none" x1="-31.175062972292192" x2="-28.169767441860465" y1="-14.250629722921914" y2="15.80232558139535"/>
<line style="stroke-width: 1; stroke: rgb(255 69 0); fill: none" x1="-22.464285714285715" x2="-31.175062972292192" y1="-20.607142857142854" y2="-14.250629722921914"/>
<circle cx="11.499999999999998" cy="-16.833333333333336" r="1" style="fill: rgb(0 100 0)"/>
<circle cx="27.83125" cy="1.3125" r="1" style="fill: rgb(0 100 0)"/>
<circle cx="20.18103448275862" cy="12.241379310344826" r="1" style="fill: rgb(0 100 0)"/>
<circle cx="-19.426439790575916" cy="23.2434554973822" r="1" style="fill: rgb(0 100 0)"/>
<circle cx="-28.169767441860465" cy="15.80232558139535" r="1" style="fill: rgb(0 100 0)"/>
<circle cx="-31.175062972292192" cy="-14.250629722921914" r="1" style="fill: rgb(0 100 0)"/>
<circle cx="-22.464285714285715" cy="-20.607142857142854" r="1" style="fill: rgb(0 100 0)"/>
</g>
</svg>