<svg viewBox="-108.52174380174363 -92.73213406159873 214.5546024990139 160.07141897628952" width="800" xmlns="http://www.w3.org/2000/svg" xmlns:xlink="http://www.w3.org/1999/xlink">
<defs>
<pattern height="1" id="outer_voronoi_vertex_pattern0001" patternTransform="rotate(63.512 0 0) scale(2)" patternUnits="userSpaceOnUse" width="1">
<line stroke="rgb(255 255 255)" stroke-width="1.01" x1="0" x2="0" y1="-0.1" y2="1.1"/>
<line stroke="rgb(211 211 211)" stroke-width="1.01" x1="1" x2="1" y1="-0.1" y2="1.1"/>
</pattern>
<marker fill="rgb(250 128 114)" id="outer_voronoi_vertex_filled_arrow0002" markerHeight="3" markerWidth="5" orient="auto" refX="0.1" refY="1.5" stroke="none">
<path d="M0,0 L5,1.5 L0,3 z"/>
</marker>
<marker fill="rgb(250 128 114)" id="outer_voronoi_vertex_filled_arrow0003" markerHeight="3" markerWidth="5" orient="auto" refX="0.1" refY="1.5" stroke="none">
<path d="M0,0 L5,1.5 L0,3 z"/>
</marker>
<marker fill="rgb(250 128 114)" id="outer_voronoi_vertex_filled_arrow0004" markerHeight="3" markerWidth="5" orient="auto" refX="0.1" refY="1.5" stroke="none">
<path d="M0,0 L5,1.5 L0,3 z"/>
</marker>
</defs>
<rect height="100%" style="fill: url(#outer_voronoi_vertex_pattern0001)" width="100%" x="-108.52174380174363" y="-92.73213406159873"/>
<g>
<path d="M-2,-24 L5,-12 L-30,-25 z" style="fill: rgb(211 211 211)"/>
<path d="M-2,-24 L33,-30 L5,-12 z" style="fill: rgb(211 211 211)"/>
<path d="M12,10 L30,2 L15,39 z" style="fill: rgb(211 211 211)"/>
<path d="M15,39 L-35,32 L12,10 z" style="fill: rgb(211 211 211)"/>
<path d="M-14,-52 L-5,-42 L-30,-25 z" style="fill: rgb(211 211 211)"/>
<path d="M30,2 L5,-12 L33,-30 z" style="fill: rgb(211 211 211)"/>
<path d="M-2,-24 L-30,-25 L-5,-42 z" style="fill: rgb(211 211 211)"/>
<path d="M-35,32 L15,39 L-67,52 z" style="fill: rgb(211 211 211)"/>
<path d="M-35,32 L-35,5 L12,10 z" style="fill: rgb(211 211 211)"/>
<path d="M15,39 L30,2 L50,50 z" style="fill: rgb(211 211 211)"/>
<path d="M76,10 L30,2 L33,-30 z" style="fill: rgb(211 211 211)"/>
<path d="M-5,-42 L33,-30 L-2,-24 z" style="fill: rgb(211 211 211)"/>
<path d="M5,-12 L12,10 L-35,5 z" style="fill: rgb(211 211 211)"/>
<path d="M12,10 L5,-12 L30,2 z" style="fill: rgb(211 211 211)"/>
<path d="M-35,5 L-35,32 L-67,52 z" style="fill: rgb(211 211 211)"/>
<path d="M-35,5 L-30,-25 L5,-12 z" style="fill: rgb(211 211 211)"/>
<path d="M33,-30 L-5,-42 L45,-47 z" style="fill: rgb(211 211 211)"/>
<path d="M-30,-25 L-35,5 L-55,-25 z" style="fill: rgb(211 211 211)"/>
<path d="M-55,-25 L-14,-52 L-30,-25 z" style="fill: rgb(211 211 211)"/>
<path d="M-67,52 L-55,-25 L-35,5 z" style="fill: rgb(211 211 211)"/>
<path d="M50,50 L-67,52 L15,39 z" style="fill: rgb(211 211 211)"/>
<path d="M76,10 L50,50 L30,2 z" style="fill: rgb(211 211 211)"/>
<path d="M45,-47 L76,10 L33,-30 z" style="fill: rgb(211 211 211)"/>
<path d="M-14,-52 L45,-47 L-5,-42 z" style="fill: rgb(211 211 211)"/>
<line style="stroke-width: 1; stroke: rgb(0 0 0); fill: none" x1="-35" x2="12" y1="5" y2="10"/>
<line style="stroke-width: 1; stroke: rgb(0 0 0); fill: none" x1="-2" x2="33" y1="-24" y2="-30"/>
<line style="stroke-width: 1; stroke: rgb(0 0 0); fill: none" x1="30" x2="15" y1="2" y2="39"/>
<line style="stroke-width: 1; stroke: rgb(0 0 0); fill: none" x1="5" x2="33" y1="-12" y2="-30"/>
<line style="stroke-width: 1; stroke: rgb(0 0 0); fill: none" x1="30" x2="5" y1="2" y2="-12"/>
<line style="stroke-width: 1; stroke: rgb(0 0 0); fill: none" x1="12" x2="-35" y1="10" y2="32"/>
<line style="stroke-width: 1; stroke: rgb(0 0 0); fill: none" x1="15" x2="-35" y1="39" y2="32"/>
<line style="stroke-width: 1; stroke: rgb(0 0 0); fill: none" x1="-5" x2="-30" y1="-42" y2="-25"/>
<line style="stroke-width: 1; stroke: rgb(0 0 0); fill: none" x1="5" x2="-35" y1="-12" y2="5"/>
<line style="stroke-width: 1; stroke: rgb(0 0 0); fill: none" x1="-5" x2="-2" y1="-42" y2="-24"/>
<line style="stroke-width: 1; stroke: rgb(0 0 0); fill: none" x1="5" x2="-2" y1="-12" y2="-24"/>
<line style="stroke-width: 1; stroke: rgb(0 0 0); fill: none" x1="-35" x2="-67" y1="32" y2="52"/>
<line style="stroke-width: 1; stroke: rgb(0 0 0); fill: none" x1="-30" x2="5" y1="-25" y2="-12"/>
<line style="stroke-width: 1; stroke: rgb(0 0 0); fill: none" x1="15" x2="-67" y1="39" y2="52"/>
<line style="stroke-width: 1; stroke: rgb(0 0 0); fill: none" x1="-35" x2="-30" y1="5" y2="-25"/>
<line style="stroke-width: 1; stroke: rgb(0 0 0); fill: none" x1="-14" x2="-5" y1="-52" y2="-42"/>
<line style="stroke-width: 1; stroke: rgb(0 0 0); fill: none" x1="30" x2="76" y1="2" y2="10"/>
<line style="stroke-width: 1; stroke: rgb(0 0 0); fill: none" x1="30" x2="50" y1="2" y2="50"/>
<line style="stroke-width: 1; stroke: rgb(0 0 0); fill: none" x1="30" x2="33" y1="2" y2="-30"/>
<line style="stroke-width: 1; stroke: rgb(0 0 0); fill: none" x1="-5" x2="33" y1="-42" y2="-30"/>
<line style="stroke-width: 1; stroke: rgb(0 0 0); fill: none" x1="15" x2="12" y1="39" y2="10"/>
<line style="stroke-width: 1; stroke: rgb(0 0 0); fill: none" x1="5" x2="12" y1="-12" y2="10"/>
<line style="stroke-width: 1; stroke: rgb(0 0 0); fill: none" x1="30" x2="12" y1="2" y2="10"/>
<line style="stroke-width: 1; stroke: rgb(0 0 0); fill: none" x1="-35" x2="-35" y1="32" y2="5"/>
<line style="stroke-width: 1; stroke: rgb(0 0 0); fill: none" x1="-67" x2="-35" y1="52" y2="5"/>
<line style="stroke-width: 1; stroke: rgb(0 0 0); fill: none" x1="-30" x2="-2" y1="-25" y2="-24"/>
<line style="stroke-width: 1; stroke: rgb(0 0 0); fill: none" x1="-5" x2="45" y1="-42" y2="-47"/>
<line style="stroke-width: 1; stroke: rgb(0 0 0); fill: none" x1="33" x2="76" y1="-30" y2="10"/>
<line style="stroke-width: 1; stroke: rgb(0 0 0); fill: none" x1="-35" x2="-55" y1="5" y2="-25"/>
<line style="stroke-width: 1; stroke: rgb(0 0 0); fill: none" x1="-30" x2="-14" y1="-25" y2="-52"/>
<line style="stroke-width: 1; stroke: rgb(0 0 0); fill: none" x1="-30" x2="-55" y1="-25" y2="-25"/>
<line style="stroke-width: 1; stroke: rgb(0 0 0); fill: none" x1="-55" x2="-14" y1="-25" y2="-52"/>
<line style="stroke-width: 1; stroke: rgb(65 105 225); fill: none" x1="-67" x2="-55" y1="52" y2="-25"/>
<line style="stroke-width: 1; stroke: rgb(0 0 0); fill: none" x1="15" x2="50" y1="39" y2="50"/>
<line style="stroke-width: 1; stroke: rgb(0 0 0); fill: none" x1="50" x2="-67" y1="50" y2="52"/>
<line style="stroke-width: 1; stroke: rgb(65 105 225); fill: none" x1="76" x2="50" y1="10" y2="50"/>
<line style="stroke-width: 1; stroke: rgb(0 0 0); fill: none" x1="33" x2="45" y1="-30" y2="-47"/>
<line style="stroke-width: 1; stroke: rgb(0 0 0); fill: none" x1="45" x2="76" y1="-47" y2="10"/>
<line style="stroke-width: 1; stroke: rgb(65 105 225); fill: none" x1="-14" x2="45" y1="-52" y2="-47"/>
<circle cx="15" cy="39" r="2" style="stroke-width: 0.5; stroke: rgb(0 0 0); fill: rgb(105 105 105)"/>
<circle cx="-5" cy="-42" r="2" style="stroke-width: 0.5; stroke: rgb(0 0 0); fill: rgb(105 105 105)"/>
<circle cx="30" cy="2" r="2" style="stroke-width: 0.5; stroke: rgb(0 0 0); fill: rgb(105 105 105)"/>
<circle cx="5" cy="-12" r="2" style="stroke-width: 0.5; stroke: rgb(0 0 0); fill: rgb(105 105 105)"/>
<circle cx="-35" cy="32" r="2" style="stroke-width: 0.5; stroke: rgb(0 0 0); fill: rgb(105 105 105)"/>
<circle cx="-2" cy="-24" r="2" style="stroke-width: 0.5; stroke: rgb(0 0 0); fill: rgb(105 105 105)"/>
<circle cx="-67" cy="52" r="2" style="stroke-width: 0.5; stroke: rgb(0 0 0); fill: rgb(105 105 105)"/>
<circle cx="-14" cy="-52" r="2" style="stroke-width: 0.5; stroke: rgb(0 0 0); fill: rgb(105 105 105)"/>
<circle cx="76" cy="10" r="2" style="stroke-width: 0.5; stroke: rgb(0 0 0); fill: rgb(105 105 105)"/>
<circle cx="12" cy="10" r="2" style="stroke-width: 0.5; stroke: rgb(0 0 0); fill: rgb(105 105 105)"/>
<circle cx="-35" cy="5" r="2" style="stroke-width: 0.5; stroke: rgb(0 0 0); fill: rgb(105 105 105)"/>
<circle cx="33" cy="-30" r="2" style="stroke-width: 0.5; stroke: rgb(0 0 0); fill: rgb(105 105 105)"/>
<circle cx="-30" cy="-25" r="2" style="stroke-width: 0.5; stroke: rgb(0 0 0); fill: rgb(105 105 105)"/>
<circle cx="-55" cy="-25" r="2" style="stroke-width: 0.5; stroke: rgb(0 0 0); fill: rgb(105 105 105)"/>
<circle cx="50" cy="50" r="2" style="stroke-width: 0.5; stroke: rgb(0 0 0); fill: rgb(105 105 105)"/>
<circle cx="45" cy="-47" r="2" style="stroke-width: 0.5; stroke: rgb(0 0 0); fill: rgb(105 105 105)"/>
<line style="stroke-width: 0.8; stroke: rgb(250 128 114); marker-end: url(#outer_voronoi_vertex_filled_arrow0002); stroke-dasharray: 4 2; fill: none" x1="15.5" x2="18.025" y1="-49.5" y2="-79.4"/>
<circle cx="15.5" cy="-49.5" r="1" style="stroke-width: 0.7; stroke: rgb(0 0 0); fill: rgb(173 216 230)"/>
<line style="stroke-width: 0.8; stroke: rgb(250 128 114); marker-end: url(#outer_voronoi_vertex_filled_arrow0003); stroke-dasharray: 4 2; fill: none" x1="-61" x2="-90.65" y1="13.5" y2="8.875"/>
<circle cx="-61" cy="13.5" r="1" style="stroke-width: 0.7; stroke: rgb(0 0 0); fill: rgb(173 216 230)"/>
<line style="stroke-width: 0.8; stroke: rgb(250 128 114); marker-end: url(#outer_voronoi_vertex_filled_arrow0004); stroke-dasharray: 4 2; fill: none" x1="63" x2="88.15" y1="30" y2="46.35"/>
<circle cx="63" cy="30" r="1" style="stroke-width: 0.7; stroke: rgb(0 0 0); fill: rgb(173 216 230)"/>
</g>
</svg>