<svg viewBox="-57.2 -41.45 114.4 97.9" width="400" xmlns="http://www.w3.org/2000/svg" xmlns:xlink="http://www.w3.org/1999/xlink">
<defs>
<pattern height="1" id="outer_face_pattern0001" patternTransform="rotate(63.512 0 0) scale(2)" patternUnits="userSpaceOnUse" width="1">
<line stroke="rgb(255 255 255)" stroke-width="1.01" x1="0" x2="0" y1="-0.1" y2="1.1"/>
<line stroke="rgb(211 211 211)" stroke-width="1.01" x1="1" x2="1" y1="-0.1" y2="1.1"/>
</pattern>
</defs>
<rect height="100%" style="fill: url(#outer_face_pattern0001)" width="100%" x="-57.2" y="-41.45"/>
<g>
<path d="M40,-35 L50,10 L-20,0 z" style="fill: rgb(211 211 211)"/>
<path d="M-50,50 L-20,0 L35,45 z" style="fill: rgb(211 211 211)"/>
<path d="M50,10 L35,45 L-20,0 z" style="fill: rgb(211 211 211)"/>
<line style="stroke-width: 1; stroke: rgb(0 0 0); fill: none" x1="50" x2="40" y1="10" y2="-35"/>
<line style="stroke-width: 1; stroke: rgb(0 0 0); fill: none" x1="-20" x2="35" y1="0" y2="45"/>
<line style="stroke-width: 1; stroke: rgb(0 0 0); fill: none" x1="50" x2="-20" y1="10" y2="0"/>
<line style="stroke-width: 1; stroke: rgb(0 0 0); fill: none" x1="-50" x2="-20" y1="50" y2="0"/>
<line style="stroke-width: 1; stroke: rgb(0 0 0); fill: none" x1="-20" x2="40" y1="0" y2="-35"/>
<line style="stroke-width: 1; stroke: rgb(0 0 0); fill: none" x1="50" x2="35" y1="10" y2="45"/>
<line style="stroke-width: 1; stroke: rgb(0 0 0); fill: none" x1="35" x2="-50" y1="45" y2="50"/>
<circle cx="50" cy="10" r="2" style="stroke-width: 0.5; stroke: rgb(0 0 0); fill: rgb(105 105 105)"/>
<circle cx="40" cy="-35" r="2" style="stroke-width: 0.5; stroke: rgb(0 0 0); fill: rgb(105 105 105)"/>
<circle cx="-50" cy="50" r="2" style="stroke-width: 0.5; stroke: rgb(0 0 0); fill: rgb(105 105 105)"/>
<circle cx="-20" cy="0" r="2" style="stroke-width: 0.5; stroke: rgb(0 0 0); fill: rgb(105 105 105)"/>
<circle cx="35" cy="45" r="2" style="stroke-width: 0.5; stroke: rgb(0 0 0); fill: rgb(105 105 105)"/>
<text dy="0" font-size="10" style="fill: rgb(0 0 0)" text-anchor="middle" transform="translate (23.333333333333332 -8.333333333333332) rotate (0) translate(-23.333333333333332 8.333333333333332)" x="23.333333333333332" y="-8.333333333333332">
inner
</text>
<text dy="0" font-size="10" style="fill: rgb(0 0 0)" transform="translate (-40 -25) rotate (0) translate(40 25)" x="-40" y="-25">
outer
</text>
<text dy="0" font-size="10" style="fill: rgb(0 0 0)" text-anchor="middle" transform="translate (-11.666666666666666 31.666666666666664) rotate (0) translate(11.666666666666666 -31.666666666666664)" x="-11.666666666666666" y="31.666666666666664">
inner
</text>
<text dy="0" font-size="10" style="fill: rgb(0 0 0)" transform="translate (-40 -25) rotate (0) translate(40 25)" x="-40" y="-25">
outer
</text>
<text dy="0" font-size="10" style="fill: rgb(0 0 0)" text-anchor="middle" transform="translate (21.666666666666664 18.333333333333332) rotate (0) translate(-21.666666666666664 -18.333333333333332)" x="21.666666666666664" y="18.333333333333332">
inner
</text>
<text dy="0" font-size="10" style="fill: rgb(0 0 0)" transform="translate (-40 -25) rotate (0) translate(40 25)" x="-40" y="-25">
outer
</text>
</g>
</svg>