<svg viewBox="-10.480000000000002 -10.480000000000002 120.96000000000001 120.96000000000001" width="800" xmlns="http://www.w3.org/2000/svg" xmlns:xlink="http://www.w3.org/1999/xlink">
<defs>
<pattern height="1" id="refinement_pattern0001" patternTransform="rotate(63.512 0 0) scale(2)" patternUnits="userSpaceOnUse" width="1">
<line stroke="rgb(255 255 255)" stroke-width="1.01" x1="0" x2="0" y1="-0.1" y2="1.1"/>
<line stroke="rgb(211 211 211)" stroke-width="1.01" x1="1" x2="1" y1="-0.1" y2="1.1"/>
</pattern>
</defs>
<rect height="100%" style="fill: url(#refinement_pattern0001)" width="100%" x="-10.480000000000002" y="-10.480000000000002"/>
<g>
<path d="M10,75 L0,100 L0,75 z" style="fill: rgb(211 211 211)"/>
<path d="M25,60 L20,75 L12.733945,67.48165 z" style="fill: rgb(211 211 211)"/>
<path d="M10,75 L12.733945,67.48165 L20,75 z" style="fill: rgb(211 211 211)"/>
<path d="M70,85 L50,100 L60,75 z" style="fill: rgb(211 211 211)"/>
<path d="M25,60 L35,60 L20,75 z" style="fill: rgb(211 211 211)"/>
<path d="M10,75 L20,75 L0,100 z" style="fill: rgb(211 211 211)"/>
<path d="M35,60 L25,55 L35,55 z" style="fill: rgb(211 211 211)"/>
<path d="M40,75 L20,75 L35,60 z" style="fill: rgb(211 211 211)"/>
<path d="M0,50 L0,0 L23.633028,37.509174 z" style="fill: rgb(211 211 211)"/>
<path d="M27.266056,27.518347 L30,20 L32.733944,27.518347 z" style="fill: rgb(211 211 211)"/>
<path d="M85,90 L80,90 L85,80 z" style="fill: rgb(211 211 211)"/>
<path d="M0,100 L20,75 L50,100 z" style="fill: rgb(211 211 211)"/>
<path d="M40,75 L50,100 L20,75 z" style="fill: rgb(211 211 211)"/>
<path d="M50,75 L40,75 L47.266056,67.48165 z" style="fill: rgb(211 211 211)"/>
<path d="M0,0 L16,0 L27.266056,27.518347 z" style="fill: rgb(211 211 211)"/>
<path d="M55,55 L40,47.5 L60,45 z" style="fill: rgb(211 211 211)"/>
<path d="M25,60 L25,55 L35,60 z" style="fill: rgb(211 211 211)"/>
<path d="M20,47.5 L25,55 L16.366972,57.490826 z" style="fill: rgb(211 211 211)"/>
<path d="M35,60 L47.266056,67.48165 L40,75 z" style="fill: rgb(211 211 211)"/>
<path d="M35,55 L25,55 L27.5,47.5 z" style="fill: rgb(211 211 211)"/>
<path d="M30,40 L36.366974,37.509174 L32.5,47.5 z" style="fill: rgb(211 211 211)"/>
<path d="M40,47.5 L35,55 L32.5,47.5 z" style="fill: rgb(211 211 211)"/>
<path d="M70,45 L65,55 L60,45 z" style="fill: rgb(211 211 211)"/>
<path d="M80,80 L70,75 L85,80 z" style="fill: rgb(211 211 211)"/>
<path d="M85,80 L80,90 L80,80 z" style="fill: rgb(211 211 211)"/>
<path d="M40,47.5 L55,55 L43.633026,57.490826 z" style="fill: rgb(211 211 211)"/>
<path d="M60,75 L50,75 L55,65 z" style="fill: rgb(211 211 211)"/>
<path d="M65,65 L85,80 L70,75 z" style="fill: rgb(211 211 211)"/>
<path d="M40,75 L50,75 L50,100 z" style="fill: rgb(211 211 211)"/>
<path d="M50,75 L60,75 L50,100 z" style="fill: rgb(211 211 211)"/>
<path d="M80,90 L85,90 L84,100 z" style="fill: rgb(211 211 211)"/>
<path d="M100,100 L84,100 L85,90 z" style="fill: rgb(211 211 211)"/>
<path d="M55,65 L65,65 L60,75 z" style="fill: rgb(211 211 211)"/>
<path d="M80,40 L85,40 L65,55 z" style="fill: rgb(211 211 211)"/>
<path d="M85,80 L65,65 L100,50 z" style="fill: rgb(211 211 211)"/>
<path d="M100,100 L85,90 L100,84 z" style="fill: rgb(211 211 211)"/>
<path d="M70,85 L80,80 L80,90 z" style="fill: rgb(211 211 211)"/>
<path d="M80,80 L70,85 L70,75 z" style="fill: rgb(211 211 211)"/>
<path d="M60,75 L70,75 L70,85 z" style="fill: rgb(211 211 211)"/>
<path d="M70,75 L60,75 L65,65 z" style="fill: rgb(211 211 211)"/>
<path d="M55,55 L65,65 L55,65 z" style="fill: rgb(211 211 211)"/>
<path d="M70,45 L80,40 L65,55 z" style="fill: rgb(211 211 211)"/>
<path d="M65,55 L65,65 L55,55 z" style="fill: rgb(211 211 211)"/>
<path d="M70,35 L70,45 L60,45 z" style="fill: rgb(211 211 211)"/>
<path d="M85,30 L80,40 L80,30 z" style="fill: rgb(211 211 211)"/>
<path d="M65,55 L100,50 L65,65 z" style="fill: rgb(211 211 211)"/>
<path d="M80,30 L80,40 L70,35 z" style="fill: rgb(211 211 211)"/>
<path d="M85,80 L100,50 L100,84 z" style="fill: rgb(211 211 211)"/>
<path d="M85,40 L80,40 L85,30 z" style="fill: rgb(211 211 211)"/>
<path d="M100,0 L100,16 L80,30 z" style="fill: rgb(211 211 211)"/>
<path d="M100,0 L80,30 L50,0 z" style="fill: rgb(211 211 211)"/>
<path d="M100,50 L85,40 L100,33 z" style="fill: rgb(211 211 211)"/>
<path d="M55,55 L60,45 L65,55 z" style="fill: rgb(211 211 211)"/>
<path d="M85,30 L80,30 L100,16 z" style="fill: rgb(211 211 211)"/>
<path d="M80,30 L70,35 L50,0 z" style="fill: rgb(211 211 211)"/>
<path d="M70,45 L70,35 L80,40 z" style="fill: rgb(211 211 211)"/>
<path d="M32.733944,27.518347 L70,35 L36.366974,37.509174 z" style="fill: rgb(211 211 211)"/>
<path d="M70,35 L32.733944,27.518347 L50,0 z" style="fill: rgb(211 211 211)"/>
<path d="M0,50 L12.733945,67.48165 L0,75 z" style="fill: rgb(211 211 211)"/>
<path d="M84,100 L67,100 L80,90 z" style="fill: rgb(211 211 211)"/>
<path d="M30,20 L50,0 L32.733944,27.518347 z" style="fill: rgb(211 211 211)"/>
<path d="M85,40 L100,50 L65,55 z" style="fill: rgb(211 211 211)"/>
<path d="M30,20 L27.266056,27.518347 L16,0 z" style="fill: rgb(211 211 211)"/>
<path d="M25,55 L20,47.5 L27.5,47.5 z" style="fill: rgb(211 211 211)"/>
<path d="M55,65 L50,75 L47.266056,67.48165 z" style="fill: rgb(211 211 211)"/>
<path d="M47.266056,67.48165 L35,60 L43.633026,57.490826 z" style="fill: rgb(211 211 211)"/>
<path d="M30,40 L27.5,47.5 L23.633028,37.509174 z" style="fill: rgb(211 211 211)"/>
<path d="M35,55 L27.5,47.5 L32.5,47.5 z" style="fill: rgb(211 211 211)"/>
<path d="M27.5,47.5 L30,40 L32.5,47.5 z" style="fill: rgb(211 211 211)"/>
<path d="M40,47.5 L32.5,47.5 L36.366974,37.509174 z" style="fill: rgb(211 211 211)"/>
<path d="M10,75 L0,75 L12.733945,67.48165 z" style="fill: rgb(211 211 211)"/>
<path d="M70,85 L80,90 L67,100 z" style="fill: rgb(211 211 211)"/>
<path d="M30,20 L16,0 L50,0 z" style="fill: rgb(211 211 211)"/>
<path d="M85,80 L100,84 L85,90 z" style="fill: rgb(211 211 211)"/>
<path d="M85,30 L100,16 L100,33 z" style="fill: rgb(211 211 211)"/>
<path d="M0,50 L20,47.5 L16.366972,57.490826 z" style="fill: rgb(211 211 211)"/>
<path d="M25,55 L25,60 L16.366972,57.490826 z" style="fill: rgb(211 211 211)"/>
<path d="M20,47.5 L23.633028,37.509174 L27.5,47.5 z" style="fill: rgb(211 211 211)"/>
<path d="M20,47.5 L0,50 L23.633028,37.509174 z" style="fill: rgb(211 211 211)"/>
<path d="M60,45 L40,47.5 L36.366974,37.509174 z" style="fill: rgb(211 211 211)"/>
<path d="M27.266056,27.518347 L32.733944,27.518347 L30,40 z" style="fill: rgb(211 211 211)"/>
<path d="M35,55 L40,47.5 L43.633026,57.490826 z" style="fill: rgb(211 211 211)"/>
<path d="M55,55 L55,65 L43.633026,57.490826 z" style="fill: rgb(211 211 211)"/>
<path d="M70,85 L67,100 L50,100 z" style="fill: rgb(211 211 211)"/>
<path d="M85,30 L100,33 L85,40 z" style="fill: rgb(211 211 211)"/>
<path d="M12.733945,67.48165 L16.366972,57.490826 L25,60 z" style="fill: rgb(211 211 211)"/>
<path d="M12.733945,67.48165 L0,50 L16.366972,57.490826 z" style="fill: rgb(211 211 211)"/>
<path d="M27.266056,27.518347 L23.633028,37.509174 L0,0 z" style="fill: rgb(211 211 211)"/>
<path d="M27.266056,27.518347 L30,40 L23.633028,37.509174 z" style="fill: rgb(211 211 211)"/>
<path d="M30,40 L32.733944,27.518347 L36.366974,37.509174 z" style="fill: rgb(211 211 211)"/>
<path d="M60,45 L36.366974,37.509174 L70,35 z" style="fill: rgb(211 211 211)"/>
<path d="M47.266056,67.48165 L43.633026,57.490826 L55,65 z" style="fill: rgb(211 211 211)"/>
<path d="M35,55 L43.633026,57.490826 L35,60 z" style="fill: rgb(211 211 211)"/>
<line style="stroke-width: 1; stroke: rgb(169 169 169); fill: none" x1="0" x2="0" y1="75" y2="100"/>
<line style="stroke-width: 1; stroke: rgb(169 169 169); fill: none" x1="12.733944504693635" x2="20" y1="67.4816526120925" y2="75"/>
<line style="stroke-width: 1; stroke: rgb(169 169 169); fill: none" x1="100" x2="84" y1="100" y2="100"/>
<line style="stroke-width: 1; stroke: rgb(169 169 169); fill: none" x1="0" x2="16" y1="0" y2="0"/>
<line style="stroke-width: 1; stroke: rgb(169 169 169); fill: none" x1="100" x2="100" y1="0" y2="16"/>
<line style="stroke-width: 1; stroke: rgb(169 169 169); fill: none" x1="27.266055495306365" x2="0" y1="27.518347387907497" y2="0"/>
<line style="stroke-width: 1; stroke: rgb(169 169 169); fill: none" x1="20" x2="0" y1="75" y2="100"/>
<line style="stroke-width: 1; stroke: rgb(169 169 169); fill: none" x1="0" x2="10" y1="100" y2="75"/>
<line style="stroke-width: 1; stroke: rgb(169 169 169); fill: none" x1="20" x2="35" y1="75" y2="60"/>
<line style="stroke-width: 1; stroke: rgb(169 169 169); fill: none" x1="20" x2="50" y1="75" y2="100"/>
<line style="stroke-width: 1; stroke: rgb(139 0 0); fill: none" x1="10" x2="20" y1="75" y2="75"/>
<line style="stroke-width: 1; stroke: rgb(139 0 0); fill: none" x1="10" x2="12.733944504693635" y1="75" y2="67.4816526120925"/>
<line style="stroke-width: 1; stroke: rgb(169 169 169); fill: none" x1="35" x2="25" y1="60" y2="55"/>
<line style="stroke-width: 1; stroke: rgb(139 0 0); fill: none" x1="20" x2="25" y1="75" y2="60"/>
<line style="stroke-width: 1; stroke: rgb(139 0 0); fill: none" x1="25" x2="35" y1="60" y2="60"/>
<line style="stroke-width: 1; stroke: rgb(139 0 0); fill: none" x1="30" x2="32.73394450469363" y1="20" y2="27.518347387907497"/>
<line style="stroke-width: 1; stroke: rgb(169 169 169); fill: none" x1="85" x2="80" y1="80" y2="90"/>
<line style="stroke-width: 1; stroke: rgb(139 0 0); fill: none" x1="35" x2="40" y1="60" y2="75"/>
<line style="stroke-width: 1; stroke: rgb(169 169 169); fill: none" x1="50" x2="50" y1="100" y2="75"/>
<line style="stroke-width: 1; stroke: rgb(169 169 169); fill: none" x1="20" x2="40" y1="75" y2="75"/>
<line style="stroke-width: 1; stroke: rgb(139 0 0); fill: none" x1="80" x2="70" y1="90" y2="85"/>
<line style="stroke-width: 1; stroke: rgb(139 0 0); fill: none" x1="40" x2="50" y1="75" y2="75"/>
<line style="stroke-width: 1; stroke: rgb(169 169 169); fill: none" x1="40" x2="47.26605549530637" y1="75" y2="67.4816526120925"/>
<line style="stroke-width: 1; stroke: rgb(169 169 169); fill: none" x1="27.266055495306365" x2="16" y1="27.518347387907497" y2="0"/>
<line style="stroke-width: 1; stroke: rgb(169 169 169); fill: none" x1="50" x2="80" y1="0" y2="30"/>
<line style="stroke-width: 1; stroke: rgb(139 0 0); fill: none" x1="35" x2="25" y1="55" y2="55"/>
<line style="stroke-width: 1; stroke: rgb(169 169 169); fill: none" x1="27.5" x2="23.63302774765318" y1="47.5" y2="37.50917369395375"/>
<line style="stroke-width: 1; stroke: rgb(169 169 169); fill: none" x1="25" x2="25" y1="60" y2="55"/>
<line style="stroke-width: 1; stroke: rgb(169 169 169); fill: none" x1="16.36697225234682" x2="25" y1="57.49082630604625" y2="60"/>
<line style="stroke-width: 1; stroke: rgb(169 169 169); fill: none" x1="35" x2="43.63302774765319" y1="60" y2="57.49082630604625"/>
<line style="stroke-width: 1; stroke: rgb(169 169 169); fill: none" x1="35" x2="35" y1="60" y2="55"/>
<line style="stroke-width: 1; stroke: rgb(169 169 169); fill: none" x1="32.5" x2="36.36697225234681" y1="47.5" y2="37.50917369395375"/>
<line style="stroke-width: 1; stroke: rgb(139 0 0); fill: none" x1="25" x2="27.5" y1="55" y2="47.5"/>
<line style="stroke-width: 1; stroke: rgb(169 169 169); fill: none" x1="30" x2="32.73394450469363" y1="40" y2="27.518347387907497"/>
<line style="stroke-width: 1; stroke: rgb(139 0 0); fill: none" x1="35" x2="32.5" y1="55" y2="47.5"/>
<line style="stroke-width: 1; stroke: rgb(169 169 169); fill: none" x1="40" x2="60" y1="47.5" y2="45"/>
<line style="stroke-width: 1; stroke: rgb(169 169 169); fill: none" x1="65" x2="60" y1="55" y2="45"/>
<line style="stroke-width: 1; stroke: rgb(169 169 169); fill: none" x1="43.63302774765319" x2="55" y1="57.49082630604625" y2="65"/>
<line style="stroke-width: 1; stroke: rgb(169 169 169); fill: none" x1="85" x2="70" y1="80" y2="75"/>
<line style="stroke-width: 1; stroke: rgb(169 169 169); fill: none" x1="50" x2="55" y1="75" y2="65"/>
<line style="stroke-width: 1; stroke: rgb(139 0 0); fill: none" x1="55" x2="55" y1="55" y2="65"/>
<line style="stroke-width: 1; stroke: rgb(169 169 169); fill: none" x1="50" x2="60" y1="75" y2="75"/>
<line style="stroke-width: 1; stroke: rgb(139 0 0); fill: none" x1="55" x2="60" y1="65" y2="75"/>
<line style="stroke-width: 1; stroke: rgb(169 169 169); fill: none" x1="55" x2="65" y1="65" y2="65"/>
<line style="stroke-width: 1; stroke: rgb(169 169 169); fill: none" x1="50" x2="40" y1="100" y2="75"/>
<line style="stroke-width: 1; stroke: rgb(169 169 169); fill: none" x1="50" x2="60" y1="100" y2="75"/>
<line style="stroke-width: 1; stroke: rgb(139 0 0); fill: none" x1="60" x2="70" y1="75" y2="85"/>
<line style="stroke-width: 1; stroke: rgb(169 169 169); fill: none" x1="80" x2="80" y1="90" y2="80"/>
<line style="stroke-width: 1; stroke: rgb(169 169 169); fill: none" x1="85" x2="84" y1="90" y2="100"/>
<line style="stroke-width: 1; stroke: rgb(169 169 169); fill: none" x1="50" x2="70" y1="100" y2="85"/>
<line style="stroke-width: 1; stroke: rgb(139 0 0); fill: none" x1="80" x2="85" y1="90" y2="90"/>
<line style="stroke-width: 1; stroke: rgb(169 169 169); fill: none" x1="85" x2="100" y1="90" y2="84"/>
<line style="stroke-width: 1; stroke: rgb(169 169 169); fill: none" x1="100" x2="85" y1="100" y2="90"/>
<line style="stroke-width: 1; stroke: rgb(169 169 169); fill: none" x1="100" x2="65" y1="50" y2="65"/>
<line style="stroke-width: 1; stroke: rgb(169 169 169); fill: none" x1="100" x2="65" y1="50" y2="55"/>
<line style="stroke-width: 1; stroke: rgb(139 0 0); fill: none" x1="85" x2="85" y1="90" y2="80"/>
<line style="stroke-width: 1; stroke: rgb(139 0 0); fill: none" x1="85" x2="80" y1="80" y2="80"/>
<line style="stroke-width: 1; stroke: rgb(169 169 169); fill: none" x1="70" x2="80" y1="85" y2="80"/>
<line style="stroke-width: 1; stroke: rgb(169 169 169); fill: none" x1="70" x2="70" y1="85" y2="75"/>
<line style="stroke-width: 1; stroke: rgb(139 0 0); fill: none" x1="80" x2="70" y1="80" y2="75"/>
<line style="stroke-width: 1; stroke: rgb(169 169 169); fill: none" x1="60" x2="70" y1="75" y2="75"/>
<line style="stroke-width: 1; stroke: rgb(169 169 169); fill: none" x1="60" x2="65" y1="75" y2="65"/>
<line style="stroke-width: 1; stroke: rgb(139 0 0); fill: none" x1="70" x2="65" y1="75" y2="65"/>
<line style="stroke-width: 1; stroke: rgb(169 169 169); fill: none" x1="55" x2="65" y1="55" y2="65"/>
<line style="stroke-width: 1; stroke: rgb(169 169 169); fill: none" x1="85" x2="65" y1="80" y2="65"/>
<line style="stroke-width: 1; stroke: rgb(139 0 0); fill: none" x1="65" x2="65" y1="65" y2="55"/>
<line style="stroke-width: 1; stroke: rgb(169 169 169); fill: none" x1="55" x2="65" y1="55" y2="55"/>
<line style="stroke-width: 1; stroke: rgb(169 169 169); fill: none" x1="65" x2="80" y1="55" y2="40"/>
<line style="stroke-width: 1; stroke: rgb(169 169 169); fill: none" x1="70" x2="60" y1="45" y2="45"/>
<line style="stroke-width: 1; stroke: rgb(169 169 169); fill: none" x1="80" x2="80" y1="40" y2="30"/>
<line style="stroke-width: 1; stroke: rgb(139 0 0); fill: none" x1="65" x2="70" y1="55" y2="45"/>
<line style="stroke-width: 1; stroke: rgb(139 0 0); fill: none" x1="70" x2="80" y1="45" y2="40"/>
<line style="stroke-width: 1; stroke: rgb(169 169 169); fill: none" x1="85" x2="80" y1="30" y2="40"/>
<line style="stroke-width: 1; stroke: rgb(169 169 169); fill: none" x1="85" x2="65" y1="40" y2="55"/>
<line style="stroke-width: 1; stroke: rgb(139 0 0); fill: none" x1="80" x2="85" y1="40" y2="40"/>
<line style="stroke-width: 1; stroke: rgb(169 169 169); fill: none" x1="85" x2="100" y1="40" y2="33"/>
<line style="stroke-width: 1; stroke: rgb(169 169 169); fill: none" x1="100" x2="85" y1="50" y2="80"/>
<line style="stroke-width: 1; stroke: rgb(169 169 169); fill: none" x1="80" x2="100" y1="30" y2="0"/>
<line style="stroke-width: 1; stroke: rgb(169 169 169); fill: none" x1="80" x2="100" y1="30" y2="16"/>
<line style="stroke-width: 1; stroke: rgb(139 0 0); fill: none" x1="85" x2="85" y1="40" y2="30"/>
<line style="stroke-width: 1; stroke: rgb(169 169 169); fill: none" x1="80" x2="70" y1="40" y2="35"/>
<line style="stroke-width: 1; stroke: rgb(169 169 169); fill: none" x1="70" x2="50" y1="35" y2="0"/>
<line style="stroke-width: 1; stroke: rgb(139 0 0); fill: none" x1="85" x2="80" y1="30" y2="30"/>
<line style="stroke-width: 1; stroke: rgb(169 169 169); fill: none" x1="32.73394450469363" x2="50" y1="27.518347387907497" y2="0"/>
<line style="stroke-width: 1; stroke: rgb(139 0 0); fill: none" x1="80" x2="70" y1="30" y2="35"/>
<line style="stroke-width: 1; stroke: rgb(169 169 169); fill: none" x1="70" x2="70" y1="45" y2="35"/>
<line style="stroke-width: 1; stroke: rgb(139 0 0); fill: none" x1="55" x2="60" y1="55" y2="45"/>
<line style="stroke-width: 1; stroke: rgb(169 169 169); fill: none" x1="32.73394450469363" x2="70" y1="27.518347387907497" y2="35"/>
<line style="stroke-width: 1; stroke: rgb(139 0 0); fill: none" x1="70" x2="60" y1="35" y2="45"/>
<line style="stroke-width: 1; stroke: rgb(169 169 169); fill: none" x1="12.733944504693635" x2="0" y1="67.4816526120925" y2="75"/>
<line style="stroke-width: 1; stroke: rgb(169 169 169); fill: none" x1="0" x2="0" y1="50" y2="0"/>
<line style="stroke-width: 1; stroke: rgb(169 169 169); fill: none" x1="67" x2="80" y1="100" y2="90"/>
<line style="stroke-width: 1; stroke: rgb(169 169 169); fill: none" x1="50" x2="0" y1="100" y2="100"/>
<line style="stroke-width: 1; stroke: rgb(169 169 169); fill: none" x1="30" x2="50" y1="20" y2="0"/>
<line style="stroke-width: 1; stroke: rgb(169 169 169); fill: none" x1="50" x2="100" y1="0" y2="0"/>
<line style="stroke-width: 1; stroke: rgb(169 169 169); fill: none" x1="85" x2="100" y1="40" y2="50"/>
<line style="stroke-width: 1; stroke: rgb(169 169 169); fill: none" x1="100" x2="100" y1="50" y2="84"/>
<line style="stroke-width: 1; stroke: rgb(169 169 169); fill: none" x1="0" x2="20" y1="50" y2="47.5"/>
<line style="stroke-width: 1; stroke: rgb(139 0 0); fill: none" x1="30" x2="27.266055495306365" y1="20" y2="27.518347387907497"/>
<line style="stroke-width: 1; stroke: rgb(169 169 169); fill: none" x1="25" x2="20" y1="55" y2="47.5"/>
<line style="stroke-width: 1; stroke: rgb(169 169 169); fill: none" x1="55" x2="40" y1="55" y2="47.5"/>
<line style="stroke-width: 1; stroke: rgb(139 0 0); fill: none" x1="50" x2="47.26605549530637" y1="75" y2="67.4816526120925"/>
<line style="stroke-width: 1; stroke: rgb(169 169 169); fill: none" x1="35" x2="40" y1="55" y2="47.5"/>
<line style="stroke-width: 1; stroke: rgb(169 169 169); fill: none" x1="20" x2="27.5" y1="47.5" y2="47.5"/>
<line style="stroke-width: 1; stroke: rgb(139 0 0); fill: none" x1="30" x2="27.5" y1="40" y2="47.5"/>
<line style="stroke-width: 1; stroke: rgb(169 169 169); fill: none" x1="35" x2="27.5" y1="55" y2="47.5"/>
<line style="stroke-width: 1; stroke: rgb(169 169 169); fill: none" x1="27.5" x2="32.5" y1="47.5" y2="47.5"/>
<line style="stroke-width: 1; stroke: rgb(139 0 0); fill: none" x1="30" x2="32.5" y1="40" y2="47.5"/>
<line style="stroke-width: 1; stroke: rgb(169 169 169); fill: none" x1="40" x2="32.5" y1="47.5" y2="47.5"/>
<line style="stroke-width: 1; stroke: rgb(169 169 169); fill: none" x1="10" x2="0" y1="75" y2="75"/>
<line style="stroke-width: 1; stroke: rgb(169 169 169); fill: none" x1="0" x2="0" y1="75" y2="50"/>
<line style="stroke-width: 1; stroke: rgb(169 169 169); fill: none" x1="80" x2="84" y1="90" y2="100"/>
<line style="stroke-width: 1; stroke: rgb(169 169 169); fill: none" x1="84" x2="67" y1="100" y2="100"/>
<line style="stroke-width: 1; stroke: rgb(169 169 169); fill: none" x1="30" x2="16" y1="20" y2="0"/>
<line style="stroke-width: 1; stroke: rgb(169 169 169); fill: none" x1="16" x2="50" y1="0" y2="0"/>
<line style="stroke-width: 1; stroke: rgb(169 169 169); fill: none" x1="85" x2="100" y1="80" y2="84"/>
<line style="stroke-width: 1; stroke: rgb(169 169 169); fill: none" x1="100" x2="100" y1="84" y2="100"/>
<line style="stroke-width: 1; stroke: rgb(169 169 169); fill: none" x1="85" x2="100" y1="30" y2="16"/>
<line style="stroke-width: 1; stroke: rgb(169 169 169); fill: none" x1="100" x2="100" y1="16" y2="33"/>
<line style="stroke-width: 1; stroke: rgb(169 169 169); fill: none" x1="0" x2="12.733944504693635" y1="50" y2="67.4816526120925"/>
<line style="stroke-width: 1; stroke: rgb(139 0 0); fill: none" x1="20" x2="16.36697225234682" y1="47.5" y2="57.49082630604625"/>
<line style="stroke-width: 1; stroke: rgb(169 169 169); fill: none" x1="25" x2="12.733944504693635" y1="60" y2="67.4816526120925"/>
<line style="stroke-width: 1; stroke: rgb(169 169 169); fill: none" x1="30" x2="27.266055495306365" y1="40" y2="27.518347387907497"/>
<line style="stroke-width: 1; stroke: rgb(139 0 0); fill: none" x1="20" x2="23.63302774765318" y1="47.5" y2="37.50917369395375"/>
<line style="stroke-width: 1; stroke: rgb(169 169 169); fill: none" x1="23.63302774765318" x2="0" y1="37.50917369395375" y2="0"/>
<line style="stroke-width: 1; stroke: rgb(169 169 169); fill: none" x1="70" x2="36.36697225234681" y1="35" y2="37.50917369395375"/>
<line style="stroke-width: 1; stroke: rgb(139 0 0); fill: none" x1="40" x2="36.36697225234681" y1="47.5" y2="37.50917369395375"/>
<line style="stroke-width: 1; stroke: rgb(169 169 169); fill: none" x1="27.266055495306365" x2="32.73394450469363" y1="27.518347387907497" y2="27.518347387907497"/>
<line style="stroke-width: 1; stroke: rgb(169 169 169); fill: none" x1="35" x2="47.26605549530637" y1="60" y2="67.4816526120925"/>
<line style="stroke-width: 1; stroke: rgb(139 0 0); fill: none" x1="40" x2="43.63302774765319" y1="47.5" y2="57.49082630604625"/>
<line style="stroke-width: 1; stroke: rgb(169 169 169); fill: none" x1="55" x2="47.26605549530637" y1="65" y2="67.4816526120925"/>
<line style="stroke-width: 1; stroke: rgb(169 169 169); fill: none" x1="70" x2="67" y1="85" y2="100"/>
<line style="stroke-width: 1; stroke: rgb(169 169 169); fill: none" x1="67" x2="50" y1="100" y2="100"/>
<line style="stroke-width: 1; stroke: rgb(169 169 169); fill: none" x1="85" x2="100" y1="30" y2="33"/>
<line style="stroke-width: 1; stroke: rgb(169 169 169); fill: none" x1="100" x2="100" y1="33" y2="50"/>
<line style="stroke-width: 1; stroke: rgb(169 169 169); fill: none" x1="25" x2="16.36697225234682" y1="55" y2="57.49082630604625"/>
<line style="stroke-width: 1; stroke: rgb(139 0 0); fill: none" x1="12.733944504693635" x2="16.36697225234682" y1="67.4816526120925" y2="57.49082630604625"/>
<line style="stroke-width: 1; stroke: rgb(169 169 169); fill: none" x1="0" x2="16.36697225234682" y1="50" y2="57.49082630604625"/>
<line style="stroke-width: 1; stroke: rgb(169 169 169); fill: none" x1="0" x2="23.63302774765318" y1="50" y2="37.50917369395375"/>
<line style="stroke-width: 1; stroke: rgb(139 0 0); fill: none" x1="27.266055495306365" x2="23.63302774765318" y1="27.518347387907497" y2="37.50917369395375"/>
<line style="stroke-width: 1; stroke: rgb(169 169 169); fill: none" x1="30" x2="23.63302774765318" y1="40" y2="37.50917369395375"/>
<line style="stroke-width: 1; stroke: rgb(169 169 169); fill: none" x1="30" x2="36.36697225234681" y1="40" y2="37.50917369395375"/>
<line style="stroke-width: 1; stroke: rgb(139 0 0); fill: none" x1="32.73394450469363" x2="36.36697225234681" y1="27.518347387907497" y2="37.50917369395375"/>
<line style="stroke-width: 1; stroke: rgb(169 169 169); fill: none" x1="60" x2="36.36697225234681" y1="45" y2="37.50917369395375"/>
<line style="stroke-width: 1; stroke: rgb(169 169 169); fill: none" x1="55" x2="43.63302774765319" y1="55" y2="57.49082630604625"/>
<line style="stroke-width: 1; stroke: rgb(139 0 0); fill: none" x1="47.26605549530637" x2="43.63302774765319" y1="67.4816526120925" y2="57.49082630604625"/>
<line style="stroke-width: 1; stroke: rgb(169 169 169); fill: none" x1="35" x2="43.63302774765319" y1="55" y2="57.49082630604625"/>
<circle cx="0" cy="0" r="0.4" style="stroke-width: 0.5; stroke: rgb(0 0 0); fill: rgb(105 105 105)"/>
<circle cx="0" cy="100" r="0.4" style="stroke-width: 0.5; stroke: rgb(0 0 0); fill: rgb(105 105 105)"/>
<circle cx="100" cy="100" r="0.4" style="stroke-width: 0.5; stroke: rgb(0 0 0); fill: rgb(105 105 105)"/>
<circle cx="100" cy="0" r="0.4" style="stroke-width: 0.5; stroke: rgb(0 0 0); fill: rgb(105 105 105)"/>
<circle cx="10" cy="75" r="0.4" style="stroke-width: 0.5; stroke: rgb(0 0 0); fill: rgb(105 105 105)"/>
<circle cx="20" cy="75" r="0.4" style="stroke-width: 0.5; stroke: rgb(0 0 0); fill: rgb(105 105 105)"/>
<circle cx="25" cy="60" r="0.4" style="stroke-width: 0.5; stroke: rgb(0 0 0); fill: rgb(105 105 105)"/>
<circle cx="35" cy="60" r="0.4" style="stroke-width: 0.5; stroke: rgb(0 0 0); fill: rgb(105 105 105)"/>
<circle cx="40" cy="75" r="0.4" style="stroke-width: 0.5; stroke: rgb(0 0 0); fill: rgb(105 105 105)"/>
<circle cx="50" cy="75" r="0.4" style="stroke-width: 0.5; stroke: rgb(0 0 0); fill: rgb(105 105 105)"/>
<circle cx="30" cy="20" r="0.4" style="stroke-width: 0.5; stroke: rgb(0 0 0); fill: rgb(105 105 105)"/>
<circle cx="25" cy="55" r="0.4" style="stroke-width: 0.5; stroke: rgb(0 0 0); fill: rgb(105 105 105)"/>
<circle cx="35" cy="55" r="0.4" style="stroke-width: 0.5; stroke: rgb(0 0 0); fill: rgb(105 105 105)"/>
<circle cx="30" cy="40" r="0.4" style="stroke-width: 0.5; stroke: rgb(0 0 0); fill: rgb(105 105 105)"/>
<circle cx="55" cy="55" r="0.4" style="stroke-width: 0.5; stroke: rgb(0 0 0); fill: rgb(105 105 105)"/>
<circle cx="55" cy="65" r="0.4" style="stroke-width: 0.5; stroke: rgb(0 0 0); fill: rgb(105 105 105)"/>
<circle cx="60" cy="75" r="0.4" style="stroke-width: 0.5; stroke: rgb(0 0 0); fill: rgb(105 105 105)"/>
<circle cx="70" cy="85" r="0.4" style="stroke-width: 0.5; stroke: rgb(0 0 0); fill: rgb(105 105 105)"/>
<circle cx="80" cy="90" r="0.4" style="stroke-width: 0.5; stroke: rgb(0 0 0); fill: rgb(105 105 105)"/>
<circle cx="85" cy="90" r="0.4" style="stroke-width: 0.5; stroke: rgb(0 0 0); fill: rgb(105 105 105)"/>
<circle cx="85" cy="80" r="0.4" style="stroke-width: 0.5; stroke: rgb(0 0 0); fill: rgb(105 105 105)"/>
<circle cx="80" cy="80" r="0.4" style="stroke-width: 0.5; stroke: rgb(0 0 0); fill: rgb(105 105 105)"/>
<circle cx="70" cy="75" r="0.4" style="stroke-width: 0.5; stroke: rgb(0 0 0); fill: rgb(105 105 105)"/>
<circle cx="65" cy="65" r="0.4" style="stroke-width: 0.5; stroke: rgb(0 0 0); fill: rgb(105 105 105)"/>
<circle cx="65" cy="55" r="0.4" style="stroke-width: 0.5; stroke: rgb(0 0 0); fill: rgb(105 105 105)"/>
<circle cx="70" cy="45" r="0.4" style="stroke-width: 0.5; stroke: rgb(0 0 0); fill: rgb(105 105 105)"/>
<circle cx="80" cy="40" r="0.4" style="stroke-width: 0.5; stroke: rgb(0 0 0); fill: rgb(105 105 105)"/>
<circle cx="85" cy="40" r="0.4" style="stroke-width: 0.5; stroke: rgb(0 0 0); fill: rgb(105 105 105)"/>
<circle cx="85" cy="30" r="0.4" style="stroke-width: 0.5; stroke: rgb(0 0 0); fill: rgb(105 105 105)"/>
<circle cx="80" cy="30" r="0.4" style="stroke-width: 0.5; stroke: rgb(0 0 0); fill: rgb(105 105 105)"/>
<circle cx="70" cy="35" r="0.4" style="stroke-width: 0.5; stroke: rgb(0 0 0); fill: rgb(105 105 105)"/>
<circle cx="60" cy="45" r="0.4" style="stroke-width: 0.5; stroke: rgb(0 0 0); fill: rgb(105 105 105)"/>
<circle cx="0" cy="50" r="0.4" style="stroke-width: 0.5; stroke: rgb(0 0 0); fill: rgb(105 105 105)"/>
<circle cx="50" cy="100" r="0.4" style="stroke-width: 0.5; stroke: rgb(0 0 0); fill: rgb(105 105 105)"/>
<circle cx="50" cy="0" r="0.4" style="stroke-width: 0.5; stroke: rgb(0 0 0); fill: rgb(105 105 105)"/>
<circle cx="100" cy="50" r="0.4" style="stroke-width: 0.5; stroke: rgb(0 0 0); fill: rgb(105 105 105)"/>
<circle cx="20" cy="47.5" r="0.4" style="stroke-width: 0.5; stroke: rgb(0 0 0); fill: rgb(105 105 105)"/>
<circle cx="40" cy="47.5" r="0.4" style="stroke-width: 0.5; stroke: rgb(0 0 0); fill: rgb(105 105 105)"/>
<circle cx="27.5" cy="47.5" r="0.4" style="stroke-width: 0.5; stroke: rgb(0 0 0); fill: rgb(105 105 105)"/>
<circle cx="32.5" cy="47.5" r="0.4" style="stroke-width: 0.5; stroke: rgb(0 0 0); fill: rgb(105 105 105)"/>
<circle cx="0" cy="75" r="0.4" style="stroke-width: 0.5; stroke: rgb(0 0 0); fill: rgb(105 105 105)"/>
<circle cx="84" cy="100" r="0.4" style="stroke-width: 0.5; stroke: rgb(0 0 0); fill: rgb(105 105 105)"/>
<circle cx="16" cy="0" r="0.4" style="stroke-width: 0.5; stroke: rgb(0 0 0); fill: rgb(105 105 105)"/>
<circle cx="100" cy="84" r="0.4" style="stroke-width: 0.5; stroke: rgb(0 0 0); fill: rgb(105 105 105)"/>
<circle cx="100" cy="16" r="0.4" style="stroke-width: 0.5; stroke: rgb(0 0 0); fill: rgb(105 105 105)"/>
<circle cx="12.733944504693635" cy="67.4816526120925" r="0.4" style="stroke-width: 0.5; stroke: rgb(0 0 0); fill: rgb(105 105 105)"/>
<circle cx="27.266055495306365" cy="27.518347387907497" r="0.4" style="stroke-width: 0.5; stroke: rgb(0 0 0); fill: rgb(105 105 105)"/>
<circle cx="32.73394450469363" cy="27.518347387907497" r="0.4" style="stroke-width: 0.5; stroke: rgb(0 0 0); fill: rgb(105 105 105)"/>
<circle cx="47.26605549530637" cy="67.4816526120925" r="0.4" style="stroke-width: 0.5; stroke: rgb(0 0 0); fill: rgb(105 105 105)"/>
<circle cx="67" cy="100" r="0.4" style="stroke-width: 0.5; stroke: rgb(0 0 0); fill: rgb(105 105 105)"/>
<circle cx="100" cy="33" r="0.4" style="stroke-width: 0.5; stroke: rgb(0 0 0); fill: rgb(105 105 105)"/>
<circle cx="16.36697225234682" cy="57.49082630604625" r="0.4" style="stroke-width: 0.5; stroke: rgb(0 0 0); fill: rgb(105 105 105)"/>
<circle cx="23.63302774765318" cy="37.50917369395375" r="0.4" style="stroke-width: 0.5; stroke: rgb(0 0 0); fill: rgb(105 105 105)"/>
<circle cx="36.36697225234681" cy="37.50917369395375" r="0.4" style="stroke-width: 0.5; stroke: rgb(0 0 0); fill: rgb(105 105 105)"/>
<circle cx="43.63302774765319" cy="57.49082630604625" r="0.4" style="stroke-width: 0.5; stroke: rgb(0 0 0); fill: rgb(105 105 105)"/>
</g>
</svg>