<svg viewBox="-90.14 -62.879999999999995 181.68 125.75999999999999" width="290" xmlns="http://www.w3.org/2000/svg" xmlns:xlink="http://www.w3.org/1999/xlink">
<defs>
<pattern height="1" id="refinement_maximum_area_no_limit_pattern0001" patternTransform="rotate(63.512 0 0) scale(2)" patternUnits="userSpaceOnUse" width="1">
<line stroke="rgb(255 255 255)" stroke-width="1.01" x1="0" x2="0" y1="-0.1" y2="1.1"/>
<line stroke="rgb(211 211 211)" stroke-width="1.01" x1="1" x2="1" y1="-0.1" y2="1.1"/>
</pattern>
</defs>
<rect height="100%" style="fill: url(#refinement_maximum_area_no_limit_pattern0001)" width="100%" x="-90.14" y="-62.879999999999995"/>
<g>
<path d="M-16,-24.175 L-2,-24 L-16.6,-7.425 z" style="fill: rgb(211 211 211)"/>
<path d="M5,-12 L15.625,-26.25 L30,2 z" style="fill: rgb(211 211 211)"/>
<path d="M15,39 L12,10 L28.525,22.95 z" style="fill: rgb(211 211 211)"/>
<path d="M15,39 L-0.725,37.2 L12,10 z" style="fill: rgb(211 211 211)"/>
<path d="M-30,-25 L-34.5,-38.5 L-26.25,-33.75 z" style="fill: rgb(211 211 211)"/>
<path d="M33,-30 L30,2 L15.625,-26.25 z" style="fill: rgb(211 211 211)"/>
<path d="M-5,-42 L-2,-24 L-16.325,-39.7 z" style="fill: rgb(211 211 211)"/>
<path d="M-8.5,51 L-35,51.45 L-18.15,36.475 z" style="fill: rgb(211 211 211)"/>
<path d="M12,10 L-12.65,18.25 L-16.6,-7.425 z" style="fill: rgb(211 211 211)"/>
<path d="M30,2 L48.35,13.8 L28.525,22.95 z" style="fill: rgb(211 211 211)"/>
<path d="M30,2 L60.5,-18.5 L48.35,13.8 z" style="fill: rgb(211 211 211)"/>
<path d="M-5,-42 L7.775,-38.85 L-2,-24 z" style="fill: rgb(211 211 211)"/>
<path d="M5,-12 L12,10 L-16.6,-7.425 z" style="fill: rgb(211 211 211)"/>
<path d="M12,10 L5,-12 L30,2 z" style="fill: rgb(211 211 211)"/>
<path d="M-35,5 L-35,32 L-61,13.5 z" style="fill: rgb(211 211 211)"/>
<path d="M5,-12 L-16.6,-7.425 L-2,-24 z" style="fill: rgb(211 211 211)"/>
<path d="M45,-47 L33,-30 L15.5,-49.5 z" style="fill: rgb(211 211 211)"/>
<path d="M-30,-25 L-35,5 L-55,-25 z" style="fill: rgb(211 211 211)"/>
<path d="M-30,-25 L-55,-25 L-34.5,-38.5 z" style="fill: rgb(211 211 211)"/>
<path d="M-67,52 L-61,13.5 L-35,32 z" style="fill: rgb(211 211 211)"/>
<path d="M50,50 L34,50.275 L41.725,34.525 z" style="fill: rgb(211 211 211)"/>
<path d="M28.525,22.95 L48.35,13.8 L41.725,34.525 z" style="fill: rgb(211 211 211)"/>
<path d="M33,-30 L45,-47 L60.5,-18.5 z" style="fill: rgb(211 211 211)"/>
<path d="M-5,-42 L-14,-52 L1.95,-50.65 z" style="fill: rgb(211 211 211)"/>
<path d="M-27.375,-43.2 L-26.25,-33.75 L-34.5,-38.5 z" style="fill: rgb(211 211 211)"/>
<path d="M-35,5 L-61,13.5 L-55,-25 z" style="fill: rgb(211 211 211)"/>
<path d="M-12.65,18.25 L12,10 L-0.725,37.2 z" style="fill: rgb(211 211 211)"/>
<path d="M33,-30 L60.5,-18.5 L30,2 z" style="fill: rgb(211 211 211)"/>
<path d="M15.625,-26.25 L-2,-24 L7.775,-38.85 z" style="fill: rgb(211 211 211)"/>
<path d="M15,39 L18,50.55 L7.5,50.725 z" style="fill: rgb(211 211 211)"/>
<path d="M-35,32 L-35,51.45 L-67,52 z" style="fill: rgb(211 211 211)"/>
<path d="M-5,-42 L1.95,-50.65 L7.775,-38.85 z" style="fill: rgb(211 211 211)"/>
<path d="M-35,5 L-16.6,-7.425 L-12.65,18.25 z" style="fill: rgb(211 211 211)"/>
<path d="M-16.6,-7.425 L-35,5 L-30,-25 z" style="fill: rgb(211 211 211)"/>
<path d="M15.625,-26.25 L5,-12 L-2,-24 z" style="fill: rgb(211 211 211)"/>
<path d="M33,-30 L15.625,-26.25 L15.5,-49.5 z" style="fill: rgb(211 211 211)"/>
<path d="M18,50.55 L15,39 L34,50.275 z" style="fill: rgb(211 211 211)"/>
<path d="M30,2 L28.525,22.95 L12,10 z" style="fill: rgb(211 211 211)"/>
<path d="M-27.375,-43.2 L-14,-52 L-16.325,-39.7 z" style="fill: rgb(211 211 211)"/>
<path d="M41.725,34.525 L63,30 L50,50 z" style="fill: rgb(211 211 211)"/>
<path d="M-5,-42 L-16.325,-39.7 L-14,-52 z" style="fill: rgb(211 211 211)"/>
<path d="M-30,-25 L-26.25,-33.75 L-16,-24.175 z" style="fill: rgb(211 211 211)"/>
<path d="M15,39 L7.5,50.725 L-0.725,37.2 z" style="fill: rgb(211 211 211)"/>
<path d="M15.5,-49.5 L7.775,-38.85 L1.95,-50.65 z" style="fill: rgb(211 211 211)"/>
<path d="M7.775,-38.85 L15.5,-49.5 L15.625,-26.25 z" style="fill: rgb(211 211 211)"/>
<path d="M-0.725,37.2 L-18.15,36.475 L-12.65,18.25 z" style="fill: rgb(211 211 211)"/>
<path d="M-12.65,18.25 L-35,32 L-35,5 z" style="fill: rgb(211 211 211)"/>
<path d="M34,50.275 L15,39 L41.725,34.525 z" style="fill: rgb(211 211 211)"/>
<path d="M76,10 L48.35,13.8 L60.5,-18.5 z" style="fill: rgb(211 211 211)"/>
<path d="M48.35,13.8 L76,10 L63,30 z" style="fill: rgb(211 211 211)"/>
<path d="M-26.25,-33.75 L-16.325,-39.7 L-16,-24.175 z" style="fill: rgb(211 211 211)"/>
<path d="M-16.325,-39.7 L-26.25,-33.75 L-27.375,-43.2 z" style="fill: rgb(211 211 211)"/>
<path d="M-16,-24.175 L-16.6,-7.425 L-30,-25 z" style="fill: rgb(211 211 211)"/>
<path d="M-2,-24 L-16,-24.175 L-16.325,-39.7 z" style="fill: rgb(211 211 211)"/>
<path d="M-8.5,51 L-0.725,37.2 L7.5,50.725 z" style="fill: rgb(211 211 211)"/>
<path d="M-35,32 L-12.65,18.25 L-18.15,36.475 z" style="fill: rgb(211 211 211)"/>
<path d="M-18.15,36.475 L-0.725,37.2 L-8.5,51 z" style="fill: rgb(211 211 211)"/>
<path d="M-35,32 L-18.15,36.475 L-35,51.45 z" style="fill: rgb(211 211 211)"/>
<path d="M28.525,22.95 L41.725,34.525 L15,39 z" style="fill: rgb(211 211 211)"/>
<path d="M63,30 L41.725,34.525 L48.35,13.8 z" style="fill: rgb(211 211 211)"/>
<line style="stroke-width: 1; stroke: rgb(169 169 169); fill: none" x1="-12.65" x2="-16.6" y1="18.25" y2="-7.425"/>
<line style="stroke-width: 1; stroke: rgb(169 169 169); fill: none" x1="15.625" x2="15.5" y1="-26.25" y2="-49.5"/>
<line style="stroke-width: 1; stroke: rgb(169 169 169); fill: none" x1="12" x2="28.525" y1="10" y2="22.95"/>
<line style="stroke-width: 1; stroke: rgb(169 169 169); fill: none" x1="30" x2="15.625" y1="2" y2="-26.25"/>
<line style="stroke-width: 1; stroke: rgb(169 169 169); fill: none" x1="30" x2="5" y1="2" y2="-12"/>
<line style="stroke-width: 1; stroke: rgb(169 169 169); fill: none" x1="-18.15" x2="-12.65" y1="36.475" y2="18.25"/>
<line style="stroke-width: 1; stroke: rgb(169 169 169); fill: none" x1="-0.725" x2="12" y1="37.2" y2="10"/>
<line style="stroke-width: 1; stroke: rgb(169 169 169); fill: none" x1="-16" x2="-16.325" y1="-24.175" y2="-39.7"/>
<line style="stroke-width: 1; stroke: rgb(169 169 169); fill: none" x1="-16.6" x2="12" y1="-7.425" y2="10"/>
<line style="stroke-width: 1; stroke: rgb(169 169 169); fill: none" x1="-5" x2="-2" y1="-42" y2="-24"/>
<line style="stroke-width: 1; stroke: rgb(169 169 169); fill: none" x1="5" x2="-2" y1="-12" y2="-24"/>
<line style="stroke-width: 1; stroke: rgb(169 169 169); fill: none" x1="-35" x2="-67" y1="32" y2="52"/>
<line style="stroke-width: 1; stroke: rgb(169 169 169); fill: none" x1="-16.6" x2="-2" y1="-7.425" y2="-24"/>
<line style="stroke-width: 1; stroke: rgb(169 169 169); fill: none" x1="-35" x2="-18.15" y1="51.45" y2="36.475"/>
<line style="stroke-width: 1; stroke: rgb(169 169 169); fill: none" x1="-35" x2="-30" y1="5" y2="-25"/>
<line style="stroke-width: 1; stroke: rgb(169 169 169); fill: none" x1="-14" x2="-5" y1="-52" y2="-42"/>
<line style="stroke-width: 1; stroke: rgb(169 169 169); fill: none" x1="48.35" x2="60.5" y1="13.8" y2="-18.5"/>
<line style="stroke-width: 1; stroke: rgb(169 169 169); fill: none" x1="48.35" x2="28.525" y1="13.8" y2="22.95"/>
<line style="stroke-width: 1; stroke: rgb(169 169 169); fill: none" x1="30" x2="33" y1="2" y2="-30"/>
<line style="stroke-width: 1; stroke: rgb(169 169 169); fill: none" x1="7.775" x2="-2" y1="-38.85" y2="-24"/>
<line style="stroke-width: 1; stroke: rgb(169 169 169); fill: none" x1="15" x2="12" y1="39" y2="10"/>
<line style="stroke-width: 1; stroke: rgb(169 169 169); fill: none" x1="5" x2="12" y1="-12" y2="10"/>
<line style="stroke-width: 1; stroke: rgb(169 169 169); fill: none" x1="30" x2="12" y1="2" y2="10"/>
<line style="stroke-width: 1; stroke: rgb(169 169 169); fill: none" x1="-35" x2="-35" y1="32" y2="5"/>
<line style="stroke-width: 1; stroke: rgb(169 169 169); fill: none" x1="-35" x2="-61" y1="32" y2="13.5"/>
<line style="stroke-width: 1; stroke: rgb(169 169 169); fill: none" x1="-16" x2="-26.25" y1="-24.175" y2="-33.75"/>
<line style="stroke-width: 1; stroke: rgb(169 169 169); fill: none" x1="33" x2="15.5" y1="-30" y2="-49.5"/>
<line style="stroke-width: 1; stroke: rgb(169 169 169); fill: none" x1="30" x2="60.5" y1="2" y2="-18.5"/>
<line style="stroke-width: 1; stroke: rgb(169 169 169); fill: none" x1="-35" x2="-55" y1="5" y2="-25"/>
<line style="stroke-width: 1; stroke: rgb(169 169 169); fill: none" x1="-34.5" x2="-26.25" y1="-38.5" y2="-33.75"/>
<line style="stroke-width: 1; stroke: rgb(169 169 169); fill: none" x1="-30" x2="-55" y1="-25" y2="-25"/>
<line style="stroke-width: 1; stroke: rgb(169 169 169); fill: none" x1="-55" x2="-34.5" y1="-25" y2="-38.5"/>
<line style="stroke-width: 1; stroke: rgb(169 169 169); fill: none" x1="-67" x2="-61" y1="52" y2="13.5"/>
<line style="stroke-width: 1; stroke: rgb(169 169 169); fill: none" x1="34" x2="15" y1="50.275" y2="39"/>
<line style="stroke-width: 1; stroke: rgb(169 169 169); fill: none" x1="50" x2="34" y1="50" y2="50.275"/>
<line style="stroke-width: 1; stroke: rgb(169 169 169); fill: none" x1="76" x2="63" y1="10" y2="30"/>
<line style="stroke-width: 1; stroke: rgb(169 169 169); fill: none" x1="33" x2="45" y1="-30" y2="-47"/>
<line style="stroke-width: 1; stroke: rgb(169 169 169); fill: none" x1="45" x2="60.5" y1="-47" y2="-18.5"/>
<line style="stroke-width: 1; stroke: rgb(169 169 169); fill: none" x1="-14" x2="1.95" y1="-52" y2="-50.65"/>
<line style="stroke-width: 1; stroke: rgb(169 169 169); fill: none" x1="-30" x2="-34.5" y1="-25" y2="-38.5"/>
<line style="stroke-width: 1; stroke: rgb(169 169 169); fill: none" x1="-34.5" x2="-27.375" y1="-38.5" y2="-43.2"/>
<line style="stroke-width: 1; stroke: rgb(169 169 169); fill: none" x1="-35" x2="-61" y1="5" y2="13.5"/>
<line style="stroke-width: 1; stroke: rgb(169 169 169); fill: none" x1="-61" x2="-55" y1="13.5" y2="-25"/>
<line style="stroke-width: 1; stroke: rgb(169 169 169); fill: none" x1="-0.725" x2="7.5" y1="37.2" y2="50.725"/>
<line style="stroke-width: 1; stroke: rgb(169 169 169); fill: none" x1="-8.5" x2="-35" y1="51" y2="51.45"/>
<line style="stroke-width: 1; stroke: rgb(169 169 169); fill: none" x1="33" x2="60.5" y1="-30" y2="-18.5"/>
<line style="stroke-width: 1; stroke: rgb(169 169 169); fill: none" x1="60.5" x2="76" y1="-18.5" y2="10"/>
<line style="stroke-width: 1; stroke: rgb(169 169 169); fill: none" x1="7.775" x2="1.95" y1="-38.85" y2="-50.65"/>
<line style="stroke-width: 1; stroke: rgb(169 169 169); fill: none" x1="15.5" x2="45" y1="-49.5" y2="-47"/>
<line style="stroke-width: 1; stroke: rgb(169 169 169); fill: none" x1="15" x2="18" y1="39" y2="50.55"/>
<line style="stroke-width: 1; stroke: rgb(169 169 169); fill: none" x1="18" x2="7.5" y1="50.55" y2="50.725"/>
<line style="stroke-width: 1; stroke: rgb(169 169 169); fill: none" x1="-35" x2="-35" y1="32" y2="51.45"/>
<line style="stroke-width: 1; stroke: rgb(169 169 169); fill: none" x1="-35" x2="-67" y1="51.45" y2="52"/>
<line style="stroke-width: 1; stroke: rgb(169 169 169); fill: none" x1="-5" x2="1.95" y1="-42" y2="-50.65"/>
<line style="stroke-width: 1; stroke: rgb(169 169 169); fill: none" x1="1.95" x2="15.5" y1="-50.65" y2="-49.5"/>
<line style="stroke-width: 1; stroke: rgb(169 169 169); fill: none" x1="5" x2="-16.6" y1="-12" y2="-7.425"/>
<line style="stroke-width: 1; stroke: rgb(169 169 169); fill: none" x1="-35" x2="-16.6" y1="5" y2="-7.425"/>
<line style="stroke-width: 1; stroke: rgb(169 169 169); fill: none" x1="-30" x2="-16.6" y1="-25" y2="-7.425"/>
<line style="stroke-width: 1; stroke: rgb(169 169 169); fill: none" x1="5" x2="15.625" y1="-12" y2="-26.25"/>
<line style="stroke-width: 1; stroke: rgb(169 169 169); fill: none" x1="-2" x2="15.625" y1="-24" y2="-26.25"/>
<line style="stroke-width: 1; stroke: rgb(169 169 169); fill: none" x1="33" x2="15.625" y1="-30" y2="-26.25"/>
<line style="stroke-width: 1; stroke: rgb(169 169 169); fill: none" x1="41.725" x2="34" y1="34.525" y2="50.275"/>
<line style="stroke-width: 1; stroke: rgb(169 169 169); fill: none" x1="15" x2="28.525" y1="39" y2="22.95"/>
<line style="stroke-width: 1; stroke: rgb(169 169 169); fill: none" x1="30" x2="28.525" y1="2" y2="22.95"/>
<line style="stroke-width: 1; stroke: rgb(169 169 169); fill: none" x1="-14" x2="-16.325" y1="-52" y2="-39.7"/>
<line style="stroke-width: 1; stroke: rgb(169 169 169); fill: none" x1="-27.375" x2="-14" y1="-43.2" y2="-52"/>
<line style="stroke-width: 1; stroke: rgb(169 169 169); fill: none" x1="41.725" x2="48.35" y1="34.525" y2="13.8"/>
<line style="stroke-width: 1; stroke: rgb(169 169 169); fill: none" x1="63" x2="50" y1="30" y2="50"/>
<line style="stroke-width: 1; stroke: rgb(169 169 169); fill: none" x1="-27.375" x2="-26.25" y1="-43.2" y2="-33.75"/>
<line style="stroke-width: 1; stroke: rgb(169 169 169); fill: none" x1="-16.325" x2="-2" y1="-39.7" y2="-24"/>
<line style="stroke-width: 1; stroke: rgb(169 169 169); fill: none" x1="-30" x2="-26.25" y1="-25" y2="-33.75"/>
<line style="stroke-width: 1; stroke: rgb(169 169 169); fill: none" x1="15" x2="7.5" y1="39" y2="50.725"/>
<line style="stroke-width: 1; stroke: rgb(169 169 169); fill: none" x1="7.5" x2="-8.5" y1="50.725" y2="51"/>
<line style="stroke-width: 1; stroke: rgb(169 169 169); fill: none" x1="-5" x2="7.775" y1="-42" y2="-38.85"/>
<line style="stroke-width: 1; stroke: rgb(169 169 169); fill: none" x1="15.5" x2="7.775" y1="-49.5" y2="-38.85"/>
<line style="stroke-width: 1; stroke: rgb(169 169 169); fill: none" x1="15.625" x2="7.775" y1="-26.25" y2="-38.85"/>
<line style="stroke-width: 1; stroke: rgb(169 169 169); fill: none" x1="12" x2="-12.65" y1="10" y2="18.25"/>
<line style="stroke-width: 1; stroke: rgb(169 169 169); fill: none" x1="-35" x2="-12.65" y1="32" y2="18.25"/>
<line style="stroke-width: 1; stroke: rgb(169 169 169); fill: none" x1="-35" x2="-12.65" y1="5" y2="18.25"/>
<line style="stroke-width: 1; stroke: rgb(169 169 169); fill: none" x1="15" x2="41.725" y1="39" y2="34.525"/>
<line style="stroke-width: 1; stroke: rgb(169 169 169); fill: none" x1="34" x2="18" y1="50.275" y2="50.55"/>
<line style="stroke-width: 1; stroke: rgb(169 169 169); fill: none" x1="30" x2="48.35" y1="2" y2="13.8"/>
<line style="stroke-width: 1; stroke: rgb(169 169 169); fill: none" x1="76" x2="48.35" y1="10" y2="13.8"/>
<line style="stroke-width: 1; stroke: rgb(169 169 169); fill: none" x1="63" x2="48.35" y1="30" y2="13.8"/>
<line style="stroke-width: 1; stroke: rgb(169 169 169); fill: none" x1="-5" x2="-16.325" y1="-42" y2="-39.7"/>
<line style="stroke-width: 1; stroke: rgb(169 169 169); fill: none" x1="-26.25" x2="-16.325" y1="-33.75" y2="-39.7"/>
<line style="stroke-width: 1; stroke: rgb(169 169 169); fill: none" x1="-27.375" x2="-16.325" y1="-43.2" y2="-39.7"/>
<line style="stroke-width: 1; stroke: rgb(169 169 169); fill: none" x1="-16.6" x2="-16" y1="-7.425" y2="-24.175"/>
<line style="stroke-width: 1; stroke: rgb(169 169 169); fill: none" x1="-30" x2="-16" y1="-25" y2="-24.175"/>
<line style="stroke-width: 1; stroke: rgb(169 169 169); fill: none" x1="-2" x2="-16" y1="-24" y2="-24.175"/>
<line style="stroke-width: 1; stroke: rgb(169 169 169); fill: none" x1="15" x2="-0.725" y1="39" y2="37.2"/>
<line style="stroke-width: 1; stroke: rgb(169 169 169); fill: none" x1="-8.5" x2="-0.725" y1="51" y2="37.2"/>
<line style="stroke-width: 1; stroke: rgb(169 169 169); fill: none" x1="-12.65" x2="-0.725" y1="18.25" y2="37.2"/>
<line style="stroke-width: 1; stroke: rgb(169 169 169); fill: none" x1="-0.725" x2="-18.15" y1="37.2" y2="36.475"/>
<line style="stroke-width: 1; stroke: rgb(169 169 169); fill: none" x1="-8.5" x2="-18.15" y1="51" y2="36.475"/>
<line style="stroke-width: 1; stroke: rgb(169 169 169); fill: none" x1="-35" x2="-18.15" y1="32" y2="36.475"/>
<line style="stroke-width: 1; stroke: rgb(169 169 169); fill: none" x1="50" x2="41.725" y1="50" y2="34.525"/>
<line style="stroke-width: 1; stroke: rgb(169 169 169); fill: none" x1="28.525" x2="41.725" y1="22.95" y2="34.525"/>
<line style="stroke-width: 1; stroke: rgb(169 169 169); fill: none" x1="63" x2="41.725" y1="30" y2="34.525"/>
<circle cx="15" cy="39" r="0.4" style="stroke-width: 0.5; stroke: rgb(0 0 0); fill: rgb(105 105 105)"/>
<circle cx="-5" cy="-42" r="0.4" style="stroke-width: 0.5; stroke: rgb(0 0 0); fill: rgb(105 105 105)"/>
<circle cx="30" cy="2" r="0.4" style="stroke-width: 0.5; stroke: rgb(0 0 0); fill: rgb(105 105 105)"/>
<circle cx="5" cy="-12" r="0.4" style="stroke-width: 0.5; stroke: rgb(0 0 0); fill: rgb(105 105 105)"/>
<circle cx="-35" cy="32" r="0.4" style="stroke-width: 0.5; stroke: rgb(0 0 0); fill: rgb(105 105 105)"/>
<circle cx="-2" cy="-24" r="0.4" style="stroke-width: 0.5; stroke: rgb(0 0 0); fill: rgb(105 105 105)"/>
<circle cx="-67" cy="52" r="0.4" style="stroke-width: 0.5; stroke: rgb(0 0 0); fill: rgb(105 105 105)"/>
<circle cx="-14" cy="-52" r="0.4" style="stroke-width: 0.5; stroke: rgb(0 0 0); fill: rgb(105 105 105)"/>
<circle cx="76" cy="10" r="0.4" style="stroke-width: 0.5; stroke: rgb(0 0 0); fill: rgb(105 105 105)"/>
<circle cx="12" cy="10" r="0.4" style="stroke-width: 0.5; stroke: rgb(0 0 0); fill: rgb(105 105 105)"/>
<circle cx="-35" cy="5" r="0.4" style="stroke-width: 0.5; stroke: rgb(0 0 0); fill: rgb(105 105 105)"/>
<circle cx="33" cy="-30" r="0.4" style="stroke-width: 0.5; stroke: rgb(0 0 0); fill: rgb(105 105 105)"/>
<circle cx="-30" cy="-25" r="0.4" style="stroke-width: 0.5; stroke: rgb(0 0 0); fill: rgb(105 105 105)"/>
<circle cx="-55" cy="-25" r="0.4" style="stroke-width: 0.5; stroke: rgb(0 0 0); fill: rgb(105 105 105)"/>
<circle cx="50" cy="50" r="0.4" style="stroke-width: 0.5; stroke: rgb(0 0 0); fill: rgb(105 105 105)"/>
<circle cx="45" cy="-47" r="0.4" style="stroke-width: 0.5; stroke: rgb(0 0 0); fill: rgb(105 105 105)"/>
<circle cx="-34.5" cy="-38.5" r="0.4" style="stroke-width: 0.5; stroke: rgb(0 0 0); fill: rgb(105 105 105)"/>
<circle cx="-61" cy="13.5" r="0.4" style="stroke-width: 0.5; stroke: rgb(0 0 0); fill: rgb(105 105 105)"/>
<circle cx="-8.5" cy="51" r="0.4" style="stroke-width: 0.5; stroke: rgb(0 0 0); fill: rgb(105 105 105)"/>
<circle cx="60.5" cy="-18.5" r="0.4" style="stroke-width: 0.5; stroke: rgb(0 0 0); fill: rgb(105 105 105)"/>
<circle cx="15.5" cy="-49.5" r="0.4" style="stroke-width: 0.5; stroke: rgb(0 0 0); fill: rgb(105 105 105)"/>
<circle cx="18" cy="50.55" r="0.4" style="stroke-width: 0.5; stroke: rgb(0 0 0); fill: rgb(105 105 105)"/>
<circle cx="-35" cy="51.45" r="0.4" style="stroke-width: 0.5; stroke: rgb(0 0 0); fill: rgb(105 105 105)"/>
<circle cx="1.95" cy="-50.65" r="0.4" style="stroke-width: 0.5; stroke: rgb(0 0 0); fill: rgb(105 105 105)"/>
<circle cx="-16.6" cy="-7.425" r="0.4" style="stroke-width: 0.5; stroke: rgb(0 0 0); fill: rgb(105 105 105)"/>
<circle cx="15.625" cy="-26.25" r="0.4" style="stroke-width: 0.5; stroke: rgb(0 0 0); fill: rgb(105 105 105)"/>
<circle cx="28.525" cy="22.95" r="0.4" style="stroke-width: 0.5; stroke: rgb(0 0 0); fill: rgb(105 105 105)"/>
<circle cx="-27.375" cy="-43.2" r="0.4" style="stroke-width: 0.5; stroke: rgb(0 0 0); fill: rgb(105 105 105)"/>
<circle cx="63" cy="30" r="0.4" style="stroke-width: 0.5; stroke: rgb(0 0 0); fill: rgb(105 105 105)"/>
<circle cx="-26.25" cy="-33.75" r="0.4" style="stroke-width: 0.5; stroke: rgb(0 0 0); fill: rgb(105 105 105)"/>
<circle cx="7.5" cy="50.725" r="0.4" style="stroke-width: 0.5; stroke: rgb(0 0 0); fill: rgb(105 105 105)"/>
<circle cx="7.775" cy="-38.85" r="0.4" style="stroke-width: 0.5; stroke: rgb(0 0 0); fill: rgb(105 105 105)"/>
<circle cx="-12.65" cy="18.25" r="0.4" style="stroke-width: 0.5; stroke: rgb(0 0 0); fill: rgb(105 105 105)"/>
<circle cx="34" cy="50.275" r="0.4" style="stroke-width: 0.5; stroke: rgb(0 0 0); fill: rgb(105 105 105)"/>
<circle cx="48.35" cy="13.8" r="0.4" style="stroke-width: 0.5; stroke: rgb(0 0 0); fill: rgb(105 105 105)"/>
<circle cx="-16.325" cy="-39.7" r="0.4" style="stroke-width: 0.5; stroke: rgb(0 0 0); fill: rgb(105 105 105)"/>
<circle cx="-16" cy="-24.175" r="0.4" style="stroke-width: 0.5; stroke: rgb(0 0 0); fill: rgb(105 105 105)"/>
<circle cx="-0.725" cy="37.2" r="0.4" style="stroke-width: 0.5; stroke: rgb(0 0 0); fill: rgb(105 105 105)"/>
<circle cx="-18.15" cy="36.475" r="0.4" style="stroke-width: 0.5; stroke: rgb(0 0 0); fill: rgb(105 105 105)"/>
<circle cx="41.725" cy="34.525" r="0.4" style="stroke-width: 0.5; stroke: rgb(0 0 0); fill: rgb(105 105 105)"/>
<text dy="0" font-size="10" style="fill: rgb(0 0 0)" transform="translate (-75 -20) rotate (-33.2) translate(75 20)" x="-75" y="-20">
No max area
</text>
</g>
</svg>