<svg viewBox="-90.14 -62.879999999999995 181.68 125.75999999999999" width="290" xmlns="http://www.w3.org/2000/svg" xmlns:xlink="http://www.w3.org/1999/xlink">
<defs>
<pattern height="1" id="refinement_maximum_area_100_pattern0001" patternTransform="rotate(63.512 0 0) scale(2)" patternUnits="userSpaceOnUse" width="1">
<line stroke="rgb(255 255 255)" stroke-width="1.01" x1="0" x2="0" y1="-0.1" y2="1.1"/>
<line stroke="rgb(211 211 211)" stroke-width="1.01" x1="1" x2="1" y1="-0.1" y2="1.1"/>
</pattern>
</defs>
<rect height="100%" style="fill: url(#refinement_maximum_area_100_pattern0001)" width="100%" x="-90.14" y="-62.879999999999995"/>
<g>
<path d="M-6.5607533,-13.297894 L-16.746714,-19.215532 L-2,-24 z" style="fill: rgb(211 211 211)"/>
<path d="M7.291038,-21.378105 L15.62987,-26.242424 L16.179272,-14.713288 z" style="fill: rgb(211 211 211)"/>
<path d="M15,39 L9.528509,30.335747 L20.499954,30.616077 z" style="fill: rgb(211 211 211)"/>
<path d="M-8.5,51 L-5.666079,42.1872 L7.497663,50.726536 z" style="fill: rgb(211 211 211)"/>
<path d="M-30,-25 L-34.5,-38.5 L-26.25468,-33.74844 z" style="fill: rgb(211 211 211)"/>
<path d="M27.284193,-14.395232 L16.179272,-14.713288 L25.205166,-24.005943 z" style="fill: rgb(211 211 211)"/>
<path d="M-19.98774,-39.273937 L-20.681366,-47.600075 L-13.524026,-44.00437 z" style="fill: rgb(211 211 211)"/>
<path d="M-25.205284,18.5 L-9.743055,24.753471 L-20.350492,28.73868 z" style="fill: rgb(211 211 211)"/>
<path d="M-21.336334,5.389741 L-11.032331,12.372999 L-25.205284,18.5 z" style="fill: rgb(211 211 211)"/>
<path d="M63.46893,11.396291 L76,10 L67.28019,23.415098 z" style="fill: rgb(211 211 211)"/>
<path d="M25.417221,-5.663428 L34.093323,-8.373858 L30,2 z" style="fill: rgb(211 211 211)"/>
<path d="M-2,-24 L-0.45869416,-33.506886 L7.291038,-21.378105 z" style="fill: rgb(211 211 211)"/>
<path d="M5,-12 L-3.17869,2.7159467 L-6.5607533,-13.297894 z" style="fill: rgb(211 211 211)"/>
<path d="M27.284193,-14.395232 L25.417221,-5.663428 L16.179272,-14.713288 z" style="fill: rgb(211 211 211)"/>
<path d="M-35,32 L-43.157646,42.572685 L-42.70109,27.254879 z" style="fill: rgb(211 211 211)"/>
<path d="M-15.769461,-30.95509 L-2,-24 L-16.746714,-19.215532 z" style="fill: rgb(211 211 211)"/>
<path d="M15.62987,-26.242424 L21.344501,-37.903484 L25.205166,-24.005943 z" style="fill: rgb(211 211 211)"/>
<path d="M-47.435364,6.2466817 L-44.48115,-6.648458 L-35,5 z" style="fill: rgb(211 211 211)"/>
<path d="M-55,-25 L-41.637268,-33.79985 L-42.5,-20.564222 z" style="fill: rgb(211 211 211)"/>
<path d="M-51.00234,51.726536 L-55.4216,41.9135 L-43.157646,42.572685 z" style="fill: rgb(211 211 211)"/>
<path d="M28.531136,22.945055 L38.165768,26.606144 L29.309319,35.4051 z" style="fill: rgb(211 211 211)"/>
<path d="M23.70331,12.08245 L30,2 L33.104465,14.408311 z" style="fill: rgb(211 211 211)"/>
<path d="M37.028572,-47.675545 L45,-47 L40.387184,-39.937977 z" style="fill: rgb(211 211 211)"/>
<path d="M-5,-42 L-14,-52 L1.9428529,-50.64891 z" style="fill: rgb(211 211 211)"/>
<path d="M-20.681366,-47.600075 L-19.98774,-39.273937 L-27.362734,-43.20015 z" style="fill: rgb(211 211 211)"/>
<path d="M-47.435364,6.2466817 L-53.541454,11.137972 L-59.927532,6.61834 z" style="fill: rgb(211 211 211)"/>
<path d="M15,39 L0.61004966,35.38229 L9.528509,30.335747 z" style="fill: rgb(211 211 211)"/>
<path d="M40.387184,-39.937977 L44.632275,-33.14011 L33,-30 z" style="fill: rgb(211 211 211)"/>
<path d="M-0.45869416,-33.506886 L8.147636,-37.829796 L7.291038,-21.378105 z" style="fill: rgb(211 211 211)"/>
<path d="M0.61004966,35.38229 L15,39 L7.497663,50.726536 z" style="fill: rgb(211 211 211)"/>
<path d="M-35.004673,51.45307 L-43.157646,42.572685 L-26.188984,40.91061 z" style="fill: rgb(211 211 211)"/>
<path d="M-5,-42 L1.9428529,-50.64891 L8.147636,-37.829796 z" style="fill: rgb(211 211 211)"/>
<path d="M-9.743055,24.753471 L-25.205284,18.5 L-11.032331,12.372999 z" style="fill: rgb(211 211 211)"/>
<path d="M-30,-25 L-31.647142,-9.857857 L-42.5,-20.564222 z" style="fill: rgb(211 211 211)"/>
<path d="M7.291038,-21.378105 L5,-12 L-2,-24 z" style="fill: rgb(211 211 211)"/>
<path d="M33,-30 L21.344501,-37.903484 L32.45641,-41.093212 z" style="fill: rgb(211 211 211)"/>
<path d="M29.884232,43.398468 L34.00234,50.273464 L26.003506,50.4102 z" style="fill: rgb(211 211 211)"/>
<path d="M12,10 L23.70331,12.08245 L16.331203,21.496801 z" style="fill: rgb(211 211 211)"/>
<path d="M-13.97544,38.10662 L-26.188984,40.91061 L-20.350492,28.73868 z" style="fill: rgb(211 211 211)"/>
<path d="M-21.336334,5.389741 L-12.662522,1.3024281 L-11.032331,12.372999 z" style="fill: rgb(211 211 211)"/>
<path d="M-26.25468,-33.74844 L-27.362734,-43.20015 L-19.98774,-39.273937 z" style="fill: rgb(211 211 211)"/>
<path d="M33,-30 L25.205166,-24.005943 L21.344501,-37.903484 z" style="fill: rgb(211 211 211)"/>
<path d="M41.201862,9.095729 L40.095776,-1.5480453 L53.375736,3.8395114 z" style="fill: rgb(211 211 211)"/>
<path d="M-2,-24 L-15.769461,-30.95509 L-0.45869416,-33.506886 z" style="fill: rgb(211 211 211)"/>
<path d="M-16.609423,-7.43617 L-16.746714,-19.215532 L-6.5607533,-13.297894 z" style="fill: rgb(211 211 211)"/>
<path d="M-19.007011,51.179607 L-35.004673,51.45307 L-26.188984,40.91061 z" style="fill: rgb(211 211 211)"/>
<path d="M-13.97544,38.10662 L-20.350492,28.73868 L-9.743055,24.753471 z" style="fill: rgb(211 211 211)"/>
<path d="M-44.97596,18.5 L-35.090622,15.368952 L-42.70109,27.254879 z" style="fill: rgb(211 211 211)"/>
<path d="M58.719814,36.584904 L50.350067,30.70314 L63,30 z" style="fill: rgb(211 211 211)"/>
<path d="M63.46893,11.396291 L53.375736,3.8395114 L68.35565,-4.0557423 z" style="fill: rgb(211 211 211)"/>
<path d="M38.165768,26.606144 L33.104465,14.408311 L46.86845,21.084091 z" style="fill: rgb(211 211 211)"/>
<path d="M15.5,-49.5 L8.147636,-37.829796 L1.9428529,-50.64891 z" style="fill: rgb(211 211 211)"/>
<path d="M15.62987,-26.242424 L8.147636,-37.829796 L21.344501,-37.903484 z" style="fill: rgb(211 211 211)"/>
<path d="M16.725664,-3.6172566 L7.1341176,0.6827553 L5,-12 z" style="fill: rgb(211 211 211)"/>
<path d="M-11.032331,12.372999 L-0.80441767,12.668865 L-9.743055,24.753471 z" style="fill: rgb(211 211 211)"/>
<path d="M12,10 L16.725664,-3.6172566 L23.70331,12.08245 z" style="fill: rgb(211 211 211)"/>
<path d="M-3.17869,2.7159467 L5,-12 L7.1341176,0.6827553 z" style="fill: rgb(211 211 211)"/>
<path d="M-61,13.5 L-59.927532,6.61834 L-53.541454,11.137972 z" style="fill: rgb(211 211 211)"/>
<path d="M-25.205284,18.5 L-35,32 L-35.090622,15.368952 z" style="fill: rgb(211 211 211)"/>
<path d="M-6.5607533,-13.297894 L-2,-24 L5,-12 z" style="fill: rgb(211 211 211)"/>
<path d="M-16.609423,-7.43617 L-6.5607533,-13.297894 L-12.662522,1.3024281 z" style="fill: rgb(211 211 211)"/>
<path d="M40.387184,-39.937977 L32.45641,-41.093212 L37.028572,-47.675545 z" style="fill: rgb(211 211 211)"/>
<path d="M-42.5,-20.564222 L-44.48115,-6.648458 L-56.231884,-17.095415 z" style="fill: rgb(211 211 211)"/>
<path d="M-30,-25 L-41.637268,-33.79985 L-34.5,-38.5 z" style="fill: rgb(211 211 211)"/>
<path d="M-57.411087,33.776844 L-64.53623,36.19083 L-63.463768,29.30917 z" style="fill: rgb(211 211 211)"/>
<path d="M29.884232,43.398468 L29.309319,35.4051 L37.88334,43.27789 z" style="fill: rgb(211 211 211)"/>
<path d="M67.28019,23.415098 L63,30 L57.15775,21.519026 z" style="fill: rgb(211 211 211)"/>
<path d="M29.884232,43.398468 L26.003506,50.4102 L21.885675,43.551353 z" style="fill: rgb(211 211 211)"/>
<path d="M48.413773,-22.180704 L37.13178,-19.637394 L44.632275,-33.14011 z" style="fill: rgb(211 211 211)"/>
<path d="M-26.25468,-33.74844 L-15.769461,-30.95509 L-30,-25 z" style="fill: rgb(211 211 211)"/>
<path d="M-27.362734,-43.20015 L-26.25468,-33.74844 L-34.5,-38.5 z" style="fill: rgb(211 211 211)"/>
<path d="M-57.463768,-9.19083 L-56.231884,-17.095415 L-44.48115,-6.648458 z" style="fill: rgb(211 211 211)"/>
<path d="M-30,-25 L-42.5,-20.564222 L-41.637268,-33.79985 z" style="fill: rgb(211 211 211)"/>
<path d="M-59.927532,6.61834 L-57.463768,-9.19083 L-47.435364,6.2466817 z" style="fill: rgb(211 211 211)"/>
<path d="M-51.00234,51.726536 L-67,52 L-55.4216,41.9135 z" style="fill: rgb(211 211 211)"/>
<path d="M-57.411087,33.776844 L-63.463768,29.30917 L-52.987366,23.615204 z" style="fill: rgb(211 211 211)"/>
<path d="M-35,32 L-42.70109,27.254879 L-35.090622,15.368952 z" style="fill: rgb(211 211 211)"/>
<path d="M18.004675,50.54693 L7.497663,50.726536 L15,39 z" style="fill: rgb(211 211 211)"/>
<path d="M-13.97544,38.10662 L-8.5,51 L-19.007011,51.179607 z" style="fill: rgb(211 211 211)"/>
<path d="M0.61004966,35.38229 L-13.97544,38.10662 L-9.743055,24.753471 z" style="fill: rgb(211 211 211)"/>
<path d="M29.309319,35.4051 L20.499954,30.616077 L28.531136,22.945055 z" style="fill: rgb(211 211 211)"/>
<path d="M4.0469465,21.677862 L0.61004966,35.38229 L-9.743055,24.753471 z" style="fill: rgb(211 211 211)"/>
<path d="M12,10 L-0.80441767,12.668865 L7.1341176,0.6827553 z" style="fill: rgb(211 211 211)"/>
<path d="M57.15775,21.519026 L63,30 L50.350067,30.70314 z" style="fill: rgb(211 211 211)"/>
<path d="M37.88334,43.27789 L46.345875,42.854076 L42.001167,50.136734 z" style="fill: rgb(211 211 211)"/>
<path d="M52.644352,-32.944256 L60.5,-18.5 L48.413773,-22.180704 z" style="fill: rgb(211 211 211)"/>
<path d="M53.375736,3.8395114 L55.761353,-7.705446 L68.35565,-4.0557423 z" style="fill: rgb(211 211 211)"/>
<path d="M27.284193,-14.395232 L37.13178,-19.637394 L34.093323,-8.373858 z" style="fill: rgb(211 211 211)"/>
<path d="M33,-30 L37.13178,-19.637394 L25.205166,-24.005943 z" style="fill: rgb(211 211 211)"/>
<path d="M40.387184,-39.937977 L48.822174,-39.97213 L44.632275,-33.14011 z" style="fill: rgb(211 211 211)"/>
<path d="M15.5,-49.5 L21.344501,-37.903484 L8.147636,-37.829796 z" style="fill: rgb(211 211 211)"/>
<path d="M21.344501,-37.903484 L15.5,-49.5 L29.057148,-48.35109 z" style="fill: rgb(211 211 211)"/>
<path d="M-5,-42 L-0.45869416,-33.506886 L-15.769461,-30.95509 z" style="fill: rgb(211 211 211)"/>
<path d="M-0.45869416,-33.506886 L-5,-42 L8.147636,-37.829796 z" style="fill: rgb(211 211 211)"/>
<path d="M0.61004966,35.38229 L7.497663,50.726536 L-5.666079,42.1872 z" style="fill: rgb(211 211 211)"/>
<path d="M41.201862,9.095729 L46.86845,21.084091 L33.104465,14.408311 z" style="fill: rgb(211 211 211)"/>
<path d="M41.764034,36.264416 L38.165768,26.606144 L50.350067,30.70314 z" style="fill: rgb(211 211 211)"/>
<path d="M-43.157646,42.572685 L-35.004673,51.45307 L-51.00234,51.726536 z" style="fill: rgb(211 211 211)"/>
<path d="M-49.97594,32.630703 L-43.157646,42.572685 L-55.4216,41.9135 z" style="fill: rgb(211 211 211)"/>
<path d="M-35,32 L-20.350492,28.73868 L-26.188984,40.91061 z" style="fill: rgb(211 211 211)"/>
<path d="M-20.350492,28.73868 L-35,32 L-25.205284,18.5 z" style="fill: rgb(211 211 211)"/>
<path d="M-35,5 L-21.336334,5.389741 L-35.090622,15.368952 z" style="fill: rgb(211 211 211)"/>
<path d="M-31.647142,-9.857857 L-24.998405,-3.2438862 L-35,5 z" style="fill: rgb(211 211 211)"/>
<path d="M-16.746714,-19.215532 L-16.609423,-7.43617 L-25.660583,-16.867306 z" style="fill: rgb(211 211 211)"/>
<path d="M-21.336334,5.389741 L-35,5 L-24.998405,-3.2438862 z" style="fill: rgb(211 211 211)"/>
<path d="M-31.647142,-9.857857 L-25.660583,-16.867306 L-24.998405,-3.2438862 z" style="fill: rgb(211 211 211)"/>
<path d="M-16.746714,-19.215532 L-30,-25 L-15.769461,-30.95509 z" style="fill: rgb(211 211 211)"/>
<path d="M15.62987,-26.242424 L7.291038,-21.378105 L8.147636,-37.829796 z" style="fill: rgb(211 211 211)"/>
<path d="M16.725664,-3.6172566 L5,-12 L16.179272,-14.713288 z" style="fill: rgb(211 211 211)"/>
<path d="M16.725664,-3.6172566 L16.179272,-14.713288 L25.417221,-5.663428 z" style="fill: rgb(211 211 211)"/>
<path d="M7.291038,-21.378105 L16.179272,-14.713288 L5,-12 z" style="fill: rgb(211 211 211)"/>
<path d="M16.331203,21.496801 L28.531136,22.945055 L20.499954,30.616077 z" style="fill: rgb(211 211 211)"/>
<path d="M41.764034,36.264416 L29.309319,35.4051 L38.165768,26.606144 z" style="fill: rgb(211 211 211)"/>
<path d="M18.004675,50.54693 L21.885675,43.551353 L26.003506,50.4102 z" style="fill: rgb(211 211 211)"/>
<path d="M16.331203,21.496801 L4.0469465,21.677862 L12,10 z" style="fill: rgb(211 211 211)"/>
<path d="M28.531136,22.945055 L16.331203,21.496801 L23.70331,12.08245 z" style="fill: rgb(211 211 211)"/>
<path d="M30,2 L23.70331,12.08245 L16.725664,-3.6172566 z" style="fill: rgb(211 211 211)"/>
<path d="M41.201862,9.095729 L33.104465,14.408311 L30,2 z" style="fill: rgb(211 211 211)"/>
<path d="M53.375736,3.8395114 L40.095776,-1.5480453 L55.761353,-7.705446 z" style="fill: rgb(211 211 211)"/>
<path d="M41.201862,9.095729 L53.375736,3.8395114 L46.86845,21.084091 z" style="fill: rgb(211 211 211)"/>
<path d="M63.46893,11.396291 L57.15775,21.519026 L53.375736,3.8395114 z" style="fill: rgb(211 211 211)"/>
<path d="M-26.188984,40.91061 L-13.97544,38.10662 L-19.007011,51.179607 z" style="fill: rgb(211 211 211)"/>
<path d="M-35,32 L-26.188984,40.91061 L-43.157646,42.572685 z" style="fill: rgb(211 211 211)"/>
<path d="M-3.17869,2.7159467 L-11.032331,12.372999 L-12.662522,1.3024281 z" style="fill: rgb(211 211 211)"/>
<path d="M4.0469465,21.677862 L-9.743055,24.753471 L-0.80441767,12.668865 z" style="fill: rgb(211 211 211)"/>
<path d="M-16.609423,-7.43617 L-12.662522,1.3024281 L-24.998405,-3.2438862 z" style="fill: rgb(211 211 211)"/>
<path d="M-3.17869,2.7159467 L-12.662522,1.3024281 L-6.5607533,-13.297894 z" style="fill: rgb(211 211 211)"/>
<path d="M4.0469465,21.677862 L9.528509,30.335747 L0.61004966,35.38229 z" style="fill: rgb(211 211 211)"/>
<path d="M9.528509,30.335747 L4.0469465,21.677862 L16.331203,21.496801 z" style="fill: rgb(211 211 211)"/>
<path d="M-5.666079,42.1872 L-8.5,51 L-13.97544,38.10662 z" style="fill: rgb(211 211 211)"/>
<path d="M-5.666079,42.1872 L-13.97544,38.10662 L0.61004966,35.38229 z" style="fill: rgb(211 211 211)"/>
<path d="M-14,-52 L-13.524026,-44.00437 L-20.681366,-47.600075 z" style="fill: rgb(211 211 211)"/>
<path d="M27.284193,-14.395232 L25.205166,-24.005943 L37.13178,-19.637394 z" style="fill: rgb(211 211 211)"/>
<path d="M15.62987,-26.242424 L25.205166,-24.005943 L16.179272,-14.713288 z" style="fill: rgb(211 211 211)"/>
<path d="M44.529804,-11.287283 L48.413773,-22.180704 L55.761353,-7.705446 z" style="fill: rgb(211 211 211)"/>
<path d="M48.413773,-22.180704 L44.529804,-11.287283 L37.13178,-19.637394 z" style="fill: rgb(211 211 211)"/>
<path d="M40.095776,-1.5480453 L41.201862,9.095729 L30,2 z" style="fill: rgb(211 211 211)"/>
<path d="M27.284193,-14.395232 L34.093323,-8.373858 L25.417221,-5.663428 z" style="fill: rgb(211 211 211)"/>
<path d="M-5,-42 L-15.769461,-30.95509 L-13.524026,-44.00437 z" style="fill: rgb(211 211 211)"/>
<path d="M-19.98774,-39.273937 L-15.769461,-30.95509 L-26.25468,-33.74844 z" style="fill: rgb(211 211 211)"/>
<path d="M-13.524026,-44.00437 L-14,-52 L-5,-42 z" style="fill: rgb(211 211 211)"/>
<path d="M-19.98774,-39.273937 L-13.524026,-44.00437 L-15.769461,-30.95509 z" style="fill: rgb(211 211 211)"/>
<path d="M-35,5 L-35.090622,15.368952 L-47.435364,6.2466817 z" style="fill: rgb(211 211 211)"/>
<path d="M-25.205284,18.5 L-35.090622,15.368952 L-21.336334,5.389741 z" style="fill: rgb(211 211 211)"/>
<path d="M46.86845,21.084091 L53.375736,3.8395114 L57.15775,21.519026 z" style="fill: rgb(211 211 211)"/>
<path d="M60.5,-18.5 L68.35565,-4.0557423 L55.761353,-7.705446 z" style="fill: rgb(211 211 211)"/>
<path d="M58.719814,36.584904 L54.359905,43.29245 L50.350067,30.70314 z" style="fill: rgb(211 211 211)"/>
<path d="M63.46893,11.396291 L68.35565,-4.0557423 L76,10 z" style="fill: rgb(211 211 211)"/>
<path d="M7.1341176,0.6827553 L16.725664,-3.6172566 L12,10 z" style="fill: rgb(211 211 211)"/>
<path d="M-3.17869,2.7159467 L7.1341176,0.6827553 L-0.80441767,12.668865 z" style="fill: rgb(211 211 211)"/>
<path d="M-0.80441767,12.668865 L-11.032331,12.372999 L-3.17869,2.7159467 z" style="fill: rgb(211 211 211)"/>
<path d="M4.0469465,21.677862 L-0.80441767,12.668865 L12,10 z" style="fill: rgb(211 211 211)"/>
<path d="M40.095776,-1.5480453 L30,2 L34.093323,-8.373858 z" style="fill: rgb(211 211 211)"/>
<path d="M25.417221,-5.663428 L30,2 L16.725664,-3.6172566 z" style="fill: rgb(211 211 211)"/>
<path d="M-31.647142,-9.857857 L-35,5 L-44.48115,-6.648458 z" style="fill: rgb(211 211 211)"/>
<path d="M-44.97596,18.5 L-47.435364,6.2466817 L-35.090622,15.368952 z" style="fill: rgb(211 211 211)"/>
<path d="M-64.53623,36.19083 L-55.4216,41.9135 L-67,52 z" style="fill: rgb(211 211 211)"/>
<path d="M-49.97594,32.630703 L-55.4216,41.9135 L-57.411087,33.776844 z" style="fill: rgb(211 211 211)"/>
<path d="M48.822174,-39.97213 L40.387184,-39.937977 L45,-47 z" style="fill: rgb(211 211 211)"/>
<path d="M-44.48115,-6.648458 L-47.435364,6.2466817 L-57.463768,-9.19083 z" style="fill: rgb(211 211 211)"/>
<path d="M-31.647142,-9.857857 L-44.48115,-6.648458 L-42.5,-20.564222 z" style="fill: rgb(211 211 211)"/>
<path d="M-62.231884,21.404585 L-52.987366,23.615204 L-63.463768,29.30917 z" style="fill: rgb(211 211 211)"/>
<path d="M29.309319,35.4051 L21.885675,43.551353 L20.499954,30.616077 z" style="fill: rgb(211 211 211)"/>
<path d="M42.001167,50.136734 L34.00234,50.273464 L37.88334,43.27789 z" style="fill: rgb(211 211 211)"/>
<path d="M57.15775,21.519026 L63.46893,11.396291 L67.28019,23.415098 z" style="fill: rgb(211 211 211)"/>
<path d="M46.86845,21.084091 L57.15775,21.519026 L50.350067,30.70314 z" style="fill: rgb(211 211 211)"/>
<path d="M41.764034,36.264416 L50.350067,30.70314 L46.345875,42.854076 z" style="fill: rgb(211 211 211)"/>
<path d="M46.86845,21.084091 L50.350067,30.70314 L38.165768,26.606144 z" style="fill: rgb(211 211 211)"/>
<path d="M21.885675,43.551353 L18.004675,50.54693 L15,39 z" style="fill: rgb(211 211 211)"/>
<path d="M29.884232,43.398468 L21.885675,43.551353 L29.309319,35.4051 z" style="fill: rgb(211 211 211)"/>
<path d="M33,-30 L44.632275,-33.14011 L37.13178,-19.637394 z" style="fill: rgb(211 211 211)"/>
<path d="M29.057148,-48.35109 L37.028572,-47.675545 L32.45641,-41.093212 z" style="fill: rgb(211 211 211)"/>
<path d="M-42.5,-20.564222 L-56.231884,-17.095415 L-55,-25 z" style="fill: rgb(211 211 211)"/>
<path d="M-53.541454,11.137972 L-47.435364,6.2466817 L-44.97596,18.5 z" style="fill: rgb(211 211 211)"/>
<path d="M-62.231884,21.404585 L-61,13.5 L-52.987366,23.615204 z" style="fill: rgb(211 211 211)"/>
<path d="M-49.97594,32.630703 L-57.411087,33.776844 L-52.987366,23.615204 z" style="fill: rgb(211 211 211)"/>
<path d="M-64.53623,36.19083 L-57.411087,33.776844 L-55.4216,41.9135 z" style="fill: rgb(211 211 211)"/>
<path d="M-53.541454,11.137972 L-52.987366,23.615204 L-61,13.5 z" style="fill: rgb(211 211 211)"/>
<path d="M-49.97594,32.630703 L-42.70109,27.254879 L-43.157646,42.572685 z" style="fill: rgb(211 211 211)"/>
<path d="M-44.97596,18.5 L-42.70109,27.254879 L-52.987366,23.615204 z" style="fill: rgb(211 211 211)"/>
<path d="M15,39 L20.499954,30.616077 L21.885675,43.551353 z" style="fill: rgb(211 211 211)"/>
<path d="M16.331203,21.496801 L20.499954,30.616077 L9.528509,30.335747 z" style="fill: rgb(211 211 211)"/>
<path d="M29.884232,43.398468 L37.88334,43.27789 L34.00234,50.273464 z" style="fill: rgb(211 211 211)"/>
<path d="M44.529804,-11.287283 L55.761353,-7.705446 L40.095776,-1.5480453 z" style="fill: rgb(211 211 211)"/>
<path d="M60.5,-18.5 L55.761353,-7.705446 L48.413773,-22.180704 z" style="fill: rgb(211 211 211)"/>
<path d="M44.529804,-11.287283 L34.093323,-8.373858 L37.13178,-19.637394 z" style="fill: rgb(211 211 211)"/>
<path d="M34.093323,-8.373858 L44.529804,-11.287283 L40.095776,-1.5480453 z" style="fill: rgb(211 211 211)"/>
<path d="M52.644352,-32.944256 L44.632275,-33.14011 L48.822174,-39.97213 z" style="fill: rgb(211 211 211)"/>
<path d="M44.632275,-33.14011 L52.644352,-32.944256 L48.413773,-22.180704 z" style="fill: rgb(211 211 211)"/>
<path d="M-16.609423,-7.43617 L-24.998405,-3.2438862 L-25.660583,-16.867306 z" style="fill: rgb(211 211 211)"/>
<path d="M-21.336334,5.389741 L-24.998405,-3.2438862 L-12.662522,1.3024281 z" style="fill: rgb(211 211 211)"/>
<path d="M-25.660583,-16.867306 L-31.647142,-9.857857 L-30,-25 z" style="fill: rgb(211 211 211)"/>
<path d="M-25.660583,-16.867306 L-30,-25 L-16.746714,-19.215532 z" style="fill: rgb(211 211 211)"/>
<path d="M28.531136,22.945055 L33.104465,14.408311 L38.165768,26.606144 z" style="fill: rgb(211 211 211)"/>
<path d="M33.104465,14.408311 L28.531136,22.945055 L23.70331,12.08245 z" style="fill: rgb(211 211 211)"/>
<path d="M46.345875,42.854076 L54.359905,43.29245 L50,50 z" style="fill: rgb(211 211 211)"/>
<path d="M-44.97596,18.5 L-52.987366,23.615204 L-53.541454,11.137972 z" style="fill: rgb(211 211 211)"/>
<path d="M-49.97594,32.630703 L-52.987366,23.615204 L-42.70109,27.254879 z" style="fill: rgb(211 211 211)"/>
<path d="M41.764034,36.264416 L37.88334,43.27789 L29.309319,35.4051 z" style="fill: rgb(211 211 211)"/>
<path d="M50,50 L42.001167,50.136734 L46.345875,42.854076 z" style="fill: rgb(211 211 211)"/>
<path d="M32.45641,-41.093212 L40.387184,-39.937977 L33,-30 z" style="fill: rgb(211 211 211)"/>
<path d="M29.057148,-48.35109 L32.45641,-41.093212 L21.344501,-37.903484 z" style="fill: rgb(211 211 211)"/>
<path d="M41.764034,36.264416 L46.345875,42.854076 L37.88334,43.27789 z" style="fill: rgb(211 211 211)"/>
<path d="M54.359905,43.29245 L46.345875,42.854076 L50.350067,30.70314 z" style="fill: rgb(211 211 211)"/>
<line style="stroke-width: 1; stroke: rgb(169 169 169); fill: none" x1="-25.20528475659121" x2="-11.032331709427561" y1="18.5" y2="12.372999061624288"/>
<line style="stroke-width: 1; stroke: rgb(169 169 169); fill: none" x1="21.344500726871004" x2="8.14763634863251" y1="-37.903485172837634" y2="-37.829793980404474"/>
<line style="stroke-width: 1; stroke: rgb(169 169 169); fill: none" x1="16.331204122594407" x2="23.703310956229245" y1="21.496801134309806" y2="12.0824496515158"/>
<line style="stroke-width: 1; stroke: rgb(169 169 169); fill: none" x1="16.179271047246097" x2="15.629870129870131" y1="-14.71328861920006" y2="-26.242424242424242"/>
<line style="stroke-width: 1; stroke: rgb(169 169 169); fill: none" x1="16.179271047246097" x2="25.417221187824254" y1="-14.71328861920006" y2="-5.663427836702634"/>
<line style="stroke-width: 1; stroke: rgb(169 169 169); fill: none" x1="-12.66252265804958" x2="-11.032331709427561" y1="1.302428118984908" y2="12.372999061624288"/>
<line style="stroke-width: 1; stroke: rgb(169 169 169); fill: none" x1="9.528508960783391" x2="0.6100496356927358" y1="30.33574721582295" y2="35.3822879881789"/>
<line style="stroke-width: 1; stroke: rgb(169 169 169); fill: none" x1="-19.987740377409665" x2="-27.36273383711805" y1="-39.27393872071794" y2="-43.200150887751526"/>
<line style="stroke-width: 1; stroke: rgb(169 169 169); fill: none" x1="-3.178689883373975" x2="5" y1="2.715946781073537" y2="-12"/>
<line style="stroke-width: 1; stroke: rgb(169 169 169); fill: none" x1="-15.76946107784431" x2="-0.4586941616722786" y1="-30.95508982035928" y2="-33.50688430638795"/>
<line style="stroke-width: 1; stroke: rgb(169 169 169); fill: none" x1="5" x2="-2" y1="-12" y2="-24"/>
<line style="stroke-width: 1; stroke: rgb(169 169 169); fill: none" x1="-35" x2="-43.157644458643084" y1="32" y2="42.57268594695583"/>
<line style="stroke-width: 1; stroke: rgb(169 169 169); fill: none" x1="-2" x2="-16.7467133573189" y1="-24" y2="-19.21553257271248"/>
<line style="stroke-width: 1; stroke: rgb(169 169 169); fill: none" x1="-20.350491957802113" x2="-26.18898373914166" y1="28.738680543553333" y2="40.910611269640135"/>
<line style="stroke-width: 1; stroke: rgb(169 169 169); fill: none" x1="-31.64714189324387" x2="-42.5" y1="-9.857856982207311" y2="-20.564222469491646"/>
<line style="stroke-width: 1; stroke: rgb(169 169 169); fill: none" x1="-14" x2="-5" y1="-52" y2="-42"/>
<line style="stroke-width: 1; stroke: rgb(169 169 169); fill: none" x1="57.15774906038094" x2="63" y1="21.51902524274886" y2="30"/>
<line style="stroke-width: 1; stroke: rgb(169 169 169); fill: none" x1="38.165769075515236" x2="33.104465952435326" y1="26.606144819560466" y2="14.408311094395177"/>
<line style="stroke-width: 1; stroke: rgb(169 169 169); fill: none" x1="44.632272885599996" x2="37.131777326380295" y1="-33.14011063110877" y2="-19.637394721176364"/>
<line style="stroke-width: 1; stroke: rgb(169 169 169); fill: none" x1="7.2910380061115365" x2="8.14763634863251" y1="-21.378105503565063" y2="-37.829793980404474"/>
<line style="stroke-width: 1; stroke: rgb(169 169 169); fill: none" x1="9.528508960783391" x2="20.49995491601909" y1="30.33574721582295" y2="30.61607681306083"/>
<line style="stroke-width: 1; stroke: rgb(169 169 169); fill: none" x1="7.13411743441605" x2="5" y1="0.6827552704257034" y2="-12"/>
<line style="stroke-width: 1; stroke: rgb(169 169 169); fill: none" x1="16.72566371681416" x2="23.703310956229245" y1="-3.6172566371681416" y2="12.0824496515158"/>
<line style="stroke-width: 1; stroke: rgb(169 169 169); fill: none" x1="-35.09062314752638" x2="-35" y1="15.368951946238111" y2="32"/>
<line style="stroke-width: 1; stroke: rgb(169 169 169); fill: none" x1="-43.157644458643084" x2="-55.42159944934511" y1="42.57268594695583" y2="41.913501550370775"/>
<line style="stroke-width: 1; stroke: rgb(169 169 169); fill: none" x1="-6.560753542273117" x2="-16.7467133573189" y1="-13.29789376700735" y2="-19.21553257271248"/>
<line style="stroke-width: 1; stroke: rgb(169 169 169); fill: none" x1="21.344500726871004" x2="33" y1="-37.903485172837634" y2="-30"/>
<line style="stroke-width: 1; stroke: rgb(169 169 169); fill: none" x1="25.417221187824254" x2="34.09332326028871" y1="-5.663427836702634" y2="-8.373858410324523"/>
<line style="stroke-width: 1; stroke: rgb(169 169 169); fill: none" x1="-44.48114975028485" x2="-42.5" y1="-6.648457837295111" y2="-20.564222469491646"/>
<line style="stroke-width: 1; stroke: rgb(169 169 169); fill: none" x1="-34.5" x2="-26.25468013352549" y1="-38.5" y2="-33.748439955491506"/>
<line style="stroke-width: 1; stroke: rgb(169 169 169); fill: none" x1="-41.63726616288194" x2="-42.5" y1="-33.799849112248474" y2="-20.564222469491646"/>
<line style="stroke-width: 1; stroke: rgb(169 169 169); fill: none" x1="-55" x2="-41.63726616288194" y1="-25" y2="-33.799849112248474"/>
<line style="stroke-width: 1; stroke: rgb(169 169 169); fill: none" x1="-67" x2="-64.53623325976167" y1="52" y2="36.190830083470686"/>
<line style="stroke-width: 1; stroke: rgb(169 169 169); fill: none" x1="26.00350569677594" x2="21.8856761324335" y1="50.410196483815795" y2="43.55135250685405"/>
<line style="stroke-width: 1; stroke: rgb(169 169 169); fill: none" x1="50" x2="42.00116856559198" y1="50" y2="50.13673216127194"/>
<line style="stroke-width: 1; stroke: rgb(169 169 169); fill: none" x1="76" x2="67.28018639047338" y1="10" y2="23.415097860810192"/>
<line style="stroke-width: 1; stroke: rgb(169 169 169); fill: none" x1="45" x2="40.38718549853602" y1="-47" y2="-39.937977180604975"/>
<line style="stroke-width: 1; stroke: rgb(169 169 169); fill: none" x1="45" x2="48.82217557527987" y1="-47" y2="-39.972128780937005"/>
<line style="stroke-width: 1; stroke: rgb(169 169 169); fill: none" x1="-14" x2="1.9428528783509016" y1="-52" y2="-50.648910773021115"/>
<line style="stroke-width: 1; stroke: rgb(169 169 169); fill: none" x1="-30" x2="-34.5" y1="-25" y2="-38.5"/>
<line style="stroke-width: 1; stroke: rgb(169 169 169); fill: none" x1="-34.5" x2="-27.36273383711805" y1="-38.5" y2="-43.200150887751526"/>
<line style="stroke-width: 1; stroke: rgb(169 169 169); fill: none" x1="-53.5414546148283" x2="-59.92753348047667" y1="11.137971806203605" y2="6.618339833058625"/>
<line style="stroke-width: 1; stroke: rgb(169 169 169); fill: none" x1="-61" x2="-59.92753348047667" y1="13.5" y2="6.618339833058625"/>
<line style="stroke-width: 1; stroke: rgb(169 169 169); fill: none" x1="7.497662868816045" x2="15" y1="50.72653567745614" y2="39"/>
<line style="stroke-width: 1; stroke: rgb(169 169 169); fill: none" x1="-8.5" x2="-19.00701139355187" y1="51" y2="51.17960703236841"/>
<line style="stroke-width: 1; stroke: rgb(169 169 169); fill: none" x1="60.5" x2="48.41377307339108" y1="-18.5" y2="-22.180704977804886"/>
<line style="stroke-width: 1; stroke: rgb(169 169 169); fill: none" x1="60.5" x2="68.35564884944026" y1="-18.5" y2="-4.055742438125987"/>
<line style="stroke-width: 1; stroke: rgb(169 169 169); fill: none" x1="8.14763634863251" x2="1.9428528783509016" y1="-37.829793980404474" y2="-50.648910773021115"/>
<line style="stroke-width: 1; stroke: rgb(169 169 169); fill: none" x1="15.5" x2="29.057147121649102" y1="-49.5" y2="-48.351089226978885"/>
<line style="stroke-width: 1; stroke: rgb(169 169 169); fill: none" x1="15" x2="18.004674262367914" y1="39" y2="50.54692864508773"/>
<line style="stroke-width: 1; stroke: rgb(169 169 169); fill: none" x1="18.004674262367914" x2="7.497662868816045" y1="50.54692864508773" y2="50.72653567745614"/>
<line style="stroke-width: 1; stroke: rgb(169 169 169); fill: none" x1="-43.157644458643084" x2="-26.18898373914166" y1="42.57268594695583" y2="40.910611269640135"/>
<line style="stroke-width: 1; stroke: rgb(169 169 169); fill: none" x1="-35.004674262367914" x2="-51.00233713118395" y1="51.45307135491227" y2="51.726535677456134"/>
<line style="stroke-width: 1; stroke: rgb(169 169 169); fill: none" x1="-5" x2="1.9428528783509016" y1="-42" y2="-50.648910773021115"/>
<line style="stroke-width: 1; stroke: rgb(169 169 169); fill: none" x1="1.9428528783509016" x2="15.5" y1="-50.648910773021115" y2="-49.5"/>
<line style="stroke-width: 1; stroke: rgb(169 169 169); fill: none" x1="-6.560753542273117" x2="-3.178689883373975" y1="-13.29789376700735" y2="2.715946781073537"/>
<line style="stroke-width: 1; stroke: rgb(169 169 169); fill: none" x1="-24.998406284250954" x2="-35" y1="-3.243886283118054" y2="5"/>
<line style="stroke-width: 1; stroke: rgb(169 169 169); fill: none" x1="-16.609422492401215" x2="-25.66058357185399" y1="-7.436170212765958" y2="-16.867305688487363"/>
<line style="stroke-width: 1; stroke: rgb(169 169 169); fill: none" x1="16.179271047246097" x2="5" y1="-14.71328861920006" y2="-12"/>
<line style="stroke-width: 1; stroke: rgb(169 169 169); fill: none" x1="7.2910380061115365" x2="-0.4586941616722786" y1="-21.378105503565063" y2="-33.50688430638795"/>
<line style="stroke-width: 1; stroke: rgb(169 169 169); fill: none" x1="21.344500726871004" x2="25.20516630508044" y1="-37.903485172837634" y2="-24.005943859595405"/>
<line style="stroke-width: 1; stroke: rgb(169 169 169); fill: none" x1="29.309319407896417" x2="38.165769075515236" y1="35.405102740323045" y2="26.606144819560466"/>
<line style="stroke-width: 1; stroke: rgb(169 169 169); fill: none" x1="28.531135531135533" x2="20.49995491601909" y1="22.945054945054945" y2="30.61607681306083"/>
<line style="stroke-width: 1; stroke: rgb(169 169 169); fill: none" x1="33.104465952435326" x2="30" y1="14.408311094395177" y2="2"/>
<line style="stroke-width: 1; stroke: rgb(169 169 169); fill: none" x1="-5.6660791905359265" x2="7.497662868816045" y1="42.187197773754185" y2="50.72653567745614"/>
<line style="stroke-width: 1; stroke: rgb(169 169 169); fill: none" x1="-9.743055555555557" x2="-20.350491957802113" y1="24.75347222222222" y2="28.738680543553333"/>
<line style="stroke-width: 1; stroke: rgb(169 169 169); fill: none" x1="-0.8044176687370275" x2="12" y1="12.668865655241879" y2="10"/>
<line style="stroke-width: 1; stroke: rgb(169 169 169); fill: none" x1="-13.524025932840607" x2="-20.68136691855903" y1="-44.00437258919732" y2="-47.60007544387576"/>
<line style="stroke-width: 1; stroke: rgb(169 169 169); fill: none" x1="-27.36273383711805" x2="-20.68136691855903" y1="-43.200150887751526" y2="-47.60007544387576"/>
<line style="stroke-width: 1; stroke: rgb(169 169 169); fill: none" x1="16.179271047246097" x2="25.20516630508044" y1="-14.71328861920006" y2="-24.005943859595405"/>
<line style="stroke-width: 1; stroke: rgb(169 169 169); fill: none" x1="25.20516630508044" x2="37.131777326380295" y1="-24.005943859595405" y2="-19.637394721176364"/>
<line style="stroke-width: 1; stroke: rgb(169 169 169); fill: none" x1="34.09332326028871" x2="30" y1="-8.373858410324523" y2="2"/>
<line style="stroke-width: 1; stroke: rgb(169 169 169); fill: none" x1="-5" x2="-15.76946107784431" y1="-42" y2="-30.95508982035928"/>
<line style="stroke-width: 1; stroke: rgb(169 169 169); fill: none" x1="-2" x2="-15.76946107784431" y1="-24" y2="-30.95508982035928"/>
<line style="stroke-width: 1; stroke: rgb(169 169 169); fill: none" x1="-30" x2="-15.76946107784431" y1="-25" y2="-30.95508982035928"/>
<line style="stroke-width: 1; stroke: rgb(169 169 169); fill: none" x1="-35.004674262367914" x2="-26.18898373914166" y1="51.45307135491227" y2="40.910611269640135"/>
<line style="stroke-width: 1; stroke: rgb(169 169 169); fill: none" x1="-19.00701139355187" x2="-35.004674262367914" y1="51.17960703236841" y2="51.45307135491227"/>
<line style="stroke-width: 1; stroke: rgb(169 169 169); fill: none" x1="-9.743055555555557" x2="-25.20528475659121" y1="24.75347222222222" y2="18.5"/>
<line style="stroke-width: 1; stroke: rgb(169 169 169); fill: none" x1="-35" x2="-25.20528475659121" y1="32" y2="18.5"/>
<line style="stroke-width: 1; stroke: rgb(169 169 169); fill: none" x1="-35.09062314752638" x2="-21.33633348414665" y1="15.368951946238111" y2="5.389740788596237"/>
<line style="stroke-width: 1; stroke: rgb(169 169 169); fill: none" x1="50.35006800622789" x2="57.15774906038094" y1="30.70314029816032" y2="21.51902524274886"/>
<line style="stroke-width: 1; stroke: rgb(169 169 169); fill: none" x1="63" x2="58.719813609526625" y1="30" y2="36.58490213918981"/>
<line style="stroke-width: 1; stroke: rgb(169 169 169); fill: none" x1="55.7613509385128" x2="68.35564884944026" y1="-7.705445935126919" y2="-4.055742438125987"/>
<line style="stroke-width: 1; stroke: rgb(169 169 169); fill: none" x1="53.37573715248526" x2="68.35564884944026" y1="3.839511373209773" y2="-4.055742438125987"/>
<line style="stroke-width: 1; stroke: rgb(169 169 169); fill: none" x1="53.37573715248526" x2="40.09577742321669" y1="3.839511373209773" y2="-1.5480452654900612"/>
<line style="stroke-width: 1; stroke: rgb(169 169 169); fill: none" x1="-5" x2="8.14763634863251" y1="-42" y2="-37.829793980404474"/>
<line style="stroke-width: 1; stroke: rgb(169 169 169); fill: none" x1="15.5" x2="8.14763634863251" y1="-49.5" y2="-37.829793980404474"/>
<line style="stroke-width: 1; stroke: rgb(169 169 169); fill: none" x1="15.629870129870131" x2="8.14763634863251" y1="-26.242424242424242" y2="-37.829793980404474"/>
<line style="stroke-width: 1; stroke: rgb(169 169 169); fill: none" x1="-12.66252265804958" x2="-6.560753542273117" y1="1.302428118984908" y2="-13.29789376700735"/>
<line style="stroke-width: 1; stroke: rgb(169 169 169); fill: none" x1="7.13411743441605" x2="-0.8044176687370275" y1="0.6827552704257034" y2="12.668865655241879"/>
<line style="stroke-width: 1; stroke: rgb(169 169 169); fill: none" x1="-0.8044176687370275" x2="-9.743055555555557" y1="12.668865655241879" y2="24.75347222222222"/>
<line style="stroke-width: 1; stroke: rgb(169 169 169); fill: none" x1="30" x2="16.72566371681416" y1="2" y2="-3.6172566371681416"/>
<line style="stroke-width: 1; stroke: rgb(169 169 169); fill: none" x1="12" x2="16.72566371681416" y1="10" y2="-3.6172566371681416"/>
<line style="stroke-width: 1; stroke: rgb(169 169 169); fill: none" x1="5" x2="16.72566371681416" y1="-12" y2="-3.6172566371681416"/>
<line style="stroke-width: 1; stroke: rgb(169 169 169); fill: none" x1="-52.987366676115855" x2="-61" y1="23.61520420865957" y2="13.5"/>
<line style="stroke-width: 1; stroke: rgb(169 169 169); fill: none" x1="-47.435362689718154" x2="-35.09062314752638" y1="6.246681807332152" y2="15.368951946238111"/>
<line style="stroke-width: 1; stroke: rgb(169 169 169); fill: none" x1="-35.09062314752638" x2="-42.70108988134257" y1="15.368951946238111" y2="27.254879418672356"/>
<line style="stroke-width: 1; stroke: rgb(169 169 169); fill: none" x1="-2" x2="-6.560753542273117" y1="-24" y2="-13.29789376700735"/>
<line style="stroke-width: 1; stroke: rgb(169 169 169); fill: none" x1="5" x2="-6.560753542273117" y1="-12" y2="-13.29789376700735"/>
<line style="stroke-width: 1; stroke: rgb(169 169 169); fill: none" x1="-16.609422492401215" x2="-6.560753542273117" y1="-7.436170212765958" y2="-13.29789376700735"/>
<line style="stroke-width: 1; stroke: rgb(169 169 169); fill: none" x1="32.456410885144884" x2="21.344500726871004" y1="-41.09321333834912" y2="-37.903485172837634"/>
<line style="stroke-width: 1; stroke: rgb(169 169 169); fill: none" x1="29.057147121649102" x2="37.028573560824555" y1="-48.351089226978885" y2="-47.67554461348945"/>
<line style="stroke-width: 1; stroke: rgb(169 169 169); fill: none" x1="-44.48114975028485" x2="-35" y1="-6.648457837295111" y2="5"/>
<line style="stroke-width: 1; stroke: rgb(169 169 169); fill: none" x1="-57.46376674023834" x2="-56.23188337011917" y1="-9.190830083470688" y2="-17.095415041735343"/>
<line style="stroke-width: 1; stroke: rgb(169 169 169); fill: none" x1="-30" x2="-41.63726616288194" y1="-25" y2="-33.799849112248474"/>
<line style="stroke-width: 1; stroke: rgb(169 169 169); fill: none" x1="-41.63726616288194" x2="-34.5" y1="-33.799849112248474" y2="-38.5"/>
<line style="stroke-width: 1; stroke: rgb(169 169 169); fill: none" x1="-52.987366676115855" x2="-57.41108739799722" y1="23.61520420865957" y2="33.77684352239004"/>
<line style="stroke-width: 1; stroke: rgb(169 169 169); fill: none" x1="-64.53623325976167" x2="-63.46376674023834" y1="36.190830083470686" y2="29.309169916529306"/>
<line style="stroke-width: 1; stroke: rgb(169 169 169); fill: none" x1="29.309319407896417" x2="37.883339001249546" y1="35.405102740323045" y2="43.27788818431019"/>
<line style="stroke-width: 1; stroke: rgb(169 169 169); fill: none" x1="34.00233713118395" x2="26.00350569677594" y1="50.273464322543866" y2="50.410196483815795"/>
<line style="stroke-width: 1; stroke: rgb(169 169 169); fill: none" x1="53.37573715248526" x2="46.8684506733335" y1="3.839511373209773" y2="21.08409125130447"/>
<line style="stroke-width: 1; stroke: rgb(169 169 169); fill: none" x1="50.35006800622789" x2="63" y1="30.70314029816032" y2="30"/>
<line style="stroke-width: 1; stroke: rgb(169 169 169); fill: none" x1="46.8684506733335" x2="33.104465952435326" y1="21.08409125130447" y2="14.408311094395177"/>
<line style="stroke-width: 1; stroke: rgb(169 169 169); fill: none" x1="44.632272885599996" x2="33" y1="-33.14011063110877" y2="-30"/>
<line style="stroke-width: 1; stroke: rgb(169 169 169); fill: none" x1="52.64435115055974" x2="60.5" y1="-32.94425756187401" y2="-18.5"/>
<line style="stroke-width: 1; stroke: rgb(169 169 169); fill: none" x1="-15.76946107784431" x2="-26.25468013352549" y1="-30.95508982035928" y2="-33.748439955491506"/>
<line style="stroke-width: 1; stroke: rgb(169 169 169); fill: none" x1="-30" x2="-26.25468013352549" y1="-25" y2="-33.748439955491506"/>
<line style="stroke-width: 1; stroke: rgb(169 169 169); fill: none" x1="-27.36273383711805" x2="-26.25468013352549" y1="-43.200150887751526" y2="-33.748439955491506"/>
<line style="stroke-width: 1; stroke: rgb(169 169 169); fill: none" x1="-44.48114975028485" x2="-56.23188337011917" y1="-6.648457837295111" y2="-17.095415041735343"/>
<line style="stroke-width: 1; stroke: rgb(169 169 169); fill: none" x1="-55" x2="-42.5" y1="-25" y2="-20.564222469491646"/>
<line style="stroke-width: 1; stroke: rgb(169 169 169); fill: none" x1="-30" x2="-42.5" y1="-25" y2="-20.564222469491646"/>
<line style="stroke-width: 1; stroke: rgb(169 169 169); fill: none" x1="-57.46376674023834" x2="-47.435362689718154" y1="-9.190830083470688" y2="6.246681807332152"/>
<line style="stroke-width: 1; stroke: rgb(169 169 169); fill: none" x1="-59.92753348047667" x2="-57.46376674023834" y1="6.618339833058625" y2="-9.190830083470688"/>
<line style="stroke-width: 1; stroke: rgb(169 169 169); fill: none" x1="-67" x2="-55.42159944934511" y1="52" y2="41.913501550370775"/>
<line style="stroke-width: 1; stroke: rgb(169 169 169); fill: none" x1="-51.00233713118395" x2="-67" y1="51.726535677456134" y2="52"/>
<line style="stroke-width: 1; stroke: rgb(169 169 169); fill: none" x1="-55.42159944934511" x2="-57.41108739799722" y1="41.913501550370775" y2="33.77684352239004"/>
<line style="stroke-width: 1; stroke: rgb(169 169 169); fill: none" x1="-52.987366676115855" x2="-42.70108988134257" y1="23.61520420865957" y2="27.254879418672356"/>
<line style="stroke-width: 1; stroke: rgb(169 169 169); fill: none" x1="-42.70108988134257" x2="-43.157644458643084" y1="27.254879418672356" y2="42.57268594695583"/>
<line style="stroke-width: 1; stroke: rgb(169 169 169); fill: none" x1="-9.743055555555557" x2="-13.97544043870317" y1="24.75347222222222" y2="38.10662111344095"/>
<line style="stroke-width: 1; stroke: rgb(169 169 169); fill: none" x1="-8.5" x2="-13.97544043870317" y1="51" y2="38.10662111344095"/>
<line style="stroke-width: 1; stroke: rgb(169 169 169); fill: none" x1="-19.00701139355187" x2="-13.97544043870317" y1="51.17960703236841" y2="38.10662111344095"/>
<line style="stroke-width: 1; stroke: rgb(169 169 169); fill: none" x1="-13.97544043870317" x2="0.6100496356927358" y1="38.10662111344095" y2="35.3822879881789"/>
<line style="stroke-width: 1; stroke: rgb(169 169 169); fill: none" x1="-9.743055555555557" x2="0.6100496356927358" y1="24.75347222222222" y2="35.3822879881789"/>
<line style="stroke-width: 1; stroke: rgb(169 169 169); fill: none" x1="15" x2="0.6100496356927358" y1="39" y2="35.3822879881789"/>
<line style="stroke-width: 1; stroke: rgb(169 169 169); fill: none" x1="0.6100496356927358" x2="4.046946627919995" y1="35.3822879881789" y2="21.67786266523666"/>
<line style="stroke-width: 1; stroke: rgb(169 169 169); fill: none" x1="-9.743055555555557" x2="4.046946627919995" y1="24.75347222222222" y2="21.67786266523666"/>
<line style="stroke-width: 1; stroke: rgb(169 169 169); fill: none" x1="12" x2="4.046946627919995" y1="10" y2="21.67786266523666"/>
<line style="stroke-width: 1; stroke: rgb(169 169 169); fill: none" x1="38.165769075515236" x2="50.35006800622789" y1="26.606144819560466" y2="30.70314029816032"/>
<line style="stroke-width: 1; stroke: rgb(169 169 169); fill: none" x1="46.34587608484059" x2="37.883339001249546" y1="42.85407527839576" y2="43.27788818431019"/>
<line style="stroke-width: 1; stroke: rgb(169 169 169); fill: none" x1="37.883339001249546" x2="34.00233713118395" y1="43.27788818431019" y2="50.273464322543866"/>
<line style="stroke-width: 1; stroke: rgb(169 169 169); fill: none" x1="34.09332326028871" x2="37.131777326380295" y1="-8.373858410324523" y2="-19.637394721176364"/>
<line style="stroke-width: 1; stroke: rgb(169 169 169); fill: none" x1="48.41377307339108" x2="55.7613509385128" y1="-22.180704977804886" y2="-7.705445935126919"/>
<line style="stroke-width: 1; stroke: rgb(169 169 169); fill: none" x1="55.7613509385128" x2="40.09577742321669" y1="-7.705445935126919" y2="-1.5480452654900612"/>
<line style="stroke-width: 1; stroke: rgb(169 169 169); fill: none" x1="44.52980447997328" x2="37.131777326380295" y1="-11.287282968978392" y2="-19.637394721176364"/>
<line style="stroke-width: 1; stroke: rgb(169 169 169); fill: none" x1="27.2841938552613" x2="37.131777326380295" y1="-14.395231826069253" y2="-19.637394721176364"/>
<line style="stroke-width: 1; stroke: rgb(169 169 169); fill: none" x1="33" x2="37.131777326380295" y1="-30" y2="-19.637394721176364"/>
<line style="stroke-width: 1; stroke: rgb(169 169 169); fill: none" x1="48.82217557527987" x2="44.632272885599996" y1="-39.972128780937005" y2="-33.14011063110877"/>
<line style="stroke-width: 1; stroke: rgb(169 169 169); fill: none" x1="48.82217557527987" x2="52.64435115055974" y1="-39.972128780937005" y2="-32.94425756187401"/>
<line style="stroke-width: 1; stroke: rgb(169 169 169); fill: none" x1="15.629870129870131" x2="21.344500726871004" y1="-26.242424242424242" y2="-37.903485172837634"/>
<line style="stroke-width: 1; stroke: rgb(169 169 169); fill: none" x1="15.5" x2="21.344500726871004" y1="-49.5" y2="-37.903485172837634"/>
<line style="stroke-width: 1; stroke: rgb(169 169 169); fill: none" x1="29.057147121649102" x2="21.344500726871004" y1="-48.351089226978885" y2="-37.903485172837634"/>
<line style="stroke-width: 1; stroke: rgb(169 169 169); fill: none" x1="-2" x2="-0.4586941616722786" y1="-24" y2="-33.50688430638795"/>
<line style="stroke-width: 1; stroke: rgb(169 169 169); fill: none" x1="-5" x2="-0.4586941616722786" y1="-42" y2="-33.50688430638795"/>
<line style="stroke-width: 1; stroke: rgb(169 169 169); fill: none" x1="8.14763634863251" x2="-0.4586941616722786" y1="-37.829793980404474" y2="-33.50688430638795"/>
<line style="stroke-width: 1; stroke: rgb(169 169 169); fill: none" x1="0.6100496356927358" x2="7.497662868816045" y1="35.3822879881789" y2="50.72653567745614"/>
<line style="stroke-width: 1; stroke: rgb(169 169 169); fill: none" x1="7.497662868816045" x2="-8.5" y1="50.72653567745614" y2="51"/>
<line style="stroke-width: 1; stroke: rgb(169 169 169); fill: none" x1="28.531135531135533" x2="38.165769075515236" y1="22.945054945054945" y2="26.606144819560466"/>
<line style="stroke-width: 1; stroke: rgb(169 169 169); fill: none" x1="46.8684506733335" x2="38.165769075515236" y1="21.08409125130447" y2="26.606144819560466"/>
<line style="stroke-width: 1; stroke: rgb(169 169 169); fill: none" x1="41.76403497627709" x2="38.165769075515236" y1="36.26441718635091" y2="26.606144819560466"/>
<line style="stroke-width: 1; stroke: rgb(169 169 169); fill: none" x1="-35.004674262367914" x2="-43.157644458643084" y1="51.45307135491227" y2="42.57268594695583"/>
<line style="stroke-width: 1; stroke: rgb(169 169 169); fill: none" x1="-51.00233713118395" x2="-43.157644458643084" y1="51.726535677456134" y2="42.57268594695583"/>
<line style="stroke-width: 1; stroke: rgb(169 169 169); fill: none" x1="-49.975941155026725" x2="-43.157644458643084" y1="32.630704344916886" y2="42.57268594695583"/>
<line style="stroke-width: 1; stroke: rgb(169 169 169); fill: none" x1="-13.97544043870317" x2="-20.350491957802113" y1="38.10662111344095" y2="28.738680543553333"/>
<line style="stroke-width: 1; stroke: rgb(169 169 169); fill: none" x1="-35" x2="-20.350491957802113" y1="32" y2="28.738680543553333"/>
<line style="stroke-width: 1; stroke: rgb(169 169 169); fill: none" x1="-25.20528475659121" x2="-20.350491957802113" y1="18.5" y2="28.738680543553333"/>
<line style="stroke-width: 1; stroke: rgb(169 169 169); fill: none" x1="-25.20528475659121" x2="-21.33633348414665" y1="18.5" y2="5.389740788596237"/>
<line style="stroke-width: 1; stroke: rgb(169 169 169); fill: none" x1="-35" x2="-21.33633348414665" y1="5" y2="5.389740788596237"/>
<line style="stroke-width: 1; stroke: rgb(169 169 169); fill: none" x1="-24.998406284250954" x2="-12.66252265804958" y1="-3.243886283118054" y2="1.302428118984908"/>
<line style="stroke-width: 1; stroke: rgb(169 169 169); fill: none" x1="-30" x2="-31.64714189324387" y1="-25" y2="-9.857856982207311"/>
<line style="stroke-width: 1; stroke: rgb(169 169 169); fill: none" x1="-25.66058357185399" x2="-24.998406284250954" y1="-16.867305688487363" y2="-3.243886283118054"/>
<line style="stroke-width: 1; stroke: rgb(169 169 169); fill: none" x1="-35" x2="-31.64714189324387" y1="5" y2="-9.857856982207311"/>
<line style="stroke-width: 1; stroke: rgb(169 169 169); fill: none" x1="-16.609422492401215" x2="-16.7467133573189" y1="-7.436170212765958" y2="-19.21553257271248"/>
<line style="stroke-width: 1; stroke: rgb(169 169 169); fill: none" x1="-30" x2="-16.7467133573189" y1="-25" y2="-19.21553257271248"/>
<line style="stroke-width: 1; stroke: rgb(169 169 169); fill: none" x1="-15.76946107784431" x2="-16.7467133573189" y1="-30.95508982035928" y2="-19.21553257271248"/>
<line style="stroke-width: 1; stroke: rgb(169 169 169); fill: none" x1="-2" x2="7.2910380061115365" y1="-24" y2="-21.378105503565063"/>
<line style="stroke-width: 1; stroke: rgb(169 169 169); fill: none" x1="15.629870129870131" x2="7.2910380061115365" y1="-26.242424242424242" y2="-21.378105503565063"/>
<line style="stroke-width: 1; stroke: rgb(169 169 169); fill: none" x1="5" x2="7.2910380061115365" y1="-12" y2="-21.378105503565063"/>
<line style="stroke-width: 1; stroke: rgb(169 169 169); fill: none" x1="27.2841938552613" x2="16.179271047246097" y1="-14.395231826069253" y2="-14.71328861920006"/>
<line style="stroke-width: 1; stroke: rgb(169 169 169); fill: none" x1="16.72566371681416" x2="16.179271047246097" y1="-3.6172566371681416" y2="-14.71328861920006"/>
<line style="stroke-width: 1; stroke: rgb(169 169 169); fill: none" x1="7.2910380061115365" x2="16.179271047246097" y1="-21.378105503565063" y2="-14.71328861920006"/>
<line style="stroke-width: 1; stroke: rgb(169 169 169); fill: none" x1="21.8856761324335" x2="20.49995491601909" y1="43.55135250685405" y2="30.61607681306083"/>
<line style="stroke-width: 1; stroke: rgb(169 169 169); fill: none" x1="28.531135531135533" x2="29.309319407896417" y1="22.945054945054945" y2="35.405102740323045"/>
<line style="stroke-width: 1; stroke: rgb(169 169 169); fill: none" x1="41.76403497627709" x2="29.309319407896417" y1="36.26441718635091" y2="35.405102740323045"/>
<line style="stroke-width: 1; stroke: rgb(169 169 169); fill: none" x1="21.8856761324335" x2="29.309319407896417" y1="43.55135250685405" y2="35.405102740323045"/>
<line style="stroke-width: 1; stroke: rgb(169 169 169); fill: none" x1="26.00350569677594" x2="18.004674262367914" y1="50.410196483815795" y2="50.54692864508773"/>
<line style="stroke-width: 1; stroke: rgb(169 169 169); fill: none" x1="4.046946627919995" x2="16.331204122594407" y1="21.67786266523666" y2="21.496801134309806"/>
<line style="stroke-width: 1; stroke: rgb(169 169 169); fill: none" x1="12" x2="16.331204122594407" y1="10" y2="21.496801134309806"/>
<line style="stroke-width: 1; stroke: rgb(169 169 169); fill: none" x1="28.531135531135533" x2="16.331204122594407" y1="22.945054945054945" y2="21.496801134309806"/>
<line style="stroke-width: 1; stroke: rgb(169 169 169); fill: none" x1="12" x2="23.703310956229245" y1="10" y2="12.0824496515158"/>
<line style="stroke-width: 1; stroke: rgb(169 169 169); fill: none" x1="30" x2="23.703310956229245" y1="2" y2="12.0824496515158"/>
<line style="stroke-width: 1; stroke: rgb(169 169 169); fill: none" x1="28.531135531135533" x2="23.703310956229245" y1="22.945054945054945" y2="12.0824496515158"/>
<line style="stroke-width: 1; stroke: rgb(169 169 169); fill: none" x1="30" x2="41.20186154326284" y1="2" y2="9.09572873175734"/>
<line style="stroke-width: 1; stroke: rgb(169 169 169); fill: none" x1="53.37573715248526" x2="41.20186154326284" y1="3.839511373209773" y2="9.09572873175734"/>
<line style="stroke-width: 1; stroke: rgb(169 169 169); fill: none" x1="46.8684506733335" x2="41.20186154326284" y1="21.08409125130447" y2="9.09572873175734"/>
<line style="stroke-width: 1; stroke: rgb(169 169 169); fill: none" x1="57.15774906038094" x2="53.37573715248526" y1="21.51902524274886" y2="3.839511373209773"/>
<line style="stroke-width: 1; stroke: rgb(169 169 169); fill: none" x1="67.28018639047338" x2="63" y1="23.415097860810192" y2="30"/>
<line style="stroke-width: 1; stroke: rgb(169 169 169); fill: none" x1="-13.97544043870317" x2="-26.18898373914166" y1="38.10662111344095" y2="40.910611269640135"/>
<line style="stroke-width: 1; stroke: rgb(169 169 169); fill: none" x1="-19.00701139355187" x2="-26.18898373914166" y1="51.17960703236841" y2="40.910611269640135"/>
<line style="stroke-width: 1; stroke: rgb(169 169 169); fill: none" x1="-35" x2="-26.18898373914166" y1="32" y2="40.910611269640135"/>
<line style="stroke-width: 1; stroke: rgb(169 169 169); fill: none" x1="-21.33633348414665" x2="-11.032331709427561" y1="5.389740788596237" y2="12.372999061624288"/>
<line style="stroke-width: 1; stroke: rgb(169 169 169); fill: none" x1="-3.178689883373975" x2="-11.032331709427561" y1="2.715946781073537" y2="12.372999061624288"/>
<line style="stroke-width: 1; stroke: rgb(169 169 169); fill: none" x1="-9.743055555555557" x2="-11.032331709427561" y1="24.75347222222222" y2="12.372999061624288"/>
<line style="stroke-width: 1; stroke: rgb(169 169 169); fill: none" x1="-21.33633348414665" x2="-12.66252265804958" y1="5.389740788596237" y2="1.302428118984908"/>
<line style="stroke-width: 1; stroke: rgb(169 169 169); fill: none" x1="-16.609422492401215" x2="-12.66252265804958" y1="-7.436170212765958" y2="1.302428118984908"/>
<line style="stroke-width: 1; stroke: rgb(169 169 169); fill: none" x1="-3.178689883373975" x2="-12.66252265804958" y1="2.715946781073537" y2="1.302428118984908"/>
<line style="stroke-width: 1; stroke: rgb(169 169 169); fill: none" x1="15" x2="9.528508960783391" y1="39" y2="30.33574721582295"/>
<line style="stroke-width: 1; stroke: rgb(169 169 169); fill: none" x1="4.046946627919995" x2="9.528508960783391" y1="21.67786266523666" y2="30.33574721582295"/>
<line style="stroke-width: 1; stroke: rgb(169 169 169); fill: none" x1="16.331204122594407" x2="9.528508960783391" y1="21.496801134309806" y2="30.33574721582295"/>
<line style="stroke-width: 1; stroke: rgb(169 169 169); fill: none" x1="-8.5" x2="-5.6660791905359265" y1="51" y2="42.187197773754185"/>
<line style="stroke-width: 1; stroke: rgb(169 169 169); fill: none" x1="-13.97544043870317" x2="-5.6660791905359265" y1="38.10662111344095" y2="42.187197773754185"/>
<line style="stroke-width: 1; stroke: rgb(169 169 169); fill: none" x1="0.6100496356927358" x2="-5.6660791905359265" y1="35.3822879881789" y2="42.187197773754185"/>
<line style="stroke-width: 1; stroke: rgb(169 169 169); fill: none" x1="-13.524025932840607" x2="-15.76946107784431" y1="-44.00437258919732" y2="-30.95508982035928"/>
<line style="stroke-width: 1; stroke: rgb(169 169 169); fill: none" x1="-20.68136691855903" x2="-14" y1="-47.60007544387576" y2="-52"/>
<line style="stroke-width: 1; stroke: rgb(169 169 169); fill: none" x1="33" x2="25.20516630508044" y1="-30" y2="-24.005943859595405"/>
<line style="stroke-width: 1; stroke: rgb(169 169 169); fill: none" x1="27.2841938552613" x2="25.20516630508044" y1="-14.395231826069253" y2="-24.005943859595405"/>
<line style="stroke-width: 1; stroke: rgb(169 169 169); fill: none" x1="15.629870129870131" x2="25.20516630508044" y1="-26.242424242424242" y2="-24.005943859595405"/>
<line style="stroke-width: 1; stroke: rgb(169 169 169); fill: none" x1="52.64435115055974" x2="48.41377307339108" y1="-32.94425756187401" y2="-22.180704977804886"/>
<line style="stroke-width: 1; stroke: rgb(169 169 169); fill: none" x1="44.52980447997328" x2="48.41377307339108" y1="-11.287282968978392" y2="-22.180704977804886"/>
<line style="stroke-width: 1; stroke: rgb(169 169 169); fill: none" x1="37.131777326380295" x2="48.41377307339108" y1="-19.637394721176364" y2="-22.180704977804886"/>
<line style="stroke-width: 1; stroke: rgb(169 169 169); fill: none" x1="41.20186154326284" x2="40.09577742321669" y1="9.09572873175734" y2="-1.5480452654900612"/>
<line style="stroke-width: 1; stroke: rgb(169 169 169); fill: none" x1="30" x2="40.09577742321669" y1="2" y2="-1.5480452654900612"/>
<line style="stroke-width: 1; stroke: rgb(169 169 169); fill: none" x1="44.52980447997328" x2="40.09577742321669" y1="-11.287282968978392" y2="-1.5480452654900612"/>
<line style="stroke-width: 1; stroke: rgb(169 169 169); fill: none" x1="-20.68136691855903" x2="-19.987740377409665" y1="-47.60007544387576" y2="-39.27393872071794"/>
<line style="stroke-width: 1; stroke: rgb(169 169 169); fill: none" x1="-15.76946107784431" x2="-19.987740377409665" y1="-30.95508982035928" y2="-39.27393872071794"/>
<line style="stroke-width: 1; stroke: rgb(169 169 169); fill: none" x1="-26.25468013352549" x2="-19.987740377409665" y1="-33.748439955491506" y2="-39.27393872071794"/>
<line style="stroke-width: 1; stroke: rgb(169 169 169); fill: none" x1="-14" x2="-13.524025932840607" y1="-52" y2="-44.00437258919732"/>
<line style="stroke-width: 1; stroke: rgb(169 169 169); fill: none" x1="-5" x2="-13.524025932840607" y1="-42" y2="-44.00437258919732"/>
<line style="stroke-width: 1; stroke: rgb(169 169 169); fill: none" x1="-19.987740377409665" x2="-13.524025932840607" y1="-39.27393872071794" y2="-44.00437258919732"/>
<line style="stroke-width: 1; stroke: rgb(169 169 169); fill: none" x1="-44.97596153846154" x2="-35.09062314752638" y1="18.5" y2="15.368951946238111"/>
<line style="stroke-width: 1; stroke: rgb(169 169 169); fill: none" x1="-35" x2="-35.09062314752638" y1="5" y2="15.368951946238111"/>
<line style="stroke-width: 1; stroke: rgb(169 169 169); fill: none" x1="-25.20528475659121" x2="-35.09062314752638" y1="18.5" y2="15.368951946238111"/>
<line style="stroke-width: 1; stroke: rgb(169 169 169); fill: none" x1="67.28018639047338" x2="63.46892738776236" y1="23.415097860810192" y2="11.39629115554678"/>
<line style="stroke-width: 1; stroke: rgb(169 169 169); fill: none" x1="53.37573715248526" x2="63.46892738776236" y1="3.839511373209773" y2="11.39629115554678"/>
<line style="stroke-width: 1; stroke: rgb(169 169 169); fill: none" x1="76" x2="63.46892738776236" y1="10" y2="11.39629115554678"/>
<line style="stroke-width: 1; stroke: rgb(169 169 169); fill: none" x1="54.35990680476331" x2="50.35006800622789" y1="43.292451069594904" y2="30.70314029816032"/>
<line style="stroke-width: 1; stroke: rgb(169 169 169); fill: none" x1="58.719813609526625" x2="54.35990680476331" y1="36.58490213918981" y2="43.292451069594904"/>
<line style="stroke-width: 1; stroke: rgb(169 169 169); fill: none" x1="63.46892738776236" x2="68.35564884944026" y1="11.39629115554678" y2="-4.055742438125987"/>
<line style="stroke-width: 1; stroke: rgb(169 169 169); fill: none" x1="68.35564884944026" x2="76" y1="-4.055742438125987" y2="10"/>
<line style="stroke-width: 1; stroke: rgb(169 169 169); fill: none" x1="16.72566371681416" x2="7.13411743441605" y1="-3.6172566371681416" y2="0.6827552704257034"/>
<line style="stroke-width: 1; stroke: rgb(169 169 169); fill: none" x1="12" x2="7.13411743441605" y1="10" y2="0.6827552704257034"/>
<line style="stroke-width: 1; stroke: rgb(169 169 169); fill: none" x1="-3.178689883373975" x2="7.13411743441605" y1="2.715946781073537" y2="0.6827552704257034"/>
<line style="stroke-width: 1; stroke: rgb(169 169 169); fill: none" x1="-11.032331709427561" x2="-0.8044176687370275" y1="12.372999061624288" y2="12.668865655241879"/>
<line style="stroke-width: 1; stroke: rgb(169 169 169); fill: none" x1="-3.178689883373975" x2="-0.8044176687370275" y1="2.715946781073537" y2="12.668865655241879"/>
<line style="stroke-width: 1; stroke: rgb(169 169 169); fill: none" x1="4.046946627919995" x2="-0.8044176687370275" y1="21.67786266523666" y2="12.668865655241879"/>
<line style="stroke-width: 1; stroke: rgb(169 169 169); fill: none" x1="27.2841938552613" x2="25.417221187824254" y1="-14.395231826069253" y2="-5.663427836702634"/>
<line style="stroke-width: 1; stroke: rgb(169 169 169); fill: none" x1="30" x2="25.417221187824254" y1="2" y2="-5.663427836702634"/>
<line style="stroke-width: 1; stroke: rgb(169 169 169); fill: none" x1="16.72566371681416" x2="25.417221187824254" y1="-3.6172566371681416" y2="-5.663427836702634"/>
<line style="stroke-width: 1; stroke: rgb(169 169 169); fill: none" x1="-59.92753348047667" x2="-47.435362689718154" y1="6.618339833058625" y2="6.246681807332152"/>
<line style="stroke-width: 1; stroke: rgb(169 169 169); fill: none" x1="-35" x2="-47.435362689718154" y1="5" y2="6.246681807332152"/>
<line style="stroke-width: 1; stroke: rgb(169 169 169); fill: none" x1="-44.97596153846154" x2="-47.435362689718154" y1="18.5" y2="6.246681807332152"/>
<line style="stroke-width: 1; stroke: rgb(169 169 169); fill: none" x1="-51.00233713118395" x2="-55.42159944934511" y1="51.726535677456134" y2="41.913501550370775"/>
<line style="stroke-width: 1; stroke: rgb(169 169 169); fill: none" x1="-64.53623325976167" x2="-55.42159944934511" y1="36.190830083470686" y2="41.913501550370775"/>
<line style="stroke-width: 1; stroke: rgb(169 169 169); fill: none" x1="-49.975941155026725" x2="-55.42159944934511" y1="32.630704344916886" y2="41.913501550370775"/>
<line style="stroke-width: 1; stroke: rgb(169 169 169); fill: none" x1="37.028573560824555" x2="32.456410885144884" y1="-47.67554461348945" y2="-41.09321333834912"/>
<line style="stroke-width: 1; stroke: rgb(169 169 169); fill: none" x1="37.028573560824555" x2="45" y1="-47.67554461348945" y2="-47"/>
<line style="stroke-width: 1; stroke: rgb(169 169 169); fill: none" x1="-47.435362689718154" x2="-44.48114975028485" y1="6.246681807332152" y2="-6.648457837295111"/>
<line style="stroke-width: 1; stroke: rgb(169 169 169); fill: none" x1="-57.46376674023834" x2="-44.48114975028485" y1="-9.190830083470688" y2="-6.648457837295111"/>
<line style="stroke-width: 1; stroke: rgb(169 169 169); fill: none" x1="-31.64714189324387" x2="-44.48114975028485" y1="-9.857856982207311" y2="-6.648457837295111"/>
<line style="stroke-width: 1; stroke: rgb(169 169 169); fill: none" x1="-63.46376674023834" x2="-52.987366676115855" y1="29.309169916529306" y2="23.61520420865957"/>
<line style="stroke-width: 1; stroke: rgb(169 169 169); fill: none" x1="-63.46376674023834" x2="-62.23188337011917" y1="29.309169916529306" y2="21.404584958264657"/>
<line style="stroke-width: 1; stroke: rgb(169 169 169); fill: none" x1="26.00350569677594" x2="29.884231433628283" y1="50.410196483815795" y2="43.39846655260752"/>
<line style="stroke-width: 1; stroke: rgb(169 169 169); fill: none" x1="29.309319407896417" x2="29.884231433628283" y1="35.405102740323045" y2="43.39846655260752"/>
<line style="stroke-width: 1; stroke: rgb(169 169 169); fill: none" x1="34.00233713118395" x2="29.884231433628283" y1="50.273464322543866" y2="43.39846655260752"/>
<line style="stroke-width: 1; stroke: rgb(169 169 169); fill: none" x1="63.46892738776236" x2="57.15774906038094" y1="11.39629115554678" y2="21.51902524274886"/>
<line style="stroke-width: 1; stroke: rgb(169 169 169); fill: none" x1="67.28018639047338" x2="57.15774906038094" y1="23.415097860810192" y2="21.51902524274886"/>
<line style="stroke-width: 1; stroke: rgb(169 169 169); fill: none" x1="46.8684506733335" x2="57.15774906038094" y1="21.08409125130447" y2="21.51902524274886"/>
<line style="stroke-width: 1; stroke: rgb(169 169 169); fill: none" x1="58.719813609526625" x2="50.35006800622789" y1="36.58490213918981" y2="30.70314029816032"/>
<line style="stroke-width: 1; stroke: rgb(169 169 169); fill: none" x1="41.76403497627709" x2="50.35006800622789" y1="36.26441718635091" y2="30.70314029816032"/>
<line style="stroke-width: 1; stroke: rgb(169 169 169); fill: none" x1="46.8684506733335" x2="50.35006800622789" y1="21.08409125130447" y2="30.70314029816032"/>
<line style="stroke-width: 1; stroke: rgb(169 169 169); fill: none" x1="18.004674262367914" x2="21.8856761324335" y1="50.54692864508773" y2="43.55135250685405"/>
<line style="stroke-width: 1; stroke: rgb(169 169 169); fill: none" x1="15" x2="21.8856761324335" y1="39" y2="43.55135250685405"/>
<line style="stroke-width: 1; stroke: rgb(169 169 169); fill: none" x1="29.884231433628283" x2="21.8856761324335" y1="43.39846655260752" y2="43.55135250685405"/>
<line style="stroke-width: 1; stroke: rgb(169 169 169); fill: none" x1="48.82217557527987" x2="40.38718549853602" y1="-39.972128780937005" y2="-39.937977180604975"/>
<line style="stroke-width: 1; stroke: rgb(169 169 169); fill: none" x1="33" x2="40.38718549853602" y1="-30" y2="-39.937977180604975"/>
<line style="stroke-width: 1; stroke: rgb(169 169 169); fill: none" x1="37.028573560824555" x2="40.38718549853602" y1="-47.67554461348945" y2="-39.937977180604975"/>
<line style="stroke-width: 1; stroke: rgb(169 169 169); fill: none" x1="-42.5" x2="-56.23188337011917" y1="-20.564222469491646" y2="-17.095415041735343"/>
<line style="stroke-width: 1; stroke: rgb(169 169 169); fill: none" x1="-56.23188337011917" x2="-55" y1="-17.095415041735343" y2="-25"/>
<line style="stroke-width: 1; stroke: rgb(169 169 169); fill: none" x1="-47.435362689718154" x2="-53.5414546148283" y1="6.246681807332152" y2="11.137971806203605"/>
<line style="stroke-width: 1; stroke: rgb(169 169 169); fill: none" x1="-44.97596153846154" x2="-53.5414546148283" y1="18.5" y2="11.137971806203605"/>
<line style="stroke-width: 1; stroke: rgb(169 169 169); fill: none" x1="-61" x2="-53.5414546148283" y1="13.5" y2="11.137971806203605"/>
<line style="stroke-width: 1; stroke: rgb(169 169 169); fill: none" x1="-63.46376674023834" x2="-57.41108739799722" y1="29.309169916529306" y2="33.77684352239004"/>
<line style="stroke-width: 1; stroke: rgb(169 169 169); fill: none" x1="-49.975941155026725" x2="-57.41108739799722" y1="32.630704344916886" y2="33.77684352239004"/>
<line style="stroke-width: 1; stroke: rgb(169 169 169); fill: none" x1="-64.53623325976167" x2="-57.41108739799722" y1="36.190830083470686" y2="33.77684352239004"/>
<line style="stroke-width: 1; stroke: rgb(169 169 169); fill: none" x1="-53.5414546148283" x2="-52.987366676115855" y1="11.137971806203605" y2="23.61520420865957"/>
<line style="stroke-width: 1; stroke: rgb(169 169 169); fill: none" x1="-62.23188337011917" x2="-61" y1="21.404584958264657" y2="13.5"/>
<line style="stroke-width: 1; stroke: rgb(169 169 169); fill: none" x1="-35" x2="-42.70108988134257" y1="32" y2="27.254879418672356"/>
<line style="stroke-width: 1; stroke: rgb(169 169 169); fill: none" x1="-49.975941155026725" x2="-42.70108988134257" y1="32.630704344916886" y2="27.254879418672356"/>
<line style="stroke-width: 1; stroke: rgb(169 169 169); fill: none" x1="-44.97596153846154" x2="-42.70108988134257" y1="18.5" y2="27.254879418672356"/>
<line style="stroke-width: 1; stroke: rgb(169 169 169); fill: none" x1="29.309319407896417" x2="20.49995491601909" y1="35.405102740323045" y2="30.61607681306083"/>
<line style="stroke-width: 1; stroke: rgb(169 169 169); fill: none" x1="15" x2="20.49995491601909" y1="39" y2="30.61607681306083"/>
<line style="stroke-width: 1; stroke: rgb(169 169 169); fill: none" x1="16.331204122594407" x2="20.49995491601909" y1="21.496801134309806" y2="30.61607681306083"/>
<line style="stroke-width: 1; stroke: rgb(169 169 169); fill: none" x1="42.00116856559198" x2="46.34587608484059" y1="50.13673216127194" y2="42.85407527839576"/>
<line style="stroke-width: 1; stroke: rgb(169 169 169); fill: none" x1="42.00116856559198" x2="34.00233713118395" y1="50.13673216127194" y2="50.273464322543866"/>
<line style="stroke-width: 1; stroke: rgb(169 169 169); fill: none" x1="53.37573715248526" x2="55.7613509385128" y1="3.839511373209773" y2="-7.705445935126919"/>
<line style="stroke-width: 1; stroke: rgb(169 169 169); fill: none" x1="44.52980447997328" x2="55.7613509385128" y1="-11.287282968978392" y2="-7.705445935126919"/>
<line style="stroke-width: 1; stroke: rgb(169 169 169); fill: none" x1="60.5" x2="55.7613509385128" y1="-18.5" y2="-7.705445935126919"/>
<line style="stroke-width: 1; stroke: rgb(169 169 169); fill: none" x1="27.2841938552613" x2="34.09332326028871" y1="-14.395231826069253" y2="-8.373858410324523"/>
<line style="stroke-width: 1; stroke: rgb(169 169 169); fill: none" x1="44.52980447997328" x2="34.09332326028871" y1="-11.287282968978392" y2="-8.373858410324523"/>
<line style="stroke-width: 1; stroke: rgb(169 169 169); fill: none" x1="40.09577742321669" x2="34.09332326028871" y1="-1.5480452654900612" y2="-8.373858410324523"/>
<line style="stroke-width: 1; stroke: rgb(169 169 169); fill: none" x1="40.38718549853602" x2="44.632272885599996" y1="-39.937977180604975" y2="-33.14011063110877"/>
<line style="stroke-width: 1; stroke: rgb(169 169 169); fill: none" x1="52.64435115055974" x2="44.632272885599996" y1="-32.94425756187401" y2="-33.14011063110877"/>
<line style="stroke-width: 1; stroke: rgb(169 169 169); fill: none" x1="48.41377307339108" x2="44.632272885599996" y1="-22.180704977804886" y2="-33.14011063110877"/>
<line style="stroke-width: 1; stroke: rgb(169 169 169); fill: none" x1="-31.64714189324387" x2="-24.998406284250954" y1="-9.857856982207311" y2="-3.243886283118054"/>
<line style="stroke-width: 1; stroke: rgb(169 169 169); fill: none" x1="-16.609422492401215" x2="-24.998406284250954" y1="-7.436170212765958" y2="-3.243886283118054"/>
<line style="stroke-width: 1; stroke: rgb(169 169 169); fill: none" x1="-21.33633348414665" x2="-24.998406284250954" y1="5.389740788596237" y2="-3.243886283118054"/>
<line style="stroke-width: 1; stroke: rgb(169 169 169); fill: none" x1="-31.64714189324387" x2="-25.66058357185399" y1="-9.857856982207311" y2="-16.867305688487363"/>
<line style="stroke-width: 1; stroke: rgb(169 169 169); fill: none" x1="-30" x2="-25.66058357185399" y1="-25" y2="-16.867305688487363"/>
<line style="stroke-width: 1; stroke: rgb(169 169 169); fill: none" x1="-16.7467133573189" x2="-25.66058357185399" y1="-19.21553257271248" y2="-16.867305688487363"/>
<line style="stroke-width: 1; stroke: rgb(169 169 169); fill: none" x1="41.20186154326284" x2="33.104465952435326" y1="9.09572873175734" y2="14.408311094395177"/>
<line style="stroke-width: 1; stroke: rgb(169 169 169); fill: none" x1="28.531135531135533" x2="33.104465952435326" y1="22.945054945054945" y2="14.408311094395177"/>
<line style="stroke-width: 1; stroke: rgb(169 169 169); fill: none" x1="23.703310956229245" x2="33.104465952435326" y1="12.0824496515158" y2="14.408311094395177"/>
<line style="stroke-width: 1; stroke: rgb(169 169 169); fill: none" x1="46.34587608484059" x2="50.35006800622789" y1="42.85407527839576" y2="30.70314029816032"/>
<line style="stroke-width: 1; stroke: rgb(169 169 169); fill: none" x1="54.35990680476331" x2="50" y1="43.292451069594904" y2="50"/>
<line style="stroke-width: 1; stroke: rgb(169 169 169); fill: none" x1="-62.23188337011917" x2="-52.987366676115855" y1="21.404584958264657" y2="23.61520420865957"/>
<line style="stroke-width: 1; stroke: rgb(169 169 169); fill: none" x1="-44.97596153846154" x2="-52.987366676115855" y1="18.5" y2="23.61520420865957"/>
<line style="stroke-width: 1; stroke: rgb(169 169 169); fill: none" x1="-49.975941155026725" x2="-52.987366676115855" y1="32.630704344916886" y2="23.61520420865957"/>
<line style="stroke-width: 1; stroke: rgb(169 169 169); fill: none" x1="29.884231433628283" x2="37.883339001249546" y1="43.39846655260752" y2="43.27788818431019"/>
<line style="stroke-width: 1; stroke: rgb(169 169 169); fill: none" x1="41.76403497627709" x2="37.883339001249546" y1="36.26441718635091" y2="43.27788818431019"/>
<line style="stroke-width: 1; stroke: rgb(169 169 169); fill: none" x1="42.00116856559198" x2="37.883339001249546" y1="50.13673216127194" y2="43.27788818431019"/>
<line style="stroke-width: 1; stroke: rgb(169 169 169); fill: none" x1="40.38718549853602" x2="32.456410885144884" y1="-39.937977180604975" y2="-41.09321333834912"/>
<line style="stroke-width: 1; stroke: rgb(169 169 169); fill: none" x1="33" x2="32.456410885144884" y1="-30" y2="-41.09321333834912"/>
<line style="stroke-width: 1; stroke: rgb(169 169 169); fill: none" x1="29.057147121649102" x2="32.456410885144884" y1="-48.351089226978885" y2="-41.09321333834912"/>
<line style="stroke-width: 1; stroke: rgb(169 169 169); fill: none" x1="50" x2="46.34587608484059" y1="50" y2="42.85407527839576"/>
<line style="stroke-width: 1; stroke: rgb(169 169 169); fill: none" x1="41.76403497627709" x2="46.34587608484059" y1="36.26441718635091" y2="42.85407527839576"/>
<line style="stroke-width: 1; stroke: rgb(169 169 169); fill: none" x1="54.35990680476331" x2="46.34587608484059" y1="43.292451069594904" y2="42.85407527839576"/>
<circle cx="15" cy="39" r="0.4" style="stroke-width: 0.5; stroke: rgb(0 0 0); fill: rgb(105 105 105)"/>
<circle cx="-5" cy="-42" r="0.4" style="stroke-width: 0.5; stroke: rgb(0 0 0); fill: rgb(105 105 105)"/>
<circle cx="30" cy="2" r="0.4" style="stroke-width: 0.5; stroke: rgb(0 0 0); fill: rgb(105 105 105)"/>
<circle cx="5" cy="-12" r="0.4" style="stroke-width: 0.5; stroke: rgb(0 0 0); fill: rgb(105 105 105)"/>
<circle cx="-35" cy="32" r="0.4" style="stroke-width: 0.5; stroke: rgb(0 0 0); fill: rgb(105 105 105)"/>
<circle cx="-2" cy="-24" r="0.4" style="stroke-width: 0.5; stroke: rgb(0 0 0); fill: rgb(105 105 105)"/>
<circle cx="-67" cy="52" r="0.4" style="stroke-width: 0.5; stroke: rgb(0 0 0); fill: rgb(105 105 105)"/>
<circle cx="-14" cy="-52" r="0.4" style="stroke-width: 0.5; stroke: rgb(0 0 0); fill: rgb(105 105 105)"/>
<circle cx="76" cy="10" r="0.4" style="stroke-width: 0.5; stroke: rgb(0 0 0); fill: rgb(105 105 105)"/>
<circle cx="12" cy="10" r="0.4" style="stroke-width: 0.5; stroke: rgb(0 0 0); fill: rgb(105 105 105)"/>
<circle cx="-35" cy="5" r="0.4" style="stroke-width: 0.5; stroke: rgb(0 0 0); fill: rgb(105 105 105)"/>
<circle cx="33" cy="-30" r="0.4" style="stroke-width: 0.5; stroke: rgb(0 0 0); fill: rgb(105 105 105)"/>
<circle cx="-30" cy="-25" r="0.4" style="stroke-width: 0.5; stroke: rgb(0 0 0); fill: rgb(105 105 105)"/>
<circle cx="-55" cy="-25" r="0.4" style="stroke-width: 0.5; stroke: rgb(0 0 0); fill: rgb(105 105 105)"/>
<circle cx="50" cy="50" r="0.4" style="stroke-width: 0.5; stroke: rgb(0 0 0); fill: rgb(105 105 105)"/>
<circle cx="45" cy="-47" r="0.4" style="stroke-width: 0.5; stroke: rgb(0 0 0); fill: rgb(105 105 105)"/>
<circle cx="-34.5" cy="-38.5" r="0.4" style="stroke-width: 0.5; stroke: rgb(0 0 0); fill: rgb(105 105 105)"/>
<circle cx="-61" cy="13.5" r="0.4" style="stroke-width: 0.5; stroke: rgb(0 0 0); fill: rgb(105 105 105)"/>
<circle cx="-8.5" cy="51" r="0.4" style="stroke-width: 0.5; stroke: rgb(0 0 0); fill: rgb(105 105 105)"/>
<circle cx="60.5" cy="-18.5" r="0.4" style="stroke-width: 0.5; stroke: rgb(0 0 0); fill: rgb(105 105 105)"/>
<circle cx="15.5" cy="-49.5" r="0.4" style="stroke-width: 0.5; stroke: rgb(0 0 0); fill: rgb(105 105 105)"/>
<circle cx="18.004674262367914" cy="50.54692864508773" r="0.4" style="stroke-width: 0.5; stroke: rgb(0 0 0); fill: rgb(105 105 105)"/>
<circle cx="-35.004674262367914" cy="51.45307135491227" r="0.4" style="stroke-width: 0.5; stroke: rgb(0 0 0); fill: rgb(105 105 105)"/>
<circle cx="1.9428528783509016" cy="-50.648910773021115" r="0.4" style="stroke-width: 0.5; stroke: rgb(0 0 0); fill: rgb(105 105 105)"/>
<circle cx="-16.609422492401215" cy="-7.436170212765958" r="0.4" style="stroke-width: 0.5; stroke: rgb(0 0 0); fill: rgb(105 105 105)"/>
<circle cx="15.629870129870131" cy="-26.242424242424242" r="0.4" style="stroke-width: 0.5; stroke: rgb(0 0 0); fill: rgb(105 105 105)"/>
<circle cx="28.531135531135533" cy="22.945054945054945" r="0.4" style="stroke-width: 0.5; stroke: rgb(0 0 0); fill: rgb(105 105 105)"/>
<circle cx="-9.743055555555557" cy="24.75347222222222" r="0.4" style="stroke-width: 0.5; stroke: rgb(0 0 0); fill: rgb(105 105 105)"/>
<circle cx="-27.36273383711805" cy="-43.200150887751526" r="0.4" style="stroke-width: 0.5; stroke: rgb(0 0 0); fill: rgb(105 105 105)"/>
<circle cx="27.2841938552613" cy="-14.395231826069253" r="0.4" style="stroke-width: 0.5; stroke: rgb(0 0 0); fill: rgb(105 105 105)"/>
<circle cx="-15.76946107784431" cy="-30.95508982035928" r="0.4" style="stroke-width: 0.5; stroke: rgb(0 0 0); fill: rgb(105 105 105)"/>
<circle cx="-19.00701139355187" cy="51.17960703236841" r="0.4" style="stroke-width: 0.5; stroke: rgb(0 0 0); fill: rgb(105 105 105)"/>
<circle cx="-25.20528475659121" cy="18.5" r="0.4" style="stroke-width: 0.5; stroke: rgb(0 0 0); fill: rgb(105 105 105)"/>
<circle cx="63" cy="30" r="0.4" style="stroke-width: 0.5; stroke: rgb(0 0 0); fill: rgb(105 105 105)"/>
<circle cx="53.37573715248526" cy="3.839511373209773" r="0.4" style="stroke-width: 0.5; stroke: rgb(0 0 0); fill: rgb(105 105 105)"/>
<circle cx="8.14763634863251" cy="-37.829793980404474" r="0.4" style="stroke-width: 0.5; stroke: rgb(0 0 0); fill: rgb(105 105 105)"/>
<circle cx="-3.178689883373975" cy="2.715946781073537" r="0.4" style="stroke-width: 0.5; stroke: rgb(0 0 0); fill: rgb(105 105 105)"/>
<circle cx="16.72566371681416" cy="-3.6172566371681416" r="0.4" style="stroke-width: 0.5; stroke: rgb(0 0 0); fill: rgb(105 105 105)"/>
<circle cx="-44.97596153846154" cy="18.5" r="0.4" style="stroke-width: 0.5; stroke: rgb(0 0 0); fill: rgb(105 105 105)"/>
<circle cx="-6.560753542273117" cy="-13.29789376700735" r="0.4" style="stroke-width: 0.5; stroke: rgb(0 0 0); fill: rgb(105 105 105)"/>
<circle cx="29.057147121649102" cy="-48.351089226978885" r="0.4" style="stroke-width: 0.5; stroke: rgb(0 0 0); fill: rgb(105 105 105)"/>
<circle cx="-57.46376674023834" cy="-9.190830083470688" r="0.4" style="stroke-width: 0.5; stroke: rgb(0 0 0); fill: rgb(105 105 105)"/>
<circle cx="-41.63726616288194" cy="-33.799849112248474" r="0.4" style="stroke-width: 0.5; stroke: rgb(0 0 0); fill: rgb(105 105 105)"/>
<circle cx="-64.53623325976167" cy="36.190830083470686" r="0.4" style="stroke-width: 0.5; stroke: rgb(0 0 0); fill: rgb(105 105 105)"/>
<circle cx="34.00233713118395" cy="50.273464322543866" r="0.4" style="stroke-width: 0.5; stroke: rgb(0 0 0); fill: rgb(105 105 105)"/>
<circle cx="46.8684506733335" cy="21.08409125130447" r="0.4" style="stroke-width: 0.5; stroke: rgb(0 0 0); fill: rgb(105 105 105)"/>
<circle cx="52.64435115055974" cy="-32.94425756187401" r="0.4" style="stroke-width: 0.5; stroke: rgb(0 0 0); fill: rgb(105 105 105)"/>
<circle cx="-26.25468013352549" cy="-33.748439955491506" r="0.4" style="stroke-width: 0.5; stroke: rgb(0 0 0); fill: rgb(105 105 105)"/>
<circle cx="-42.5" cy="-20.564222469491646" r="0.4" style="stroke-width: 0.5; stroke: rgb(0 0 0); fill: rgb(105 105 105)"/>
<circle cx="-59.92753348047667" cy="6.618339833058625" r="0.4" style="stroke-width: 0.5; stroke: rgb(0 0 0); fill: rgb(105 105 105)"/>
<circle cx="-51.00233713118395" cy="51.726535677456134" r="0.4" style="stroke-width: 0.5; stroke: rgb(0 0 0); fill: rgb(105 105 105)"/>
<circle cx="-49.975941155026725" cy="32.630704344916886" r="0.4" style="stroke-width: 0.5; stroke: rgb(0 0 0); fill: rgb(105 105 105)"/>
<circle cx="-13.97544043870317" cy="38.10662111344095" r="0.4" style="stroke-width: 0.5; stroke: rgb(0 0 0); fill: rgb(105 105 105)"/>
<circle cx="0.6100496356927358" cy="35.3822879881789" r="0.4" style="stroke-width: 0.5; stroke: rgb(0 0 0); fill: rgb(105 105 105)"/>
<circle cx="4.046946627919995" cy="21.67786266523666" r="0.4" style="stroke-width: 0.5; stroke: rgb(0 0 0); fill: rgb(105 105 105)"/>
<circle cx="41.76403497627709" cy="36.26441718635091" r="0.4" style="stroke-width: 0.5; stroke: rgb(0 0 0); fill: rgb(105 105 105)"/>
<circle cx="44.52980447997328" cy="-11.287282968978392" r="0.4" style="stroke-width: 0.5; stroke: rgb(0 0 0); fill: rgb(105 105 105)"/>
<circle cx="37.131777326380295" cy="-19.637394721176364" r="0.4" style="stroke-width: 0.5; stroke: rgb(0 0 0); fill: rgb(105 105 105)"/>
<circle cx="48.82217557527987" cy="-39.972128780937005" r="0.4" style="stroke-width: 0.5; stroke: rgb(0 0 0); fill: rgb(105 105 105)"/>
<circle cx="21.344500726871004" cy="-37.903485172837634" r="0.4" style="stroke-width: 0.5; stroke: rgb(0 0 0); fill: rgb(105 105 105)"/>
<circle cx="-0.4586941616722786" cy="-33.50688430638795" r="0.4" style="stroke-width: 0.5; stroke: rgb(0 0 0); fill: rgb(105 105 105)"/>
<circle cx="7.497662868816045" cy="50.72653567745614" r="0.4" style="stroke-width: 0.5; stroke: rgb(0 0 0); fill: rgb(105 105 105)"/>
<circle cx="38.165769075515236" cy="26.606144819560466" r="0.4" style="stroke-width: 0.5; stroke: rgb(0 0 0); fill: rgb(105 105 105)"/>
<circle cx="-43.157644458643084" cy="42.57268594695583" r="0.4" style="stroke-width: 0.5; stroke: rgb(0 0 0); fill: rgb(105 105 105)"/>
<circle cx="-20.350491957802113" cy="28.738680543553333" r="0.4" style="stroke-width: 0.5; stroke: rgb(0 0 0); fill: rgb(105 105 105)"/>
<circle cx="-21.33633348414665" cy="5.389740788596237" r="0.4" style="stroke-width: 0.5; stroke: rgb(0 0 0); fill: rgb(105 105 105)"/>
<circle cx="-31.64714189324387" cy="-9.857856982207311" r="0.4" style="stroke-width: 0.5; stroke: rgb(0 0 0); fill: rgb(105 105 105)"/>
<circle cx="-16.7467133573189" cy="-19.21553257271248" r="0.4" style="stroke-width: 0.5; stroke: rgb(0 0 0); fill: rgb(105 105 105)"/>
<circle cx="7.2910380061115365" cy="-21.378105503565063" r="0.4" style="stroke-width: 0.5; stroke: rgb(0 0 0); fill: rgb(105 105 105)"/>
<circle cx="16.179271047246097" cy="-14.71328861920006" r="0.4" style="stroke-width: 0.5; stroke: rgb(0 0 0); fill: rgb(105 105 105)"/>
<circle cx="29.309319407896417" cy="35.405102740323045" r="0.4" style="stroke-width: 0.5; stroke: rgb(0 0 0); fill: rgb(105 105 105)"/>
<circle cx="26.00350569677594" cy="50.410196483815795" r="0.4" style="stroke-width: 0.5; stroke: rgb(0 0 0); fill: rgb(105 105 105)"/>
<circle cx="16.331204122594407" cy="21.496801134309806" r="0.4" style="stroke-width: 0.5; stroke: rgb(0 0 0); fill: rgb(105 105 105)"/>
<circle cx="23.703310956229245" cy="12.0824496515158" r="0.4" style="stroke-width: 0.5; stroke: rgb(0 0 0); fill: rgb(105 105 105)"/>
<circle cx="41.20186154326284" cy="9.09572873175734" r="0.4" style="stroke-width: 0.5; stroke: rgb(0 0 0); fill: rgb(105 105 105)"/>
<circle cx="67.28018639047338" cy="23.415097860810192" r="0.4" style="stroke-width: 0.5; stroke: rgb(0 0 0); fill: rgb(105 105 105)"/>
<circle cx="-26.18898373914166" cy="40.910611269640135" r="0.4" style="stroke-width: 0.5; stroke: rgb(0 0 0); fill: rgb(105 105 105)"/>
<circle cx="-11.032331709427561" cy="12.372999061624288" r="0.4" style="stroke-width: 0.5; stroke: rgb(0 0 0); fill: rgb(105 105 105)"/>
<circle cx="-12.66252265804958" cy="1.302428118984908" r="0.4" style="stroke-width: 0.5; stroke: rgb(0 0 0); fill: rgb(105 105 105)"/>
<circle cx="9.528508960783391" cy="30.33574721582295" r="0.4" style="stroke-width: 0.5; stroke: rgb(0 0 0); fill: rgb(105 105 105)"/>
<circle cx="-5.6660791905359265" cy="42.187197773754185" r="0.4" style="stroke-width: 0.5; stroke: rgb(0 0 0); fill: rgb(105 105 105)"/>
<circle cx="-20.68136691855903" cy="-47.60007544387576" r="0.4" style="stroke-width: 0.5; stroke: rgb(0 0 0); fill: rgb(105 105 105)"/>
<circle cx="25.20516630508044" cy="-24.005943859595405" r="0.4" style="stroke-width: 0.5; stroke: rgb(0 0 0); fill: rgb(105 105 105)"/>
<circle cx="48.41377307339108" cy="-22.180704977804886" r="0.4" style="stroke-width: 0.5; stroke: rgb(0 0 0); fill: rgb(105 105 105)"/>
<circle cx="40.09577742321669" cy="-1.5480452654900612" r="0.4" style="stroke-width: 0.5; stroke: rgb(0 0 0); fill: rgb(105 105 105)"/>
<circle cx="-19.987740377409665" cy="-39.27393872071794" r="0.4" style="stroke-width: 0.5; stroke: rgb(0 0 0); fill: rgb(105 105 105)"/>
<circle cx="-13.524025932840607" cy="-44.00437258919732" r="0.4" style="stroke-width: 0.5; stroke: rgb(0 0 0); fill: rgb(105 105 105)"/>
<circle cx="-35.09062314752638" cy="15.368951946238111" r="0.4" style="stroke-width: 0.5; stroke: rgb(0 0 0); fill: rgb(105 105 105)"/>
<circle cx="63.46892738776236" cy="11.39629115554678" r="0.4" style="stroke-width: 0.5; stroke: rgb(0 0 0); fill: rgb(105 105 105)"/>
<circle cx="58.719813609526625" cy="36.58490213918981" r="0.4" style="stroke-width: 0.5; stroke: rgb(0 0 0); fill: rgb(105 105 105)"/>
<circle cx="68.35564884944026" cy="-4.055742438125987" r="0.4" style="stroke-width: 0.5; stroke: rgb(0 0 0); fill: rgb(105 105 105)"/>
<circle cx="7.13411743441605" cy="0.6827552704257034" r="0.4" style="stroke-width: 0.5; stroke: rgb(0 0 0); fill: rgb(105 105 105)"/>
<circle cx="-0.8044176687370275" cy="12.668865655241879" r="0.4" style="stroke-width: 0.5; stroke: rgb(0 0 0); fill: rgb(105 105 105)"/>
<circle cx="25.417221187824254" cy="-5.663427836702634" r="0.4" style="stroke-width: 0.5; stroke: rgb(0 0 0); fill: rgb(105 105 105)"/>
<circle cx="-47.435362689718154" cy="6.246681807332152" r="0.4" style="stroke-width: 0.5; stroke: rgb(0 0 0); fill: rgb(105 105 105)"/>
<circle cx="-55.42159944934511" cy="41.913501550370775" r="0.4" style="stroke-width: 0.5; stroke: rgb(0 0 0); fill: rgb(105 105 105)"/>
<circle cx="37.028573560824555" cy="-47.67554461348945" r="0.4" style="stroke-width: 0.5; stroke: rgb(0 0 0); fill: rgb(105 105 105)"/>
<circle cx="-44.48114975028485" cy="-6.648457837295111" r="0.4" style="stroke-width: 0.5; stroke: rgb(0 0 0); fill: rgb(105 105 105)"/>
<circle cx="-63.46376674023834" cy="29.309169916529306" r="0.4" style="stroke-width: 0.5; stroke: rgb(0 0 0); fill: rgb(105 105 105)"/>
<circle cx="29.884231433628283" cy="43.39846655260752" r="0.4" style="stroke-width: 0.5; stroke: rgb(0 0 0); fill: rgb(105 105 105)"/>
<circle cx="57.15774906038094" cy="21.51902524274886" r="0.4" style="stroke-width: 0.5; stroke: rgb(0 0 0); fill: rgb(105 105 105)"/>
<circle cx="50.35006800622789" cy="30.70314029816032" r="0.4" style="stroke-width: 0.5; stroke: rgb(0 0 0); fill: rgb(105 105 105)"/>
<circle cx="21.8856761324335" cy="43.55135250685405" r="0.4" style="stroke-width: 0.5; stroke: rgb(0 0 0); fill: rgb(105 105 105)"/>
<circle cx="40.38718549853602" cy="-39.937977180604975" r="0.4" style="stroke-width: 0.5; stroke: rgb(0 0 0); fill: rgb(105 105 105)"/>
<circle cx="-56.23188337011917" cy="-17.095415041735343" r="0.4" style="stroke-width: 0.5; stroke: rgb(0 0 0); fill: rgb(105 105 105)"/>
<circle cx="-53.5414546148283" cy="11.137971806203605" r="0.4" style="stroke-width: 0.5; stroke: rgb(0 0 0); fill: rgb(105 105 105)"/>
<circle cx="-57.41108739799722" cy="33.77684352239004" r="0.4" style="stroke-width: 0.5; stroke: rgb(0 0 0); fill: rgb(105 105 105)"/>
<circle cx="-62.23188337011917" cy="21.404584958264657" r="0.4" style="stroke-width: 0.5; stroke: rgb(0 0 0); fill: rgb(105 105 105)"/>
<circle cx="-42.70108988134257" cy="27.254879418672356" r="0.4" style="stroke-width: 0.5; stroke: rgb(0 0 0); fill: rgb(105 105 105)"/>
<circle cx="20.49995491601909" cy="30.61607681306083" r="0.4" style="stroke-width: 0.5; stroke: rgb(0 0 0); fill: rgb(105 105 105)"/>
<circle cx="42.00116856559198" cy="50.13673216127194" r="0.4" style="stroke-width: 0.5; stroke: rgb(0 0 0); fill: rgb(105 105 105)"/>
<circle cx="55.7613509385128" cy="-7.705445935126919" r="0.4" style="stroke-width: 0.5; stroke: rgb(0 0 0); fill: rgb(105 105 105)"/>
<circle cx="34.09332326028871" cy="-8.373858410324523" r="0.4" style="stroke-width: 0.5; stroke: rgb(0 0 0); fill: rgb(105 105 105)"/>
<circle cx="44.632272885599996" cy="-33.14011063110877" r="0.4" style="stroke-width: 0.5; stroke: rgb(0 0 0); fill: rgb(105 105 105)"/>
<circle cx="-24.998406284250954" cy="-3.243886283118054" r="0.4" style="stroke-width: 0.5; stroke: rgb(0 0 0); fill: rgb(105 105 105)"/>
<circle cx="-25.66058357185399" cy="-16.867305688487363" r="0.4" style="stroke-width: 0.5; stroke: rgb(0 0 0); fill: rgb(105 105 105)"/>
<circle cx="33.104465952435326" cy="14.408311094395177" r="0.4" style="stroke-width: 0.5; stroke: rgb(0 0 0); fill: rgb(105 105 105)"/>
<circle cx="54.35990680476331" cy="43.292451069594904" r="0.4" style="stroke-width: 0.5; stroke: rgb(0 0 0); fill: rgb(105 105 105)"/>
<circle cx="-52.987366676115855" cy="23.61520420865957" r="0.4" style="stroke-width: 0.5; stroke: rgb(0 0 0); fill: rgb(105 105 105)"/>
<circle cx="37.883339001249546" cy="43.27788818431019" r="0.4" style="stroke-width: 0.5; stroke: rgb(0 0 0); fill: rgb(105 105 105)"/>
<circle cx="32.456410885144884" cy="-41.09321333834912" r="0.4" style="stroke-width: 0.5; stroke: rgb(0 0 0); fill: rgb(105 105 105)"/>
<circle cx="46.34587608484059" cy="42.85407527839576" r="0.4" style="stroke-width: 0.5; stroke: rgb(0 0 0); fill: rgb(105 105 105)"/>
<text dy="0" font-size="10" style="fill: rgb(0 0 0)" transform="translate (-75 -20) rotate (-33.2) translate(75 20)" x="-75" y="-20">
Max area: 100
</text>
</g>
</svg>