<svg viewBox="-90.14 -62.879999999999995 181.68 125.75999999999999" width="290" xmlns="http://www.w3.org/2000/svg" xmlns:xlink="http://www.w3.org/1999/xlink">
<defs>
<pattern height="1" id="refinement_maximum_area_200_pattern0001" patternTransform="rotate(63.512 0 0) scale(2)" patternUnits="userSpaceOnUse" width="1">
<line stroke="rgb(255 255 255)" stroke-width="1.01" x1="0" x2="0" y1="-0.1" y2="1.1"/>
<line stroke="rgb(211 211 211)" stroke-width="1.01" x1="1" x2="1" y1="-0.1" y2="1.1"/>
</pattern>
</defs>
<rect height="100%" style="fill: url(#refinement_maximum_area_200_pattern0001)" width="100%" x="-90.14" y="-62.879999999999995"/>
<g>
<path d="M-2,-24 L-16.609423,-7.43617 L-15.769461,-30.95509 z" style="fill: rgb(211 211 211)"/>
<path d="M27.284193,-14.395232 L16.725664,-3.6172566 L15.62987,-26.242424 z" style="fill: rgb(211 211 211)"/>
<path d="M14.021751,24.446026 L12,10 L28.531136,22.945055 z" style="fill: rgb(211 211 211)"/>
<path d="M-13.97544,38.10662 L0.61004966,35.38229 L-8.5,51 z" style="fill: rgb(211 211 211)"/>
<path d="M-30,-25 L-34.5,-38.5 L-26.25468,-33.74844 z" style="fill: rgb(211 211 211)"/>
<path d="M5,-12 L15.62987,-26.242424 L16.725664,-3.6172566 z" style="fill: rgb(211 211 211)"/>
<path d="M-5,-42 L-15.769461,-30.95509 L-14,-52 z" style="fill: rgb(211 211 211)"/>
<path d="M-9.743055,24.753471 L-13.97544,38.10662 L-25.205284,18.5 z" style="fill: rgb(211 211 211)"/>
<path d="M-3.17869,2.7159467 L-9.743055,24.753471 L-16.870775,6.8697324 z" style="fill: rgb(211 211 211)"/>
<path d="M57.15775,21.519026 L64.20327,11.873612 L67.28019,23.415098 z" style="fill: rgb(211 211 211)"/>
<path d="M27.284193,-14.395232 L44.529804,-11.287283 L30,2 z" style="fill: rgb(211 211 211)"/>
<path d="M-5,-42 L8.147636,-37.829796 L-2,-24 z" style="fill: rgb(211 211 211)"/>
<path d="M-16.609423,-7.43617 L5,-12 L-3.17869,2.7159467 z" style="fill: rgb(211 211 211)"/>
<path d="M30,2 L16.725664,-3.6172566 L27.284193,-14.395232 z" style="fill: rgb(211 211 211)"/>
<path d="M-52.32524,42.07993 L-49.97594,32.630703 L-42.181805,39.585167 z" style="fill: rgb(211 211 211)"/>
<path d="M5,-12 L-16.609423,-7.43617 L-2,-24 z" style="fill: rgb(211 211 211)"/>
<path d="M15.5,-49.5 L29.057148,-48.35109 L15.62987,-26.242424 z" style="fill: rgb(211 211 211)"/>
<path d="M-31.647142,-9.857857 L-44.704655,-15.298964 L-30,-25 z" style="fill: rgb(211 211 211)"/>
<path d="M-30,-25 L-55,-25 L-34.5,-38.5 z" style="fill: rgb(211 211 211)"/>
<path d="M-57.411087,33.776844 L-52.32524,42.07993 L-64.53623,36.19083 z" style="fill: rgb(211 211 211)"/>
<path d="M46.86845,21.084091 L41.764034,36.264416 L28.531136,22.945055 z" style="fill: rgb(211 211 211)"/>
<path d="M30,2 L41.201862,9.095729 L28.531136,22.945055 z" style="fill: rgb(211 211 211)"/>
<path d="M33,-30 L45,-47 L52.644352,-32.944256 z" style="fill: rgb(211 211 211)"/>
<path d="M-5,-42 L-14,-52 L1.9428529,-50.64891 z" style="fill: rgb(211 211 211)"/>
<path d="M-26.25468,-33.74844 L-27.362734,-43.20015 L-15.769461,-30.95509 z" style="fill: rgb(211 211 211)"/>
<path d="M-62.231884,21.404585 L-61,13.5 L-54.856968,25.656311 z" style="fill: rgb(211 211 211)"/>
<path d="M0.61004966,35.38229 L-9.743055,24.753471 L14.021751,24.446026 z" style="fill: rgb(211 211 211)"/>
<path d="M44.529804,-11.287283 L27.284193,-14.395232 L43.96492,-23.847624 z" style="fill: rgb(211 211 211)"/>
<path d="M15.62987,-26.242424 L-2,-24 L8.147636,-37.829796 z" style="fill: rgb(211 211 211)"/>
<path d="M0.61004966,35.38229 L15,39 L7.497663,50.726536 z" style="fill: rgb(211 211 211)"/>
<path d="M-35,32 L-42.181805,39.585167 L-49.97594,32.630703 z" style="fill: rgb(211 211 211)"/>
<path d="M-5,-42 L1.9428529,-50.64891 L8.147636,-37.829796 z" style="fill: rgb(211 211 211)"/>
<path d="M-25.205284,18.5 L-35,5 L-16.870775,6.8697324 z" style="fill: rgb(211 211 211)"/>
<path d="M-55,-25 L-30,-25 L-44.704655,-15.298964 z" style="fill: rgb(211 211 211)"/>
<path d="M15.62987,-26.242424 L5,-12 L-2,-24 z" style="fill: rgb(211 211 211)"/>
<path d="M33,-30 L15.62987,-26.242424 L29.057148,-48.35109 z" style="fill: rgb(211 211 211)"/>
<path d="M18.004675,50.54693 L15,39 L34.00234,50.273464 z" style="fill: rgb(211 211 211)"/>
<path d="M30,2 L28.531136,22.945055 L12,10 z" style="fill: rgb(211 211 211)"/>
<path d="M-19.007011,51.179607 L-35,32 L-13.97544,38.10662 z" style="fill: rgb(211 211 211)"/>
<path d="M-25.205284,18.5 L-16.870775,6.8697324 L-9.743055,24.753471 z" style="fill: rgb(211 211 211)"/>
<path d="M-27.362734,-43.20015 L-14,-52 L-15.769461,-30.95509 z" style="fill: rgb(211 211 211)"/>
<path d="M27.284193,-14.395232 L15.62987,-26.242424 L33,-30 z" style="fill: rgb(211 211 211)"/>
<path d="M30,2 L44.529804,-11.287283 L41.201862,9.095729 z" style="fill: rgb(211 211 211)"/>
<path d="M-15.769461,-30.95509 L-5,-42 L-2,-24 z" style="fill: rgb(211 211 211)"/>
<path d="M-30,-25 L-15.769461,-30.95509 L-16.609423,-7.43617 z" style="fill: rgb(211 211 211)"/>
<path d="M-35,32 L-19.007011,51.179607 L-35.004673,51.45307 z" style="fill: rgb(211 211 211)"/>
<path d="M-35,32 L-25.205284,18.5 L-13.97544,38.10662 z" style="fill: rgb(211 211 211)"/>
<path d="M-35,5 L-25.205284,18.5 L-44.97596,18.5 z" style="fill: rgb(211 211 211)"/>
<path d="M46.86845,21.084091 L54.831696,29.374113 L41.764034,36.264416 z" style="fill: rgb(211 211 211)"/>
<path d="M53.375736,3.8395114 L60.5,-18.5 L68.35565,-4.0557423 z" style="fill: rgb(211 211 211)"/>
<path d="M46.86845,21.084091 L28.531136,22.945055 L41.201862,9.095729 z" style="fill: rgb(211 211 211)"/>
<path d="M15.5,-49.5 L8.147636,-37.829796 L1.9428529,-50.64891 z" style="fill: rgb(211 211 211)"/>
<path d="M8.147636,-37.829796 L15.5,-49.5 L15.62987,-26.242424 z" style="fill: rgb(211 211 211)"/>
<path d="M12,10 L-3.17869,2.7159467 L16.725664,-3.6172566 z" style="fill: rgb(211 211 211)"/>
<path d="M-3.17869,2.7159467 L12,10 L-9.743055,24.753471 z" style="fill: rgb(211 211 211)"/>
<path d="M16.725664,-3.6172566 L30,2 L12,10 z" style="fill: rgb(211 211 211)"/>
<path d="M5,-12 L16.725664,-3.6172566 L-3.17869,2.7159467 z" style="fill: rgb(211 211 211)"/>
<path d="M-59.927532,6.61834 L-51.566895,11.445695 L-61,13.5 z" style="fill: rgb(211 211 211)"/>
<path d="M-35,32 L-44.97596,18.5 L-25.205284,18.5 z" style="fill: rgb(211 211 211)"/>
<path d="M33,-30 L29.057148,-48.35109 L45,-47 z" style="fill: rgb(211 211 211)"/>
<path d="M-44.704655,-15.298964 L-31.647142,-9.857857 L-50.524784,-0.012863311 z" style="fill: rgb(211 211 211)"/>
<path d="M-57.411087,33.776844 L-64.53623,36.19083 L-63.463768,29.30917 z" style="fill: rgb(211 211 211)"/>
<path d="M34.00234,50.273464 L15,39 L41.764034,36.264416 z" style="fill: rgb(211 211 211)"/>
<path d="M67.28019,23.415098 L63,30 L57.15775,21.519026 z" style="fill: rgb(211 211 211)"/>
<path d="M28.531136,22.945055 L41.764034,36.264416 L15,39 z" style="fill: rgb(211 211 211)"/>
<path d="M44.529804,-11.287283 L43.96492,-23.847624 L60.5,-18.5 z" style="fill: rgb(211 211 211)"/>
<path d="M-26.25468,-33.74844 L-15.769461,-30.95509 L-30,-25 z" style="fill: rgb(211 211 211)"/>
<path d="M-27.362734,-43.20015 L-26.25468,-33.74844 L-34.5,-38.5 z" style="fill: rgb(211 211 211)"/>
<path d="M-51.566895,11.445695 L-59.927532,6.61834 L-50.524784,-0.012863311 z" style="fill: rgb(211 211 211)"/>
<path d="M-51.00234,51.726536 L-67,52 L-52.32524,42.07993 z" style="fill: rgb(211 211 211)"/>
<path d="M-57.411087,33.776844 L-63.463768,29.30917 L-54.856968,25.656311 z" style="fill: rgb(211 211 211)"/>
<path d="M-49.97594,32.630703 L-44.97596,18.5 L-35,32 z" style="fill: rgb(211 211 211)"/>
<path d="M18.004675,50.54693 L7.497663,50.726536 L15,39 z" style="fill: rgb(211 211 211)"/>
<path d="M-13.97544,38.10662 L-8.5,51 L-19.007011,51.179607 z" style="fill: rgb(211 211 211)"/>
<path d="M0.61004966,35.38229 L-13.97544,38.10662 L-9.743055,24.753471 z" style="fill: rgb(211 211 211)"/>
<path d="M15,39 L0.61004966,35.38229 L14.021751,24.446026 z" style="fill: rgb(211 211 211)"/>
<path d="M57.15775,21.519026 L63,30 L54.831696,29.374113 z" style="fill: rgb(211 211 211)"/>
<path d="M50,50 L34.00234,50.273464 L46.345875,42.854076 z" style="fill: rgb(211 211 211)"/>
<path d="M52.644352,-32.944256 L60.5,-18.5 L43.96492,-23.847624 z" style="fill: rgb(211 211 211)"/>
<path d="M44.529804,-11.287283 L60.5,-18.5 L53.375736,3.8395114 z" style="fill: rgb(211 211 211)"/>
<path d="M0.61004966,35.38229 L7.497663,50.726536 L-8.5,51 z" style="fill: rgb(211 211 211)"/>
<path d="M-31.647142,-9.857857 L-30,-25 L-16.609423,-7.43617 z" style="fill: rgb(211 211 211)"/>
<path d="M-31.647142,-9.857857 L-16.609423,-7.43617 L-35,5 z" style="fill: rgb(211 211 211)"/>
<path d="M14.021751,24.446026 L28.531136,22.945055 L15,39 z" style="fill: rgb(211 211 211)"/>
<path d="M12,10 L14.021751,24.446026 L-9.743055,24.753471 z" style="fill: rgb(211 211 211)"/>
<path d="M53.375736,3.8395114 L41.201862,9.095729 L44.529804,-11.287283 z" style="fill: rgb(211 211 211)"/>
<path d="M41.201862,9.095729 L53.375736,3.8395114 L46.86845,21.084091 z" style="fill: rgb(211 211 211)"/>
<path d="M41.764034,36.264416 L54.831696,29.374113 L46.345875,42.854076 z" style="fill: rgb(211 211 211)"/>
<path d="M-16.609423,-7.43617 L-16.870775,6.8697324 L-35,5 z" style="fill: rgb(211 211 211)"/>
<path d="M-16.870775,6.8697324 L-16.609423,-7.43617 L-3.17869,2.7159467 z" style="fill: rgb(211 211 211)"/>
<path d="M53.375736,3.8395114 L68.35565,-4.0557423 L64.20327,11.873612 z" style="fill: rgb(211 211 211)"/>
<path d="M-57.463768,-9.19083 L-44.704655,-15.298964 L-50.524784,-0.012863311 z" style="fill: rgb(211 211 211)"/>
<path d="M-44.704655,-15.298964 L-57.463768,-9.19083 L-55,-25 z" style="fill: rgb(211 211 211)"/>
<path d="M-57.463768,-9.19083 L-50.524784,-0.012863311 L-59.927532,6.61834 z" style="fill: rgb(211 211 211)"/>
<path d="M-51.566895,11.445695 L-35,5 L-44.97596,18.5 z" style="fill: rgb(211 211 211)"/>
<path d="M57.15775,21.519026 L46.86845,21.084091 L53.375736,3.8395114 z" style="fill: rgb(211 211 211)"/>
<path d="M76,10 L67.28019,23.415098 L64.20327,11.873612 z" style="fill: rgb(211 211 211)"/>
<path d="M58.719814,36.584904 L54.359905,43.29245 L54.831696,29.374113 z" style="fill: rgb(211 211 211)"/>
<path d="M33,-30 L43.96492,-23.847624 L27.284193,-14.395232 z" style="fill: rgb(211 211 211)"/>
<path d="M43.96492,-23.847624 L33,-30 L52.644352,-32.944256 z" style="fill: rgb(211 211 211)"/>
<path d="M-62.231884,21.404585 L-54.856968,25.656311 L-63.463768,29.30917 z" style="fill: rgb(211 211 211)"/>
<path d="M-35,5 L-50.524784,-0.012863311 L-31.647142,-9.857857 z" style="fill: rgb(211 211 211)"/>
<path d="M-50.524784,-0.012863311 L-35,5 L-51.566895,11.445695 z" style="fill: rgb(211 211 211)"/>
<path d="M-51.566895,11.445695 L-54.856968,25.656311 L-61,13.5 z" style="fill: rgb(211 211 211)"/>
<path d="M-49.97594,32.630703 L-57.411087,33.776844 L-54.856968,25.656311 z" style="fill: rgb(211 211 211)"/>
<path d="M-64.53623,36.19083 L-52.32524,42.07993 L-67,52 z" style="fill: rgb(211 211 211)"/>
<path d="M-52.32524,42.07993 L-57.411087,33.776844 L-49.97594,32.630703 z" style="fill: rgb(211 211 211)"/>
<path d="M-35.004673,51.45307 L-51.00234,51.726536 L-42.181805,39.585167 z" style="fill: rgb(211 211 211)"/>
<path d="M54.831696,29.374113 L46.86845,21.084091 L57.15775,21.519026 z" style="fill: rgb(211 211 211)"/>
<path d="M58.719814,36.584904 L54.831696,29.374113 L63,30 z" style="fill: rgb(211 211 211)"/>
<path d="M46.345875,42.854076 L54.359905,43.29245 L50,50 z" style="fill: rgb(211 211 211)"/>
<path d="M64.20327,11.873612 L57.15775,21.519026 L53.375736,3.8395114 z" style="fill: rgb(211 211 211)"/>
<path d="M76,10 L64.20327,11.873612 L68.35565,-4.0557423 z" style="fill: rgb(211 211 211)"/>
<path d="M-44.97596,18.5 L-54.856968,25.656311 L-51.566895,11.445695 z" style="fill: rgb(211 211 211)"/>
<path d="M-54.856968,25.656311 L-44.97596,18.5 L-49.97594,32.630703 z" style="fill: rgb(211 211 211)"/>
<path d="M-42.181805,39.585167 L-35,32 L-35.004673,51.45307 z" style="fill: rgb(211 211 211)"/>
<path d="M-52.32524,42.07993 L-42.181805,39.585167 L-51.00234,51.726536 z" style="fill: rgb(211 211 211)"/>
<path d="M41.764034,36.264416 L46.345875,42.854076 L34.00234,50.273464 z" style="fill: rgb(211 211 211)"/>
<path d="M54.359905,43.29245 L46.345875,42.854076 L54.831696,29.374113 z" style="fill: rgb(211 211 211)"/>
<line style="stroke-width: 1; stroke: rgb(169 169 169); fill: none" x1="-16.870776004701092" x2="-9.743055555555557" y1="6.869732503303753" y2="24.75347222222222"/>
<line style="stroke-width: 1; stroke: rgb(169 169 169); fill: none" x1="15.629870129870131" x2="15.5" y1="-26.242424242424242" y2="-49.5"/>
<line style="stroke-width: 1; stroke: rgb(169 169 169); fill: none" x1="12" x2="28.531135531135533" y1="10" y2="22.945054945054945"/>
<line style="stroke-width: 1; stroke: rgb(169 169 169); fill: none" x1="15.629870129870131" x2="16.72566371681416" y1="-26.242424242424242" y2="-3.6172566371681416"/>
<line style="stroke-width: 1; stroke: rgb(169 169 169); fill: none" x1="27.2841938552613" x2="16.72566371681416" y1="-14.395231826069253" y2="-3.6172566371681416"/>
<line style="stroke-width: 1; stroke: rgb(169 169 169); fill: none" x1="-16.870776004701092" x2="-35" y1="6.869732503303753" y2="5"/>
<line style="stroke-width: 1; stroke: rgb(169 169 169); fill: none" x1="14.021751511150805" x2="-9.743055555555557" y1="24.446025705743022" y2="24.75347222222222"/>
<line style="stroke-width: 1; stroke: rgb(169 169 169); fill: none" x1="-27.36273383711805" x2="-15.76946107784431" y1="-43.200150887751526" y2="-30.95508982035928"/>
<line style="stroke-width: 1; stroke: rgb(169 169 169); fill: none" x1="-3.178689883373975" x2="5" y1="2.715946781073537" y2="-12"/>
<line style="stroke-width: 1; stroke: rgb(169 169 169); fill: none" x1="-5" x2="-2" y1="-42" y2="-24"/>
<line style="stroke-width: 1; stroke: rgb(169 169 169); fill: none" x1="5" x2="-2" y1="-12" y2="-24"/>
<line style="stroke-width: 1; stroke: rgb(169 169 169); fill: none" x1="-49.975941155026725" x2="-42.18180586478401" y1="32.630704344916886" y2="39.58516846361577"/>
<line style="stroke-width: 1; stroke: rgb(169 169 169); fill: none" x1="-16.609422492401215" x2="-2" y1="-7.436170212765958" y2="-24"/>
<line style="stroke-width: 1; stroke: rgb(169 169 169); fill: none" x1="-13.97544043870317" x2="-35" y1="38.10662111344095" y2="32"/>
<line style="stroke-width: 1; stroke: rgb(169 169 169); fill: none" x1="-50.52478347006951" x2="-31.64714189324387" y1="-0.012863311135178357" y2="-9.857856982207311"/>
<line style="stroke-width: 1; stroke: rgb(169 169 169); fill: none" x1="-14" x2="-5" y1="-52" y2="-42"/>
<line style="stroke-width: 1; stroke: rgb(169 169 169); fill: none" x1="57.15774906038094" x2="63" y1="21.51902524274886" y2="30"/>
<line style="stroke-width: 1; stroke: rgb(169 169 169); fill: none" x1="28.531135531135533" x2="41.20186154326284" y1="22.945054945054945" y2="9.09572873175734"/>
<line style="stroke-width: 1; stroke: rgb(169 169 169); fill: none" x1="27.2841938552613" x2="43.96492176346902" y1="-14.395231826069253" y2="-23.847623476970725"/>
<line style="stroke-width: 1; stroke: rgb(169 169 169); fill: none" x1="8.14763634863251" x2="-2" y1="-37.829793980404474" y2="-24"/>
<line style="stroke-width: 1; stroke: rgb(169 169 169); fill: none" x1="14.021751511150805" x2="0.6100496356927358" y1="24.446025705743022" y2="35.3822879881789"/>
<line style="stroke-width: 1; stroke: rgb(169 169 169); fill: none" x1="-3.178689883373975" x2="16.72566371681416" y1="2.715946781073537" y2="-3.6172566371681416"/>
<line style="stroke-width: 1; stroke: rgb(169 169 169); fill: none" x1="30" x2="12" y1="2" y2="10"/>
<line style="stroke-width: 1; stroke: rgb(169 169 169); fill: none" x1="-25.20528475659121" x2="-44.97596153846154" y1="18.5" y2="18.5"/>
<line style="stroke-width: 1; stroke: rgb(169 169 169); fill: none" x1="-42.18180586478401" x2="-51.00233713118395" y1="39.58516846361577" y2="51.726535677456134"/>
<line style="stroke-width: 1; stroke: rgb(169 169 169); fill: none" x1="-16.609422492401215" x2="-15.76946107784431" y1="-7.436170212765958" y2="-30.95508982035928"/>
<line style="stroke-width: 1; stroke: rgb(169 169 169); fill: none" x1="29.057147121649102" x2="15.629870129870131" y1="-48.351089226978885" y2="-26.242424242424242"/>
<line style="stroke-width: 1; stroke: rgb(169 169 169); fill: none" x1="44.52980447997328" x2="30" y1="-11.287282968978392" y2="2"/>
<line style="stroke-width: 1; stroke: rgb(169 169 169); fill: none" x1="-44.704653795394805" x2="-30" y1="-15.298963679440632" y2="-25"/>
<line style="stroke-width: 1; stroke: rgb(169 169 169); fill: none" x1="-34.5" x2="-26.25468013352549" y1="-38.5" y2="-33.748439955491506"/>
<line style="stroke-width: 1; stroke: rgb(169 169 169); fill: none" x1="-30" x2="-55" y1="-25" y2="-25"/>
<line style="stroke-width: 1; stroke: rgb(169 169 169); fill: none" x1="-55" x2="-34.5" y1="-25" y2="-38.5"/>
<line style="stroke-width: 1; stroke: rgb(169 169 169); fill: none" x1="-67" x2="-64.53623325976167" y1="52" y2="36.190830083470686"/>
<line style="stroke-width: 1; stroke: rgb(169 169 169); fill: none" x1="34.00233713118395" x2="15" y1="50.273464322543866" y2="39"/>
<line style="stroke-width: 1; stroke: rgb(169 169 169); fill: none" x1="50" x2="34.00233713118395" y1="50" y2="50.273464322543866"/>
<line style="stroke-width: 1; stroke: rgb(169 169 169); fill: none" x1="76" x2="67.28018639047338" y1="10" y2="23.415097860810192"/>
<line style="stroke-width: 1; stroke: rgb(169 169 169); fill: none" x1="33" x2="45" y1="-30" y2="-47"/>
<line style="stroke-width: 1; stroke: rgb(169 169 169); fill: none" x1="45" x2="52.64435115055974" y1="-47" y2="-32.94425756187401"/>
<line style="stroke-width: 1; stroke: rgb(169 169 169); fill: none" x1="-14" x2="1.9428528783509016" y1="-52" y2="-50.648910773021115"/>
<line style="stroke-width: 1; stroke: rgb(169 169 169); fill: none" x1="-30" x2="-34.5" y1="-25" y2="-38.5"/>
<line style="stroke-width: 1; stroke: rgb(169 169 169); fill: none" x1="-34.5" x2="-27.36273383711805" y1="-38.5" y2="-43.200150887751526"/>
<line style="stroke-width: 1; stroke: rgb(169 169 169); fill: none" x1="-61" x2="-51.56689559131393" y1="13.5" y2="11.445695290387661"/>
<line style="stroke-width: 1; stroke: rgb(169 169 169); fill: none" x1="-61" x2="-59.92753348047667" y1="13.5" y2="6.618339833058625"/>
<line style="stroke-width: 1; stroke: rgb(169 169 169); fill: none" x1="7.497662868816045" x2="15" y1="50.72653567745614" y2="39"/>
<line style="stroke-width: 1; stroke: rgb(169 169 169); fill: none" x1="-8.5" x2="-19.00701139355187" y1="51" y2="51.17960703236841"/>
<line style="stroke-width: 1; stroke: rgb(169 169 169); fill: none" x1="60.5" x2="43.96492176346902" y1="-18.5" y2="-23.847623476970725"/>
<line style="stroke-width: 1; stroke: rgb(169 169 169); fill: none" x1="60.5" x2="68.35564884944026" y1="-18.5" y2="-4.055742438125987"/>
<line style="stroke-width: 1; stroke: rgb(169 169 169); fill: none" x1="8.14763634863251" x2="1.9428528783509016" y1="-37.829793980404474" y2="-50.648910773021115"/>
<line style="stroke-width: 1; stroke: rgb(169 169 169); fill: none" x1="15.5" x2="29.057147121649102" y1="-49.5" y2="-48.351089226978885"/>
<line style="stroke-width: 1; stroke: rgb(169 169 169); fill: none" x1="15" x2="18.004674262367914" y1="39" y2="50.54692864508773"/>
<line style="stroke-width: 1; stroke: rgb(169 169 169); fill: none" x1="18.004674262367914" x2="7.497662868816045" y1="50.54692864508773" y2="50.72653567745614"/>
<line style="stroke-width: 1; stroke: rgb(169 169 169); fill: none" x1="-35" x2="-35.004674262367914" y1="32" y2="51.45307135491227"/>
<line style="stroke-width: 1; stroke: rgb(169 169 169); fill: none" x1="-35.004674262367914" x2="-51.00233713118395" y1="51.45307135491227" y2="51.726535677456134"/>
<line style="stroke-width: 1; stroke: rgb(169 169 169); fill: none" x1="-5" x2="1.9428528783509016" y1="-42" y2="-50.648910773021115"/>
<line style="stroke-width: 1; stroke: rgb(169 169 169); fill: none" x1="1.9428528783509016" x2="15.5" y1="-50.648910773021115" y2="-49.5"/>
<line style="stroke-width: 1; stroke: rgb(169 169 169); fill: none" x1="5" x2="-16.609422492401215" y1="-12" y2="-7.436170212765958"/>
<line style="stroke-width: 1; stroke: rgb(169 169 169); fill: none" x1="-35" x2="-16.609422492401215" y1="5" y2="-7.436170212765958"/>
<line style="stroke-width: 1; stroke: rgb(169 169 169); fill: none" x1="-30" x2="-16.609422492401215" y1="-25" y2="-7.436170212765958"/>
<line style="stroke-width: 1; stroke: rgb(169 169 169); fill: none" x1="5" x2="15.629870129870131" y1="-12" y2="-26.242424242424242"/>
<line style="stroke-width: 1; stroke: rgb(169 169 169); fill: none" x1="-2" x2="15.629870129870131" y1="-24" y2="-26.242424242424242"/>
<line style="stroke-width: 1; stroke: rgb(169 169 169); fill: none" x1="33" x2="15.629870129870131" y1="-30" y2="-26.242424242424242"/>
<line style="stroke-width: 1; stroke: rgb(169 169 169); fill: none" x1="28.531135531135533" x2="41.76403497627709" y1="22.945054945054945" y2="36.26441718635091"/>
<line style="stroke-width: 1; stroke: rgb(169 169 169); fill: none" x1="15" x2="28.531135531135533" y1="39" y2="22.945054945054945"/>
<line style="stroke-width: 1; stroke: rgb(169 169 169); fill: none" x1="30" x2="28.531135531135533" y1="2" y2="22.945054945054945"/>
<line style="stroke-width: 1; stroke: rgb(169 169 169); fill: none" x1="0.6100496356927358" x2="-8.5" y1="35.3822879881789" y2="51"/>
<line style="stroke-width: 1; stroke: rgb(169 169 169); fill: none" x1="-13.97544043870317" x2="-25.20528475659121" y1="38.10662111344095" y2="18.5"/>
<line style="stroke-width: 1; stroke: rgb(169 169 169); fill: none" x1="12" x2="-9.743055555555557" y1="10" y2="24.75347222222222"/>
<line style="stroke-width: 1; stroke: rgb(169 169 169); fill: none" x1="-14" x2="-15.76946107784431" y1="-52" y2="-30.95508982035928"/>
<line style="stroke-width: 1; stroke: rgb(169 169 169); fill: none" x1="-27.36273383711805" x2="-14" y1="-43.200150887751526" y2="-52"/>
<line style="stroke-width: 1; stroke: rgb(169 169 169); fill: none" x1="15.629870129870131" x2="27.2841938552613" y1="-26.242424242424242" y2="-14.395231826069253"/>
<line style="stroke-width: 1; stroke: rgb(169 169 169); fill: none" x1="33" x2="27.2841938552613" y1="-30" y2="-14.395231826069253"/>
<line style="stroke-width: 1; stroke: rgb(169 169 169); fill: none" x1="30" x2="27.2841938552613" y1="2" y2="-14.395231826069253"/>
<line style="stroke-width: 1; stroke: rgb(169 169 169); fill: none" x1="-5" x2="-15.76946107784431" y1="-42" y2="-30.95508982035928"/>
<line style="stroke-width: 1; stroke: rgb(169 169 169); fill: none" x1="-2" x2="-15.76946107784431" y1="-24" y2="-30.95508982035928"/>
<line style="stroke-width: 1; stroke: rgb(169 169 169); fill: none" x1="-30" x2="-15.76946107784431" y1="-25" y2="-30.95508982035928"/>
<line style="stroke-width: 1; stroke: rgb(169 169 169); fill: none" x1="-35" x2="-19.00701139355187" y1="32" y2="51.17960703236841"/>
<line style="stroke-width: 1; stroke: rgb(169 169 169); fill: none" x1="-19.00701139355187" x2="-35.004674262367914" y1="51.17960703236841" y2="51.45307135491227"/>
<line style="stroke-width: 1; stroke: rgb(169 169 169); fill: none" x1="-9.743055555555557" x2="-25.20528475659121" y1="24.75347222222222" y2="18.5"/>
<line style="stroke-width: 1; stroke: rgb(169 169 169); fill: none" x1="-35" x2="-25.20528475659121" y1="32" y2="18.5"/>
<line style="stroke-width: 1; stroke: rgb(169 169 169); fill: none" x1="-35" x2="-25.20528475659121" y1="5" y2="18.5"/>
<line style="stroke-width: 1; stroke: rgb(169 169 169); fill: none" x1="54.831695141721866" x2="63" y1="29.37411348861796" y2="30"/>
<line style="stroke-width: 1; stroke: rgb(169 169 169); fill: none" x1="63" x2="58.719813609526625" y1="30" y2="36.58490213918981"/>
<line style="stroke-width: 1; stroke: rgb(169 169 169); fill: none" x1="60.5" x2="53.37573715248526" y1="-18.5" y2="3.839511373209773"/>
<line style="stroke-width: 1; stroke: rgb(169 169 169); fill: none" x1="68.35564884944026" x2="64.20326741901795" y1="-4.055742438125987" y2="11.873612175862913"/>
<line style="stroke-width: 1; stroke: rgb(169 169 169); fill: none" x1="41.20186154326284" x2="44.52980447997328" y1="9.09572873175734" y2="-11.287282968978392"/>
<line style="stroke-width: 1; stroke: rgb(169 169 169); fill: none" x1="-5" x2="8.14763634863251" y1="-42" y2="-37.829793980404474"/>
<line style="stroke-width: 1; stroke: rgb(169 169 169); fill: none" x1="15.5" x2="8.14763634863251" y1="-49.5" y2="-37.829793980404474"/>
<line style="stroke-width: 1; stroke: rgb(169 169 169); fill: none" x1="15.629870129870131" x2="8.14763634863251" y1="-26.242424242424242" y2="-37.829793980404474"/>
<line style="stroke-width: 1; stroke: rgb(169 169 169); fill: none" x1="-16.609422492401215" x2="-3.178689883373975" y1="-7.436170212765958" y2="2.715946781073537"/>
<line style="stroke-width: 1; stroke: rgb(169 169 169); fill: none" x1="12" x2="-3.178689883373975" y1="10" y2="2.715946781073537"/>
<line style="stroke-width: 1; stroke: rgb(169 169 169); fill: none" x1="-9.743055555555557" x2="-3.178689883373975" y1="24.75347222222222" y2="2.715946781073537"/>
<line style="stroke-width: 1; stroke: rgb(169 169 169); fill: none" x1="30" x2="16.72566371681416" y1="2" y2="-3.6172566371681416"/>
<line style="stroke-width: 1; stroke: rgb(169 169 169); fill: none" x1="12" x2="16.72566371681416" y1="10" y2="-3.6172566371681416"/>
<line style="stroke-width: 1; stroke: rgb(169 169 169); fill: none" x1="5" x2="16.72566371681416" y1="-12" y2="-3.6172566371681416"/>
<line style="stroke-width: 1; stroke: rgb(169 169 169); fill: none" x1="-54.85696714976554" x2="-61" y1="25.656311610172175" y2="13.5"/>
<line style="stroke-width: 1; stroke: rgb(169 169 169); fill: none" x1="-35" x2="-44.97596153846154" y1="5" y2="18.5"/>
<line style="stroke-width: 1; stroke: rgb(169 169 169); fill: none" x1="-35" x2="-44.97596153846154" y1="32" y2="18.5"/>
<line style="stroke-width: 1; stroke: rgb(169 169 169); fill: none" x1="33" x2="29.057147121649102" y1="-30" y2="-48.351089226978885"/>
<line style="stroke-width: 1; stroke: rgb(169 169 169); fill: none" x1="29.057147121649102" x2="45" y1="-48.351089226978885" y2="-47"/>
<line style="stroke-width: 1; stroke: rgb(169 169 169); fill: none" x1="-44.704653795394805" x2="-50.52478347006951" y1="-15.298963679440632" y2="-0.012863311135178357"/>
<line style="stroke-width: 1; stroke: rgb(169 169 169); fill: none" x1="-57.46376674023834" x2="-55" y1="-9.190830083470688" y2="-25"/>
<line style="stroke-width: 1; stroke: rgb(169 169 169); fill: none" x1="-54.85696714976554" x2="-57.41108739799722" y1="25.656311610172175" y2="33.77684352239004"/>
<line style="stroke-width: 1; stroke: rgb(169 169 169); fill: none" x1="-64.53623325976167" x2="-63.46376674023834" y1="36.190830083470686" y2="29.309169916529306"/>
<line style="stroke-width: 1; stroke: rgb(169 169 169); fill: none" x1="15" x2="41.76403497627709" y1="39" y2="36.26441718635091"/>
<line style="stroke-width: 1; stroke: rgb(169 169 169); fill: none" x1="34.00233713118395" x2="18.004674262367914" y1="50.273464322543866" y2="50.54692864508773"/>
<line style="stroke-width: 1; stroke: rgb(169 169 169); fill: none" x1="53.37573715248526" x2="46.8684506733335" y1="3.839511373209773" y2="21.08409125130447"/>
<line style="stroke-width: 1; stroke: rgb(169 169 169); fill: none" x1="41.76403497627709" x2="54.831695141721866" y1="36.26441718635091" y2="29.37411348861796"/>
<line style="stroke-width: 1; stroke: rgb(169 169 169); fill: none" x1="28.531135531135533" x2="46.8684506733335" y1="22.945054945054945" y2="21.08409125130447"/>
<line style="stroke-width: 1; stroke: rgb(169 169 169); fill: none" x1="33" x2="52.64435115055974" y1="-30" y2="-32.94425756187401"/>
<line style="stroke-width: 1; stroke: rgb(169 169 169); fill: none" x1="52.64435115055974" x2="60.5" y1="-32.94425756187401" y2="-18.5"/>
<line style="stroke-width: 1; stroke: rgb(169 169 169); fill: none" x1="-15.76946107784431" x2="-26.25468013352549" y1="-30.95508982035928" y2="-33.748439955491506"/>
<line style="stroke-width: 1; stroke: rgb(169 169 169); fill: none" x1="-30" x2="-26.25468013352549" y1="-25" y2="-33.748439955491506"/>
<line style="stroke-width: 1; stroke: rgb(169 169 169); fill: none" x1="-27.36273383711805" x2="-26.25468013352549" y1="-43.200150887751526" y2="-33.748439955491506"/>
<line style="stroke-width: 1; stroke: rgb(169 169 169); fill: none" x1="-59.92753348047667" x2="-50.52478347006951" y1="6.618339833058625" y2="-0.012863311135178357"/>
<line style="stroke-width: 1; stroke: rgb(169 169 169); fill: none" x1="-59.92753348047667" x2="-57.46376674023834" y1="6.618339833058625" y2="-9.190830083470688"/>
<line style="stroke-width: 1; stroke: rgb(169 169 169); fill: none" x1="-67" x2="-52.32524122827545" y1="52" y2="42.07993000082696"/>
<line style="stroke-width: 1; stroke: rgb(169 169 169); fill: none" x1="-51.00233713118395" x2="-67" y1="51.726535677456134" y2="52"/>
<line style="stroke-width: 1; stroke: rgb(169 169 169); fill: none" x1="-52.32524122827545" x2="-64.53623325976167" y1="42.07993000082696" y2="36.190830083470686"/>
<line style="stroke-width: 1; stroke: rgb(169 169 169); fill: none" x1="-44.97596153846154" x2="-49.975941155026725" y1="18.5" y2="32.630704344916886"/>
<line style="stroke-width: 1; stroke: rgb(169 169 169); fill: none" x1="-35" x2="-49.975941155026725" y1="32" y2="32.630704344916886"/>
<line style="stroke-width: 1; stroke: rgb(169 169 169); fill: none" x1="-9.743055555555557" x2="-13.97544043870317" y1="24.75347222222222" y2="38.10662111344095"/>
<line style="stroke-width: 1; stroke: rgb(169 169 169); fill: none" x1="-8.5" x2="-13.97544043870317" y1="51" y2="38.10662111344095"/>
<line style="stroke-width: 1; stroke: rgb(169 169 169); fill: none" x1="-19.00701139355187" x2="-13.97544043870317" y1="51.17960703236841" y2="38.10662111344095"/>
<line style="stroke-width: 1; stroke: rgb(169 169 169); fill: none" x1="-13.97544043870317" x2="0.6100496356927358" y1="38.10662111344095" y2="35.3822879881789"/>
<line style="stroke-width: 1; stroke: rgb(169 169 169); fill: none" x1="-9.743055555555557" x2="0.6100496356927358" y1="24.75347222222222" y2="35.3822879881789"/>
<line style="stroke-width: 1; stroke: rgb(169 169 169); fill: none" x1="15" x2="0.6100496356927358" y1="39" y2="35.3822879881789"/>
<line style="stroke-width: 1; stroke: rgb(169 169 169); fill: none" x1="46.8684506733335" x2="41.76403497627709" y1="21.08409125130447" y2="36.26441718635091"/>
<line style="stroke-width: 1; stroke: rgb(169 169 169); fill: none" x1="46.34587608484059" x2="34.00233713118395" y1="42.85407527839576" y2="50.273464322543866"/>
<line style="stroke-width: 1; stroke: rgb(169 169 169); fill: none" x1="34.00233713118395" x2="41.76403497627709" y1="50.273464322543866" y2="36.26441718635091"/>
<line style="stroke-width: 1; stroke: rgb(169 169 169); fill: none" x1="27.2841938552613" x2="44.52980447997328" y1="-14.395231826069253" y2="-11.287282968978392"/>
<line style="stroke-width: 1; stroke: rgb(169 169 169); fill: none" x1="60.5" x2="44.52980447997328" y1="-18.5" y2="-11.287282968978392"/>
<line style="stroke-width: 1; stroke: rgb(169 169 169); fill: none" x1="53.37573715248526" x2="44.52980447997328" y1="3.839511373209773" y2="-11.287282968978392"/>
<line style="stroke-width: 1; stroke: rgb(169 169 169); fill: none" x1="0.6100496356927358" x2="7.497662868816045" y1="35.3822879881789" y2="50.72653567745614"/>
<line style="stroke-width: 1; stroke: rgb(169 169 169); fill: none" x1="7.497662868816045" x2="-8.5" y1="50.72653567745614" y2="51"/>
<line style="stroke-width: 1; stroke: rgb(169 169 169); fill: none" x1="-30" x2="-31.64714189324387" y1="-25" y2="-9.857856982207311"/>
<line style="stroke-width: 1; stroke: rgb(169 169 169); fill: none" x1="-16.609422492401215" x2="-31.64714189324387" y1="-7.436170212765958" y2="-9.857856982207311"/>
<line style="stroke-width: 1; stroke: rgb(169 169 169); fill: none" x1="-35" x2="-31.64714189324387" y1="5" y2="-9.857856982207311"/>
<line style="stroke-width: 1; stroke: rgb(169 169 169); fill: none" x1="28.531135531135533" x2="14.021751511150805" y1="22.945054945054945" y2="24.446025705743022"/>
<line style="stroke-width: 1; stroke: rgb(169 169 169); fill: none" x1="15" x2="14.021751511150805" y1="39" y2="24.446025705743022"/>
<line style="stroke-width: 1; stroke: rgb(169 169 169); fill: none" x1="12" x2="14.021751511150805" y1="10" y2="24.446025705743022"/>
<line style="stroke-width: 1; stroke: rgb(169 169 169); fill: none" x1="30" x2="41.20186154326284" y1="2" y2="9.09572873175734"/>
<line style="stroke-width: 1; stroke: rgb(169 169 169); fill: none" x1="53.37573715248526" x2="41.20186154326284" y1="3.839511373209773" y2="9.09572873175734"/>
<line style="stroke-width: 1; stroke: rgb(169 169 169); fill: none" x1="46.8684506733335" x2="41.20186154326284" y1="21.08409125130447" y2="9.09572873175734"/>
<line style="stroke-width: 1; stroke: rgb(169 169 169); fill: none" x1="67.28018639047338" x2="64.20326741901795" y1="23.415097860810192" y2="11.873612175862913"/>
<line style="stroke-width: 1; stroke: rgb(169 169 169); fill: none" x1="67.28018639047338" x2="63" y1="23.415097860810192" y2="30"/>
<line style="stroke-width: 1; stroke: rgb(169 169 169); fill: none" x1="-25.20528475659121" x2="-16.870776004701092" y1="18.5" y2="6.869732503303753"/>
<line style="stroke-width: 1; stroke: rgb(169 169 169); fill: none" x1="-16.609422492401215" x2="-16.870776004701092" y1="-7.436170212765958" y2="6.869732503303753"/>
<line style="stroke-width: 1; stroke: rgb(169 169 169); fill: none" x1="-3.178689883373975" x2="-16.870776004701092" y1="2.715946781073537" y2="6.869732503303753"/>
<line style="stroke-width: 1; stroke: rgb(169 169 169); fill: none" x1="53.37573715248526" x2="68.35564884944026" y1="3.839511373209773" y2="-4.055742438125987"/>
<line style="stroke-width: 1; stroke: rgb(169 169 169); fill: none" x1="68.35564884944026" x2="76" y1="-4.055742438125987" y2="10"/>
<line style="stroke-width: 1; stroke: rgb(169 169 169); fill: none" x1="-31.64714189324387" x2="-44.704653795394805" y1="-9.857856982207311" y2="-15.298963679440632"/>
<line style="stroke-width: 1; stroke: rgb(169 169 169); fill: none" x1="-57.46376674023834" x2="-44.704653795394805" y1="-9.190830083470688" y2="-15.298963679440632"/>
<line style="stroke-width: 1; stroke: rgb(169 169 169); fill: none" x1="-55" x2="-44.704653795394805" y1="-25" y2="-15.298963679440632"/>
<line style="stroke-width: 1; stroke: rgb(169 169 169); fill: none" x1="-59.92753348047667" x2="-51.56689559131393" y1="6.618339833058625" y2="11.445695290387661"/>
<line style="stroke-width: 1; stroke: rgb(169 169 169); fill: none" x1="-35" x2="-51.56689559131393" y1="5" y2="11.445695290387661"/>
<line style="stroke-width: 1; stroke: rgb(169 169 169); fill: none" x1="-44.97596153846154" x2="-51.56689559131393" y1="18.5" y2="11.445695290387661"/>
<line style="stroke-width: 1; stroke: rgb(169 169 169); fill: none" x1="46.8684506733335" x2="57.15774906038094" y1="21.08409125130447" y2="21.51902524274886"/>
<line style="stroke-width: 1; stroke: rgb(169 169 169); fill: none" x1="53.37573715248526" x2="57.15774906038094" y1="3.839511373209773" y2="21.51902524274886"/>
<line style="stroke-width: 1; stroke: rgb(169 169 169); fill: none" x1="67.28018639047338" x2="57.15774906038094" y1="23.415097860810192" y2="21.51902524274886"/>
<line style="stroke-width: 1; stroke: rgb(169 169 169); fill: none" x1="54.35990680476331" x2="54.831695141721866" y1="43.292451069594904" y2="29.37411348861796"/>
<line style="stroke-width: 1; stroke: rgb(169 169 169); fill: none" x1="58.719813609526625" x2="54.35990680476331" y1="36.58490213918981" y2="43.292451069594904"/>
<line style="stroke-width: 1; stroke: rgb(169 169 169); fill: none" x1="44.52980447997328" x2="43.96492176346902" y1="-11.287282968978392" y2="-23.847623476970725"/>
<line style="stroke-width: 1; stroke: rgb(169 169 169); fill: none" x1="33" x2="43.96492176346902" y1="-30" y2="-23.847623476970725"/>
<line style="stroke-width: 1; stroke: rgb(169 169 169); fill: none" x1="52.64435115055974" x2="43.96492176346902" y1="-32.94425756187401" y2="-23.847623476970725"/>
<line style="stroke-width: 1; stroke: rgb(169 169 169); fill: none" x1="-63.46376674023834" x2="-54.85696714976554" y1="29.309169916529306" y2="25.656311610172175"/>
<line style="stroke-width: 1; stroke: rgb(169 169 169); fill: none" x1="-63.46376674023834" x2="-62.23188337011917" y1="29.309169916529306" y2="21.404584958264657"/>
<line style="stroke-width: 1; stroke: rgb(169 169 169); fill: none" x1="-57.46376674023834" x2="-50.52478347006951" y1="-9.190830083470688" y2="-0.012863311135178357"/>
<line style="stroke-width: 1; stroke: rgb(169 169 169); fill: none" x1="-35" x2="-50.52478347006951" y1="5" y2="-0.012863311135178357"/>
<line style="stroke-width: 1; stroke: rgb(169 169 169); fill: none" x1="-51.56689559131393" x2="-50.52478347006951" y1="11.445695290387661" y2="-0.012863311135178357"/>
<line style="stroke-width: 1; stroke: rgb(169 169 169); fill: none" x1="-51.56689559131393" x2="-54.85696714976554" y1="11.445695290387661" y2="25.656311610172175"/>
<line style="stroke-width: 1; stroke: rgb(169 169 169); fill: none" x1="-62.23188337011917" x2="-61" y1="21.404584958264657" y2="13.5"/>
<line style="stroke-width: 1; stroke: rgb(169 169 169); fill: none" x1="-63.46376674023834" x2="-57.41108739799722" y1="29.309169916529306" y2="33.77684352239004"/>
<line style="stroke-width: 1; stroke: rgb(169 169 169); fill: none" x1="-49.975941155026725" x2="-57.41108739799722" y1="32.630704344916886" y2="33.77684352239004"/>
<line style="stroke-width: 1; stroke: rgb(169 169 169); fill: none" x1="-64.53623325976167" x2="-57.41108739799722" y1="36.190830083470686" y2="33.77684352239004"/>
<line style="stroke-width: 1; stroke: rgb(169 169 169); fill: none" x1="-57.41108739799722" x2="-52.32524122827545" y1="33.77684352239004" y2="42.07993000082696"/>
<line style="stroke-width: 1; stroke: rgb(169 169 169); fill: none" x1="-49.975941155026725" x2="-52.32524122827545" y1="32.630704344916886" y2="42.07993000082696"/>
<line style="stroke-width: 1; stroke: rgb(169 169 169); fill: none" x1="-51.00233713118395" x2="-52.32524122827545" y1="51.726535677456134" y2="42.07993000082696"/>
<line style="stroke-width: 1; stroke: rgb(169 169 169); fill: none" x1="46.8684506733335" x2="54.831695141721866" y1="21.08409125130447" y2="29.37411348861796"/>
<line style="stroke-width: 1; stroke: rgb(169 169 169); fill: none" x1="57.15774906038094" x2="54.831695141721866" y1="21.51902524274886" y2="29.37411348861796"/>
<line style="stroke-width: 1; stroke: rgb(169 169 169); fill: none" x1="58.719813609526625" x2="54.831695141721866" y1="36.58490213918981" y2="29.37411348861796"/>
<line style="stroke-width: 1; stroke: rgb(169 169 169); fill: none" x1="46.34587608484059" x2="54.831695141721866" y1="42.85407527839576" y2="29.37411348861796"/>
<line style="stroke-width: 1; stroke: rgb(169 169 169); fill: none" x1="54.35990680476331" x2="50" y1="43.292451069594904" y2="50"/>
<line style="stroke-width: 1; stroke: rgb(169 169 169); fill: none" x1="57.15774906038094" x2="64.20326741901795" y1="21.51902524274886" y2="11.873612175862913"/>
<line style="stroke-width: 1; stroke: rgb(169 169 169); fill: none" x1="53.37573715248526" x2="64.20326741901795" y1="3.839511373209773" y2="11.873612175862913"/>
<line style="stroke-width: 1; stroke: rgb(169 169 169); fill: none" x1="76" x2="64.20326741901795" y1="10" y2="11.873612175862913"/>
<line style="stroke-width: 1; stroke: rgb(169 169 169); fill: none" x1="-62.23188337011917" x2="-54.85696714976554" y1="21.404584958264657" y2="25.656311610172175"/>
<line style="stroke-width: 1; stroke: rgb(169 169 169); fill: none" x1="-44.97596153846154" x2="-54.85696714976554" y1="18.5" y2="25.656311610172175"/>
<line style="stroke-width: 1; stroke: rgb(169 169 169); fill: none" x1="-49.975941155026725" x2="-54.85696714976554" y1="32.630704344916886" y2="25.656311610172175"/>
<line style="stroke-width: 1; stroke: rgb(169 169 169); fill: none" x1="-35" x2="-42.18180586478401" y1="32" y2="39.58516846361577"/>
<line style="stroke-width: 1; stroke: rgb(169 169 169); fill: none" x1="-35.004674262367914" x2="-42.18180586478401" y1="51.45307135491227" y2="39.58516846361577"/>
<line style="stroke-width: 1; stroke: rgb(169 169 169); fill: none" x1="-52.32524122827545" x2="-42.18180586478401" y1="42.07993000082696" y2="39.58516846361577"/>
<line style="stroke-width: 1; stroke: rgb(169 169 169); fill: none" x1="50" x2="46.34587608484059" y1="50" y2="42.85407527839576"/>
<line style="stroke-width: 1; stroke: rgb(169 169 169); fill: none" x1="41.76403497627709" x2="46.34587608484059" y1="36.26441718635091" y2="42.85407527839576"/>
<line style="stroke-width: 1; stroke: rgb(169 169 169); fill: none" x1="54.35990680476331" x2="46.34587608484059" y1="43.292451069594904" y2="42.85407527839576"/>
<circle cx="15" cy="39" r="0.4" style="stroke-width: 0.5; stroke: rgb(0 0 0); fill: rgb(105 105 105)"/>
<circle cx="-5" cy="-42" r="0.4" style="stroke-width: 0.5; stroke: rgb(0 0 0); fill: rgb(105 105 105)"/>
<circle cx="30" cy="2" r="0.4" style="stroke-width: 0.5; stroke: rgb(0 0 0); fill: rgb(105 105 105)"/>
<circle cx="5" cy="-12" r="0.4" style="stroke-width: 0.5; stroke: rgb(0 0 0); fill: rgb(105 105 105)"/>
<circle cx="-35" cy="32" r="0.4" style="stroke-width: 0.5; stroke: rgb(0 0 0); fill: rgb(105 105 105)"/>
<circle cx="-2" cy="-24" r="0.4" style="stroke-width: 0.5; stroke: rgb(0 0 0); fill: rgb(105 105 105)"/>
<circle cx="-67" cy="52" r="0.4" style="stroke-width: 0.5; stroke: rgb(0 0 0); fill: rgb(105 105 105)"/>
<circle cx="-14" cy="-52" r="0.4" style="stroke-width: 0.5; stroke: rgb(0 0 0); fill: rgb(105 105 105)"/>
<circle cx="76" cy="10" r="0.4" style="stroke-width: 0.5; stroke: rgb(0 0 0); fill: rgb(105 105 105)"/>
<circle cx="12" cy="10" r="0.4" style="stroke-width: 0.5; stroke: rgb(0 0 0); fill: rgb(105 105 105)"/>
<circle cx="-35" cy="5" r="0.4" style="stroke-width: 0.5; stroke: rgb(0 0 0); fill: rgb(105 105 105)"/>
<circle cx="33" cy="-30" r="0.4" style="stroke-width: 0.5; stroke: rgb(0 0 0); fill: rgb(105 105 105)"/>
<circle cx="-30" cy="-25" r="0.4" style="stroke-width: 0.5; stroke: rgb(0 0 0); fill: rgb(105 105 105)"/>
<circle cx="-55" cy="-25" r="0.4" style="stroke-width: 0.5; stroke: rgb(0 0 0); fill: rgb(105 105 105)"/>
<circle cx="50" cy="50" r="0.4" style="stroke-width: 0.5; stroke: rgb(0 0 0); fill: rgb(105 105 105)"/>
<circle cx="45" cy="-47" r="0.4" style="stroke-width: 0.5; stroke: rgb(0 0 0); fill: rgb(105 105 105)"/>
<circle cx="-34.5" cy="-38.5" r="0.4" style="stroke-width: 0.5; stroke: rgb(0 0 0); fill: rgb(105 105 105)"/>
<circle cx="-61" cy="13.5" r="0.4" style="stroke-width: 0.5; stroke: rgb(0 0 0); fill: rgb(105 105 105)"/>
<circle cx="-8.5" cy="51" r="0.4" style="stroke-width: 0.5; stroke: rgb(0 0 0); fill: rgb(105 105 105)"/>
<circle cx="60.5" cy="-18.5" r="0.4" style="stroke-width: 0.5; stroke: rgb(0 0 0); fill: rgb(105 105 105)"/>
<circle cx="15.5" cy="-49.5" r="0.4" style="stroke-width: 0.5; stroke: rgb(0 0 0); fill: rgb(105 105 105)"/>
<circle cx="18.004674262367914" cy="50.54692864508773" r="0.4" style="stroke-width: 0.5; stroke: rgb(0 0 0); fill: rgb(105 105 105)"/>
<circle cx="-35.004674262367914" cy="51.45307135491227" r="0.4" style="stroke-width: 0.5; stroke: rgb(0 0 0); fill: rgb(105 105 105)"/>
<circle cx="1.9428528783509016" cy="-50.648910773021115" r="0.4" style="stroke-width: 0.5; stroke: rgb(0 0 0); fill: rgb(105 105 105)"/>
<circle cx="-16.609422492401215" cy="-7.436170212765958" r="0.4" style="stroke-width: 0.5; stroke: rgb(0 0 0); fill: rgb(105 105 105)"/>
<circle cx="15.629870129870131" cy="-26.242424242424242" r="0.4" style="stroke-width: 0.5; stroke: rgb(0 0 0); fill: rgb(105 105 105)"/>
<circle cx="28.531135531135533" cy="22.945054945054945" r="0.4" style="stroke-width: 0.5; stroke: rgb(0 0 0); fill: rgb(105 105 105)"/>
<circle cx="-9.743055555555557" cy="24.75347222222222" r="0.4" style="stroke-width: 0.5; stroke: rgb(0 0 0); fill: rgb(105 105 105)"/>
<circle cx="-27.36273383711805" cy="-43.200150887751526" r="0.4" style="stroke-width: 0.5; stroke: rgb(0 0 0); fill: rgb(105 105 105)"/>
<circle cx="27.2841938552613" cy="-14.395231826069253" r="0.4" style="stroke-width: 0.5; stroke: rgb(0 0 0); fill: rgb(105 105 105)"/>
<circle cx="-15.76946107784431" cy="-30.95508982035928" r="0.4" style="stroke-width: 0.5; stroke: rgb(0 0 0); fill: rgb(105 105 105)"/>
<circle cx="-19.00701139355187" cy="51.17960703236841" r="0.4" style="stroke-width: 0.5; stroke: rgb(0 0 0); fill: rgb(105 105 105)"/>
<circle cx="-25.20528475659121" cy="18.5" r="0.4" style="stroke-width: 0.5; stroke: rgb(0 0 0); fill: rgb(105 105 105)"/>
<circle cx="63" cy="30" r="0.4" style="stroke-width: 0.5; stroke: rgb(0 0 0); fill: rgb(105 105 105)"/>
<circle cx="53.37573715248526" cy="3.839511373209773" r="0.4" style="stroke-width: 0.5; stroke: rgb(0 0 0); fill: rgb(105 105 105)"/>
<circle cx="8.14763634863251" cy="-37.829793980404474" r="0.4" style="stroke-width: 0.5; stroke: rgb(0 0 0); fill: rgb(105 105 105)"/>
<circle cx="-3.178689883373975" cy="2.715946781073537" r="0.4" style="stroke-width: 0.5; stroke: rgb(0 0 0); fill: rgb(105 105 105)"/>
<circle cx="16.72566371681416" cy="-3.6172566371681416" r="0.4" style="stroke-width: 0.5; stroke: rgb(0 0 0); fill: rgb(105 105 105)"/>
<circle cx="-44.97596153846154" cy="18.5" r="0.4" style="stroke-width: 0.5; stroke: rgb(0 0 0); fill: rgb(105 105 105)"/>
<circle cx="29.057147121649102" cy="-48.351089226978885" r="0.4" style="stroke-width: 0.5; stroke: rgb(0 0 0); fill: rgb(105 105 105)"/>
<circle cx="-57.46376674023834" cy="-9.190830083470688" r="0.4" style="stroke-width: 0.5; stroke: rgb(0 0 0); fill: rgb(105 105 105)"/>
<circle cx="-64.53623325976167" cy="36.190830083470686" r="0.4" style="stroke-width: 0.5; stroke: rgb(0 0 0); fill: rgb(105 105 105)"/>
<circle cx="34.00233713118395" cy="50.273464322543866" r="0.4" style="stroke-width: 0.5; stroke: rgb(0 0 0); fill: rgb(105 105 105)"/>
<circle cx="46.8684506733335" cy="21.08409125130447" r="0.4" style="stroke-width: 0.5; stroke: rgb(0 0 0); fill: rgb(105 105 105)"/>
<circle cx="52.64435115055974" cy="-32.94425756187401" r="0.4" style="stroke-width: 0.5; stroke: rgb(0 0 0); fill: rgb(105 105 105)"/>
<circle cx="-26.25468013352549" cy="-33.748439955491506" r="0.4" style="stroke-width: 0.5; stroke: rgb(0 0 0); fill: rgb(105 105 105)"/>
<circle cx="-59.92753348047667" cy="6.618339833058625" r="0.4" style="stroke-width: 0.5; stroke: rgb(0 0 0); fill: rgb(105 105 105)"/>
<circle cx="-51.00233713118395" cy="51.726535677456134" r="0.4" style="stroke-width: 0.5; stroke: rgb(0 0 0); fill: rgb(105 105 105)"/>
<circle cx="-49.975941155026725" cy="32.630704344916886" r="0.4" style="stroke-width: 0.5; stroke: rgb(0 0 0); fill: rgb(105 105 105)"/>
<circle cx="-13.97544043870317" cy="38.10662111344095" r="0.4" style="stroke-width: 0.5; stroke: rgb(0 0 0); fill: rgb(105 105 105)"/>
<circle cx="0.6100496356927358" cy="35.3822879881789" r="0.4" style="stroke-width: 0.5; stroke: rgb(0 0 0); fill: rgb(105 105 105)"/>
<circle cx="41.76403497627709" cy="36.26441718635091" r="0.4" style="stroke-width: 0.5; stroke: rgb(0 0 0); fill: rgb(105 105 105)"/>
<circle cx="44.52980447997328" cy="-11.287282968978392" r="0.4" style="stroke-width: 0.5; stroke: rgb(0 0 0); fill: rgb(105 105 105)"/>
<circle cx="7.497662868816045" cy="50.72653567745614" r="0.4" style="stroke-width: 0.5; stroke: rgb(0 0 0); fill: rgb(105 105 105)"/>
<circle cx="-31.64714189324387" cy="-9.857856982207311" r="0.4" style="stroke-width: 0.5; stroke: rgb(0 0 0); fill: rgb(105 105 105)"/>
<circle cx="14.021751511150805" cy="24.446025705743022" r="0.4" style="stroke-width: 0.5; stroke: rgb(0 0 0); fill: rgb(105 105 105)"/>
<circle cx="41.20186154326284" cy="9.09572873175734" r="0.4" style="stroke-width: 0.5; stroke: rgb(0 0 0); fill: rgb(105 105 105)"/>
<circle cx="67.28018639047338" cy="23.415097860810192" r="0.4" style="stroke-width: 0.5; stroke: rgb(0 0 0); fill: rgb(105 105 105)"/>
<circle cx="-16.870776004701092" cy="6.869732503303753" r="0.4" style="stroke-width: 0.5; stroke: rgb(0 0 0); fill: rgb(105 105 105)"/>
<circle cx="68.35564884944026" cy="-4.055742438125987" r="0.4" style="stroke-width: 0.5; stroke: rgb(0 0 0); fill: rgb(105 105 105)"/>
<circle cx="-44.704653795394805" cy="-15.298963679440632" r="0.4" style="stroke-width: 0.5; stroke: rgb(0 0 0); fill: rgb(105 105 105)"/>
<circle cx="-51.56689559131393" cy="11.445695290387661" r="0.4" style="stroke-width: 0.5; stroke: rgb(0 0 0); fill: rgb(105 105 105)"/>
<circle cx="57.15774906038094" cy="21.51902524274886" r="0.4" style="stroke-width: 0.5; stroke: rgb(0 0 0); fill: rgb(105 105 105)"/>
<circle cx="58.719813609526625" cy="36.58490213918981" r="0.4" style="stroke-width: 0.5; stroke: rgb(0 0 0); fill: rgb(105 105 105)"/>
<circle cx="43.96492176346902" cy="-23.847623476970725" r="0.4" style="stroke-width: 0.5; stroke: rgb(0 0 0); fill: rgb(105 105 105)"/>
<circle cx="-63.46376674023834" cy="29.309169916529306" r="0.4" style="stroke-width: 0.5; stroke: rgb(0 0 0); fill: rgb(105 105 105)"/>
<circle cx="-50.52478347006951" cy="-0.012863311135178357" r="0.4" style="stroke-width: 0.5; stroke: rgb(0 0 0); fill: rgb(105 105 105)"/>
<circle cx="-62.23188337011917" cy="21.404584958264657" r="0.4" style="stroke-width: 0.5; stroke: rgb(0 0 0); fill: rgb(105 105 105)"/>
<circle cx="-57.41108739799722" cy="33.77684352239004" r="0.4" style="stroke-width: 0.5; stroke: rgb(0 0 0); fill: rgb(105 105 105)"/>
<circle cx="-52.32524122827545" cy="42.07993000082696" r="0.4" style="stroke-width: 0.5; stroke: rgb(0 0 0); fill: rgb(105 105 105)"/>
<circle cx="54.831695141721866" cy="29.37411348861796" r="0.4" style="stroke-width: 0.5; stroke: rgb(0 0 0); fill: rgb(105 105 105)"/>
<circle cx="54.35990680476331" cy="43.292451069594904" r="0.4" style="stroke-width: 0.5; stroke: rgb(0 0 0); fill: rgb(105 105 105)"/>
<circle cx="64.20326741901795" cy="11.873612175862913" r="0.4" style="stroke-width: 0.5; stroke: rgb(0 0 0); fill: rgb(105 105 105)"/>
<circle cx="-54.85696714976554" cy="25.656311610172175" r="0.4" style="stroke-width: 0.5; stroke: rgb(0 0 0); fill: rgb(105 105 105)"/>
<circle cx="-42.18180586478401" cy="39.58516846361577" r="0.4" style="stroke-width: 0.5; stroke: rgb(0 0 0); fill: rgb(105 105 105)"/>
<circle cx="46.34587608484059" cy="42.85407527839576" r="0.4" style="stroke-width: 0.5; stroke: rgb(0 0 0); fill: rgb(105 105 105)"/>
<text dy="0" font-size="10" style="fill: rgb(0 0 0)" transform="translate (-75 -20) rotate (-33.2) translate(75 20)" x="-75" y="-20">
Max area: 200
</text>
</g>
</svg>