<svg viewBox="-79.1 -53.8 121.2 117.6" width="420" xmlns="http://www.w3.org/2000/svg" xmlns:xlink="http://www.w3.org/1999/xlink">
<defs>
<pattern height="1" id="rhs_pattern0001" patternTransform="rotate(63.512 0 0) scale(2)" patternUnits="userSpaceOnUse" width="1">
<line stroke="rgb(255 255 255)" stroke-width="1.01" x1="0" x2="0" y1="-0.1" y2="1.1"/>
<line stroke="rgb(211 211 211)" stroke-width="1.01" x1="1" x2="1" y1="-0.1" y2="1.1"/>
</pattern>
<marker fill="rgb(0 0 0)" id="rhs_filled_arrow0002" markerHeight="3" markerWidth="5" orient="auto" refX="4" refY="0.5" stroke="none">
<path d="M1,0 L4,0 L0,2 z" transform="scale(-1 1) translate (-5 0)"/>
</marker>
<marker fill="rgb(0 0 0)" id="rhs_filled_arrow0003" markerHeight="3" markerWidth="5" orient="auto" refX="4" refY="0.5" stroke="none">
<path d="M1,0 L4,0 L0,2 z" transform="scale(-1 1) translate (-5 0)"/>
</marker>
<marker fill="rgb(0 0 0)" id="rhs_filled_arrow0004" markerHeight="3" markerWidth="5" orient="auto" refX="4" refY="0.5" stroke="none">
<path d="M1,0 L4,0 L0,2 z" transform="scale(-1 1) translate (-5 0)"/>
</marker>
<marker fill="rgb(0 0 0)" id="rhs_filled_arrow0005" markerHeight="3" markerWidth="5" orient="auto" refX="4" refY="0.5" stroke="none">
<path d="M1,0 L4,0 L0,2 z" transform="scale(-1 1) translate (-5 0)"/>
</marker>
<marker fill="rgb(0 0 0)" id="rhs_filled_arrow0006" markerHeight="3" markerWidth="5" orient="auto" refX="4" refY="0.5" stroke="none">
<path d="M1,0 L4,0 L0,2 z" transform="scale(-1 1) translate (-5 0)"/>
</marker>
<marker fill="rgb(0 0 0)" id="rhs_filled_arrow0007" markerHeight="3" markerWidth="5" orient="auto" refX="4" refY="0.5" stroke="none">
<path d="M1,0 L4,0 L0,2 z" transform="scale(-1 1) translate (-5 0)"/>
</marker>
<marker fill="rgb(0 0 0)" id="rhs_filled_arrow0008" markerHeight="3" markerWidth="5" orient="auto" refX="4" refY="0.5" stroke="none">
<path d="M1,0 L4,0 L0,2 z" transform="scale(-1 1) translate (-5 0)"/>
</marker>
<marker fill="rgb(0 0 0)" id="rhs_filled_arrow0009" markerHeight="3" markerWidth="5" orient="auto" refX="4" refY="0.5" stroke="none">
<path d="M1,0 L4,0 L0,2 z" transform="scale(-1 1) translate (-5 0)"/>
</marker>
<marker fill="rgb(0 0 0)" id="rhs_filled_arrow0010" markerHeight="3" markerWidth="5" orient="auto" refX="4" refY="0.5" stroke="none">
<path d="M1,0 L4,0 L0,2 z" transform="scale(-1 1) translate (-5 0)"/>
</marker>
<marker fill="rgb(0 0 0)" id="rhs_filled_arrow0011" markerHeight="3" markerWidth="5" orient="auto" refX="4" refY="0.5" stroke="none">
<path d="M1,0 L4,0 L0,2 z" transform="scale(-1 1) translate (-5 0)"/>
</marker>
<marker fill="rgb(0 0 0)" id="rhs_filled_arrow0012" markerHeight="3" markerWidth="5" orient="auto" refX="4" refY="0.5" stroke="none">
<path d="M1,0 L4,0 L0,2 z" transform="scale(-1 1) translate (-5 0)"/>
</marker>
<marker fill="rgb(0 0 0)" id="rhs_filled_arrow0013" markerHeight="3" markerWidth="5" orient="auto" refX="4" refY="0.5" stroke="none">
<path d="M1,0 L4,0 L0,2 z" transform="scale(-1 1) translate (-5 0)"/>
</marker>
<marker fill="rgb(0 0 0)" id="rhs_filled_arrow0014" markerHeight="3" markerWidth="5" orient="auto" refX="4" refY="0.5" stroke="none">
<path d="M1,0 L4,0 L0,2 z" transform="scale(-1 1) translate (-5 0)"/>
</marker>
<marker fill="rgb(0 0 0)" id="rhs_filled_arrow0015" markerHeight="3" markerWidth="5" orient="auto" refX="4" refY="0.5" stroke="none">
<path d="M1,0 L4,0 L0,2 z" transform="scale(-1 1) translate (-5 0)"/>
</marker>
<marker fill="rgb(0 0 0)" id="rhs_filled_arrow0016" markerHeight="3" markerWidth="5" orient="auto" refX="4" refY="0.5" stroke="none">
<path d="M1,0 L4,0 L0,2 z" transform="scale(-1 1) translate (-5 0)"/>
</marker>
<marker fill="rgb(0 0 0)" id="rhs_filled_arrow0017" markerHeight="3" markerWidth="5" orient="auto" refX="4" refY="0.5" stroke="none">
<path d="M1,0 L4,0 L0,2 z" transform="scale(-1 1) translate (-5 0)"/>
</marker>
<marker fill="rgb(0 0 0)" id="rhs_filled_arrow0018" markerHeight="3" markerWidth="5" orient="auto" refX="4" refY="0.5" stroke="none">
<path d="M1,0 L4,0 L0,2 z" transform="scale(-1 1) translate (-5 0)"/>
</marker>
<marker fill="rgb(0 0 0)" id="rhs_filled_arrow0019" markerHeight="3" markerWidth="5" orient="auto" refX="4" refY="0.5" stroke="none">
<path d="M1,0 L4,0 L0,2 z" transform="scale(-1 1) translate (-5 0)"/>
</marker>
<marker fill="rgb(0 0 0)" id="rhs_filled_arrow0020" markerHeight="3" markerWidth="5" orient="auto" refX="4" refY="0.5" stroke="none">
<path d="M1,0 L4,0 L0,2 z" transform="scale(-1 1) translate (-5 0)"/>
</marker>
<marker fill="rgb(0 0 0)" id="rhs_filled_arrow0021" markerHeight="3" markerWidth="5" orient="auto" refX="4" refY="0.5" stroke="none">
<path d="M1,0 L4,0 L0,2 z" transform="scale(-1 1) translate (-5 0)"/>
</marker>
<marker fill="rgb(0 0 0)" id="rhs_filled_arrow0022" markerHeight="3" markerWidth="5" orient="auto" refX="4" refY="0.5" stroke="none">
<path d="M1,0 L4,0 L0,2 z" transform="scale(-1 1) translate (-5 0)"/>
</marker>
<marker fill="rgb(0 0 0)" id="rhs_filled_arrow0023" markerHeight="3" markerWidth="5" orient="auto" refX="4" refY="0.5" stroke="none">
<path d="M1,0 L4,0 L0,2 z" transform="scale(-1 1) translate (-5 0)"/>
</marker>
<marker fill="rgb(0 0 0)" id="rhs_filled_arrow0024" markerHeight="3" markerWidth="5" orient="auto" refX="4" refY="0.5" stroke="none">
<path d="M1,0 L4,0 L0,2 z" transform="scale(-1 1) translate (-5 0)"/>
</marker>
<marker fill="rgb(0 0 0)" id="rhs_filled_arrow0025" markerHeight="3" markerWidth="5" orient="auto" refX="4" refY="0.5" stroke="none">
<path d="M1,0 L4,0 L0,2 z" transform="scale(-1 1) translate (-5 0)"/>
</marker>
<marker fill="rgb(0 0 0)" id="rhs_filled_arrow0026" markerHeight="3" markerWidth="5" orient="auto" refX="4" refY="0.5" stroke="none">
<path d="M1,0 L4,0 L0,2 z" transform="scale(-1 1) translate (-5 0)"/>
</marker>
<marker fill="rgb(0 0 0)" id="rhs_filled_arrow0027" markerHeight="3" markerWidth="5" orient="auto" refX="4" refY="0.5" stroke="none">
<path d="M1,0 L4,0 L0,2 z" transform="scale(-1 1) translate (-5 0)"/>
</marker>
<marker fill="rgb(65 105 225)" id="rhs_filled_arrow0028" markerHeight="3" markerWidth="5" orient="auto" refX="4.9" refY="1.5" stroke="none">
<path d="M0,0 L5,1.5 L0,3 z" transform="scale(-1 1) translate (-5 0)"/>
</marker>
<marker fill="rgb(65 105 225)" id="rhs_filled_arrow0029" markerHeight="3" markerWidth="5" orient="auto" refX="4.9" refY="1.5" stroke="none">
<path d="M0,0 L5,1.5 L0,3 z" transform="scale(-1 1) translate (-5 0)"/>
</marker>
<marker fill="rgb(65 105 225)" id="rhs_filled_arrow0030" markerHeight="3" markerWidth="5" orient="auto" refX="4.9" refY="1.5" stroke="none">
<path d="M0,0 L5,1.5 L0,3 z" transform="scale(-1 1) translate (-5 0)"/>
</marker>
<marker fill="rgb(65 105 225)" id="rhs_filled_arrow0031" markerHeight="3" markerWidth="5" orient="auto" refX="4.9" refY="1.5" stroke="none">
<path d="M0,0 L5,1.5 L0,3 z" transform="scale(-1 1) translate (-5 0)"/>
</marker>
<marker fill="rgb(65 105 225)" id="rhs_filled_arrow0032" markerHeight="3" markerWidth="5" orient="auto" refX="4.9" refY="1.5" stroke="none">
<path d="M0,0 L5,1.5 L0,3 z" transform="scale(-1 1) translate (-5 0)"/>
</marker>
<marker fill="rgb(65 105 225)" id="rhs_filled_arrow0033" markerHeight="3" markerWidth="5" orient="auto" refX="4.9" refY="1.5" stroke="none">
<path d="M0,0 L5,1.5 L0,3 z" transform="scale(-1 1) translate (-5 0)"/>
</marker>
<marker fill="rgb(65 105 225)" id="rhs_filled_arrow0034" markerHeight="3" markerWidth="5" orient="auto" refX="4.9" refY="1.5" stroke="none">
<path d="M0,0 L5,1.5 L0,3 z" transform="scale(-1 1) translate (-5 0)"/>
</marker>
<marker fill="rgb(65 105 225)" id="rhs_filled_arrow0035" markerHeight="3" markerWidth="5" orient="auto" refX="4.9" refY="1.5" stroke="none">
<path d="M0,0 L5,1.5 L0,3 z" transform="scale(-1 1) translate (-5 0)"/>
</marker>
<marker fill="rgb(65 105 225)" id="rhs_filled_arrow0036" markerHeight="3" markerWidth="5" orient="auto" refX="4.9" refY="1.5" stroke="none">
<path d="M0,0 L5,1.5 L0,3 z" transform="scale(-1 1) translate (-5 0)"/>
</marker>
<marker fill="rgb(65 105 225)" id="rhs_filled_arrow0037" markerHeight="3" markerWidth="5" orient="auto" refX="4.9" refY="1.5" stroke="none">
<path d="M0,0 L5,1.5 L0,3 z" transform="scale(-1 1) translate (-5 0)"/>
</marker>
<marker fill="rgb(65 105 225)" id="rhs_filled_arrow0038" markerHeight="3" markerWidth="5" orient="auto" refX="4.9" refY="1.5" stroke="none">
<path d="M0,0 L5,1.5 L0,3 z" transform="scale(-1 1) translate (-5 0)"/>
</marker>
<marker fill="rgb(65 105 225)" id="rhs_filled_arrow0039" markerHeight="3" markerWidth="5" orient="auto" refX="4.9" refY="1.5" stroke="none">
<path d="M0,0 L5,1.5 L0,3 z" transform="scale(-1 1) translate (-5 0)"/>
</marker>
<marker fill="rgb(65 105 225)" id="rhs_filled_arrow0040" markerHeight="3" markerWidth="5" orient="auto" refX="4.9" refY="1.5" stroke="none">
<path d="M0,0 L5,1.5 L0,3 z" transform="scale(-1 1) translate (-5 0)"/>
</marker>
<marker fill="rgb(65 105 225)" id="rhs_filled_arrow0041" markerHeight="3" markerWidth="5" orient="auto" refX="4.9" refY="1.5" stroke="none">
<path d="M0,0 L5,1.5 L0,3 z" transform="scale(-1 1) translate (-5 0)"/>
</marker>
</defs>
<rect height="100%" style="fill: url(#rhs_pattern0001)" width="100%" x="-79.1" y="-53.8"/>
<g>
<path d="M-30,20 L-67,52 L-40,-24 z" style="fill: rgb(211 211 211)"/>
<path d="M-30,20 L-40,-24 L-5,0 z" style="fill: rgb(211 211 211)"/>
<path d="M-67,52 L-30,20 L15,42 z" style="fill: rgb(211 211 211)"/>
<path d="M-6,-42 L-5,0 L-40,-24 z" style="fill: rgb(211 211 211)"/>
<path d="M-5,0 L15,42 L-30,20 z" style="fill: rgb(211 211 211)"/>
<path d="M15,42 L-5,0 L30,2 z" style="fill: rgb(211 211 211)"/>
<path d="M-6,-42 L30,2 L-5,0 z" style="fill: rgb(211 211 211)"/>
<line style="stroke-width: 0.7; stroke: rgb(0 0 0); marker-start: url(#rhs_filled_arrow0002); fill: none" x1="-64.625" x2="-40.475" y1="47" y2="-20.975"/>
<line style="stroke-width: 0.7; stroke: rgb(0 0 0); marker-start: url(#rhs_filled_arrow0003); fill: none" x1="-42.375" x2="-66.525" y1="-19" y2="48.975"/>
<line style="stroke-width: 0.7; stroke: rgb(0 0 0); marker-start: url(#rhs_filled_arrow0004); fill: none" x1="-39.325" x2="-31.2" y1="-18.525" y2="17.2"/>
<line style="stroke-width: 0.7; stroke: rgb(0 0 0); marker-start: url(#rhs_filled_arrow0005); fill: none" x1="-30.675" x2="-38.8" y1="14.525" y2="-21.2"/>
<line style="stroke-width: 0.7; stroke: rgb(0 0 0); marker-start: url(#rhs_filled_arrow0006); fill: none" x1="-34.525" x2="-65.1" y1="23.175" y2="49.625"/>
<line style="stroke-width: 0.7; stroke: rgb(0 0 0); marker-start: url(#rhs_filled_arrow0007); fill: none" x1="-62.475" x2="-31.9" y1="48.825" y2="22.375"/>
<line style="stroke-width: 0.7; stroke: rgb(0 0 0); marker-start: url(#rhs_filled_arrow0008); fill: none" x1="-34.875" x2="-8.4" y1="-26.075" y2="-40.1"/>
<line style="stroke-width: 0.7; stroke: rgb(0 0 0); marker-start: url(#rhs_filled_arrow0009); fill: none" x1="-11.125" x2="-37.6" y1="-39.925" y2="-25.9"/>
<line style="stroke-width: 0.7; stroke: rgb(0 0 0); marker-start: url(#rhs_filled_arrow0010); fill: none" x1="-35.775" x2="-7.8" y1="-20.425" y2="-1.225"/>
<line style="stroke-width: 0.7; stroke: rgb(0 0 0); marker-start: url(#rhs_filled_arrow0011); fill: none" x1="-9.225" x2="-37.2" y1="-3.575" y2="-22.775"/>
<line style="stroke-width: 0.7; stroke: rgb(0 0 0); marker-start: url(#rhs_filled_arrow0012); fill: none" x1="-25.35" x2="-7" y1="17" y2="2.3"/>
<line style="stroke-width: 0.7; stroke: rgb(0 0 0); marker-start: url(#rhs_filled_arrow0013); fill: none" x1="-9.65" x2="-28" y1="3" y2="17.7"/>
<line style="stroke-width: 0.7; stroke: rgb(0 0 0); marker-start: url(#rhs_filled_arrow0014); fill: none" x1="-25.3" x2="12.05" y1="22.925" y2="41.175"/>
<line style="stroke-width: 0.7; stroke: rgb(0 0 0); marker-start: url(#rhs_filled_arrow0015); fill: none" x1="10.3" x2="-27.05" y1="39.075" y2="20.825"/>
<line style="stroke-width: 0.7; stroke: rgb(0 0 0); marker-start: url(#rhs_filled_arrow0016); fill: none" x1="-6.425" x2="-5.625" y1="-36.5" y2="-2.975"/>
<line style="stroke-width: 0.7; stroke: rgb(0 0 0); marker-start: url(#rhs_filled_arrow0017); fill: none" x1="-4.575" x2="-5.375" y1="-5.5" y2="-39.025"/>
<line style="stroke-width: 0.7; stroke: rgb(0 0 0); marker-start: url(#rhs_filled_arrow0018); fill: none" x1="-3.15" x2="13.2" y1="5.2" y2="39.525"/>
<line style="stroke-width: 0.7; stroke: rgb(0 0 0); marker-start: url(#rhs_filled_arrow0019); fill: none" x1="13.15" x2="-3.2" y1="36.8" y2="2.475"/>
<line style="stroke-width: 0.7; stroke: rgb(0 0 0); marker-start: url(#rhs_filled_arrow0020); fill: none" x1="9.475" x2="-64.1" y1="42.1" y2="51.075"/>
<line style="stroke-width: 0.7; stroke: rgb(0 0 0); marker-start: url(#rhs_filled_arrow0021); fill: none" x1="-61.475" x2="12.1" y1="51.9" y2="42.925"/>
<line style="stroke-width: 0.7; stroke: rgb(0 0 0); marker-start: url(#rhs_filled_arrow0022); fill: none" x1="0.45" x2="26.975" y1="0.875" y2="2.4"/>
<line style="stroke-width: 0.7; stroke: rgb(0 0 0); marker-start: url(#rhs_filled_arrow0023); fill: none" x1="24.55" x2="-1.975" y1="1.125" y2="-0.4"/>
<line style="stroke-width: 0.7; stroke: rgb(0 0 0); marker-start: url(#rhs_filled_arrow0024); fill: none" x1="-2.95" x2="27.675" y1="-37.4" y2="0.025"/>
<line style="stroke-width: 0.7; stroke: rgb(0 0 0); marker-start: url(#rhs_filled_arrow0025); fill: none" x1="26.95" x2="-3.675" y1="-2.6" y2="-40.025"/>
<line style="stroke-width: 0.7; stroke: rgb(0 0 0); marker-start: url(#rhs_filled_arrow0026); fill: none" x1="27.55" x2="15.525" y1="6.95" y2="39"/>
<line style="stroke-width: 0.7; stroke: rgb(0 0 0); marker-start: url(#rhs_filled_arrow0027); fill: none" x1="17.45" x2="29.475" y1="37.05" y2="5"/>
<circle cx="-67" cy="52" r="2" style="stroke-width: 0.5; stroke: rgb(0 0 0); fill: rgb(105 105 105)"/>
<circle cx="-40" cy="-24" r="2" style="stroke-width: 0.5; stroke: rgb(0 0 0); fill: rgb(105 105 105)"/>
<circle cx="-30" cy="20" r="2" style="stroke-width: 0.5; stroke: rgb(0 0 0); fill: rgb(105 105 105)"/>
<circle cx="-6" cy="-42" r="2" style="stroke-width: 0.5; stroke: rgb(0 0 0); fill: rgb(105 105 105)"/>
<circle cx="-5" cy="0" r="2" style="stroke-width: 0.5; stroke: rgb(0 0 0); fill: rgb(105 105 105)"/>
<circle cx="15" cy="42" r="2" style="stroke-width: 0.5; stroke: rgb(0 0 0); fill: rgb(105 105 105)"/>
<circle cx="30" cy="2" r="2" style="stroke-width: 0.5; stroke: rgb(0 0 0); fill: rgb(105 105 105)"/>
<path d="M-45.675,11.5 A4.5,4.5,0,0,1,-42.774124,19.4472" style="stroke-width: 1; stroke: rgb(65 105 225); marker-start: url(#rhs_filled_arrow0028); fill: none"/>
<path d="M-45.675,20.5 A4.5,4.5,0,0,1,-48.55921,12.5528" style="stroke-width: 1; stroke: rgb(65 105 225); marker-start: url(#rhs_filled_arrow0029); fill: none"/>
<path d="M-25,-5.825 A4.5,4.5,0,0,1,-22.107456,2.1138666" style="stroke-width: 1; stroke: rgb(65 105 225); marker-start: url(#rhs_filled_arrow0030); fill: none"/>
<path d="M-25,3.175 A4.5,4.5,0,0,1,-27.892544,-4.7805333" style="stroke-width: 1; stroke: rgb(65 105 225); marker-start: url(#rhs_filled_arrow0031); fill: none"/>
<path d="M-27.325,33.5 A4.5,4.5,0,0,1,-24.440788,41.4472" style="stroke-width: 1; stroke: rgb(65 105 225); marker-start: url(#rhs_filled_arrow0032); fill: none"/>
<path d="M-27.325,42.5 A4.5,4.5,0,0,1,-30.225878,34.5528" style="stroke-width: 1; stroke: rgb(65 105 225); marker-start: url(#rhs_filled_arrow0033); fill: none"/>
<path d="M-17,-26.5 A4.5,4.5,0,0,1,-14.107456,-18.5528" style="stroke-width: 1; stroke: rgb(65 105 225); marker-start: url(#rhs_filled_arrow0034); fill: none"/>
<path d="M-17,-17.5 A4.5,4.5,0,0,1,-19.892544,-25.4472" style="stroke-width: 1; stroke: rgb(65 105 225); marker-start: url(#rhs_filled_arrow0035); fill: none"/>
<path d="M-6.675,16.175 A4.5,4.5,0,0,1,-3.7741225,24.113867" style="stroke-width: 1; stroke: rgb(65 105 225); marker-start: url(#rhs_filled_arrow0036); fill: none"/>
<path d="M-6.675,25.175 A4.5,4.5,0,0,1,-9.559211,17.219467" style="stroke-width: 1; stroke: rgb(65 105 225); marker-start: url(#rhs_filled_arrow0037); fill: none"/>
<path d="M13.325,10.175 A4.5,4.5,0,0,1,16.225878,18.113867" style="stroke-width: 1; stroke: rgb(65 105 225); marker-start: url(#rhs_filled_arrow0038); fill: none"/>
<path d="M13.325,19.175 A4.5,4.5,0,0,1,10.440789,11.219466" style="stroke-width: 1; stroke: rgb(65 105 225); marker-start: url(#rhs_filled_arrow0039); fill: none"/>
<path d="M6.325,-17.825 A4.5,4.5,0,0,1,9.225878,-9.886133" style="stroke-width: 1; stroke: rgb(65 105 225); marker-start: url(#rhs_filled_arrow0040); fill: none"/>
<path d="M6.325,-8.825 A4.5,4.5,0,0,1,3.440789,-16.780533" style="stroke-width: 1; stroke: rgb(65 105 225); marker-start: url(#rhs_filled_arrow0041); fill: none"/>
</g>
</svg>