<svg viewBox="-79.1 -53.8 121.2 117.6" width="420" xmlns="http://www.w3.org/2000/svg" xmlns:xlink="http://www.w3.org/1999/xlink">
<defs>
<pattern height="1" id="rhs_pattern0001" patternTransform="rotate(63.512 0 0) scale(2)" patternUnits="userSpaceOnUse" width="1">
<line stroke="rgb(255 255 255)" stroke-width="1.01" x1="0" x2="0" y1="-0.1" y2="1.1"/>
<line stroke="rgb(211 211 211)" stroke-width="1.01" x1="1" x2="1" y1="-0.1" y2="1.1"/>
</pattern>
<marker fill="rgb(0 0 0)" id="rhs_filled_arrow0002" markerHeight="3" markerWidth="5" orient="auto" refX="4" refY="0.5" stroke="none">
<path d="M1,0 L4,0 L0,2 z" transform="scale(-1 1) translate (-5 0)"/>
</marker>
<marker fill="rgb(0 0 0)" id="rhs_filled_arrow0003" markerHeight="3" markerWidth="5" orient="auto" refX="4" refY="0.5" stroke="none">
<path d="M1,0 L4,0 L0,2 z" transform="scale(-1 1) translate (-5 0)"/>
</marker>
<marker fill="rgb(0 0 0)" id="rhs_filled_arrow0004" markerHeight="3" markerWidth="5" orient="auto" refX="4" refY="0.5" stroke="none">
<path d="M1,0 L4,0 L0,2 z" transform="scale(-1 1) translate (-5 0)"/>
</marker>
<marker fill="rgb(0 0 0)" id="rhs_filled_arrow0005" markerHeight="3" markerWidth="5" orient="auto" refX="4" refY="0.5" stroke="none">
<path d="M1,0 L4,0 L0,2 z" transform="scale(-1 1) translate (-5 0)"/>
</marker>
<marker fill="rgb(0 0 0)" id="rhs_filled_arrow0006" markerHeight="3" markerWidth="5" orient="auto" refX="4" refY="0.5" stroke="none">
<path d="M1,0 L4,0 L0,2 z" transform="scale(-1 1) translate (-5 0)"/>
</marker>
<marker fill="rgb(0 0 0)" id="rhs_filled_arrow0007" markerHeight="3" markerWidth="5" orient="auto" refX="4" refY="0.5" stroke="none">
<path d="M1,0 L4,0 L0,2 z" transform="scale(-1 1) translate (-5 0)"/>
</marker>
<marker fill="rgb(0 0 0)" id="rhs_filled_arrow0008" markerHeight="3" markerWidth="5" orient="auto" refX="4" refY="0.5" stroke="none">
<path d="M1,0 L4,0 L0,2 z" transform="scale(-1 1) translate (-5 0)"/>
</marker>
<marker fill="rgb(0 0 0)" id="rhs_filled_arrow0009" markerHeight="3" markerWidth="5" orient="auto" refX="4" refY="0.5" stroke="none">
<path d="M1,0 L4,0 L0,2 z" transform="scale(-1 1) translate (-5 0)"/>
</marker>
<marker fill="rgb(0 0 0)" id="rhs_filled_arrow0010" markerHeight="3" markerWidth="5" orient="auto" refX="4" refY="0.5" stroke="none">
<path d="M1,0 L4,0 L0,2 z" transform="scale(-1 1) translate (-5 0)"/>
</marker>
<marker fill="rgb(0 0 0)" id="rhs_filled_arrow0011" markerHeight="3" markerWidth="5" orient="auto" refX="4" refY="0.5" stroke="none">
<path d="M1,0 L4,0 L0,2 z" transform="scale(-1 1) translate (-5 0)"/>
</marker>
<marker fill="rgb(0 0 0)" id="rhs_filled_arrow0012" markerHeight="3" markerWidth="5" orient="auto" refX="4" refY="0.5" stroke="none">
<path d="M1,0 L4,0 L0,2 z" transform="scale(-1 1) translate (-5 0)"/>
</marker>
<marker fill="rgb(0 0 0)" id="rhs_filled_arrow0013" markerHeight="3" markerWidth="5" orient="auto" refX="4" refY="0.5" stroke="none">
<path d="M1,0 L4,0 L0,2 z" transform="scale(-1 1) translate (-5 0)"/>
</marker>
<marker fill="rgb(0 0 0)" id="rhs_filled_arrow0014" markerHeight="3" markerWidth="5" orient="auto" refX="4" refY="0.5" stroke="none">
<path d="M1,0 L4,0 L0,2 z" transform="scale(-1 1) translate (-5 0)"/>
</marker>
<marker fill="rgb(0 0 0)" id="rhs_filled_arrow0015" markerHeight="3" markerWidth="5" orient="auto" refX="4" refY="0.5" stroke="none">
<path d="M1,0 L4,0 L0,2 z" transform="scale(-1 1) translate (-5 0)"/>
</marker>
<marker fill="rgb(0 0 0)" id="rhs_filled_arrow0016" markerHeight="3" markerWidth="5" orient="auto" refX="4" refY="0.5" stroke="none">
<path d="M1,0 L4,0 L0,2 z" transform="scale(-1 1) translate (-5 0)"/>
</marker>
<marker fill="rgb(0 0 0)" id="rhs_filled_arrow0017" markerHeight="3" markerWidth="5" orient="auto" refX="4" refY="0.5" stroke="none">
<path d="M1,0 L4,0 L0,2 z" transform="scale(-1 1) translate (-5 0)"/>
</marker>
<marker fill="rgb(0 0 0)" id="rhs_filled_arrow0018" markerHeight="3" markerWidth="5" orient="auto" refX="4" refY="0.5" stroke="none">
<path d="M1,0 L4,0 L0,2 z" transform="scale(-1 1) translate (-5 0)"/>
</marker>
<marker fill="rgb(0 0 0)" id="rhs_filled_arrow0019" markerHeight="3" markerWidth="5" orient="auto" refX="4" refY="0.5" stroke="none">
<path d="M1,0 L4,0 L0,2 z" transform="scale(-1 1) translate (-5 0)"/>
</marker>
<marker fill="rgb(0 0 0)" id="rhs_filled_arrow0020" markerHeight="3" markerWidth="5" orient="auto" refX="4" refY="0.5" stroke="none">
<path d="M1,0 L4,0 L0,2 z" transform="scale(-1 1) translate (-5 0)"/>
</marker>
<marker fill="rgb(0 0 0)" id="rhs_filled_arrow0021" markerHeight="3" markerWidth="5" orient="auto" refX="4" refY="0.5" stroke="none">
<path d="M1,0 L4,0 L0,2 z" transform="scale(-1 1) translate (-5 0)"/>
</marker>
<marker fill="rgb(0 0 0)" id="rhs_filled_arrow0022" markerHeight="3" markerWidth="5" orient="auto" refX="4" refY="0.5" stroke="none">
<path d="M1,0 L4,0 L0,2 z" transform="scale(-1 1) translate (-5 0)"/>
</marker>
<marker fill="rgb(0 0 0)" id="rhs_filled_arrow0023" markerHeight="3" markerWidth="5" orient="auto" refX="4" refY="0.5" stroke="none">
<path d="M1,0 L4,0 L0,2 z" transform="scale(-1 1) translate (-5 0)"/>
</marker>
<marker fill="rgb(0 0 0)" id="rhs_filled_arrow0024" markerHeight="3" markerWidth="5" orient="auto" refX="4" refY="0.5" stroke="none">
<path d="M1,0 L4,0 L0,2 z" transform="scale(-1 1) translate (-5 0)"/>
</marker>
<marker fill="rgb(0 0 0)" id="rhs_filled_arrow0025" markerHeight="3" markerWidth="5" orient="auto" refX="4" refY="0.5" stroke="none">
<path d="M1,0 L4,0 L0,2 z" transform="scale(-1 1) translate (-5 0)"/>
</marker>
<marker fill="rgb(0 0 0)" id="rhs_filled_arrow0026" markerHeight="3" markerWidth="5" orient="auto" refX="4" refY="0.5" stroke="none">
<path d="M1,0 L4,0 L0,2 z" transform="scale(-1 1) translate (-5 0)"/>
</marker>
<marker fill="rgb(0 0 0)" id="rhs_filled_arrow0027" markerHeight="3" markerWidth="5" orient="auto" refX="4" refY="0.5" stroke="none">
<path d="M1,0 L4,0 L0,2 z" transform="scale(-1 1) translate (-5 0)"/>
</marker>
<marker fill="rgb(65 105 225)" id="rhs_filled_arrow0028" markerHeight="3" markerWidth="5" orient="auto" refX="4.9" refY="1.5" stroke="none">
<path d="M0,0 L5,1.5 L0,3 z" transform="scale(-1 1) translate (-5 0)"/>
</marker>
<marker fill="rgb(65 105 225)" id="rhs_filled_arrow0029" markerHeight="3" markerWidth="5" orient="auto" refX="4.9" refY="1.5" stroke="none">
<path d="M0,0 L5,1.5 L0,3 z" transform="scale(-1 1) translate (-5 0)"/>
</marker>
<marker fill="rgb(65 105 225)" id="rhs_filled_arrow0030" markerHeight="3" markerWidth="5" orient="auto" refX="4.9" refY="1.5" stroke="none">
<path d="M0,0 L5,1.5 L0,3 z" transform="scale(-1 1) translate (-5 0)"/>
</marker>
<marker fill="rgb(65 105 225)" id="rhs_filled_arrow0031" markerHeight="3" markerWidth="5" orient="auto" refX="4.9" refY="1.5" stroke="none">
<path d="M0,0 L5,1.5 L0,3 z" transform="scale(-1 1) translate (-5 0)"/>
</marker>
<marker fill="rgb(65 105 225)" id="rhs_filled_arrow0032" markerHeight="3" markerWidth="5" orient="auto" refX="4.9" refY="1.5" stroke="none">
<path d="M0,0 L5,1.5 L0,3 z" transform="scale(-1 1) translate (-5 0)"/>
</marker>
<marker fill="rgb(65 105 225)" id="rhs_filled_arrow0033" markerHeight="3" markerWidth="5" orient="auto" refX="4.9" refY="1.5" stroke="none">
<path d="M0,0 L5,1.5 L0,3 z" transform="scale(-1 1) translate (-5 0)"/>
</marker>
<marker fill="rgb(65 105 225)" id="rhs_filled_arrow0034" markerHeight="3" markerWidth="5" orient="auto" refX="4.9" refY="1.5" stroke="none">
<path d="M0,0 L5,1.5 L0,3 z" transform="scale(-1 1) translate (-5 0)"/>
</marker>
<marker fill="rgb(65 105 225)" id="rhs_filled_arrow0035" markerHeight="3" markerWidth="5" orient="auto" refX="4.9" refY="1.5" stroke="none">
<path d="M0,0 L5,1.5 L0,3 z" transform="scale(-1 1) translate (-5 0)"/>
</marker>
<marker fill="rgb(65 105 225)" id="rhs_filled_arrow0036" markerHeight="3" markerWidth="5" orient="auto" refX="4.9" refY="1.5" stroke="none">
<path d="M0,0 L5,1.5 L0,3 z" transform="scale(-1 1) translate (-5 0)"/>
</marker>
<marker fill="rgb(65 105 225)" id="rhs_filled_arrow0037" markerHeight="3" markerWidth="5" orient="auto" refX="4.9" refY="1.5" stroke="none">
<path d="M0,0 L5,1.5 L0,3 z" transform="scale(-1 1) translate (-5 0)"/>
</marker>
<marker fill="rgb(65 105 225)" id="rhs_filled_arrow0038" markerHeight="3" markerWidth="5" orient="auto" refX="4.9" refY="1.5" stroke="none">
<path d="M0,0 L5,1.5 L0,3 z" transform="scale(-1 1) translate (-5 0)"/>
</marker>
<marker fill="rgb(65 105 225)" id="rhs_filled_arrow0039" markerHeight="3" markerWidth="5" orient="auto" refX="4.9" refY="1.5" stroke="none">
<path d="M0,0 L5,1.5 L0,3 z" transform="scale(-1 1) translate (-5 0)"/>
</marker>
<marker fill="rgb(65 105 225)" id="rhs_filled_arrow0040" markerHeight="3" markerWidth="5" orient="auto" refX="4.9" refY="1.5" stroke="none">
<path d="M0,0 L5,1.5 L0,3 z" transform="scale(-1 1) translate (-5 0)"/>
</marker>
<marker fill="rgb(65 105 225)" id="rhs_filled_arrow0041" markerHeight="3" markerWidth="5" orient="auto" refX="4.9" refY="1.5" stroke="none">
<path d="M0,0 L5,1.5 L0,3 z" transform="scale(-1 1) translate (-5 0)"/>
</marker>
</defs>
<rect height="100%" style="fill: url(#rhs_pattern0001)" width="100%" x="-79.1" y="-53.8"/>
<g>
<path d="M-30,20 L-67,52 L-40,-24 z" style="fill: rgb(211 211 211)"/>
<path d="M-30,20 L-40,-24 L-5,0 z" style="fill: rgb(211 211 211)"/>
<path d="M-67,52 L-30,20 L15,42 z" style="fill: rgb(211 211 211)"/>
<path d="M-6,-42 L-5,0 L-40,-24 z" style="fill: rgb(211 211 211)"/>
<path d="M-5,0 L15,42 L-30,20 z" style="fill: rgb(211 211 211)"/>
<path d="M15,42 L-5,0 L30,2 z" style="fill: rgb(211 211 211)"/>
<path d="M-6,-42 L30,2 L-5,0 z" style="fill: rgb(211 211 211)"/>
<line style="stroke-width: 0.7; stroke: rgb(0 0 0); marker-start: url(#rhs_filled_arrow0002); fill: none" x1="-64.6311032999071" x2="-40.47660624490511" y1="47.00480947067191" y2="-20.98562668414852"/>
<line style="stroke-width: 0.7; stroke: rgb(0 0 0); marker-start: url(#rhs_filled_arrow0003); fill: none" x1="-42.36889670009288" x2="-66.52339375509489" y1="-19.004809470671916" y2="48.98562668414852"/>
<line style="stroke-width: 0.7; stroke: rgb(0 0 0); marker-start: url(#rhs_filled_arrow0004); fill: none" x1="-39.327158329503895" x2="-31.21093771001012" y1="-18.51266147513715" y2="17.198709250635442"/>
<line style="stroke-width: 0.7; stroke: rgb(0 0 0); marker-start: url(#rhs_filled_arrow0005); fill: none" x1="-30.67284167049611" x2="-38.78906228998988" y1="14.512661475137149" y2="-21.198709250635442"/>
<line style="stroke-width: 0.7; stroke: rgb(0 0 0); marker-start: url(#rhs_filled_arrow0006); fill: none" x1="-34.52632253092848" x2="-65.09723556508526" y1="23.174272254550516" y2="49.61398082463205"/>
<line style="stroke-width: 0.7; stroke: rgb(0 0 0); marker-start: url(#rhs_filled_arrow0007); fill: none" x1="-62.47367746907152" x2="-31.902764434914747" y1="48.82572774544949" y2="22.386019175367952"/>
<line style="stroke-width: 0.7; stroke: rgb(0 0 0); marker-start: url(#rhs_filled_arrow0008); fill: none" x1="-34.877149336656494" x2="-8.389346625606526" y1="-26.078461229150328" y2="-40.10141560558854"/>
<line style="stroke-width: 0.7; stroke: rgb(0 0 0); marker-start: url(#rhs_filled_arrow0009); fill: none" x1="-11.122850663343497" x2="-37.61065337439347" y1="-39.92153877084968" y2="-25.898584394411454"/>
<line style="stroke-width: 0.7; stroke: rgb(0 0 0); marker-start: url(#rhs_filled_arrow0010); fill: none" x1="-35.78068719395598" x2="-7.790882434646789" y1="-20.427745887432856" y2="-1.2347369096208352"/>
<line style="stroke-width: 0.7; stroke: rgb(0 0 0); marker-start: url(#rhs_filled_arrow0011); fill: none" x1="-9.219312806044023" x2="-37.20911756535321" y1="-3.572254112567149" y2="-22.765263090379165"/>
<line style="stroke-width: 0.7; stroke: rgb(0 0 0); marker-start: url(#rhs_filled_arrow0012); fill: none" x1="-25.355392321432856" x2="-6.992777201698614" y1="17.001463771738766" y2="2.31137167595137"/>
<line style="stroke-width: 0.7; stroke: rgb(0 0 0); marker-start: url(#rhs_filled_arrow0013); fill: none" x1="-9.644607678567144" x2="-28.007222798301385" y1="2.9985362282612367" y2="17.68862832404863"/>
<line style="stroke-width: 0.7; stroke: rgb(0 0 0); marker-start: url(#rhs_filled_arrow0014); fill: none" x1="-25.304843688867162" x2="12.05888924331963" y1="22.918750968141936" y2="41.185464846099926"/>
<line style="stroke-width: 0.7; stroke: rgb(0 0 0); marker-start: url(#rhs_filled_arrow0015); fill: none" x1="10.304843688867162" x2="-27.05888924331963" y1="39.081249031858064" y2="20.814535153900074"/>
<line style="stroke-width: 0.7; stroke: rgb(0 0 0); marker-start: url(#rhs_filled_arrow0016); fill: none" x1="-6.428926058592127" x2="-5.631249671135583" y1="-36.48822873875733" y2="-2.9858204655824867"/>
<line style="stroke-width: 0.7; stroke: rgb(0 0 0); marker-start: url(#rhs_filled_arrow0017); fill: none" x1="-4.571073941407873" x2="-5.368750328864417" y1="-5.511771261242671" y2="-39.014179534417515"/>
<line style="stroke-width: 0.7; stroke: rgb(0 0 0); marker-start: url(#rhs_filled_arrow0018); fill: none" x1="-3.140967198383488" x2="13.204597368281556" y1="5.206495658551331" y2="39.53218124854792"/>
<line style="stroke-width: 0.7; stroke: rgb(0 0 0); marker-start: url(#rhs_filled_arrow0019); fill: none" x1="13.140967198383489" x2="-3.2045973682815556" y1="36.79350434144867" y2="2.4678187514520764"/>
<line style="stroke-width: 0.7; stroke: rgb(0 0 0); marker-start: url(#rhs_filled_arrow0020); fill: none" x1="9.472657223297924" x2="-64.08985281752261" y1="42.10991737278242" y2="51.08095518263858"/>
<line style="stroke-width: 0.7; stroke: rgb(0 0 0); marker-start: url(#rhs_filled_arrow0021); fill: none" x1="-61.47265722329793" x2="12.089852817522605" y1="51.89008262721758" y2="42.91904481736142"/>
<line style="stroke-width: 0.7; stroke: rgb(0 0 0); marker-start: url(#rhs_filled_arrow0022); fill: none" x1="0.4590944566303037" x2="26.972938114026505" y1="0.872861795239248" y2="2.387938575661888"/>
<line style="stroke-width: 0.7; stroke: rgb(0 0 0); marker-start: url(#rhs_filled_arrow0023); fill: none" x1="24.540905543369696" x2="-1.9729381140265032" y1="1.127138204760752" y2="-0.387938575661888"/>
<line style="stroke-width: 0.7; stroke: rgb(0 0 0); marker-start: url(#rhs_filled_arrow0024); fill: none" x1="-2.950608241138914" x2="27.666870541674353" y1="-37.38862169183766" y2="0.032741264934104064"/>
<line style="stroke-width: 0.7; stroke: rgb(0 0 0); marker-start: url(#rhs_filled_arrow0025); fill: none" x1="26.950608241138912" x2="-3.666870541674352" y1="-2.6113783081623327" y2="-40.0327412649341"/>
<line style="stroke-width: 0.7; stroke: rgb(0 0 0); marker-start: url(#rhs_filled_arrow0026); fill: none" x1="27.54447673182518" x2="15.529025985326511" y1="6.9531813493402455" y2="38.99438334000337"/>
<line style="stroke-width: 0.7; stroke: rgb(0 0 0); marker-start: url(#rhs_filled_arrow0027); fill: none" x1="17.45552326817482" x2="29.470974014673487" y1="37.04681865065975" y2="5.005616659996633"/>
<circle cx="-67" cy="52" r="2" style="stroke-width: 0.5; stroke: rgb(0 0 0); fill: rgb(105 105 105)"/>
<circle cx="-40" cy="-24" r="2" style="stroke-width: 0.5; stroke: rgb(0 0 0); fill: rgb(105 105 105)"/>
<circle cx="-30" cy="20" r="2" style="stroke-width: 0.5; stroke: rgb(0 0 0); fill: rgb(105 105 105)"/>
<circle cx="-6" cy="-42" r="2" style="stroke-width: 0.5; stroke: rgb(0 0 0); fill: rgb(105 105 105)"/>
<circle cx="-5" cy="0" r="2" style="stroke-width: 0.5; stroke: rgb(0 0 0); fill: rgb(105 105 105)"/>
<circle cx="15" cy="42" r="2" style="stroke-width: 0.5; stroke: rgb(0 0 0); fill: rgb(105 105 105)"/>
<circle cx="30" cy="2" r="2" style="stroke-width: 0.5; stroke: rgb(0 0 0); fill: rgb(105 105 105)"/>
<path d="M-45.666668,11.5 A4.5,4.5,0,0,1,-42.774124,19.4472" style="stroke-width: 1; stroke: rgb(65 105 225); marker-start: url(#rhs_filled_arrow0028); fill: none"/>
<path d="M-45.666668,20.5 A4.5,4.5,0,0,1,-48.55921,12.5528" style="stroke-width: 1; stroke: rgb(65 105 225); marker-start: url(#rhs_filled_arrow0029); fill: none"/>
<path d="M-25,-5.8333335 A4.5,4.5,0,0,1,-22.107456,2.1138666" style="stroke-width: 1; stroke: rgb(65 105 225); marker-start: url(#rhs_filled_arrow0030); fill: none"/>
<path d="M-25,3.1666667 A4.5,4.5,0,0,1,-27.892544,-4.7805333" style="stroke-width: 1; stroke: rgb(65 105 225); marker-start: url(#rhs_filled_arrow0031); fill: none"/>
<path d="M-27.333334,33.5 A4.5,4.5,0,0,1,-24.440788,41.4472" style="stroke-width: 1; stroke: rgb(65 105 225); marker-start: url(#rhs_filled_arrow0032); fill: none"/>
<path d="M-27.333334,42.5 A4.5,4.5,0,0,1,-30.225878,34.5528" style="stroke-width: 1; stroke: rgb(65 105 225); marker-start: url(#rhs_filled_arrow0033); fill: none"/>
<path d="M-17,-26.5 A4.5,4.5,0,0,1,-14.107456,-18.5528" style="stroke-width: 1; stroke: rgb(65 105 225); marker-start: url(#rhs_filled_arrow0034); fill: none"/>
<path d="M-17,-17.5 A4.5,4.5,0,0,1,-19.892544,-25.4472" style="stroke-width: 1; stroke: rgb(65 105 225); marker-start: url(#rhs_filled_arrow0035); fill: none"/>
<path d="M-6.6666665,16.166666 A4.5,4.5,0,0,1,-3.7741225,24.113867" style="stroke-width: 1; stroke: rgb(65 105 225); marker-start: url(#rhs_filled_arrow0036); fill: none"/>
<path d="M-6.6666665,25.166666 A4.5,4.5,0,0,1,-9.559211,17.219467" style="stroke-width: 1; stroke: rgb(65 105 225); marker-start: url(#rhs_filled_arrow0037); fill: none"/>
<path d="M13.333333,10.166667 A4.5,4.5,0,0,1,16.225878,18.113867" style="stroke-width: 1; stroke: rgb(65 105 225); marker-start: url(#rhs_filled_arrow0038); fill: none"/>
<path d="M13.333333,19.166666 A4.5,4.5,0,0,1,10.440789,11.219466" style="stroke-width: 1; stroke: rgb(65 105 225); marker-start: url(#rhs_filled_arrow0039); fill: none"/>
<path d="M6.3333335,-17.833334 A4.5,4.5,0,0,1,9.225878,-9.886133" style="stroke-width: 1; stroke: rgb(65 105 225); marker-start: url(#rhs_filled_arrow0040); fill: none"/>
<path d="M6.3333335,-8.833333 A4.5,4.5,0,0,1,3.440789,-16.780533" style="stroke-width: 1; stroke: rgb(65 105 225); marker-start: url(#rhs_filled_arrow0041); fill: none"/>
</g>
</svg>