<svg viewBox="-17.7 -35.7 80.4 68.4" width="400" xmlns="http://www.w3.org/2000/svg" xmlns:xlink="http://www.w3.org/1999/xlink">
<defs>
<pattern height="1" id="voronoi_edge_details_pattern0001" patternTransform="rotate(63.512 0 0) scale(2)" patternUnits="userSpaceOnUse" width="1">
<line stroke="rgb(255 255 255)" stroke-width="1.01" x1="0" x2="0" y1="-0.1" y2="1.1"/>
<line stroke="rgb(211 211 211)" stroke-width="1.01" x1="1" x2="1" y1="-0.1" y2="1.1"/>
</pattern>
<marker fill="rgb(65 105 225)" id="voronoi_edge_details_filled_arrow0002" markerHeight="3" markerWidth="5" orient="auto" refX="4" refY="0.5" stroke="none">
<path d="M1,0 L4,0 L0,2 z" transform="scale(-1 1) translate (-5 0)"/>
</marker>
<marker fill="rgb(65 105 225)" id="voronoi_edge_details_filled_arrow0003" markerHeight="3" markerWidth="5" orient="auto" refX="4" refY="0.5" stroke="none">
<path d="M1,0 L4,0 L0,2 z" transform="scale(-1 1) translate (-5 0)"/>
</marker>
<marker fill="rgb(65 105 225)" id="voronoi_edge_details_filled_arrow0004" markerHeight="3" markerWidth="5" orient="auto" refX="4" refY="0.5" stroke="none">
<path d="M1,0 L4,0 L0,2 z" transform="scale(-1 1) translate (-5 0)"/>
</marker>
<marker fill="rgb(65 105 225)" id="voronoi_edge_details_filled_arrow0005" markerHeight="3" markerWidth="5" orient="auto" refX="4" refY="0.5" stroke="none">
<path d="M1,0 L4,0 L0,2 z" transform="scale(-1 1) translate (-5 0)"/>
</marker>
<marker fill="rgb(65 105 225)" id="voronoi_edge_details_filled_arrow0006" markerHeight="3" markerWidth="5" orient="auto" refX="4" refY="0.5" stroke="none">
<path d="M1,0 L4,0 L0,2 z" transform="scale(-1 1) translate (-5 0)"/>
</marker>
<marker fill="rgb(65 105 225)" id="voronoi_edge_details_filled_arrow0007" markerHeight="3" markerWidth="5" orient="auto" refX="4" refY="0.5" stroke="none">
<path d="M1,0 L4,0 L0,2 z" transform="scale(-1 1) translate (-5 0)"/>
</marker>
<marker fill="rgb(65 105 225)" id="voronoi_edge_details_filled_arrow0008" markerHeight="3" markerWidth="5" orient="auto" refX="4" refY="0.5" stroke="none">
<path d="M1,0 L4,0 L0,2 z" transform="scale(-1 1) translate (-5 0)"/>
</marker>
<marker fill="rgb(65 105 225)" id="voronoi_edge_details_filled_arrow0009" markerHeight="3" markerWidth="5" orient="auto" refX="4" refY="0.5" stroke="none">
<path d="M1,0 L4,0 L0,2 z" transform="scale(-1 1) translate (-5 0)"/>
</marker>
<marker fill="rgb(65 105 225)" id="voronoi_edge_details_filled_arrow0010" markerHeight="3" markerWidth="5" orient="auto" refX="4" refY="0.5" stroke="none">
<path d="M1,0 L4,0 L0,2 z" transform="scale(-1 1) translate (-5 0)"/>
</marker>
<marker fill="rgb(65 105 225)" id="voronoi_edge_details_filled_arrow0011" markerHeight="3" markerWidth="5" orient="auto" refX="4" refY="0.5" stroke="none">
<path d="M1,0 L4,0 L0,2 z" transform="scale(-1 1) translate (-5 0)"/>
</marker>
<marker fill="rgb(65 105 225)" id="voronoi_edge_details_filled_arrow0012" markerHeight="3" markerWidth="5" orient="auto" refX="4" refY="0.5" stroke="none">
<path d="M1,0 L4,0 L0,2 z" transform="scale(-1 1) translate (-5 0)"/>
</marker>
<marker fill="rgb(65 105 225)" id="voronoi_edge_details_filled_arrow0013" markerHeight="3" markerWidth="5" orient="auto" refX="4" refY="0.5" stroke="none">
<path d="M1,0 L4,0 L0,2 z" transform="scale(-1 1) translate (-5 0)"/>
</marker>
<marker fill="rgb(65 105 225)" id="voronoi_edge_details_filled_arrow0014" markerHeight="3" markerWidth="5" orient="auto" refX="4" refY="0.5" stroke="none">
<path d="M1,0 L4,0 L0,2 z" transform="scale(-1 1) translate (-5 0)"/>
</marker>
<marker fill="rgb(65 105 225)" id="voronoi_edge_details_filled_arrow0015" markerHeight="3" markerWidth="5" orient="auto" refX="4" refY="0.5" stroke="none">
<path d="M1,0 L4,0 L0,2 z" transform="scale(-1 1) translate (-5 0)"/>
</marker>
<marker fill="rgb(65 105 225)" id="voronoi_edge_details_filled_arrow0016" markerHeight="3" markerWidth="5" orient="auto" refX="4" refY="0.5" stroke="none">
<path d="M1,0 L4,0 L0,2 z" transform="scale(-1 1) translate (-5 0)"/>
</marker>
<marker fill="rgb(65 105 225)" id="voronoi_edge_details_filled_arrow0017" markerHeight="3" markerWidth="5" orient="auto" refX="4" refY="0.5" stroke="none">
<path d="M1,0 L4,0 L0,2 z" transform="scale(-1 1) translate (-5 0)"/>
</marker>
<marker fill="rgb(65 105 225)" id="voronoi_edge_details_filled_arrow0018" markerHeight="3" markerWidth="5" orient="auto" refX="4" refY="0.5" stroke="none">
<path d="M1,0 L4,0 L0,2 z" transform="scale(-1 1) translate (-5 0)"/>
</marker>
<marker fill="rgb(65 105 225)" id="voronoi_edge_details_filled_arrow0019" markerHeight="3" markerWidth="5" orient="auto" refX="4" refY="0.5" stroke="none">
<path d="M1,0 L4,0 L0,2 z" transform="scale(-1 1) translate (-5 0)"/>
</marker>
<marker fill="rgb(65 105 225)" id="voronoi_edge_details_filled_arrow0020" markerHeight="3" markerWidth="5" orient="auto" refX="4" refY="0.5" stroke="none">
<path d="M1,0 L4,0 L0,2 z" transform="scale(-1 1) translate (-5 0)"/>
</marker>
<marker fill="rgb(65 105 225)" id="voronoi_edge_details_filled_arrow0021" markerHeight="3" markerWidth="5" orient="auto" refX="4" refY="0.5" stroke="none">
<path d="M1,0 L4,0 L0,2 z" transform="scale(-1 1) translate (-5 0)"/>
</marker>
<marker fill="rgb(65 105 225)" id="voronoi_edge_details_filled_arrow0022" markerHeight="3" markerWidth="5" orient="auto" refX="4" refY="0.5" stroke="none">
<path d="M1,0 L4,0 L0,2 z" transform="scale(-1 1) translate (-5 0)"/>
</marker>
<marker fill="rgb(65 105 225)" id="voronoi_edge_details_filled_arrow0023" markerHeight="3" markerWidth="5" orient="auto" refX="4" refY="0.5" stroke="none">
<path d="M1,0 L4,0 L0,2 z" transform="scale(-1 1) translate (-5 0)"/>
</marker>
<marker fill="rgb(65 105 225)" id="voronoi_edge_details_filled_arrow0024" markerHeight="3" markerWidth="5" orient="auto" refX="4" refY="0.5" stroke="none">
<path d="M1,0 L4,0 L0,2 z" transform="scale(-1 1) translate (-5 0)"/>
</marker>
<marker fill="rgb(65 105 225)" id="voronoi_edge_details_filled_arrow0025" markerHeight="3" markerWidth="5" orient="auto" refX="4" refY="0.5" stroke="none">
<path d="M1,0 L4,0 L0,2 z" transform="scale(-1 1) translate (-5 0)"/>
</marker>
<marker fill="rgb(65 105 225)" id="voronoi_edge_details_filled_arrow0026" markerHeight="3" markerWidth="5" orient="auto" refX="4" refY="0.5" stroke="none">
<path d="M1,0 L4,0 L0,2 z" transform="scale(-1 1) translate (-5 0)"/>
</marker>
<marker fill="rgb(65 105 225)" id="voronoi_edge_details_filled_arrow0027" markerHeight="3" markerWidth="5" orient="auto" refX="4" refY="0.5" stroke="none">
<path d="M1,0 L4,0 L0,2 z" transform="scale(-1 1) translate (-5 0)"/>
</marker>
<marker fill="rgb(65 105 225)" id="voronoi_edge_details_filled_arrow0028" markerHeight="3" markerWidth="5" orient="auto" refX="4" refY="0.5" stroke="none">
<path d="M1,0 L4,0 L0,2 z" transform="scale(-1 1) translate (-5 0)"/>
</marker>
<marker fill="rgb(65 105 225)" id="voronoi_edge_details_filled_arrow0029" markerHeight="3" markerWidth="5" orient="auto" refX="4" refY="0.5" stroke="none">
<path d="M1,0 L4,0 L0,2 z" transform="scale(-1 1) translate (-5 0)"/>
</marker>
<marker fill="rgb(65 105 225)" id="voronoi_edge_details_filled_arrow0030" markerHeight="3" markerWidth="5" orient="auto" refX="4" refY="0.5" stroke="none">
<path d="M1,0 L4,0 L0,2 z" transform="scale(-1 1) translate (-5 0)"/>
</marker>
<marker fill="rgb(65 105 225)" id="voronoi_edge_details_filled_arrow0031" markerHeight="3" markerWidth="5" orient="auto" refX="4" refY="0.5" stroke="none">
<path d="M1,0 L4,0 L0,2 z" transform="scale(-1 1) translate (-5 0)"/>
</marker>
<marker fill="rgb(65 105 225)" id="voronoi_edge_details_filled_arrow0032" markerHeight="3" markerWidth="5" orient="auto" refX="4" refY="0.5" stroke="none">
<path d="M1,0 L4,0 L0,2 z" transform="scale(-1 1) translate (-5 0)"/>
</marker>
<marker fill="rgb(65 105 225)" id="voronoi_edge_details_filled_arrow0033" markerHeight="3" markerWidth="5" orient="auto" refX="4" refY="0.5" stroke="none">
<path d="M1,0 L4,0 L0,2 z" transform="scale(-1 1) translate (-5 0)"/>
</marker>
<marker fill="rgb(65 105 225)" id="voronoi_edge_details_filled_arrow0034" markerHeight="3" markerWidth="5" orient="auto" refX="4" refY="0.5" stroke="none">
<path d="M1,0 L4,0 L0,2 z" transform="scale(-1 1) translate (-5 0)"/>
</marker>
<marker fill="rgb(65 105 225)" id="voronoi_edge_details_filled_arrow0035" markerHeight="3" markerWidth="5" orient="auto" refX="4" refY="0.5" stroke="none">
<path d="M1,0 L4,0 L0,2 z" transform="scale(-1 1) translate (-5 0)"/>
</marker>
<marker fill="rgb(65 105 225)" id="voronoi_edge_details_filled_arrow0036" markerHeight="3" markerWidth="5" orient="auto" refX="4" refY="0.5" stroke="none">
<path d="M1,0 L4,0 L0,2 z" transform="scale(-1 1) translate (-5 0)"/>
</marker>
<marker fill="rgb(65 105 225)" id="voronoi_edge_details_filled_arrow0037" markerHeight="3" markerWidth="5" orient="auto" refX="4" refY="0.5" stroke="none">
<path d="M1,0 L4,0 L0,2 z" transform="scale(-1 1) translate (-5 0)"/>
</marker>
<marker fill="rgb(65 105 225)" id="voronoi_edge_details_filled_arrow0038" markerHeight="3" markerWidth="5" orient="auto" refX="4" refY="0.5" stroke="none">
<path d="M1,0 L4,0 L0,2 z" transform="scale(-1 1) translate (-5 0)"/>
</marker>
<marker fill="rgb(65 105 225)" id="voronoi_edge_details_filled_arrow0039" markerHeight="3" markerWidth="5" orient="auto" refX="4" refY="0.5" stroke="none">
<path d="M1,0 L4,0 L0,2 z" transform="scale(-1 1) translate (-5 0)"/>
</marker>
<marker fill="rgb(65 105 225)" id="voronoi_edge_details_filled_arrow0040" markerHeight="3" markerWidth="5" orient="auto" refX="4" refY="0.5" stroke="none">
<path d="M1,0 L4,0 L0,2 z" transform="scale(-1 1) translate (-5 0)"/>
</marker>
<marker fill="rgb(65 105 225)" id="voronoi_edge_details_filled_arrow0041" markerHeight="3" markerWidth="5" orient="auto" refX="4" refY="0.5" stroke="none">
<path d="M1,0 L4,0 L0,2 z" transform="scale(-1 1) translate (-5 0)"/>
</marker>
<marker fill="rgb(65 105 225)" id="voronoi_edge_details_filled_arrow0042" markerHeight="3" markerWidth="5" orient="auto" refX="4" refY="0.5" stroke="none">
<path d="M1,0 L4,0 L0,2 z" transform="scale(-1 1) translate (-5 0)"/>
</marker>
<marker fill="rgb(65 105 225)" id="voronoi_edge_details_filled_arrow0043" markerHeight="3" markerWidth="5" orient="auto" refX="4" refY="0.5" stroke="none">
<path d="M1,0 L4,0 L0,2 z" transform="scale(-1 1) translate (-5 0)"/>
</marker>
<marker fill="rgb(65 105 225)" id="voronoi_edge_details_filled_arrow0044" markerHeight="3" markerWidth="5" orient="auto" refX="4" refY="0.5" stroke="none">
<path d="M1,0 L4,0 L0,2 z" transform="scale(-1 1) translate (-5 0)"/>
</marker>
<marker fill="rgb(65 105 225)" id="voronoi_edge_details_filled_arrow0045" markerHeight="3" markerWidth="5" orient="auto" refX="4" refY="0.5" stroke="none">
<path d="M1,0 L4,0 L0,2 z" transform="scale(-1 1) translate (-5 0)"/>
</marker>
</defs>
<rect height="100%" style="fill: url(#voronoi_edge_details_pattern0001)" width="100%" x="-17.7" y="-35.7"/>
<g>
<path d="M-41,61 L-50,-50 L-30,25 z" style="fill: rgb(211 211 211)"/>
<path d="M-41,-60 L-40,-40 L-50,-50 z" style="fill: rgb(211 211 211)"/>
<path d="M-40,-40 L-30,25 L-50,-50 z" style="fill: rgb(211 211 211)"/>
<path d="M-30,25 L-40,-40 L30,0 z" style="fill: rgb(211 211 211)"/>
<path d="M-41,61 L-30,25 L40,20 z" style="fill: rgb(211 211 211)"/>
<path d="M30,0 L-40,-40 L41,-20 z" style="fill: rgb(211 211 211)"/>
<path d="M30,0 L40,20 L-30,25 z" style="fill: rgb(211 211 211)"/>
<path d="M40,20 L30,0 L41,-20 z" style="fill: rgb(211 211 211)"/>
<path d="M-41,-60 L41,-70 L-40,-40 z" style="fill: rgb(211 211 211)"/>
<path d="M41,-80 L41,-70 L-41,-60 z" style="fill: rgb(211 211 211)"/>
<path d="M41,-70 L41,-20 L-40,-40 z" style="fill: rgb(211 211 211)"/>
<path d="M107,-20 L40,20 L41,-20 z" style="fill: rgb(211 211 211)"/>
<path d="M107,-20 L41,-20 L90,-40 z" style="fill: rgb(211 211 211)"/>
<path d="M41,-70 L90,-40 L41,-20 z" style="fill: rgb(211 211 211)"/>
<path d="M41,-80 L90,-40 L41,-70 z" style="fill: rgb(211 211 211)"/>
<path d="M90,60 L-41,61 L40,20 z" style="fill: rgb(211 211 211)"/>
<path d="M90,60 L40,20 L107,-20 z" style="fill: rgb(211 211 211)"/>
<line style="stroke-width: 1; stroke: rgb(169 169 169); fill: none" x1="-50" x2="-41" y1="-50" y2="-60"/>
<line style="stroke-width: 1; stroke: rgb(169 169 169); fill: none" x1="-41" x2="-50" y1="61" y2="-50"/>
<line style="stroke-width: 1; stroke: rgb(169 169 169); fill: none" x1="-40" x2="-50" y1="-40" y2="-50"/>
<line style="stroke-width: 1; stroke: rgb(169 169 169); fill: none" x1="-50" x2="-30" y1="-50" y2="25"/>
<line style="stroke-width: 1; stroke: rgb(169 169 169); fill: none" x1="-40" x2="-41" y1="-40" y2="-60"/>
<line style="stroke-width: 1; stroke: rgb(169 169 169); fill: none" x1="-30" x2="-41" y1="25" y2="61"/>
<line style="stroke-width: 1; stroke: rgb(169 169 169); fill: none" x1="-30" x2="-40" y1="25" y2="-40"/>
<line style="stroke-width: 1; stroke: rgb(169 169 169); fill: none" x1="30" x2="-40" y1="0" y2="-40"/>
<line style="stroke-width: 1; stroke: rgb(169 169 169); fill: none" x1="-30" x2="40" y1="25" y2="20"/>
<line style="stroke-width: 1; stroke: rgb(169 169 169); fill: none" x1="30" x2="-30" y1="0" y2="25"/>
<line style="stroke-width: 1; stroke: rgb(169 169 169); fill: none" x1="41" x2="-40" y1="-70" y2="-40"/>
<line style="stroke-width: 1; stroke: rgb(169 169 169); fill: none" x1="40" x2="-41" y1="20" y2="61"/>
<line style="stroke-width: 1; stroke: rgb(169 169 169); fill: none" x1="40" x2="30" y1="20" y2="0"/>
<line style="stroke-width: 1; stroke: rgb(169 169 169); fill: none" x1="30" x2="41" y1="0" y2="-20"/>
<line style="stroke-width: 1; stroke: rgb(169 169 169); fill: none" x1="-40" x2="41" y1="-40" y2="-20"/>
<line style="stroke-width: 1; stroke: rgb(169 169 169); fill: none" x1="41" x2="-41" y1="-70" y2="-60"/>
<line style="stroke-width: 1; stroke: rgb(169 169 169); fill: none" x1="41" x2="41" y1="-80" y2="-70"/>
<line style="stroke-width: 1; stroke: rgb(169 169 169); fill: none" x1="41" x2="-41" y1="-80" y2="-60"/>
<line style="stroke-width: 1; stroke: rgb(169 169 169); fill: none" x1="41" x2="40" y1="-20" y2="20"/>
<line style="stroke-width: 1; stroke: rgb(169 169 169); fill: none" x1="41" x2="41" y1="-20" y2="-70"/>
<line style="stroke-width: 1; stroke: rgb(169 169 169); fill: none" x1="107" x2="40" y1="-20" y2="20"/>
<line style="stroke-width: 1; stroke: rgb(169 169 169); fill: none" x1="107" x2="41" y1="-20" y2="-20"/>
<line style="stroke-width: 1; stroke: rgb(169 169 169); fill: none" x1="90" x2="41" y1="-40" y2="-20"/>
<line style="stroke-width: 1; stroke: rgb(169 169 169); fill: none" x1="90" x2="41" y1="-40" y2="-70"/>
<line style="stroke-width: 1; stroke: rgb(169 169 169); fill: none" x1="90" x2="107" y1="-40" y2="-20"/>
<line style="stroke-width: 1; stroke: rgb(169 169 169); fill: none" x1="90" x2="41" y1="-40" y2="-80"/>
<line style="stroke-width: 1; stroke: rgb(169 169 169); fill: none" x1="90" x2="-41" y1="60" y2="61"/>
<line style="stroke-width: 1; stroke: rgb(169 169 169); fill: none" x1="90" x2="40" y1="60" y2="20"/>
<line style="stroke-width: 1; stroke: rgb(169 169 169); fill: none" x1="90" x2="107" y1="60" y2="-20"/>
<circle cx="-50" cy="-50" r="2" style="stroke-width: 0.5; stroke: rgb(169 169 169); fill: rgb(128 128 128)"/>
<circle cx="-41" cy="-60" r="2" style="stroke-width: 0.5; stroke: rgb(169 169 169); fill: rgb(128 128 128)"/>
<circle cx="-41" cy="61" r="2" style="stroke-width: 0.5; stroke: rgb(169 169 169); fill: rgb(128 128 128)"/>
<circle cx="-40" cy="-40" r="2" style="stroke-width: 0.5; stroke: rgb(169 169 169); fill: rgb(128 128 128)"/>
<circle cx="-30" cy="25" r="2" style="stroke-width: 0.5; stroke: rgb(169 169 169); fill: rgb(128 128 128)"/>
<circle cx="30" cy="0" r="2" style="stroke-width: 0.5; stroke: rgb(169 169 169); fill: rgb(128 128 128)"/>
<circle cx="40" cy="20" r="2" style="stroke-width: 0.5; stroke: rgb(169 169 169); fill: rgb(128 128 128)"/>
<circle cx="41" cy="-70" r="2" style="stroke-width: 0.5; stroke: rgb(169 169 169); fill: rgb(128 128 128)"/>
<circle cx="41" cy="-80" r="2" style="stroke-width: 0.5; stroke: rgb(169 169 169); fill: rgb(128 128 128)"/>
<circle cx="41" cy="-20" r="2" style="stroke-width: 0.5; stroke: rgb(169 169 169); fill: rgb(128 128 128)"/>
<circle cx="107" cy="-20" r="2" style="stroke-width: 0.5; stroke: rgb(169 169 169); fill: rgb(128 128 128)"/>
<circle cx="90" cy="-40" r="2" style="stroke-width: 0.5; stroke: rgb(169 169 169); fill: rgb(128 128 128)"/>
<circle cx="90" cy="60" r="2" style="stroke-width: 0.5; stroke: rgb(169 169 169); fill: rgb(128 128 128)"/>
<circle cx="-134.5873786407767" cy="12.723300970873787" r="2" style="stroke-width: 0.5; stroke: rgb(0 0 0); fill: rgb(65 105 225)"/>
<circle cx="-39.973684210526315" cy="-50.026315789473685" r="2" style="stroke-width: 0.5; stroke: rgb(0 0 0); fill: rgb(65 105 225)"/>
<circle cx="-91.13636363636363" cy="1.1363636363636331" r="2" style="stroke-width: 0.5; stroke: rgb(0 0 0); fill: rgb(65 105 225)"/>
<circle cx="-9.93975903614458" cy="-11.355421686746986" r="2" style="stroke-width: 0.5; stroke: rgb(0 0 0); fill: rgb(65 105 225)"/>
<circle cx="7.400608519269774" cy="56.10851926977688" r="2" style="stroke-width: 0.5; stroke: rgb(0 0 0); fill: rgb(65 105 225)"/>
<circle cx="0.33695652173912904" cy="-29.33967391304348" r="2" style="stroke-width: 0.5; stroke: rgb(0 0 0); fill: rgb(65 105 225)"/>
<circle cx="5.172413793103452" cy="24.913793103448274" r="2" style="stroke-width: 0.5; stroke: rgb(0 0 0); fill: rgb(65 105 225)"/>
<circle cx="54.30952380952381" cy="0.3452380952380949" r="2" style="stroke-width: 0.5; stroke: rgb(0 0 0); fill: rgb(65 105 225)"/>
<circle cx="1.5727272727272705" cy="-52.10363636363636" r="2" style="stroke-width: 0.5; stroke: rgb(0 0 0); fill: rgb(65 105 225)"/>
<circle cx="-1.2195121951219505" cy="-75" r="2" style="stroke-width: 0.5; stroke: rgb(0 0 0); fill: rgb(65 105 225)"/>
<circle cx="4.203703703703702" cy="-45" r="2" style="stroke-width: 0.5; stroke: rgb(0 0 0); fill: rgb(65 105 225)"/>
<circle cx="74" cy="0.8374999999999986" r="2" style="stroke-width: 0.5; stroke: rgb(0 0 0); fill: rgb(65 105 225)"/>
<circle cx="74" cy="-9.175" r="2" style="stroke-width: 0.5; stroke: rgb(0 0 0); fill: rgb(65 105 225)"/>
<circle cx="59.37755102040816" cy="-45" r="2" style="stroke-width: 0.5; stroke: rgb(0 0 0); fill: rgb(65 105 225)"/>
<circle cx="77.74489795918367" cy="-75" r="2" style="stroke-width: 0.5; stroke: rgb(0 0 0); fill: rgb(65 105 225)"/>
<circle cx="24.72778827977315" cy="90.34026465028356" r="2" style="stroke-width: 0.5; stroke: rgb(0 0 0); fill: rgb(65 105 225)"/>
<circle cx="83.54273504273505" cy="16.8215811965812" r="2" style="stroke-width: 0.5; stroke: rgb(0 0 0); fill: rgb(65 105 225)"/>
<line style="stroke-width: 1; stroke: rgb(65 105 225); marker-start: url(#voronoi_edge_details_filled_arrow0002); fill: none" x1="-44.07490354140829" x2="-89.9342821083465" y1="-47.056467308490184" y2="-1.1970887415519744"/>
<line style="stroke-width: 1; stroke: rgb(65 105 225); marker-start: url(#voronoi_edge_details_filled_arrow0003); fill: none" x1="-87.03514430548165" x2="-41.17576573854345" y1="-1.8334848446198673" y2="-47.69286341155808"/>
<line style="stroke-width: 1; stroke: rgb(65 105 225); marker-start: url(#voronoi_edge_details_filled_arrow0004); fill: none" x1="-129.5500738223222" x2="-93.34582086491848" y1="12.207975669753123" y2="2.5535082144454613"/>
<line style="stroke-width: 1; stroke: rgb(65 105 225); marker-start: url(#voronoi_edge_details_filled_arrow0005); fill: none" x1="-96.17366845481813" x2="-132.37792141222187" y1="1.6516889374842978" y2="11.306156392791959"/>
<line style="stroke-width: 1; stroke: rgb(65 105 225); marker-start: url(#voronoi_edge_details_filled_arrow0006); fill: none" x1="-3.4609845152170666" x2="-37.51675345688682" y1="-52.65295015001917" y2="-50.950161702935695"/>
<line style="stroke-width: 1; stroke: rgb(65 105 225); marker-start: url(#voronoi_edge_details_filled_arrow0007); fill: none" x1="-34.93997242258198" x2="-0.8842034809122276" y1="-49.477002003090874" y2="-51.17979045017435"/>
<line style="stroke-width: 1; stroke: rgb(65 105 225); marker-start: url(#voronoi_edge_details_filled_arrow0008); fill: none" x1="-130.03939561399926" x2="4.77595476316221" y1="14.949474905709959" y2="56.1430541876204"/>
<line style="stroke-width: 1; stroke: rgb(65 105 225); marker-start: url(#voronoi_edge_details_filled_arrow0009); fill: none" x1="2.8526254924922956" x2="-131.96272488466914" y1="53.88234533494071" y2="12.688766053030266"/>
<line style="stroke-width: 1; stroke: rgb(65 105 225); marker-start: url(#voronoi_edge_details_filled_arrow0010); fill: none" x1="-15.003263271800819" x2="-88.78708013964024" y1="-11.385833123597774" y2="-0.03447668239171342"/>
<line style="stroke-width: 1; stroke: rgb(65 105 225); marker-start: url(#voronoi_edge_details_filled_arrow0011); fill: none" x1="-86.0728594007074" x2="-12.289042532867969" y1="1.1667750732144215" y2="-10.18458136799164"/>
<line style="stroke-width: 1; stroke: rgb(65 105 225); marker-start: url(#voronoi_edge_details_filled_arrow0012); fill: none" x1="7.842340229194815" x2="6.148498377937813" y1="51.06422813063287" y2="27.350442213034782"/>
<line style="stroke-width: 1; stroke: rgb(65 105 225); marker-start: url(#voronoi_edge_details_filled_arrow0013); fill: none" x1="4.730682083178411" x2="6.424523934435413" y1="29.958084242592275" y2="53.671870160190366"/>
<line style="stroke-width: 1; stroke: rgb(65 105 225); marker-start: url(#voronoi_edge_details_filled_arrow0014); fill: none" x1="2.5591000432662785" x2="2.5852188055657543" y1="-47.137041075358965" y2="-47.066520417150386"/>
<line style="stroke-width: 1; stroke: rgb(65 105 225); marker-start: url(#voronoi_edge_details_filled_arrow0015); fill: none" x1="3.217330933164695" x2="3.1912121708652186" y1="-49.9665952882774" y2="-50.037115946485976"/>
<line style="stroke-width: 1; stroke: rgb(65 105 225); marker-start: url(#voronoi_edge_details_filled_arrow0016); fill: none" x1="8.944908651159626" x2="22.88498220227549" y1="60.93087731358128" y2="88.47102262188336"/>
<line style="stroke-width: 1; stroke: rgb(65 105 225); marker-start: url(#voronoi_edge_details_filled_arrow0017); fill: none" x1="23.183488147883303" x2="9.243414596767435" y1="85.51790660647917" y2="57.97776129817708"/>
<line style="stroke-width: 1; stroke: rgb(65 105 225); marker-start: url(#voronoi_edge_details_filled_arrow0018); fill: none" x1="2.3122034290340245" x2="4.381092382271448" y1="-34.002119586209226" y2="-42.38111984682079"/>
<line style="stroke-width: 1; stroke: rgb(65 105 225); marker-start: url(#voronoi_edge_details_filled_arrow0019); fill: none" x1="2.228456796408807" x2="0.15956784317138362" y1="-40.33755432683426" y2="-31.958554066222693"/>
<line style="stroke-width: 1; stroke: rgb(65 105 225); marker-start: url(#voronoi_edge_details_filled_arrow0020); fill: none" x1="-1.4083570206071734" x2="0.4759746324092504" y1="-69.93992711199854" y2="-54.48840755726385"/>
<line style="stroke-width: 1; stroke: rgb(65 105 225); marker-start: url(#voronoi_edge_details_filled_arrow0021); fill: none" x1="1.7615720982124934" x2="-0.12275955480393053" y1="-57.163709251637826" y2="-72.61522880637253"/>
<line style="stroke-width: 1; stroke: rgb(65 105 225); marker-start: url(#voronoi_edge_details_filled_arrow0022); fill: none" x1="3.7804878048780495" x2="75.24489795918367" y1="-74.2" y2="-74.2"/>
<line style="stroke-width: 1; stroke: rgb(65 105 225); marker-start: url(#voronoi_edge_details_filled_arrow0023); fill: none" x1="72.74489795918367" x2="1.2804878048780495" y1="-75.8" y2="-75.8"/>
<line style="stroke-width: 1; stroke: rgb(65 105 225); marker-start: url(#voronoi_edge_details_filled_arrow0024); fill: none" x1="59.28796828863626" x2="71.48078713105153" y1="1.269949168165608" y2="1.5747696392259893"/>
<line style="stroke-width: 1; stroke: rgb(65 105 225); marker-start: url(#voronoi_edge_details_filled_arrow0025); fill: none" x1="69.02155552088753" x2="56.82873667847228" y1="-0.08721107292751468" y2="-0.3920315439878958"/>
<line style="stroke-width: 1; stroke: rgb(65 105 225); marker-start: url(#voronoi_edge_details_filled_arrow0026); fill: none" x1="54.37755102040816" x2="6.703703703703702" y1="-45.8" y2="-45.8"/>
<line style="stroke-width: 1; stroke: rgb(65 105 225); marker-start: url(#voronoi_edge_details_filled_arrow0027); fill: none" x1="9.203703703703702" x2="56.87755102040816" y1="-44.2" y2="-44.2"/>
<line style="stroke-width: 1; stroke: rgb(65 105 225); marker-start: url(#voronoi_edge_details_filled_arrow0028); fill: none" x1="75.8761522982462" x2="81.57431295932919" y1="5.54069599355433" y2="15.08511510086836"/>
<line style="stroke-width: 1; stroke: rgb(65 105 225); marker-start: url(#voronoi_edge_details_filled_arrow0029); fill: none" x1="81.66658274448885" x2="75.96842208340586" y1="12.118385203026868" y2="2.573966095712837"/>
<line style="stroke-width: 1; stroke: rgb(65 105 225); marker-start: url(#voronoi_edge_details_filled_arrow0030); fill: none" x1="73.2" x2="73.2" y1="-4.175000000000001" y2="-1.6625000000000014"/>
<line style="stroke-width: 1; stroke: rgb(65 105 225); marker-start: url(#voronoi_edge_details_filled_arrow0031); fill: none" x1="74.8" x2="74.8" y1="-4.162500000000001" y2="-6.675000000000001"/>
<line style="stroke-width: 1; stroke: rgb(65 105 225); marker-start: url(#voronoi_edge_details_filled_arrow0032); fill: none" x1="60.52635789258506" x2="72.31457939147732" y1="-40.06844418358272" y2="-11.187301511296708"/>
<line style="stroke-width: 1; stroke: rgb(65 105 225); marker-start: url(#voronoi_edge_details_filled_arrow0033); fill: none" x1="72.85119312782311" x2="61.06297162893085" y1="-14.106555816417284" y2="-42.987698488703295"/>
<line style="stroke-width: 1; stroke: rgb(65 105 225); marker-start: url(#voronoi_edge_details_filled_arrow0034); fill: none" x1="74.45184761773001" x2="60.000654626243474" y1="-71.15346656732949" y2="-47.54985134790149"/>
<line style="stroke-width: 1; stroke: rgb(65 105 225); marker-start: url(#voronoi_edge_details_filled_arrow0035); fill: none" x1="62.67060136186183" x2="77.12179435334836" y1="-48.8465334326705" y2="-72.4501486520985"/>
<line style="stroke-width: 1; stroke: rgb(65 105 225); marker-start: url(#voronoi_edge_details_filled_arrow0036); fill: none" x1="79.79456475740851" x2="25.664830851104785" y1="20.226169205752814" y2="87.88833658863244"/>
<line style="stroke-width: 1; stroke: rgb(65 105 225); marker-start: url(#voronoi_edge_details_filled_arrow0037); fill: none" x1="28.475958565099695" x2="82.60569247140342" y1="86.93567664111195" y2="19.273509258232316"/>
<text dy="-3.3" font-size="5" style="fill: rgb(0 0 0)" text-anchor="middle" transform="translate (29.74096880131363 12.629515599343184) rotate (-26.56505117707799) translate(-29.74096880131363 -12.629515599343184)" x="29.74096880131363" y="12.629515599343184">
edge
</text>
<text dy="5.7" font-size="5" style="fill: rgb(0 0 0)" text-anchor="middle" transform="translate (29.74096880131363 12.629515599343184) rotate (-26.56505117707799) translate(-29.74096880131363 -12.629515599343184)" x="29.74096880131363" y="12.629515599343184">
edge.rev()
</text>
<line style="stroke-width: 1; stroke: rgb(65 105 225); marker-start: url(#voronoi_edge_details_filled_arrow0038); fill: none" x1="10.002320624502998" x2="52.43122670842399" y1="23.393266878748413" y2="2.1788138367879224"/>
<line style="stroke-width: 1; stroke: rgb(65 105 225); marker-start: url(#voronoi_edge_details_filled_arrow0039); fill: none" x1="49.47961697812427" x2="7.0507108942032755" y1="1.865764319937952" y2="23.080217361898445"/>
<text dy="5.3" font-size="5" style="fill: rgb(0 0 0)" text-anchor="middle" transform="translate (27.323240165631468 -14.497217908902693) rotate (28.81079374297306) translate(-27.323240165631468 14.497217908902693)" x="27.323240165631468" y="-14.497217908902693">
edge.next()
</text>
<line style="stroke-width: 1; stroke: rgb(65 105 225); marker-start: url(#voronoi_edge_details_filled_arrow0040); fill: none" x1="50.313979265958295" x2="2.913031293248471" y1="-2.765328380564002" y2="-28.835849765554407"/>
<line style="stroke-width: 1; stroke: rgb(65 105 225); marker-start: url(#voronoi_edge_details_filled_arrow0041); fill: none" x1="4.33250106530464" x2="51.73344903801447" y1="-26.229107437241385" y2="-0.1585860522509771"/>
<line style="stroke-width: 1; stroke: rgb(65 105 225); marker-start: url(#voronoi_edge_details_filled_arrow0042); fill: none" x1="-2.838332683744607" x2="-9.394006203952062" y1="-25.395369353106652" y2="-13.922940692743602"/>
<line style="stroke-width: 1; stroke: rgb(65 105 225); marker-start: url(#voronoi_edge_details_filled_arrow0043); fill: none" x1="-6.764469830660843" x2="-0.20879631045338787" y1="-15.299726246683816" y2="-26.77215490704687"/>
<text dy="-3.2" font-size="5" style="fill: rgb(0 0 0)" text-anchor="middle" transform="translate (-2.3836726215205637 6.779185708350644) rotate (67.38013505195957) translate(2.3836726215205637 -6.779185708350644)" x="-2.3836726215205637" y="6.779185708350644">
edge.prev()
</text>
<line style="stroke-width: 1; stroke: rgb(65 105 225); marker-start: url(#voronoi_edge_details_filled_arrow0044); fill: none" x1="-8.755143651529194" x2="3.4724137931034518" y1="-6.432344763670064" y2="22.913793103448274"/>
<line style="stroke-width: 1; stroke: rgb(65 105 225); marker-start: url(#voronoi_edge_details_filled_arrow0045); fill: none" x1="3.987798408488067" x2="-8.23975903614458" y1="19.990716180371354" y2="-9.355421686746988"/>
</g>
</svg>